<svg version="1.1" id="Layer_1" xmlns="http://www.w3.org/2000/svg" x="0" y="0" viewBox="0 0 45 45" style="enable-background:new 0 0 45 45" xml:space="preserve"><style>.st0{fill:#48639e}.st1{fill:#24a7d0}</style><path class="st0" d="M2.53 38.17h39.94v1H2.53zM22 4.45h1v2.86h-1zM11.58 25.27h21.99v1H11.58z"/><path d="M11.43 23.8v14.87h22.14V23.8H11.43z" style="fill:none;stroke:#48639e;stroke-miterlimit:10"/><path class="st0" d="M13.93 23.99h-3v-3.51h3v3.51zm-2-1h1v-1.51h-1v1.51zM34.07 23.99h-3v-3.51h3v3.51zm-2-1h1v-1.51h-1v1.51z"/><path class="st1" d="M24.78 11.23h-4.65v-2.1a2.33 2.33 0 0 1 2.33-2.32c1.28 0 2.32 1.04 2.32 2.32v2.1zm-3.65-1h2.65v-1.1c0-.73-.59-1.32-1.32-1.32-.73 0-1.33.59-1.33 1.32v1.1z"/><path class="st0" d="M29.96 24.3h-14.8v-5.97h4.86v1h-3.86v3.97h12.8v-3.97h-3.95v-1h4.95zM28.09 13.36H16.91l1.01-3.13h9.15l1.02 3.13zm-9.8-1h8.43l-.37-1.13h-7.7l-.36 1.13z"/><path class="st0" d="M26.03 18.83h-1c0-1.34-1.14-2.43-2.53-2.43s-2.53 1.09-2.53 2.43h-1c0-1.89 1.58-3.43 3.53-3.43s3.53 1.54 3.53 3.43zM32.07 18.12h1v2.86h-1zM11.93 18.12h1v2.86h-1zM16.86 31.13h4.55v1h-4.55zM30.31 31.13h3.26v1h-3.26zM23.59 31.13h4.55v1h-4.55zM11.43 31.13h3.26v1h-3.26z"/><path class="st1" d="M17.31 35.81h-3.17v-6.77c0-.89.69-1.59 1.58-1.59.9 0 1.59.7 1.59 1.59v6.77zm-2.16-1h1.17v-5.77c0-.33-.25-.59-.58-.59-.33 0-.59.26-.59.59v5.77zM24.04 35.81h-3.18v-6.77c0-.88.71-1.59 1.59-1.59s1.59.71 1.59 1.59v6.77zm-2.17-1h1.18v-5.77c0-.33-.26-.59-.59-.59s-.59.26-.59.59v5.77zM30.77 35.81H27.6v-6.77c0-.88.71-1.59 1.58-1.59.9 0 1.59.7 1.59 1.59v6.77zm-2.17-1h1.17v-5.77c0-.33-.25-.59-.58-.59-.34 0-.59.26-.59.59v5.77z"/><path class="st0" d="M25.5 13.13h1v5.43h-1zM18.42 13.13h1v5.43h-1z"/></svg>