<svg version="1.1" id="Layer_1" xmlns="http://www.w3.org/2000/svg" x="0" y="0" viewBox="0 0 45 45" style="enable-background:new 0 0 45 45" xml:space="preserve"><style>.st0{fill:#48639e}.st1{fill:#24a7d0}</style><path class="st0" d="M2.53 38.17h39.94v1H2.53z"/><path class="st1" d="M31.06 33.12h1v3.79h-1zM12.94 33.12h1v3.79h-1zM21.97 12.09h1v3.1h-1zM18.39 31.85h1v4.86h-1zM21.86 31.85h1v4.86h-1zM25.33 31.85h1v4.86h-1z"/><path class="st0" d="M19.5 29.83v-4.74h.92l.04-13.18 1.98-4.99 2.15 5.17v13h.91v4.74l-3-1.42-3 1.42zm1-3.75v2.16l2-.9.16.04-.1.5.21-.45 1.71.81v-2.16h-.91V12.19l-1.12-2.64-1.04 2.63v13.9h-.91z"/><path class="st0" d="M20.91 11.59h3.17v1h-3.17zM20.91 17.71h3.17v1h-3.17zM20.91 14.68h3.17v1h-3.17zM20.92 25.08h3.17v1h-3.17z"/><path transform="matrix(1.997881e-03 -1 1 1.997881e-03 -14.2265 59.1122)" class="st0" d="M22 20.06h1V53.3h-1z"/><path class="st0" d="M10.39 39.17H5.31V29.7h5.08v9.47zm-4.08-1h3.08V30.7H6.31v7.47z"/><path class="st0" d="M17.49 39.17h-8.1v-8.76h8.09v8.76zm-7.1-1h6.09v-6.76h-6.09v6.76z"/><path class="st0" d="M9.89 32.43h7.09v1H9.89zM5.81 31.46h4.08v1H5.81z"/><path class="st0" d="M7.35 31.96h1v4.63h-1zM39.69 39.17h-5.08V29.7h5.08v9.47zm-4.08-1h3.08V30.7h-3.08v7.47z"/><path class="st0" d="M35.61 39.17h-8.09v-8.76h8.09v8.76zm-7.1-1h6.09v-6.76h-6.09v6.76z"/><path class="st0" d="M28.01 32.43h7.09v1h-7.09zM35.11 31.46h4.08v1h-4.08z"/><path class="st0" d="M36.65 31.96h1v4.78h-1zM16.99 31.35h11.03v1H16.99zM21.94 6.86h1v1.58h-1z"/><path class="st0" d="M28.51 39.17H16.49v-9.03l6.01-2.8.16.04-.1.5.21-.45 5.73 2.71v9.03zm-11.02-1h10.02v-7.39L22.5 28.4l-5 2.38v7.39z"/></svg>