<svg version="1.1" id="Layer_1" xmlns="http://www.w3.org/2000/svg" x="0" y="0" viewBox="0 0 45 45" style="enable-background:new 0 0 45 45" xml:space="preserve"><style>.st0{fill:#48639e}.st1{fill:#24a7d0}</style><path class="st1" d="M16.5 24.67h1v14.5h-1zM18.91 24.67h1v14.5h-1zM25.45 24.67h1v14.5h-1zM27.86 24.67h1v14.5h-1z"/><path class="st0" d="M22 28.18h1v10.99h-1zM14.49 23.28h1v15.89h-1zM29.77 23.28h1v15.89h-1z"/><path class="st0" d="M30.8 23.6v-.89h-7.67v2.55h-1.37v-2.55h-7.34v.73H7.2v15.73h1V24.44h7.22v-.73h5.34v2.55h3.37v-2.55h5.67v.89h7v14.57h1V23.6h-7zm-6.29-.24-.2-.65h-1.18v2.55h-1.37v-2.55h-1.03l-.2.65c-.07.21-.26.35-.48.35h.71v2.55h3.37v-2.55h.86c-.22 0-.41-.14-.48-.35z"/><path class="st0" d="M21.94 17.6a.484.484 0 0 0-.26-.07.5.5 0 0 0-.35.14l-.15.15-4.88 4.89-.15.15a.499.499 0 0 0 .35.85h3.55c.22 0 .41-.14.48-.35l.2-.65 1.36-4.32.07-.22c.02-.05.02-.1.02-.15a.49.49 0 0 0-.24-.42zm-4.23 5.11 2.88-2.89-.91 2.89h-1.97zM28.89 22.86l-.15-.15-4.88-4.9-.14-.14a.46.46 0 0 0-.36-.14.482.482 0 0 0-.49.49c0 .05 0 .1.02.15l.07.22 1.35 4.32.2.65c.07.21.26.35.48.35h3.55c.2 0 .38-.12.46-.31.08-.18.04-.4-.11-.54zm-3.53-.15-.91-2.89 2.88 2.89h-1.97z"/><path class="st0" d="M21.18 13.1h1v4.92h-1zM22.86 13.1h1v4.92h-1z"/><path class="st0" d="M21.68 13.88h1.68v1h-1.68zM21.68 17.39h1.68v1h-1.68zM33.73 26.95c-.82 0-1.49.66-1.49 1.49v10.73h1V28.44a.49.49 0 0 1 .98 0v10.73h1V28.44c0-.83-.67-1.49-1.49-1.49zM11.24 26.95c-.82 0-1.49.66-1.49 1.49v10.73h1V28.44c0-.27.23-.49.49-.49.27 0 .49.22.49.49v10.73h1V28.44c0-.83-.66-1.49-1.49-1.49z"/><path class="st0" d="M2.53 38.17h39.94v1H2.53z"/></svg>