<svg version="1.1" id="Layer_1" xmlns="http://www.w3.org/2000/svg" x="0" y="0" viewBox="0 0 45 45" style="enable-background:new 0 0 45 45" xml:space="preserve"><style>.st0{fill:#48639e}.st1{fill:#24a7d0}</style><path class="st0" d="M2.53 38.17h39.94v1H2.53z"/><path transform="matrix(0.7581 -0.6522 0.6522 0.7581 -11.8173 16.7414)" class="st0" d="M13.9 23.71h5.52v1.18H13.9z"/><path transform="matrix(0.7581 -0.6522 0.6522 0.7581 -14.5959 17.7721)" class="st0" d="M13.9 27.97h5.52v1.18H13.9z"/><path transform="matrix(0.7581 -0.6522 0.6522 0.7581 -17.3746 18.8028)" class="st0" d="M13.9 32.23h5.52v1.18H13.9z"/><path class="st0" d="M31.08 39.25H18.16V9.32h12.92v29.93zm-11.74-1.17H29.9V10.5H19.34v27.58z"/><path class="st0" d="M19.25 39.17h-5.33V20.82l5.33-4.79v23.14zm-4.33-1h3.33V18.28l-3.33 2.99v16.9z"/><path class="st1" d="M21.08 16.06h1v19.03h-1zM24.25 16.06h1v19.03h-1zM27.42 16.06h1v19.03h-1z"/></svg>