<svg version="1.1" id="Layer_1" xmlns="http://www.w3.org/2000/svg" x="0" y="0" viewBox="0 0 45 45" style="enable-background:new 0 0 45 45" xml:space="preserve"><style>.st0{fill:#48639e}.st1{fill:#24a7d0}</style><path class="st0" d="M2.53 38.17h39.94v1H2.53z"/><path class="st1" d="M28.53 39.17H16.35v-3.82c0-3.36 2.73-6.09 6.09-6.09s6.09 2.73 6.09 6.09v3.82zm-11.18-1h10.17v-2.82c0-2.8-2.28-5.09-5.09-5.09s-5.09 2.28-5.09 5.09v2.82z"/><path class="st1" d="M16.85 34.59h11.17v1H16.85z"/><path class="st1" d="M25.24 30.7h1v4.39h-1zM22.95 29.92h1v5.17h-1zM20.95 29.85h1v5.24h-1zM18.74 30.7h1v4.39h-1z"/><path class="st0" d="m15.52 19.75-1-.02.01-.09.99.03zM30.48 19.75h-1l1-.08zM41.09 39.17H29.48V22.23H41.1v16.94zm-10.61-1h9.62V23.23h-9.62v14.94z"/><path class="st0" d="M37.31 23.23h-7.79l-.03-.46c-.01-.12-.01-.23-.01-.35 0-2.74 2.15-5.08 5.01-5.46.21-.03.43-.05.65-.05h.21l.15.15c.33.32.62.68.88 1.08.7 1.08 1.07 2.36 1.07 3.68 0 .34-.02.67-.07.99l-.07.42zm-6.83-1h5.95c.01-.14.01-.28.01-.42 0-1.13-.31-2.22-.91-3.14-.18-.27-.37-.52-.59-.75l-.33.03c-2.29.29-4.04 2.12-4.13 4.28z"/><path class="st0" d="M41.04 23.23H36.3l.08-.57c.04-.27.06-.56.06-.85 0-1.13-.31-2.22-.91-3.14l.84-.54c.7 1.08 1.07 2.36 1.07 3.68 0 .14 0 .28-.01.42h2.65c-.09-2.16-1.84-3.98-4.13-4.28-.22-.03-.44-.04-.67-.04v-1c.27 0 .54.02.8.05 2.85.37 5.01 2.72 5.01 5.46 0 .12 0 .24-.01.35l-.04.46z"/><path class="st0" d="M34.05 18.02v-3.99h2.47v3.98l-.57-.08c-.22-.03-.44-.04-.67-.04h-.12c-.19 0-.37.02-.54.04l-.57.09zm1.23-1.12h.24v-1.87h-.47v1.87H35.28z"/><path class="st0" d="M34.78 11.2h1v3.34h-1zM29.98 24.89H40.6v1H29.98z"/><path class="st0" d="M36.23 25.39h1v13.28h-1z"/><path class="st1" d="M35.34 32.76h-3.61v-3.54a1.81 1.81 0 1 1 3.62 0v3.54zm-2.61-1h1.61v-2.54c0-.44-.36-.81-.81-.81s-.81.36-.81.81v2.54z"/><path class="st0" d="M35.34 39.17h-3.61v-3.54a1.81 1.81 0 1 1 3.62 0v3.54zm-2.61-1h1.61v-2.54c0-.44-.36-.81-.81-.81s-.81.36-.81.81v2.54zM30.48 20.17H14.52v-.5c.04-3.91 2.99-7.27 6.86-7.81.61-.09 1.25-.1 1.86-.04 4.08.38 7.19 3.75 7.23 7.86l.01.49zm-14.93-1h13.9a6.932 6.932 0 0 0-6.3-6.36c-.54-.05-1.09-.04-1.62.04-3.22.44-5.71 3.11-5.98 6.32z"/><path class="st0" d="M30.48 20.17h-5l.05-.54c.02-.25.03-.5.03-.75 0-2.42-.97-4.67-2.67-6.18l-.99-.87 1.3-.02c4.13.39 7.23 3.77 7.28 7.86v.5zm-3.93-1h2.9a6.954 6.954 0 0 0-4.82-6.07c1.24 1.59 1.93 3.62 1.93 5.77 0 .1 0 .2-.01.3z"/><path class="st0" d="M30.48 19.75h-1l1-.08z"/><path class="st0" d="M30.48 39.17H14.52l.03-20.01h15.89l.03.58v19.43zm-14.96-1h13.95v-18H15.53l-.01 18zm14.45-18.42z"/><path class="st0" d="m15.52 19.75-1-.02.01-.09.99.03zM26.48 20.17h-7.79l-.06-.44c-.05-.41-.08-.83-.08-1.25 0-2.45.93-4.81 2.55-6.48l.12-.12.17-.02c.07-.01.13-.02.2-.02.51-.06 1.1-.07 1.66-.02l.18.02.13.13c1.91 1.69 3.01 4.21 3.01 6.92 0 .28-.01.56-.04.84l-.05.44zm-6.9-1h5.98v-.3c0-2.37-.93-4.58-2.57-6.08-.43-.03-.87-.02-1.29.03-1.37 1.48-2.15 3.53-2.15 5.66 0 .23.01.46.03.69z"/><path class="st0" d="M19.69 20.17h-5.17v-.5c.04-3.91 2.99-7.27 6.86-7.81l1.44-.2-1.01 1.04c-1.44 1.48-2.27 3.59-2.27 5.79 0 .38.02.76.07 1.12l.08.56zm-4.14-1h3.02c-.02-.23-.02-.46-.02-.69 0-1.92.57-3.78 1.59-5.3a7.035 7.035 0 0 0-4.59 5.99z"/><path class="st0" d="m23.72 13.34-.74-.74c-.43-.03-.87-.02-1.29.03l-.56.07V9.33h2.59v4.01zm-1.59-3.01v1.26c.19-.01.39-.01.59-.01v-1.26h-.59z"/><path class="st0" d="M21.92 5.84h1v4.19h-1zM15.24 26.45l-.43-.9 6.93-3.31v-2.49h1v3.12z"/><path transform="matrix(0.4223 -0.9065 0.9065 0.4223 -6.998 37.7342)" class="st0" d="M25.6 20.09h1v8.54h-1z"/><path class="st1" d="M16.35 17.6h1v1.31h-1zM27.53 17.6h1v1.31h-1zM20.72 17.6h1v1.31h-1zM23.38 17.6h1v1.31h-1z"/><path class="st0" d="M15.52 39.17H3.91V22.23h11.62v16.94zm-10.61-1h9.62V23.23H4.91v14.94z"/><path class="st0" d="M15.48 23.23H7.69l-.06-.43a6.5 6.5 0 0 1-.07-.99c0-1.33.37-2.6 1.07-3.68.26-.4.55-.76.88-1.08l.15-.15h.21c.22.01.44.02.65.05 2.85.37 5 2.72 5 5.46 0 .12 0 .24-.01.35l-.03.47zm-6.91-1h5.95c-.09-2.16-1.84-3.98-4.13-4.28-.11-.02-.22-.03-.33-.03-.22.23-.42.48-.59.76-.6.92-.91 2-.91 3.14-.01.13 0 .27.01.41z"/><path class="st0" d="M8.7 23.23H3.96l-.03-.46c-.01-.12-.01-.23-.01-.35 0-2.74 2.15-5.08 5.01-5.46.26-.04.53-.05.8-.05v1c-.23 0-.45.01-.67.04-2.3.3-4.04 2.12-4.14 4.28h2.65c-.01-.14-.01-.28-.01-.42 0-1.33.37-2.6 1.07-3.68l.84.54c-.6.92-.91 2.01-.91 3.14 0 .29.02.58.06.85l.08.57z"/><path class="st0" d="m10.95 18.02-.57-.08c-.18-.02-.36-.04-.54-.04h-.13c-.23 0-.45.01-.67.04l-.57.08v-3.98h2.47v3.98zm-1.47-2.98v1.87H9.95v-1.87h-.47z"/><path class="st0" d="M9.22 11.2h1v3.34h-1zM4.41 24.89h10.62v1H4.41z"/><path class="st0" d="M7.77 25.39h1v13.28h-1z"/><path class="st1" d="M13.27 32.76H9.66v-3.54a1.81 1.81 0 1 1 3.62 0v3.54zm-2.61-1h1.61v-2.54c0-.44-.36-.81-.81-.81s-.81.36-.81.81v2.54z"/><path class="st0" d="M13.27 39.17H9.66v-3.54a1.81 1.81 0 1 1 3.62 0v3.54zm-2.61-1h1.61v-2.54c0-.44-.36-.81-.81-.81s-.81.36-.81.81v2.54z"/></svg>