<svg version="1.1" id="Layer_1" xmlns="http://www.w3.org/2000/svg" x="0" y="0" viewBox="0 0 45 45" style="enable-background:new 0 0 45 45" xml:space="preserve"><style>.st0{fill:#48639e}.st1{fill:#24a7d0}</style><path class="st0" d="M2.53 38.17h39.94v1H2.53z"/><path class="st1" d="M18.61 27.53h8v1h-8zM18.61 30.66h8v1h-8zM18.61 24.39h8v1h-8z"/><path class="st0" d="M20.22 37.86h4.57v1h-4.57zM29.33 36.72c-.18 0-.34-.09-.43-.25l-.06-.1c-.04-.06-.07-.13-.11-.19-.12-.21-.24-.39-.36-.56-.32-.45-.62-.8-.95-1.09-.35-.33-.68-.56-1.04-.73a.493.493 0 0 1-.29-.45V19.47c0-.23.15-.42.37-.48s.45.04.56.24c1.86 3.25 2.93 8.29 2.93 13.83 0 1.13-.04 2.21-.13 3.21a.5.5 0 0 1-.39.45h-.1zm-2.23-3.67c.35.19.68.44 1.01.75.28.25.55.54.82.89.02-.53.03-1.08.03-1.65 0-4.27-.68-8.33-1.86-11.35v11.36z"/><path class="st0" d="M26.6 22.76h-2.19c-.25 0-.46-.19-.5-.43l-.76-5.81c-.02-.18.05-.35.19-.46.14-.11.32-.13.49-.07.38.15.75.37 1.13.66.74.58 1.44 1.45 2.07 2.57.04.07.06.16.06.24v2.79a.49.49 0 0 1-.49.51zm-1.74-1h1.25V19.6c-.55-.95-1.14-1.68-1.75-2.16-.02-.02-.05-.04-.07-.06l.57 4.38zM20.59 22.76h-1.83c-.28 0-.5-.22-.5-.5v-3.38c0-.09.03-.19.08-.27.5-.79 1.09-1.47 1.7-1.96.31-.25.63-.44.96-.59a.503.503 0 0 1 .7.52l-.6 5.73c-.04.25-.26.45-.51.45zm-1.33-1h.88l.44-4.26c-.46.39-.92.91-1.32 1.53v2.73z"/><path class="st1" d="M24.99 22.76h-4.96l.06-.55c.52-5 1.26-9.91 1.92-14.06l.52-3.3 2.46 17.91zm-3.85-1h2.71l-1.37-10.12c-.48 3.16-.96 6.61-1.34 10.12z"/><path class="st0" d="M26.6 34.67h-7.84c-.28 0-.5-.22-.5-.5V22.25c0-.28.22-.5.5-.5h7.84c.28 0 .5.22.5.5v11.92c0 .28-.22.5-.5.5zm-7.34-1h6.84V22.75h-6.84v10.92z"/><path class="st0" d="M15.67 36.72c-.04 0-.07 0-.11-.01a.511.511 0 0 1-.39-.45c-.08-1-.13-2.09-.13-3.21 0-5.87 1.23-11.27 3.3-14.44a.499.499 0 0 1 .92.27v14.33c0 .21-.14.41-.34.47-.7.23-1.38.77-2.03 1.6-.26.33-.52.72-.79 1.19-.09.16-.26.25-.43.25zm2.59-15.88c-1.41 3.08-2.22 7.47-2.22 12.21 0 .56.01 1.12.03 1.65l.03-.03c.67-.86 1.4-1.46 2.16-1.79V20.84zM29.11 38.86h-3.52c-.27 0-.49-.22-.5-.49L25 34.18c0-.13.05-.26.14-.36s.22-.15.36-.15h.61v-.31c0-.17.09-.33.23-.42.14-.09.33-.1.48-.03.46.21.88.51 1.3.9.37.33.73.74 1.08 1.24.13.19.26.39.39.61.04.06.09.14.13.22l.05.09c.05.09.07.19.07.29-.06.75-.13 1.46-.23 2.16-.04.25-.25.44-.5.44zm-3.04-1h2.59c.06-.5.11-1 .16-1.52l-.09-.15c-.13-.21-.25-.39-.37-.57a6.87 6.87 0 0 0-.94-1.08c-.11-.11-.22-.2-.34-.29-.04.24-.25.42-.49.42H26l.07 3.19z"/><path class="st0" d="M24.79 38.86h-4.58a.49.49 0 0 1-.41-.22.503.503 0 0 1-.05-.46c.66-1.74 1.47-3.11 2.4-4.08.19-.2.53-.2.72 0 .93.96 1.73 2.34 2.39 4.08a.5.5 0 0 1-.05.46c-.1.14-.26.22-.42.22zm-3.83-1h3.09c-.46-1.06-.98-1.96-1.55-2.65-.56.69-1.09 1.59-1.54 2.65z"/><path class="st0" d="M24.79 38.86h-4.58a.49.49 0 0 1-.41-.22.503.503 0 0 1-.05-.46c.66-1.74 1.47-3.11 2.4-4.08.19-.2.53-.2.72 0 .93.96 1.73 2.34 2.39 4.08a.5.5 0 0 1-.05.46c-.1.14-.26.22-.42.22zm-3.83-1h3.09c-.46-1.06-.98-1.96-1.55-2.65-.56.69-1.09 1.59-1.54 2.65z"/><path class="st0" d="M25.58 38.86h-.8c-.21 0-.39-.13-.47-.32-.52-1.36-1.14-2.5-1.82-3.33-.68.84-1.3 1.98-1.82 3.33-.07.19-.26.32-.47.32h-.72a.48.48 0 0 1-.37-.17l-2.98-3.36c-.12-.18-.17-.49-.03-.66.77-.98 1.61-1.63 2.5-1.93.15-.05.32-.03.45.07s.21.25.21.41v.46h6.23c.27 0 .49.22.5.49l.09 4.19c0 .13-.05.26-.14.36s-.22.14-.36.14zm-5.86-1h.15c.51-1.28 1.11-2.35 1.77-3.19h-2.89c-.28 0-.5-.22-.5-.5V34c-.38.23-.75.56-1.11.97l2.58 2.89zm3.64-3.19c.64.81 1.21 1.83 1.71 3.04L25 34.67h-1.64z"/><path class="st0" d="M19.49 38.86H15.9c-.25 0-.46-.18-.5-.43-.1-.71-.17-1.42-.24-2.17-.01-.1.01-.2.07-.29.29-.51.58-.94.87-1.3.09-.12.23-.19.38-.19s.29.06.39.17l3 3.38c.13.15.16.36.08.54-.08.17-.26.29-.46.29zm-3.15-1h2.04l-1.85-2.08c-.12.17-.24.36-.36.56.05.52.1 1.02.17 1.52z"/><path class="st0" d="M24.79 38.86h-4.58a.49.49 0 0 1-.41-.22.503.503 0 0 1-.05-.46c.66-1.74 1.47-3.11 2.4-4.08.19-.2.53-.2.72 0 .93.96 1.73 2.34 2.39 4.08a.5.5 0 0 1-.05.46c-.1.14-.26.22-.42.22zm-3.83-1h3.09c-.46-1.06-.98-1.96-1.55-2.65-.56.69-1.09 1.59-1.54 2.65zM18.61 31.06h.14v1h-.14zM18.61 21.76h.14v1h-.14zM16.12 35.31l.77-.65.01.03z"/><path class="st0" d="M18.99 34.26h1v4.1h-1z"/><path transform="matrix(0.6633 -0.7483 0.7483 0.6633 -18.3604 32.6012)" class="st0" d="M24.84 36.21h4.42v1h-4.42z"/></svg>