<svg version="1.1" id="Layer_1" xmlns="http://www.w3.org/2000/svg" x="0" y="0" viewBox="0 0 45 45" style="enable-background:new 0 0 45 45" xml:space="preserve"><style>.st0{fill:#48639e}</style><path class="st0" d="m17.19 35.95-.84-.54c.29-.45 7.21-11.1 16.73-11.1h.81l-.37.73c-.04.07-3.78 7.5-3.78 10.64h-1c0-2.79 2.54-8.32 3.52-10.34-8.56.61-15 10.51-15.07 10.61z"/><path class="st0" d="M37.87 35.75c-.02-.12-.33-2.65 2.08-5.33-2.16-.13-7.28.06-10.14 4.23l-.82-.57c4.05-5.88 11.82-4.6 12.14-4.55l1 .18-.75.69c-2.82 2.58-2.54 5.11-2.52 5.22l-.99.13zM15.43 35.68h-1c0-9.85-2.82-17.21-2.84-17.28l-.3-.76.81.08c10.72 1.11 13.28 9.43 13.3 9.51l-.96.28c-.09-.31-2.29-7.37-11.65-8.7.73 2.17 2.64 8.68 2.64 16.87z"/><path class="st0" d="M10.92 35.68h-1c0-5.95-3.39-12.44-3.42-12.51l-.36-.67.76-.06c3.47-.27 7.1 1.85 7.26 1.94l-.51.86c-.03-.02-2.98-1.74-5.91-1.82.9 1.89 3.18 7.17 3.18 12.26z"/><path class="st0" d="M6.73 35.68h-1c0-3.95-2.79-8.65-2.81-8.7l-.33-.56.63-.18c3.33-.95 6.11 1.29 6.23 1.38l-.65.78c-.02-.02-2.14-1.71-4.69-1.33.78 1.44 2.62 5.2 2.62 8.61z"/><path d="M41.54 39.17H3.84v-3.98h37.7v3.98zm-36.7-1h35.7v-1.98H4.84v1.98z" style="fill:#24a7d0"/><path class="st0" d="M2.35 38.17h40.3v1H2.35z"/></svg>