<svg version="1.1" id="Layer_1" xmlns="http://www.w3.org/2000/svg" x="0" y="0" viewBox="0 0 45 45" style="enable-background:new 0 0 45 45" xml:space="preserve"><style>.st0{fill:#48639e}.st1{fill:#24a7d0}</style><path class="st0" d="M2.53 38.17h39.94v1H2.53z"/><path class="st1" d="M24.98 14.77h-4.96v-3.91L22.5 7.4l2.48 3.46v3.91zm-3.96-1h2.96v-2.59L22.5 9.12l-1.48 2.07v2.58z"/><path class="st1" d="M20.52 10.52h3.96v1h-3.96zM25.53 32.02H22v-3.1c0-1.67 1.36-3.03 3.03-3.03h.5v6.13zm-2.53-1h1.53v-4.07c-.88.23-1.53 1.02-1.53 1.97v2.1z"/><path class="st0" d="M25.53 32.02h-6.05V16.67h6.05v15.35zm-5.06-1h4.05V17.67h-4.05v13.35z"/><path class="st0" d="M26.71 17.67H18.3v-3.9h8.41v3.9zm-7.42-1h6.41v-1.9h-6.41v1.9zM29.93 34.79H15.07v-3.66h14.87v3.66zm-13.86-1h12.87v-1.66H16.07v1.66z"/><path class="st0" d="M37 38.45h-1c0-.17-.07-.33-.19-.45a.636.636 0 0 0-.45-.19h-1.42l-.05-.44a2.84 2.84 0 0 0-2.82-2.48H13.93c-1.43 0-2.64 1.07-2.82 2.48l-.05.44H9.64c-.17 0-.33.07-.46.19-.11.12-.18.28-.18.45H8c0-.44.17-.85.48-1.16.31-.31.72-.48 1.16-.48h.56a3.855 3.855 0 0 1 3.73-2.92h17.14c1.78 0 3.31 1.23 3.73 2.92h.56c.44 0 .85.17 1.16.48.31.31.48.72.48 1.16z"/></svg>