<svg version="1.1" id="Layer_1" xmlns="http://www.w3.org/2000/svg" x="0" y="0" viewBox="0 0 45 45" style="enable-background:new 0 0 45 45" xml:space="preserve"><style>.st0{fill:#48639e}.st1{fill:#24a7d0}</style><path class="st0" d="M2.53 38.17h39.94v1H2.53z"/><path class="st1" d="M22.5 35.24a.29.29 0 0 1-.29-.29v-5.92a.29.29 0 0 1 .58 0v5.92c-.01.16-.14.29-.29.29zM20.46 35.24a.29.29 0 0 1-.29-.29v-5.83a.29.29 0 0 1 .58 0v5.83c-.01.16-.14.29-.29.29zM18.41 35.24a.29.29 0 0 1-.29-.29v-5.58a.29.29 0 0 1 .58 0v5.58c0 .16-.13.29-.29.29zM16.37 35.24a.29.29 0 0 1-.29-.29v-4.51a.29.29 0 0 1 .58 0v4.51c0 .16-.13.29-.29.29zM14.33 35.24a.29.29 0 0 1-.29-.29v-3.66a.29.29 0 0 1 .58 0v3.66c0 .16-.13.29-.29.29zM12.29 35.24a.29.29 0 0 1-.29-.29v-2.56a.29.29 0 0 1 .58 0v2.56c0 .16-.13.29-.29.29zM24.54 35.24a.29.29 0 0 1-.29-.29v-5.83a.29.29 0 0 1 .58 0v5.83c-.01.16-.13.29-.29.29zM26.58 35.24a.29.29 0 0 1-.29-.29v-5.14a.29.29 0 0 1 .58 0v5.14c-.01.16-.13.29-.29.29zM28.62 35.24a.29.29 0 0 1-.29-.29v-4.51a.29.29 0 0 1 .58 0v4.51c0 .16-.13.29-.29.29zM30.66 35.24a.29.29 0 0 1-.29-.29v-3.66a.29.29 0 0 1 .58 0v3.66c0 .16-.13.29-.29.29zM32.7 35.24a.29.29 0 0 1-.29-.29v-2.56a.29.29 0 0 1 .58 0v2.56c0 .16-.13.29-.29.29z"/><path class="st0" d="M38.17 36.53H6.83a.29.29 0 0 1-.29-.29v-1.28c0-.16.13-.29.29-.29h31.35c.16 0 .29.13.29.29v1.28c-.01.16-.14.29-.3.29zm-31.06-.57h30.77v-.71H7.11v.71z"/><path class="st0" d="M6.83 39.02c-.05 0-.09-.01-.13-.03-.14-.07-.19-.25-.12-.39.47-.88 1.01-1.73 1.6-2.53.1-.13.27-.15.4-.06s.15.27.06.4c-.58.77-1.1 1.6-1.55 2.46-.06.1-.16.15-.26.15zM35.54 35.24c-.08 0-.16-.03-.21-.09-3.37-3.75-7.92-5.82-12.83-5.82s-9.46 2.07-12.83 5.82c-.1.12-.29.13-.4.02-.12-.11-.13-.29-.02-.4 3.48-3.88 8.18-6.01 13.25-6.01s9.78 2.13 13.25 6.01c.11.12.1.3-.02.4-.06.05-.13.07-.19.07zM38.17 39.02c-.1 0-.2-.06-.25-.15-.45-.85-.97-1.68-1.55-2.46-.09-.13-.07-.3.06-.4.12-.09.3-.07.4.06.6.8 1.14 1.65 1.6 2.53.07.14.02.31-.12.39-.05.02-.1.03-.14.03z"/><path class="st0" d="M6.83 39.02a.29.29 0 0 1-.29-.29v-5.97h-2.1v5.97a.29.29 0 0 1-.58 0v-6.25c0-.16.13-.29.29-.29h2.67c.16 0 .29.13.29.29v6.25c0 .16-.12.29-.28.29zM40.84 39.02h-2.67a.29.29 0 0 1-.29-.29v-6.25c0-.16.13-.29.29-.29h2.67c.16 0 .29.13.29.29v6.25c0 .16-.13.29-.29.29zm-2.38-.57h2.1v-5.68h-2.1v5.68z"/><path class="st0" d="M38.17 34.61a.28.28 0 0 1-.22-.11c-3.82-4.88-9.45-7.67-15.45-7.67S10.87 29.62 7.05 34.5c-.1.12-.28.14-.4.05-.12-.1-.15-.28-.05-.4 3.93-5.01 9.72-7.89 15.89-7.89 6.18 0 11.97 2.88 15.9 7.89.1.12.08.3-.05.4-.04.04-.11.06-.17.06zM6.29 32.77H4.7a.29.29 0 0 1-.29-.29v-1.06c0-.16.13-.29.29-.29h1.59c.16 0 .29.13.29.29v1.06c-.01.16-.13.29-.29.29zm-1.31-.57H6v-.5H4.98v.5zM40.3 32.77h-1.59a.29.29 0 0 1-.29-.29v-1.06c0-.16.13-.29.29-.29h1.59c.16 0 .29.13.29.29v1.06c0 .16-.13.29-.29.29zM39 32.2h1.02v-.5H39v.5z"/><path class="st0" d="M7.52 35.24c-.02 0-.05 0-.07-.01a.303.303 0 0 1-.21-.35l.53-2.06c.03-.12.13-.2.25-.21.12-.02.24.06.28.17l.5 1.15.36-2.45a.289.289 0 0 1 .54-.09l.77 1.55.68-3.03c.03-.12.13-.22.26-.22.14.01.24.07.29.19l.53 1.51.62-2.52c.03-.12.14-.21.26-.22.13.01.24.07.28.19l.54 1.5.62-2.3c.03-.12.14-.21.26-.21.13 0 .24.07.28.19l.55 1.51.61-2.13c.03-.12.14-.2.26-.21.13-.01.24.07.28.19l.56 1.53.6-1.98c.04-.12.14-.2.26-.2.13 0 .23.07.28.18l.57 1.48.6-1.77c.04-.12.14-.18.27-.19.12 0 .23.08.27.19l.57 1.62.59-1.78c.04-.12.15-.2.27-.2.12 0 .23.08.27.19l.85 2.5c.05.15-.03.31-.18.36a.283.283 0 0 1-.36-.18l-.58-1.69-.58 1.77c-.04.12-.15.2-.27.2-.12 0-.23-.08-.27-.19l-.58-1.63-.59 1.74a.28.28 0 0 1-.26.19.279.279 0 0 1-.27-.18l-.55-1.44-.61 2c-.04.12-.14.2-.27.2-.14-.02-.23-.07-.28-.19l-.55-1.51-.61 2.12c-.03.12-.14.2-.26.21-.13 0-.24-.07-.28-.19l-.54-1.48-.62 2.3c-.03.12-.14.21-.26.21-.12-.01-.24-.07-.28-.19l-.53-1.47-.63 2.54c-.03.12-.14.21-.26.22-.13 0-.24-.07-.28-.19l-.52-1.47-.63 2.85c-.03.12-.12.21-.24.22a.29.29 0 0 1-.29-.16l-.73-1.46L9.23 35c-.02.13-.12.22-.24.24-.13.01-.25-.05-.3-.17l-.57-1.3-.32 1.26c-.04.13-.15.21-.28.21z"/><path class="st0" d="M37.47 35.24a.3.3 0 0 1-.28-.21l-.32-1.26-.57 1.3c-.05.12-.17.18-.3.17-.13-.02-.23-.11-.24-.24l-.38-2.53-.73 1.46a.29.29 0 0 1-.29.16.266.266 0 0 1-.24-.22l-.63-2.85-.52 1.47c-.04.12-.17.19-.28.19a.277.277 0 0 1-.26-.22l-.63-2.54-.53 1.47c-.04.12-.15.18-.28.19a.289.289 0 0 1-.26-.21l-.62-2.3-.54 1.48c-.04.12-.16.19-.28.19-.12 0-.23-.09-.26-.21l-.61-2.12-.55 1.51c-.04.11-.16.16-.28.19-.12 0-.23-.08-.27-.2l-.61-2-.55 1.44a.27.27 0 0 1-.27.18.27.27 0 0 1-.26-.19l-.59-1.73-.58 1.63c-.04.11-.15.19-.27.19-.11.03-.23-.08-.27-.2l-.58-1.77-.58 1.69c-.05.15-.21.23-.36.18a.283.283 0 0 1-.18-.36l.85-2.5c.04-.11.15-.19.27-.19.12 0 .23.08.27.2l.59 1.78.57-1.62c.04-.11.15-.19.27-.19.12 0 .23.08.27.19l.6 1.77.57-1.48c.04-.11.16-.18.28-.18.12 0 .23.09.26.2l.6 1.98.56-1.53c.04-.12.16-.2.28-.19.12 0 .23.09.26.21l.61 2.13.55-1.51c.04-.12.14-.19.28-.19.12.01.23.09.26.21l.62 2.3.54-1.5c.04-.12.15-.19.28-.19.13.01.23.09.26.22l.62 2.52.53-1.51c.04-.12.15-.18.29-.19.13.01.23.1.26.22l.68 3.03.77-1.55c.05-.11.17-.17.3-.15.12.02.22.12.24.24l.36 2.45.5-1.15c.05-.11.16-.19.28-.17.12.01.22.1.25.21l.53 2.06c.04.15-.05.31-.21.35 0-.01-.02-.01-.05-.01z"/></svg>