<svg version="1.1" id="Layer_1" xmlns="http://www.w3.org/2000/svg" x="0" y="0" viewBox="0 0 45 45" style="enable-background:new 0 0 45 45" xml:space="preserve"><style>.st0{fill:#24a7d0}.st1{fill:#48639e}</style><path class="st1" d="M2.53 38.17h39.94v1H2.53z"/><path class="st0" d="M14.56 39.14a.47.47 0 0 1-.47-.47V32.2a.47.47 0 1 1 .94 0v6.47c0 .26-.21.47-.47.47zM30.44 39.14a.47.47 0 0 1-.47-.47V32.2a.47.47 0 1 1 .94 0v6.47c0 .26-.21.47-.47.47z"/><path class="st1" d="M20.35 36.25a.47.47 0 0 1-.47-.47v-6.35a.47.47 0 1 1 .94 0v6.35c0 .26-.21.47-.47.47zM24.65 36.25a.47.47 0 0 1-.47-.47v-6.35a.47.47 0 1 1 .94 0v6.35c0 .26-.21.47-.47.47z"/><path class="st0" d="M22.5 21.99h-4.91a.47.47 0 1 1 0-.94h4.91a.47.47 0 1 1 0 .94zM22.5 24.35H17a.47.47 0 1 1 0-.94h5.5a.47.47 0 1 1 0 .94z"/><path class="st0" d="M17.59 29.9a.47.47 0 0 1-.47-.47v-7.91c.27-3.81 2.02-6.4 5.2-7.72.24-.1.52.01.62.25.1.24-.01.51-.25.61-2.87 1.19-4.38 3.44-4.62 6.89v7.88c-.01.26-.22.47-.48.47z"/><path class="st0" d="M22.5 14.71a.47.47 0 0 1-.47-.47v-2.58a.47.47 0 1 1 .94 0v2.58c0 .26-.21.47-.47.47zM27.41 21.99H22.5a.47.47 0 1 1 0-.94h4.91a.47.47 0 1 1 0 .94zM28 24.35h-5.5a.47.47 0 1 1 0-.94H28a.47.47 0 1 1 0 .94z"/><path class="st0" d="M27.41 29.9a.47.47 0 0 1-.47-.47v-7.91c-.24-3.41-1.76-5.66-4.62-6.85a.47.47 0 0 1-.25-.62c.1-.24.38-.35.62-.25 3.18 1.32 4.93 3.91 5.2 7.69v7.94c-.01.26-.22.47-.48.47z"/><path class="st1" d="M23.41 29.9h-1.82a.47.47 0 0 1-.47-.47v-4.21c0-.26.21-.47.47-.47h1.82c.26 0 .47.21.47.47v4.21c0 .26-.21.47-.47.47zm-1.35-.94h.88v-3.27h-.88v3.27z"/><path class="st1" d="M22.5 29.9H11.7a.47.47 0 1 1 0-.94h10.8a.47.47 0 1 1 0 .94z"/><path class="st1" d="M12.47 29.9c-.24 0-.44-.18-.47-.43-.24-2.56.52-4.35 2.26-5.32.23-.13.51-.04.64.18.13.23.04.51-.18.64-1.41.78-1.99 2.22-1.79 4.41.02.26-.16.49-.42.51-.01.01-.03.01-.04.01z"/><path class="st1" d="M16.54 29.9h-.05a.457.457 0 0 1-.42-.51c.21-2.19-.38-3.63-1.8-4.41a.463.463 0 0 1-.24-.41v-2.2a.47.47 0 1 1 .94 0v1.93c1.58.99 2.27 2.73 2.04 5.18-.03.24-.23.42-.47.42zM22.5 39.14H9.25a.47.47 0 1 1 0-.94H22.5a.47.47 0 1 1 0 .94z"/><path class="st1" d="M16.54 39.14h-4.07a.47.47 0 0 1-.47-.47v-9.23c0-.26.21-.47.47-.47h4.07c.26 0 .47.21.47.47v9.23c0 .26-.21.47-.47.47zm-3.6-.94h3.13v-8.3h-3.13v8.3z"/><path class="st1" d="M22.5 36.25h-5.96a.47.47 0 1 1 0-.94h5.96a.47.47 0 1 1 0 .94z"/><path class="st1" d="M18.48 36.25a.47.47 0 0 1-.47-.47v-3.25a.47.47 0 1 1 .94 0v3.25c0 .26-.21.47-.47.47zM10.06 39.14a.47.47 0 0 1-.47-.47v-7.21c0-.26.21-.47.47-.47h2.41a.47.47 0 1 1 0 .94h-1.94v6.74c0 .26-.21.47-.47.47zM33.3 29.9H22.5a.47.47 0 1 1 0-.94h10.8a.47.47 0 1 1 0 .94z"/><path class="st1" d="M32.53 29.9h-.05a.457.457 0 0 1-.42-.51c.21-2.18-.38-3.63-1.79-4.41a.464.464 0 0 1-.18-.64c.13-.23.41-.31.64-.18 1.75.97 2.51 2.76 2.26 5.32-.01.24-.22.42-.46.42z"/><path class="st1" d="M28.46 29.9c-.24 0-.44-.18-.47-.43-.23-2.43.45-4.17 2.04-5.18v-1.93a.47.47 0 1 1 .94 0v2.2c0 .17-.09.33-.24.41-1.42.79-2.01 2.23-1.8 4.41.02.26-.16.49-.42.51-.02.01-.03.01-.05.01zM35.75 39.14H22.5a.47.47 0 1 1 0-.94h13.25a.47.47 0 1 1 0 .94z"/><path class="st1" d="M32.53 39.14h-4.07a.47.47 0 0 1-.47-.47v-9.23c0-.26.21-.47.47-.47h4.07c.26 0 .47.21.47.47v9.23c0 .26-.21.47-.47.47zm-3.6-.94h3.13v-8.3h-3.13v8.3z"/><path class="st1" d="M28.46 36.25H22.5a.47.47 0 1 1 0-.94h5.96a.47.47 0 1 1 0 .94z"/><path class="st1" d="M26.52 36.25a.47.47 0 0 1-.47-.47v-3.25a.47.47 0 1 1 .94 0v3.25c0 .26-.21.47-.47.47zM34.94 39.14a.47.47 0 0 1-.47-.47v-6.74h-1.94a.47.47 0 1 1 0-.94h2.41c.26 0 .47.21.47.47v7.21c0 .26-.21.47-.47.47z"/></svg>