<svg version="1.1" id="Layer_1" xmlns="http://www.w3.org/2000/svg" x="0" y="0" viewBox="0 0 45 45" style="enable-background:new 0 0 45 45" xml:space="preserve"><style>.st0{fill:#24a7d0}.st1{fill:#48639e}</style><path class="st0" d="M19.12 20.74H8.46v-4.3l5.33-8.73 5.33 8.73v4.3zm-9.66-1h8.66v-3.02l-4.33-7.09-4.33 7.09v3.02z"/><path class="st0" d="M8.96 16.21h9.66v1H8.96zM38.88 20.74H28.22v-4.3l5.33-8.73 5.33 8.73v4.3zm-9.66-1h8.66v-3.02l-4.33-7.09-4.33 7.09v3.02z"/><path class="st0" d="M28.72 16.21h9.66v1h-9.66z"/><path class="st1" d="M2.53 38.17h39.94v1H2.53z"/><path class="st1" d="M39.25 39.17H27.86V22.6h11.38v16.57zm-10.39-1h9.38V23.6h-9.38v14.57zM19.63 39.17H8.25V22.6h11.38v16.57zm-10.38-1h9.38V23.6H9.25v14.57z"/><path class="st1" d="M19.13 27.36h9.23v1h-9.23z"/><path class="st0" d="M32.71 27.52h1v6.55h-1zM13.44 27.52h1v6.55h-1z"/><path class="st1" d="M20.73 23.6H6.84v-3.85h13.89v3.85zm-12.89-1h11.89v-1.85H7.84v1.85zM40.5 23.6H26.61v-3.85H40.5v3.85zm-12.89-1H39.5v-1.85H27.61v1.85z"/></svg>