<svg version="1.1" id="Layer_1" xmlns="http://www.w3.org/2000/svg" x="0" y="0" viewBox="0 0 45 45" style="enable-background:new 0 0 45 45" xml:space="preserve"><style>.st0{fill:#24a7d0}.st1{fill:#48639e}</style><path class="st1" d="M2.53 38.17h39.94v1H2.53z"/><path class="st0" d="M25.22 39.17h-5.44V37.9c0-1.35.61-2.62 1.66-3.46l1.06-.84 1.06.84c1.06.85 1.66 2.11 1.66 3.46v1.27zm-4.44-1h3.44v-.27c0-1.05-.47-2.03-1.29-2.68l-.43-.34-.43.34c-.82.66-1.29 1.63-1.29 2.68v.27zM18.12 39.17h-5.44V37.9c0-1.35.61-2.62 1.66-3.46l1.06-.84 1.05.84c1.06.85 1.66 2.11 1.66 3.46v1.27zm-4.44-1h3.44v-.27c0-1.05-.47-2.03-1.29-2.68l-.43-.34-.43.34c-.82.66-1.29 1.63-1.29 2.68v.27zM32.32 39.17h-5.44V37.9c0-1.35.61-2.62 1.66-3.46l1.05-.84 1.06.84c1.06.85 1.66 2.11 1.66 3.46v1.27zm-4.44-1h3.44v-.27c0-1.05-.47-2.03-1.29-2.68l-.43-.34-.43.34c-.82.66-1.29 1.63-1.29 2.68v.27z"/><path class="st1" d="M9.63 38.17h25.74v1H9.63z"/><path class="st1" d="M34.98 39.17H10.02v-7.21h24.97v7.21zm-23.96-1h22.97v-5.21H11.02v5.21z"/><path class="st1" d="M22 37.34h1v1.18h-1zM14.9 37.34h1v1.18h-1zM29.1 37.34h1v1.18h-1zM18.56 30.29h-8.55v-7.21h8.55v7.21zm-7.54-1h6.55v-5.21h-6.55v5.21zM34.98 30.29h-8.55v-7.21h8.55v7.21zm-7.54-1h6.55v-5.21h-6.55v5.21z"/><path class="st1" d="M34.98 32.96H10.02V29.3h24.97v3.66zm-23.96-1h22.97V30.3H11.02v1.66z"/><path class="st1" d="M27.44 32.96h-9.88v-9.88h9.88v9.88zm-8.88-1h7.88v-7.88h-7.88v7.88z"/><path class="st0" d="M22.5 28.96c-1.25 0-2.28-1.03-2.28-2.29 0-1.25 1.02-2.26 2.28-2.26s2.28 1.01 2.28 2.26c0 1.26-1.03 2.29-2.28 2.29zm0-3.55c-.7 0-1.28.57-1.28 1.26 0 .7.58 1.29 1.28 1.29s1.28-.59 1.28-1.29c0-.69-.58-1.26-1.28-1.26z"/><path class="st1" d="M12.68 25.64h1v4.16h-1zM14.45 25.64h1v4.16h-1zM29.55 25.64h1v4.16h-1zM31.32 25.64h1v4.16h-1zM13.79 17.18h1v6.66h-1zM30.5 16.92h1v6.66h-1zM28.24 24.08H16.76l5.74-5.17 5.74 5.17zm-8.88-1h6.27l-3.14-2.82-3.13 2.82z"/><path class="st1" d="M18.56 24.08h-8.55V14.2h8.55v9.88zm-7.54-1h6.55V15.2h-6.55v7.88zM34.98 24.08h-8.55V14.2h8.55v9.88zm-7.54-1h6.55V15.2h-6.55v7.88z"/><path class="st1" d="M17.67 15.2H10.9v-2.78h6.77v2.78zm-5.77-1h4.77v-.78H11.9v.78zM34.1 15.2h-6.77v-2.78h6.77v2.78zm-5.77-1h4.77v-.78h-4.77v.78zM22.5 19.96c-.28 0-.5-.22-.5-.5v-3.74c0-.28.22-.5.5-.5s.5.22.5.5v3.74c0 .28-.22.5-.5.5z"/><path class="st1" d="M23.78 17.28h-2.55c-.28 0-.5-.22-.5-.5s.22-.5.5-.5h2.55c.28 0 .5.22.5.5s-.23.5-.5.5z"/></svg>