<svg version="1.1" id="Layer_1" xmlns="http://www.w3.org/2000/svg" x="0" y="0" viewBox="0 0 45 45" style="enable-background:new 0 0 45 45" xml:space="preserve"><style>.st0{fill:#24a7d0}.st1{fill:#48639e}</style><path class="st1" d="M2.53 38.17h39.94v1H2.53z"/><path class="st1" d="M35.72 38.22h-.23v-2.15c0-.12-.05-.24-.14-.33s-.21-.14-.33-.14h-.39v-3.22h.12a.47.47 0 1 0 0-.94h-.12V25.5h.01c.23 0 .44-.1.59-.28a.75.75 0 0 0 .16-.64l-.13-.65a.755.755 0 0 0-.62-.61V18.21c.31-.04.58-.23.71-.52l.5-1.11a.889.889 0 0 0-.82-1.25h-.4v-2.28h.45c.46 0 .84-.38.84-.84v-.87a.857.857 0 0 0-.84-.85H9.98c-.46 0-.84.38-.84.84v.87c0 .46.38.84.84.84h.45v2.28h-.4c-.3 0-.58.15-.75.4-.16.28-.19.6-.07.87l.5 1.12c.13.28.4.48.71.51v5.11c-.3.06-.53.3-.59.6l-.13.64a.771.771 0 0 0 .73.93v5.94h-.12a.47.47 0 1 0 0 .94h.12v3.22h-.45a.47.47 0 0 0-.47.47v2.15h-.23a.47.47 0 1 0 0 .94h26.44a.47.47 0 1 0 0-.94zm-1.16-1.68v1.68h-8.71v-1.68h8.71zm-15.4 0v1.68h-8.71v-1.68h8.71zm9.35-4.16v3.22h-.41v-3.22h.41zm5.19 0v3.22h-.41v-3.22h.41zm-.01-.94h-.4v-3.15c-.06-.82-.52-1.54-1.24-1.93-.72-.39-1.57-.39-2.29 0s-1.18 1.11-1.24 1.94v3.14h-.42V25.5h5.6l-.01 5.94zm-4.24-3.13c.04-.49.33-.92.76-1.15.43-.23.95-.23 1.38 0 .43.23.71.66.76 1.14v3.14h-2.89v-3.13zm2.89 4.07v3.22h-2.89v-3.22h2.89zm-12.38 3.36a.47.47 0 0 0-.33-.14h-.12V25.43c.32-.15.5-.5.43-.85l-.11-.56c.34-.67.9-1.19 1.6-1.46.72-.28 1.51-.28 2.23.01.7.28 1.26.8 1.59 1.48l-.11.53c-.07.34.1.69.41.84V35.6h-.24l-.1.01v.03c-.17.07-.29.24-.29.44v2.15H20.1v-2.15c0-.13-.05-.25-.14-.34zM18.57 25.5v10.1h-.67V25.5h.67zm15.93-8.21H18.75c-6.09 0-7.8 0-8.2-.02l-.26-.58c-.06-.13-.14-.3-.18-.4.42-.01 1.79-.02 6.01-.02h18.84l-.46 1.02zm-23.78 6.97h8.2c.03.13.04.23.06.3h-8.32l.06-.3zm22.98-.94-6 .01a5.607 5.607 0 0 0-4.07-3.41v-1.69H33.7v5.09zm-22.34-.01v-5.09h10.08v1.68a5.49 5.49 0 0 0-2.9 1.59 5.34 5.34 0 0 0-1.18 1.82h-6zm7.48.02H18.37a4.61 4.61 0 0 1 2-2.05c.5-.26 1.03-.43 1.59-.51.85-.09 1.7.04 2.47.39l.26.12a4.67 4.67 0 0 1 1.99 2.04h-.65c-.04 0-.08 0-.11.01v-.01a3.926 3.926 0 0 0-3.85-1.88c-.25.02-.5.08-.74.16-.92.3-1.69.91-2.19 1.74-.06-.01-.14-.01-.3-.01zm7.25 1.24c.02-.1.04-.21.07-.31h8.2l.06.3c-2.33 0-4.19.01-5.58.01-1.35.01-2.36.01-2.75 0zm-3.72-4.77v-1.57h.31v1.57h-.31zm-5.41 12.58v3.22h-.41v-3.22h.41zm-1.65-6.01c-.72-.39-1.57-.39-2.29 0s-1.18 1.11-1.24 1.94v3.14h-.42v-5.94h5.6v5.94h-.41V28.3c-.06-.82-.53-1.54-1.24-1.93zm-2.6 1.94c.04-.49.33-.92.76-1.15.43-.23.95-.23 1.38 0 .43.23.72.66.76 1.14v3.14h-2.89v-3.13zm-.94 4.07v3.22h-.41v-3.22h.41zm3.83 0v3.22h-2.89v-3.22h2.89zm11.56-6.88v10.1h-.67V25.5h.67zm6.55-12.44v2.28H11.36v-2.28h22.35zm-9.82-.94H10.08v-.68h16.38c6.08 0 8.02 0 8.53.02v.65c-.54.02-2.74.02-9.65.02l-1.45-.01z"/><path class="st0" d="M28.36 22.2c.08.16.24.26.42.26h3.45c.12 0 .24-.05.33-.14a.47.47 0 0 0 .14-.33v-2.46c0-.13-.05-.24-.14-.33a.47.47 0 0 0-.33-.14h-5.55c-.2 0-.38.13-.45.32-.06.19 0 .41.17.53.82.6 1.5 1.39 1.96 2.29zm-.45-2.2h3.85v1.52h-2.71c-.31-.56-.69-1.07-1.14-1.52zM16.69 22.2c.47-.9 1.15-1.69 1.96-2.28l.43-.32h-.24a.55.55 0 0 0-.02-.22.478.478 0 0 0-.46-.32h-5.55a.47.47 0 0 0-.47.47v2.46c0 .13.05.24.14.33.09.09.21.14.33.14h3.45c.19-.01.35-.11.43-.26zm.44-2.2c-.44.46-.82.97-1.13 1.52h-2.7V20h3.83z"/></svg>