<svg version="1.1" id="Layer_1" xmlns="http://www.w3.org/2000/svg" x="0" y="0" viewBox="0 0 45 45" style="enable-background:new 0 0 45 45" xml:space="preserve"><style>.st0{fill:#24a7d0}.st1{fill:#48639e}</style><path class="st1" d="M2.53 38.17h39.94v1H2.53z"/><path class="st0" d="M22 21.33h1v1.98h-1v-1.98z"/><path class="st1" d="M33.4 38.18V36.2h-2.25l-.54-.65a24.38 24.38 0 0 1-3.18-4.8h1.02v-1h-1.48c-.64-1.43-1.14-2.93-1.49-4.46h.99v-.99h-1.19c-.09-.47-.17-.95-.23-1.42l-1.04-8.31.47-.47v-2.05l-1.48-.5V9.43h-1v2.12l-1.48.5v2.05l.47.47-1.04 8.31c-.06.47-.14.95-.23 1.42h-1.19v.99h.99c-.35 1.53-.85 3.03-1.49 4.46h-1.48v1h1.01c-.86 1.72-1.93 3.33-3.18 4.8l-.54.65H11.6v1.98H7.63v.99h29.74v-.99H33.4zM21.51 12.77l.99-.33.99.33v.92l-.2.2h-1.58l-.2-.2v-.92zM20.93 23l1.02-8.11h1.11L24.07 23c.06.44.12.87.2 1.3h-3.53c.07-.43.14-.86.19-1.3zm-.39 2.29h3.92c.33 1.53.81 3.03 1.42 4.46h-6.76c.6-1.43 1.08-2.93 1.42-4.46zm-3.98 12.89 3.14-4.08a3.533 3.533 0 0 1 5.59 0l3.14 4.08H16.56zm15.85 0h-2.73l-3.6-4.68a4.512 4.512 0 0 0-6.34-.82c-.31.24-.59.51-.83.82l-3.59 4.68h-2.73v-.99h1.71l.85-1c1.4-1.66 2.59-3.49 3.51-5.44h7.67c.93 1.95 2.12 3.79 3.52 5.44l.84 1h1.72v.99z"/><path class="st0" d="M24.36 29.75h-1.03l-.71-2.47h-.24l-.71 2.47h-1.03l.99-3.47h1.74z"/></svg>