<svg version="1.1" id="Layer_1" xmlns="http://www.w3.org/2000/svg" x="0" y="0" viewBox="0 0 45 45" style="enable-background:new 0 0 45 45" xml:space="preserve"><style>.st0{fill:#24a7d0}.st1{fill:#48639e}</style><path class="st1" d="M2.53 38.17h39.94v1H2.53z"/><path class="st1" d="M35.4 11.53c0-.05-.01-.08-.02-.09l-.02-.09c-.02-.05-.05-.08-.05-.09l-.06-.07a.304.304 0 0 0-.07-.05l-.08-.05c-.04-.02-.07-.02-.07-.02l-8.39-.02c-.06 0-.13.02-.2.05l-.14.09c-.02.02-.03.05-.04.06l-.05.08c-.02.04-.03.08-.03.1l-.04 2.38c0 .05.01.1.03.15v5.74h-7.32v-5.88l.02-2.29-.03-.16-.05-.1-.22.13.18-.18a.381.381 0 0 0-.09-.08l-.09-.05c-.03-.01-.05-.02-.07-.02l-8.39-.02c-.06 0-.13.02-.17.03l-.07.04c-.02.02-.05.03-.1.07l-.09.14c-.02.04-.03.08-.03.1l-.04 27.21c0 .27.21.48.48.48h24.83c.27 0 .48-.21.48-.48V13.81c0-.04-.01-.09-.03-.14l.03-2.14zm-22.06.48h1.81l-.02 1.33h-1.8l.01-1.33zm-2.76 0h1.81l-.02 1.33h-1.8l.01-1.33zm-.02 13.32h7.32v5.55h-7.32v-5.55zm4.62-4.68-.02 3.73h-1.81l.02-3.73h1.81zm-.48-.95v-2.74c0-.61.35-1.15.9-1.39.55.24.91.79.91 1.39v2.74H14.7zm-.95 0h-1.81v-2.74c0-.61.35-1.15.91-1.39.54.24.9.79.9 1.39v2.74zm-1.33.95-.02 3.73h-1.81l.02-3.73h1.81zm5.47 17.53h-1.06v-.01h-5.21v.01h-1.06v-6.35h7.33v6.35zm-.01-13.8h-1.77l.02-3.73h1.76l-.01 3.73zm.01-4.68h-.43v-2.74c0-1.07-.68-2.02-1.7-2.36a.511.511 0 0 0-.3 0c-.5.17-.93.48-1.23.9-.3-.42-.73-.73-1.23-.9-.1-.03-.2-.03-.3 0-1.02.34-1.7 1.29-1.7 2.36v2.74h-.43v-5.41h7.32v5.41zm0-6.36h-1.8l.01-1.33h1.81l-.02 1.33zm6.48 7.31h1.77l-.02 3.73h-1.77l.02-3.73zm-2.76 0h1.8l-.01 3.73h-1.81l.02-3.73zm-2.72 0h1.77l-.02 3.73h-1.77l.02-3.73zm7.27 17.53H25.1v-.01h-.95v.01h-1.17v-.01h-4.14v-6.34h7.32v6.35zm0-7.3h-7.32v-5.55h7.32v5.55zm3.71-18.87h1.81l-.01 1.33h-1.81l.01-1.33zm-2.76 0h1.81l-.01 1.33H27.1l.01-1.33zm7.33 26.17h-1.06v-.01h-6.26v-6.34h7.32v6.35zm0-7.3h-7.32v-5.55h7.32v5.55zM33.07 19.7h-1.81v-2.74c0-.61.35-1.15.9-1.4.55.25.91.8.91 1.4v2.74zm1.35.95-.02 3.73h-1.81l.02-3.73h1.81zm-2.76 0-.02 3.73h-1.81l.02-3.73h1.81zm-1.35-.95H28.5v-2.74c0-.61.35-1.15.9-1.4.55.25.91.8.91 1.4v2.74zm-1.41.95-.02 3.73h-1.76l.01-3.73h1.77zm5.54-.95h-.43v-2.74c0-1.07-.68-2.02-1.7-2.36a.511.511 0 0 0-.3 0c-.51.17-.93.48-1.23.9-.31-.42-.73-.73-1.23-.9-.1-.03-.2-.03-.3 0a2.492 2.492 0 0 0-1.71 2.36v2.74h-.43v-5.41h7.33v5.41zm-.02-6.36h-1.8l.01-1.33h1.81l-.02 1.33z"/><path class="st0" d="M22.59 32.21a.604.604 0 0 0-.19 0c-1.45.31-2.5 1.61-2.5 3.1v2.86h.95v-2.61l1.17-.01v2.62h.96v-2.61h1.17v2.61h.95v-2.86c0-1.49-1.05-2.79-2.51-3.1zm-1.62 2.39c.24-.7.81-1.24 1.53-1.43.73.19 1.3.73 1.54 1.43h-3.07zM14.32 33.3a.67.67 0 0 0-.2 0c-1.44.31-2.5 1.61-2.5 3.09v1.78h.96v-1.49h1.17v1.49h.95v-1.49h1.18v1.49h.95v-1.78c0-1.48-1.06-2.78-2.51-3.09zm-1.64 2.43c.23-.72.82-1.29 1.55-1.48.72.19 1.31.76 1.54 1.48h-3.09zM30.88 33.3a.34.34 0 0 0-.2 0c-1.45.3-2.5 1.61-2.5 3.09v1.78h.95v-1.49h1.17v1.49h.96v-1.49h1.17v1.49h.95v-1.78c0-1.48-1.05-2.79-2.5-3.09zm-1.65 2.43c.23-.72.81-1.28 1.55-1.48.73.19 1.32.76 1.55 1.48h-3.1z"/></svg>