<svg version="1.1" id="Layer_1" xmlns="http://www.w3.org/2000/svg" x="0" y="0" viewBox="0 0 45 45" style="enable-background:new 0 0 45 45" xml:space="preserve"><style>.st0{fill:#24a7d0}.st1{fill:#48639e}</style><path class="st1" d="m13.51 7.39-3.95 3.75v3.08h.97v-1.33h.03v-1.32l2.95-2.8 2.95 2.8v1.32h.02v1.33h.98v-3.08l-3.95-3.75zM31.5 7.39l-3.95 3.75v3.08h.98v-1.33h.02v-1.32l2.95-2.8 2.95 2.8v1.32h.02v1.33h.98v-3.08L31.5 7.39zM2.35 38.17h40.3v1H2.35zM22.5 16.9c-.28 0-.5-.22-.5-.5v-3.74c0-.28.22-.5.5-.5s.5.22.5.5v3.74c0 .28-.22.5-.5.5z"/><path class="st1" d="M23.78 14.22h-2.55c-.28 0-.5-.22-.5-.5s.22-.5.5-.5h2.55c.28 0 .5.22.5.5s-.23.5-.5.5z"/><path class="st1" d="M35.3 13.4a.518.518 0 0 0-.35-.14h-.48v24.91h-.96v-4.42c-.06-1.73-.88-2.7-1.68-3.42a.49.49 0 0 0-.66 0c-.8.73-1.62 1.71-1.69 3.44v4.4h-.96V14.23h.01v-.97h-.5c-.26 0-.48.22-.48.49v6.43h-.91l-3.79-4a.492.492 0 0 0-.7 0l-3.79 4h-.91v-6.43c0-.13-.05-.25-.14-.35a.494.494 0 0 0-.34-.14h-.49v24.91h-.96l-.01-4.43c-.06-1.71-.89-2.69-1.69-3.42a.5.5 0 0 0-.65 0c-.8.73-1.63 1.71-1.69 3.43v4.42h-.95V13.26h-.48a.49.49 0 0 0-.49.49v24.9c0 .13.05.25.14.35.1.09.22.14.35.14h24.9c.13 0 .25-.05.35-.14.09-.1.14-.22.14-.35v-24.9c0-.13-.05-.25-.14-.35zM14.55 38.17h-2.08v-4.39c.01-.91.39-1.79 1.04-2.43.64.64 1.02 1.51 1.04 2.41v4.41zm7.95-20.95 2.8 2.96h-5.6l2.8-2.96zm2.06 20.95h-4.12v-4.38c.08-1.24 1.07-1.99 2.06-2.55.99.57 1.98 1.31 2.06 2.52v4.41zm2.99 0h-2.02v-4.44c-.11-1.77-1.47-2.75-2.8-3.48a.53.53 0 0 0-.46 0c-1.33.73-2.69 1.71-2.8 3.51v4.41h-2.02V21.15h10.1v17.02zm4.99 0h-2.08v-4.39c.02-.91.39-1.79 1.04-2.43.65.64 1.02 1.51 1.04 2.41v4.41z"/><path class="st0" d="M12.36 16.77a.48.48 0 0 0-.57 0c-.54.34-.88.93-.91 1.58v1.88a.476.476 0 0 0 .48.49h1.42a.5.5 0 0 0 .35-.14.5.5 0 0 0 .14-.35v-1.9c-.03-.64-.37-1.22-.91-1.56zm-.06 2.98h-.45v-1.38c0-.21.09-.41.22-.57.14.15.22.35.23.55v1.4zM15.23 16.77a.465.465 0 0 0-.57 0c-.55.34-.89.93-.92 1.58v1.88c0 .13.06.26.15.35.09.09.21.14.34.14h1.42c.13 0 .25-.05.34-.14a.51.51 0 0 0 .15-.35v-1.9a2 2 0 0 0-.91-1.56zm-.06 2.98h-.45v-1.38c0-.21.08-.41.22-.57.14.15.22.35.23.55v1.4zM30.36 16.77a.48.48 0 0 0-.58 0c-.54.34-.88.93-.91 1.58v1.88a.5.5 0 0 0 .48.5h1.43c.13 0 .25-.06.34-.15.1-.09.15-.22.14-.35v-1.9c-.03-.64-.37-1.22-.9-1.56zm-.07 2.98h-.46v-1.38a.93.93 0 0 1 .23-.57c.14.15.22.35.23.55v1.4zM33.22 16.77a.48.48 0 0 0-.56 0c-.54.34-.88.93-.91 1.58v1.88c0 .13.05.26.14.35.09.09.22.14.34.14h1.44c.26-.01.46-.22.46-.49v-1.91c-.04-.63-.38-1.21-.91-1.55zm-.07 2.98h-.44v-1.38a.93.93 0 0 1 .23-.57c.13.16.21.35.21.55v1.4zM20.34 23.75a.518.518 0 0 0-.35-.14h-1.42a.49.49 0 0 0-.49.49v3.12c0 .13.05.25.14.34.1.1.22.15.35.15h1.42c.13 0 .25-.05.35-.15.09-.09.14-.21.14-.34V24.1c0-.13-.05-.25-.14-.35zm-1.3 2.97v-2.14h.46l.01 2.14h-.47zM23.56 23.75a.5.5 0 0 0-.35-.14h-1.42a.49.49 0 0 0-.49.49v3.12c0 .13.05.25.14.34.09.1.22.15.35.15h1.42c.13 0 .26-.06.35-.15.09-.09.14-.21.14-.34V24.1c0-.13-.05-.25-.14-.35zm-.83 2.97h-.46v-2.14h.46v2.14zM26.77 23.75a.476.476 0 0 0-.34-.14h-1.42a.49.49 0 0 0-.49.49v3.12c0 .13.05.25.14.34.09.1.22.15.35.15h1.42c.13 0 .25-.05.35-.15.09-.09.14-.21.14-.34V24.1a.47.47 0 0 0-.15-.35zm-.81 2.97h-.47v-2.14h.47v2.14z"/></svg>