<svg version="1.1" id="Layer_1" xmlns="http://www.w3.org/2000/svg" x="0" y="0" viewBox="0 0 45 45" style="enable-background:new 0 0 45 45" xml:space="preserve"><style>.st0{fill:#24a7d0}.st1{fill:#48639e}</style><path class="st1" d="M4.77 38.17h35.45v1H4.77z"/><path class="st1" d="M16.13 33.67h1v5.3h-1zM28.06 33.67h1v5.3h-1z"/><path class="st0" d="M32.87 39.15h-8.63v-6.3h8.63v6.3zm-7.63-1h6.63v-4.3h-6.63v4.3zM21.03 39.15h-8.82v-6.3h8.82v6.3zm-7.81-1h6.82v-4.3h-6.82v4.3z"/><path class="st1" d="M35.32 39.15H9.68V14.41L13 10.13h6.47L22 13v-1.22h2.08l1.53-1.53h6.03l1.53 1.53h2.14v27.37zm-24.64-1h23.64V12.79h-1.56l-1.53-1.53h-5.2l-1.53 1.53H23v2.87l-3.98-4.53h-5.53l-2.81 3.63v23.39z"/><path class="st1" d="M22 14.33h1v24.32h-1zM15.92 32.19h-3.87v-14.7c0-1.07.87-1.94 1.94-1.94 1.07 0 1.94.87 1.94 1.94v14.7zm-2.88-1h1.87v-13.7a.939.939 0 1 0-1.88 0v13.7zM20.89 32.19h-3.87v-14.7c0-1.07.87-1.94 1.94-1.94s1.94.87 1.94 1.94v14.7zm-2.87-1h1.87v-13.7a.939.939 0 1 0-1.88 0v13.7zM27.98 32.19h-3.87v-14.7c0-1.07.87-1.94 1.94-1.94s1.94.87 1.94 1.94v14.7zm-2.87-1h1.87v-13.7a.939.939 0 1 0-1.88 0v13.7zM33.02 32.19h-3.87v-14.7c0-1.07.87-1.94 1.94-1.94 1.07 0 1.94.87 1.94 1.94v14.7zm-2.87-1h1.87v-13.7a.939.939 0 1 0-1.88 0v13.7z"/><path class="st0" d="M24.61 13.73h7.28v1h-7.28z"/></svg>