<svg version="1.1" id="Layer_1" xmlns="http://www.w3.org/2000/svg" x="0" y="0" viewBox="0 0 45 45" style="enable-background:new 0 0 45 45" xml:space="preserve"><style>.st0{fill:#24a7d0}.st1{fill:#48639e}</style><path class="st0" d="M22.5 19.98c-4.87 0-7.32-.8-7.42-.83l.26-.77c.02.01 2.44.79 7.16.79 4.72 0 7.14-.78 7.16-.79l.26.77c-.1.03-2.55.83-7.42.83z"/><path transform="matrix(0.9701 -0.2425 0.2425 0.9701 -4.0416 7.9321)" class="st0" d="M29.79 18.71h.81v3.34h-.81z"/><path class="st0" d="M29.79 19.17c-.67 0-1.22-.55-1.22-1.22 0-.67.55-1.22 1.22-1.22.67 0 1.22.55 1.22 1.22 0 .67-.55 1.22-1.22 1.22zm0-1.62c-.22 0-.41.18-.41.41 0 .22.18.41.41.41.22 0 .41-.18.41-.41 0-.23-.19-.41-.41-.41zM15.21 19.17c-.67 0-1.22-.55-1.22-1.22 0-.67.55-1.22 1.22-1.22.67 0 1.22.55 1.22 1.22-.01.67-.55 1.22-1.22 1.22zm0-1.62c-.22 0-.41.18-.41.41 0 .22.18.41.41.41.22 0 .41-.18.41-.41a.418.418 0 0 0-.41-.41z"/><path transform="matrix(0.2423 -0.9702 0.9702 0.2423 -8.557 29.8052)" class="st0" d="M13.13 19.98h3.34v.81h-3.34z"/><path class="st0" d="M30.31 33.98h1v4.64h-1zM19.37 27.19h1v11.49h-1zM24.61 27.19h1v11.49h-1zM14.95 33.98h1v4.64h-1z"/><path class="st1" d="M12.49 24.87h1v3.51h-1zM31.51 24.87h1v3.51h-1z"/><path class="st1" d="M38.12 34.36c.77-.28 2.05-.85 2.17-1.62a.513.513 0 0 0-.11-.4.494.494 0 0 0-.38-.18h-.13c.05-.07.09-.14.13-.22a.499.499 0 0 0-.32-.71c-2.04-.52-5.08-1.35-5.47-1.57-.36-.2-1.06-.91-1.49-1.4v-1.07c0-.28-.22-.5-.5-.5H27.9v-2.31h-1v2.31H18v-2.31h-1v2.31h-4c-.28 0-.5.22-.5.5v1.07c-.44.49-1.13 1.2-1.5 1.4-.39.22-3.43 1.05-5.47 1.57a.498.498 0 0 0-.32.71c.04.08.08.15.13.22H5.2c-.15 0-.29.06-.38.18-.1.11-.14.26-.11.4.13.77 1.4 1.34 2.17 1.62v4.32c0 .28.22.5.5.5H37.62c.28 0 .5-.22.5-.5v-4.32zm-25.95 3.82h-1.01v-2.03h1.01v2.03zm-2.03-3.04v3.04H7.88v-3.7h9.11v3.7h-3.81v-3.04h-3.04zm17.85-.66h9.13v3.7h-1.48v-3.04H32.6v3.04H27.98v-3.7zm6.64 3.7h-1.01v-2.03h1.01v2.03zm3-4.7h-9.64v-.32h10.42c-.24.12-.52.23-.78.32zm-4.12-2.94c.51.29 3.24 1.03 4.79 1.43-.25.1-.53.16-.79.19h-9.53v-3.21h3.8c.35.38 1.18 1.28 1.73 1.59zm-2-2.85v.26h-3.52v-.26h3.52zm-4.62 10.49h-8.87V27.69h8.87v10.49zm-9.9-10.49v.26h-3.5v-.26h3.5zm-5.51 2.85c.56-.31 1.39-1.21 1.74-1.59h3.77v3.21H7.48c-.25-.04-.54-.1-.79-.19 1.55-.41 4.29-1.14 4.79-1.43zm-4.89 2.62h10.4v.32H7.63v.1a.722.722 0 0 0-.2-.09c-.28-.09-.58-.21-.84-.33z"/><path class="st1" d="M4.77 38.17h35.45v1H4.77zM35.37 24.92H9.63v-.89a2 2 0 0 0 1.91-1.38l.12-.37c.18-.54.69-.91 1.26-.91h19.13c.57 0 1.08.37 1.26.91l.12.37c.28.83 1.04 1.38 1.91 1.38v.89zm-23.64-.89h21.55a3.16 3.16 0 0 1-.67-1.1l-.12-.37a.442.442 0 0 0-.42-.3H12.94c-.19 0-.36.12-.42.3l-.12.37c-.15.42-.38.79-.67 1.1z"/></svg>