<svg version="1.1" id="Layer_1" xmlns="http://www.w3.org/2000/svg" x="0" y="0" viewBox="0 0 45 45" style="enable-background:new 0 0 45 45" xml:space="preserve"><style>.st0{fill:#24a7d0}.st1{fill:#48639e}</style><path class="st1" d="M4.77 38.17h35.45v1H4.77z"/><path class="st1" d="M30.21 39.12H14.79V15.49l3.84-2.88h7.53l4.05 2.87v23.64zm-14.42-1h13.42V16l-3.37-2.39h-6.88l-3.17 2.38v22.13z"/><path class="st1" d="M26.7 13.61h-8.4V8.46h8.4v5.15zm-7.4-1h6.4V9.46h-6.4v3.15z"/><path style="fill:none;stroke:#48639e;stroke-miterlimit:10" d="M22.5 3.53v5.43"/><path class="st0" d="M19 19.8h7v1h-7zM19 24.7h7v1h-7zM19 29.6h7v1h-7zM19 34.5h7v1h-7z"/><path class="st1" d="M26.43 39.05h-7.86V15.99h7.86v23.06zm-7-.86h6.14V16.86h-6.14v21.33z"/></svg>