<svg version="1.1" id="Layer_1" xmlns="http://www.w3.org/2000/svg" x="0" y="0" viewBox="0 0 45 45" style="enable-background:new 0 0 45 45" xml:space="preserve"><style>.st0{fill:#24a7d0}.st1{fill:#48639e}</style><path class="st1" d="M4.77 38.17h35.45v1H4.77z"/><path class="st0" d="M12.59 25.71c-.96 0-1.74.78-1.74 1.74v2.17c0 .19.16.35.35.35h2.77c.19 0 .35-.16.35-.35v-2.17c.01-.96-.78-1.74-1.73-1.74zm1.03 3.56h-2.07v-1.82c0-.57.46-1.03 1.03-1.03.57 0 1.03.46 1.03 1.03l.01 1.82z"/><path class="st0" d="M13.97 30.1H11.2a.48.48 0 0 1-.48-.48v-2.17c0-1.03.84-1.87 1.87-1.87s1.87.84 1.87 1.87v2.17c-.01.26-.22.48-.49.48zm-1.39-4.27c-.89 0-1.62.72-1.62 1.62v2.17c0 .12.1.23.23.23h2.77c.12 0 .23-.1.23-.23v-2.17c.01-.89-.71-1.62-1.61-1.62zm1.16 3.56h-2.32v-1.95a1.16 1.16 0 0 1 2.32 0v1.95zm-2.06-.25h1.82v-1.7c0-.5-.41-.91-.91-.91s-.91.41-.91.91v1.7zM12.59 31.62c-.96 0-1.74.78-1.74 1.74v2.17c0 .19.16.35.35.35h2.77c.19 0 .35-.16.35-.35v-2.17c.01-.96-.78-1.74-1.73-1.74zm1.03 3.56h-2.07v-1.82c0-.57.46-1.03 1.03-1.03.57 0 1.03.46 1.03 1.03l.01 1.82z"/><path class="st0" d="M13.97 36.01H11.2a.48.48 0 0 1-.48-.48v-2.17c0-1.03.84-1.87 1.87-1.87s1.87.84 1.87 1.87v2.17c-.01.26-.22.48-.49.48zm-1.39-4.27c-.89 0-1.62.72-1.62 1.62v2.17c0 .12.1.23.23.23h2.77c.12 0 .23-.1.23-.23v-2.17c.01-.89-.71-1.62-1.61-1.62zm1.16 3.56h-2.32v-1.95a1.16 1.16 0 0 1 2.32 0v1.95zm-2.06-.25h1.82v-1.7c0-.5-.41-.91-.91-.91s-.91.41-.91.91v1.7zM13.8 23.9c.19 0 .35-.16.35-.35v-1.41c0-.19-.16-.35-.35-.35-.19 0-.35.16-.35.35v1.41c-.01.2.15.35.35.35z"/><path class="st0" d="M13.8 24.03a.48.48 0 0 1-.48-.48v-1.41c0-.26.21-.48.48-.48s.48.21.48.48v1.41c-.01.26-.22.48-.48.48zm0-2.12c-.13 0-.23.1-.23.23v1.41c0 .12.1.23.23.23.12 0 .23-.1.23-.23v-1.41c-.01-.13-.11-.23-.23-.23zM11.37 23.9c.19 0 .35-.16.35-.35v-1.41c0-.19-.16-.35-.35-.35-.19 0-.35.16-.35.35v1.41c0 .2.16.35.35.35z"/><path class="st0" d="M11.37 24.03a.48.48 0 0 1-.48-.48v-1.41c0-.26.21-.48.48-.48s.48.21.48.48v1.41c0 .26-.21.48-.48.48zm0-2.12c-.12 0-.23.1-.23.23v1.41c0 .12.1.23.23.23s.23-.1.23-.23v-1.41c0-.13-.1-.23-.23-.23zM32.41 25.71c-.96 0-1.74.78-1.74 1.74v2.17c0 .19.16.35.35.35h2.77c.19 0 .35-.16.35-.35v-2.17c.01-.96-.77-1.74-1.73-1.74zm1.04 3.56h-2.07v-1.82c0-.57.46-1.03 1.03-1.03.57 0 1.03.46 1.03 1.03l.01 1.82z"/><path class="st0" d="M33.8 30.1h-2.77a.48.48 0 0 1-.48-.48v-2.17c0-1.03.84-1.87 1.87-1.87 1.03 0 1.86.84 1.87 1.87v2.17c-.01.26-.22.48-.49.48zm-1.38-4.27c-.89 0-1.62.72-1.62 1.62v2.17c0 .12.1.23.23.23h2.77c.13 0 .23-.1.23-.23v-2.17c0-.89-.73-1.62-1.61-1.62zm1.15 3.56h-2.32v-1.95a1.16 1.16 0 0 1 2.32 0v1.95zm-2.07-.25h1.82v-1.7c0-.5-.41-.91-.91-.91s-.91.41-.91.91v1.7zM32.41 31.62c-.96 0-1.74.78-1.74 1.74v2.17c0 .19.16.35.35.35h2.77c.19 0 .35-.16.35-.35v-2.17c.01-.96-.77-1.74-1.73-1.74zm1.04 3.56h-2.07v-1.82c0-.57.46-1.03 1.03-1.03.57 0 1.03.46 1.03 1.03l.01 1.82z"/><path class="st0" d="M33.8 36.01h-2.77a.48.48 0 0 1-.48-.48v-2.17c0-1.03.84-1.87 1.87-1.87 1.03 0 1.86.84 1.87 1.87v2.17c-.01.26-.22.48-.49.48zm-1.38-4.27c-.89 0-1.62.72-1.62 1.62v2.17c0 .12.1.23.23.23h2.77c.13 0 .23-.1.23-.23v-2.17c0-.89-.73-1.62-1.61-1.62zm1.15 3.56h-2.32v-1.95a1.16 1.16 0 0 1 2.32 0v1.95zm-2.07-.25h1.82v-1.7c0-.5-.41-.91-.91-.91s-.91.41-.91.91v1.7zM33.63 23.9c.19 0 .35-.16.35-.35v-1.41c0-.19-.16-.35-.35-.35-.19 0-.35.16-.35.35v1.41c-.01.2.15.35.35.35z"/><path class="st0" d="M33.62 24.03a.48.48 0 0 1-.48-.48v-1.41c0-.26.21-.48.48-.48s.48.21.48.48v1.41c0 .26-.21.48-.48.48zm0-2.12c-.12 0-.23.1-.23.23v1.41c0 .12.1.23.23.23s.23-.1.23-.23v-1.41c0-.13-.1-.23-.23-.23zM31.2 23.9c.19 0 .35-.16.35-.35v-1.41c0-.19-.16-.35-.35-.35-.19 0-.35.16-.35.35v1.41c0 .2.16.35.35.35z"/><path class="st0" d="M31.2 24.03a.48.48 0 0 1-.48-.48v-1.41c0-.26.21-.48.48-.48s.48.21.48.48v1.41c0 .26-.21.48-.48.48zm0-2.12c-.13 0-.23.1-.23.23v1.41c0 .12.1.23.23.23.12 0 .23-.1.23-.23v-1.41c0-.13-.1-.23-.23-.23zM23.81 20.12c.19 0 .35-.16.35-.35v-1.4c0-.19-.16-.35-.35-.35-.19 0-.35.16-.35.35v1.4c-.01.19.15.35.35.35z"/><path class="st0" d="M23.81 20.24a.48.48 0 0 1-.48-.48v-1.4c0-.26.21-.48.48-.48s.48.21.48.48v1.4c-.01.27-.22.48-.48.48zm0-2.1c-.13 0-.23.1-.23.23v1.4c0 .13.1.23.23.23.12 0 .23-.1.23-.23v-1.4c-.01-.13-.11-.23-.23-.23zM21.58 19.77v-1.4c0-.19-.16-.35-.35-.35-.19 0-.35.16-.35.35v1.4c0 .19.16.35.35.35.19 0 .35-.16.35-.35z"/><path class="st0" d="M21.23 20.24a.48.48 0 0 1-.48-.48v-1.4c0-.26.21-.48.48-.48s.48.21.48.48v1.4c-.01.27-.22.48-.48.48zm0-2.1c-.13 0-.23.1-.23.23v1.4c0 .13.1.23.23.23.12 0 .23-.1.23-.23v-1.4c-.01-.13-.11-.23-.23-.23z"/><path class="st1" d="M8.74 39h27.53c.19 0 .35-.16.35-.35V18.97c0-.05-.01-.11-.04-.16l-3.85-7.84c-.12-.24-.52-.24-.63 0l-3.85 7.84c-.02.05-.04.1-.04.16v2.65H26.4v-5.7c0-.08-.02-.15-.07-.21l-3.57-4.78a.35.35 0 0 0-.28-.14c-.11 0-.22.05-.28.14l-3.51 4.78c-.04.06-.07.13-.07.21v5.7h-1.84v-2.65c0-.05-.01-.11-.04-.16l-3.85-7.84c-.12-.24-.52-.24-.63 0l-3.85 7.84c-.02.05-.04.1-.04.16v19.68c.01.19.17.35.37.35zm23.67-27.08 3.33 6.79h-6.67l3.34-6.79zm-3.49 7.5h6.99v18.87h-6.99V19.42zm-6.77 18.87h-2.86v-5.44c0-1.65 1.25-3.01 2.86-3.19v8.63zm3.56 0h-2.86v-8.63c1.61.18 2.86 1.54 2.86 3.19v5.44zm-3.22-26.58 2.93 3.93h-5.81l2.88-3.93zm-3.16 4.64h6.37v6.71h-1.65v-1.11c0-.19-.16-.35-.35-.35h-2.36c-.19 0-.35.16-.35.35v1.11h-1.65l-.01-6.71zm-2.54 5.96h1.84v1.11c0 .19.16.35.35.35h2.36c.19 0 .35-.16.35-.35v-1.11h1.65v1.11c0 .19.16.35.35.35h2.36c.19 0 .35-.16.35-.35v-1.11h1.81v15.98h-1.8v-5.44c0-2.16-1.76-3.92-3.92-3.92s-3.92 1.76-3.92 3.92v5.44h-1.79l.01-15.98zm-4.21-10.39 3.33 6.79H9.25l3.33-6.79zm-3.49 7.5h6.99v18.87H9.09V19.42z"/><path class="st1" d="M36.26 39.12H8.74a.48.48 0 0 1-.48-.48V18.96c0-.07.02-.14.05-.21l3.85-7.84c.08-.15.24-.25.43-.25s.35.1.43.25l3.85 7.84c.03.07.05.14.05.21v2.52h1.59V15.9c0-.1.03-.2.09-.28l3.51-4.78c.18-.25.59-.24.77 0l3.57 4.78c.06.08.09.18.09.29v5.58h1.56v-2.52c0-.08.02-.15.05-.21L32 10.92a.48.48 0 0 1 .43-.25c.19 0 .35.1.43.25l3.85 7.84c.03.07.05.14.05.21v19.69c-.02.25-.23.46-.5.46zM12.58 10.91c-.07 0-.16.03-.2.11l-3.85 7.84c-.02.03-.02.07-.02.1v19.69c0 .12.1.23.23.23h27.53c.13 0 .23-.1.23-.23V18.96c0-.03-.01-.07-.02-.1l-3.85-7.84c-.04-.08-.13-.11-.21-.11-.07 0-.16.03-.2.11l-3.85 7.84c-.02.03-.02.06-.02.1v2.77h-2.06V15.9c0-.05-.02-.1-.04-.14l-3.57-4.78c-.08-.12-.28-.11-.37 0l-3.51 4.78a.23.23 0 0 0-.04.14v5.83h-2.09v-2.77c0-.03-.01-.07-.02-.1l-3.85-7.84a.253.253 0 0 0-.22-.11zm3.63 27.51H8.96V19.3h7.24v19.12zm-7-.25h6.74V19.55H9.21v18.62zm26.83.25H28.8V19.3h7.24v19.12zm-7-.25h6.74V19.55h-6.74v18.62zm-.7.25h-2.05v-5.56c0-2.09-1.7-3.79-3.79-3.79s-3.79 1.7-3.79 3.79v5.56h-2.04V22.19h2.09v1.23c0 .13.1.23.23.23h2.36c.12 0 .23-.1.23-.23v-1.23h1.9v1.23c0 .13.1.23.23.23h2.36c.12 0 .23-.1.23-.23v-1.23h2.06v16.23zm-1.8-.25h1.55V22.44h-1.56v.98c0 .26-.21.48-.48.48h-2.36a.48.48 0 0 1-.48-.48v-.98h-1.4v.98c0 .26-.21.48-.48.48h-2.36a.48.48 0 0 1-.48-.48v-.98H16.9v15.73h1.54v-5.31c0-2.23 1.81-4.04 4.04-4.04s4.04 1.81 4.04 4.04v5.31zm-.7.25h-3.11v-8.9l.14.02c1.69.19 2.97 1.61 2.97 3.32v5.56zm-2.86-.25h2.61v-5.31c0-1.53-1.11-2.82-2.61-3.05v8.36zm-.71.25h-3.11v-5.56c0-1.7 1.28-3.13 2.97-3.31l.14-.02v8.89zm-2.86-.25h2.61v-8.36c-1.5.23-2.61 1.52-2.61 3.05v5.31zm6.41-14.98h-1.9v-1.23c0-.13-.1-.23-.23-.23h-2.36c-.13 0-.23.1-.23.23v1.23h-1.9v-6.96h6.62v6.96zm-1.65-.25h1.4v-6.46h-6.12v6.46h1.4v-.98c0-.26.21-.48.48-.48h2.36c.26 0 .48.21.48.48v.98zm-8.05-4.1H9.05l.09-.18 3.45-7.02 3.53 7.2zm-6.67-.25h6.27l-3.13-6.39-3.14 6.39zm26.5.25h-7.07l.09-.18 3.45-7.02 3.53 7.2zm-6.67-.25h6.27l-3.13-6.39-3.14 6.39zm-9.92-2.82 3.13-4.27 3.18 4.27h-6.31zm3.13-3.85-2.64 3.6h5.32l-2.68-3.6z"/></svg>