<svg version="1.1" id="Layer_1" xmlns="http://www.w3.org/2000/svg" x="0" y="0" viewBox="0 0 45 45" style="enable-background:new 0 0 45 45" xml:space="preserve"><style>.st1{fill:#48639e}</style><path class="st1" d="M4.77 38.17h35.45v1H4.77z"/><path class="st1" d="M32.41 24.94c.53 0 .97-.43.97-.97v-1.08a.98.98 0 0 0-.97-.98h-1.13l-8.56-4.56a.407.407 0 0 0-.4 0l-8.55 4.56h-1.18a.98.98 0 0 0-.97.98v1.08c0 .54.44.97.97.97h2.08c.16 1.33.24 2.79.24 4.27 0 1.61-.1 3.19-.28 4.61h-.47c-.24 0-.43.19-.43.43v1.77h-1.69c-.23 0-.42.19-.42.42v2.2c0 .24.19.43.42.43h20.92c.23 0 .42-.19.42-.43v-2.2c0-.23-.19-.42-.42-.42h-1.69v-1.77c0-.24-.19-.43-.43-.43h-.42c-.19-1.42-.28-3-.28-4.61 0-1.48.08-2.94.23-4.27h2.04zm-9.89-6.73 6.95 3.7H15.58l6.94-3.7zm-9.93 5.88c-.06 0-.12-.05-.12-.12v-1.08c0-.07.06-.13.13-.13h19.8c.07 0 .13.06.13.13v1.08c0 .07-.06.12-.13.12H12.59zm14.27 5.12c0 1.61-.09 3.19-.28 4.61h-2.14c-.18-1.42-.28-3-.28-4.61 0-1.48.08-2.94.24-4.27h2.23c.15 1.33.23 2.79.23 4.27zm-3.28 4.61h-2.12c.18-1.42.28-3.01.28-4.61 0-1.49-.08-2.93-.23-4.27h2.03a38.62 38.62 0 0 0-.23 4.27c0 1.6.09 3.19.27 4.61zm-2.69-4.61c0 1.61-.1 3.19-.28 4.61h-2.15c-.18-1.42-.28-3-.28-4.61 0-1.48.08-2.94.24-4.27h2.23c.15 1.33.24 2.79.24 4.27zm-3.33-4.27a38.62 38.62 0 0 0-.23 4.27c0 1.6.1 3.19.27 4.61h-2.11c.17-1.42.27-3.01.27-4.61 0-1.49-.08-2.93-.23-4.27h2.03zm14.97 11.93v1.35H12.47v-1.35h20.06zm-2.11-2.2v1.35H14.58v-1.35h15.84zm-.86-.85h-2.12c.18-1.42.27-3.01.27-4.61 0-1.49-.07-2.93-.23-4.27h2.04a38.62 38.62 0 0 0-.23 4.27c0 1.6.09 3.19.27 4.61z"/><path d="M32.41 21.91h-1.13l-8.56-4.56a.407.407 0 0 0-.4 0l-8.55 4.56h-1.18a.98.98 0 0 0-.97.98v1.08c0 .54.44.97.97.97h19.82c.53 0 .97-.43.97-.97v-1.08a.98.98 0 0 0-.97-.98zm-9.89-3.7 6.95 3.7H15.58l6.94-3.7zm10.01 5.76c0 .07-.06.12-.13.12H12.59c-.06 0-.12-.05-.12-.12v-1.08c0-.07.06-.13.13-.13h19.8c.07 0 .13.06.13.13v1.08z" style="fill:#24a7d0"/></svg>