<svg version="1.1" id="Layer_1" xmlns="http://www.w3.org/2000/svg" x="0" y="0" viewBox="0 0 45 45" style="enable-background:new 0 0 45 45" xml:space="preserve"><style>.st0{fill:#24a7d0}</style><path style="fill:#48639e" d="M4.77 38.17h35.45v1H4.77z"/><path class="st0" d="M16.91 26.66v1.52c0 .16.13.28.28.28h1.94c.16 0 .28-.13.28-.28v-1.52a1.25 1.25 0 0 0-2.5 0zm1.93 0v1.23h-1.37v-1.23c0-.38.31-.69.69-.69.38 0 .68.31.68.69z"/><path class="st0" d="M19.13 28.59h-1.94c-.23 0-.41-.18-.41-.41v-1.52c0-.76.62-1.38 1.38-1.38.76 0 1.38.62 1.38 1.38v1.52c0 .22-.19.41-.41.41zm-.97-3.06c-.62 0-1.13.51-1.13 1.13v1.52c0 .09.07.16.16.16h1.94c.09 0 .16-.07.16-.16v-1.52c0-.62-.51-1.13-1.13-1.13zm.81 2.49h-1.62v-1.36c0-.45.36-.81.81-.81s.81.36.81.81v1.36zm-1.37-.25h1.12v-1.11a.56.56 0 1 0-1.12 0v1.11zM21.53 28.46h1.94c.16 0 .28-.13.28-.28v-1.52a1.25 1.25 0 0 0-2.5 0v1.52c0 .15.12.28.28.28zm.28-1.8c0-.38.31-.69.69-.69.38 0 .69.31.69.69v1.23h-1.37v-1.23z"/><path class="st0" d="M23.47 28.59h-1.94c-.23 0-.41-.18-.41-.41v-1.52c0-.76.62-1.38 1.38-1.38s1.38.62 1.38 1.38v1.52c0 .22-.19.41-.41.41zm-.97-3.06c-.62 0-1.13.51-1.13 1.13v1.52c0 .09.07.16.16.16h1.94c.09 0 .16-.07.16-.16v-1.52c0-.62-.51-1.13-1.13-1.13zm.81 2.49h-1.62v-1.36c0-.45.36-.81.81-.81s.81.36.81.81v1.36zm-1.37-.25h1.12v-1.11a.56.56 0 1 0-1.12 0v1.11zM25.87 28.46h1.94c.16 0 .28-.13.28-.28v-1.52a1.25 1.25 0 0 0-2.5 0v1.52c0 .15.13.28.28.28zm.29-1.8c0-.38.31-.69.69-.69.38 0 .69.31.69.69v1.23h-1.37v-1.23z"/><path class="st0" d="M27.81 28.59h-1.94c-.23 0-.41-.18-.41-.41v-1.52c0-.76.62-1.38 1.38-1.38.76 0 1.38.62 1.38 1.38v1.52c0 .22-.18.41-.41.41zm-.97-3.06c-.62 0-1.13.51-1.13 1.13v1.52c0 .09.07.16.16.16h1.94c.09 0 .16-.07.16-.16v-1.52c0-.62-.51-1.13-1.13-1.13zm.81 2.49h-1.62v-1.36c0-.45.36-.81.81-.81s.81.36.81.81v1.36zm-1.37-.25h1.12v-1.11a.56.56 0 1 0-1.12 0v1.11z"/><path d="M32.57 34.92h-.04V20.07h.29c.56 0 1.02-.47 1.02-1.04v-3.16a.28.28 0 0 0-.28-.28h-1.91a.28.28 0 0 0-.28.28v.8h-1.12v-.8a.28.28 0 0 0-.28-.28h-1.69a.28.28 0 0 0-.28.28v.8h-1.12v-.8a.28.28 0 0 0-.28-.28h-1.93a.28.28 0 0 0-.28.28v3.16c0 .57.46 1.04 1.02 1.04h.04v3.92h-1.03v-.85a.28.28 0 0 0-.28-.28H20.9a.28.28 0 0 0-.28.28v.85h-1.03v-3.92h.11c.57 0 1.03-.47 1.03-1.04v-3.16a.28.28 0 0 0-.28-.28h-1.92a.28.28 0 0 0-.28.28v.8h-1.13v-.8a.28.28 0 0 0-.28-.28h-1.7a.28.28 0 0 0-.28.28v.8h-1.13v-.8a.28.28 0 0 0-.28-.28H11.5a.28.28 0 0 0-.28.28v3.16c0 .57.46 1.04 1.03 1.04h.28v14.85h-.04c-.7 0-1.27.57-1.27 1.27v2.48h.57v-2.48c0-.39.32-.71.71-.71h20.13c.39 0 .71.32.71.71v2.48h.57v-2.48c-.07-.7-.64-1.27-1.34-1.27zM25.39 19.5a.46.46 0 0 1-.45-.47v-2.88h1.36v.8c0 .16.13.28.28.28h1.69c.16 0 .28-.13.28-.28v-.8h1.12v.8c0 .16.13.28.28.28h1.69c.16 0 .28-.13.28-.28v-.8h1.34v2.88c0 .26-.2.47-.45.47h-7.42zm-13.2 0c-.25 0-.46-.21-.46-.47v-2.88h1.38v.8c0 .16.13.28.28.28h1.7c.16 0 .28-.13.28-.28v-.8h1.13v.8c0 .16.13.28.28.28h1.7c.16 0 .28-.13.28-.28v-.8h1.36v2.88c0 .26-.21.47-.46.47h-7.47zm2.85 3.64v11.78h-2V20.07H19v3.92h-.54v-.85a.28.28 0 0 0-.28-.28h-2.86c-.15 0-.28.13-.28.28zm7.18 11.78h-1.57v-3.2c0-.92.68-1.69 1.57-1.83v5.03zm2.13 0h-1.57V29.9c.89.14 1.57.9 1.57 1.83v3.19zm5.04-2.29h-1.71a.28.28 0 1 0 0 .56h1.71v1.72h-4.48v-3.18h1.61a.28.28 0 1 0 0-.56h-1.67a2.421 2.421 0 0 0-2.35-1.87c-1.14 0-2.1.8-2.35 1.87h-1.8a.28.28 0 1 0 0 .56h1.73v3.18H15.6V33.2h1.58a.28.28 0 1 0 0-.56H15.6v-9.21h2.29v.85c0 .16.13.28.28.28h2.7c.16 0 .28-.13.28-.28v-.85h2.68v.85c0 .16.13.28.28.28h2.7c.16 0 .28-.13.28-.28v-.85h2.29v9.2zm2.57 2.29h-2V23.14a.28.28 0 0 0-.28-.28h-2.86a.28.28 0 0 0-.28.28v.85H26v-3.92h5.96v14.85z" style="fill:#48639e;stroke:#48639e;stroke-width:.25;stroke-miterlimit:10"/></svg>