<svg version="1.1" id="Layer_1" xmlns="http://www.w3.org/2000/svg" x="0" y="0" viewBox="0 0 45 45" style="enable-background:new 0 0 45 45" xml:space="preserve"><style>.st0{fill:#24a7d0}.st1{fill:#48639e}</style><path class="st0" d="M11.09 25.6H8.16v-2.81h2.93v2.81zm-2.48-.46h2.02v-1.91H8.61v1.91z"/><path class="st0" d="M11.46 25.97H7.78v-3.56h3.68v3.56zm-2.47-1.2h1.27v-1.16H8.99v1.16z"/><path class="st0" d="M11.55 23.24H7.69v-.36c0-1.04.85-1.89 1.89-1.89h.07c1.04 0 1.89.85 1.89 1.89l.01.36zm-3.4-.46h2.94c-.05-.75-.67-1.34-1.44-1.34h-.06c-.76 0-1.39.59-1.44 1.34z"/><path class="st0" d="M11.93 23.61H7.32v-.73c0-1.25 1.02-2.27 2.27-2.27 1.32 0 2.34 1.02 2.34 2.27v.73zm-3.3-1.2h1.98c-.17-.35-.54-.59-.96-.59-.46-.01-.84.24-1.02.59zM36.12 25.6h-2.93v-2.81h2.93v2.81zm-2.48-.46h2.02v-1.91h-2.02v1.91z"/><path class="st0" d="M36.49 25.97h-3.68v-3.56h3.68v3.56zm-2.47-1.2h1.27v-1.16h-1.27v1.16z"/><path class="st0" d="M36.58 23.24h-3.86v-.36c0-1.04.85-1.89 1.89-1.89h.07c1.04 0 1.89.85 1.89 1.89v.36zm-3.4-.46h2.94c-.05-.75-.67-1.34-1.44-1.34h-.07c-.76 0-1.38.59-1.43 1.34z"/><path class="st0" d="M36.96 23.61h-4.61v-.73c0-1.25 1.02-2.27 2.27-2.27 1.32 0 2.34 1.02 2.34 2.27v.73zm-3.3-1.2h1.98c-.17-.35-.54-.59-.95-.59-.47-.01-.85.24-1.03.59z"/><path class="st1" d="M22 9.54h.45v3.8H22v-3.8z"/><path class="st1" d="M21.62 9.16h1.2v4.55h-1.2z"/><path class="st0" d="M24.23 19.86h-.45v-4.74c0-.86-.7-1.55-1.55-1.55-.86 0-1.55.7-1.55 1.55v4.74h-.45v-4.74a2.01 2.01 0 0 1 4.02 0l-.02 4.74z"/><path class="st0" d="M24.61 20.23h-1.2v-5.11c0-.65-.53-1.18-1.18-1.18s-1.18.53-1.18 1.18v5.11h-1.2v-5.11c0-1.31 1.07-2.38 2.38-2.38s2.38 1.07 2.38 2.38v5.11z"/><path class="st0" d="M20.44 14.89H24v.45h-3.56v-.45z"/><path class="st0" d="M20.07 14.52h4.31v1.2h-4.31zM23.8 38.74h-3.32v-4.77c0-.9.73-1.63 1.63-1.63h.06c.9 0 1.63.73 1.63 1.63v4.77zm-2.87-.45h2.41v-4.32c0-.65-.53-1.17-1.17-1.17h-.06c-.65 0-1.17.53-1.17 1.17l-.01 4.32z"/><path class="st0" d="M24.17 39.12H20.1v-5.15c0-1.1.9-2 2-2 1.16 0 2.06.9 2.06 2l.01 5.15zm-2.86-1.21h1.66v-3.94c0-.44-.36-.8-.8-.8-.5 0-.86.36-.86.8v3.94z"/><path class="st1" d="M4.77 38.17h35.45v1H4.77z"/><path class="st1" d="M36.91 38.74h-4.52v-13.6h4.52v13.6zm-4.06-.45h3.61V25.6h-3.61v12.69z"/><path class="st1" d="M37.29 39.12h-5.27V24.77h5.27v14.35zm-4.07-1.21h2.86V25.97h-2.86v11.94z"/><path class="st1" d="M32.85 38.74h-6.33v-12.2h6.33v12.2zm-5.88-.45h5.43v-11.3h-5.43v11.3z"/><path class="st1" d="M33.22 39.12h-7.08V26.16h7.08v12.96zm-5.88-1.21h4.68V27.37h-4.68v10.54z"/><path class="st0" d="M34.42 30.42h.45v2.59h-.45v-2.59z"/><path class="st0" d="M34.05 30.04h1.2v3.34h-1.2z"/><path class="st1" d="M29.45 28.12h.45v2.59h-.45v-2.59z"/><path class="st1" d="M29.08 27.74h1.2v3.34h-1.2zM19.54 28.18H20v2.59h-.45v-2.59z"/><path class="st1" d="M19.17 27.8h1.2v3.34h-1.2zM24.44 28.12h.45v2.59h-.45v-2.59z"/><path class="st1" d="M24.07 27.74h1.2v3.34h-1.2zM21.98 28.18h.45v2.59h-.45v-2.59z"/><path class="st1" d="M21.6 27.8h1.2v3.34h-1.2zM29.45 32.3h.45v2.59h-.45V32.3z"/><path class="st1" d="M29.08 31.92h1.2v3.34h-1.2zM11.88 38.74H7.36v-13.6h4.52v13.6zm-4.06-.45h3.61V25.6H7.82v12.69z"/><path class="st1" d="M12.26 39.12H6.99V24.77h5.27v14.35zm-4.07-1.21h2.86V25.97H8.19v11.94z"/><path class="st1" d="M17.76 38.74h-6.33v-12.2h6.33v12.2zm-5.88-.45h5.43v-11.3h-5.43v11.3z"/><path class="st1" d="M18.14 39.12h-7.08V26.16h7.08v12.96zm-5.88-1.21h4.68V27.37h-4.68v10.54z"/><path class="st0" d="M9.4 30.42h.45v2.59H9.4v-2.59z"/><path class="st0" d="M9.02 30.04h1.2v3.34h-1.2z"/><path class="st1" d="M14.6 28.12h.45v2.59h-.45v-2.59z"/><path class="st1" d="M14.23 27.74h1.2v3.34h-1.2zM14.6 32.3h.45v2.59h-.45V32.3z"/><path class="st1" d="M14.23 31.92h1.2v3.34h-1.2zM26.97 38.74h-9.66V24.37l4.83-1.95 4.83 1.95v14.37zm-9.21-.45h8.75V24.67l-4.38-1.77-4.38 1.77.01 13.62z"/><path class="st1" d="M27.34 39.12H16.93v-15l5.21-2.1 5.21 2.1-.01 15zm-9.2-1.21h8V24.93l-4-1.61-4 1.61v12.98z"/><path class="st1" d="M24.99 23.63h-.45v-3.59h-4.55v3.59h-.45v-4.05h5.45v4.05z"/><path class="st1" d="M25.37 24.01h-1.2v-3.6h-3.8v3.6h-1.2v-4.8h6.2zM22.14 26.8c-.66 0-1.19-.54-1.19-1.19 0-.66.54-1.19 1.19-1.19.66 0 1.19.54 1.19 1.19 0 .65-.53 1.19-1.19 1.19zm0-1.94c-.41 0-.74.33-.74.74s.33.74.74.74.74-.33.74-.74c0-.4-.33-.74-.74-.74z"/><path class="st1" d="M22.14 27.17c-.87 0-1.57-.7-1.57-1.57s.7-1.57 1.57-1.57 1.57.7 1.57 1.57-.71 1.57-1.57 1.57zm0-1.93c-.2 0-.37.16-.37.36s.16.36.37.36.36-.16.36-.36-.16-.36-.36-.36z"/></svg>