<svg version="1.1" id="Layer_1" xmlns="http://www.w3.org/2000/svg" x="0" y="0" viewBox="0 0 45 45" style="enable-background:new 0 0 45 45" xml:space="preserve"><style>.st0{fill:#24a7d0}.st1{fill:#48639e}</style><path class="st1" d="M4.77 38.17h35.45v1H4.77zM34.44 25.66h-.05v-3.2c0-.22-.14-.4-.34-.47V18.4a.5.5 0 0 0-.5-.49h-.71v-1.86a.5.5 0 0 0-.49-.5c-.28 0-.5.23-.5.5v1.86h-.71a.5.5 0 0 0-.5.49v3.59c-.19.07-.34.25-.34.47v3.2h-.05c-.27 0-.5.22-.5.5v6.65h-.72v-4.38h.2c.27 0 .5-.22.5-.5a.5.5 0 0 0-.5-.49h-.52l-.29-.24v-5.18h.43a.495.495 0 1 0 0-.99h-.96v-.48c0-2.1-1.19-3.91-2.96-4.81v-1.73c0-1.23-.89-2.22-2-2.44V9.96a.5.5 0 0 0-.49-.5c-.28 0-.5.23-.5.5v1.61c-1.14.23-2 1.23-2 2.44v1.8a5.391 5.391 0 0 0-2.83 4.74v.48h-.96a.495.495 0 1 0 0 .99h.43v5.17l-.3.25h-.51a.5.5 0 0 0-.5.49c0 .28.23.5.5.5h.2v4.38h-.73v-6.65c0-.28-.22-.5-.49-.5h-.05v-3.2c0-.22-.15-.4-.35-.47V18.4a.49.49 0 0 0-.49-.49h-.71v-1.86c0-.27-.22-.5-.5-.5a.5.5 0 0 0-.49.5v1.86h-.71c-.28 0-.5.22-.5.49v3.59c-.2.07-.34.25-.34.47v3.2h-.05c-.28 0-.5.22-.5.5v11.98h.99V26.65h3.2v6.16h-.75a.495.495 0 1 0 0 .99h.75v4.34h.99V33.8h2.19v4.34h.99V33.8h2.06v4.34h.99V33.8h2.06v4.34h.99V33.8h2.06v4.34h.99V33.8h2.18v4.34h1V33.8h.75a.495.495 0 1 0 0-.99h-.75v-6.16h3.19v11.49h1V26.16c0-.28-.23-.5-.5-.5zm-22.5-6.76h1.42v3.06h-1.42V18.9zm1.77 6.76H11.6v-2.71h2.11v2.71zm13.69-3.64h.03v4.36l-1.69-1.39v-2.97h1.66zm-2.65 2.15L23 22.73v-.71h1.75v2.15zM22 22.73l-1.75 1.44v-2.15H22v.71zm.5.87 4.66 3.84h-9.32l4.66-3.84zm4.4-3.05v.48h-1.35v-.48c0-1.3-.25-2.69-.89-3.83 1.37.78 2.24 2.21 2.24 3.83zm-2.34 0v.48H23V16.3c1.12.66 1.56 2.82 1.56 4.25zm-3.63-6.54c0-.83.68-1.5 1.51-1.5.81 0 1.49.67 1.49 1.5v1.34c-.96-.26-2.07-.24-3 .04v-1.38zm-.49 6.54c0-2.16.75-3.76 1.56-4.25v4.73h-1.56v-.48zm-2.34 0c0-1.64.9-3.07 2.23-3.82-.54.97-.88 2.31-.88 3.82v.48H18.1v-.48zm-.53 1.47h1.69v2.96l-1.69 1.4v-4.36zm1.38 10.79h-1.99v-4.33c.19.05-.14.01 1.99.02v4.31zm3.05 0h-2.06V28.5H22v4.31zm3.06 0h-2.07V28.5h2.07v4.31zm2.98 0h-1.99V28.5h1.87c.05 0 .08-.01.12-.02v4.33zm3.6-13.91h1.42v3.06h-1.42V18.9zm1.76 6.76h-2.11v-2.71h2.11v2.71z"/><path class="st0" d="M12.64 34.14c-.27 0-.5.22-.5.5v2.68c0 .27.22.5.5.5.27 0 .5-.22.5-.5v-2.68c0-.28-.23-.5-.5-.5zM12.64 31.77c.27 0 .5-.22.5-.5v-2.68c0-.27-.22-.5-.5-.5-.27 0-.5.22-.5.5v2.68c0 .28.23.5.5.5zM32.33 34.14c-.27 0-.5.22-.5.5v2.68c0 .27.22.5.5.5.27 0 .5-.22.5-.5v-2.68c0-.28-.22-.5-.5-.5zM32.33 28.1c-.27 0-.5.22-.5.5v2.68c0 .27.22.5.5.5.27 0 .5-.22.5-.5V28.6c0-.28-.22-.5-.5-.5zM28.85 21.03h-.96v-.48a5.36 5.36 0 0 0-2.77-4.7c-.01-.01-.01-.02-.02-.02-.06-.03-.11-.06-.17-.09v-.01c-.3-.16-.63-.29-1-.38-.44-.12-.93-.18-1.44-.18-.25 0-.5.02-.74.05-.08.01-.16.02-.24.04-.2.03-.4.07-.58.13-.37.1-.7.24-.99.41v.01l-.15.09a5.37 5.37 0 0 0-2.68 4.65v.48h-.96a.495.495 0 1 0 0 .99h.43v5.17l.99-.81v-4.36h1.69v2.96l.99-.81v-2.15H22v.71h1v-.71h1.75v2.15l.99.82v-2.97h1.69v4.36l.99.82v-5.18h.43a.495.495 0 1 0 0-.99zm-9.4-.48v.48H18.1v-.48c0-.95.3-1.83.83-2.55.36-.52.84-.96 1.4-1.27-.33.58-.58 1.3-.72 2.11a8.56 8.56 0 0 0-.16 1.71zm2.55.48h-1.56v-.48c0-.43.03-.83.09-1.21.21-1.54.82-2.65 1.47-3.04v4.73zm2.56 0H23V16.3c.83.49 1.29 1.81 1.46 3.04.07.43.1.84.1 1.21v.48zm2.34 0h-1.35v-.48c0-.57-.05-1.15-.16-1.72-.13-.75-.37-1.47-.73-2.11.56.32 1.04.76 1.4 1.27.54.73.84 1.61.84 2.56v.48z"/></svg>