<svg version="1.1" id="Layer_1" xmlns="http://www.w3.org/2000/svg" x="0" y="0" viewBox="0 0 45 45" style="enable-background:new 0 0 45 45" xml:space="preserve"><style>.st0{fill:#24a7d0}.st1{fill:#48639e}</style><path class="st1" d="M4.77 38.17h35.45v1H4.77z"/><path class="st1" d="M35.1 36.69h-.5v-9.95c0-.13-.05-.26-.15-.35s-.22-.15-.35-.15h-1.99c-.27 0-.5.22-.5.5v1.49h-.5v-1.49c0-.13-.05-.26-.15-.35s-.22-.15-.35-.15h-1.49v-3.48c0-.13-.05-.26-.15-.35s-.22-.15-.35-.15v-1.49h.5c.17 0 .32-.08.41-.22l.99-1.49a.497.497 0 0 0-.42-.77h-1.68l-.86-1.72a.483.483 0 0 0-.37-.26l.42-2.92a.5.5 0 0 0-.5-.57h-1.49c-.25 0-.46.18-.5.43L25 14.31h-6.66l-.15-1.06a.498.498 0 0 0-.5-.43H16.2c-.14 0-.28.06-.38.17-.1.11-.14.25-.12.4l.42 2.91a.5.5 0 0 0-.37.26l-.86 1.73h-1.68c-.18 0-.35.1-.44.26-.09.16-.08.36.02.51l.99 1.49c.09.14.25.22.41.22h.5v1.49c-.27 0-.5.22-.5.5v3.48H12.7c-.27 0-.5.22-.5.5v1.49h-.5v-1.49a.47.47 0 0 0-.15-.35.51.51 0 0 0-.35-.15H9.24c-.27 0-.5.22-.5.5v9.95h-.5c-.27 0-.5.22-.5.5v1.49c0 .13.05.26.15.35s.22.15.35.15H35.1c.13 0 .26-.05.35-.15a.51.51 0 0 0 .15-.35v-1.49a.47.47 0 0 0-.15-.35.47.47 0 0 0-.35-.15zm-4.97-9.45v1.49c0 .13.05.26.15.35s.22.15.35.15h1.49c.13 0 .26-.05.35-.15s.15-.22.15-.35v-1.49h.99v9.45h-4.48v-9.45h1zm-3.56-13.43-.35 2.49h-.5l.35-2.49h.5zm-1.71 1.49-.14.99h-6.1l-.14-.99h6.38zm-7.6-1.49.35 2.49h-.5l-.35-2.49h.5zm-.75 3.48h10.33l.5.99H16.01l.5-.99zm-2.36 1.99H29.2l-.33.5H14.48l-.33-.5zm1.55 1.49h11.94v1.49h-.99c-.27 0-.5.22-.5.5v1.99h-.99v-1.99a.47.47 0 0 0-.15-.35.51.51 0 0 0-.35-.15h-1.99c-.27 0-.5.22-.5.5v1.99h-.99v-1.99c0-.13-.05-.26-.15-.35s-.22-.15-.35-.15h-1.99c-.27 0-.5.22-.5.5v1.99h-.99v-1.99c0-.13-.05-.26-.15-.35s-.22-.15-.35-.15h-1v-1.49zm-5.97 6.47h.99v1.49c0 .13.05.26.15.35.09.09.22.15.35.15h1.49c.13 0 .26-.05.35-.15a.51.51 0 0 0 .15-.35v-1.49h.99v9.45H9.73v-9.45zm-.99 10.44h5.47v.5H8.74v-.5zm6.47-.49V23.26h.99v1.99c0 .13.05.26.15.35.09.09.22.15.35.15h1.99c.13 0 .26-.05.35-.15s.15-.22.15-.35v-1.99h.99v1.99c0 .13.05.26.15.35s.22.15.35.15h1.99c.13 0 .26-.05.35-.15a.51.51 0 0 0 .15-.35v-1.99h.99v1.99c0 .13.05.26.15.35.09.09.22.15.35.15h1.99c.13 0 .26-.05.35-.15a.51.51 0 0 0 .15-.35v-1.99h.99v14.92H15.21v-.99zm19.39.99h-5.47v-.5h5.47v.5z"/><path class="st0" d="M17.69 28.23a1.499 1.499 0 0 0-1.5 1.5v2.49c0 .13.05.26.15.35.09.09.22.15.35.15h1.99c.13 0 .26-.05.35-.15a.51.51 0 0 0 .15-.35v-2.49c0-.4-.16-.78-.44-1.06-.27-.28-.65-.44-1.05-.44zm.5 3.49h-.99v-1.99c0-.27.22-.5.5-.5.27 0 .5.22.5.5v1.99zM30.38 35.69h1.99c.13 0 .26-.05.35-.15a.51.51 0 0 0 .15-.35V32.7c0-.53-.28-1.03-.75-1.29-.46-.27-1.03-.27-1.49 0-.46.27-.75.76-.75 1.29v2.49c0 .13.05.26.15.35s.21.15.35.15zm.49-2.98c0-.27.22-.5.5-.5s.5.22.5.5v1.99h-.99v-1.99zM21.67 28.23a1.499 1.499 0 0 0-1.5 1.5v2.49c0 .13.05.26.15.35s.22.15.35.15h1.99c.13 0 .26-.05.35-.15a.51.51 0 0 0 .15-.35v-2.49c0-.4-.16-.78-.44-1.06-.27-.28-.65-.44-1.05-.44zm.5 3.49h-.99v-1.99c0-.27.22-.5.5-.5s.5.22.5.5v1.99zM11.97 31.22a1.499 1.499 0 0 0-1.5 1.5v2.49c0 .13.05.26.15.35.09.09.22.15.35.15h1.99c.13 0 .26-.05.35-.15a.51.51 0 0 0 .15-.35v-2.49c0-.4-.16-.78-.44-1.06-.27-.28-.65-.44-1.05-.44zm.5 3.48h-.99v-1.99c0-.27.22-.5.5-.5.27 0 .5.22.5.5v1.99zM25.65 28.23a1.499 1.499 0 0 0-1.5 1.5v2.49c0 .13.05.26.15.35s.22.15.35.15h1.99c.13 0 .26-.05.35-.15a.51.51 0 0 0 .15-.35v-2.49c0-.4-.16-.78-.44-1.06s-.65-.44-1.05-.44zm.5 3.49h-.99v-1.99c0-.27.22-.5.5-.5s.5.22.5.5v1.99z"/></svg>