<svg version="1.1" id="Layer_1" xmlns="http://www.w3.org/2000/svg" x="0" y="0" viewBox="0 0 45 45" style="enable-background:new 0 0 45 45" xml:space="preserve"><style>.st0{fill:#24a7d0}.st1{fill:#48639e}</style><path class="st1" d="M4.77 38.17h35.45v1H4.77z"/><path class="st1" d="m35.9 28.55-1.92-1.53v-7.83c.5-.12.87-.56.87-1.09s-.37-.97-.87-1.09v-1.79c0-.14-.11-.25-.25-.25h-1.44c-.14 0-.26.11-.26.25v.32h-.97c-.32-1.5-1.16-2.91-2.38-3.99s-2.7-1.7-4.2-1.76v-.96c0-.75-.6-1.35-1.34-1.35h-.38v-.61c0-.14-.12-.25-.26-.25s-.26.11-.26.25v.61h-.38c-.74 0-1.34.6-1.34 1.35v.96c-1.5.06-2.98.68-4.2 1.76-1.22 1.08-2.06 2.49-2.38 3.99h-.97v-.32c0-.14-.12-.25-.26-.25h-1.44c-.14 0-.25.11-.25.25v1.79c-.5.12-.87.56-.87 1.09s.37.97.87 1.09v7.83L9.1 28.55c-.06.05-.1.13-.1.2v9.79c0 .14.11.26.26.26h26.48c.15 0 .26-.12.26-.26v-9.79c0-.07-.04-.15-.1-.2zm-3.04 2.76c.5 0 .9.4.9.9v6.08h-1.79v-6.08c0-.5.4-.9.89-.9zm2.63 6.98h-1.22v-6.08c0-.78-.63-1.41-1.41-1.41-.77 0-1.4.63-1.4 1.41v6.08h-1.22v-9.28h5.25v9.28zm-5.76 0h-3.81v-9.28h3.81v9.28zm-4.53-.33.11.33h-5.62l.14-.42v-1.62l-.24.72v-7.96h5.82v7.96l-.21-.63v1.62zm-6.12.33h-3.81v-9.28h3.81v9.28zm-6.05 0h-1.79v-6.08a.894.894 0 1 1 1.79 0v6.08zm1.73 0h-1.22v-6.08c0-.78-.63-1.41-1.41-1.41-.77 0-1.4.63-1.4 1.41v6.08H9.51v-9.28h5.25v9.28zm-4.1-20.19c0-.34.27-.61.61-.61h22.46c.33 0 .61.27.61.61 0 .33-.28.61-.61.61H11.27c-.34 0-.61-.28-.61-.61zm18.43-1.12v-.93h2.94v.93h-2.94zm-.51-1.5v1.5h-.93v-1.5h.93zm-9.79 0v1.5h-.93v-1.5h.93zm6.91.57v.93h-6.4v-.93h6.4zm1.44-.57v1.5h-.93v-1.5h.93zm-.32-.52h-.87c-.14 0-.25.12-.25.26v.32h-6.4v-.32c0-.14-.11-.26-.26-.26h-.86c.24-1.87 1.14-3.44 2.68-4.67h3.28c1.54 1.23 2.44 2.8 2.68 4.67zm-2.85-5.82v.64h-2.94v-.64h2.94zm-7.55 6.34h.93v1.5h-.93v-1.5zm-3.45 1.5v-.93h2.94v.93h-2.94zm-.52-1.5v1.5h-.92v-1.5h.92zm20.09 0h.93v1.5h-.93v-1.5zM30.71 28.5l2.15-1.72 2.16 1.72h-4.31zm-4.96 0-2.46-1.79h8.85L29.9 28.5h-4.15zm-5.63 0 2.38-1.73 2.38 1.73h-4.76zm-5.02 0-2.24-1.79h8.85l-2.46 1.79H15.1zm2.76-9.03v-.25h.93v.25h.51v-.25h6.4v.25h.51v-.25h.93v6.97h-.93v-.24h-.51v.24h-6.4v-.24h-.51v.24h-.93v-.25h-.51v.25h-.93v-6.97h.93v.25h.51zm-4.89 0v-.25h2.94v6.98h-2.94v-.26h-.52v.25h-.32c-.05 0-.11.02-.16.06l-.44.36v-7.39h.92v.25h.52zm-.84 7.31 2.16 1.72H9.98l2.15-1.72zm16.96-7.31v-.25h2.94v.25h.51v-.25h.93v7.39l-.45-.36a.227.227 0 0 0-.16-.06h-.32v-.25h-.51v.25h-2.94v-.25h-.51v.25h-.93v-6.97h.93v.25h.51zm-.03-6.8a.61.61 0 0 1-1.12-.33c0-.21.1-.4.27-.51.31.26.59.54.85.84zm-1.26-1.16a1.118 1.118 0 1 0 1.59 1.57c.54.73.94 1.57 1.15 2.46h-1.45v-.32c0-.14-.12-.26-.26-.26h-1.49c-.22-1.81-1.01-3.36-2.36-4.61 1.01.14 1.97.55 2.82 1.16zm-5.94-3.52h1.28c.39 0 .72.27.81.64h-2.9c.09-.37.42-.64.81-.64zm-4.8 4.35a.61.61 0 0 1-1.12.33c.26-.3.54-.58.85-.84.16.11.27.3.27.51zm-1.45.74a1.118 1.118 0 1 0 1.59-1.57c.85-.61 1.81-1.02 2.81-1.16-1.34 1.25-2.13 2.8-2.35 4.61h-1.49c-.15 0-.26.12-.26.26v.32h-1.45c.21-.89.61-1.73 1.15-2.46z"/><path class="st1" d="M11.28 15.23v2h1.42v-2h-1.42zm.92 1.5h-.42v-1h.42v1zm.5 2.74v-.5h-1.42v8.16l.85-.69h.57v-.5h-.57a.51.51 0 0 0-.31.11l-.04.04v-6.62h.92zm-.57 6.99-.85.67-.01.01-2 1.61H15l-2.87-2.29zm0 .64 1.44 1.15H10.7l1.43-1.15zm.59-11.3v1.43h3.44V15.8h-3.44zm2.94.93h-2.44v-.43h2.44v.43zm-2.94 2.24v.5h2.94v6.48h-2.44v-.01h-.5v.51h3.44v-7.48h-3.44zm3.45-3.74v2h1.43v-2h-1.43zm.93 1.5h-.43v-1h.43v1zm.5 2.74v-.5h-1.43v7.47h1.43v-.5h-.93v-6.47h.93zm.01-4.24v2h1.43v-2h-1.43zm.93 1.5h-.43v-1h.43v1zm.25 9.22v.24h-.93v-.25h-.25v.5h1.43v-.49h-.25zm-1.18-6.98v.5h.25v-.25h.93v.25h.25v-.5h-1.43zm2.21 18.13h.01v-.03l-.01.03zm-7.67-10.64 2.87 2.29h4.31l3.15-2.29H12.15zm3.04 1.79-1.61-1.29h7.37l-1.78 1.29h-3.98zm5.59-19.36v1.14h3.44V8.89h-3.44zm3.19.64h-2.94v-.39h2.94v.39zM22.5 26.46l-3.15 2.29h6.3l-3.15-2.29zm0 .62 1.61 1.17h-3.22l1.61-1.17zm2.7 10.09v.87h-5.37v-.93h-.01l-.48 1.43h6.32l-.46-1.37zm-5.86-8.41v9.75l.49-1.48v-7.77h5.37v7.86l.46 1.39v-9.75h-6.32zm-.29-12.96v1.43h6.9V15.8h-6.9zm6.4.93h-5.9v-.43h5.9v.43zm-6.4 2.24v.5h6.9v-.5h-6.9zm0 6.98v.49h6.9v-.49h-6.9zm6.91-10.72v2h1.43v-2h-1.43zm.93 1.5h-.43v-1h.43v1zm-.93 2.24v.5h.93v6.47h-.36v.01h-.57v.49h1.43v-7.47h-1.43zm1.44-3.74v2h1.43v-2H27.4zm.93 1.5h-.43v-1h.43v1zm.5 2.74v-.5H27.4v7.47h1.43v-.5h-.93v-6.47h.93zm-3.16 9.29v9.78h4.31v-9.78h-4.31zm3.81 9.28h-3.31v-8.78h3.31v8.78zm-.64-22.24v1.43h3.44V15.8h-3.44zm2.94.93h-2.44v-.43h2.44v.43zm-2.94 9.21v.5h3.44v-.5h-3.44zm0-6.97v.5h3.44v-.5h-3.44zm-6.32 7.49 3.15 2.29h4.31l2.87-2.29H22.52zm3.31 1.79-1.78-1.29h7.37l-1.61 1.29h-3.98zm6.46-13.02v2h1.43v-2h-1.43zm.93 1.5h-.43v-1h.43v1zm-.93 2.24v.5h.93v6.62l-.04-.04a.517.517 0 0 0-.32-.11h-.57v.5h.57c.01 0 .01.01.01.01l.85.68v-8.16h-1.43zm.57 7.49h-.01L30 28.75h5.73l-2.87-2.29zm0 .64 1.44 1.15h-2.87l1.43-1.15zm-2.87 1.66v9.78h1.72v-6.33c0-.24.07-.46.2-.64-.12.18-.19.4-.19.64v6.33h2.29v-6.33c0-.23-.07-.45-.19-.64.13.18.2.4.2.64v6.33h1.72v-9.78h-5.75zm5.25 9.28h-.72v-5.83a1.656 1.656 0 1 0-3.31 0v5.83h-.72v-8.78h4.75v8.78zm-1.73 0h-1.29v-5.83c0-.36.29-.65.64-.65.36 0 .65.29.65.65v5.83zm-.65-6.98c-.32 0-.6.13-.81.34.2-.22.49-.35.81-.35s.62.13.82.35c-.21-.21-.5-.34-.82-.34zM20.78 8.89v1.14h3.44V8.89h-3.44zm3.19.64h-2.94v-.39h2.94v.39zm8.32 5.7v2h1.43v-2h-1.43zm.93 1.5h-.43v-1h.43v1zm-4.38-.93v1.43h3.44V15.8h-3.44zm2.94.93h-2.44v-.43h2.44v.43zm-4.38-1.5v2h1.43v-2H27.4zm.93 1.5h-.43v-1h.43v1zm-2.37-1.5v2h1.43v-2h-1.43zm.93 1.5h-.43v-1h.43v1zm-7.84-.93v1.43h6.9V15.8h-6.9zm6.4.93h-5.9v-.43h5.9v.43zm-7.84-1.5v2h1.43v-2h-1.43zm.93 1.5h-.43v-1h.43v1zm-2.37-1.5v2h1.43v-2h-1.43zm.93 1.5h-.43v-1h.43v1zm-4.38-.93v1.43h3.44V15.8h-3.44zm2.94.93h-2.44v-.43h2.44v.43zm-4.38-1.5v2h1.42v-2h-1.42zm.92 1.5h-.42v-1h.42v1zm17.79 12.03v9.78h1.72v-6.33c0-.24.07-.46.2-.64-.12.18-.19.4-.19.64v6.33h2.29v-6.33c0-.23-.07-.45-.19-.64.13.18.2.4.2.64v6.33h1.72v-9.78h-5.75zm5.25 9.28h-.72v-5.83a1.656 1.656 0 1 0-3.31 0v5.83h-.72v-8.78h4.75v8.78zm-1.73 0h-1.29v-5.83c0-.36.29-.65.64-.65.36 0 .65.29.65.65v5.83zm-.65-6.98c-.32 0-.6.13-.81.34.2-.22.49-.35.81-.35s.62.13.82.35c-.21-.21-.5-.34-.82-.34zm0-4.6h-.01L30 28.75h5.73l-2.87-2.29zm0 .64 1.44 1.15h-2.87l1.43-1.15zm-.57-8.13v.5h.93v6.62l-.04-.04a.517.517 0 0 0-.32-.11h-.57v.5h.57c.01 0 .01.01.01.01l.85.68v-8.16h-1.43zm-9.77 7.49 3.15 2.29h4.31l2.87-2.29H22.52zm3.31 1.79-1.78-1.29h7.37l-1.61 1.29h-3.98zm3.01-2.31v.5h3.44v-.5h-3.44zm0-6.97v.5h3.44v-.5h-3.44zm-3.17 9.79v9.78h4.31v-9.78h-4.31zm3.81 9.28h-3.31v-8.78h3.31v8.78zm-.65-18.57v-.5H27.4v7.47h1.43v-.5h-.93v-6.47h.93zm-2.87-.5v.5h.93v6.47h-.36v.01h-.57v.49h1.43v-7.47h-1.43zm-6.91 0v.5h6.9v-.5h-6.9zm0 6.98v.49h6.9v-.49h-6.9zm.29 2.81v9.75l.49-1.48v-7.77h5.37v7.86l.46 1.39v-9.75h-6.32zm5.86 8.41v.87h-5.37v-.93h-.01l-.48 1.43h6.32l-.46-1.37zm-2.7-10.71-3.15 2.29h6.3l-3.15-2.29zm0 .62 1.61 1.17h-3.22l1.61-1.17zm-10.35-.62 2.87 2.29h4.31l3.15-2.29H12.15zm3.04 1.79-1.61-1.29h7.37l-1.78 1.29h-3.98zm4.63 8.85h.01v-.03l-.01.03zm-1.03-11.15v.24h-.93v-.25h-.25v.5h1.43v-.49h-.25zm-1.18-6.98v.5h.25v-.25h.93v.25h.25v-.5h-1.43zm-.01.5v-.5h-1.43v7.47h1.43v-.5h-.93v-6.47h.93zm-4.88-.5v.5h2.94v6.48h-2.44v-.01h-.5v.51h3.44v-7.48h-3.44zm-.59 7.49-.85.67-.01.01-2 1.61H15l-2.87-2.29zm0 .64 1.44 1.15H10.7l1.43-1.15zm.57-7.63v-.5h-1.42v8.16l.85-.69h.57v-.5h-.57a.51.51 0 0 0-.31.11l-.04.04v-6.62h.92zm-1.42-4.24v2h1.42v-2h-1.42zm.92 1.5h-.42v-1h.42v1zm.5 2.74v-.5h-1.42v8.16l.85-.69h.57v-.5h-.57a.51.51 0 0 0-.31.11l-.04.04v-6.62h.92zm-.57 6.99-.85.67-.01.01-2 1.61H15l-2.87-2.29zm0 .64 1.44 1.15H10.7l1.43-1.15zm.59-11.3v1.43h3.44V15.8h-3.44zm2.94.93h-2.44v-.43h2.44v.43zm-2.94 2.24v.5h2.94v6.48h-2.44v-.01h-.5v.51h3.44v-7.48h-3.44zm3.45-3.74v2h1.43v-2h-1.43zm.93 1.5h-.43v-1h.43v1zm.5 2.74v-.5h-1.43v7.47h1.43v-.5h-.93v-6.47h.93zm.01-4.24v2h1.43v-2h-1.43zm.93 1.5h-.43v-1h.43v1zm.25 9.22v.24h-.93v-.25h-.25v.5h1.43v-.49h-.25zm-1.18-6.98v.5h.25v-.25h.93v.25h.25v-.5h-1.43zm2.21 18.13h.01v-.03l-.01.03zm-7.67-10.64 2.87 2.29h4.31l3.15-2.29H12.15zm3.04 1.79-1.61-1.29h7.37l-1.78 1.29h-3.98zm5.59-19.36v1.14h3.44V8.89h-3.44zm3.19.64h-2.94v-.39h2.94v.39zM22.5 26.46l-3.15 2.29h6.3l-3.15-2.29zm0 .62 1.61 1.17h-3.22l1.61-1.17zm-3.16 1.68v9.75l.49-1.48v-7.77h5.37v7.86l.46 1.39v-9.75h-6.32zm-.29-12.96v1.43h6.9V15.8h-6.9zm6.4.93h-5.9v-.43h5.9v.43zm-6.4 2.24v.5h6.9v-.5h-6.9zm0 6.98v.49h6.9v-.49h-6.9zm6.91-10.72v2h1.43v-2h-1.43zm.93 1.5h-.43v-1h.43v1zm-.93 2.24v.5h.93v6.47h-.36v.01h-.57v.49h1.43v-7.47h-1.43zm1.44-3.74v2h1.43v-2H27.4zm.93 1.5h-.43v-1h.43v1zm.5 2.74v-.5H27.4v7.47h1.43v-.5h-.93v-6.47h.93zm.01-3.67v1.43h3.44V15.8h-3.44zm2.94.93h-2.44v-.43h2.44v.43zm-2.94 9.21v.5h3.44v-.5h-3.44zm0-6.97v.5h3.44v-.5h-3.44zm-6.32 7.49 3.15 2.29h4.31l2.87-2.29H22.52zm3.31 1.79-1.78-1.29h7.37l-1.61 1.29h-3.98zm6.46-13.02v2h1.43v-2h-1.43zm.93 1.5h-.43v-1h.43v1zm-.93 2.24v.5h.93v6.62l-.04-.04a.517.517 0 0 0-.32-.11h-.57v.5h.57c.01 0 .01.01.01.01l.85.68v-8.16h-1.43zm.57 7.49h-.01L30 28.75h5.73l-2.87-2.29zm0 .64 1.44 1.15h-2.87l1.43-1.15zm-2.87 1.66v9.78h1.72v-6.33c0-.24.07-.46.2-.64-.12.18-.19.4-.19.64v6.33h2.29v-6.33c0-.23-.07-.45-.19-.64.13.18.2.4.2.64v6.33h1.72v-9.78h-5.75zm5.25 9.28h-.72v-5.83a1.656 1.656 0 1 0-3.31 0v5.83h-.72v-8.78h4.75v8.78zm-1.73 0h-1.29v-5.83c0-.36.29-.65.64-.65.36 0 .65.29.65.65v5.83zm-.65-6.98c-.32 0-.6.13-.81.34.2-.22.49-.35.81-.35s.62.13.82.35c-.21-.21-.5-.34-.82-.34zM20.78 8.89v1.14h3.44V8.89h-3.44zm3.19.64h-2.94v-.39h2.94v.39zm8.32 5.7v2h1.43v-2h-1.43zm.93 1.5h-.43v-1h.43v1zm-4.38-.93v1.43h3.44V15.8h-3.44zm2.94.93h-2.44v-.43h2.44v.43zm-4.38-1.5v2h1.43v-2H27.4zm.93 1.5h-.43v-1h.43v1zm-2.37-1.5v2h1.43v-2h-1.43zm.93 1.5h-.43v-1h.43v1zm-7.84-.93v1.43h6.9V15.8h-6.9zm6.4.93h-5.9v-.43h5.9v.43zm-7.84-1.5v2h1.43v-2h-1.43zm.93 1.5h-.43v-1h.43v1zm-2.37-1.5v2h1.43v-2h-1.43zm.93 1.5h-.43v-1h.43v1zm-4.38-.93v1.43h3.44V15.8h-3.44zm2.94.93h-2.44v-.43h2.44v.43zm-4.38-1.5v2h1.42v-2h-1.42zm.92 1.5h-.42v-1h.42v1zm17.79 12.03v9.78h1.72v-6.33c0-.24.07-.46.2-.64-.12.18-.19.4-.19.64v6.33h2.29v-6.33c0-.23-.07-.45-.19-.64.13.18.2.4.2.64v6.33h1.72v-9.78h-5.75zm5.25 9.28h-.72v-5.83a1.656 1.656 0 1 0-3.31 0v5.83h-.72v-8.78h4.75v8.78zm-1.73 0h-1.29v-5.83c0-.36.29-.65.64-.65.36 0 .65.29.65.65v5.83zm-.65-6.98c-.32 0-.6.13-.81.34.2-.22.49-.35.81-.35s.62.13.82.35c-.21-.21-.5-.34-.82-.34zm0-4.6h-.01L30 28.75h5.73l-2.87-2.29zm0 .64 1.44 1.15h-2.87l1.43-1.15zm-.57-8.13v.5h.93v6.62l-.04-.04a.517.517 0 0 0-.32-.11h-.57v.5h.57c.01 0 .01.01.01.01l.85.68v-8.16h-1.43zm-9.77 7.49 3.15 2.29h4.31l2.87-2.29H22.52zm3.31 1.79-1.78-1.29h7.37l-1.61 1.29h-3.98zm3.01-2.31v.5h3.44v-.5h-3.44zm0-6.97v.5h3.44v-.5h-3.44zm-.01.5v-.5H27.4v7.47h1.43v-.5h-.93v-6.47h.93zm-2.87-.5v.5h.93v6.47h-.36v.01h-.57v.49h1.43v-7.47h-1.43zm-6.91 0v.5h6.9v-.5h-6.9zm0 6.98v.49h6.9v-.49h-6.9zm.29 2.81v9.75l.49-1.48v-7.77h5.37v7.86l.46 1.39v-9.75h-6.32zm3.16-2.3-3.15 2.29h6.3l-3.15-2.29zm0 .62 1.61 1.17h-3.22l1.61-1.17zm-10.35-.62 2.87 2.29h4.31l3.15-2.29H12.15zm3.04 1.79-1.61-1.29h7.37l-1.78 1.29h-3.98zm4.63 8.85h.01v-.03l-.01.03zm-1.03-11.15v.24h-.93v-.25h-.25v.5h1.43v-.49h-.25zm-1.18-6.98v.5h.25v-.25h.93v.25h.25v-.5h-1.43zm-.01.5v-.5h-1.43v7.47h1.43v-.5h-.93v-6.47h.93zm-4.88-.5v.5h2.94v6.48h-2.44v-.01h-.5v.51h3.44v-7.48h-3.44zm-.59 7.49-.85.67-.01.01-2 1.61H15l-2.87-2.29zm0 .64 1.44 1.15H10.7l1.43-1.15zm.57-7.63v-.5h-1.42v8.16l.85-.69h.57v-.5h-.57a.51.51 0 0 0-.31.11l-.04.04v-6.62h.92zm-1.42-4.24v2h1.42v-2h-1.42zm.92 1.5h-.42v-1h.42v1zm.5 2.74v-.5h-1.42v8.16l.85-.69h.57v-.5h-.57a.51.51 0 0 0-.31.11l-.04.04v-6.62h.92zm-.57 6.99-.85.67-.01.01-2 1.61H15l-2.87-2.29zm0 .64 1.44 1.15H10.7l1.43-1.15zm.59-11.3v1.43h3.44V15.8h-3.44zm2.94.93h-2.44v-.43h2.44v.43zm-2.94 2.24v.5h2.94v6.48h-2.44v-.01h-.5v.51h3.44v-7.48h-3.44zm3.45-3.74v2h1.43v-2h-1.43zm.93 1.5h-.43v-1h.43v1zm.5 2.74v-.5h-1.43v7.47h1.43v-.5h-.93v-6.47h.93zm.01-4.24v2h1.43v-2h-1.43zm.93 1.5h-.43v-1h.43v1zm.25 9.22v.24h-.93v-.25h-.25v.5h1.43v-.49h-.25zm-1.18-6.98v.5h.25v-.25h.93v.25h.25v-.5h-1.43zm2.21 18.13h.01v-.03l-.01.03zm-7.67-10.64 2.87 2.29h4.31l3.15-2.29H12.15zm3.04 1.79-1.61-1.29h7.37l-1.78 1.29h-3.98zm5.59-19.36v1.14h3.44V8.89h-3.44zm3.19.64h-2.94v-.39h2.94v.39zM22.5 26.46l-3.15 2.29h6.3l-3.15-2.29zm0 .62 1.61 1.17h-3.22l1.61-1.17zm-3.16 1.68v9.75l.49-1.48v-7.77h5.37v7.86l.46 1.39v-9.75h-6.32zm-.29-12.96v1.43h6.9V15.8h-6.9zm6.4.93h-5.9v-.43h5.9v.43zm-6.4 2.24v.5h6.9v-.5h-6.9zm0 6.98v.49h6.9v-.49h-6.9zm6.91-10.72v2h1.43v-2h-1.43zm.93 1.5h-.43v-1h.43v1zm-.93 2.24v.5h.93v6.47h-.36v.01h-.57v.49h1.43v-7.47h-1.43zm1.44-3.74v2h1.43v-2H27.4zm.93 1.5h-.43v-1h.43v1zm.5 2.74v-.5H27.4v7.47h1.43v-.5h-.93v-6.47h.93zm.01-3.67v1.43h3.44V15.8h-3.44zm2.94.93h-2.44v-.43h2.44v.43zm-2.94 9.21v.5h3.44v-.5h-3.44zm0-6.97v.5h3.44v-.5h-3.44zm-6.32 7.49 3.15 2.29h4.31l2.87-2.29H22.52zm3.31 1.79-1.78-1.29h7.37l-1.61 1.29h-3.98zm6.46-13.02v2h1.43v-2h-1.43zm.93 1.5h-.43v-1h.43v1zm-.93 2.24v.5h.93v6.62l-.04-.04a.517.517 0 0 0-.32-.11h-.57v.5h.57c.01 0 .01.01.01.01l.85.68v-8.16h-1.43zm.57 7.49h-.01L30 28.75h5.73l-2.87-2.29zm0 .64 1.44 1.15h-2.87l1.43-1.15zM20.78 8.89v1.14h3.44V8.89h-3.44zm3.19.64h-2.94v-.39h2.94v.39zm8.32 5.7v2h1.43v-2h-1.43zm.93 1.5h-.43v-1h.43v1zm-4.38-.93v1.43h3.44V15.8h-3.44zm2.94.93h-2.44v-.43h2.44v.43zm-4.38-1.5v2h1.43v-2H27.4zm.93 1.5h-.43v-1h.43v1zm-2.37-1.5v2h1.43v-2h-1.43zm.93 1.5h-.43v-1h.43v1zm-7.84-.93v1.43h6.9V15.8h-6.9zm6.4.93h-5.9v-.43h5.9v.43zm-7.84-1.5v2h1.43v-2h-1.43zm.93 1.5h-.43v-1h.43v1zm-2.37-1.5v2h1.43v-2h-1.43zm.93 1.5h-.43v-1h.43v1zm-4.38-.93v1.43h3.44V15.8h-3.44zm2.94.93h-2.44v-.43h2.44v.43zm-4.38-1.5v2h1.42v-2h-1.42zm.92 1.5h-.42v-1h.42v1zm20.66 9.73h-.01L30 28.75h5.73l-2.87-2.29zm0 .64 1.44 1.15h-2.87l1.43-1.15zm-.57-8.13v.5h.93v6.62l-.04-.04a.517.517 0 0 0-.32-.11h-.57v.5h.57c.01 0 .01.01.01.01l.85.68v-8.16h-1.43zm-9.77 7.49 3.15 2.29h4.31l2.87-2.29H22.52zm3.31 1.79-1.78-1.29h7.37l-1.61 1.29h-3.98zm3.01-2.31v.5h3.44v-.5h-3.44zm0-6.97v.5h3.44v-.5h-3.44zm-.01.5v-.5H27.4v7.47h1.43v-.5h-.93v-6.47h.93zm-2.87-.5v.5h.93v6.47h-.36v.01h-.57v.49h1.43v-7.47h-1.43zm-6.91 6.98v.49h6.9v-.49h-6.9zm0-6.98v.5h6.9v-.5h-6.9zm.29 9.79v9.75l.49-1.48v-7.77h5.37v7.86l.46 1.39v-9.75h-6.32zm3.16-2.3-3.15 2.29h6.3l-3.15-2.29zm0 .62 1.61 1.17h-3.22l1.61-1.17zm-10.35-.62 2.87 2.29h4.31l3.15-2.29H12.15zm3.04 1.79-1.61-1.29h7.37l-1.78 1.29h-3.98zm4.63 8.85h.01v-.03l-.01.03zm-1.03-11.15v.24h-.93v-.25h-.25v.5h1.43v-.49h-.25zm-1.18-6.98v.5h.25v-.25h.93v.25h.25v-.5h-1.43zm-.01.5v-.5h-1.43v7.47h1.43v-.5h-.93v-6.47h.93zm-4.88-.5v.5h2.94v6.48h-2.44v-.01h-.5v.51h3.44v-7.48h-3.44zm-.59 7.49-.85.67-.01.01-2 1.61H15l-2.87-2.29zm0 .64 1.44 1.15H10.7l1.43-1.15zm.57-7.63v-.5h-1.42v8.16l.85-.69h.57v-.5h-.57a.51.51 0 0 0-.31.11l-.04.04v-6.62h.92zm-1.42-4.24v2h1.42v-2h-1.42zm.92 1.5h-.42v-1h.42v1zm.5 2.74v-.5h-1.42v8.16l.85-.69h.57v-.5h-.57a.51.51 0 0 0-.31.11l-.04.04v-6.62h.92zm-.57 6.99-.85.67-.01.01-2 1.61H15l-2.87-2.29zm0 .64 1.44 1.15H10.7l1.43-1.15zm.59-11.3v1.43h3.44V15.8h-3.44zm2.94.93h-2.44v-.43h2.44v.43zm-2.94 2.24v.5h2.94v6.48h-2.44v-.01h-.5v.51h3.44v-7.48h-3.44zm3.45-3.74v2h1.43v-2h-1.43zm.93 1.5h-.43v-1h.43v1zm.5 2.74v-.5h-1.43v7.47h1.43v-.5h-.93v-6.47h.93zm.01-4.24v2h1.43v-2h-1.43zm.93 1.5h-.43v-1h.43v1zm.25 9.22v.24h-.93v-.25h-.25v.5h1.43v-.49h-.25zm-1.18-6.98v.5h.25v-.25h.93v.25h.25v-.5h-1.43zm2.21 18.13h.01v-.03l-.01.03zm-7.67-10.64 2.87 2.29h4.31l3.15-2.29H12.15zm3.04 1.79-1.61-1.29h7.37l-1.78 1.29h-3.98zm5.59-19.36v1.14h3.44V8.89h-3.44zm3.19.64h-2.94v-.39h2.94v.39zM22.5 26.46l-3.15 2.29h6.3l-3.15-2.29zm0 .62 1.61 1.17h-3.22l1.61-1.17zm-3.16 1.68v9.75l.49-1.48v-7.77h5.37v7.86l.46 1.39v-9.75h-6.32zm-.29-9.79v.5h6.9v-.5h-6.9zm0-3.17v1.43h6.9V15.8h-6.9zm6.4.93h-5.9v-.43h5.9v.43zm-6.4 9.22v.49h6.9v-.49h-6.9zm6.91-10.72v2h1.43v-2h-1.43zm.93 1.5h-.43v-1h.43v1zm-.93 2.24v.5h.93v6.47h-.36v.01h-.57v.49h1.43v-7.47h-1.43zm1.44-3.74v2h1.43v-2H27.4zm.93 1.5h-.43v-1h.43v1zm.5 2.74v-.5H27.4v7.47h1.43v-.5h-.93v-6.47h.93zm.01-3.67v1.43h3.44V15.8h-3.44zm2.94.93h-2.44v-.43h2.44v.43zm-2.94 9.21v.5h3.44v-.5h-3.44zm0-6.97v.5h3.44v-.5h-3.44zm-6.32 7.49 3.15 2.29h4.31l2.87-2.29H22.52zm3.31 1.79-1.78-1.29h7.37l-1.61 1.29h-3.98zm6.46-13.02v2h1.43v-2h-1.43zm.93 1.5h-.43v-1h.43v1zm-.93 2.24v.5h.93v6.62l-.04-.04a.517.517 0 0 0-.32-.11h-.57v.5h.57c.01 0 .01.01.01.01l.85.68v-8.16h-1.43zm.57 7.49h-.01L30 28.75h5.73l-2.87-2.29zm0 .64 1.44 1.15h-2.87l1.43-1.15zM20.78 8.89v1.14h3.44V8.89h-3.44zm3.19.64h-2.94v-.39h2.94v.39zm8.32 5.7v2h1.43v-2h-1.43zm.93 1.5h-.43v-1h.43v1zm-4.38-.93v1.43h3.44V15.8h-3.44zm2.94.93h-2.44v-.43h2.44v.43zm-4.38-1.5v2h1.43v-2H27.4zm.93 1.5h-.43v-1h.43v1zm-2.37-1.5v2h1.43v-2h-1.43zm.93 1.5h-.43v-1h.43v1zm-7.84-.93v1.43h6.9V15.8h-6.9zm6.4.93h-5.9v-.43h5.9v.43zm-7.84-1.5v2h1.43v-2h-1.43zm.93 1.5h-.43v-1h.43v1zm-2.37-1.5v2h1.43v-2h-1.43zm.93 1.5h-.43v-1h.43v1zm-4.38-.93v1.43h3.44V15.8h-3.44zm2.94.93h-2.44v-.43h2.44v.43zm-4.38-1.5v2h1.42v-2h-1.42zm.92 1.5h-.42v-1h.42v1zm20.66 9.73h-.01L30 28.75h5.73l-2.87-2.29zm0 .64 1.44 1.15h-2.87l1.43-1.15zm-.57-8.13v.5h.93v6.62l-.04-.04a.517.517 0 0 0-.32-.11h-.57v.5h.57c.01 0 .01.01.01.01l.85.68v-8.16h-1.43zm-9.77 7.49 3.15 2.29h4.31l2.87-2.29H22.52zm3.31 1.79-1.78-1.29h7.37l-1.61 1.29h-3.98zm3.01-2.31v.5h3.44v-.5h-3.44zm0-6.97v.5h3.44v-.5h-3.44zm-.01.5v-.5H27.4v7.47h1.43v-.5h-.93v-6.47h.93zm-2.87-.5v.5h.93v6.47h-.36v.01h-.57v.49h1.43v-7.47h-1.43zm-6.91 6.98v.49h6.9v-.49h-6.9zm0-6.98v.5h6.9v-.5h-6.9zm.29 9.79v9.75l.49-1.48v-7.77h5.37v7.86l.46 1.39v-9.75h-6.32zm3.16-2.3-3.15 2.29h6.3l-3.15-2.29zm0 .62 1.61 1.17h-3.22l1.61-1.17zm-10.35-.62 2.87 2.29h4.31l3.15-2.29H12.15zm3.04 1.79-1.61-1.29h7.37l-1.78 1.29h-3.98zm4.63 8.85h.01v-.03l-.01.03zm-1.03-11.15v.24h-.93v-.25h-.25v.5h1.43v-.49h-.25zm-1.18-6.98v.5h.25v-.25h.93v.25h.25v-.5h-1.43zm-.01.5v-.5h-1.43v7.47h1.43v-.5h-.93v-6.47h.93zm-4.88-.5v.5h2.94v6.48h-2.44v-.01h-.5v.51h3.44v-7.48h-3.44zm-.59 7.49-.85.67-.01.01-2 1.61H15l-2.87-2.29zm0 .64 1.44 1.15H10.7l1.43-1.15zm.57-7.63v-.5h-1.42v8.16l.85-.69h.57v-.5h-.57a.51.51 0 0 0-.31.11l-.04.04v-6.62h.92zm-1.42-4.24v2h1.42v-2h-1.42zm.92 1.5h-.42v-1h.42v1zm.5 2.74v-.5h-1.42v8.16l.85-.69h.57v-.5h-.57a.51.51 0 0 0-.31.11l-.04.04v-6.62h.92zm-.57 6.99-.85.67-.01.01-2 1.61H15l-2.87-2.29zm0 .64 1.44 1.15H10.7l1.43-1.15zm.59-11.3v1.43h3.44V15.8h-3.44zm2.94.93h-2.44v-.43h2.44v.43zm-2.94 2.24v.5h2.94v6.48h-2.44v-.01h-.5v.51h3.44v-7.48h-3.44zm3.45-3.74v2h1.43v-2h-1.43zm.93 1.5h-.43v-1h.43v1zm.5 2.74v-.5h-1.43v7.47h1.43v-.5h-.93v-6.47h.93zm.01-4.24v2h1.43v-2h-1.43zm.93 1.5h-.43v-1h.43v1zm.25 9.22v.24h-.93v-.25h-.25v.5h1.43v-.49h-.25zm-1.18-6.98v.5h.25v-.25h.93v.25h.25v-.5h-1.43zm2.21 18.13h.01v-.03l-.01.03zm-7.67-10.64 2.87 2.29h4.31l3.15-2.29H12.15zm3.04 1.79-1.61-1.29h7.37l-1.78 1.29h-3.98zm5.59-19.36v1.14h3.44V8.89h-3.44zm3.19.64h-2.94v-.39h2.94v.39zM22.5 26.46l-3.15 2.29h6.3l-3.15-2.29zm0 .62 1.61 1.17h-3.22l1.61-1.17zm-3.16 1.68v9.75l.49-1.48v-7.77h5.37v7.86l.46 1.39v-9.75h-6.32zm-.29-9.79v.5h6.9v-.5h-6.9zm0-3.17v1.43h6.9V15.8h-6.9zm6.4.93h-5.9v-.43h5.9v.43zm-6.4 9.22v.49h6.9v-.49h-6.9zm6.91-10.72v2h1.43v-2h-1.43zm.93 1.5h-.43v-1h.43v1zm-.93 2.24v.5h.93v6.47h-.36v.01h-.57v.49h1.43v-7.47h-1.43zm1.44-3.74v2h1.43v-2H27.4zm.93 1.5h-.43v-1h.43v1zm.5 2.74v-.5H27.4v7.47h1.43v-.5h-.93v-6.47h.93zm.01-3.67v1.43h3.44V15.8h-3.44zm2.94.93h-2.44v-.43h2.44v.43zm-2.94 9.21v.5h3.44v-.5h-3.44zm0-6.97v.5h3.44v-.5h-3.44zm-6.32 7.49 3.15 2.29h4.31l2.87-2.29H22.52zm3.31 1.79-1.78-1.29h7.37l-1.61 1.29h-3.98zm6.46-13.02v2h1.43v-2h-1.43zm.93 1.5h-.43v-1h.43v1zm-.93 2.24v.5h.93v6.62l-.04-.04a.517.517 0 0 0-.32-.11h-.57v.5h.57c.01 0 .01.01.01.01l.85.68v-8.16h-1.43zm.57 7.49h-.01L30 28.75h5.73l-2.87-2.29zm0 .64 1.44 1.15h-2.87l1.43-1.15zM20.78 8.89v1.14h3.44V8.89h-3.44zm3.19.64h-2.94v-.39h2.94v.39zm8.32 5.7v2h1.43v-2h-1.43zm.93 1.5h-.43v-1h.43v1zm-4.38-.93v1.43h3.44V15.8h-3.44zm2.94.93h-2.44v-.43h2.44v.43zm-4.38-1.5v2h1.43v-2H27.4zm.93 1.5h-.43v-1h.43v1zm-2.37-1.5v2h1.43v-2h-1.43zm.93 1.5h-.43v-1h.43v1zm-7.84-.93v1.43h6.9V15.8h-6.9zm6.4.93h-5.9v-.43h5.9v.43zm-7.84-1.5v2h1.43v-2h-1.43zm.93 1.5h-.43v-1h.43v1zm-2.37-1.5v2h1.43v-2h-1.43zm.93 1.5h-.43v-1h.43v1zm-4.38-.93v1.43h3.44V15.8h-3.44zm2.94.93h-2.44v-.43h2.44v.43zm-4.38-1.5v2h1.42v-2h-1.42zm.92 1.5h-.42v-1h.42v1zm20.66 9.73h-.01L30 28.75h5.73l-2.87-2.29zm0 .64 1.44 1.15h-2.87l1.43-1.15zm-.57-8.13v.5h.93v6.62l-.04-.04a.517.517 0 0 0-.32-.11h-.57v.5h.57c.01 0 .01.01.01.01l.85.68v-8.16h-1.43zm-9.77 7.49 3.15 2.29h4.31l2.87-2.29H22.52zm3.31 1.79-1.78-1.29h7.37l-1.61 1.29h-3.98zm3.01-2.31v.5h3.44v-.5h-3.44zm0-6.97v.5h3.44v-.5h-3.44zm-.01.5v-.5H27.4v7.47h1.43v-.5h-.93v-6.47h.93zm-2.87-.5v.5h.93v6.47h-.36v.01h-.57v.49h1.43v-7.47h-1.43zm-6.91 6.98v.49h6.9v-.49h-6.9zm0-6.98v.5h6.9v-.5h-6.9zm.29 9.79v9.75l.49-1.48v-7.77h5.37v7.86l.46 1.39v-9.75h-6.32zm3.16-2.3-3.15 2.29h6.3l-3.15-2.29zm0 .62 1.61 1.17h-3.22l1.61-1.17zm-10.35-.62 2.87 2.29h4.31l3.15-2.29H12.15zm3.04 1.79-1.61-1.29h7.37l-1.78 1.29h-3.98zm4.63 8.85h.01v-.03l-.01.03zm-1.03-11.15v.24h-.93v-.25h-.25v.5h1.43v-.49h-.25zm-1.18-6.98v.5h.25v-.25h.93v.25h.25v-.5h-1.43zm-.01.5v-.5h-1.43v7.47h1.43v-.5h-.93v-6.47h.93zm-4.88-.5v.5h2.94v6.48h-2.44v-.01h-.5v.51h3.44v-7.48h-3.44zm-.59 7.49-.85.67-.01.01-2 1.61H15l-2.87-2.29zm0 .64 1.44 1.15H10.7l1.43-1.15zm.57-7.63v-.5h-1.42v8.16l.85-.69h.57v-.5h-.57a.51.51 0 0 0-.31.11l-.04.04v-6.62h.92zm-1.42-4.24v2h1.42v-2h-1.42zm.92 1.5h-.42v-1h.42v1zm.5 2.74v-.5h-1.42v8.16l.85-.69h.57v-.5h-.57a.51.51 0 0 0-.31.11l-.04.04v-6.62h.92zm-.57 6.99-.85.67-.01.01-2 1.61H15l-2.87-2.29zm0 .64 1.44 1.15H10.7l1.43-1.15zm.59-11.3v1.43h3.44V15.8h-3.44zm2.94.93h-2.44v-.43h2.44v.43zm-2.94 2.24v.5h2.94v6.48h-2.44v-.01h-.5v.51h3.44v-7.48h-3.44zm3.45-3.74v2h1.43v-2h-1.43zm.93 1.5h-.43v-1h.43v1zm.5 2.74v-.5h-1.43v7.47h1.43v-.5h-.93v-6.47h.93zm.01-4.24v2h1.43v-2h-1.43zm.93 1.5h-.43v-1h.43v1zm.25 9.22v.24h-.93v-.25h-.25v.5h1.43v-.49h-.25zm-1.18-6.98v.5h.25v-.25h.93v.25h.25v-.5h-1.43zm2.21 18.13h.01v-.03l-.01.03zm-7.67-10.64 2.87 2.29h4.31l3.15-2.29H12.15zm3.04 1.79-1.61-1.29h7.37l-1.78 1.29h-3.98zm5.59-19.36v1.14h3.44V8.89h-3.44zm3.19.64h-2.94v-.39h2.94v.39zM22.5 26.46l-3.15 2.29h6.3l-3.15-2.29zm0 .62 1.61 1.17h-3.22l1.61-1.17zm-3.16 1.68v9.75l.49-1.48v-7.77h5.37v7.86l.46 1.39v-9.75h-6.32zm-.29-9.79v.5h6.9v-.5h-6.9zm0-3.17v1.43h6.9V15.8h-6.9zm6.4.93h-5.9v-.43h5.9v.43zm-6.4 9.22v.49h6.9v-.49h-6.9zm6.91-10.72v2h1.43v-2h-1.43zm.93 1.5h-.43v-1h.43v1zm-.93 2.24v.5h.93v6.47h-.36v.01h-.57v.49h1.43v-7.47h-1.43zm1.44-3.74v2h1.43v-2H27.4zm.93 1.5h-.43v-1h.43v1zm.5 2.74v-.5H27.4v7.47h1.43v-.5h-.93v-6.47h.93zm.01-3.67v1.43h3.44V15.8h-3.44zm2.94.93h-2.44v-.43h2.44v.43zm-2.94 9.21v.5h3.44v-.5h-3.44zm0-6.97v.5h3.44v-.5h-3.44zm-6.32 7.49 3.15 2.29h4.31l2.87-2.29H22.52zm3.31 1.79-1.78-1.29h7.37l-1.61 1.29h-3.98zm6.46-13.02v2h1.43v-2h-1.43zm.93 1.5h-.43v-1h.43v1zm-.93 2.24v.5h.93v6.62l-.04-.04a.517.517 0 0 0-.32-.11h-.57v.5h.57c.01 0 .01.01.01.01l.85.68v-8.16h-1.43zm.57 7.49h-.01L30 28.75h5.73l-2.87-2.29zm0 .64 1.44 1.15h-2.87l1.43-1.15zM20.78 8.89v1.14h3.44V8.89h-3.44zm3.19.64h-2.94v-.39h2.94v.39zm8.32 5.7v2h1.43v-2h-1.43zm.93 1.5h-.43v-1h.43v1zm-4.38-.93v1.43h3.44V15.8h-3.44zm2.94.93h-2.44v-.43h2.44v.43zm-4.38-1.5v2h1.43v-2H27.4zm.93 1.5h-.43v-1h.43v1zm-2.37-1.5v2h1.43v-2h-1.43zm.93 1.5h-.43v-1h.43v1zm-7.84-.93v1.43h6.9V15.8h-6.9zm6.4.93h-5.9v-.43h5.9v.43zm-7.84-1.5v2h1.43v-2h-1.43zm.93 1.5h-.43v-1h.43v1zm-2.37-1.5v2h1.43v-2h-1.43zm.93 1.5h-.43v-1h.43v1zm-4.38-.93v1.43h3.44V15.8h-3.44zm2.94.93h-2.44v-.43h2.44v.43zm-4.38-1.5v2h1.42v-2h-1.42zm.92 1.5h-.42v-1h.42v1zm20.66 9.73h-.01L30 28.75h5.73l-2.87-2.29zm0 .64 1.44 1.15h-2.87l1.43-1.15zm-.57-8.13v.5h.93v6.62l-.04-.04a.517.517 0 0 0-.32-.11h-.57v.5h.57c.01 0 .01.01.01.01l.85.68v-8.16h-1.43zm-9.77 7.49 3.15 2.29h4.31l2.87-2.29H22.52zm3.31 1.79-1.78-1.29h7.37l-1.61 1.29h-3.98zm3.01-2.31v.5h3.44v-.5h-3.44zm0-6.97v.5h3.44v-.5h-3.44zm-.01.5v-.5H27.4v7.47h1.43v-.5h-.93v-6.47h.93zm-2.87-.5v.5h.93v6.47h-.36v.01h-.57v.49h1.43v-7.47h-1.43zm-6.91 6.98v.49h6.9v-.49h-6.9zm0-6.98v.5h6.9v-.5h-6.9zm.29 9.79v9.75l.49-1.48v-7.77h5.37v7.86l.46 1.39v-9.75h-6.32zm3.16-2.3-3.15 2.29h6.3l-3.15-2.29zm0 .62 1.61 1.17h-3.22l1.61-1.17zm-10.35-.62 2.87 2.29h4.31l3.15-2.29H12.15zm3.04 1.79-1.61-1.29h7.37l-1.78 1.29h-3.98zm4.63 8.85h.01v-.03l-.01.03zm-1.03-11.15v.24h-.93v-.25h-.25v.5h1.43v-.49h-.25zm-1.18-6.98v.5h.25v-.25h.93v.25h.25v-.5h-1.43zm-.01.5v-.5h-1.43v7.47h1.43v-.5h-.93v-6.47h.93zm-4.88-.5v.5h2.94v6.48h-2.44v-.01h-.5v.51h3.44v-7.48h-3.44zm-.59 7.49-.85.67-.01.01-2 1.61H15l-2.87-2.29zm0 .64 1.44 1.15H10.7l1.43-1.15zm.57-7.63v-.5h-1.42v8.16l.85-.69h.57v-.5h-.57a.51.51 0 0 0-.31.11l-.04.04v-6.62h.92zm-1.42-4.24v2h1.42v-2h-1.42zm.92 1.5h-.42v-1h.42v1zm.5 2.74v-.5h-1.42v8.16l.85-.69h.57v-.5h-.57a.51.51 0 0 0-.31.11l-.04.04v-6.62h.92zm-.57 6.99-.85.67-.01.01-2 1.61H15l-2.87-2.29zm0 .64 1.44 1.15H10.7l1.43-1.15zm.59-11.3v1.43h3.44V15.8h-3.44zm2.94.93h-2.44v-.43h2.44v.43zm-2.94 2.24v.5h2.94v6.48h-2.44v-.01h-.5v.51h3.44v-7.48h-3.44zm3.45-3.74v2h1.43v-2h-1.43zm.93 1.5h-.43v-1h.43v1zm.5 2.74v-.5h-1.43v7.47h1.43v-.5h-.93v-6.47h.93zm.01-4.24v2h1.43v-2h-1.43zm.93 1.5h-.43v-1h.43v1zm.25 9.22v.24h-.93v-.25h-.25v.5h1.43v-.49h-.25zm-1.18-6.98v.5h.25v-.25h.93v.25h.25v-.5h-1.43zm2.21 18.13h.01v-.03l-.01.03zm-7.67-10.64 2.87 2.29h4.31l3.15-2.29H12.15zm3.04 1.79-1.61-1.29h7.37l-1.78 1.29h-3.98zm5.59-19.36v1.14h3.44V8.89h-3.44zm3.19.64h-2.94v-.39h2.94v.39zM22.5 26.46l-3.15 2.29h6.3l-3.15-2.29zm0 .62 1.61 1.17h-3.22l1.61-1.17zm-3.16 1.68v9.75l.49-1.48v-7.77h5.37v7.86l.46 1.39v-9.75h-6.32zm-.29-9.79v.5h6.9v-.5h-6.9zm0-3.17v1.43h6.9V15.8h-6.9zm6.4.93h-5.9v-.43h5.9v.43zm-6.4 9.22v.49h6.9v-.49h-6.9zm6.91-10.72v2h1.43v-2h-1.43zm.93 1.5h-.43v-1h.43v1zm-.93 2.24v.5h.93v6.47h-.36v.01h-.57v.49h1.43v-7.47h-1.43zm1.44-3.74v2h1.43v-2H27.4zm.93 1.5h-.43v-1h.43v1zm.5 2.74v-.5H27.4v7.47h1.43v-.5h-.93v-6.47h.93zm.01-3.67v1.43h3.44V15.8h-3.44zm2.94.93h-2.44v-.43h2.44v.43zm-2.94 9.21v.5h3.44v-.5h-3.44zm0-6.97v.5h3.44v-.5h-3.44zm-6.32 7.49 3.15 2.29h4.31l2.87-2.29H22.52zm3.31 1.79-1.78-1.29h7.37l-1.61 1.29h-3.98zm6.46-13.02v2h1.43v-2h-1.43zm.93 1.5h-.43v-1h.43v1zm-.93 2.24v.5h.93v6.62l-.04-.04a.517.517 0 0 0-.32-.11h-.57v.5h.57c.01 0 .01.01.01.01l.85.68v-8.16h-1.43zm.57 7.49h-.01L30 28.75h5.73l-2.87-2.29zm0 .64 1.44 1.15h-2.87l1.43-1.15zM20.78 8.89v1.14h3.44V8.89h-3.44zm3.19.64h-2.94v-.39h2.94v.39zm8.32 5.7v2h1.43v-2h-1.43zm.93 1.5h-.43v-1h.43v1zm-4.38-.93v1.43h3.44V15.8h-3.44zm2.94.93h-2.44v-.43h2.44v.43zm-4.38-1.5v2h1.43v-2H27.4zm.93 1.5h-.43v-1h.43v1zm-2.37-1.5v2h1.43v-2h-1.43zm.93 1.5h-.43v-1h.43v1zm-7.84-.93v1.43h6.9V15.8h-6.9zm6.4.93h-5.9v-.43h5.9v.43zm-7.84-1.5v2h1.43v-2h-1.43zm.93 1.5h-.43v-1h.43v1zm-2.37-1.5v2h1.43v-2h-1.43zm.93 1.5h-.43v-1h.43v1zm-4.38-.93v1.43h3.44V15.8h-3.44zm2.94.93h-2.44v-.43h2.44v.43zm-4.38-1.5v2h1.42v-2h-1.42zm.92 1.5h-.42v-1h.42v1zm20.66 9.73h-.01L30 28.75h5.73l-2.87-2.29zm0 .64 1.44 1.15h-2.87l1.43-1.15zm-.57-8.13v.5h.93v6.62l-.04-.04a.517.517 0 0 0-.32-.11h-.57v.5h.57c.01 0 .01.01.01.01l.85.68v-8.16h-1.43zm-9.77 7.49 3.15 2.29h4.31l2.87-2.29H22.52zm3.31 1.79-1.78-1.29h7.37l-1.61 1.29h-3.98zm3.01-2.31v.5h3.44v-.5h-3.44zm0-6.97v.5h3.44v-.5h-3.44zm-.01.5v-.5H27.4v7.47h1.43v-.5h-.93v-6.47h.93zm-2.87-.5v.5h.93v6.47h-.36v.01h-.57v.49h1.43v-7.47h-1.43zm-6.91 6.98v.49h6.9v-.49h-6.9zm0-6.98v.5h6.9v-.5h-6.9zm.29 9.79v9.75l.49-1.48v-7.77h5.37v7.86l.46 1.39v-9.75h-6.32zm3.16-2.3-3.15 2.29h6.3l-3.15-2.29zm0 .62 1.61 1.17h-3.22l1.61-1.17zm-10.35-.62 2.87 2.29h4.31l3.15-2.29H12.15zm3.04 1.79-1.61-1.29h7.37l-1.78 1.29h-3.98zm4.63 8.85h.01v-.03l-.01.03zm-1.03-11.15v.24h-.93v-.25h-.25v.5h1.43v-.49h-.25zm-1.18-6.98v.5h.25v-.25h.93v.25h.25v-.5h-1.43zm-.01.5v-.5h-1.43v7.47h1.43v-.5h-.93v-6.47h.93zm-4.88-.5v.5h2.94v6.48h-2.44v-.01h-.5v.51h3.44v-7.48h-3.44zm-.59 7.49-.85.67-.01.01-2 1.61H15l-2.87-2.29zm0 .64 1.44 1.15H10.7l1.43-1.15zm.57-7.63v-.5h-1.42v8.16l.85-.69h.57v-.5h-.57a.51.51 0 0 0-.31.11l-.04.04v-6.62h.92zm-1.42-4.24v2h1.42v-2h-1.42zm.92 1.5h-.42v-1h.42v1zm.5 2.74v-.5h-1.42v8.16l.85-.69h.57v-.5h-.57a.51.51 0 0 0-.31.11l-.04.04v-6.62h.92zm-.57 6.99-.85.67-.01.01-2 1.61H15l-2.87-2.29zm0 .64 1.44 1.15H10.7l1.43-1.15zm.59-11.3v1.43h3.44V15.8h-3.44zm2.94.93h-2.44v-.43h2.44v.43zm-2.94 2.24v.5h2.94v6.48h-2.44v-.01h-.5v.51h3.44v-7.48h-3.44zm3.45-3.74v2h1.43v-2h-1.43zm.93 1.5h-.43v-1h.43v1zm.5 2.74v-.5h-1.43v7.47h1.43v-.5h-.93v-6.47h.93zm.01-4.24v2h1.43v-2h-1.43zm.93 1.5h-.43v-1h.43v1zm.25 9.22v.24h-.93v-.25h-.25v.5h1.43v-.49h-.25zm-1.18-6.98v.5h.25v-.25h.93v.25h.25v-.5h-1.43zm2.21 18.13h.01v-.03l-.01.03zm-7.67-10.64 2.87 2.29h4.31l3.15-2.29H12.15zm3.04 1.79-1.61-1.29h7.37l-1.78 1.29h-3.98zm5.59-19.36v1.14h3.44V8.89h-3.44zm3.19.64h-2.94v-.39h2.94v.39zM22.5 26.46l-3.15 2.29h6.3l-3.15-2.29zm0 .62 1.61 1.17h-3.22l1.61-1.17zm-3.16 1.68v9.75l.49-1.48v-7.77h5.37v7.86l.46 1.39v-9.75h-6.32zm-.29-9.79v.5h6.9v-.5h-6.9zm0-3.17v1.43h6.9V15.8h-6.9zm6.4.93h-5.9v-.43h5.9v.43zm-6.4 9.22v.49h6.9v-.49h-6.9zm6.91-10.72v2h1.43v-2h-1.43zm.93 1.5h-.43v-1h.43v1zm-.93 2.24v.5h.93v6.47h-.36v.01h-.57v.49h1.43v-7.47h-1.43zm1.44-3.74v2h1.43v-2H27.4zm.93 1.5h-.43v-1h.43v1zm.5 2.74v-.5H27.4v7.47h1.43v-.5h-.93v-6.47h.93zm.01-3.67v1.43h3.44V15.8h-3.44zm2.94.93h-2.44v-.43h2.44v.43zm-2.94 9.21v.5h3.44v-.5h-3.44zm0-6.97v.5h3.44v-.5h-3.44zm-6.32 7.49 3.15 2.29h4.31l2.87-2.29H22.52zm3.31 1.79-1.78-1.29h7.37l-1.61 1.29h-3.98zm6.46-13.02v2h1.43v-2h-1.43zm.93 1.5h-.43v-1h.43v1zm-.93 2.24v.5h.93v6.62l-.04-.04a.517.517 0 0 0-.32-.11h-.57v.5h.57c.01 0 .01.01.01.01l.85.68v-8.16h-1.43zm.57 7.49h-.01L30 28.75h5.73l-2.87-2.29zm0 .64 1.44 1.15h-2.87l1.43-1.15zM20.78 8.89v1.14h3.44V8.89h-3.44zm3.19.64h-2.94v-.39h2.94v.39zm8.32 5.7v2h1.43v-2h-1.43zm.93 1.5h-.43v-1h.43v1zm-4.38-.93v1.43h3.44V15.8h-3.44zm2.94.93h-2.44v-.43h2.44v.43zm-4.38-1.5v2h1.43v-2H27.4zm.93 1.5h-.43v-1h.43v1zm-2.37-1.5v2h1.43v-2h-1.43zm.93 1.5h-.43v-1h.43v1zm-7.84-.93v1.43h6.9V15.8h-6.9zm6.4.93h-5.9v-.43h5.9v.43zm-7.84-1.5v2h1.43v-2h-1.43zm.93 1.5h-.43v-1h.43v1zm-2.37-1.5v2h1.43v-2h-1.43zm.93 1.5h-.43v-1h.43v1zm-4.38-.93v1.43h3.44V15.8h-3.44zm2.94.93h-2.44v-.43h2.44v.43zm-4.38-1.5v2h1.42v-2h-1.42zm.92 1.5h-.42v-1h.42v1zm20.66 9.73h-.01L30 28.75h5.73l-2.87-2.29zm0 .64 1.44 1.15h-2.87l1.43-1.15zm-.57-8.13v.5h.93v6.62l-.04-.04a.517.517 0 0 0-.32-.11h-.57v.5h.57c.01 0 .01.01.01.01l.85.68v-8.16h-1.43zm-9.77 7.49 3.15 2.29h4.31l2.87-2.29H22.52zm3.31 1.79-1.78-1.29h7.37l-1.61 1.29h-3.98zm3.01-2.31v.5h3.44v-.5h-3.44zm0-6.97v.5h3.44v-.5h-3.44zm-.01.5v-.5H27.4v7.47h1.43v-.5h-.93v-6.47h.93zm-2.87-.5v.5h.93v6.47h-.36v.01h-.57v.49h1.43v-7.47h-1.43zm-6.91 6.98v.49h6.9v-.49h-6.9zm0-6.98v.5h6.9v-.5h-6.9zm.29 9.79v9.75l.49-1.48v-7.77h5.37v7.86l.46 1.39v-9.75h-6.32zm3.16-2.3-3.15 2.29h6.3l-3.15-2.29zm0 .62 1.61 1.17h-3.22l1.61-1.17zm-10.35-.62 2.87 2.29h4.31l3.15-2.29H12.15zm3.04 1.79-1.61-1.29h7.37l-1.78 1.29h-3.98zm4.63 8.85h.01v-.03l-.01.03zm-1.03-11.15v.24h-.93v-.25h-.25v.5h1.43v-.49h-.25zm-1.18-6.98v.5h.25v-.25h.93v.25h.25v-.5h-1.43zm-.01.5v-.5h-1.43v7.47h1.43v-.5h-.93v-6.47h.93zm-4.88-.5v.5h2.94v6.48h-2.44v-.01h-.5v.51h3.44v-7.48h-3.44zm-.59 7.49-.85.67-.01.01-2 1.61H15l-2.87-2.29zm0 .64 1.44 1.15H10.7l1.43-1.15zm.57-7.63v-.5h-1.42v8.16l.85-.69h.57v-.5h-.57a.51.51 0 0 0-.31.11l-.04.04v-6.62h.92zm-1.42-4.24v2h1.42v-2h-1.42zm.92 1.5h-.42v-1h.42v1zm.5 2.74v-.5h-1.42v8.16l.85-.69h.57v-.5h-.57a.51.51 0 0 0-.31.11l-.04.04v-6.62h.92zm-.57 6.99-.85.67-.01.01-2 1.61H15l-2.87-2.29zm0 .64 1.44 1.15H10.7l1.43-1.15zm.59-11.3v1.43h3.44V15.8h-3.44zm2.94.93h-2.44v-.43h2.44v.43zm-2.94 2.24v.5h2.94v6.48h-2.44v-.01h-.5v.51h3.44v-7.48h-3.44zm3.45-3.74v2h1.43v-2h-1.43zm.93 1.5h-.43v-1h.43v1zm.5 2.74v-.5h-1.43v7.47h1.43v-.5h-.93v-6.47h.93zm.01-4.24v2h1.43v-2h-1.43zm.93 1.5h-.43v-1h.43v1zm-.93 2.24v.5h.25v-.25h.93v.25h.25v-.5h-1.43zm1.18 6.98v.24h-.93v-.25h-.25v.5h1.43v-.49h-.25zm1.03 11.15h.01v-.03l-.01.03zm-7.67-10.64 2.87 2.29h4.31l3.15-2.29H12.15zm3.04 1.79-1.61-1.29h7.37l-1.78 1.29h-3.98zm5.59-19.36v1.14h3.44V8.89h-3.44zm3.19.64h-2.94v-.39h2.94v.39zM22.5 26.46l-3.15 2.29h6.3l-3.15-2.29zm0 .62 1.61 1.17h-3.22l1.61-1.17zm-3.16 1.68v9.75l.49-1.48v-7.77h5.37v7.86l.46 1.39v-9.75h-6.32zm-.29-9.79v.5h6.9v-.5h-6.9zm0-3.17v1.43h6.9V15.8h-6.9zm6.4.93h-5.9v-.43h5.9v.43zm-6.4 9.22v.49h6.9v-.49h-6.9zm6.91-10.72v2h1.43v-2h-1.43zm.93 1.5h-.43v-1h.43v1zm-.93 2.24v.5h.93v6.47h-.36v.01h-.57v.49h1.43v-7.47h-1.43zm1.44-3.74v2h1.43v-2H27.4zm.93 1.5h-.43v-1h.43v1zm.5 2.74v-.5H27.4v7.47h1.43v-.5h-.93v-6.47h.93zm.01-.5v.5h3.44v-.5h-3.44zm0-3.17v1.43h3.44V15.8h-3.44zm2.94.93h-2.44v-.43h2.44v.43zm-2.94 9.21v.5h3.44v-.5h-3.44zm-6.32.52 3.15 2.29h4.31l2.87-2.29H22.52zm3.31 1.79-1.78-1.29h7.37l-1.61 1.29h-3.98zm6.46-13.02v2h1.43v-2h-1.43zm.93 1.5h-.43v-1h.43v1zm-.93 2.24v.5h.93v6.62l-.04-.04a.517.517 0 0 0-.32-.11h-.57v.5h.57c.01 0 .01.01.01.01l.85.68v-8.16h-1.43zm.57 7.49h-.01L30 28.75h5.73l-2.87-2.29zm0 .64 1.44 1.15h-2.87l1.43-1.15zM20.78 8.89v1.14h3.44V8.89h-3.44zm3.19.64h-2.94v-.39h2.94v.39zm8.32 5.7v2h1.43v-2h-1.43zm.93 1.5h-.43v-1h.43v1zm-4.38.5h3.44V15.8h-3.44v1.43zm.5-.93h2.44v.43h-2.44v-.43zm-1.94.93h1.43v-2H27.4v2zm.5-1.5h.43v1h-.43v-1zm-1.94 1.5h1.43v-2h-1.43v2zm.5-1.5h.43v1h-.43v-1zm-7.41 1.5h6.9V15.8h-6.9v1.43zm.5-.93h5.9v.43h-5.9v-.43zm-1.94.93h1.43v-2h-1.43v2zm.5-1.5h.43v1h-.43v-1zm-1.94 1.5h1.43v-2h-1.43v2zm.5-1.5h.43v1h-.43v-1zm-3.95 1.5h3.44V15.8h-3.44v1.43zm.5-.93h2.44v.43h-2.44v-.43zm-1.94.93h1.42v-2h-1.42v2zm.5-1.5h.42v1h-.42v-1zm23.95 13.02-2.87-2.29h-.01L30 28.75h5.73zm-4.3-.5 1.43-1.15 1.44 1.15h-2.87zm1.44-1.8.85.68v-8.16h-1.43v.5h.93v6.62l-.04-.04a.517.517 0 0 0-.32-.11h-.57v.5h.57c.01 0 .01.01.01.01zm-7.2 2.3h4.31l2.87-2.29H22.52l3.15 2.29zm.16-.5-1.78-1.29h7.37l-1.61 1.29h-3.98zm6.45-2.31h-3.44v.5h3.44v-.5zm0-6.47v-.5h-3.44v.5h3.44zm-3.45 6.47h-.93v-6.47h.93v-.5H27.4v7.47h1.43v-.5zm-1.44-6.97h-1.43v.5h.93v6.47h-.36v.01h-.57v.49h1.43v-7.47zm-1.44 6.98h-6.9v.49h6.9v-.49zm0-6.48v-.5h-6.9v.5h6.9zm-6.61 19.04.49-1.48v-7.77h5.37v7.86l.46 1.39v-9.75h-6.32v9.75zm6.31-9.76-3.15-2.29-3.15 2.29h6.3zm-4.76-.5 1.61-1.17 1.61 1.17h-3.22zm-8.74-1.79 2.87 2.29h4.31l3.15-2.29H12.15zm3.04 1.79-1.61-1.29h7.37l-1.78 1.29h-3.98zm4.64 8.85v-.03l-.01.03h.01zm-.79-11.15h-.25v.24h-.93v-.25h-.25v.5h1.43v-.49zm-1.18-6.73h.93v.25h.25v-.5h-1.43v.5h.25v-.25zm-.26 6.72h-.93v-6.47h.93v-.5h-1.43v7.47h1.43v-.5zm-1.44-6.97h-3.44v.5h2.94v6.48h-2.44v-.01h-.5v.51h3.44v-7.48zm-4.88 8.16-.01.01-2 1.61H15l-2.87-2.29-.85.67zm-.58 1.12 1.43-1.15 1.44 1.15H10.7zm2-1.81v-.5h-.57a.51.51 0 0 0-.31.11l-.04.04v-6.62h.92v-.5h-1.42v8.16l.85-.69h.57zm23.36 1.92-1.83-1.46v-7.53c.52-.2.87-.7.87-1.27s-.35-1.07-.87-1.27v-1.61c0-.28-.22-.5-.5-.5h-1.44c-.28 0-.51.22-.51.5v.07h-.52c-.36-1.48-1.21-2.87-2.41-3.92-1.2-1.06-2.65-1.7-4.12-1.82v-.72c0-.88-.71-1.6-1.59-1.6h-.13v-.36c0-.28-.23-.5-.51-.5s-.51.22-.51.5v.36h-.13c-.88 0-1.59.72-1.59 1.6v.72c-1.47.12-2.92.76-4.12 1.82-1.2 1.05-2.05 2.44-2.41 3.92h-.52v-.07c0-.28-.23-.5-.51-.5h-1.44c-.28 0-.5.22-.5.5v1.61c-.52.2-.87.7-.87 1.27s.35 1.07.87 1.27v7.53l-1.83 1.46c-.12.1-.19.24-.19.39v9.79c0 .28.23.51.51.51h26.48c.28 0 .51-.23.51-.51v-9.79c0-.15-.07-.29-.19-.39zm-24.57 9.68v-5.83c0-.36.29-.65.64-.65.36 0 .65.29.65.65v5.83h-1.29zm.64-6.98c-.31 0-.6.13-.81.34.2-.22.49-.35.81-.35.64 0 1.16.52 1.16 1.16v6.33h-.01v-6.33c0-.63-.51-1.15-1.15-1.15zm2.38 6.98h-.72v-5.83a1.656 1.656 0 1 0-3.31 0v5.83h-.72v-8.78h4.75v8.78zm-3.53-5.83c0-.24.07-.46.2-.64-.12.18-.19.4-.19.64v6.33h-.01v-6.33zm20.73 6.33v-6.33c0-.24.07-.46.2-.64-.12.18-.19.4-.19.64l-.01 6.33h2.3v-6.33c0-.23-.07-.45-.19-.64.13.18.2.4.2.64v6.33h1.72v-9.78h-5.75v9.78h-.01v-9.78h-4.31v9.78h-.01l-.46-1.37v.87h-5.37v-.93h-.01l-.48 1.43h-.01v-9.78h-4.31v9.78h-.01v-9.78H9.26v9.78h-.01v-9.79l2.02-1.61v-8.15l-.2-.05c.07.01.13.02.2.02h22.46c.17 0 .34-.06.48-.15-.08.07-.18.11-.28.14l-.2.04v8.15l2.02 1.61-.01 9.79v.01l-4.03-.01zm1.8-6.33v5.83h-1.29v-5.83c0-.36.29-.65.64-.65.36 0 .65.29.65.65zm-.65-1.15c-.32 0-.6.13-.81.34.2-.22.49-.35.81-.35s.62.13.82.35c-.21-.21-.5-.34-.82-.34zm0-.51c-.91 0-1.65.74-1.65 1.66v5.83h-.72v-8.78h4.75v8.78h-.72v-5.83c0-.92-.74-1.66-1.66-1.66zm-6.69 7.49v-8.78h3.31v8.78h-3.31zm-10.65 0v-8.78h3.31v8.78h-3.31zm-4.25-22.82h1.45v.57h1.42l.05-.2-.04.2h2.01l.01-.56v-.02h1.72l.02-.22c.06-.51.17-.99.33-1.46-.14.45-.25.91-.31 1.4l-.04.28 1.16.01v.57h6.9v-.58h1.15l-.03-.28c-.06-.49-.17-.95-.31-1.4.16.47.27.95.33 1.46l.02.22 1.73.01v.57h2.01l-.04-.2.05.2h1.42l.01-.56v-.01h1.44v1.99l.2.05c.05.01.09.02.13.05a.725.725 0 0 0-.33-.07H11.27c-.12 0-.23.02-.33.07.04-.03.08-.04.13-.05l.2-.05v-1.99zm9.5-5.19V8.88h3.46v1.11l.58.54c.02.02.04.04.05.06-.18-.17-.37-.33-.57-.49l-.07-.06h-3.45l-.06.06c-.6.47-1.11 1-1.52 1.57.27-.41.61-.79.99-1.14l.54-.5h.05zm2.37-2.3c.13 0 .25.02.36.07-.11-.04-.24-.06-.36-.06h-1.28c-.12 0-.25.02-.36.06.11-.05.23-.07.36-.07h.63l.02-.86v.86h.63zm-6.86 4.93c.16-.17.32-.33.49-.49.03.06.04.11.04.17 0 .26-.31.43-.53.32zm1.01-.53a.805.805 0 0 1-.12.69c.09-.14.14-.3.14-.48 0-.07-.01-.14-.02-.21zm.53.21c0-.28-.09-.56-.25-.78a6.17 6.17 0 0 1 1.69-.79 7.475 7.475 0 0 0-1.82 3.94h-1.27c-.28 0-.51.23-.51.51v.07h-.87c.18-.64.48-1.26.86-1.84a1.366 1.366 0 0 0 2.17-1.11zm-.9-.72-.15-.1.03-.03.23.2c.02.02.05.04.06.07-.05-.05-.11-.1-.17-.14zm-.47 1.58c.24 0 .45-.1.61-.25-.14.16-.37.26-.61.25a.652.652 0 0 1-.41-.11c.12.07.26.11.41.11zm2.59 1.51h-.57c.27-1.65 1.11-3.06 2.48-4.17h3.1c1.37 1.11 2.2 2.52 2.48 4.17h-.58c-.27 0-.5.23-.5.51v.07h-5.9v-.07c0-.28-.23-.51-.51-.51zm10.33-2.06c.02.01.02.02.03.03l-.2.23c-.02.02-.04.05-.07.06.05-.05.1-.11.14-.17l.1-.15zm-.54 2.06h-1.27c-.22-1.5-.83-2.82-1.82-3.94.58.17 1.15.43 1.69.79a1.366 1.366 0 0 0 1.12 2.15c.28 0 .56-.09.79-.26.39.57.69 1.2.87 1.84h-.87v-.07c0-.28-.23-.51-.51-.51zm-1-1.89a.805.805 0 0 1-.12-.69c-.01.07-.02.14-.02.21 0 .18.05.34.14.48zm.72.39a.82.82 0 0 1-.61-.26c.16.15.37.25.61.26.15-.01.29-.05.41-.12a.73.73 0 0 1-.41.12zm-.36-.87c0-.06.01-.11.04-.17.17.16.33.32.49.49-.22.11-.53-.06-.53-.32zm-.11-.72c-.06.04-.12.09-.17.14.01-.03.04-.05.06-.07l.23-.2.03.03-.15.1zm.29.02-.12-.1c.09.06.18.12.27.2.27.24.51.49.73.76-.27-.31-.57-.6-.88-.86zm-6.51-3.65h1.28c.39 0 .72.27.81.64h-2.9c.09-.37.42-.64.81-.64zm2.19.25c.11.14.16.31.18.49l-.04-.16c-.03-.12-.08-.23-.14-.33zm-7.43 3.4c-.31.26-.6.55-.87.87l-.12.14.1.15c.04.06.09.12.14.17-.03-.01-.05-.04-.07-.06l-.21-.23c.26-.34.56-.65.89-.94.04-.04.09-.07.14-.1zm17.72 7.07c.15-.16.25-.37.25-.61s-.1-.45-.25-.61c.16.16.26.37.26.61s-.09.45-.26.61zm-.25-.61c0 .2-.16.36-.36.36H11.27c-.1 0-.19-.04-.25-.11a.358.358 0 0 1-.11-.25c0-.2.16-.36.36-.36h22.46c.2 0 .36.16.36.36zm-23.43-.61c-.15.16-.25.37-.25.61 0 .17.05.33.14.48-.1-.14-.15-.3-.15-.48 0-.24.1-.45.26-.61zm22.19 8.97L30 28.75h5.73l-2.87-2.29h-.01zm-1.42 1.79 1.43-1.15 1.44 1.15h-2.87zm1.44-1.8.85.68v-8.16h-1.43v.5h.93v6.62l-.04-.04a.517.517 0 0 0-.32-.11h-.57v.5h.57c.01 0 .01.01.01.01zm.85-9.22v-2h-1.43v2h1.43zm-.93-1.5h.43v1h-.43v-1zm-7.12 13.02h4.31l2.87-2.29H22.52l3.15 2.29zm.16-.5-1.78-1.29h7.37l-1.61 1.29h-3.98zm6.45-2.31h-3.44v.5h3.44v-.5zm0-10.14h-3.44v1.43h3.44V15.8zm-.5.93h-2.44v-.43h2.44v.43zm.5 2.74v-.5h-3.44v.5h3.44zm-3.45 6.47h-.93v-6.47h.93v-.5H27.4v7.47h1.43v-.5zm0-10.71H27.4v2h1.43v-2zm-.5 1.5h-.43v-1h.43v1zm-.94 2.24h-1.43v.5h.93v6.47h-.36v.01h-.57v.49h1.43v-7.47zm0-3.74h-1.43v2h1.43v-2zm-.5 1.5h-.43v-1h.43v1zm-.94 9.22h-6.9v.49h6.9v-.49zm0-10.15h-6.9v1.43h6.9V15.8zm-.5.93h-5.9v-.43h5.9v.43zm.5 2.74v-.5h-6.9v.5h6.9zm-6.61 19.04.49-1.48v-7.77h5.37v7.86l.46 1.39v-9.75h-6.32v9.75zm6.31-9.76-3.15-2.29-3.15 2.29h6.3zm-4.76-.5 1.61-1.17 1.61 1.17h-3.22zm3.33-19.36h-3.44v1.14h3.44V8.89zm-.25.64h-2.94v-.39h2.94v.39zM12.15 26.46l2.87 2.29h4.31l3.15-2.29H12.15zm3.04 1.79-1.61-1.29h7.37l-1.78 1.29h-3.98zm4.64 8.85v-.03l-.01.03h.01zm-.79-11.15h-.25v.24h-.93v-.25h-.25v.5h1.43v-.49zm-1.18-6.73h.93v.25h.25v-.5h-1.43v.5h.25v-.25zm1.18-3.99h-1.43v2h1.43v-2zm-.5 1.5h-.43v-1h.43v1zm-.94 9.21h-.93v-6.47h.93v-.5h-1.43v7.47h1.43v-.5zm0-8.71v-2h-1.43v2h1.43zm-.93-1.5h.43v1h-.43v-1zm-.51 3.24h-3.44v.5h2.94v6.48h-2.44v-.01h-.5v.51h3.44v-7.48zm0-3.17h-3.44v1.43h3.44V15.8zm-.5.93h-2.44v-.43h2.44v.43zM15 28.75l-2.87-2.29-.85.67-.01.01-2 1.61H15zm-4.3-.5 1.43-1.15 1.44 1.15H10.7zm2-1.81v-.5h-.57a.51.51 0 0 0-.31.11l-.04.04v-6.62h.92v-.5h-1.42v8.16l.85-.69h.57zm0-11.21h-1.42v2h1.42v-2zm-.5 1.5h-.42v-1h.42v1zm.5 2.74v-.5h-1.42v8.16l.85-.69h.57v-.5h-.57a.51.51 0 0 0-.31.11l-.04.04v-6.62h.92zm-.57 6.99-.85.67-.01.01-2 1.61H15l-2.87-2.29zm0 .64 1.44 1.15H10.7l1.43-1.15zm.59-8.13v.5h2.94v6.48h-2.44v-.01h-.5v.51h3.44v-7.48h-3.44zm4.88.5v-.5h-1.43v7.47h1.43v-.5h-.93v-6.47h.93zm.01-.5v.5h.25v-.25h.93v.25h.25v-.5h-1.43zm1.18 6.98v.24h-.93v-.25h-.25v.5h1.43v-.49h-.25zm1.03 11.15h.01v-.03l-.01.03zm-7.67-10.64 2.87 2.29h4.31l3.15-2.29H12.15zm3.04 1.79-1.61-1.29h7.37l-1.78 1.29h-3.98zm7.31-1.79-3.15 2.29h6.3l-3.15-2.29zm0 .62 1.61 1.17h-3.22l1.61-1.17zm-3.16 1.68v9.75l.49-1.48v-7.77h5.37v7.86l.46 1.39v-9.75h-6.32zm-.29-9.79v.5h6.9v-.5h-6.9zm0 6.98v.49h6.9v-.49h-6.9zm6.91-6.98v.5h.93v6.47h-.36v.01h-.57v.49h1.43v-7.47h-1.43zm2.87.5v-.5H27.4v7.47h1.43v-.5h-.93v-6.47h.93zm.01-.5v.5h3.44v-.5h-3.44zm0 6.97v.5h3.44v-.5h-3.44zm-6.32.52 3.15 2.29h4.31l2.87-2.29H22.52zm3.31 1.79-1.78-1.29h7.37l-1.61 1.29h-3.98zm6.46-9.28v.5h.93v6.62l-.04-.04a.517.517 0 0 0-.32-.11h-.57v.5h.57c.01 0 .01.01.01.01l.85.68v-8.16h-1.43zm.57 7.49h-.01L30 28.75h5.73l-2.87-2.29zm0 .64 1.44 1.15h-2.87l1.43-1.15zM11.28 15.23v2h1.42v-2h-1.42zm.92 1.5h-.42v-1h.42v1zm.52-.93v1.43h3.44V15.8h-3.44zm2.94.93h-2.44v-.43h2.44v.43zm.51-1.5v2h1.43v-2h-1.43zm.93 1.5h-.43v-1h.43v1zm.51-1.5v2h1.43v-2h-1.43zm.93 1.5h-.43v-1h.43v1zm.51-.93v1.43h6.9V15.8h-6.9zm6.4.93h-5.9v-.43h5.9v.43zm.51-1.5v2h1.43v-2h-1.43zm.93 1.5h-.43v-1h.43v1zm.51-1.5v2h1.43v-2H27.4zm.93 1.5h-.43v-1h.43v1zm.51-.93v1.43h3.44V15.8h-3.44zm2.94.93h-2.44v-.43h2.44v.43zm.51-1.5v2h1.43v-2h-1.43zm.93 1.5h-.43v-1h.43v1zM20.78 8.89v1.14h3.44V8.89h-3.44zm3.19.64h-2.94v-.39h2.94v.39zm8.89 16.93h-.01L30 28.75h5.73l-2.87-2.29zm0 .64 1.44 1.15h-2.87l1.43-1.15zm-.57-8.13v.5h.93v6.62l-.04-.04a.517.517 0 0 0-.32-.11h-.57v.5h.57c.01 0 .01.01.01.01l.85.68v-8.16h-1.43zm0-3.74v2h1.43v-2h-1.43zm.93 1.5h-.43v-1h.43v1zm-10.7 9.73 3.15 2.29h4.31l2.87-2.29H22.52zm3.31 1.79-1.78-1.29h7.37l-1.61 1.29h-3.98zm3.01-2.31v.5h3.44v-.5h-3.44zm0-6.97v.5h3.44v-.5h-3.44zm0-3.17v1.43h3.44V15.8h-3.44zm2.94.93h-2.44v-.43h2.44v.43zm-2.95 2.74v-.5H27.4v7.47h1.43v-.5h-.93v-6.47h.93zm-1.43-4.24v2h1.43v-2H27.4zm.93 1.5h-.43v-1h.43v1zm-2.37 2.24v.5h.93v6.47h-.36v.01h-.57v.49h1.43v-7.47h-1.43zm0-3.74v2h1.43v-2h-1.43zm.93 1.5h-.43v-1h.43v1zm-7.84 9.22v.49h6.9v-.49h-6.9zm0-10.15v1.43h6.9V15.8h-6.9zm6.4.93h-5.9v-.43h5.9v.43zm-6.4 2.24v.5h6.9v-.5h-6.9zm.29 9.79v9.75l.49-1.48v-7.77h5.37v7.86l.46 1.39v-9.75h-6.32zm3.16-2.3-3.15 2.29h6.3l-3.15-2.29zm0 .62 1.61 1.17h-3.22l1.61-1.17zM20.78 8.89v1.14h3.44V8.89h-3.44zm3.19.64h-2.94v-.39h2.94v.39zM12.15 26.46l2.87 2.29h4.31l3.15-2.29H12.15zm3.04 1.79-1.61-1.29h7.37l-1.78 1.29h-3.98zm4.63 8.85h.01v-.03l-.01.03zm-1.03-11.15v.24h-.93v-.25h-.25v.5h1.43v-.49h-.25zm-1.18-6.98v.5h.25v-.25h.93v.25h.25v-.5h-1.43zm0-3.74v2h1.43v-2h-1.43zm.93 1.5h-.43v-1h.43v1zm-.94 2.74v-.5h-1.43v7.47h1.43v-.5h-.93v-6.47h.93zm-1.43-4.24v2h1.43v-2h-1.43zm.93 1.5h-.43v-1h.43v1zm-4.38 2.24v.5h2.94v6.48h-2.44v-.01h-.5v.51h3.44v-7.48h-3.44zm0-3.17v1.43h3.44V15.8h-3.44zm2.94.93h-2.44v-.43h2.44v.43zm-3.53 9.73-.85.67-.01.01-2 1.61H15l-2.87-2.29zm0 .64 1.44 1.15H10.7l1.43-1.15zm.57-7.63v-.5h-1.42v8.16l.85-.69h.57v-.5h-.57a.51.51 0 0 0-.31.11l-.04.04v-6.62h.92zm-1.42-4.24v2h1.42v-2h-1.42zm.92 1.5h-.42v-1h.42v1zm.5 2.74v-.5h-1.42v8.16l.85-.69h.57v-.5h-.57a.51.51 0 0 0-.31.11l-.04.04v-6.62h.92zm-.57 6.99-.85.67-.01.01-2 1.61H15l-2.87-2.29zm0 .64 1.44 1.15H10.7l1.43-1.15zm.59-8.13v.5h2.94v6.48h-2.44v-.01h-.5v.51h3.44v-7.48h-3.44zm4.88.5v-.5h-1.43v7.47h1.43v-.5h-.93v-6.47h.93zm1.19 6.48v.24h-.93v-.25h-.25v.5h1.43v-.49h-.25zm-1.18-6.98v.5h.25v-.25h.93v.25h.25v-.5h-1.43zm2.21 18.13h.01v-.03l-.01.03zm-7.67-10.64 2.87 2.29h4.31l3.15-2.29H12.15zm3.04 1.79-1.61-1.29h7.37l-1.78 1.29h-3.98zm7.31-1.79-3.15 2.29h6.3l-3.15-2.29zm0 .62 1.61 1.17h-3.22l1.61-1.17zm-3.16 1.68v9.75l.49-1.48v-7.77h5.37v7.86l.46 1.39v-9.75h-6.32zm-.29-9.79v.5h6.9v-.5h-6.9zm0 6.98v.49h6.9v-.49h-6.9zm6.91-6.98v.5h.93v6.47h-.36v.01h-.57v.49h1.43v-7.47h-1.43zm2.87.5v-.5H27.4v7.47h1.43v-.5h-.93v-6.47h.93zm.01 6.47v.5h3.44v-.5h-3.44zm0-6.97v.5h3.44v-.5h-3.44zm-6.32 7.49 3.15 2.29h4.31l2.87-2.29H22.52zm3.31 1.79-1.78-1.29h7.37l-1.61 1.29h-3.98zm6.46-9.28v.5h.93v6.62l-.04-.04a.517.517 0 0 0-.32-.11h-.57v.5h.57c.01 0 .01.01.01.01l.85.68v-8.16h-1.43zm.57 7.49h-.01L30 28.75h5.73l-2.87-2.29zm0 .64 1.44 1.15h-2.87l1.43-1.15zM11.28 15.23v2h1.42v-2h-1.42zm.92 1.5h-.42v-1h.42v1zm.52-.93v1.43h3.44V15.8h-3.44zm2.94.93h-2.44v-.43h2.44v.43zm.51-1.5v2h1.43v-2h-1.43zm.93 1.5h-.43v-1h.43v1zm.51-1.5v2h1.43v-2h-1.43zm.93 1.5h-.43v-1h.43v1zm.51-.93v1.43h6.9V15.8h-6.9zm6.4.93h-5.9v-.43h5.9v.43zm.51-1.5v2h1.43v-2h-1.43zm.93 1.5h-.43v-1h.43v1zm.51-1.5v2h1.43v-2H27.4zm.93 1.5h-.43v-1h.43v1zm.51-.93v1.43h3.44V15.8h-3.44zm2.94.93h-2.44v-.43h2.44v.43zm.51-1.5v2h1.43v-2h-1.43zm.93 1.5h-.43v-1h.43v1zM20.78 8.89v1.14h3.44V8.89h-3.44zm3.19.64h-2.94v-.39h2.94v.39zm8.89 16.93h-.01L30 28.75h5.73l-2.87-2.29zm0 .64 1.44 1.15h-2.87l1.43-1.15zm-.57-8.13v.5h.93v6.62l-.04-.04a.517.517 0 0 0-.32-.11h-.57v.5h.57c.01 0 .01.01.01.01l.85.68v-8.16h-1.43zm0-3.74v2h1.43v-2h-1.43zm.93 1.5h-.43v-1h.43v1zm-10.7 9.73 3.15 2.29h4.31l2.87-2.29H22.52zm3.31 1.79-1.78-1.29h7.37l-1.61 1.29h-3.98zm3.01-2.31v.5h3.44v-.5h-3.44zm0-6.97v.5h3.44v-.5h-3.44zm0-3.17v1.43h3.44V15.8h-3.44zm2.94.93h-2.44v-.43h2.44v.43zm-2.95 2.74v-.5H27.4v7.47h1.43v-.5h-.93v-6.47h.93zm-1.43-4.24v2h1.43v-2H27.4zm.93 1.5h-.43v-1h.43v1zm-2.37 2.24v.5h.93v6.47h-.36v.01h-.57v.49h1.43v-7.47h-1.43zm0-3.74v2h1.43v-2h-1.43zm.93 1.5h-.43v-1h.43v1zm-7.84 9.22v.49h6.9v-.49h-6.9zm0-10.15v1.43h6.9V15.8h-6.9zm6.4.93h-5.9v-.43h5.9v.43zm-6.4 2.24v.5h6.9v-.5h-6.9zm.29 9.79v9.75l.49-1.48v-7.77h5.37v7.86l.46 1.39v-9.75h-6.32zm3.16-2.3-3.15 2.29h6.3l-3.15-2.29zm0 .62 1.61 1.17h-3.22l1.61-1.17zM20.78 8.89v1.14h3.44V8.89h-3.44zm3.19.64h-2.94v-.39h2.94v.39zM12.15 26.46l2.87 2.29h4.31l3.15-2.29H12.15zm3.04 1.79-1.61-1.29h7.37l-1.78 1.29h-3.98zm4.63 8.85h.01v-.03l-.01.03zm-1.03-11.15v.24h-.93v-.25h-.25v.5h1.43v-.49h-.25zm-1.18-6.98v.5h.25v-.25h.93v.25h.25v-.5h-1.43zm0-3.74v2h1.43v-2h-1.43zm.93 1.5h-.43v-1h.43v1zm-.94 2.74v-.5h-1.43v7.47h1.43v-.5h-.93v-6.47h.93zm-1.43-4.24v2h1.43v-2h-1.43zm.93 1.5h-.43v-1h.43v1zm-4.38 2.24v.5h2.94v6.48h-2.44v-.01h-.5v.51h3.44v-7.48h-3.44zm0-3.17v1.43h3.44V15.8h-3.44zm2.94.93h-2.44v-.43h2.44v.43zm-3.53 9.73-.85.67-.01.01-2 1.61H15l-2.87-2.29zm0 .64 1.44 1.15H10.7l1.43-1.15zm.57-7.63v-.5h-1.42v8.16l.85-.69h.57v-.5h-.57a.51.51 0 0 0-.31.11l-.04.04v-6.62h.92zm-1.42-4.24v2h1.42v-2h-1.42zm.92 1.5h-.42v-1h.42v1zm.5 2.74v-.5h-1.42v8.16l.85-.69h.57v-.5h-.57a.51.51 0 0 0-.31.11l-.04.04v-6.62h.92zm-.57 6.99-.85.67-.01.01-2 1.61H15l-2.87-2.29zm0 .64 1.44 1.15H10.7l1.43-1.15zm.59-8.13v.5h2.94v6.48h-2.44v-.01h-.5v.51h3.44v-7.48h-3.44zm4.88.5v-.5h-1.43v7.47h1.43v-.5h-.93v-6.47h.93zm1.19 6.48v.24h-.93v-.25h-.25v.5h1.43v-.49h-.25zm-1.18-6.98v.5h.25v-.25h.93v.25h.25v-.5h-1.43zm2.21 18.13h.01v-.03l-.01.03zm-7.67-10.64 2.87 2.29h4.31l3.15-2.29H12.15zm3.04 1.79-1.61-1.29h7.37l-1.78 1.29h-3.98zm7.31-1.79-3.15 2.29h6.3l-3.15-2.29zm0 .62 1.61 1.17h-3.22l1.61-1.17zm-3.16 1.68v9.75l.49-1.48v-7.77h5.37v7.86l.46 1.39v-9.75h-6.32zm-.29-9.79v.5h6.9v-.5h-6.9zm0 6.98v.49h6.9v-.49h-6.9zm6.91-6.98v.5h.93v6.47h-.36v.01h-.57v.49h1.43v-7.47h-1.43zm2.87.5v-.5H27.4v7.47h1.43v-.5h-.93v-6.47h.93zm.01 6.47v.5h3.44v-.5h-3.44zm0-6.97v.5h3.44v-.5h-3.44zm-6.32 7.49 3.15 2.29h4.31l2.87-2.29H22.52zm3.31 1.79-1.78-1.29h7.37l-1.61 1.29h-3.98zm6.46-9.28v.5h.93v6.62l-.04-.04a.517.517 0 0 0-.32-.11h-.57v.5h.57c.01 0 .01.01.01.01l.85.68v-8.16h-1.43zm.57 7.49h-.01L30 28.75h5.73l-2.87-2.29zm0 .64 1.44 1.15h-2.87l1.43-1.15zM11.28 15.23v2h1.42v-2h-1.42zm.92 1.5h-.42v-1h.42v1zm.52-.93v1.43h3.44V15.8h-3.44zm2.94.93h-2.44v-.43h2.44v.43zm.51-1.5v2h1.43v-2h-1.43zm.93 1.5h-.43v-1h.43v1zm.51-1.5v2h1.43v-2h-1.43zm.93 1.5h-.43v-1h.43v1zm.51-.93v1.43h6.9V15.8h-6.9zm6.4.93h-5.9v-.43h5.9v.43zm.51-1.5v2h1.43v-2h-1.43zm.93 1.5h-.43v-1h.43v1zm.51-1.5v2h1.43v-2H27.4zm.93 1.5h-.43v-1h.43v1zm.51-.93v1.43h3.44V15.8h-3.44zm2.94.93h-2.44v-.43h2.44v.43zm.51-1.5v2h1.43v-2h-1.43zm.93 1.5h-.43v-1h.43v1zM20.78 8.89v1.14h3.44V8.89h-3.44zm3.19.64h-2.94v-.39h2.94v.39zm8.89 16.93h-.01L30 28.75h5.73l-2.87-2.29zm0 .64 1.44 1.15h-2.87l1.43-1.15zm-.57-8.13v.5h.93v6.62l-.04-.04a.517.517 0 0 0-.32-.11h-.57v.5h.57c.01 0 .01.01.01.01l.85.68v-8.16h-1.43zm0-3.74v2h1.43v-2h-1.43zm.93 1.5h-.43v-1h.43v1zm-10.7 9.73 3.15 2.29h4.31l2.87-2.29H22.52zm3.31 1.79-1.78-1.29h7.37l-1.61 1.29h-3.98zm3.01-2.31v.5h3.44v-.5h-3.44zm0-6.97v.5h3.44v-.5h-3.44zm0-3.17v1.43h3.44V15.8h-3.44zm2.94.93h-2.44v-.43h2.44v.43zm-2.95 2.74v-.5H27.4v7.47h1.43v-.5h-.93v-6.47h.93zm-1.43-4.24v2h1.43v-2H27.4zm.93 1.5h-.43v-1h.43v1zm-2.37 2.24v.5h.93v6.47h-.36v.01h-.57v.49h1.43v-7.47h-1.43zm0-3.74v2h1.43v-2h-1.43zm.93 1.5h-.43v-1h.43v1zm-7.84 9.22v.49h6.9v-.49h-6.9zm0-10.15v1.43h6.9V15.8h-6.9zm6.4.93h-5.9v-.43h5.9v.43zm-6.4 2.24v.5h6.9v-.5h-6.9zm.29 9.79v9.75l.49-1.48v-7.77h5.37v7.86l.46 1.39v-9.75h-6.32zm3.16-2.3-3.15 2.29h6.3l-3.15-2.29zm0 .62 1.61 1.17h-3.22l1.61-1.17zM20.78 8.89v1.14h3.44V8.89h-3.44zm3.19.64h-2.94v-.39h2.94v.39zM12.15 26.46l2.87 2.29h4.31l3.15-2.29H12.15zm3.04 1.79-1.61-1.29h7.37l-1.78 1.29h-3.98zm4.63 8.85h.01v-.03l-.01.03zm-1.03-11.15v.24h-.93v-.25h-.25v.5h1.43v-.49h-.25zm-1.18-6.98v.5h.25v-.25h.93v.25h.25v-.5h-1.43zm0-3.74v2h1.43v-2h-1.43zm.93 1.5h-.43v-1h.43v1zm-.94 2.74v-.5h-1.43v7.47h1.43v-.5h-.93v-6.47h.93zm-1.43-4.24v2h1.43v-2h-1.43zm.93 1.5h-.43v-1h.43v1zm-4.38 2.24v.5h2.94v6.48h-2.44v-.01h-.5v.51h3.44v-7.48h-3.44zm0-3.17v1.43h3.44V15.8h-3.44zm2.94.93h-2.44v-.43h2.44v.43zm-3.53 9.73-.85.67-.01.01-2 1.61H15l-2.87-2.29zm0 .64 1.44 1.15H10.7l1.43-1.15zm.57-7.63v-.5h-1.42v8.16l.85-.69h.57v-.5h-.57a.51.51 0 0 0-.31.11l-.04.04v-6.62h.92zm-1.42-4.24v2h1.42v-2h-1.42zm.92 1.5h-.42v-1h.42v1zm.5 2.74v-.5h-1.42v8.16l.85-.69h.57v-.5h-.57a.51.51 0 0 0-.31.11l-.04.04v-6.62h.92zm-.57 6.99-.85.67-.01.01-2 1.61H15l-2.87-2.29zm0 .64 1.44 1.15H10.7l1.43-1.15zm.59-8.13v.5h2.94v6.48h-2.44v-.01h-.5v.51h3.44v-7.48h-3.44zm4.88.5v-.5h-1.43v7.47h1.43v-.5h-.93v-6.47h.93zm1.19 6.48v.24h-.93v-.25h-.25v.5h1.43v-.49h-.25zm-1.18-6.98v.5h.25v-.25h.93v.25h.25v-.5h-1.43zm2.21 18.13h.01v-.03l-.01.03zm-7.67-10.64 2.87 2.29h4.31l3.15-2.29H12.15zm3.04 1.79-1.61-1.29h7.37l-1.78 1.29h-3.98zm7.31-1.79-3.15 2.29h6.3l-3.15-2.29zm0 .62 1.61 1.17h-3.22l1.61-1.17zm-3.16 1.68v9.75l.49-1.48v-7.77h5.37v7.86l.46 1.39v-9.75h-6.32zm-.29-9.79v.5h6.9v-.5h-6.9zm0 6.98v.49h6.9v-.49h-6.9zm6.91-6.98v.5h.93v6.47h-.36v.01h-.57v.49h1.43v-7.47h-1.43zm2.87.5v-.5H27.4v7.47h1.43v-.5h-.93v-6.47h.93zm.01 6.47v.5h3.44v-.5h-3.44zm0-6.97v.5h3.44v-.5h-3.44zm-6.32 7.49 3.15 2.29h4.31l2.87-2.29H22.52zm3.31 1.79-1.78-1.29h7.37l-1.61 1.29h-3.98zm6.46-9.28v.5h.93v6.62l-.04-.04a.517.517 0 0 0-.32-.11h-.57v.5h.57c.01 0 .01.01.01.01l.85.68v-8.16h-1.43zm.57 7.49h-.01L30 28.75h5.73l-2.87-2.29zm0 .64 1.44 1.15h-2.87l1.43-1.15zM11.28 15.23v2h1.42v-2h-1.42zm.92 1.5h-.42v-1h.42v1zm.52-.93v1.43h3.44V15.8h-3.44zm2.94.93h-2.44v-.43h2.44v.43zm.51-1.5v2h1.43v-2h-1.43zm.93 1.5h-.43v-1h.43v1zm.51-1.5v2h1.43v-2h-1.43zm.93 1.5h-.43v-1h.43v1zm.51-.93v1.43h6.9V15.8h-6.9zm6.4.93h-5.9v-.43h5.9v.43zm.51-1.5v2h1.43v-2h-1.43zm.93 1.5h-.43v-1h.43v1zm.51-1.5v2h1.43v-2H27.4zm.93 1.5h-.43v-1h.43v1zm.51-.93v1.43h3.44V15.8h-3.44zm2.94.93h-2.44v-.43h2.44v.43zm.51-1.5v2h1.43v-2h-1.43zm.93 1.5h-.43v-1h.43v1zM20.78 8.89v1.14h3.44V8.89h-3.44zm3.19.64h-2.94v-.39h2.94v.39zm8.89 16.93h-.01L30 28.75h5.73l-2.87-2.29zm0 .64 1.44 1.15h-2.87l1.43-1.15zm-.57-8.13v.5h.93v6.62l-.04-.04a.517.517 0 0 0-.32-.11h-.57v.5h.57c.01 0 .01.01.01.01l.85.68v-8.16h-1.43zm0-3.74v2h1.43v-2h-1.43zm.93 1.5h-.43v-1h.43v1zm-10.7 9.73 3.15 2.29h4.31l2.87-2.29H22.52zm3.31 1.79-1.78-1.29h7.37l-1.61 1.29h-3.98zm3.01-2.31v.5h3.44v-.5h-3.44zm0-6.97v.5h3.44v-.5h-3.44zm0-3.17v1.43h3.44V15.8h-3.44zm2.94.93h-2.44v-.43h2.44v.43zm-2.95 2.74v-.5H27.4v7.47h1.43v-.5h-.93v-6.47h.93zm-1.43-4.24v2h1.43v-2H27.4zm.93 1.5h-.43v-1h.43v1zm-2.37 2.24v.5h.93v6.47h-.36v.01h-.57v.49h1.43v-7.47h-1.43zm0-3.74v2h1.43v-2h-1.43zm.93 1.5h-.43v-1h.43v1zm-7.84 9.22v.49h6.9v-.49h-6.9zm0-10.15v1.43h6.9V15.8h-6.9zm6.4.93h-5.9v-.43h5.9v.43zm-6.4 2.24v.5h6.9v-.5h-6.9zm.29 9.79v9.75l.49-1.48v-7.77h5.37v7.86l.46 1.39v-9.75h-6.32zm3.16-2.3-3.15 2.29h6.3l-3.15-2.29zm0 .62 1.61 1.17h-3.22l1.61-1.17zM20.78 8.89v1.14h3.44V8.89h-3.44zm3.19.64h-2.94v-.39h2.94v.39zM12.15 26.46l2.87 2.29h4.31l3.15-2.29H12.15zm3.04 1.79-1.61-1.29h7.37l-1.78 1.29h-3.98zm4.63 8.85h.01v-.03l-.01.03zm-1.03-11.15v.24h-.93v-.25h-.25v.5h1.43v-.49h-.25zm-1.18-6.98v.5h.25v-.25h.93v.25h.25v-.5h-1.43zm0-3.74v2h1.43v-2h-1.43zm.93 1.5h-.43v-1h.43v1zm-.94 2.74v-.5h-1.43v7.47h1.43v-.5h-.93v-6.47h.93zm-1.43-4.24v2h1.43v-2h-1.43zm.93 1.5h-.43v-1h.43v1zm-4.38 2.24v.5h2.94v6.48h-2.44v-.01h-.5v.51h3.44v-7.48h-3.44zm0-3.17v1.43h3.44V15.8h-3.44zm2.94.93h-2.44v-.43h2.44v.43zm-3.53 9.73-.85.67-.01.01-2 1.61H15l-2.87-2.29zm0 .64 1.44 1.15H10.7l1.43-1.15zm.57-7.63v-.5h-1.42v8.16l.85-.69h.57v-.5h-.57a.51.51 0 0 0-.31.11l-.04.04v-6.62h.92zm-1.42-4.24v2h1.42v-2h-1.42zm.92 1.5h-.42v-1h.42v1zm.5 2.74v-.5h-1.42v8.16l.85-.69h.57v-.5h-.57a.51.51 0 0 0-.31.11l-.04.04v-6.62h.92zm-.57 6.99-.85.67-.01.01-2 1.61H15l-2.87-2.29zm0 .64 1.44 1.15H10.7l1.43-1.15zm.59-8.13v.5h2.94v6.48h-2.44v-.01h-.5v.51h3.44v-7.48h-3.44zm4.88.5v-.5h-1.43v7.47h1.43v-.5h-.93v-6.47h.93zm1.19 6.48v.24h-.93v-.25h-.25v.5h1.43v-.49h-.25zm-1.18-6.98v.5h.25v-.25h.93v.25h.25v-.5h-1.43zm2.21 18.13h.01v-.03l-.01.03zm-7.67-10.64 2.87 2.29h4.31l3.15-2.29H12.15zm3.04 1.79-1.61-1.29h7.37l-1.78 1.29h-3.98zm7.31-1.79-3.15 2.29h6.3l-3.15-2.29zm0 .62 1.61 1.17h-3.22l1.61-1.17zm-3.16 1.68v9.75l.49-1.48v-7.77h5.37v7.86l.46 1.39v-9.75h-6.32zm-.29-9.79v.5h6.9v-.5h-6.9zm0 6.98v.49h6.9v-.49h-6.9zm6.91-6.98v.5h.93v6.47h-.36v.01h-.57v.49h1.43v-7.47h-1.43zm2.87.5v-.5H27.4v7.47h1.43v-.5h-.93v-6.47h.93zm.01 6.47v.5h3.44v-.5h-3.44zm0-6.97v.5h3.44v-.5h-3.44zm-6.32 7.49 3.15 2.29h4.31l2.87-2.29H22.52zm3.31 1.79-1.78-1.29h7.37l-1.61 1.29h-3.98zm6.46-9.28v.5h.93v6.62l-.04-.04a.517.517 0 0 0-.32-.11h-.57v.5h.57c.01 0 .01.01.01.01l.85.68v-8.16h-1.43zm.57 7.49h-.01L30 28.75h5.73l-2.87-2.29zm0 .64 1.44 1.15h-2.87l1.43-1.15zM11.28 15.23v2h1.42v-2h-1.42zm.92 1.5h-.42v-1h.42v1zm.52-.93v1.43h3.44V15.8h-3.44zm2.94.93h-2.44v-.43h2.44v.43zm.51-1.5v2h1.43v-2h-1.43zm.93 1.5h-.43v-1h.43v1zm.51-1.5v2h1.43v-2h-1.43zm.93 1.5h-.43v-1h.43v1zm.51-.93v1.43h6.9V15.8h-6.9zm6.4.93h-5.9v-.43h5.9v.43zm.51-1.5v2h1.43v-2h-1.43zm.93 1.5h-.43v-1h.43v1zm.51-1.5v2h1.43v-2H27.4zm.93 1.5h-.43v-1h.43v1zm.51-.93v1.43h3.44V15.8h-3.44zm2.94.93h-2.44v-.43h2.44v.43zm.51-1.5v2h1.43v-2h-1.43zm.93 1.5h-.43v-1h.43v1zM20.78 8.89v1.14h3.44V8.89h-3.44zm3.19.64h-2.94v-.39h2.94v.39zm8.89 16.93h-.01L30 28.75h5.73l-2.87-2.29zm0 .64 1.44 1.15h-2.87l1.43-1.15zm-.57-8.13v.5h.93v6.62l-.04-.04a.517.517 0 0 0-.32-.11h-.57v.5h.57c.01 0 .01.01.01.01l.85.68v-8.16h-1.43zm0-3.74v2h1.43v-2h-1.43zm.93 1.5h-.43v-1h.43v1zm-10.7 9.73 3.15 2.29h4.31l2.87-2.29H22.52zm3.31 1.79-1.78-1.29h7.37l-1.61 1.29h-3.98zm3.01-2.31v.5h3.44v-.5h-3.44zm0-6.97v.5h3.44v-.5h-3.44zm0-3.17v1.43h3.44V15.8h-3.44zm2.94.93h-2.44v-.43h2.44v.43zm-2.95 2.74v-.5H27.4v7.47h1.43v-.5h-.93v-6.47h.93zm-1.43-4.24v2h1.43v-2H27.4zm.93 1.5h-.43v-1h.43v1zm-2.37 2.24v.5h.93v6.47h-.36v.01h-.57v.49h1.43v-7.47h-1.43zm0-3.74v2h1.43v-2h-1.43zm.93 1.5h-.43v-1h.43v1zm-7.84 9.22v.49h6.9v-.49h-6.9zm0-10.15v1.43h6.9V15.8h-6.9zm6.4.93h-5.9v-.43h5.9v.43zm-6.4 2.24v.5h6.9v-.5h-6.9zm.29 9.79v9.75l.49-1.48v-7.77h5.37v7.86l.46 1.39v-9.75h-6.32zm3.16-2.3-3.15 2.29h6.3l-3.15-2.29zm0 .62 1.61 1.17h-3.22l1.61-1.17zM20.78 8.89v1.14h3.44V8.89h-3.44zm3.19.64h-2.94v-.39h2.94v.39zM12.15 26.46l2.87 2.29h4.31l3.15-2.29H12.15zm3.04 1.79-1.61-1.29h7.37l-1.78 1.29h-3.98zm4.63 8.85h.01v-.03l-.01.03zm-1.03-11.15v.24h-.93v-.25h-.25v.5h1.43v-.49h-.25zm-1.18-6.98v.5h.25v-.25h.93v.25h.25v-.5h-1.43zm0-3.74v2h1.43v-2h-1.43zm.93 1.5h-.43v-1h.43v1zm-.94 2.74v-.5h-1.43v7.47h1.43v-.5h-.93v-6.47h.93zm-1.43-4.24v2h1.43v-2h-1.43zm.93 1.5h-.43v-1h.43v1zm-4.38 2.24v.5h2.94v6.48h-2.44v-.01h-.5v.51h3.44v-7.48h-3.44zm0-3.17v1.43h3.44V15.8h-3.44zm2.94.93h-2.44v-.43h2.44v.43zm-3.53 9.73-.85.67-.01.01-2 1.61H15l-2.87-2.29zm0 .64 1.44 1.15H10.7l1.43-1.15zm.57-7.63v-.5h-1.42v8.16l.85-.69h.57v-.5h-.57a.51.51 0 0 0-.31.11l-.04.04v-6.62h.92zm-1.42-4.24v2h1.42v-2h-1.42zm.92 1.5h-.42v-1h.42v1zm.5 2.74v-.5h-1.42v8.16l.85-.69h.57v-.5h-.57a.51.51 0 0 0-.31.11l-.04.04v-6.62h.92zm-.57 6.99-.85.67-.01.01-2 1.61H15l-2.87-2.29zm0 .64 1.44 1.15H10.7l1.43-1.15zm.59-8.13v.5h2.94v6.48h-2.44v-.01h-.5v.51h3.44v-7.48h-3.44zm4.88.5v-.5h-1.43v7.47h1.43v-.5h-.93v-6.47h.93zm1.19 6.48v.24h-.93v-.25h-.25v.5h1.43v-.49h-.25zm-1.18-6.98v.5h.25v-.25h.93v.25h.25v-.5h-1.43zm2.21 18.13h.01v-.03l-.01.03zm-7.67-10.64 2.87 2.29h4.31l3.15-2.29H12.15zm3.04 1.79-1.61-1.29h7.37l-1.78 1.29h-3.98zm7.31-1.79-3.15 2.29h6.3l-3.15-2.29zm0 .62 1.61 1.17h-3.22l1.61-1.17zm-3.16 1.68v9.75l.49-1.48v-7.77h5.37v7.86l.46 1.39v-9.75h-6.32zm-.29-9.79v.5h6.9v-.5h-6.9zm0 6.98v.49h6.9v-.49h-6.9zm6.91-6.98v.5h.93v6.47h-.36v.01h-.57v.49h1.43v-7.47h-1.43zm2.87.5v-.5H27.4v7.47h1.43v-.5h-.93v-6.47h.93zm.01 6.47v.5h3.44v-.5h-3.44zm0-6.97v.5h3.44v-.5h-3.44zm-6.32 7.49 3.15 2.29h4.31l2.87-2.29H22.52zm3.31 1.79-1.78-1.29h7.37l-1.61 1.29h-3.98zm6.46-9.28v.5h.93v6.62l-.04-.04a.517.517 0 0 0-.32-.11h-.57v.5h.57c.01 0 .01.01.01.01l.85.68v-8.16h-1.43zm.57 7.49h-.01L30 28.75h5.73l-2.87-2.29zm0 .64 1.44 1.15h-2.87l1.43-1.15zM11.28 15.23v2h1.42v-2h-1.42zm.92 1.5h-.42v-1h.42v1zm.52-.93v1.43h3.44V15.8h-3.44zm2.94.93h-2.44v-.43h2.44v.43zm.51-1.5v2h1.43v-2h-1.43zm.93 1.5h-.43v-1h.43v1zm.51-1.5v2h1.43v-2h-1.43zm.93 1.5h-.43v-1h.43v1zm.51-.93v1.43h6.9V15.8h-6.9zm6.4.93h-5.9v-.43h5.9v.43zm.51-1.5v2h1.43v-2h-1.43zm.93 1.5h-.43v-1h.43v1zm.51-1.5v2h1.43v-2H27.4zm.93 1.5h-.43v-1h.43v1zm.51-.93v1.43h3.44V15.8h-3.44zm2.94.93h-2.44v-.43h2.44v.43zm.51-1.5v2h1.43v-2h-1.43zm.93 1.5h-.43v-1h.43v1zM20.78 8.89v1.14h3.44V8.89h-3.44zm3.19.64h-2.94v-.39h2.94v.39zm8.89 16.93h-.01L30 28.75h5.73l-2.87-2.29zm0 .64 1.44 1.15h-2.87l1.43-1.15zm-.57-8.13v.5h.93v6.62l-.04-.04a.517.517 0 0 0-.32-.11h-.57v.5h.57c.01 0 .01.01.01.01l.85.68v-8.16h-1.43zm0-3.74v2h1.43v-2h-1.43zm.93 1.5h-.43v-1h.43v1zm-10.7 9.73 3.15 2.29h4.31l2.87-2.29H22.52zm3.31 1.79-1.78-1.29h7.37l-1.61 1.29h-3.98zm3.01-2.31v.5h3.44v-.5h-3.44zm0-6.97v.5h3.44v-.5h-3.44zm0-3.17v1.43h3.44V15.8h-3.44zm2.94.93h-2.44v-.43h2.44v.43zm-2.95 2.74v-.5H27.4v7.47h1.43v-.5h-.93v-6.47h.93zm-1.43-4.24v2h1.43v-2H27.4zm.93 1.5h-.43v-1h.43v1zm-2.37 2.24v.5h.93v6.47h-.36v.01h-.57v.49h1.43v-7.47h-1.43zm0-3.74v2h1.43v-2h-1.43zm.93 1.5h-.43v-1h.43v1zm-7.84 9.22v.49h6.9v-.49h-6.9zm0-10.15v1.43h6.9V15.8h-6.9zm6.4.93h-5.9v-.43h5.9v.43zm-6.4 2.24v.5h6.9v-.5h-6.9zm.29 9.79v9.75l.49-1.48v-7.77h5.37v7.86l.46 1.39v-9.75h-6.32zm3.16-2.3-3.15 2.29h6.3l-3.15-2.29zm0 .62 1.61 1.17h-3.22l1.61-1.17zM20.78 8.89v1.14h3.44V8.89h-3.44zm3.19.64h-2.94v-.39h2.94v.39zM12.15 26.46l2.87 2.29h4.31l3.15-2.29H12.15zm3.04 1.79-1.61-1.29h7.37l-1.78 1.29h-3.98zm4.63 8.85h.01v-.03l-.01.03zm-1.03-11.15v.24h-.93v-.25h-.25v.5h1.43v-.49h-.25zm-1.18-6.98v.5h.25v-.25h.93v.25h.25v-.5h-1.43zm0-3.74v2h1.43v-2h-1.43zm.93 1.5h-.43v-1h.43v1zm-.94 2.74v-.5h-1.43v7.47h1.43v-.5h-.93v-6.47h.93zm-1.43-4.24v2h1.43v-2h-1.43zm.93 1.5h-.43v-1h.43v1zm-4.38 2.24v.5h2.94v6.48h-2.44v-.01h-.5v.51h3.44v-7.48h-3.44zm0-3.17v1.43h3.44V15.8h-3.44zm2.94.93h-2.44v-.43h2.44v.43zm-3.53 9.73-.85.67-.01.01-2 1.61H15l-2.87-2.29zm0 .64 1.44 1.15H10.7l1.43-1.15zm.57-7.63v-.5h-1.42v8.16l.85-.69h.57v-.5h-.57a.51.51 0 0 0-.31.11l-.04.04v-6.62h.92zm-1.42-4.24v2h1.42v-2h-1.42zm.92 1.5h-.42v-1h.42v1zm.5 2.74v-.5h-1.42v8.16l.85-.69h.57v-.5h-.57a.51.51 0 0 0-.31.11l-.04.04v-6.62h.92zm-.57 6.99-.85.67-.01.01-2 1.61H15l-2.87-2.29zm0 .64 1.44 1.15H10.7l1.43-1.15zm.59-8.13v.5h2.94v6.48h-2.44v-.01h-.5v.51h3.44v-7.48h-3.44zm4.88.5v-.5h-1.43v7.47h1.43v-.5h-.93v-6.47h.93zm1.19 6.48v.24h-.93v-.25h-.25v.5h1.43v-.49h-.25zm-1.18-6.98v.5h.25v-.25h.93v.25h.25v-.5h-1.43zm2.21 18.13h.01v-.03l-.01.03zm-7.67-10.64 2.87 2.29h4.31l3.15-2.29H12.15zm3.04 1.79-1.61-1.29h7.37l-1.78 1.29h-3.98zm7.31-1.79-3.15 2.29h6.3l-3.15-2.29zm0 .62 1.61 1.17h-3.22l1.61-1.17zm-3.16 1.68v9.75l.49-1.48v-7.77h5.37v7.86l.46 1.39v-9.75h-6.32zm-.29-9.79v.5h6.9v-.5h-6.9zm0 6.98v.49h6.9v-.49h-6.9zm6.91-6.98v.5h.93v6.47h-.36v.01h-.57v.49h1.43v-7.47h-1.43zm2.87.5v-.5H27.4v7.47h1.43v-.5h-.93v-6.47h.93zm.01 6.47v.5h3.44v-.5h-3.44zm0-6.97v.5h3.44v-.5h-3.44zm-6.32 7.49 3.15 2.29h4.31l2.87-2.29H22.52zm3.31 1.79-1.78-1.29h7.37l-1.61 1.29h-3.98zm6.46-9.28v.5h.93v6.62l-.04-.04a.517.517 0 0 0-.32-.11h-.57v.5h.57c.01 0 .01.01.01.01l.85.68v-8.16h-1.43zm.57 7.49h-.01L30 28.75h5.73l-2.87-2.29zm0 .64 1.44 1.15h-2.87l1.43-1.15zM11.28 15.23v2h1.42v-2h-1.42zm.92 1.5h-.42v-1h.42v1zm.52-.93v1.43h3.44V15.8h-3.44zm2.94.93h-2.44v-.43h2.44v.43zm.51-1.5v2h1.43v-2h-1.43zm.93 1.5h-.43v-1h.43v1zm.51-1.5v2h1.43v-2h-1.43zm.93 1.5h-.43v-1h.43v1zm.51-.93v1.43h6.9V15.8h-6.9zm6.4.93h-5.9v-.43h5.9v.43zm.51-1.5v2h1.43v-2h-1.43zm.93 1.5h-.43v-1h.43v1zm.51-1.5v2h1.43v-2H27.4zm.93 1.5h-.43v-1h.43v1zm.51-.93v1.43h3.44V15.8h-3.44zm2.94.93h-2.44v-.43h2.44v.43zm.51-1.5v2h1.43v-2h-1.43zm.93 1.5h-.43v-1h.43v1zM20.78 8.89v1.14h3.44V8.89h-3.44zm3.19.64h-2.94v-.39h2.94v.39zm8.89 16.93h-.01L30 28.75h5.73l-2.87-2.29zm0 .64 1.44 1.15h-2.87l1.43-1.15zm-.57-8.13v.5h.93v6.62l-.04-.04a.517.517 0 0 0-.32-.11h-.57v.5h.57c.01 0 .01.01.01.01l.85.68v-8.16h-1.43zm0-3.74v2h1.43v-2h-1.43zm.93 1.5h-.43v-1h.43v1zm-10.7 9.73 3.15 2.29h4.31l2.87-2.29H22.52zm3.31 1.79-1.78-1.29h7.37l-1.61 1.29h-3.98zm3.01-2.31v.5h3.44v-.5h-3.44zm0-6.97v.5h3.44v-.5h-3.44zm0-3.17v1.43h3.44V15.8h-3.44zm2.94.93h-2.44v-.43h2.44v.43zm-2.95 2.74v-.5H27.4v7.47h1.43v-.5h-.93v-6.47h.93zm-1.43-4.24v2h1.43v-2H27.4zm.93 1.5h-.43v-1h.43v1zm-2.37 2.24v.5h.93v6.47h-.36v.01h-.57v.49h1.43v-7.47h-1.43zm0-3.74v2h1.43v-2h-1.43zm.93 1.5h-.43v-1h.43v1zm-7.84 2.24v.5h6.9v-.5h-6.9zm0 6.98v.49h6.9v-.49h-6.9zm0-10.15v1.43h6.9V15.8h-6.9zm6.4.93h-5.9v-.43h5.9v.43zm-6.11 12.03v9.75l.49-1.48v-7.77h5.37v7.86l.46 1.39v-9.75h-6.32zm3.16-2.3-3.15 2.29h6.3l-3.15-2.29zm0 .62 1.61 1.17h-3.22l1.61-1.17zM20.78 8.89v1.14h3.44V8.89h-3.44zm3.19.64h-2.94v-.39h2.94v.39zM12.15 26.46l2.87 2.29h4.31l3.15-2.29H12.15zm3.04 1.79-1.61-1.29h7.37l-1.78 1.29h-3.98zm4.63 8.85h.01v-.03l-.01.03zm-1.03-11.15v.24h-.93v-.25h-.25v.5h1.43v-.49h-.25zm-1.18-6.98v.5h.25v-.25h.93v.25h.25v-.5h-1.43zm0-3.74v2h1.43v-2h-1.43zm.93 1.5h-.43v-1h.43v1zm-.94 2.74v-.5h-1.43v7.47h1.43v-.5h-.93v-6.47h.93zm-1.43-4.24v2h1.43v-2h-1.43zm.93 1.5h-.43v-1h.43v1zm-4.38 2.24v.5h2.94v6.48h-2.44v-.01h-.5v.51h3.44v-7.48h-3.44zm0-3.17v1.43h3.44V15.8h-3.44zm2.94.93h-2.44v-.43h2.44v.43zm-3.53 9.73-.85.67-.01.01-2 1.61H15l-2.87-2.29zm0 .64 1.44 1.15H10.7l1.43-1.15zm.57-7.63v-.5h-1.42v8.16l.85-.69h.57v-.5h-.57a.51.51 0 0 0-.31.11l-.04.04v-6.62h.92zm-1.42-4.24v2h1.42v-2h-1.42zm.92 1.5h-.42v-1h.42v1zm.5 2.74v-.5h-1.42v8.16l.85-.69h.57v-.5h-.57a.51.51 0 0 0-.31.11l-.04.04v-6.62h.92zm-.57 6.99-.85.67-.01.01-2 1.61H15l-2.87-2.29zm0 .64 1.44 1.15H10.7l1.43-1.15zm.59-8.13v.5h2.94v6.48h-2.44v-.01h-.5v.51h3.44v-7.48h-3.44zm4.88.5v-.5h-1.43v7.47h1.43v-.5h-.93v-6.47h.93zm1.19 6.48v.24h-.93v-.25h-.25v.5h1.43v-.49h-.25zm-1.18-6.98v.5h.25v-.25h.93v.25h.25v-.5h-1.43zm2.21 18.13h.01v-.03l-.01.03zm-7.67-10.64 2.87 2.29h4.31l3.15-2.29H12.15zm3.04 1.79-1.61-1.29h7.37l-1.78 1.29h-3.98zm7.31-1.79-3.15 2.29h6.3l-3.15-2.29zm0 .62 1.61 1.17h-3.22l1.61-1.17zm-3.16 1.68v9.75l.49-1.48v-7.77h5.37v7.86l.46 1.39v-9.75h-6.32zm-.29-9.79v.5h6.9v-.5h-6.9zm0 6.98v.49h6.9v-.49h-6.9zm6.91-6.98v.5h.93v6.47h-.36v.01h-.57v.49h1.43v-7.47h-1.43zm2.87.5v-.5H27.4v7.47h1.43v-.5h-.93v-6.47h.93zm-3.16 9.29v9.78h4.31v-9.78h-4.31zm3.81 9.28h-3.31v-8.78h3.31v8.78zm-.64-12.1v.5h3.44v-.5h-3.44zm0-6.97v.5h3.44v-.5h-3.44zm-6.32 7.49 3.15 2.29h4.31l2.87-2.29H22.52zm3.31 1.79-1.78-1.29h7.37l-1.61 1.29h-3.98zm6.46-9.28v.5h.93v6.62l-.04-.04a.517.517 0 0 0-.32-.11h-.57v.5h.57c.01 0 .01.01.01.01l.85.68v-8.16h-1.43zm.57 7.49h-.01L30 28.75h5.73l-2.87-2.29zm0 .64 1.44 1.15h-2.87l1.43-1.15zm-2.87 1.66v9.78h1.72v-6.33c0-.24.07-.46.2-.64-.12.18-.19.4-.19.64v6.33h2.29v-6.33c0-.23-.07-.45-.19-.64.13.18.2.4.2.64v6.33h1.72v-9.78h-5.75zm5.25 9.28h-.72v-5.83a1.656 1.656 0 1 0-3.31 0v5.83h-.72v-8.78h4.75v8.78zm-1.73 0h-1.29v-5.83c0-.36.29-.65.64-.65.36 0 .65.29.65.65v5.83zm-.65-6.98c-.32 0-.6.13-.81.34.2-.22.49-.35.81-.35s.62.13.82.35c-.21-.21-.5-.34-.82-.34zM11.28 15.23v2h1.42v-2h-1.42zm.92 1.5h-.42v-1h.42v1zm.52-.93v1.43h3.44V15.8h-3.44zm2.94.93h-2.44v-.43h2.44v.43zm.51-1.5v2h1.43v-2h-1.43zm.93 1.5h-.43v-1h.43v1zm.51-1.5v2h1.43v-2h-1.43zm.93 1.5h-.43v-1h.43v1zm.51-.93v1.43h6.9V15.8h-6.9zm6.4.93h-5.9v-.43h5.9v.43zm.51-1.5v2h1.43v-2h-1.43zm.93 1.5h-.43v-1h.43v1zm.51-1.5v2h1.43v-2H27.4zm.93 1.5h-.43v-1h.43v1zm.51-.93v1.43h3.44V15.8h-3.44zm2.94.93h-2.44v-.43h2.44v.43zm.51-1.5v2h1.43v-2h-1.43zm.93 1.5h-.43v-1h.43v1zM20.78 8.89v1.14h3.44V8.89h-3.44zm3.19.64h-2.94v-.39h2.94v.39zm6.02 19.23v9.78h1.72v-6.33c0-.24.07-.46.2-.64-.12.18-.19.4-.19.64v6.33h2.29v-6.33c0-.23-.07-.45-.19-.64.13.18.2.4.2.64v6.33h1.72v-9.78h-5.75zm5.25 9.28h-.72v-5.83a1.656 1.656 0 1 0-3.31 0v5.83h-.72v-8.78h4.75v8.78zm-1.73 0h-1.29v-5.83c0-.36.29-.65.64-.65.36 0 .65.29.65.65v5.83zm-.65-6.98c-.32 0-.6.13-.81.34.2-.22.49-.35.81-.35s.62.13.82.35c-.21-.21-.5-.34-.82-.34zm0-4.6h-.01L30 28.75h5.73l-2.87-2.29zm0 .64 1.44 1.15h-2.87l1.43-1.15zm-.57-8.13v.5h.93v6.62l-.04-.04a.517.517 0 0 0-.32-.11h-.57v.5h.57c.01 0 .01.01.01.01l.85.68v-8.16h-1.43zm0-3.74v2h1.43v-2h-1.43zm.93 1.5h-.43v-1h.43v1zm-10.7 9.73 3.15 2.29h4.31l2.87-2.29H22.52zm3.31 1.79-1.78-1.29h7.37l-1.61 1.29h-3.98zm3.01-2.31v.5h3.44v-.5h-3.44zm0-6.97v.5h3.44v-.5h-3.44zm0-3.17v1.43h3.44V15.8h-3.44zm2.94.93h-2.44v-.43h2.44v.43zm-6.11 12.03v9.78h4.31v-9.78h-4.31zm3.81 9.28h-3.31v-8.78h3.31v8.78zm-.65-18.57v-.5H27.4v7.47h1.43v-.5h-.93v-6.47h.93zm-1.43-4.24v2h1.43v-2H27.4zm.93 1.5h-.43v-1h.43v1zm-2.37 2.24v.5h.93v6.47h-.36v.01h-.57v.49h1.43v-7.47h-1.43zm0-3.74v2h1.43v-2h-1.43zm.93 1.5h-.43v-1h.43v1zm-7.84 2.24v.5h6.9v-.5h-6.9zm0 6.98v.49h6.9v-.49h-6.9zm0-10.15v1.43h6.9V15.8h-6.9zm6.4.93h-5.9v-.43h5.9v.43zm-6.11 12.03v9.75l.49-1.48v-7.77h5.37v7.86l.46 1.39v-9.75h-6.32zm3.16-2.3-3.15 2.29h6.3l-3.15-2.29zm0 .62 1.61 1.17h-3.22l1.61-1.17zM20.78 8.89v1.14h3.44V8.89h-3.44zm3.19.64h-2.94v-.39h2.94v.39zM12.15 26.46l2.87 2.29h4.31l3.15-2.29H12.15zm3.04 1.79-1.61-1.29h7.37l-1.78 1.29h-3.98zm4.63 8.85h.01v-.03l-.01.03zm-1.03-11.15v.24h-.93v-.25h-.25v.5h1.43v-.49h-.25zm-1.18-6.98v.5h.25v-.25h.93v.25h.25v-.5h-1.43zm0-3.74v2h1.43v-2h-1.43zm.93 1.5h-.43v-1h.43v1zm-.94 2.74v-.5h-1.43v7.47h1.43v-.5h-.93v-6.47h.93zm-1.43-4.24v2h1.43v-2h-1.43zm.93 1.5h-.43v-1h.43v1zm-4.38 2.24v.5h2.94v6.48h-2.44v-.01h-.5v.51h3.44v-7.48h-3.44zm0-3.17v1.43h3.44V15.8h-3.44zm2.94.93h-2.44v-.43h2.44v.43zm-3.53 9.73-.85.67-.01.01-2 1.61H15l-2.87-2.29zm0 .64 1.44 1.15H10.7l1.43-1.15zm.57-7.63v-.5h-1.42v8.16l.85-.69h.57v-.5h-.57a.51.51 0 0 0-.31.11l-.04.04v-6.62h.92zm-1.42-4.24v2h1.42v-2h-1.42zm.92 1.5h-.42v-1h.42v1zm-.92-1.5v2h1.42v-2h-1.42zm.92 1.5h-.42v-1h.42v1zm.5 2.74v-.5h-1.42v8.16l.85-.69h.57v-.5h-.57a.51.51 0 0 0-.31.11l-.04.04v-6.62h.92zm-.57 6.99-.85.67-.01.01-2 1.61H15l-2.87-2.29zm0 .64 1.44 1.15H10.7l1.43-1.15zm-2.87 1.66v9.78h1.72v-6.33c0-.24.07-.46.2-.64-.12.18-.19.4-.19.64v6.33h2.29v-6.33c0-.63-.51-1.15-1.15-1.15-.31 0-.6.13-.81.34.2-.22.49-.35.81-.35.64 0 1.16.52 1.16 1.16v6.33h1.72v-9.78H9.26zm2.87 2.8c.36 0 .65.29.65.65v5.83h-1.29v-5.83c0-.36.29-.65.64-.65zm2.38 6.48h-.72v-5.83a1.656 1.656 0 1 0-3.31 0v5.83h-.72v-8.78h4.75v8.78zM12.72 15.8v1.43h3.44V15.8h-3.44zm2.94.93h-2.44v-.43h2.44v.43zm-2.94 2.24v.5h2.94v6.48h-2.44v-.01h-.5v.51h3.44v-7.48h-3.44zm4.57-6.84c-.02-.07-.05-.13-.08-.2-.03-.06-.08-.12-.12-.17-.05-.05-.11-.1-.17-.14l-.15-.1-.02.01c-.05.04-.09.07-.13.11-.31.26-.6.55-.87.87l-.12.14.1.15c.04.06.09.12.14.17s.11.09.17.12c.12.07.26.11.41.11a.888.888 0 0 0 .72-.38c.09-.14.14-.3.14-.48 0-.07-.01-.14-.02-.21zm-1.01.53c.16-.17.32-.33.49-.49.03.06.04.11.04.17 0 .26-.31.43-.53.32zm-.11 2.57v2h1.43v-2h-1.43zm.93 1.5h-.43v-1h.43v1zm.5 2.74v-.5h-1.43v7.47h1.43v-.5h-.93v-6.47h.93zm.01-4.24v2h1.43v-2h-1.43zm.93 1.5h-.43v-1h.43v1zm.25 9.22v.24h-.93v-.25h-.25v.5h1.43v-.49h-.25zm-1.18-6.98v.5h.25v-.25h.93v.25h.25v-.5h-1.43zm-2.59 9.79v9.78h4.31v-9.78h-4.31zm3.81 9.28h-3.31v-8.78h3.31v8.78zm.99-.94h.01v-.03l-.01.03zm-7.67-10.64 2.87 2.29h4.31l3.15-2.29H12.15zm3.04 1.79-1.61-1.29h7.37l-1.78 1.29h-3.98zm5.59-19.36v1.14h3.44V8.89h-3.44zm3.19.64h-2.94v-.39h2.94v.39zM22.5 26.46l-3.15 2.29h6.3l-3.15-2.29zm0 .62 1.61 1.17h-3.22l1.61-1.17zm2.7 10.09v.87h-5.37v-.93h-.01l-.48 1.43h6.32l-.46-1.37zm-5.86-8.41v9.75l.49-1.48v-7.77h5.37v7.86l.46 1.39v-9.75h-6.32zm-.29-12.96v1.43h6.9V15.8h-6.9zm6.4.93h-5.9v-.43h5.9v.43zm-6.4 2.24v.5h6.9v-.5h-6.9zm0 6.98v.49h6.9v-.49h-6.9zm8.02-11.02c-.06-.49-.17-.95-.31-1.4-.08-.22-.16-.44-.26-.65-.09-.21-.2-.42-.31-.62-.12-.2-.25-.4-.38-.59-.14-.19-.29-.38-.45-.56-.15-.18-.32-.35-.5-.52-.18-.17-.37-.33-.57-.49l-.07-.06h-3.45l-.06.06c-.6.47-1.11 1-1.52 1.57-.13.19-.26.39-.38.59-.11.2-.22.41-.31.62-.1.21-.18.43-.26.65-.14.45-.25.91-.31 1.4l-.04.28 1.16.01v.57h6.9v-.58h1.15l-.03-.28zm-1.12-.22c-.27 0-.5.23-.5.51v.07h-5.9v-.07c0-.28-.23-.51-.51-.51h-.57c.27-1.65 1.11-3.06 2.48-4.17h3.1c1.37 1.11 2.2 2.52 2.48 4.17h-.58zm.01.52v2h1.43v-2h-1.43zm.93 1.5h-.43v-1h.43v1zm-.93 2.24v.5h.93v6.47h-.36v.01h-.57v.49h1.43v-7.47h-1.43zm1.44-3.74v2h1.43v-2H27.4zm.93 1.5h-.43v-1h.43v1zm.5 2.74v-.5H27.4v7.47h1.43v-.5h-.93v-6.47h.93zm.42-6.97c-.27-.31-.57-.6-.88-.86l-.12-.1c0-.01-.01-.01-.01-.01l-.01-.01-.15.1c-.06.04-.12.09-.17.14-.04.05-.09.11-.12.17-.03.07-.06.13-.08.2-.01.07-.02.14-.02.21 0 .18.05.34.14.48.03.05.07.09.11.13.16.15.37.25.61.25.15 0 .29-.04.41-.11.06-.03.12-.07.17-.12s.1-.11.14-.17l.1-.15a.789.789 0 0 0-.12-.15zm-1.06-.16c0-.06.01-.11.04-.17.17.16.33.32.49.49-.22.11-.53-.06-.53-.32zm-2.52 16.42v9.78h4.31v-9.78h-4.31zm3.81 9.28h-3.31v-8.78h3.31v8.78zm-.64-22.24v1.43h3.44V15.8h-3.44zm2.94.93h-2.44v-.43h2.44v.43zm-2.94 9.21v.5h3.44v-.5h-3.44zm0-6.97v.5h3.44v-.5h-3.44zm-6.32 7.49 3.15 2.29h4.31l2.87-2.29H22.52zm3.31 1.79-1.78-1.29h7.37l-1.61 1.29h-3.98zm6.46-13.02v2h1.43v-2h-1.43zm.93 1.5h-.43v-1h.43v1zm-.93 2.24v.5h.93v6.62l-.04-.04a.517.517 0 0 0-.32-.11h-.57v.5h.57c.01 0 .01.01.01.01l.85.68v-8.16h-1.43zm2.05-1.48c-.01-.01-.02-.01-.03-.03a.974.974 0 0 0-.24-.15h-.01a.725.725 0 0 0-.33-.07H11.27c-.12 0-.23.02-.33.07h-.01c-.09.04-.17.09-.24.15-.01.02-.02.02-.03.03-.15.16-.25.37-.25.61 0 .17.05.33.14.48.03.04.07.09.11.13.1.09.22.17.34.21.02.01.04.01.07.02.07.01.13.02.2.02h22.46c.17 0 .34-.06.48-.15.05-.02.09-.06.13-.1.15-.16.25-.37.25-.61s-.1-.45-.25-.61zm-.61.97H11.27c-.1 0-.19-.04-.25-.11a.358.358 0 0 1-.11-.25c0-.2.16-.36.36-.36h22.46c.2 0 .36.16.36.36s-.16.36-.36.36zm-.87 8h-.01L30 28.75h5.73l-2.87-2.29zm0 .64 1.44 1.15h-2.87l1.43-1.15zm-2.87 1.66v9.78h1.72v-6.33c0-.24.07-.46.2-.64-.12.18-.19.4-.19.64v6.33h2.29v-6.33c0-.23-.07-.45-.19-.64.13.18.2.4.2.64v6.33h1.72v-9.78h-5.75zm5.25 9.28h-.72v-5.83a1.656 1.656 0 1 0-3.31 0v5.83h-.72v-8.78h4.75v8.78zm-1.73 0h-1.29v-5.83c0-.36.29-.65.64-.65.36 0 .65.29.65.65v5.83zm-.65-6.98c-.32 0-.6.13-.81.34.2-.22.49-.35.81-.35s.62.13.82.35c-.21-.21-.5-.34-.82-.34zm-2.87-2.3v9.78h1.72v-6.33c0-.24.07-.46.2-.64-.12.18-.19.4-.19.64v6.33h2.29v-6.33c0-.23-.07-.45-.19-.64.13.18.2.4.2.64v6.33h1.72v-9.78h-5.75zm5.25 9.28h-.72v-5.83a1.656 1.656 0 1 0-3.31 0v5.83h-.72v-8.78h4.75v8.78zm-1.73 0h-1.29v-5.83c0-.36.29-.65.64-.65.36 0 .65.29.65.65v5.83zm-.65-6.98c-.32 0-.6.13-.81.34.2-.22.49-.35.81-.35s.62.13.82.35c-.21-.21-.5-.34-.82-.34zm.96.51a1.151 1.151 0 0 0-.96-.51c-.32 0-.6.13-.81.34-.05.05-.09.11-.14.17-.12.18-.19.4-.19.64v6.33h2.29v-6.33c0-.23-.07-.45-.19-.64zm-.31 6.47h-1.29v-5.83c0-.36.29-.65.64-.65.36 0 .65.29.65.65v5.83zm-7.84-9.28v9.78h4.31v-9.78h-4.31zm3.81 9.28h-3.31v-8.78h3.31v8.78zm-4.28-.87v.87h-5.37v-.93h-.01l-.48 1.43h6.32l-.46-1.37zm-10.18-8.41v9.78h4.31v-9.78h-4.31zm3.81 9.28h-3.31v-8.78h3.31v8.78zm-9.57-9.28v9.78h1.72v-6.33c0-.24.07-.46.2-.64.05-.06.09-.12.14-.17.2-.22.49-.35.81-.35.64 0 1.16.52 1.16 1.16v6.33h1.72v-9.78H9.26zm5.25 9.28h-.72v-5.83a1.656 1.656 0 1 0-3.31 0v5.83h-.72v-8.78h4.75v8.78zm-2.38-6.98c-.31 0-.6.13-.81.34-.05.05-.09.11-.14.17-.12.18-.19.4-.19.64v6.33h2.29v-6.33c0-.63-.51-1.15-1.15-1.15zm.65 6.98h-1.29v-5.83c0-.36.29-.65.64-.65.36 0 .65.29.65.65v5.83zm6.56-9.28v9.75l.49-1.48v-7.77h5.37v7.86l.46 1.39v-9.75h-6.32zm.48 8.34h.01v-.03l-.01.03zm13.04-10.64h-.01L30 28.75h5.73l-2.87-2.29zm0 .64 1.44 1.15h-2.87l1.43-1.15zm-10.34-.64 3.15 2.29h4.31l2.87-2.29H22.52zm3.31 1.79-1.78-1.29h7.37l-1.61 1.29h-3.98zm-3.33-1.79-3.15 2.29h6.3l-3.15-2.29zm0 .62 1.61 1.17h-3.22l1.61-1.17zm-10.35-.62 2.87 2.29h4.31l3.15-2.29H12.15zm3.04 1.79-1.61-1.29h7.37l-1.78 1.29h-3.98zm-3.06-1.79-.85.67-.01.01-2 1.61H15l-2.87-2.29zm0 .64 1.44 1.15H10.7l1.43-1.15zm.57-7.63v-.5h-1.42v8.16l.85-.69h.57v-.5h-.57a.51.51 0 0 0-.31.11l-.04.04v-6.62h.92zm19.59-.5v.5h.93v6.62l-.04-.04a.517.517 0 0 0-.32-.11h-.57v.5h.57c.01 0 .01.01.01.01l.85.68v-8.16h-1.43zm-19.57 0v.5h2.94v6.48h-2.44v-.01h-.5v.51h3.44v-7.48h-3.44zm16.12 6.97v.5h3.44v-.5h-3.44zm0-6.97v.5h3.44v-.5h-3.44zm-.01.5v-.5H27.4v7.47h1.43v-.5h-.93v-6.47h.93zm-2.87-.5v.5h.93v6.47h-.36v.01h-.57v.49h1.43v-7.47h-1.43zm-6.91 0v.5h6.9v-.5h-6.9zm0 6.98v.49h6.9v-.49h-6.9zm-.26 0h-.93v-.01h-.25v.5h1.43v-.49h-.25zm-1.18-6.98v.5H19.04v-.5h-1.43zm-.01.5v-.5h-1.43v7.47h1.43v-.5h-.93v-6.47h.93zm16.74-1.98c-.01-.01-.02-.01-.03-.03a.974.974 0 0 0-.24-.15h-.01a.725.725 0 0 0-.33-.07H11.27c-.12 0-.23.02-.33.07h-.01c-.09.04-.17.09-.24.15-.01.02-.02.02-.03.03-.15.16-.25.37-.25.61 0 .17.05.33.14.48.03.04.07.09.11.13.1.09.22.17.34.21.02.01.04.01.07.02.07.01.13.02.2.02h22.46c.17 0 .34-.06.48-.15.05-.02.09-.06.13-.1.15-.16.25-.37.25-.61s-.1-.45-.25-.61zm-.61.97H11.27c-.1 0-.19-.04-.25-.11a.358.358 0 0 1-.11-.25c0-.2.16-.36.36-.36h22.46c.2 0 .36.16.36.36s-.16.36-.36.36zm-1.44-3.23v2h1.43v-2h-1.43zm.93 1.5h-.43v-1h.43v1zm-4.38-.93v1.43h3.44V15.8h-3.44zm2.94.93h-2.44v-.43h2.44v.43zm-4.38-1.5v2h1.43v-2H27.4zm.93 1.5h-.43v-1h.43v1zm-2.37-1.5v2h1.43v-2h-1.43zm.93 1.5h-.43v-1h.43v1zm-7.84-.93v1.43h6.9V15.8h-6.9zm6.4.93h-5.9v-.43h5.9v.43zm-7.84-1.5v2h1.43v-2h-1.43zm.93 1.5h-.43v-1h.43v1zm-2.37-1.5v2h1.43v-2h-1.43zm.93 1.5h-.43v-1h.43v1zm-4.38-.93v1.43h3.44V15.8h-3.44zm2.94.93h-2.44v-.43h2.44v.43zm-4.38-1.5v2h1.42v-2h-1.42zm.92 1.5h-.42v-1h.42v1zm14.87-1.8c-.06-.49-.17-.95-.31-1.4-.08-.22-.16-.44-.26-.65-.09-.21-.2-.42-.31-.62-.12-.2-.25-.4-.38-.59-.14-.19-.29-.38-.45-.56-.15-.18-.32-.35-.5-.52-.18-.17-.37-.33-.57-.49l-.07-.06h-3.45l-.06.06c-.6.47-1.11 1-1.52 1.57-.13.19-.26.39-.38.59-.11.2-.22.41-.31.62-.1.21-.18.43-.26.65-.14.45-.25.91-.31 1.4l-.04.28 1.16.01v.57h6.9v-.58h1.15l-.03-.28zm-1.12-.22c-.27 0-.5.23-.5.51v.07h-5.9v-.07c0-.28-.23-.51-.51-.51h-.57c.27-1.65 1.11-3.06 2.48-4.17h3.1c1.37 1.11 2.2 2.52 2.48 4.17h-.58zm3.3-2.21c-.27-.31-.57-.6-.88-.86l-.12-.1c0-.01-.01-.01-.01-.01l-.01-.01-.15.1c-.06.04-.12.09-.17.14-.04.05-.09.11-.12.17-.03.07-.06.13-.08.2-.01.07-.02.14-.02.21 0 .18.05.34.14.48.03.05.07.09.11.13.16.15.37.25.61.25.15 0 .29-.04.41-.11.06-.03.12-.07.17-.12s.1-.11.14-.17l.1-.15a.789.789 0 0 0-.12-.15zm-1.06-.16c0-.06.01-.11.04-.17.17.16.33.32.49.49-.22.11-.53-.06-.53-.32zm-10.9-.21c-.02-.07-.05-.13-.08-.2-.03-.06-.08-.12-.12-.17-.05-.05-.11-.1-.17-.14l-.15-.1-.02.01c-.05.04-.09.07-.13.11-.31.26-.6.55-.87.87l-.12.14.1.15c.04.06.09.12.14.17s.11.09.17.12c.12.07.26.11.41.11a.888.888 0 0 0 .72-.38c.09-.14.14-.3.14-.48 0-.07-.01-.14-.02-.21zm-1.01.53c.16-.17.32-.33.49-.49.03.06.04.11.04.17 0 .26-.31.43-.53.32zm4.5-3.77v1.14h3.44V8.89h-3.44zm3.19.64h-2.94v-.39h2.94v.39z"/><path class="st1" d="M22.5 11.22c-.62 0-1.12.51-1.12 1.12 0 .62.5 1.12 1.12 1.12s1.12-.5 1.12-1.12-.5-1.12-1.12-1.12zm0 1.73c-.34 0-.61-.27-.61-.61 0-.33.27-.61.61-.61s.61.28.61.61c0 .34-.27.61-.61.61z"/><path class="st1" d="M22.5 11.48c-.47 0-.86.39-.86.86a.86.86 0 1 0 1.72 0c0-.47-.39-.86-.86-.86zm0 1.22c-.2 0-.36-.16-.36-.36 0-.2.16-.36.36-.36s.36.16.36.36c0 .2-.16.36-.36.36zm0-1.22c-.47 0-.86.39-.86.86a.86.86 0 1 0 1.72 0c0-.47-.39-.86-.86-.86zm0 1.22c-.2 0-.36-.16-.36-.36 0-.2.16-.36.36-.36s.36.16.36.36c0 .2-.16.36-.36.36zm0-1.22c-.47 0-.86.39-.86.86a.86.86 0 1 0 1.72 0c0-.47-.39-.86-.86-.86zm0 1.22c-.2 0-.36-.16-.36-.36 0-.2.16-.36.36-.36s.36.16.36.36c0 .2-.16.36-.36.36zm0-1.22c-.47 0-.86.39-.86.86a.86.86 0 1 0 1.72 0c0-.47-.39-.86-.86-.86zm0 1.22c-.2 0-.36-.16-.36-.36 0-.2.16-.36.36-.36s.36.16.36.36c0 .2-.16.36-.36.36zm0-1.22c-.47 0-.86.39-.86.86a.86.86 0 1 0 1.72 0c0-.47-.39-.86-.86-.86zm0 1.22c-.2 0-.36-.16-.36-.36 0-.2.16-.36.36-.36s.36.16.36.36c0 .2-.16.36-.36.36zm0-1.22c-.47 0-.86.39-.86.86a.86.86 0 1 0 1.72 0c0-.47-.39-.86-.86-.86zm0 1.22c-.2 0-.36-.16-.36-.36 0-.2.16-.36.36-.36s.36.16.36.36c0 .2-.16.36-.36.36zm0-1.22c-.47 0-.86.39-.86.86a.86.86 0 1 0 1.72 0c0-.47-.39-.86-.86-.86zm0 1.22c-.2 0-.36-.16-.36-.36 0-.2.16-.36.36-.36s.36.16.36.36c0 .2-.16.36-.36.36zm0-1.22c-.47 0-.86.39-.86.86a.86.86 0 1 0 1.72 0c0-.47-.39-.86-.86-.86zm0 1.22c-.2 0-.36-.16-.36-.36 0-.2.16-.36.36-.36s.36.16.36.36c0 .2-.16.36-.36.36zm0-1.22c-.47 0-.86.39-.86.86a.86.86 0 1 0 1.72 0c0-.47-.39-.86-.86-.86zm0 1.22c-.2 0-.36-.16-.36-.36 0-.2.16-.36.36-.36s.36.16.36.36c0 .2-.16.36-.36.36zm0-1.22c-.47 0-.86.39-.86.86a.86.86 0 1 0 1.72 0c0-.47-.39-.86-.86-.86zm0 1.22c-.2 0-.36-.16-.36-.36 0-.2.16-.36.36-.36s.36.16.36.36c0 .2-.16.36-.36.36zm0-1.22c-.47 0-.86.39-.86.86a.86.86 0 1 0 1.72 0c0-.47-.39-.86-.86-.86zm0 1.22c-.2 0-.36-.16-.36-.36 0-.2.16-.36.36-.36s.36.16.36.36c0 .2-.16.36-.36.36zm0-1.22c-.47 0-.86.39-.86.86a.86.86 0 1 0 1.72 0c0-.47-.39-.86-.86-.86zm0 1.22c-.2 0-.36-.16-.36-.36 0-.2.16-.36.36-.36s.36.16.36.36c0 .2-.16.36-.36.36zm0-1.22c-.47 0-.86.39-.86.86a.86.86 0 1 0 1.72 0c0-.47-.39-.86-.86-.86zm0 1.22c-.2 0-.36-.16-.36-.36 0-.2.16-.36.36-.36s.36.16.36.36c0 .2-.16.36-.36.36zm0-1.22c-.47 0-.86.39-.86.86a.86.86 0 1 0 1.72 0c0-.47-.39-.86-.86-.86zm0 1.22c-.2 0-.36-.16-.36-.36 0-.2.16-.36.36-.36s.36.16.36.36c0 .2-.16.36-.36.36zm0-1.22c-.47 0-.86.39-.86.86a.86.86 0 1 0 1.72 0c0-.47-.39-.86-.86-.86zm0 1.22c-.2 0-.36-.16-.36-.36 0-.2.16-.36.36-.36s.36.16.36.36c0 .2-.16.36-.36.36zm0-1.22c-.47 0-.86.39-.86.86a.86.86 0 1 0 1.72 0c0-.47-.39-.86-.86-.86zm0 1.22c-.2 0-.36-.16-.36-.36 0-.2.16-.36.36-.36s.36.16.36.36c0 .2-.16.36-.36.36zm0-1.22c-.47 0-.86.39-.86.86a.86.86 0 1 0 1.72 0c0-.47-.39-.86-.86-.86zm0 1.22c-.2 0-.36-.16-.36-.36 0-.2.16-.36.36-.36s.36.16.36.36c0 .2-.16.36-.36.36zm0-1.22c-.47 0-.86.39-.86.86a.86.86 0 1 0 1.72 0c0-.47-.39-.86-.86-.86zm0 1.22c-.2 0-.36-.16-.36-.36 0-.2.16-.36.36-.36s.36.16.36.36c0 .2-.16.36-.36.36zm0-1.73c-.75 0-1.37.62-1.37 1.37 0 .76.62 1.37 1.37 1.37s1.37-.61 1.37-1.37c0-.75-.62-1.37-1.37-1.37zm0 2.24a.87.87 0 1 1 .001-1.741.87.87 0 0 1-.001 1.741zm0-1.73c-.47 0-.86.39-.86.86a.86.86 0 1 0 1.72 0c0-.47-.39-.86-.86-.86zm0 1.22c-.2 0-.36-.16-.36-.36 0-.2.16-.36.36-.36s.36.16.36.36c0 .2-.16.36-.36.36zm0-1.22c-.47 0-.86.39-.86.86a.86.86 0 1 0 1.72 0c0-.47-.39-.86-.86-.86zm0 1.22c-.2 0-.36-.16-.36-.36 0-.2.16-.36.36-.36s.36.16.36.36c0 .2-.16.36-.36.36zm0-1.22c-.47 0-.86.39-.86.86a.86.86 0 1 0 1.72 0c0-.47-.39-.86-.86-.86zm0 1.22c-.2 0-.36-.16-.36-.36 0-.2.16-.36.36-.36s.36.16.36.36c0 .2-.16.36-.36.36zm0-1.22c-.47 0-.86.39-.86.86a.86.86 0 1 0 1.72 0c0-.47-.39-.86-.86-.86zm0 1.22c-.2 0-.36-.16-.36-.36 0-.2.16-.36.36-.36s.36.16.36.36c0 .2-.16.36-.36.36zm0-1.22c-.47 0-.86.39-.86.86a.86.86 0 1 0 1.72 0c0-.47-.39-.86-.86-.86zm0 1.22c-.2 0-.36-.16-.36-.36 0-.2.16-.36.36-.36s.36.16.36.36c0 .2-.16.36-.36.36zm0-1.22c-.47 0-.86.39-.86.86a.86.86 0 1 0 1.72 0c0-.47-.39-.86-.86-.86zm0 1.22c-.2 0-.36-.16-.36-.36 0-.2.16-.36.36-.36s.36.16.36.36c0 .2-.16.36-.36.36zm0-1.22c-.47 0-.86.39-.86.86a.86.86 0 1 0 1.72 0c0-.47-.39-.86-.86-.86zm0 1.22c-.2 0-.36-.16-.36-.36 0-.2.16-.36.36-.36s.36.16.36.36c0 .2-.16.36-.36.36zm0-1.22c-.47 0-.86.39-.86.86a.86.86 0 1 0 1.72 0c0-.47-.39-.86-.86-.86zm0 1.22c-.2 0-.36-.16-.36-.36 0-.2.16-.36.36-.36s.36.16.36.36c0 .2-.16.36-.36.36zm0-1.22c-.47 0-.86.39-.86.86a.86.86 0 1 0 1.72 0c0-.47-.39-.86-.86-.86zm0 1.22c-.2 0-.36-.16-.36-.36 0-.2.16-.36.36-.36s.36.16.36.36c0 .2-.16.36-.36.36zm0-1.22c-.47 0-.86.39-.86.86a.86.86 0 1 0 1.72 0c0-.47-.39-.86-.86-.86zm0 1.22c-.2 0-.36-.16-.36-.36 0-.2.16-.36.36-.36s.36.16.36.36c0 .2-.16.36-.36.36zm0-1.22c-.47 0-.86.39-.86.86a.86.86 0 1 0 1.72 0c0-.47-.39-.86-.86-.86zm0 1.22c-.2 0-.36-.16-.36-.36 0-.2.16-.36.36-.36s.36.16.36.36c0 .2-.16.36-.36.36zm0-1.22c-.47 0-.86.39-.86.86a.86.86 0 1 0 1.72 0c0-.47-.39-.86-.86-.86zm0 1.22c-.2 0-.36-.16-.36-.36 0-.2.16-.36.36-.36s.36.16.36.36c0 .2-.16.36-.36.36zm0-1.22c-.47 0-.86.39-.86.86a.86.86 0 1 0 1.72 0c0-.47-.39-.86-.86-.86zm0 1.22c-.2 0-.36-.16-.36-.36 0-.2.16-.36.36-.36s.36.16.36.36c0 .2-.16.36-.36.36zm0-1.22c-.47 0-.86.39-.86.86a.86.86 0 1 0 1.72 0c0-.47-.39-.86-.86-.86zm0 1.22c-.2 0-.36-.16-.36-.36 0-.2.16-.36.36-.36s.36.16.36.36c0 .2-.16.36-.36.36zm0-1.22c-.47 0-.86.39-.86.86a.86.86 0 1 0 1.72 0c0-.47-.39-.86-.86-.86zm0 1.22c-.2 0-.36-.16-.36-.36 0-.2.16-.36.36-.36s.36.16.36.36c0 .2-.16.36-.36.36zm0-1.22c-.47 0-.86.39-.86.86a.86.86 0 1 0 1.72 0c0-.47-.39-.86-.86-.86zm0 1.22c-.2 0-.36-.16-.36-.36 0-.2.16-.36.36-.36s.36.16.36.36c0 .2-.16.36-.36.36zm0-1.22c-.47 0-.86.39-.86.86a.86.86 0 1 0 1.72 0c0-.47-.39-.86-.86-.86zm0 1.22c-.2 0-.36-.16-.36-.36 0-.2.16-.36.36-.36s.36.16.36.36c0 .2-.16.36-.36.36zm0-1.22c-.47 0-.86.39-.86.86a.86.86 0 1 0 1.72 0c0-.47-.39-.86-.86-.86zm0 1.22c-.2 0-.36-.16-.36-.36 0-.2.16-.36.36-.36s.36.16.36.36c0 .2-.16.36-.36.36zm0-1.22c-.47 0-.86.39-.86.86a.86.86 0 1 0 1.72 0c0-.47-.39-.86-.86-.86zm0 1.22c-.2 0-.36-.16-.36-.36 0-.2.16-.36.36-.36s.36.16.36.36c0 .2-.16.36-.36.36z"/><path class="st0" d="M15.66 19.47h1.01v6.47h-1.01zM26.89 19.47h1.01v6.47h-1.01zM13.79 32.21v5.83h-1.01v-5.83c0-.36-.29-.65-.65-.65-.35 0-.64.29-.64.65v5.83h-1.01v-5.83a1.654 1.654 0 1 1 3.31 0zM34.52 32.21v5.83h-1.01v-5.83c0-.36-.29-.65-.65-.65-.35 0-.64.29-.64.65v5.83h-1.01v-5.83a1.654 1.654 0 1 1 3.31 0zM23.14 7.23h-.13v-.36c0-.28-.23-.5-.51-.5s-.51.22-.51.5v.36h-.13c-.88 0-1.59.72-1.59 1.6v.7h.76v-.39h2.94v.39h.76v-.7c0-.88-.71-1.6-1.59-1.6zm-1.28.76h1.28c.39 0 .72.27.81.64h-2.9c.09-.37.42-.64.81-.64z"/></svg>