<svg xmlns="http://www.w3.org/2000/svg" viewBox="0 0 70 70" style="enable-background:new 0 0 70 70" xml:space="preserve"><style>.st0{fill:#48639e}.st1{fill:#24a7d0}</style><g id="Layer_1"><path class="st1" d="M31.24 46.96h.75v17.67h-.75zM38.08 46.96h.75v17.67h-.75zM34.66 46.96h.75v17.67h-.75z"/><path class="st0" d="m42.66 45.82-15.32-.01c-.96 0-1.75-.79-1.75-1.75s.79-1.75 1.75-1.75l15.32.01c.96 0 1.75.79 1.75 1.75s-.78 1.75-1.75 1.75zm-15.32-2.76c-.55 0-1 .45-1 1s.45 1 1 1l15.32.01c.55 0 1-.45 1-1s-.45-1-1-1l-15.32-.01z"/><path class="st1" d="M36.77 36.52h-2.18v-3.3h.75v2.55h1.43z"/><path class="st0" d="M42.28 65.01H27.65V45.06h14.63v19.95zm-13.88-.75h13.13V45.81H28.4v18.45zM34.62 3.71h.75v4.56h-.75z"/><path class="st1" d="M34.74 16.27h.75v3.55h-.75z"/><path class="st0" d="M42.79 43.06H27.28V27.77h15.51v15.29zm-14.76-.75h14.01V28.52H28.03v13.79z"/><path class="st0" d="M29.58 28.22h.75v14.46h-.75zM40.01 28.22h.75v14.46h-.75z"/><path class="st0" d="M42.04 28.51H28.08v-3.88l3.96-5.2h6.14l3.86 5.21v3.87zm-13.21-.75h12.46v-2.88l-3.49-4.7h-5.39l-3.58 4.71v2.87z"/><path class="st0" d="M28.45 24.46h13.21v.75H28.45zM38.24 20.19h-6.39l.02-5.67c.95-2.54 2.59-6.85 2.92-7.17l.4-.4 3.04 7.71v5.53zm-5.64-.75h4.89v-4.71l-2.47-6.2c-.56 1.3-1.68 4.23-2.42 6.2v4.71z"/><path class="st0" d="M32.36 14.28h5.5v.75h-5.5z"/><path class="st1" d="M35.12 39.56a4.11 4.11 0 1 1 0-8.22 4.11 4.11 0 0 1 0 8.22zm0-7.47c-1.85 0-3.36 1.51-3.36 3.36s1.51 3.36 3.36 3.36c1.85 0 3.36-1.51 3.36-3.36s-1.51-3.36-3.36-3.36z"/><path class="st0" d="M20.69 64.26h28.63v.75H20.69z"/></g></svg>