<svg version="1.1" id="Layer_1" xmlns="http://www.w3.org/2000/svg" x="0" y="0" viewBox="0 0 45 45" style="enable-background:new 0 0 45 45" xml:space="preserve"><style>.st0{fill:#24a7d0}.st1{fill:#48639e}</style><path class="st1" d="M4.77 38.17h35.45v1H4.77z"/><path class="st0" d="M29.6 22.91H13.25c-.19 0-.35-.16-.35-.35v-2.83c0-.19.16-.35.35-.35h7.37c.19 0 .35.16.35.35 0 .19-.16.35-.35.35H13.6v2.14h15.65v-2.14h-7.03c-.19 0-.35-.16-.35-.35 0-.19.16-.35.35-.35h7.38c.09 0 .18.04.25.1.07.07.1.15.1.25v2.83c-.01.2-.16.35-.35.35z"/><path class="st0" d="M29.6 23.04H13.25a.47.47 0 0 1-.47-.47v-2.83c0-.26.21-.47.47-.47h7.37a.47.47 0 1 1 0 .94h-6.9v1.89h15.4v-1.89h-6.91a.47.47 0 1 1 0-.94h7.38c.12 0 .24.05.33.14.09.09.14.21.14.33v2.83c.01.26-.2.47-.46.47zm-16.35-3.53c-.12 0-.22.1-.22.22v2.83c0 .12.1.22.22.22H29.6c.12 0 .22-.1.22-.22v-2.83c0-.06-.02-.12-.07-.16a.236.236 0 0 0-.16-.07h-7.38c-.12 0-.22.1-.22.22s.1.22.22.22h7.16v2.39h-15.9v-2.39h7.15c.12 0 .22-.1.22-.22s-.1-.22-.22-.22h-7.37z"/><path class="st0" d="M20.63 21.5h-7.39c-.19 0-.35-.16-.35-.35s.16-.35.35-.35h7.39c.19 0 .35.16.35.35s-.16.35-.35.35z"/><path class="st0" d="M20.63 21.62h-7.39a.47.47 0 1 1 0-.94h7.39a.47.47 0 1 1 0 .94zm-7.38-.69c-.12 0-.22.1-.22.22s.1.22.22.22h7.39c.12 0 .22-.1.22-.22s-.1-.22-.22-.22h-7.39zM29.59 21.5H22.2c-.19 0-.35-.16-.35-.35s.16-.35.35-.35h7.39c.19 0 .35.16.35.35s-.15.35-.35.35z"/><path class="st0" d="M29.59 21.62H22.2a.47.47 0 1 1 0-.94h7.39c.26 0 .47.21.47.47.01.26-.21.47-.47.47zm-7.38-.69c-.12 0-.22.1-.22.22s.1.22.22.22h7.39c.12 0 .22-.1.22-.22s-.1-.22-.22-.22h-7.39z"/><path class="st0" d="M22.01 21.5h-1.18a.58.58 0 0 1-.58-.58v-1.18c0-.18.08-.35.22-.46l.6-.46a.6.6 0 0 1 .72 0l.59.46c.14.11.23.28.23.46v1.18c0 .16-.06.31-.17.42-.12.1-.27.16-.43.16zm-1.07-.7h.95v-1l-.48-.37-.48.37.01 1z"/><path class="st0" d="M22.02 21.62h-1.19c-.39 0-.71-.32-.71-.71v-1.18c0-.22.1-.42.27-.56l.6-.46c.26-.2.61-.2.87 0l.59.46c.17.14.27.34.27.56v1.17c0 .19-.08.37-.21.51-.12.14-.3.21-.49.21zm-.59-2.8c-.1 0-.2.03-.28.1l-.6.46c-.11.08-.17.22-.17.36v1.18c0 .25.2.46.46.46h1.19c.12 0 .23-.05.32-.13a.47.47 0 0 0 .14-.33v-1.18c0-.14-.07-.28-.18-.36l-.59-.46a.534.534 0 0 0-.29-.1zm.47 2.11h-.95c-.03 0-.06-.01-.09-.04a.127.127 0 0 1-.04-.09v-1.01c0-.04.02-.08.05-.1l.48-.37c.04-.04.11-.04.15 0l.48.37c.03.02.05.06.05.1v1.01c-.01.07-.06.13-.13.13zm-.83-.25h.7v-.82l-.35-.27-.35.27v.82z"/><path class="st1" d="M34.48 22.91H33c-.19 0-.35-.16-.35-.35v-4.34c0-.05.01-.09.02-.13l.44-1.06c.1-.25.35-.41.62-.41s.52.16.62.41l.44 1.06c.02.04.03.09.03.13v4.34c.01.2-.15.35-.34.35zm-1.13-.69h.79v-3.91l-.4-.96-.39.96v3.91z"/><path class="st1" d="M34.48 23.04H33a.47.47 0 0 1-.47-.47v-4.34c0-.06.01-.12.03-.18l.44-1.06c.12-.3.41-.49.74-.49.32 0 .61.19.74.49l.44 1.06c.02.06.04.12.04.18v4.34c0 .26-.22.47-.48.47zm-.74-6.29c-.22 0-.42.13-.51.34l-.44 1.06c-.01.02-.01.05-.01.08v4.34c0 .12.1.22.22.22h1.49c.12 0 .22-.1.22-.22v-4.34c0-.03-.01-.06-.02-.08l-.44-1.06a.554.554 0 0 0-.51-.34zm.52 5.59h-1.04l.01-4.08.51-1.24.52 1.28v4.04zm-.79-.25h.54v-3.76l-.27-.65-.27.65v3.76zM31.08 22.91H29.6c-.19 0-.35-.16-.35-.35v-4.34c0-.05.01-.09.02-.13l.44-1.06c.11-.25.35-.41.62-.41s.52.16.62.41l.44 1.06c.02.04.03.09.03.13v4.34c0 .09-.04.18-.1.25a.31.31 0 0 1-.24.1zm-1.14-.69h.79v-3.91l-.4-.96-.39.96v3.91z"/><path class="st1" d="M31.08 23.04H29.6a.47.47 0 0 1-.47-.47v-4.34c0-.06.01-.12.03-.18l.44-1.06c.12-.3.41-.49.74-.49.32 0 .61.19.73.49l.44 1.06c.02.06.04.12.04.18v4.34c0 .12-.05.25-.14.33-.08.09-.2.14-.33.14zm-.74-6.29c-.23 0-.42.13-.51.34l-.44 1.06c-.01.02-.01.05-.01.08v4.34c0 .12.1.22.22.22h1.48c.06 0 .12-.02.16-.07.04-.04.06-.1.06-.16v-4.34c0-.03-.01-.06-.02-.08l-.44-1.06a.536.536 0 0 0-.5-.33zm.52 5.59h-1.04l.01-4.08.51-1.24.52 1.28v4.04zm-.79-.25h.54v-3.76l-.27-.65-.27.65v3.76z"/><path class="st1" d="M33.36 17.71c-.14 0-.26-.08-.32-.21l-1-2.32-.35-.14.32.14-1 2.25c-.04.09-.1.15-.19.19a.36.36 0 0 1-.27 0 .37.37 0 0 1-.18-.19.361.361 0 0 1 .01-.27l.99-2.23c.05-.13.14-.24.26-.32a.721.721 0 0 1 1.06.32l1 2.31c.04.08.04.18.01.27a.3.3 0 0 1-.19.19c-.06 0-.11.01-.15.01z"/><path class="st1" d="M33.36 17.84c-.19 0-.36-.11-.44-.28l-.9-2.1-.9 2.02c-.05.11-.14.21-.26.25s-.25.05-.37 0a.455.455 0 0 1-.25-.26.497.497 0 0 1 .01-.36l.99-2.23c.06-.15.17-.28.31-.38.13-.09.29-.14.46-.14h.03c.16 0 .31.05.45.14.14.09.25.22.31.38l1 2.3c.05.12.05.24.01.36a.49.49 0 0 1-.25.26c-.07.02-.13.03-.2.04zm-1.2-2.69 1 2.31c.04.08.11.13.2.13.03 0 .06-.01.09-.02.05-.02.1-.07.12-.12.02-.06.02-.12 0-.17l-1-2.31a.51.51 0 0 0-.22-.26.62.62 0 0 0-.32-.09.58.58 0 0 0-.54.36l-.99 2.24c-.02.05-.03.12 0 .17.02.06.06.1.12.12.05.02.12.02.17 0 .05-.02.1-.07.12-.12l.95-2.14-.2-.09.1-.23.4.16.01.02.03.01-.04.03z"/><path class="st1" d="M33.08 18.37h-2.09c-.19 0-.35-.16-.35-.35 0-.19.16-.35.35-.35h2.09c.19 0 .35.16.35.35 0 .2-.16.35-.35.35z"/><path class="st1" d="M33.08 18.5h-2.09a.47.47 0 1 1 0-.94h2.09a.47.47 0 1 1 0 .94zm-2.09-.7c-.12 0-.22.1-.22.22s.1.22.22.22h2.09c.12 0 .22-.1.22-.22s-.1-.22-.22-.22h-2.09zM33 20.6h-1.92c-.19 0-.35-.16-.35-.35 0-.19.16-.35.35-.35H33c.19 0 .35.16.35.35-.01.19-.16.35-.35.35z"/><path class="st1" d="M33 20.72h-1.92a.47.47 0 1 1 0-.94H33a.47.47 0 1 1 0 .94zm-1.92-.7c-.12 0-.22.1-.22.22s.1.22.22.22H33c.12 0 .22-.1.22-.22s-.1-.22-.22-.22h-1.92zM13.25 22.91h-1.48c-.19 0-.35-.16-.35-.35v-4.34c0-.05.01-.09.03-.13l.44-1.06c.1-.25.35-.41.62-.41.13 0 .26.04.37.12.11.07.2.18.25.3l.44 1.06c.02.04.02.09.02.13v4.34c0 .19-.15.34-.34.34zm-1.14-.69h.79v-3.91l-.39-.96-.4.96v3.91z"/><path class="st1" d="M13.25 23.04h-1.48a.47.47 0 0 1-.47-.47v-4.34c0-.06.01-.12.04-.18l.44-1.06c.12-.3.41-.49.73-.49.16 0 .31.05.44.14.13.09.23.21.3.35l.44 1.06c.02.06.03.12.03.18v4.34c0 .26-.21.47-.47.47zm-.75-6.29a.53.53 0 0 0-.5.34l-.44 1.06a.31.31 0 0 0-.02.08v4.34c0 .12.1.22.22.22h1.48c.12 0 .22-.1.22-.22v-4.34c0-.03 0-.06-.02-.09L13 17.08a.487.487 0 0 0-.21-.24.456.456 0 0 0-.29-.09zm.52 5.59h-1.04l.01-4.08.51-1.24.52 1.28v4.04zm-.79-.25h.54v-3.76l-.27-.65-.27.65v3.76zM9.84 22.91H8.36c-.19 0-.35-.16-.35-.35v-4.34c0-.05.01-.09.03-.13l.44-1.06c.1-.25.35-.41.62-.41s.52.16.62.41l.44 1.06c.02.04.02.09.02.13v4.34c.01.2-.14.35-.34.35zm-1.13-.69h.79v-3.91l-.4-.96-.4.96.01 3.91z"/><path class="st1" d="M9.84 23.04H8.36a.47.47 0 0 1-.47-.47v-4.34c0-.06.01-.12.04-.18l.44-1.06c.12-.3.41-.49.74-.49s.61.19.74.49l.44 1.06c.02.06.03.12.03.18v4.34c0 .26-.22.47-.48.47zm-.74-6.29c-.22 0-.42.13-.51.34l-.44 1.06a.31.31 0 0 0-.02.08v4.34c0 .12.1.22.22.22h1.48c.12 0 .22-.1.22-.22v-4.34c0-.03 0-.06-.02-.09l-.44-1.06a.503.503 0 0 0-.49-.33zm.52 5.59H8.58l.01-4.08.51-1.24.52 1.28v4.04zm-.79-.25h.54v-3.76l-.27-.65-.27.65v3.76z"/><path class="st1" d="M12.12 17.71c-.14 0-.26-.08-.32-.21l-1-2.32h-.04l-.99 2.25c-.08.18-.28.26-.46.18-.18-.08-.26-.28-.18-.46l.99-2.23a.74.74 0 0 1 .26-.32c.12-.08.25-.12.39-.11.14 0 .28.04.4.12.12.08.21.19.26.32l1 2.31c.04.08.04.18.01.27a.3.3 0 0 1-.19.19c-.04 0-.08.01-.13.01z"/><path class="st1" d="M12.12 17.84c-.19 0-.36-.11-.44-.28l-.91-2.11-.9 2.03c-.05.12-.14.2-.26.25-.12.05-.25.04-.36-.01s-.2-.14-.25-.26a.45.45 0 0 1 .01-.36l.99-2.23c.06-.15.17-.28.31-.37.14-.09.3-.13.47-.13h.02c.15 0 .31.05.45.14.14.09.25.22.31.38l1 2.3c.05.11.05.24.01.36a.49.49 0 0 1-.25.26l-.2.03zm-1.44-2.78h.21l1.03 2.4c.04.08.11.13.2.13.03 0 .06-.01.09-.02.05-.02.09-.07.12-.12.02-.06.02-.12 0-.17l-1-2.31a.51.51 0 0 0-.22-.26.62.62 0 0 0-.32-.09h-.01c-.12 0-.22.03-.32.09s-.17.15-.22.26l-.99 2.23c-.05.11 0 .24.11.29.05.02.11.03.17 0 .06-.02.1-.06.12-.12l1.03-2.31z"/><path class="st1" d="M11.85 18.37H9.76c-.19 0-.35-.16-.35-.35 0-.19.16-.35.35-.35h2.09c.19 0 .35.16.35.35 0 .2-.16.35-.35.35z"/><path class="st1" d="M11.85 18.5H9.76a.47.47 0 1 1 0-.94h2.09a.47.47 0 1 1 0 .94zm-2.09-.7c-.12 0-.22.1-.22.22s.1.22.22.22h2.09c.12 0 .22-.1.22-.22s-.1-.22-.22-.22H9.76zM11.76 20.6H9.84c-.19 0-.35-.16-.35-.35 0-.19.16-.35.35-.35h1.92c.19 0 .35.16.35.35 0 .19-.16.35-.35.35z"/><path class="st1" d="M11.76 20.72H9.84a.47.47 0 1 1 0-.94h1.92a.47.47 0 1 1 0 .94zm-1.92-.7c-.12 0-.22.1-.22.22s.1.22.22.22h1.92c.12 0 .22-.1.22-.22s-.1-.22-.22-.22H9.84z"/><path class="st0" d="M29.13 34.29a.33.33 0 0 1-.19-.06l-6.98-4.49a.566.566 0 0 1-.17-.78l.27-.43c.15-.23.44-.33.7-.23l6.58 2.64c.18.07.26.27.19.45-.03.09-.1.15-.19.19-.08.04-.18.04-.27 0l-6.48-2.6-.15.24 6.87 4.43c.13.08.19.24.15.39-.04.14-.18.25-.33.25z"/><path class="st0" d="M29.13 34.41c-.09 0-.18-.03-.26-.08l-6.98-4.49a.693.693 0 0 1-.21-.95l.28-.44c.18-.29.53-.4.85-.28l6.58 2.64c.24.1.36.37.26.62a.49.49 0 0 1-.25.26.45.45 0 0 1-.36 0l-6.38-2.56-.03.05 6.77 4.36c.18.12.26.33.2.53-.08.2-.26.34-.47.34zm-6.59-6.03c-.15 0-.29.08-.38.21l-.27.43a.44.44 0 0 0 .14.61L29 34.12c.12.08.3.01.34-.12.03-.1-.01-.2-.09-.25l-6.98-4.49.27-.43 6.57 2.64c.06.02.12.02.17 0 .05-.02.1-.07.12-.12.05-.11-.01-.24-.12-.29l-6.58-2.64a.273.273 0 0 0-.16-.04zM13.72 34.29c-.15 0-.29-.1-.33-.25-.04-.15.02-.31.14-.39l6.87-4.43-.15-.24-6.48 2.6a.35.35 0 0 1-.45-.19.35.35 0 0 1 .19-.45l6.58-2.64c.26-.1.55-.01.7.23l.29.43c.16.26.09.61-.17.78l-6.99 4.49c-.07.04-.13.06-.2.06z"/><path class="st0" d="M13.72 34.41c-.21 0-.39-.14-.45-.34s.02-.42.2-.53l6.77-4.36-.03-.05-6.39 2.56c-.12.05-.25.04-.36 0a.428.428 0 0 1-.25-.26c-.1-.24.02-.52.26-.61l6.58-2.64a.69.69 0 0 1 .85.28l.28.43c.2.33.11.75-.21.96l-6.99 4.49c-.08.04-.17.07-.26.07zm6.58-5.59.27.43-.1.07-6.87 4.43c-.08.05-.12.15-.09.25.04.13.22.2.33.12l6.99-4.49c.2-.13.26-.4.13-.61l-.28-.43a.448.448 0 0 0-.54-.18l-6.58 2.64c-.11.05-.17.18-.12.29.02.05.06.1.12.12.06.02.12.02.17 0l6.57-2.64z"/><path class="st1" d="M34.95 39.02h-5.82c-.19 0-.35-.16-.35-.35v-7.2c0-.18.07-.36.2-.49s.31-.2.49-.2h5.11c.18 0 .36.08.49.21s.2.3.21.49v7.2c0 .18-.14.33-.33.34zm-5.48-.7h5.13v-6.85h-5.12l-.01 6.85z"/><path class="st1" d="M34.96 39.14h-5.83a.47.47 0 0 1-.47-.47v-7.19c0-.22.09-.43.24-.58.15-.15.36-.24.58-.24h5.11a.854.854 0 0 1 .83.82v7.2c-.01.24-.21.45-.46.46zm-.38-8.23h-5.11c-.15 0-.3.06-.4.17s-.17.25-.17.4v7.19c0 .12.1.22.22.22h5.82c.12-.01.21-.11.21-.22v-7.19a.56.56 0 0 0-.17-.4.528.528 0 0 0-.4-.17zm.15 7.54h-5.38l.02-7.1h5.36v7.1zm-5.13-.25h4.88v-6.6h-4.87l-.01 6.6z"/><path class="st1" d="M34.26 31.46h-4.44c-.19 0-.35-.16-.35-.35v-6.17c0-.19.16-.35.35-.35h4.44c.09 0 .18.04.25.1.07.07.1.15.1.25v6.17c0 .09-.04.18-.1.25-.07.06-.16.1-.25.1zm-4.1-.7h3.75v-5.47h-3.75v5.47z"/><path class="st1" d="M34.26 31.58h-4.44a.47.47 0 0 1-.47-.47v-6.17c0-.26.21-.47.47-.47h4.44c.12 0 .25.05.33.14.09.09.14.21.14.33v6.17c0 .12-.05.25-.14.33-.08.09-.21.14-.33.14zm-4.44-6.86c-.12 0-.22.1-.22.22v6.17c0 .12.1.22.22.22h4.44c.06 0 .12-.02.16-.07.04-.04.07-.1.07-.16v-6.17c0-.06-.02-.12-.07-.16a.236.236 0 0 0-.16-.07h-4.44zm.22 6.17v-5.72h4v5.72h-4zm.25-5.47v5.22h3.5v-5.22h-3.5z"/><path class="st1" d="M34.48 25.29h-4.87c-.19 0-.35-.16-.35-.35v-2.38c0-.19.16-.35.35-.35h4.87c.09 0 .18.04.25.1.07.07.1.15.1.25v2.38c0 .09-.04.18-.1.25-.07.06-.16.1-.25.1zm-4.52-.7h4.17v-1.68h-4.17v1.68z"/><path class="st1" d="M34.48 25.42h-4.87a.47.47 0 0 1-.47-.47v-2.38c0-.26.21-.47.47-.47h4.87c.12 0 .25.05.33.14.09.09.14.21.14.33v2.38c0 .12-.05.25-.14.33-.08.09-.2.14-.33.14zm-4.87-3.08c-.12 0-.22.1-.22.22v2.38c0 .12.1.22.22.22h4.87c.06 0 .12-.02.16-.07.04-.04.06-.1.06-.16v-2.38c0-.06-.02-.12-.07-.16a.236.236 0 0 0-.16-.07h-4.86zm4.65 2.38h-4.42v-1.93h4.42v1.93zm-4.17-.25h3.92v-1.43h-3.92v1.43z"/><path class="st0" d="M32.04 30.33c-.19 0-.35-.16-.35-.35v-1.04c0-.19.16-.35.35-.35.19 0 .35.16.35.35v1.04c0 .09-.04.18-.1.25-.07.07-.16.1-.25.1z"/><path class="st0" d="M32.04 30.46a.47.47 0 0 1-.47-.47v-1.04a.47.47 0 1 1 .94 0v1.04c0 .12-.05.25-.14.33a.47.47 0 0 1-.33.14zm0-1.74c-.12 0-.22.1-.22.22v1.04c0 .12.1.22.22.22.06 0 .12-.02.16-.07.04-.04.06-.1.06-.16v-1.04c0-.11-.1-.21-.22-.21z"/><path class="st1" d="M34.26 28.13h-4.44c-.19 0-.35-.16-.35-.35 0-.19.16-.35.35-.35h4.44c.19 0 .35.16.35.35 0 .19-.16.35-.35.35z"/><path class="st1" d="M34.26 28.25h-4.44a.47.47 0 1 1 0-.94h4.44a.47.47 0 1 1 0 .94zm-4.44-.69c-.12 0-.22.1-.22.22s.09.22.22.22h4.44c.12 0 .22-.1.22-.22s-.1-.22-.22-.22h-4.44zM13.71 39.02H7.89c-.19 0-.35-.16-.35-.35v-7.2a.703.703 0 0 1 .71-.69h5.1c.18 0 .36.08.49.21s.2.3.21.49v7.2c0 .18-.15.33-.34.34zm-5.47-.7h5.13v-6.85H8.24v6.85z"/><path class="st1" d="M13.72 39.14H7.89a.47.47 0 0 1-.47-.47v-7.19a.835.835 0 0 1 .84-.82h5.1a.854.854 0 0 1 .83.82v7.2c-.02.25-.22.45-.47.46zm-.37-8.23H8.26c-.15 0-.3.06-.41.17a.62.62 0 0 0-.18.41v7.19c0 .12.1.22.22.22h5.82c.12-.01.21-.1.21-.22v-7.19a.56.56 0 0 0-.17-.4.533.533 0 0 0-.4-.18zm.14 7.54H8.11v-7.1h5.38v7.1zm-5.13-.25h4.88v-6.6H8.36v6.6z"/><path class="st1" d="M13.03 31.46H8.58c-.19 0-.35-.16-.35-.35v-6.17c0-.19.16-.35.35-.35h4.44c.09 0 .18.04.25.1.07.07.1.15.1.25v6.17c0 .09-.04.18-.1.25a.35.35 0 0 1-.24.1zm-4.1-.7h3.75v-5.47H8.93v5.47z"/><path class="st1" d="M13.03 31.58H8.58a.47.47 0 0 1-.47-.47v-6.17c0-.26.21-.47.47-.47h4.44c.12 0 .24.05.33.14.09.09.14.21.14.33v6.17c0 .12-.05.25-.14.33-.08.09-.2.14-.32.14zm-4.45-6.86c-.12 0-.22.1-.22.22v6.17c0 .12.1.22.22.22h4.44c.06 0 .12-.02.16-.07.04-.04.06-.1.06-.16v-6.17c0-.06-.02-.12-.07-.16a.227.227 0 0 0-.16-.06H8.58zm.23 6.17v-5.72h4v5.72h-4zm.24-5.47v5.22h3.5v-5.22h-3.5z"/><path class="st1" d="M13.25 25.29H8.38c-.19 0-.35-.16-.35-.35v-2.38c0-.19.16-.35.35-.35h4.87c.09 0 .18.04.25.1.07.07.1.15.1.25v2.38c0 .09-.04.18-.1.25-.07.06-.16.1-.25.1zm-4.53-.7h4.17v-1.68H8.72v1.68z"/><path class="st1" d="M13.25 25.42H8.38a.47.47 0 0 1-.47-.47v-2.38c0-.26.21-.47.47-.47h4.87c.13 0 .25.05.33.14.09.09.14.21.14.33v2.38c0 .12-.05.25-.14.33a.47.47 0 0 1-.33.14zm-4.87-3.08c-.12 0-.22.1-.22.22v2.38c0 .12.1.22.22.22h4.87c.06 0 .12-.02.16-.07.04-.04.06-.1.06-.16v-2.38c0-.06-.02-.12-.07-.16a.227.227 0 0 0-.16-.06H8.38zm4.64 2.38H8.6v-1.93h4.42v1.93zm-4.17-.25h3.92v-1.43H8.85v1.43z"/><path class="st0" d="M10.8 30.33c-.19 0-.35-.16-.35-.35v-.95c0-.19.16-.35.35-.35.19 0 .35.16.35.35v.95c0 .09-.04.18-.1.25-.06.07-.15.1-.25.1z"/><path class="st0" d="M10.8 30.46a.47.47 0 0 1-.47-.47v-.95a.47.47 0 1 1 .94 0v.95c0 .12-.05.25-.14.33-.08.09-.2.14-.33.14zm0-1.65c-.12 0-.22.1-.22.22v.95c0 .12.1.22.22.22.06 0 .12-.02.16-.06.04-.04.07-.1.07-.16v-.95c0-.12-.1-.22-.23-.22z"/><path class="st1" d="M13.03 28.13H8.58c-.19 0-.35-.16-.35-.35 0-.19.16-.35.35-.35h4.44c.19 0 .35.16.35.35 0 .19-.15.35-.34.35z"/><path class="st1" d="M13.03 28.25H8.58a.47.47 0 1 1 0-.94h4.44c.26 0 .47.21.47.47s-.2.47-.46.47zm-4.45-.69c-.12 0-.22.1-.22.22s.1.22.22.22h4.44c.12 0 .22-.1.22-.22s-.1-.22-.22-.22H8.58z"/></svg>