<svg version="1.1" id="Layer_1" xmlns="http://www.w3.org/2000/svg" x="0" y="0" viewBox="0 0 45 45" style="enable-background:new 0 0 45 45" xml:space="preserve"><style>.st0{fill:#24a7d0}.st1{fill:#48639e}</style><path class="st1" d="M4.77 38.17h35.45v1H4.77z"/><path class="st0" d="M25.58 38.94h-6.24c-.34 0-.61-.28-.61-.61v-5.24c0-2.02 1.71-3.73 3.73-3.73 1.01 0 1.96.39 2.66 1.11.69.7 1.07 1.63 1.07 2.63v5.24c.01.32-.27.6-.61.6zm-5.62-1.23h5.01v-4.63c0-1.41-1.1-2.5-2.51-2.5-1.36 0-2.5 1.15-2.5 2.5v4.63z"/><path class="st0" d="M22.46 38.94c-.34 0-.61-.28-.61-.61V31.6c0-.34.28-.61.61-.61s.61.28.61.61v6.73c.01.33-.27.61-.61.61zM25.58 26.54h-1.63c-.34 0-.61-.28-.61-.61v-1.37h-1.75v1.37c0 .34-.27.61-.61.61h-1.63c-.34 0-.61-.28-.61-.61v-1.37h-.45c-.34 0-.61-.27-.61-.61V19.7c0-.34.27-.61.61-.61h1.84c.34 0 .61.28.61.61v1.37h.33V19.7c0-.34.27-.61.61-.61h1.63c.34 0 .61.28.61.61v1.37h.33V19.7c0-.34.28-.61.61-.61h1.77c.34 0 .61.28.61.61v4.25c0 .34-.27.61-.61.61h-.43v1.37c0 .33-.28.61-.62.61zm-1.01-1.23h.4v-1.37c0-.34.27-.61.61-.61h.45V20.3h-.55v1.37c0 .34-.27.61-.61.61h-1.56c-.34 0-.61-.27-.61-.61V20.3h-.4v1.37c0 .34-.28.61-.61.61h-1.56c-.34 0-.61-.27-.61-.61V20.3h-.62v3.03h.45c.34 0 .61.28.61.61v1.37h.4v-1.37c0-.34.28-.61.61-.61h2.98c.34 0 .61.28.61.61v1.37z"/><path class="st1" d="M31.68 38.94H13.25c-.34 0-.61-.28-.61-.61V23.94c0-.34.28-.61.61-.61h1.56c.34 0 .61.27.61.61v1.37h.4v-1.37c0-.34.28-.61.61-.61h2.91c.34 0 .61.27.61.61v1.37h.47v-1.37c0-.34.28-.61.61-.61h2.91c.34 0 .61.27.61.61v1.37h.4v-1.37c0-.34.28-.61.61-.61h2.91c.34 0 .61.27.61.61v1.37h.47v-1.37c0-.34.27-.61.61-.61h1.49c.34 0 .61.27.61.61v14.38c.03.34-.25.62-.58.62zm-17.81-1.23h17.2V24.55h-.27v1.37c0 .34-.27.61-.61.61h-1.7c-.34 0-.61-.27-.61-.61v-1.37H26.2v1.37c0 .34-.28.61-.61.61h-1.63c-.34 0-.61-.27-.61-.61v-1.37h-1.68v1.37c0 .34-.28.61-.61.61h-1.7c-.34 0-.61-.27-.61-.61v-1.37h-1.68v1.37c0 .34-.27.61-.61.61h-1.63c-.34 0-.61-.27-.61-.61v-1.37h-.33v13.16z"/><path class="st1" d="M38.12 38.94h-6.45c-.34 0-.61-.28-.61-.61V20.89c0-.34.28-.61.61-.61h1.35c.3 0 .55.22.6.5.05-.29.3-.5.6-.5h1.28c.3 0 .55.22.6.5.05-.28.3-.5.6-.5h1.42c.34 0 .61.28.61.61v17.43c.01.34-.27.62-.61.62zm-5.83-1.23h5.22v-16.2h-.19v1.37c0 .34-.28.61-.61.61H35.5c-.34 0-.61-.27-.61-.61l-.05-1.37v1.37c0 .34-.28.61-.61.61h-1.2c-.34 0-.61-.27-.61-.61v-1.37h-.12v16.2zM13.25 38.94H6.88c-.34 0-.61-.28-.61-.61V20.89c0-.34.28-.61.61-.61h1.35c.3 0 .55.22.6.5.05-.28.3-.5.6-.5h1.28c.3 0 .55.22.6.5.05-.28.3-.5.6-.5h1.35c.34 0 .61.28.61.61v17.43c0 .34-.28.62-.62.62zm-5.76-1.23h5.15v-16.2h-.12v1.37c0 .34-.27.61-.61.61H10.7c-.34 0-.61-.27-.61-.61l-.05-1.37v1.37c0 .34-.28.61-.61.61h-1.2c-.34 0-.61-.27-.61-.61v-1.37h-.13v16.2zM28.56 38.94H16.37c-.34 0-.61-.28-.61-.61V28.05c0-.34.28-.61.61-.61h12.19c.34 0 .61.28.61.61v10.27c0 .34-.27.62-.61.62zm-11.58-1.23h10.96v-9.05H16.98v9.05z"/><path class="st0" d="M11.13 32.92H9.07c-.34 0-.61-.28-.61-.61v-3.83c0-.34.27-.61.61-.61h2.06c.34 0 .61.28.61.61v3.83c0 .33-.28.61-.61.61zm-1.45-1.23h.83v-2.6h-.83v2.6zM35.93 32.92h-2.06c-.34 0-.61-.28-.61-.61v-3.83c0-.34.28-.61.61-.61h2.06c.34 0 .61.28.61.61v3.83c0 .33-.27.61-.61.61zm-1.44-1.23h.83v-2.6h-.83v2.6zM11.13 37.03H9.07c-.34 0-.61-.28-.61-.61v-1.77c0-.34.27-.61.61-.61h2.06c.34 0 .61.28.61.61v1.77c0 .33-.28.61-.61.61zM9.68 35.8h.83v-.55h-.83v.55zM35.93 37.03h-2.06c-.34 0-.61-.28-.61-.61v-1.77c0-.34.28-.61.61-.61h2.06c.34 0 .61.28.61.61v1.77c0 .33-.27.61-.61.61zm-1.44-1.23h.83v-.55h-.83v.55z"/></svg>