<svg version="1.1" id="Layer_1" xmlns="http://www.w3.org/2000/svg" x="0" y="0" viewBox="0 0 45 45" style="enable-background:new 0 0 45 45" xml:space="preserve"><style>.st0{fill:#48639e}.st1{fill:#24a7d0}</style><path class="st0" d="M2.35 38.17h40.3v1H2.35z"/><path class="st0" d="M38.26 38.17c-.03-.01-.07-.01-.1-.01h-.7V27.32c0-.28-.23-.51-.51-.51h-6.02v.01h-.32v-.97c0-.28-.23-.5-.51-.5h-2.45c-.28 0-.51.22-.51.5v.97H14.26v-.01h-.36v-.96c0-.28-.23-.5-.51-.5h-2.45c-.28 0-.51.22-.51.5v.96H8.05c-.28 0-.51.23-.51.51v10.84h-.7c-.03 0-.07 0-.1.01-.22.05-.4.25-.4.5 0 .27.23.5.5.5h31.32c.27 0 .5-.23.5-.5 0-.25-.18-.45-.4-.5zm-22.76-.01v-3.98c0-.31.26-.57.57-.57.3 0 .56.24.56.57v3.98H15.5zm3.53 0v-4.78c0-.82.67-1.49 1.49-1.49.79 0 1.48.64 1.48 1.49v4.78h-2.97zm5.37 0v-3.98c0-.31.25-.57.56-.57.3 0 .57.24.57.57v3.98H24.4zm6.21-10.34h5.84v.98h-5.84v-.98zm0 1.99h5.84v8.35h-5.84v-8.35zm-2.46-3.46h1.45v11.81h-1.45V26.35zM13.9 27.82c4.82.01 12.78 0 13.24 0v.98H13.9v-.98zm0 1.99h13.24v8.35h-.6v-3.98a1.575 1.575 0 1 0-3.15 0v3.98h-.38v-4.78c0-1.42-1.15-2.5-2.49-2.5a2.5 2.5 0 0 0-2.5 2.5v4.78h-.37v-3.98c0-.86-.7-1.58-1.58-1.58-.87 0-1.58.71-1.58 1.58v3.98h-.59v-8.35zm-2.46-3.46h1.45v11.81h-1.45V26.35zm-2.89 1.47h1.88v.98H8.55v-.98zm0 1.99h1.88v8.35H8.55v-8.35z"/><path class="st1" d="M25.76 24.97h-.56v-3.38h.03c.28 0 .51-.23.51-.51 0-.27-.23-.5-.51-.5h-.29v-1.27c0-2.31-1.75-4.14-3.92-4.39v-2.91c0-.28-.22-.5-.5-.5s-.51.22-.51.5v2.91c-2.2.25-3.91 2.12-3.91 4.39v1.27h-.3c-.27 0-.5.23-.5.5 0 .28.23.51.5.51h.04v3.38h-.57c-.27 0-.5.22-.5.5v1.34h-.51v.01h12.01v-1.35c0-.28-.23-.5-.51-.5zm-2.81-3.38h1.24v3.37h-.37v-1.15c0-.83-.31-1.61-.87-2.22zm-5.84-2.28c0-1.88 1.53-3.41 3.41-3.41 1.84 0 3.41 1.49 3.41 3.41v1.27h-2.74c-.05-.01-.11-.02-.17-.03V18.6c0-.28-.22-.51-.5-.51s-.51.23-.51.51v1.95c-.05.01-.11.02-.17.03h-2.73v-1.27zm5.7 4.5v1.15h-4.58v-1.15c0-1.08.75-1.98 1.75-2.22h1.08a2.28 2.28 0 0 1 1.75 2.22zm-5.96-2.22h1.24c-.54.59-.87 1.36-.87 2.22v1.15h-.37v-3.37zm8.41 5.22h-9.48v-.83h9.48v.83zM36.65 24.27v-.54c0-1.37-.98-2.5-2.28-2.73v-1.52c0-.28-.22-.5-.5-.5s-.51.22-.51.5v1.51a2.791 2.791 0 0 0-2.27 2.74v.54c-.26.02-.47.23-.47.5 0 .21.13.39.31.46v1.58h1.01v-1.54h3.86v1.54h1.01v-1.58c.18-.07.31-.25.31-.46 0-.27-.21-.48-.47-.5zm-1.01-.01H32.1v-.53c0-.98.79-1.77 1.77-1.77.96 0 1.77.77 1.77 1.77v.53zM32.29 34.76c-.01.83-.01 1.66 0 2.5v.9h-1.01v-.9c-.01-.84-.01-1.68 0-2.52.01-.27.23-.5.51-.5.28.01.51.24.5.52zM34.04 34.76c-.01.83-.01 1.66-.01 2.5v.9h-1.01v-.9c0-.84 0-1.68.01-2.52 0-.27.23-.5.5-.5h.01c.28.01.5.24.5.52zM35.78 34.76c-.01.83 0 1.66 0 2.5v.9h-1.01v-.9c0-.84-.01-1.68 0-2.52.01-.27.23-.5.51-.5h.01c.27.01.5.24.49.52zM10 34.76c-.01.83-.01 1.66 0 2.5v.9H8.99v-.9c-.01-.84-.01-1.68 0-2.52.01-.27.23-.5.51-.5.28.01.51.24.5.52z"/></svg>