<svg version="1.1" id="Layer_1" xmlns="http://www.w3.org/2000/svg" x="0" y="0" viewBox="0 0 45 45" style="enable-background:new 0 0 45 45" xml:space="preserve"><style>.st0{fill:#48639e}.st1{fill:#24a7d0}</style><path class="st0" d="M2.35 38.17h40.3v1H2.35z"/><path class="st1" d="M16.32 28.82c-.28 0-.46.19-.46.46v6.95c0 .28.19.46.46.46.28 0 .46-.19.46-.46v-6.95c0-.22-.18-.46-.46-.46zM18.45 28.82c-.28 0-.46.19-.46.46v6.95c0 .28.19.46.46.46.28 0 .46-.19.46-.46v-6.95c0-.22-.18-.46-.46-.46zM12.1 28.82c-.28 0-.46.19-.46.46v6.95c0 .28.19.46.46.46.28 0 .46-.19.46-.46v-6.95c.01-.22-.22-.46-.46-.46zM14.23 28.82c-.28 0-.46.19-.46.46v6.95c0 .28.19.46.46.46.28 0 .46-.19.46-.46v-6.95c.01-.22-.22-.46-.46-.46zM30.07 19.84c-.28 0-.46.19-.46.46v4.68c0 .28.19.46.46.46.28 0 .46-.19.46-.46V20.3c0-.23-.18-.46-.46-.46zM32.2 19.84c-.28 0-.46.19-.46.46v4.68c0 .28.19.46.46.46.28 0 .46-.19.46-.46V20.3a.452.452 0 0 0-.46-.46zM25.81 19.84c-.28 0-.46.19-.46.46v4.68c0 .28.19.46.46.46.28 0 .46-.19.46-.46V20.3c0-.23-.18-.46-.46-.46zM27.94 19.84c-.28 0-.46.19-.46.46v4.68c0 .28.19.46.46.46.28 0 .46-.19.46-.46V20.3c0-.23-.18-.46-.46-.46zM13.45 14.33c-.28 0-.46.19-.46.46v.97c0 .28.19.46.46.46.28 0 .46-.19.46-.46v-.97c0-.23-.18-.46-.46-.46zM15.25 14.33c-.28 0-.46.19-.46.46v.97c0 .28.19.46.46.46.28 0 .46-.19.46-.46v-.97a.452.452 0 0 0-.46-.46zM17.06 14.33c-.28 0-.46.19-.46.46v.97c0 .28.19.46.46.46.28 0 .46-.19.46-.46v-.97c0-.23-.18-.46-.46-.46zM13.45 11.18c-.28 0-.46.19-.46.46v.97c0 .28.19.46.46.46.28 0 .46-.19.46-.46v-.97c0-.23-.18-.46-.46-.46zM15.25 11.18c-.28 0-.46.19-.46.46v.97c0 .28.19.46.46.46.28 0 .46-.19.46-.46v-.97a.452.452 0 0 0-.46-.46zM17.06 11.18c-.28 0-.46.19-.46.46v.97c0 .28.19.46.46.46.28 0 .46-.19.46-.46v-.97c0-.23-.18-.46-.46-.46zM26.04 14.75c-.28 0-.46.19-.46.46v1.06c0 .28.19.46.46.46.28 0 .46-.19.46-.46v-1.06a.452.452 0 0 0-.46-.46zM28.03 14.75c-.28 0-.46.19-.46.46v1.06c0 .28.19.46.46.46.28 0 .46-.19.46-.46v-1.06c.01-.23-.22-.46-.46-.46zM29.98 14.75c-.28 0-.46.19-.46.46v1.06c0 .28.19.46.46.46.28 0 .46-.19.46-.46v-1.06c0-.23-.18-.46-.46-.46zM31.97 14.75c-.28 0-.46.19-.46.46v1.06c0 .28.19.46.46.46.28 0 .46-.19.46-.46v-1.06c0-.23-.18-.46-.46-.46zM26.04 11.74c-.28 0-.46.19-.46.46v1.06c0 .28.19.46.46.46.28 0 .46-.19.46-.46V12.2a.452.452 0 0 0-.46-.46zM28.03 11.74c-.28 0-.46.19-.46.46v1.06c0 .28.19.46.46.46.28 0 .46-.19.46-.46V12.2c.01-.23-.22-.46-.46-.46zM29.98 11.74c-.28 0-.46.19-.46.46v1.06c0 .28.19.46.46.46.28 0 .46-.19.46-.46V12.2c0-.23-.18-.46-.46-.46zM31.97 11.74c-.28 0-.46.19-.46.46v1.06c0 .28.19.46.46.46.28 0 .46-.19.46-.46V12.2c0-.23-.18-.46-.46-.46z"/><path class="st0" d="M36.65 38.18h-1.62v-9.72h.42c.28 0 .46-.19.46-.46 0-.28-.19-.46-.46-.46h-.42v-9.49c0-.28-.19-.46-.46-.46h-.47V9.72c0-.28-.19-.46-.46-.46h-9.26c-.28 0-.46.19-.46.46v7.83h-.6c-.28 0-.46.19-.46.46v9.54h-.32c-.28 0-.46.19-.46.46 0 .28.19.46.46.46h.32v9.68h-1.48V26.48c0-.28-.19-.46-.46-.46h-.46v-8.2c0-.28-.19-.46-.46-.46h-.83V9.72c0-.28-.19-.46-.46-.46h-6.85c-.28 0-.46.19-.46.46v7.64h-.69c-.28 0-.46.19-.46.46V26H9.6c-.28 0-.46.19-.46.46v11.72H8.4c-.28 0-.46.19-.46.46 0 .28.19.46.46.46h28.2c.28 0 .46-.19.46-.46 0-.28-.13-.46-.41-.46zm-6.25 0h-2.82v-4.54c0-1.16.65-2.13 1.39-2.13.74 0 1.39.97 1.39 2.13v4.54h.04zm3.75 0h-2.82v-4.54c0-1.16.65-2.13 1.39-2.13.74 0 1.39.97 1.39 2.13v4.54h.04zm-9.31-28.02h8.34v7.36h-8.34v-7.36zm-1.07 8.34H34.1v9.08H23.77V18.5zm10.38 9.95v2.73c-.37-.37-.88-.65-1.39-.65-.74 0-1.44.46-1.85 1.25-.42-.74-1.11-1.25-1.85-1.25-.79 0-1.48.51-1.9 1.3-.42-.79-1.11-1.3-1.9-1.3-.51 0-1.02.23-1.39.6v-2.69l10.28.01zm-10.38 5.19c0-1.16.65-2.13 1.39-2.13.74 0 1.39.97 1.39 2.13v4.54h-2.82v-4.54h.04zM12.29 17.29v-7.13h5.93v7.18l-5.93-.05zm-1.16.98h8.34V26h-2.13v-3.57c0-1.44-.88-2.59-1.99-2.59-1.11 0-1.99 1.16-1.99 2.59V26h-2.18v-7.73h-.05zM16.41 26h-2.13v-3.57c0-.93.46-1.67 1.06-1.67.56 0 1.06.79 1.06 1.67l.01 3.57zm-6.3.93h10.33v11.25H10.11V26.93z"/></svg>