<svg version="1.1" id="Layer_1" xmlns="http://www.w3.org/2000/svg" x="0" y="0" viewBox="0 0 45 45" style="enable-background:new 0 0 45 45" xml:space="preserve"><style>.st0{fill:#48639e}.st1{fill:#24a7d0}</style><path class="st0" d="M2.53 38.17h39.94v1H2.53z"/><path class="st1" d="M26.04 38.16V33.9c0-.88-.34-1.73-.96-2.35-.63-.63-1.47-.98-2.35-.98h-.78c-.88 0-1.73.35-2.35.97s-.97 1.47-.97 2.35v4.26h-1.07v.04h9.37v-.03h-.89zm-5.64-6c.42-.38.97-.59 1.55-.59h.78c.57 0 1.11.22 1.54.59.42.38.69.9.76 1.47h-5.4c.07-.57.34-1.09.77-1.47zm4.67 5.98h-5.46v-3.53h.59v.43c0 .27.22.49.5.49.27 0 .49-.22.49-.49v-.43h.65v.43c0 .27.22.49.5.49.27 0 .49-.22.49-.49v-.43h.65v.43c0 .27.22.49.5.49.27 0 .49-.22.49-.49v-.43h.6v3.53zM13.2 25.28h1.95c.27 0 .49-.22.49-.49v-.98c0-.52-.28-1.01-.73-1.27-.45-.26-1.01-.26-1.47 0-.45.26-.73.75-.73 1.27v.98c-.01.27.21.49.49.49zm.49-1.47c0-.27.22-.48.48-.48s.48.22.48.48v.49h-.96v-.49zM29.86 25.28h1.95c.27 0 .49-.22.49-.49v-.98c0-.52-.28-1.01-.73-1.27-.45-.26-1.01-.26-1.47 0-.45.26-.73.75-.73 1.27v.98c-.01.27.21.49.49.49zm.49-1.47a.48.48 0 0 1 .96 0v.49h-.96v-.49z"/><path class="st0" d="M37.26 38.14h-.73V27.2a.49.49 0 0 0-.49-.49c-.28 0-.5.22-.5.49v.76h-1.1v-.76c0-.23-.18-.43-.41-.46v-5.82h.51c.27 0 .49-.22.49-.49v-2.49c0-.04-.01-.09-.02-.13.01-.05.02-.1.02-.14v-1.25a.49.49 0 0 0-.98 0v1.03h-.87v-1.03a.49.49 0 0 0-.49-.49c-.28 0-.5.22-.5.49v1.03h-.87v-1.03a.49.49 0 0 0-.98 0v1.03h-.87v-1.03a.49.49 0 0 0-.49-.49c-.28 0-.5.22-.5.49v1.03h-.87v-1.03a.49.49 0 0 0-.98 0v1.25c0 .04.01.09.02.14-.01.04-.02.09-.02.13v2.49c0 .27.22.49.49.49h.51v5.82c-.24.03-.42.24-.42.48v.75h-1.1v-.75a.49.49 0 0 0-.49-.49c-.28 0-.5.22-.5.49v.75h-1.09v-.75a.49.49 0 0 0-.98 0v.75h-1.1v-.75a.49.49 0 0 0-.98 0v.75h-1.09v-.75c0-.27-.22-.49-.5-.49a.49.49 0 0 0-.49.49v.75h-1.1v-.75c0-.24-.18-.45-.42-.48v-5.82h.51c.27 0 .49-.22.49-.49v-2.49c0-.04-.01-.09-.02-.13.01-.05.02-.1.02-.14v-1.25a.49.49 0 0 0-.98 0v1.03h-.87v-1.03c0-.27-.22-.49-.5-.49a.49.49 0 0 0-.49.49v1.03h-.87v-1.03a.49.49 0 0 0-.98 0v1.03h-.87v-1.03c0-.27-.22-.49-.5-.49a.49.49 0 0 0-.49.49v1.03h-.87v-1.03a.49.49 0 0 0-.98 0v1.25c0 .04.01.09.02.14-.01.04-.02.09-.02.13v2.49c0 .27.22.49.49.49h.51v5.82c-.24.03-.41.24-.41.48v.75h-1.1v-.75c0-.27-.22-.49-.5-.49a.49.49 0 0 0-.49.49v10.92h-.73a.495.495 0 1 0 0 .99h29.52a.495.495 0 1 0 0-.99zm-9.65-18.2v-1.5h6.44v1.5h-6.44zm4.26 6.77a.49.49 0 0 0-.49.49v.76h-1.1v-.76a.49.49 0 0 0-.98 0v.76h-.68v-7.04h4.42v7.04h-.68v-.76c0-.27-.21-.49-.49-.49zm-20.92-6.77v-1.5h6.44v1.5h-6.44zm4.26 6.77a.49.49 0 0 0-.49.49v.76h-1.1v-.76a.49.49 0 0 0-.98 0v.76h-.68v-7.04h4.42v7.04h-.68v-.76a.49.49 0 0 0-.49-.49zm20.33 11.43-8.61.02v.03h-9.37v-.04h-8.1v-9.18h26.08v9.17z"/><path class="st0" d="M17.31 38.14h10.14v.99H17.31z"/></svg>