<svg version="1.1" id="Layer_1" xmlns="http://www.w3.org/2000/svg" x="0" y="0" viewBox="0 0 45 45" style="enable-background:new 0 0 45 45" xml:space="preserve"><style>.st0{fill:#48639e}.st1{fill:#24a7d0}</style><path class="st0" d="M2.35 38.17h40.3v1H2.35z"/><path class="st1" d="M9.19 25.52h1.57v-4.01H9.35l-.51-2.83h.52v-1.96h.8c.11-.86.53-1.37.96-1.65.5-.33.93-.47 1.05-.64l.31-.46.29.47c.03.05.14.14.33.23.18.1.43.2.69.37.44.29.87.82.98 1.68h.73v1.96h.53l-.1.42-.02.08-.57 2.33h-1.23v4.01h1.8V22.6c0-.04.01-.07.02-.11v12.76h-.02v-7.53H9.56v7.53h-.73v-9.38c.02-.2.18-.35.36-.35zm4.21-9.8c-.18-.13-.4-.22-.62-.33-.1-.06-.2-.11-.3-.18-.33.26-.71.36-.98.54-.3.19-.52.41-.59.97h3.11c-.08-.56-.31-.8-.62-1zm1.37 1.82h-4.63v-.02h-.04v1.1h4.67v-1.08zm0 3.18.3-1.24H9.73l.23 1.24h4.81zm-3.27.95v3.85h1.87v-3.85H11.5zm-1.94 5.26h6.35v-.62H9.56v.62z"/><path class="st1" d="M11.47 30.84c.24-.16.48-.26.66-.35.18-.1.28-.18.3-.22l.29-.47.31.46c.11.16.52.29 1 .6s.94.93.94 2v2.39H10.5v-2.39c0-1.08.48-1.7.97-2.02zm-.23 4.35h2.99v-2.33c0-.86-.24-1.1-.58-1.32-.26-.17-.62-.25-.93-.51-.09.07-.18.12-.28.17-.2.11-.41.2-.59.31-.35.24-.61.49-.61 1.35v2.33z"/><path class="st0" d="M38.21 36.85v-1.58h-1.27v-.02h-7.1V22.49a.362.362 0 0 0-.35-.29h-.71c-.09-2.73-1.26-4.14-2.52-4.97-.66-.43-1.33-.72-1.88-1-.56-.29-.98-.57-1.19-.91l-.29-.47-.31.46c-.56.82-1.89 1.17-3.17 2-1.23.8-2.35 2.17-2.43 4.89h-.71c-.2 0-.37.18-.37.4v12.65H8.75v.02H6.79v1.58H4.34v2.21h36.32v-2.21h-2.45zM19.8 17.99c1.03-.67 2.26-1.01 3.09-1.9.33.34.72.62 1.17.85.59.3 1.23.58 1.82.97 1.11.73 2.03 1.82 2.14 4.25H17.75c.1-2.43.97-3.47 2.05-4.17zM16.65 23h12.47v12.25h-.54V24.9c0-.88-.67-1.6-1.48-1.6-.82 0-1.49.72-1.49 1.6v10.35h-1.19V24.9c0-.88-.67-1.6-1.49-1.6s-1.49.72-1.49 1.6v10.35h-1.19V24.9c0-.88-.67-1.6-1.49-1.6-.81 0-1.48.72-1.48 1.6v10.35h-.63V23zm11.2 1.9v10.33h-1.51V24.9c0-.45.33-.81.76-.81.42 0 .75.36.75.81zm-4.17 0v10.33h-1.5V24.9c0-.45.33-.81.75-.81s.75.36.75.81zm-4.16 0v10.33h-1.51V24.9c0-.45.33-.81.75-.81.43 0 .76.36.76.81zM7.53 36.06h29.94v.75H7.53v-.75zm32.39 2.2H5.08v-.61h34.84v.61z"/><path class="st1" d="M36.58 25.52h-1.57v-4.01h1.41l.51-2.83h-.52v-1.96h-.8c-.11-.86-.53-1.37-.96-1.65-.5-.33-.93-.47-1.05-.64l-.31-.46-.29.47c-.03.05-.14.14-.33.23-.18.1-.43.2-.69.37-.44.29-.87.82-.98 1.68h-.73v1.96h-.53l.1.42.02.08.57 2.33h1.23v4.01h-1.8V22.6c0-.04-.01-.07-.02-.11v12.76h.02v-7.53h6.35v7.53h.73v-9.38c-.02-.2-.18-.35-.36-.35zm-4.21-9.8c.18-.13.4-.22.62-.33.1-.06.2-.11.3-.18.33.26.71.36.98.54.3.19.52.41.59.97h-3.11c.08-.56.31-.8.62-1zM31 17.54h4.63v-.02h.04v1.1H31v-1.08zm0 3.18-.3-1.24h5.34l-.23 1.24H31zm3.27.95v3.85H32.4v-3.85h1.87zm1.94 5.26h-6.35v-.62h6.35v.62z"/><path class="st1" d="M34.3 30.84c-.24-.16-.48-.26-.66-.35-.18-.1-.28-.18-.3-.22l-.29-.47-.31.46c-.11.16-.52.29-1 .6s-.94.93-.94 2v2.39h4.47v-2.39c0-1.08-.48-1.7-.97-2.02zm.23 4.35h-2.99v-2.33c0-.86.24-1.1.58-1.32.26-.17.62-.25.93-.51.09.07.18.12.28.17.2.11.41.2.59.31.35.24.61.49.61 1.35v2.33z"/></svg>