<svg version="1.1" id="Layer_1" xmlns="http://www.w3.org/2000/svg" x="0" y="0" viewBox="0 0 45 45" style="enable-background:new 0 0 45 45" xml:space="preserve"><style>.st0{fill:#24a7d0}</style><path style="fill:none;stroke:#48639e;stroke-miterlimit:10" d="M4.77 38.67h35.46"/><path d="M36.03 21.62v-1.54h-1.36v-1.7l.45-.91v-1.01h-8.14v-.91h-1.99l.33-.65a.45.45 0 0 1 .41-.25h.34v-.91h-.34c-.52 0-.99.29-1.22.76l-.52 1.05H22.9v-1.13l1.63-1.22-.54-.72-1.09.81v-1.36H22v1.36l-1.09-.81-.54.72L22 14.42v1.13h-1.08l-.53-1.05c-.23-.47-.7-.76-1.22-.76h-.34v.91h.35c.17 0 .32.1.4.25l.33.65h-1.98v.91H9.78v1.01l.45.91v1.7H8.87v1.54l.46.46v3.43h-.46v.91h.46v11.76h-.46v.91h27.16v-.91h-.45V26.42h.45v-.91h-.45v-3.43l.45-.46zm-9.05-4.26h7.19l-.4.8v1.92h-6.79v-2.72zm-8.15-.9h7.24v.9h-7.24v-.9zm0 1.81h7.24v1.81h-7.24v-1.81zm-8.09-.91h7.19v2.72h-6.79v-1.92l-.4-.8zm.4 20.82h-.91V26.42h.91v11.76zm0-12.67h-.91v-.9h.91v.9zm2.71 0h-.45v.91h.45v11.76h-1.81V26.42h.46v-.91h-.46v-.9h1.81v.9zm1.81 12.67h-.9V26.42h.9v11.76zm0-12.67h-.9v-.9h.9v.9zm2.72 0h-.45v.91h.45v11.76h-1.81V26.42h.45v-.91h-.45v-.9h1.81v.9zm1.81 12.67h-.91V26.42h.91v11.76zm0-12.67h-.91v-.9h.91v.9zm3.62 0h-.45v.91h.45v11.76h-2.72V26.42h.46v-.91h-.46v-.9h2.72v.9zm1.81 12.67h-.91V26.42h.91v11.76zm0-12.67h-.91v-.9h.91v.9zm2.72 0h-.46v.91h.46v11.76h-1.81V26.42h.45v-.91h-.45v-.9h1.81v.9zm1.81 12.67h-.91V26.42h.91v11.76zm0-12.67h-.91v-.9h.91v.9zm2.71 0h-.45v.91h.45v11.76h-1.81V26.42h.45v-.91h-.45v-.9h1.81v.9zm1.81 12.67h-.9V26.42h.9v11.76zm0-12.67h-.9v-.9h.9v.9zm.45-4.26-.45.45v2H10.23v-2l-.45-.45v-.26h25.34v.26z" style="fill:#48639e"/><path class="st0" d="m24.99 15.55.33-.65a.45.45 0 0 1 .41-.25h.34v-.91h-.34c-.52 0-.99.29-1.22.76l-.52 1.05H22.9v-1.13l1.63-1.22-.54-.72-1.09.81v-1.36H22v1.36l-1.09-.81-.54.72L22 14.42v1.13h-1.08l-.53-1.05c-.23-.47-.7-.76-1.22-.76h-.34v.91h.35c.17 0 .32.1.4.25l.33.65h-1.98v4.53h.9v-1.81h7.24v1.81h.91v-4.53h-1.99zm1.08 1.81h-7.24v-.9h7.24v.9z"/><path class="st0" d="M35.12 16.46v1.01l-.45.91v1.7h-.9v-1.92l.4-.8h-7.19v-.9zM17.93 17.36h-7.19l.4.8v1.92h-.91v-1.7l-.45-.91v-1.01h8.15zM8.87 25.51h3.63v.91H8.87zM13.39 25.51h3.63v.91h-3.63zM17.92 25.51h3.63v.91h-3.63zM23.35 25.51h3.63v.91h-3.63zM27.88 25.51h3.63v.91h-3.63zM32.4 25.51h3.63v.91H32.4z"/></svg>