<svg version="1.1" id="Layer_1" xmlns="http://www.w3.org/2000/svg" x="0" y="0" viewBox="0 0 45 45" style="enable-background:new 0 0 45 45" xml:space="preserve"><style>.st0{fill:#24a7d0}</style><path style="fill:none;stroke:#48639e;stroke-miterlimit:10" d="M4.78 38.67H40.23"/><path d="M36.54 25.11a.47.47 0 0 0-.33-.14h-.95v-3.31a.47.47 0 0 0-.14-.33.437.437 0 0 0-.33-.14h-4.73a.47.47 0 0 0-.47.47v3.31h-2.67l-.64-.49v-4.71h-.94v-1.89a2.873 2.873 0 0 0-1.42-2.45v-2.27c0-.3-.09-.58-.26-.82s-.41-.42-.69-.52v-.56a.47.47 0 0 0-.14-.33.437.437 0 0 0-.33-.14.47.47 0 0 0-.47.47v.56c-.28.1-.52.28-.69.52-.17.24-.26.52-.26.82v2.27c-.87.51-1.41 1.44-1.42 2.45v1.89h-.94v4.71l-.64.49h-2.67v-3.31a.47.47 0 0 0-.14-.33.47.47 0 0 0-.33-.14h-4.73a.47.47 0 0 0-.47.47v3.31h-.95a.472.472 0 0 0-.33.81c.09.09.21.14.33.14h.47v12.76c0 .13.05.25.14.34.09.08.21.13.34.13h25.52c.13 0 .25-.05.34-.13.09-.09.14-.21.14-.34V25.92h.47c.12 0 .24-.05.33-.14a.47.47 0 0 0 0-.67zm-25.86-2.97h3.78v2.83h-3.78v-2.83zm4.26 16.07h-4.73v-5.2h4.73v5.2zm0-6.15h-4.73v-6.14h4.73v6.14zm2.83 6.15h-1.89v-5.2h1.89v5.2zm0-6.15h-1.89v-6.14h1.89v6.14zm7.57-11.34v3.02l-.95-.73v-2.29h.95zm-2.84-8.04c.26 0 .47.21.47.48h-.94c0-.27.21-.48.47-.48zm-.47 1.42h.94v.95h-.94v-.95zm-.87 2.45c.36-.36.84-.56 1.34-.56a1.893 1.893 0 0 1 1.89 1.89h-3.78c0-.5.2-.98.55-1.33zm-.55 2.28h3.78v.94h-3.78v-.94zm2.84 1.89v1.55l-.66-.51a.48.48 0 0 0-.58 0l-.66.51v-1.55h1.9zm-3.79 0h.95v2.29l-.95.73v-3.02zm0 4.22 2.84-2.2 2.84 2.2v.03h-5.68v-.03zm.95 13.27h-1.89v-5.2h1.89v5.2zm0-6.15h-1.89v-6.14h1.89v6.14zm2.84 6.15h-1.9v-5.2h1.9v5.2zm0-6.15h-1.9v-6.14h1.9v6.14zm2.83 6.15h-1.89v-5.2h1.89v5.2zm0-6.15h-1.89v-6.14h1.89v6.14zm2.84 6.15h-1.89v-5.2h1.89v5.2zm0-6.15h-1.89v-6.14h1.89v6.14zm1.42-9.92h3.78v2.83h-3.78v-2.83zm4.25 16.07h-4.73v-5.2h4.73v5.2zm0-6.15h-4.73v-6.14h4.73v6.14z" style="fill:#48639e"/><path class="st0" d="M13.85 27a.47.47 0 0 0-.33-.14h-1.89c-.26 0-.47.22-.47.48v3.3c0 .13.05.25.13.34.09.09.21.14.34.14h1.89a.476.476 0 0 0 .47-.48v-3.3c0-.13-.05-.25-.14-.34zm-.8 3.17h-.95v-2.36h.95v2.36zM33.71 27a.476.476 0 0 0-.34-.14h-1.89c-.26 0-.47.22-.47.48v3.3a.476.476 0 0 0 .47.48h1.89c.13 0 .25-.05.34-.14.08-.09.13-.21.13-.34v-3.3c0-.13-.05-.25-.13-.34zm-.81 3.17h-.95v-2.36h.95v2.36zM13.58 34.37c-.27-.27-.63-.42-1.01-.42-.37 0-.73.15-1 .42-.26.27-.41.63-.41 1v1.42c0 .13.05.25.13.33.09.09.21.14.34.14h1.89c.12 0 .24-.05.33-.14.09-.08.14-.2.14-.33v-1.42c0-.37-.15-.73-.41-1zm-.53 1.95h-.95v-.95c0-.26.21-.47.47-.47s.48.21.48.47v.95zM33.14 34.14c-.44-.25-.98-.25-1.42 0-.44.26-.71.73-.71 1.23v1.42c0 .13.05.25.14.33.09.09.21.14.33.14h1.89c.13 0 .25-.05.34-.14.08-.08.13-.2.13-.33v-1.42c0-.5-.27-.97-.7-1.23zm-.24 2.18h-.95v-.95c0-.26.22-.47.48-.47s.47.21.47.47v.95z"/></svg>