<svg version="1.1" id="Layer_1" xmlns="http://www.w3.org/2000/svg" x="0" y="0" viewBox="0 0 45 45" style="enable-background:new 0 0 45 45" xml:space="preserve"><style>.st0{fill:#24a7d0}.st1{fill:#48639e}</style><path style="fill:none;stroke:#48639e;stroke-miterlimit:10" d="M4.77 38.67h35.46"/><path class="st0" d="M25.29 13.52h-5.26c-.19 0-.34-.15-.34-.34a2.97 2.97 0 0 1 5.94 0c0 .19-.16.34-.34.34zm-4.89-.67h4.53a2.292 2.292 0 0 0-2.26-1.95c-1.16 0-2.11.84-2.27 1.95z"/><path class="st1" d="M20.24 24.11c-.19 0-.34-.15-.34-.34v-8.92c0-.19.15-.34.34-.34s.34.15.34.34v8.92c0 .19-.15.34-.34.34zM24.78 22.32c-.19 0-.34-.15-.34-.34v-7.13c0-.19.15-.34.34-.34s.34.15.34.34v7.13c0 .19-.15.34-.34.34zM10.47 38.99c-.19 0-.34-.15-.34-.34v-2.14c0-.06.02-.12.04-.17 1.44-2.53 2.13-5.87 2.21-10.81l-.29-10.67c-.01-.19.14-.34.33-.35.18-.01.34.14.35.33l.29 10.69c-.08 5.03-.78 8.45-2.25 11.07v2.05c0 .19-.16.34-.34.34zM34.53 38.99c-.19 0-.34-.15-.34-.34V36.6c-1.47-2.62-2.17-6.04-2.25-11.06l.29-10.7c.01-.19.16-.34.35-.33.19.01.34.16.33.35l-.29 10.69c.08 4.93.76 8.27 2.21 10.8.03.05.04.11.04.17v2.14c0 .18-.15.33-.34.33z"/><path class="st1" d="M32.29 25.59H12.72c-.19 0-.34-.15-.34-.34s.15-.34.34-.34h19.57c.19 0 .34.15.34.34s-.15.34-.34.34zM32.29 24.23h-1.97c-.19 0-.34-.15-.34-.34v-1.44h-2.05v1.44c0 .19-.15.34-.34.34h-2.57c-.19 0-.34-.15-.34-.34v-1.57h-2.1v1.44c0 .19-.15.34-.34.34h-2.89c-.19 0-.34-.15-.34-.34v-1.44h-1.95v1.44c0 .19-.15.34-.34.34h-2.41c-.19 0-.34-.15-.34-.34v-1.44h-1.34c-.19 0-.34-.15-.34-.34s.15-.34.34-.34h1.68c.19 0 .34.15.34.34v1.44h1.74v-1.44c0-.19.15-.34.34-.34h2.62c.19 0 .34.15.34.34v1.44h2.21v-1.44c0-.19.15-.34.34-.34h2.78c.19 0 .34.15.34.34v1.57h1.89v-1.44c0-.19.15-.34.34-.34h2.73c.19 0 .34.15.34.34v1.44h1.63c.19 0 .34.15.34.34s-.15.34-.34.34z"/><path class="st1" d="M17.28 22.32c-.19 0-.34-.15-.34-.34v-7.13c0-.19.15-.34.34-.34.19 0 .34.15.34.34v7.13c0 .19-.15.34-.34.34zM27.76 22.45c-.19 0-.34-.15-.34-.34v-7.26c0-.19.15-.34.34-.34.19 0 .34.15.34.34v7.26c0 .19-.15.34-.34.34z"/><path class="st0" d="M18.11 15.19h-6.35c-.19 0-.34-.15-.34-.34v-3.33c0-.19.15-.34.34-.34h1.37c.19 0 .34.15.34.34v1.55h.79v-1.55c0-.19.15-.34.34-.34h.92c.19 0 .34.15.34.34v1.55h.79v-1.55c0-.19.15-.34.34-.34h1.14c.19 0 .34.15.34.34v3.33c-.02.19-.17.34-.36.34zm-6.01-.68h5.67v-2.65h-.46v1.55c0 .19-.15.34-.34.34h-1.46c-.19 0-.34-.15-.34-.34v-1.55h-.24v1.55c0 .19-.15.34-.34.34h-1.46c-.19 0-.34-.15-.34-.34v-1.55h-.69v2.65zM33.26 15.19H26.9c-.19 0-.34-.15-.34-.34v-3.33c0-.19.15-.34.34-.34h1.37c.19 0 .34.15.34.34v1.55h.79v-1.55c0-.19.15-.34.34-.34h.92c.19 0 .34.15.34.34v1.55h.79v-1.55c0-.19.15-.34.34-.34h1.14c.19 0 .34.15.34.34v3.33c-.02.19-.17.34-.35.34zm-6.02-.68h5.67v-2.65h-.46v1.55c0 .19-.15.34-.34.34h-1.46c-.19 0-.34-.15-.34-.34v-1.55h-.24v1.55c0 .19-.15.34-.34.34h-1.46c-.19 0-.34-.15-.34-.34v-1.55h-.69v2.65z"/><path class="st1" d="M25.72 15.19H19.3c-.19 0-.34-.15-.34-.34v-1.67c0-.19.15-.34.34-.34h6.41c.19 0 .34.15.34.34v1.67c.01.19-.15.34-.33.34zm-6.08-.68h5.73v-.99h-5.73v.99z"/><path class="st0" d="M22.66 10.9c-.19 0-.34-.15-.34-.34v-3.6c0-.19.15-.34.34-.34.19 0 .34.15.34.34v3.6c0 .18-.15.34-.34.34z"/><path class="st0" d="M24.08 8.64h-2.85c-.19 0-.34-.15-.34-.34 0-.19.15-.34.34-.34h2.85c.19 0 .34.15.34.34 0 .19-.15.34-.34.34zM14.93 10.15h-.02a.347.347 0 0 1-.3-.22l-.34-.88h-1.21c-.13 0-.25-.08-.31-.2a.327.327 0 0 1 .06-.35l.73-.87-.71-.69a.335.335 0 0 1 .23-.58h1.14l.41-.97c.05-.12.17-.2.31-.21.13-.01.26.07.31.2l.41.88 1.13-.02c.12 0 .25.07.31.18.06.12.05.25-.03.36l-.65.88.65.83c.08.1.1.25.03.36-.06.12-.18.19-.32.18l-1.05-.05-.48.98c-.05.12-.17.19-.3.19zM13.8 8.38h.71c.14 0 .27.09.32.22l.14.37.24-.48c.06-.12.18-.19.32-.19l.53.02-.35-.45a.345.345 0 0 1-.01-.41l.4-.54-.66.01c-.13 0-.26-.08-.31-.2l-.18-.39-.2.47c-.05.13-.18.21-.31.21h-.54l.34.33c.13.12.14.33.02.46l-.46.57zM30.09 10.15h-.02a.347.347 0 0 1-.3-.22l-.34-.88h-1.21c-.13 0-.25-.08-.31-.2a.32.32 0 0 1 .05-.36l.73-.87-.71-.69a.335.335 0 0 1 .23-.58h1.14l.41-.97c.05-.12.17-.2.31-.21.13-.01.26.07.31.2l.41.88 1.13-.02c.13 0 .25.07.31.18.06.12.05.25-.03.36l-.65.88.65.83c.08.1.1.25.03.36-.06.12-.18.19-.32.18l-1.05-.05-.48.98c-.04.13-.16.2-.29.2zm-1.14-1.77h.71c.14 0 .27.09.32.22l.14.37.24-.48c.06-.12.18-.19.32-.19l.53.02-.35-.45a.345.345 0 0 1-.01-.41l.4-.54-.66.01c-.13 0-.26-.08-.31-.2l-.18-.38-.2.47c-.05.13-.18.21-.31.21h-.54l.34.33c.13.12.14.33.02.46l-.46.56z"/><path class="st1" d="M26.68 38.99h-8.24c-.19 0-.34-.15-.34-.34v-8.26c0-2.46 2-4.46 4.46-4.46s4.46 2 4.46 4.46v8.26c0 .19-.15.34-.34.34zm-7.9-.68h7.56v-7.92c0-2.08-1.7-3.78-3.78-3.78s-3.78 1.7-3.78 3.78v7.92z"/><path class="st1" d="M22.56 38.99c-.19 0-.34-.15-.34-.34V26.27c0-.19.15-.34.34-.34.19 0 .34.15.34.34v12.38c0 .19-.15.34-.34.34zM10.47 36.17h7.97v.68h-7.97zM26.56 36.17h7.97v.68h-7.97z"/></svg>