<svg version="1.1" id="Layer_1" xmlns="http://www.w3.org/2000/svg" x="0" y="0" viewBox="0 0 45 45" style="enable-background:new 0 0 45 45" xml:space="preserve"><style>.st0{fill:#24a7d0}.st1{fill:#48639e}</style><path style="fill:none;stroke:#48639e;stroke-miterlimit:10" d="M4.77 38.67h35.46"/><path class="st0" d="M24.36 17.67v.11l-.02.25.92.05.02-.25c0-.05.01-.11.01-.17 0-1.14-.69-2.17-1.63-2.67v-1.97c0-.51-.32-.95-.76-1.13v-1.16h-.93v1.16c-.44.18-.76.62-.76 1.13V15c-.94.5-1.63 1.53-1.63 2.67 0 .07 0 .13.01.2l.02.25.92-.06-.02-.25v-.13c0-1.08.92-2.06 1.93-2.06s1.92.97 1.92 2.05zm-1.63-2.96c-.1-.01-.2-.03-.3-.03-.1 0-.2.02-.3.03v-.75h.59v.75zm0-1.67h-.59c0-.16.13-.3.3-.3.16 0 .29.13.29.3z"/><path class="st1" d="M19.56 21.2v8.53h2.22V21.2h-2.22zm1.29 7.6h-.37v-6.67h.37v6.67zM23.27 29.73h2.22V21.2h-2.22v8.53zm.93-7.6h.36v6.67h-.36v-6.67z"/><path class="st1" d="M28.81 24.74v-1.72h-1.6V21.2h-1.49v-3.45l-.26-.13c-2.13-1.07-4.17-1.07-6.06.01l-.23.13v3.44h-1.36v1.82h-1.6v1.72H8.37v14.39h28.28V24.74h-7.84zm-4.03-6.41v2.88h-4.7v-2.89c1.47-.76 3.05-.75 4.7.01zm3.1 5.62v14.26h-.68V23.95h.68zm-1.6-1.82v6.67h-7.55v-6.67h7.55zm-3.21 16.08H21.9v-6.14h1.18v6.14zm-2.1-7.07v7.07h-2.25v-8.48h7.55v8.48h-2.28v-7.07h-3.02zm-3.85-6.4v-.79h.67v14.26h-.67V24.74zm-.93 13.47h-6.9V25.67h6.9v12.54zm19.52 0h-6.9V25.67h6.9v12.54z"/><path class="st0" d="M10.54 27.15h1v9.83h-1zM13.56 27.15h1v9.83h-1zM30.25 27.15h1v9.83h-1zM33.27 27.15h1v9.83h-1z"/></svg>