<svg version="1.1" id="Layer_1" xmlns="http://www.w3.org/2000/svg" x="0" y="0" viewBox="0 0 45 45" style="enable-background:new 0 0 45 45" xml:space="preserve"><style>.st0{fill:#24a7d0}</style><path class="st0" d="M19.98 13.36h-1V8.27h7.04v5.08h-1V9.27h-5.04z"/><path class="st0" d="M22 3.55h1v5.38h-1z"/><path class="st0" d="M20.38 5.16h4.23v1h-4.23z"/><path style="fill:none;stroke:#48639e;stroke-miterlimit:10" d="M4.77 38.67h35.46"/><path class="st0" d="M30.69 33.92v3.45h2.58v-3.45h-2.58zm1.72 2.59h-.86v-1.73h.86v1.73zM30.69 28.75v3.45h2.58v-3.45h-2.58zm1.72 2.59h-.86v-1.73h.86v1.73zM11.73 33.92v3.45h2.58v-3.45h-2.58zm1.72 2.59h-.86v-1.73h.86v1.73zM11.73 28.75v3.45h2.58v-3.45h-2.58zm1.72 2.59h-.86v-1.73h.86v1.73zM16.9 20.13v2.59h2.58v-2.59H16.9zm1.72 1.73h-.86V21h.86v.86zM25.52 20.13v2.59h2.58v-2.59h-2.58zm1.72 1.73h-.86V21h.86v.86z"/><path d="M30.69 25.3v-1.72h-.86V19.7c0-4.04-3.29-7.32-7.33-7.32s-7.33 3.28-7.33 7.32v3.88h-.86v1.72H9.14v2.59H10v11.2h25v-11.2h.86V25.3h-5.17zm-1.86-6.89H25.5c-.1-2.52-1.04-4.15-1.81-5.06 2.58.49 4.62 2.5 5.14 5.06zm-6.33-5.05c.58.51 2.01 2.07 2.14 5.05h-4.28c.13-3 1.56-4.55 2.14-5.05zm-1.19-.01c-.76.91-1.71 2.54-1.81 5.06h-3.33a6.486 6.486 0 0 1 5.14-5.06zm-5.27 6.35c0-.14.01-.29.02-.43h12.88c.01.14.02.29.02.43v3.88h-3.9l-2.56-1.86-2.56 1.86h-3.9V19.7zm13.79 4.74v.86h-2.4l-1.18-.86h3.58zm-14.66 0h3.59l-1.19.86h-2.4v-.86zm0 13.79h-4.3V27.89h3.44v.86h.86v9.48zM10 27.03v-.86h6.38l-1.18.86H10zm8.62 11.2h-.86v-2.58h.86v2.58zm5.47 0h-3.1v-6.46h3.1v6.46zm3.15 0h-.86v-2.58h.86v2.58zm1.72 0h-.86v-3.45h-2.58v3.45h-.57V30.9h-4.82v7.33h-.65v-3.45H16.9v3.45h-.86v-9.48h12.92v9.48zM18.28 27.89l4.22-2.92 4.22 2.92h-8.44zm9.96 0-5.74-3.97-5.74 3.97h-1.28l7.02-5.1 7.02 5.1h-1.28zm5.9 10.34h-4.31v-9.48h.86v-.86h3.45v10.34zm.86-11.2h-5.2l-1.18-.86H35v.86z" style="fill:#48639e"/></svg>