<svg version="1.1" id="Layer_1" xmlns="http://www.w3.org/2000/svg" x="0" y="0" viewBox="0 0 45 45" style="enable-background:new 0 0 45 45" xml:space="preserve"><style>.st0{fill:#24a7d0}</style><path style="fill:none;stroke:#48639e;stroke-miterlimit:10" d="M4.77 38.67h35.46"/><path class="st0" d="M20.94 19.02a.47.47 0 1 0-.94 0v.77a.47.47 0 1 0 .94 0v-.77zM22.54 19.02a.47.47 0 1 0-.94 0v.77a.47.47 0 1 0 .94 0v-.77zM24.24 19.02a.47.47 0 1 0-.94 0v.77a.47.47 0 1 0 .94 0v-.77zM25.37 18.55a.47.47 0 0 0-.47.47v.77a.47.47 0 1 0 .94 0v-.77a.476.476 0 0 0-.47-.47zM21.28 23.81a.47.47 0 0 0-.47.47v.77a.47.47 0 1 0 .94 0v-.77a.483.483 0 0 0-.47-.47zM22.97 23.81a.47.47 0 0 0-.47.47v.77a.47.47 0 1 0 .94 0v-.77a.47.47 0 0 0-.47-.47zM24.57 23.81a.47.47 0 0 0-.47.47v.77a.47.47 0 1 0 .94 0v-.77a.476.476 0 0 0-.47-.47zM21.28 26.38a.47.47 0 0 0-.47.47v.77a.47.47 0 1 0 .94 0v-.77c-.01-.25-.22-.47-.47-.47zM22.97 26.38a.47.47 0 0 0-.47.47v.77a.47.47 0 1 0 .94 0v-.77c0-.25-.21-.47-.47-.47zM24.57 26.38a.47.47 0 0 0-.47.47v.77a.47.47 0 1 0 .94 0v-.77a.483.483 0 0 0-.47-.47z"/><path d="M36.23 38.21h-.06V28.14h.06c.18 0 .34-.1.42-.26.08-.16.06-.35-.04-.49l-2.57-3.49a.48.48 0 0 0-.75 0l-2.61 3.49c-.11.14-.12.33-.04.49.08.16.24.26.42.26h.07v10.07H29.5V21.54a.47.47 0 0 0-.47-.47h-.22v-3.38h.13c.19 0 .37-.12.43-.3a.48.48 0 0 0-.12-.52l-5.97-5.49a.473.473 0 0 0-.63 0l-6.06 5.49a.48.48 0 0 0-.12.52c.07.18.24.3.44.3h.15v3.38h-.22a.47.47 0 0 0-.47.47v16.67h-1.63V28.14h.06c.18 0 .34-.1.42-.26.08-.16.06-.35-.04-.49l-2.57-3.49c-.17-.23-.57-.24-.75 0l-2.61 3.49a.46.46 0 0 0-.04.49c.08.16.24.26.42.26h.07v10.07h-.09a.47.47 0 1 0 0 .94h26.62a.47.47 0 1 0 0-.94zM13.81 28.14v10.07h-3.2V28.14h3.2zm-3.26-.95 1.67-2.24 1.65 2.24h-3.32zm13.56 8.5v2.52h-2.36v-2.52h2.36zm.47-.94h-3.29a.47.47 0 0 0-.47.47v2.99h-.88v-16.2h5.99v16.2h-.88v-2.99a.483.483 0 0 0-.47-.47zm-6.45-18 4.84-4.39 4.77 4.39h-9.61zm9.74.94v3.38h-9.89v-3.38h9.89zm-1.01 20.52v-16.2h1.7v16.2h-1.7zm-9.56 0v-16.2H19v16.2h-1.7zm17.94-10.07v10.07h-3.2V28.14h3.2zm-3.26-.95 1.67-2.24 1.65 2.24h-3.32z" style="fill:#48639e"/></svg>