<svg version="1.1" id="Layer_1" xmlns="http://www.w3.org/2000/svg" x="0" y="0" viewBox="0 0 45 45" style="enable-background:new 0 0 45 45" xml:space="preserve"><style>.st0{fill:#24a7d0}</style><path style="fill:none;stroke:#48639e;stroke-miterlimit:10" d="M4.77 38.67h35.46"/><path d="M36.28 17.37a.363.363 0 0 0-.26-.11H27c-.2 0-.37.17-.37.38v9.24c-1.45-.31-2.93-.45-4.42-.43-1.29-.02-2.57.08-3.85.3v-9.11c0-.1-.03-.2-.11-.27a.363.363 0 0 0-.26-.11H8.98a.38.38 0 0 0-.38.38v21.03c0 .1.04.2.11.27s.17.11.27.11h27.04c.1 0 .19-.04.26-.11s.11-.17.11-.27V17.64c0-.1-.04-.2-.11-.27zm-8.9 7.41h2.56v3.49c-.76-.56-1.63-.97-2.56-1.2v-2.29zM9.36 18.02h8.27v4.5h-2.58v-.02h-.75v.02h-1.64v-.02h-.74v.02H9.35l.01-4.5zm0 5.25h8.26v.75H9.35l.01-.75zm8.26 1.51v2.14c-.9.2-1.76.53-2.56.97v-3.11h2.56zm-3.31 0v3.65l-.1.1h-1.55v-3.75h1.65zm-4.95 0h2.56v3.75H9.35l.01-3.75zm0 4.5h4.93l.85.75H9.35l.01-.75zm-.01 9.02v-1.51h2.56l.01 1.51H9.35zm3.31 0v-1.51h1.64l.03 1.51h-1.67zm2.39 0v-1.51h2.56l.02 1.51h-2.58zm-5.7-2.26v-.75h8.26l.02.75H9.35zm0-1.5.01-3.76h6.62l1.63 1.46.02 2.3H9.35zm14.23 3.76h-2.15v-4.14h2.13l.02 4.03v.11zm3.05 0H24.3v-4.51c0-.1-.04-.2-.11-.27s-.17-.11-.27-.11h-2.86c-.21.01-.37.18-.37.38v4.51h-2.33v-6.13c.15-.19.91-.97 4.14-.97 3.23 0 4.01.8 4.13.96v6.14zm-4.13-7.85c-2.91 0-4.09.6-4.56 1.06l-2.99-2.65c.66-.51 2.65-1.66 7.26-1.66 4.68 0 6.66 1.2 7.29 1.69l-2.47 2.6c-.49-.45-1.68-1.04-4.53-1.04zm7.44 7.85h-2.56v-1.51h2.56v1.51zm.75 0v-1.51h1.64l.01 1.51h-1.65zm2.39 0v-1.51h2.56l.01 1.51h-2.57zm-5.7-2.26v-.75h8.26l.01.75h-8.27zm0-1.5v-2.32l1.36-1.44h6.9l.01 3.76h-8.27zm2.07-4.51.71-.75h5.48l.01.75h-6.2zm1.24-1.5v-3.75h1.65v3.75h-1.65zm2.39 0v-3.75h2.56l.01 3.75h-2.57zm-5.7-4.51v-.75h8.26l.01.75h-8.27zm5.7-1.5v-.02h-.75v.02h-1.64v-.02h-.75v.02h-2.56v-4.5h8.26l.01 4.5h-2.57z" style="fill:#48639e"/><path class="st0" d="M24.3 33.79v4.4h-.72l-.02-4.03h-2.13v4.03h-.74v-4.4c0-.2.16-.37.37-.38h2.86c.1 0 .2.04.27.11s.11.17.11.27zM29.94 18.02h.75v4.48h-.75zM32.33 18.02h.75v4.48h-.75zM11.92 18.02h.74v4.48h-.74zM15.07 18.02l-.02 4.48h-.75v-4.48z"/></svg>