<svg version="1.1" id="Layer_1" xmlns="http://www.w3.org/2000/svg" x="0" y="0" viewBox="0 0 45 45" style="enable-background:new 0 0 45 45" xml:space="preserve"><style>.st0{fill:#24a7d0}</style><path style="fill:none;stroke:#48639e;stroke-miterlimit:10" d="M4.77 38.67h35.46"/><path class="st0" d="M31.98 28.24h-.9c-.5 0-.9.41-.9.9v.9c0 .5.41.9.9.9h.9c.5 0 .9-.41.9-.9v-.9c0-.49-.4-.9-.9-.9zm0 1.81h-.9v-.9h.9v.9zM31.98 24.63h-.9c-.5 0-.9.41-.9.9v.9c0 .5.41.9.9.9h.9c.5 0 .9-.41.9-.9v-.9c0-.5-.4-.9-.9-.9zm0 1.8h-.9v-.9h.9v.9z"/><path d="m36.22 21.89-1.82-2.13c.18-.19.29-.45.29-.74s-.12-.56-.32-.77l-2.21-2.2c-.18-.18-.4-.31-.63-.38v-.97h.9v-.91h-.9v-.9h-.91v.9h-.9v.91h.9v.97c-.24.07-.45.2-.64.38l-2.2 2.2c-.2.21-.32.48-.32.78 0 .28.11.54.29.73l-.4.47-3.75-4.14c-.29-.31-.7-.49-1.12-.49-.4 0-.78.16-1.06.44l-3.65 3.65a10.897 10.897 0 0 1-2.42-4.34.912.912 0 0 0-.87-.65h-.11v-.98c.52-.19.9-.69.9-1.28 0-.75-.61-1.35-1.35-1.35-.75 0-1.36.6-1.36 1.35 0 .59.38 1.09.91 1.28v.98h-.11c-.41 0-.76.27-.87.65-.51 1.78-1.47 3.41-2.78 4.72l-.04.05H9.4c-.5 0-.9.4-.9.9v.9c0 .5.4.9.9.9v16.26h26.19V23.71a1.115 1.115 0 0 0 .63-1.82zm-7.8-3 2.2-2.2a.636.636 0 0 1 .91 0l2.2 2.2c.03.04.05.09.05.13 0 .11-.08.19-.18.19h-5.05c-.1 0-.18-.08-.18-.19 0-.04.01-.09.05-.13zm-6.36-2.21c.11-.11.26-.18.42-.18.17 0 .33.07.45.2l3.83 4.22-.44.51-3.81-4.23-3.32 3.33a.885.885 0 0 0-.59-.4l3.46-3.45zm3.49 5.24h-.8v-.88l.8.88zm-4.67-1.81 1.6-1.6 1.44 1.6h-3.04zm2.97.91v.9h-.9v-.9h.9zm-1.81 0v.9h-.9v-.9h.9zm-1.8 0v.9h-.9v-.26l.63-.64h.27zm-6.32-9.03c.25 0 .45.2.45.45s-.2.45-.45.45-.45-.2-.45-.45.2-.45.45-.45zm-.56 3.61h1.12c.48 1.67 1.32 3.21 2.45 4.51H10.9a11.77 11.77 0 0 0 2.46-4.51zM9.4 21.02h9.03v.9H9.4v-.9zm4.07 5.18v2.94h-1.36v-6.32h1.36v.98c-.53.19-.91.69-.91 1.28 0 .75.61 1.36 1.36 1.36a1.36 1.36 0 0 0 .45-2.64v-.98h1.35v6.32h-1.35V26.2h-.9zm.45-1.57c.25 0 .45.2.45.45s-.2.45-.45.45-.45-.2-.45-.45.2-.45.45-.45zm-2.71-1.81v6.32h-.9v-6.32h.9zm.9 15.35v-2.7c0-1 .81-1.81 1.81-1.81.99 0 1.8.81 1.8 1.81v2.7h-3.61zm5.42 0h-.9v-2.7c0-1.5-1.22-2.71-2.71-2.71-1.5 0-2.71 1.21-2.71 2.71v2.7h-.9v-6.32h7.22v-.9h-7.22v-.9h7.22v8.12zm0-9.02h-.9v-6.33h.9v6.33zm3.61 9.02h-.9v-1.8h.9v1.8zm1.81 0h-.91v-1.8h.91v1.8zm1.8 0h-.9v-1.8h.9v1.8zm1.81 0h-.9v-1.8c0-.5-.41-.9-.91-.9h-4.51c-.5 0-.9.4-.9.9v1.8h-.91v-3.61h8.13v3.61zm-6.32-4.51v-8.57h.9v8.57h-.9zm3.61 0v-8.57h.9v8.57h-.9zm2.71 0h-.9v-8.57c0-.5-.41-.92-.91-.92h-.9c-.5 0-.9.42-.9.92v8.57h-.91v-8.57c0-.5-.4-.92-.9-.92h-.9c-.5 0-.91.42-.91.92v8.57h-.9V22.82h8.13v10.84zm6.32 4.51h-3.61v-2.7c0-1 .81-1.81 1.8-1.81 1 0 1.81.81 1.81 1.81v2.7zm1.81 0h-.91v-2.7c0-1.5-1.21-2.71-2.71-2.71-1.49 0-2.71 1.21-2.71 2.71v2.7h-.9V23.73h7.23v14.44zm-4.07-15.35v-.9h.91v.9h-.91zm4.76 0h-2.95v-.9c0-.5-.41-.9-.9-.9h-.91c-.5 0-.9.4-.9.9v.9h-2.95c-.12 0-.21-.09-.21-.2 0-.05.02-.1.05-.14l2.03-2.37h4.87l2.03 2.37c.03.04.05.09.05.14 0 .11-.09.2-.21.2z" style="fill:#48639e"/><path class="st0" d="M22.04 25.09v8.57h-.9v-8.57h-.9v8.57h-.91v-8.57c0-.5.41-.92.91-.92h.9c.5 0 .9.42.9.92zM25.66 25.09v8.57h-.91v-8.57h-.9v8.57h-.9v-8.57c0-.5.4-.92.9-.92h.9c.5 0 .91.42.91.92zM16.63 35.47v2.7h-.91v-2.7c0-1-.81-1.81-1.8-1.81-1 0-1.81.81-1.81 1.81v2.7h-.9v-2.7c0-1.5 1.21-2.71 2.71-2.71 1.49 0 2.71 1.21 2.71 2.71z"/></svg>