<svg width="1272" height="272" viewBox="0 0 1272 272" fill="none" xmlns="http://www.w3.org/2000/svg">
<rect width="1272" height="272" rx="28" fill="#EEECFE"/>
<path d="M38.828 13.96V28H35.408V13.96H38.828ZM44.7264 13.96V28H41.3064V13.96H44.7264ZM63.1048 13.96V28H59.6848V19.58L56.5448 28H53.7848L50.6248 19.56V28H47.2048V13.96H51.2448L55.1848 23.68L59.0848 13.96H63.1048ZM78.3025 20.8C79.1158 20.9733 79.7692 21.38 80.2625 22.02C80.7558 22.6467 81.0025 23.3667 81.0025 24.18C81.0025 25.3533 80.5892 26.2867 79.7625 26.98C78.9492 27.66 77.8092 28 76.3425 28H69.8025V13.96H76.1225C77.5492 13.96 78.6625 14.2867 79.4625 14.94C80.2758 15.5933 80.6825 16.48 80.6825 17.6C80.6825 18.4267 80.4625 19.1133 80.0225 19.66C79.5958 20.2067 79.0225 20.5867 78.3025 20.8ZM73.2225 19.64H75.4625C76.0225 19.64 76.4492 19.52 76.7425 19.28C77.0492 19.0267 77.2025 18.66 77.2025 18.18C77.2025 17.7 77.0492 17.3333 76.7425 17.08C76.4492 16.8267 76.0225 16.7 75.4625 16.7H73.2225V19.64ZM75.7425 25.24C76.3158 25.24 76.7558 25.1133 77.0625 24.86C77.3825 24.5933 77.5425 24.2133 77.5425 23.72C77.5425 23.2267 77.3758 22.84 77.0425 22.56C76.7225 22.28 76.2758 22.14 75.7025 22.14H73.2225V25.24H75.7425ZM82.3061 22.4C82.3061 21.2533 82.5194 20.2467 82.9461 19.38C83.3861 18.5133 83.9794 17.8467 84.7261 17.38C85.4728 16.9133 86.3061 16.68 87.2261 16.68C88.0128 16.68 88.6994 16.84 89.2861 17.16C89.8861 17.48 90.3461 17.9 90.6661 18.42V16.84H94.0861V28H90.6661V26.42C90.3328 26.94 89.8661 27.36 89.2661 27.68C88.6794 28 87.9928 28.16 87.2061 28.16C86.2994 28.16 85.4728 27.9267 84.7261 27.46C83.9794 26.98 83.3861 26.3067 82.9461 25.44C82.5194 24.56 82.3061 23.5467 82.3061 22.4ZM90.6661 22.42C90.6661 21.5667 90.4261 20.8933 89.9461 20.4C89.4794 19.9067 88.9061 19.66 88.2261 19.66C87.5461 19.66 86.9661 19.9067 86.4861 20.4C86.0194 20.88 85.7861 21.5467 85.7861 22.4C85.7861 23.2533 86.0194 23.9333 86.4861 24.44C86.9661 24.9333 87.5461 25.18 88.2261 25.18C88.9061 25.18 89.4794 24.9333 89.9461 24.44C90.4261 23.9467 90.6661 23.2733 90.6661 22.42ZM103.36 16.72C104.667 16.72 105.707 17.1467 106.48 18C107.267 18.84 107.66 20 107.66 21.48V28H104.26V21.94C104.26 21.1933 104.067 20.6133 103.68 20.2C103.294 19.7867 102.774 19.58 102.12 19.58C101.467 19.58 100.947 19.7867 100.56 20.2C100.174 20.6133 99.9803 21.1933 99.9803 21.94V28H96.5603V16.84H99.9803V18.32C100.327 17.8267 100.794 17.44 101.38 17.16C101.967 16.8667 102.627 16.72 103.36 16.72ZM114.277 16.68C115.064 16.68 115.75 16.84 116.337 17.16C116.937 17.48 117.397 17.9 117.717 18.42V16.84H121.137V27.98C121.137 29.0067 120.93 29.9333 120.517 30.76C120.117 31.6 119.497 32.2667 118.657 32.76C117.83 33.2533 116.797 33.5 115.557 33.5C113.904 33.5 112.564 33.1067 111.537 32.32C110.51 31.5467 109.924 30.4933 109.777 29.16H113.157C113.264 29.5867 113.517 29.92 113.917 30.16C114.317 30.4133 114.81 30.54 115.397 30.54C116.104 30.54 116.664 30.3333 117.077 29.92C117.504 29.52 117.717 28.8733 117.717 27.98V26.4C117.384 26.92 116.924 27.3467 116.337 27.68C115.75 28 115.064 28.16 114.277 28.16C113.357 28.16 112.524 27.9267 111.777 27.46C111.03 26.98 110.437 26.3067 109.997 25.44C109.57 24.56 109.357 23.5467 109.357 22.4C109.357 21.2533 109.57 20.2467 109.997 19.38C110.437 18.5133 111.03 17.8467 111.777 17.38C112.524 16.9133 113.357 16.68 114.277 16.68ZM117.717 22.42C117.717 21.5667 117.477 20.8933 116.997 20.4C116.53 19.9067 115.957 19.66 115.277 19.66C114.597 19.66 114.017 19.9067 113.537 20.4C113.07 20.88 112.837 21.5467 112.837 22.4C112.837 23.2533 113.07 23.9333 113.537 24.44C114.017 24.9333 114.597 25.18 115.277 25.18C115.957 25.18 116.53 24.9333 116.997 24.44C117.477 23.9467 117.717 23.2733 117.717 22.42ZM122.931 22.4C122.931 21.2533 123.144 20.2467 123.571 19.38C124.011 18.5133 124.604 17.8467 125.351 17.38C126.098 16.9133 126.931 16.68 127.851 16.68C128.638 16.68 129.324 16.84 129.911 17.16C130.511 17.48 130.971 17.9 131.291 18.42V16.84H134.711V28H131.291V26.42C130.958 26.94 130.491 27.36 129.891 27.68C129.304 28 128.618 28.16 127.831 28.16C126.924 28.16 126.098 27.9267 125.351 27.46C124.604 26.98 124.011 26.3067 123.571 25.44C123.144 24.56 122.931 23.5467 122.931 22.4ZM131.291 22.42C131.291 21.5667 131.051 20.8933 130.571 20.4C130.104 19.9067 129.531 19.66 128.851 19.66C128.171 19.66 127.591 19.9067 127.111 20.4C126.644 20.88 126.411 21.5467 126.411 22.4C126.411 23.2533 126.644 23.9333 127.111 24.44C127.591 24.9333 128.171 25.18 128.851 25.18C129.531 25.18 130.104 24.9333 130.571 24.44C131.051 23.9467 131.291 23.2733 131.291 22.42ZM140.605 13.2V28H137.185V13.2H140.605ZM148.164 28.16C147.07 28.16 146.084 27.9267 145.204 27.46C144.337 26.9933 143.65 26.3267 143.144 25.46C142.65 24.5933 142.404 23.58 142.404 22.42C142.404 21.2733 142.657 20.2667 143.164 19.4C143.67 18.52 144.364 17.8467 145.244 17.38C146.124 16.9133 147.11 16.68 148.204 16.68C149.297 16.68 150.284 16.9133 151.164 17.38C152.044 17.8467 152.737 18.52 153.244 19.4C153.75 20.2667 154.004 21.2733 154.004 22.42C154.004 23.5667 153.744 24.58 153.224 25.46C152.717 26.3267 152.017 26.9933 151.124 27.46C150.244 27.9267 149.257 28.16 148.164 28.16ZM148.164 25.2C148.817 25.2 149.37 24.96 149.824 24.48C150.29 24 150.524 23.3133 150.524 22.42C150.524 21.5267 150.297 20.84 149.844 20.36C149.404 19.88 148.857 19.64 148.204 19.64C147.537 19.64 146.984 19.88 146.544 20.36C146.104 20.8267 145.884 21.5133 145.884 22.42C145.884 23.3133 146.097 24 146.524 24.48C146.964 24.96 147.51 25.2 148.164 25.2ZM159.238 18.7C159.638 18.0867 160.138 17.6067 160.738 17.26C161.338 16.9 162.005 16.72 162.738 16.72V20.34H161.798C160.945 20.34 160.305 20.5267 159.878 20.9C159.451 21.26 159.238 21.9 159.238 22.82V28H155.818V16.84H159.238V18.7ZM174.893 22.24C174.893 22.56 174.873 22.8933 174.833 23.24H167.093C167.146 23.9333 167.366 24.4667 167.753 24.84C168.153 25.2 168.639 25.38 169.213 25.38C170.066 25.38 170.659 25.02 170.993 24.3H174.633C174.446 25.0333 174.106 25.6933 173.613 26.28C173.133 26.8667 172.526 27.3267 171.793 27.66C171.059 27.9933 170.239 28.16 169.333 28.16C168.239 28.16 167.266 27.9267 166.413 27.46C165.559 26.9933 164.893 26.3267 164.413 25.46C163.933 24.5933 163.693 23.58 163.693 22.42C163.693 21.26 163.926 20.2467 164.393 19.38C164.873 18.5133 165.539 17.8467 166.393 17.38C167.246 16.9133 168.226 16.68 169.333 16.68C170.413 16.68 171.373 16.9067 172.213 17.36C173.053 17.8133 173.706 18.46 174.173 19.3C174.653 20.14 174.893 21.12 174.893 22.24ZM171.393 21.34C171.393 20.7533 171.193 20.2867 170.793 19.94C170.393 19.5933 169.893 19.42 169.293 19.42C168.719 19.42 168.233 19.5867 167.833 19.92C167.446 20.2533 167.206 20.7267 167.113 21.34H171.393ZM193.095 13.96V28H189.675V22.22H184.355V28H180.935V13.96H184.355V19.46H189.675V13.96H193.095ZM197.284 15.68C196.684 15.68 196.191 15.5067 195.804 15.16C195.431 14.8 195.244 14.36 195.244 13.84C195.244 13.3067 195.431 12.8667 195.804 12.52C196.191 12.16 196.684 11.98 197.284 11.98C197.871 11.98 198.351 12.16 198.724 12.52C199.111 12.8667 199.304 13.3067 199.304 13.84C199.304 14.36 199.111 14.8 198.724 15.16C198.351 15.5067 197.871 15.68 197.284 15.68ZM198.984 16.84V28H195.564V16.84H198.984ZM205.703 16.68C206.489 16.68 207.176 16.84 207.763 17.16C208.363 17.48 208.823 17.9 209.143 18.42V16.84H212.563V27.98C212.563 29.0067 212.356 29.9333 211.943 30.76C211.543 31.6 210.923 32.2667 210.083 32.76C209.256 33.2533 208.223 33.5 206.983 33.5C205.329 33.5 203.989 33.1067 202.963 32.32C201.936 31.5467 201.349 30.4933 201.203 29.16H204.583C204.689 29.5867 204.943 29.92 205.343 30.16C205.743 30.4133 206.236 30.54 206.823 30.54C207.529 30.54 208.089 30.3333 208.503 29.92C208.929 29.52 209.143 28.8733 209.143 27.98V26.4C208.809 26.92 208.349 27.3467 207.763 27.68C207.176 28 206.489 28.16 205.703 28.16C204.783 28.16 203.949 27.9267 203.203 27.46C202.456 26.98 201.863 26.3067 201.423 25.44C200.996 24.56 200.783 23.5467 200.783 22.4C200.783 21.2533 200.996 20.2467 201.423 19.38C201.863 18.5133 202.456 17.8467 203.203 17.38C203.949 16.9133 204.783 16.68 205.703 16.68ZM209.143 22.42C209.143 21.5667 208.903 20.8933 208.423 20.4C207.956 19.9067 207.383 19.66 206.703 19.66C206.023 19.66 205.443 19.9067 204.963 20.4C204.496 20.88 204.263 21.5467 204.263 22.4C204.263 23.2533 204.496 23.9333 204.963 24.44C205.443 24.9333 206.023 25.18 206.703 25.18C207.383 25.18 207.956 24.9333 208.423 24.44C208.903 23.9467 209.143 23.2733 209.143 22.42ZM221.897 16.72C223.177 16.72 224.204 17.1467 224.977 18C225.75 18.84 226.137 20 226.137 21.48V28H222.737V21.94C222.737 21.1933 222.544 20.6133 222.157 20.2C221.77 19.7867 221.25 19.58 220.597 19.58C219.944 19.58 219.424 19.7867 219.037 20.2C218.65 20.6133 218.457 21.1933 218.457 21.94V28H215.037V13.2H218.457V18.34C218.804 17.8467 219.277 17.4533 219.877 17.16C220.477 16.8667 221.15 16.72 221.897 16.72ZM239.033 22.24C239.033 22.56 239.013 22.8933 238.973 23.24H231.233C231.287 23.9333 231.507 24.4667 231.893 24.84C232.293 25.2 232.78 25.38 233.353 25.38C234.207 25.38 234.8 25.02 235.133 24.3H238.773C238.587 25.0333 238.247 25.6933 237.753 26.28C237.273 26.8667 236.667 27.3267 235.933 27.66C235.2 27.9933 234.38 28.16 233.473 28.16C232.38 28.16 231.407 27.9267 230.553 27.46C229.7 26.9933 229.033 26.3267 228.553 25.46C228.073 24.5933 227.833 23.58 227.833 22.42C227.833 21.26 228.067 20.2467 228.533 19.38C229.013 18.5133 229.68 17.8467 230.533 17.38C231.387 16.9133 232.367 16.68 233.473 16.68C234.553 16.68 235.513 16.9067 236.353 17.36C237.193 17.8133 237.847 18.46 238.313 19.3C238.793 20.14 239.033 21.12 239.033 22.24ZM235.533 21.34C235.533 20.7533 235.333 20.2867 234.933 19.94C234.533 19.5933 234.033 19.42 233.433 19.42C232.86 19.42 232.373 19.5867 231.973 19.92C231.587 20.2533 231.347 20.7267 231.253 21.34H235.533ZM245.378 28.16C244.404 28.16 243.538 27.9933 242.778 27.66C242.018 27.3267 241.418 26.8733 240.978 26.3C240.538 25.7133 240.291 25.06 240.238 24.34H243.618C243.658 24.7267 243.838 25.04 244.158 25.28C244.478 25.52 244.871 25.64 245.338 25.64C245.764 25.64 246.091 25.56 246.318 25.4C246.558 25.2267 246.678 25.0067 246.678 24.74C246.678 24.42 246.511 24.1867 246.178 24.04C245.844 23.88 245.304 23.7067 244.558 23.52C243.758 23.3333 243.091 23.14 242.558 22.94C242.024 22.7267 241.564 22.4 241.178 21.96C240.791 21.5067 240.598 20.9 240.598 20.14C240.598 19.5 240.771 18.92 241.118 18.4C241.478 17.8667 241.998 17.4467 242.678 17.14C243.371 16.8333 244.191 16.68 245.138 16.68C246.538 16.68 247.638 17.0267 248.438 17.72C249.251 18.4133 249.718 19.3333 249.838 20.48H246.678C246.624 20.0933 246.451 19.7867 246.158 19.56C245.878 19.3333 245.504 19.22 245.038 19.22C244.638 19.22 244.331 19.3 244.118 19.46C243.904 19.6067 243.798 19.8133 243.798 20.08C243.798 20.4 243.964 20.64 244.298 20.8C244.644 20.96 245.178 21.12 245.898 21.28C246.724 21.4933 247.398 21.7067 247.918 21.92C248.438 22.12 248.891 22.4533 249.278 22.92C249.678 23.3733 249.884 23.9867 249.898 24.76C249.898 25.4133 249.711 26 249.338 26.52C248.978 27.0267 248.451 27.4267 247.758 27.72C247.078 28.0133 246.284 28.16 245.378 28.16ZM258.21 25.1V28H256.47C255.23 28 254.263 27.7 253.57 27.1C252.877 26.4867 252.53 25.4933 252.53 24.12V19.68H251.17V16.84H252.53V14.12H255.95V16.84H258.19V19.68H255.95V24.16C255.95 24.4933 256.03 24.7333 256.19 24.88C256.35 25.0267 256.617 25.1 256.99 25.1H258.21ZM263.673 22.4C263.673 21.2533 263.887 20.2467 264.313 19.38C264.753 18.5133 265.347 17.8467 266.093 17.38C266.84 16.9133 267.673 16.68 268.593 16.68C269.38 16.68 270.067 16.84 270.653 17.16C271.253 17.48 271.713 17.9 272.033 18.42V16.84H275.453V28H272.033V26.42C271.7 26.94 271.233 27.36 270.633 27.68C270.047 28 269.36 28.16 268.573 28.16C267.667 28.16 266.84 27.9267 266.093 27.46C265.347 26.98 264.753 26.3067 264.313 25.44C263.887 24.56 263.673 23.5467 263.673 22.4ZM272.033 22.42C272.033 21.5667 271.793 20.8933 271.313 20.4C270.847 19.9067 270.273 19.66 269.593 19.66C268.913 19.66 268.333 19.9067 267.853 20.4C267.387 20.88 267.153 21.5467 267.153 22.4C267.153 23.2533 267.387 23.9333 267.853 24.44C268.333 24.9333 268.913 25.18 269.593 25.18C270.273 25.18 270.847 24.9333 271.313 24.44C271.793 23.9467 272.033 23.2733 272.033 22.42ZM284.728 16.72C286.034 16.72 287.074 17.1467 287.848 18C288.634 18.84 289.028 20 289.028 21.48V28H285.628V21.94C285.628 21.1933 285.434 20.6133 285.048 20.2C284.661 19.7867 284.141 19.58 283.488 19.58C282.834 19.58 282.314 19.7867 281.928 20.2C281.541 20.6133 281.348 21.1933 281.348 21.94V28H277.928V16.84H281.348V18.32C281.694 17.8267 282.161 17.44 282.748 17.16C283.334 16.8667 283.994 16.72 284.728 16.72ZM290.724 22.4C290.724 21.2533 290.937 20.2467 291.364 19.38C291.804 18.5133 292.397 17.8467 293.144 17.38C293.891 16.9133 294.724 16.68 295.644 16.68C296.377 16.68 297.044 16.8333 297.644 17.14C298.257 17.4467 298.737 17.86 299.084 18.38V13.2H302.504V28H299.084V26.4C298.764 26.9333 298.304 27.36 297.704 27.68C297.117 28 296.431 28.16 295.644 28.16C294.724 28.16 293.891 27.9267 293.144 27.46C292.397 26.98 291.804 26.3067 291.364 25.44C290.937 24.56 290.724 23.5467 290.724 22.4ZM299.084 22.42C299.084 21.5667 298.844 20.8933 298.364 20.4C297.897 19.9067 297.324 19.66 296.644 19.66C295.964 19.66 295.384 19.9067 294.904 20.4C294.437 20.88 294.204 21.5467 294.204 22.4C294.204 23.2533 294.437 23.9333 294.904 24.44C295.384 24.9333 295.964 25.18 296.644 25.18C297.324 25.18 297.897 24.9333 298.364 24.44C298.844 23.9467 299.084 23.2733 299.084 22.42ZM317.957 25.52H312.717L311.877 28H308.297L313.377 13.96H317.337L322.417 28H318.797L317.957 25.52ZM317.077 22.88L315.337 17.74L313.617 22.88H317.077ZM328.983 24.8L331.403 16.84H335.043L331.083 28H326.863L322.903 16.84H326.563L328.983 24.8ZM347.002 22.24C347.002 22.56 346.982 22.8933 346.942 23.24H339.202C339.256 23.9333 339.476 24.4667 339.862 24.84C340.262 25.2 340.749 25.38 341.322 25.38C342.176 25.38 342.769 25.02 343.102 24.3H346.742C346.556 25.0333 346.216 25.6933 345.722 26.28C345.242 26.8667 344.636 27.3267 343.902 27.66C343.169 27.9933 342.349 28.16 341.442 28.16C340.349 28.16 339.376 27.9267 338.522 27.46C337.669 26.9933 337.002 26.3267 336.522 25.46C336.042 24.5933 335.802 23.58 335.802 22.42C335.802 21.26 336.036 20.2467 336.502 19.38C336.982 18.5133 337.649 17.8467 338.502 17.38C339.356 16.9133 340.336 16.68 341.442 16.68C342.522 16.68 343.482 16.9067 344.322 17.36C345.162 17.8133 345.816 18.46 346.282 19.3C346.762 20.14 347.002 21.12 347.002 22.24ZM343.502 21.34C343.502 20.7533 343.302 20.2867 342.902 19.94C342.502 19.5933 342.002 19.42 341.402 19.42C340.829 19.42 340.342 19.5867 339.942 19.92C339.556 20.2533 339.316 20.7267 339.222 21.34H343.502ZM352.226 18.7C352.626 18.0867 353.126 17.6067 353.726 17.26C354.326 16.9 354.993 16.72 355.726 16.72V20.34H354.786C353.933 20.34 353.293 20.5267 352.866 20.9C352.44 21.26 352.226 21.9 352.226 22.82V28H348.806V16.84H352.226V18.7ZM356.681 22.4C356.681 21.2533 356.894 20.2467 357.321 19.38C357.761 18.5133 358.354 17.8467 359.101 17.38C359.848 16.9133 360.681 16.68 361.601 16.68C362.388 16.68 363.074 16.84 363.661 17.16C364.261 17.48 364.721 17.9 365.041 18.42V16.84H368.461V28H365.041V26.42C364.708 26.94 364.241 27.36 363.641 27.68C363.054 28 362.368 28.16 361.581 28.16C360.674 28.16 359.848 27.9267 359.101 27.46C358.354 26.98 357.761 26.3067 357.321 25.44C356.894 24.56 356.681 23.5467 356.681 22.4ZM365.041 22.42C365.041 21.5667 364.801 20.8933 364.321 20.4C363.854 19.9067 363.281 19.66 362.601 19.66C361.921 19.66 361.341 19.9067 360.861 20.4C360.394 20.88 360.161 21.5467 360.161 22.4C360.161 23.2533 360.394 23.9333 360.861 24.44C361.341 24.9333 361.921 25.18 362.601 25.18C363.281 25.18 363.854 24.9333 364.321 24.44C364.801 23.9467 365.041 23.2733 365.041 22.42ZM375.175 16.68C375.962 16.68 376.649 16.84 377.235 17.16C377.835 17.48 378.295 17.9 378.615 18.42V16.84H382.035V27.98C382.035 29.0067 381.829 29.9333 381.415 30.76C381.015 31.6 380.395 32.2667 379.555 32.76C378.729 33.2533 377.695 33.5 376.455 33.5C374.802 33.5 373.462 33.1067 372.435 32.32C371.409 31.5467 370.822 30.4933 370.675 29.16H374.055C374.162 29.5867 374.415 29.92 374.815 30.16C375.215 30.4133 375.709 30.54 376.295 30.54C377.002 30.54 377.562 30.3333 377.975 29.92C378.402 29.52 378.615 28.8733 378.615 27.98V26.4C378.282 26.92 377.822 27.3467 377.235 27.68C376.649 28 375.962 28.16 375.175 28.16C374.255 28.16 373.422 27.9267 372.675 27.46C371.929 26.98 371.335 26.3067 370.895 25.44C370.469 24.56 370.255 23.5467 370.255 22.4C370.255 21.2533 370.469 20.2467 370.895 19.38C371.335 18.5133 371.929 17.8467 372.675 17.38C373.422 16.9133 374.255 16.68 375.175 16.68ZM378.615 22.42C378.615 21.5667 378.375 20.8933 377.895 20.4C377.429 19.9067 376.855 19.66 376.175 19.66C375.495 19.66 374.915 19.9067 374.435 20.4C373.969 20.88 373.735 21.5467 373.735 22.4C373.735 23.2533 373.969 23.9333 374.435 24.44C374.915 24.9333 375.495 25.18 376.175 25.18C376.855 25.18 377.429 24.9333 377.895 24.44C378.375 23.9467 378.615 23.2733 378.615 22.42ZM395.03 22.24C395.03 22.56 395.01 22.8933 394.97 23.24H387.23C387.283 23.9333 387.503 24.4667 387.89 24.84C388.29 25.2 388.776 25.38 389.35 25.38C390.203 25.38 390.796 25.02 391.13 24.3H394.77C394.583 25.0333 394.243 25.6933 393.75 26.28C393.27 26.8667 392.663 27.3267 391.93 27.66C391.196 27.9933 390.376 28.16 389.47 28.16C388.376 28.16 387.403 27.9267 386.55 27.46C385.696 26.9933 385.03 26.3267 384.55 25.46C384.07 24.5933 383.83 23.58 383.83 22.42C383.83 21.26 384.063 20.2467 384.53 19.38C385.01 18.5133 385.676 17.8467 386.53 17.38C387.383 16.9133 388.363 16.68 389.47 16.68C390.55 16.68 391.51 16.9067 392.35 17.36C393.19 17.8133 393.843 18.46 394.31 19.3C394.79 20.14 395.03 21.12 395.03 22.24ZM391.53 21.34C391.53 20.7533 391.33 20.2867 390.93 19.94C390.53 19.5933 390.03 19.42 389.43 19.42C388.856 19.42 388.37 19.5867 387.97 19.92C387.583 20.2533 387.343 20.7267 387.25 21.34H391.53ZM411.772 18.48C411.772 19.2933 411.585 20.04 411.212 20.72C410.839 21.3867 410.265 21.9267 409.492 22.34C408.719 22.7533 407.759 22.96 406.612 22.96H404.492V28H401.072V13.96H406.612C407.732 13.96 408.679 14.1533 409.452 14.54C410.225 14.9267 410.805 15.46 411.192 16.14C411.579 16.82 411.772 17.6 411.772 18.48ZM406.352 20.24C407.005 20.24 407.492 20.0867 407.812 19.78C408.132 19.4733 408.292 19.04 408.292 18.48C408.292 17.92 408.132 17.4867 407.812 17.18C407.492 16.8733 407.005 16.72 406.352 16.72H404.492V20.24H406.352ZM412.873 22.4C412.873 21.2533 413.086 20.2467 413.513 19.38C413.953 18.5133 414.546 17.8467 415.293 17.38C416.039 16.9133 416.873 16.68 417.793 16.68C418.579 16.68 419.266 16.84 419.853 17.16C420.453 17.48 420.913 17.9 421.233 18.42V16.84H424.653V28H421.233V26.42C420.899 26.94 420.433 27.36 419.833 27.68C419.246 28 418.559 28.16 417.773 28.16C416.866 28.16 416.039 27.9267 415.293 27.46C414.546 26.98 413.953 26.3067 413.513 25.44C413.086 24.56 412.873 23.5467 412.873 22.4ZM421.233 22.42C421.233 21.5667 420.993 20.8933 420.513 20.4C420.046 19.9067 419.473 19.66 418.793 19.66C418.113 19.66 417.533 19.9067 417.053 20.4C416.586 20.88 416.353 21.5467 416.353 22.4C416.353 23.2533 416.586 23.9333 417.053 24.44C417.533 24.9333 418.113 25.18 418.793 25.18C419.473 25.18 420.046 24.9333 420.513 24.44C420.993 23.9467 421.233 23.2733 421.233 22.42ZM426.447 22.42C426.447 21.26 426.68 20.2467 427.147 19.38C427.627 18.5133 428.287 17.8467 429.127 17.38C429.98 16.9133 430.953 16.68 432.047 16.68C433.447 16.68 434.613 17.0467 435.547 17.78C436.493 18.5133 437.113 19.5467 437.407 20.88H433.767C433.46 20.0267 432.867 19.6 431.987 19.6C431.36 19.6 430.86 19.8467 430.487 20.34C430.113 20.82 429.927 21.5133 429.927 22.42C429.927 23.3267 430.113 24.0267 430.487 24.52C430.86 25 431.36 25.24 431.987 25.24C432.867 25.24 433.46 24.8133 433.767 23.96H437.407C437.113 25.2667 436.493 26.2933 435.547 27.04C434.6 27.7867 433.433 28.16 432.047 28.16C430.953 28.16 429.98 27.9267 429.127 27.46C428.287 26.9933 427.627 26.3267 427.147 25.46C426.68 24.5933 426.447 23.58 426.447 22.42ZM446.056 28L442.656 23.32V28H439.236V13.2H442.656V21.38L446.036 16.84H450.256L445.616 22.44L450.296 28H446.056ZM450.919 22.4C450.919 21.2533 451.133 20.2467 451.559 19.38C451.999 18.5133 452.593 17.8467 453.339 17.38C454.086 16.9133 454.919 16.68 455.839 16.68C456.626 16.68 457.313 16.84 457.899 17.16C458.499 17.48 458.959 17.9 459.279 18.42V16.84H462.699V28H459.279V26.42C458.946 26.94 458.479 27.36 457.879 27.68C457.293 28 456.606 28.16 455.819 28.16C454.913 28.16 454.086 27.9267 453.339 27.46C452.593 26.98 451.999 26.3067 451.559 25.44C451.133 24.56 450.919 23.5467 450.919 22.4ZM459.279 22.42C459.279 21.5667 459.039 20.8933 458.559 20.4C458.093 19.9067 457.519 19.66 456.839 19.66C456.159 19.66 455.579 19.9067 455.099 20.4C454.633 20.88 454.399 21.5467 454.399 22.4C454.399 23.2533 454.633 23.9333 455.099 24.44C455.579 24.9333 456.159 25.18 456.839 25.18C457.519 25.18 458.093 24.9333 458.559 24.44C459.039 23.9467 459.279 23.2733 459.279 22.42ZM469.414 16.68C470.2 16.68 470.887 16.84 471.474 17.16C472.074 17.48 472.534 17.9 472.854 18.42V16.84H476.274V27.98C476.274 29.0067 476.067 29.9333 475.654 30.76C475.254 31.6 474.634 32.2667 473.794 32.76C472.967 33.2533 471.934 33.5 470.694 33.5C469.04 33.5 467.7 33.1067 466.674 32.32C465.647 31.5467 465.06 30.4933 464.914 29.16H468.294C468.4 29.5867 468.654 29.92 469.054 30.16C469.454 30.4133 469.947 30.54 470.534 30.54C471.24 30.54 471.8 30.3333 472.214 29.92C472.64 29.52 472.854 28.8733 472.854 27.98V26.4C472.52 26.92 472.06 27.3467 471.474 27.68C470.887 28 470.2 28.16 469.414 28.16C468.494 28.16 467.66 27.9267 466.914 27.46C466.167 26.98 465.574 26.3067 465.134 25.44C464.707 24.56 464.494 23.5467 464.494 22.4C464.494 21.2533 464.707 20.2467 465.134 19.38C465.574 18.5133 466.167 17.8467 466.914 17.38C467.66 16.9133 468.494 16.68 469.414 16.68ZM472.854 22.42C472.854 21.5667 472.614 20.8933 472.134 20.4C471.667 19.9067 471.094 19.66 470.414 19.66C469.734 19.66 469.154 19.9067 468.674 20.4C468.207 20.88 467.974 21.5467 467.974 22.4C467.974 23.2533 468.207 23.9333 468.674 24.44C469.154 24.9333 469.734 25.18 470.414 25.18C471.094 25.18 471.667 24.9333 472.134 24.44C472.614 23.9467 472.854 23.2733 472.854 22.42ZM489.268 22.24C489.268 22.56 489.248 22.8933 489.208 23.24H481.468C481.521 23.9333 481.741 24.4667 482.128 24.84C482.528 25.2 483.014 25.38 483.588 25.38C484.441 25.38 485.034 25.02 485.368 24.3H489.008C488.821 25.0333 488.481 25.6933 487.988 26.28C487.508 26.8667 486.901 27.3267 486.168 27.66C485.434 27.9933 484.614 28.16 483.708 28.16C482.614 28.16 481.641 27.9267 480.788 27.46C479.934 26.9933 479.268 26.3267 478.788 25.46C478.308 24.5933 478.068 23.58 478.068 22.42C478.068 21.26 478.301 20.2467 478.768 19.38C479.248 18.5133 479.914 17.8467 480.768 17.38C481.621 16.9133 482.601 16.68 483.708 16.68C484.788 16.68 485.748 16.9067 486.588 17.36C487.428 17.8133 488.081 18.46 488.548 19.3C489.028 20.14 489.268 21.12 489.268 22.24ZM485.768 21.34C485.768 20.7533 485.568 20.2867 485.168 19.94C484.768 19.5933 484.268 19.42 483.668 19.42C483.094 19.42 482.608 19.5867 482.208 19.92C481.821 20.2533 481.581 20.7267 481.488 21.34H485.768Z" fill="#210366"/>
<path d="M199.996 250.016C199.996 248.171 200.327 246.725 200.988 245.68C201.66 244.635 202.769 244.112 204.316 244.112C205.863 244.112 206.967 244.635 207.628 245.68C208.3 246.725 208.636 248.171 208.636 250.016C208.636 251.872 208.3 253.328 207.628 254.384C206.967 255.44 205.863 255.968 204.316 255.968C202.769 255.968 201.66 255.44 200.988 254.384C200.327 253.328 199.996 251.872 199.996 250.016ZM206.428 250.016C206.428 249.227 206.375 248.565 206.268 248.032C206.172 247.488 205.969 247.045 205.66 246.704C205.361 246.363 204.913 246.192 204.316 246.192C203.719 246.192 203.265 246.363 202.956 246.704C202.657 247.045 202.455 247.488 202.348 248.032C202.252 248.565 202.204 249.227 202.204 250.016C202.204 250.827 202.252 251.509 202.348 252.064C202.444 252.608 202.647 253.051 202.956 253.392C203.265 253.723 203.719 253.888 204.316 253.888C204.913 253.888 205.367 253.723 205.676 253.392C205.985 253.051 206.188 252.608 206.284 252.064C206.38 251.509 206.428 250.827 206.428 250.016Z" fill="#210366"/>
<path d="M389.99 246.4V244.336H393.846V256H391.542V246.4H389.99ZM402.107 247.248C402 246.8 401.814 246.464 401.547 246.24C401.291 246.016 400.918 245.904 400.427 245.904C399.691 245.904 399.147 246.203 398.795 246.8C398.454 247.387 398.278 248.347 398.267 249.68C398.523 249.253 398.896 248.923 399.387 248.688C399.878 248.443 400.411 248.32 400.987 248.32C401.68 248.32 402.294 248.469 402.827 248.768C403.36 249.067 403.776 249.504 404.075 250.08C404.374 250.645 404.523 251.328 404.523 252.128C404.523 252.885 404.368 253.563 404.059 254.16C403.76 254.747 403.318 255.205 402.731 255.536C402.144 255.867 401.446 256.032 400.635 256.032C399.526 256.032 398.651 255.787 398.011 255.296C397.382 254.805 396.939 254.123 396.683 253.248C396.438 252.363 396.315 251.275 396.315 249.984C396.315 248.032 396.651 246.56 397.323 245.568C397.995 244.565 399.056 244.064 400.507 244.064C401.627 244.064 402.496 244.368 403.115 244.976C403.734 245.584 404.091 246.341 404.187 247.248H402.107ZM400.475 250.16C399.91 250.16 399.435 250.325 399.051 250.656C398.667 250.987 398.475 251.467 398.475 252.096C398.475 252.725 398.651 253.221 399.003 253.584C399.366 253.947 399.872 254.128 400.523 254.128C401.099 254.128 401.552 253.952 401.883 253.6C402.224 253.248 402.395 252.773 402.395 252.176C402.395 251.557 402.23 251.067 401.899 250.704C401.579 250.341 401.104 250.16 400.475 250.16ZM407.541 256.112C407.136 256.112 406.8 255.989 406.533 255.744C406.277 255.488 406.149 255.173 406.149 254.8C406.149 254.427 406.277 254.117 406.533 253.872C406.8 253.616 407.136 253.488 407.541 253.488C407.936 253.488 408.261 253.616 408.517 253.872C408.773 254.117 408.901 254.427 408.901 254.8C408.901 255.173 408.773 255.488 408.517 255.744C408.261 255.989 407.936 256.112 407.541 256.112ZM410.45 250.016C410.45 248.171 410.78 246.725 411.442 245.68C412.114 244.635 413.223 244.112 414.77 244.112C416.316 244.112 417.42 244.635 418.082 245.68C418.754 246.725 419.09 248.171 419.09 250.016C419.09 251.872 418.754 253.328 418.082 254.384C417.42 255.44 416.316 255.968 414.77 255.968C413.223 255.968 412.114 255.44 411.442 254.384C410.78 253.328 410.45 251.872 410.45 250.016ZM416.882 250.016C416.882 249.227 416.828 248.565 416.722 248.032C416.626 247.488 416.423 247.045 416.114 246.704C415.815 246.363 415.367 246.192 414.77 246.192C414.172 246.192 413.719 246.363 413.41 246.704C413.111 247.045 412.908 247.488 412.802 248.032C412.706 248.565 412.658 249.227 412.658 250.016C412.658 250.827 412.706 251.509 412.802 252.064C412.898 252.608 413.1 253.051 413.41 253.392C413.719 253.723 414.172 253.888 414.77 253.888C415.367 253.888 415.82 253.723 416.13 253.392C416.439 253.051 416.642 252.608 416.738 252.064C416.834 251.509 416.882 250.827 416.882 250.016ZM427.102 254.224H430.782V256H424.862V244.832H427.102V254.224ZM431.63 251.536C431.63 250.64 431.806 249.845 432.158 249.152C432.52 248.459 433.006 247.925 433.614 247.552C434.232 247.179 434.92 246.992 435.678 246.992C436.339 246.992 436.915 247.125 437.406 247.392C437.907 247.659 438.307 247.995 438.606 248.4V247.136H440.862V256H438.606V254.704C438.318 255.12 437.918 255.467 437.406 255.744C436.904 256.011 436.323 256.144 435.662 256.144C434.915 256.144 434.232 255.952 433.614 255.568C433.006 255.184 432.52 254.645 432.158 253.952C431.806 253.248 431.63 252.443 431.63 251.536ZM438.606 251.568C438.606 251.024 438.499 250.56 438.286 250.176C438.072 249.781 437.784 249.483 437.422 249.28C437.059 249.067 436.67 248.96 436.254 248.96C435.838 248.96 435.454 249.061 435.102 249.264C434.75 249.467 434.462 249.765 434.238 250.16C434.024 250.544 433.918 251.003 433.918 251.536C433.918 252.069 434.024 252.539 434.238 252.944C434.462 253.339 434.75 253.643 435.102 253.856C435.464 254.069 435.848 254.176 436.254 254.176C436.67 254.176 437.059 254.075 437.422 253.872C437.784 253.659 438.072 253.36 438.286 252.976C438.499 252.581 438.606 252.112 438.606 251.568ZM448.297 256L445.289 252.224V256H443.049V244.16H445.289V250.896L448.265 247.136H451.177L447.273 251.584L451.209 256H448.297ZM457.385 247.008C458.057 247.008 458.654 247.157 459.177 247.456C459.7 247.744 460.105 248.176 460.393 248.752C460.692 249.317 460.841 250 460.841 250.8V256H458.601V251.104C458.601 250.4 458.425 249.861 458.073 249.488C457.721 249.104 457.241 248.912 456.633 248.912C456.014 248.912 455.524 249.104 455.161 249.488C454.809 249.861 454.633 250.4 454.633 251.104V256H452.393V244.16H454.633V248.24C454.921 247.856 455.305 247.557 455.785 247.344C456.265 247.12 456.798 247.008 457.385 247.008ZM466.363 256.144C465.638 256.144 464.987 256.016 464.411 255.76C463.835 255.493 463.377 255.136 463.035 254.688C462.705 254.24 462.523 253.744 462.491 253.2H464.747C464.79 253.541 464.955 253.824 465.243 254.048C465.542 254.272 465.91 254.384 466.347 254.384C466.774 254.384 467.105 254.299 467.339 254.128C467.585 253.957 467.707 253.739 467.707 253.472C467.707 253.184 467.558 252.971 467.259 252.832C466.971 252.683 466.507 252.523 465.867 252.352C465.206 252.192 464.662 252.027 464.235 251.856C463.819 251.685 463.457 251.424 463.147 251.072C462.849 250.72 462.699 250.245 462.699 249.648C462.699 249.157 462.838 248.709 463.115 248.304C463.403 247.899 463.809 247.579 464.331 247.344C464.865 247.109 465.489 246.992 466.203 246.992C467.259 246.992 468.102 247.259 468.731 247.792C469.361 248.315 469.707 249.024 469.771 249.92H467.627C467.595 249.568 467.446 249.291 467.179 249.088C466.923 248.875 466.577 248.768 466.139 248.768C465.734 248.768 465.419 248.843 465.195 248.992C464.982 249.141 464.875 249.349 464.875 249.616C464.875 249.915 465.025 250.144 465.323 250.304C465.622 250.453 466.086 250.608 466.715 250.768C467.355 250.928 467.883 251.093 468.299 251.264C468.715 251.435 469.073 251.701 469.371 252.064C469.681 252.416 469.841 252.885 469.851 253.472C469.851 253.984 469.707 254.443 469.419 254.848C469.142 255.253 468.737 255.573 468.203 255.808C467.681 256.032 467.067 256.144 466.363 256.144Z" fill="#210366"/>
<path d="M586.927 247.408C586.98 246.341 587.354 245.52 588.047 244.944C588.751 244.357 589.674 244.064 590.815 244.064C591.594 244.064 592.26 244.203 592.815 244.48C593.37 244.747 593.786 245.115 594.063 245.584C594.351 246.043 594.495 246.565 594.495 247.152C594.495 247.824 594.319 248.395 593.967 248.864C593.626 249.323 593.215 249.632 592.735 249.792V249.856C593.354 250.048 593.834 250.389 594.175 250.88C594.527 251.371 594.703 252 594.703 252.768C594.703 253.408 594.554 253.979 594.255 254.48C593.967 254.981 593.535 255.376 592.959 255.664C592.394 255.941 591.711 256.08 590.911 256.08C589.706 256.08 588.724 255.776 587.967 255.168C587.21 254.56 586.81 253.664 586.767 252.48H588.943C588.964 253.003 589.14 253.424 589.471 253.744C589.812 254.053 590.276 254.208 590.863 254.208C591.407 254.208 591.823 254.059 592.111 253.76C592.41 253.451 592.559 253.056 592.559 252.576C592.559 251.936 592.356 251.477 591.951 251.2C591.546 250.923 590.916 250.784 590.063 250.784H589.599V248.944H590.063C591.578 248.944 592.335 248.437 592.335 247.424C592.335 246.965 592.196 246.608 591.919 246.352C591.652 246.096 591.263 245.968 590.751 245.968C590.25 245.968 589.86 246.107 589.583 246.384C589.316 246.651 589.162 246.992 589.119 247.408H586.927ZM597.177 253.472C598.201 252.619 599.017 251.909 599.625 251.344C600.233 250.768 600.74 250.171 601.145 249.552C601.55 248.933 601.753 248.325 601.753 247.728C601.753 247.184 601.625 246.757 601.369 246.448C601.113 246.139 600.718 245.984 600.185 245.984C599.652 245.984 599.241 246.165 598.953 246.528C598.665 246.88 598.516 247.365 598.505 247.984H596.329C596.372 246.704 596.75 245.733 597.465 245.072C598.19 244.411 599.108 244.08 600.217 244.08C601.433 244.08 602.366 244.405 603.017 245.056C603.668 245.696 603.993 246.544 603.993 247.6C603.993 248.432 603.769 249.227 603.321 249.984C602.873 250.741 602.361 251.403 601.785 251.968C601.209 252.523 600.457 253.195 599.529 253.984H604.249V255.84H596.345V254.176L597.177 253.472ZM606.909 256.112C606.503 256.112 606.167 255.989 605.901 255.744C605.645 255.488 605.517 255.173 605.517 254.8C605.517 254.427 605.645 254.117 605.901 253.872C606.167 253.616 606.503 253.488 606.909 253.488C607.303 253.488 607.629 253.616 607.885 253.872C608.141 254.117 608.269 254.427 608.269 254.8C608.269 255.173 608.141 255.488 607.885 255.744C607.629 255.989 607.303 256.112 606.909 256.112ZM609.817 250.016C609.817 248.171 610.147 246.725 610.809 245.68C611.481 244.635 612.59 244.112 614.137 244.112C615.683 244.112 616.787 244.635 617.449 245.68C618.121 246.725 618.457 248.171 618.457 250.016C618.457 251.872 618.121 253.328 617.449 254.384C616.787 255.44 615.683 255.968 614.137 255.968C612.59 255.968 611.481 255.44 610.809 254.384C610.147 253.328 609.817 251.872 609.817 250.016ZM616.249 250.016C616.249 249.227 616.195 248.565 616.089 248.032C615.993 247.488 615.79 247.045 615.481 246.704C615.182 246.363 614.734 246.192 614.137 246.192C613.539 246.192 613.086 246.363 612.777 246.704C612.478 247.045 612.275 247.488 612.169 248.032C612.073 248.565 612.025 249.227 612.025 250.016C612.025 250.827 612.073 251.509 612.169 252.064C612.265 252.608 612.467 253.051 612.777 253.392C613.086 253.723 613.539 253.888 614.137 253.888C614.734 253.888 615.187 253.723 615.497 253.392C615.806 253.051 616.009 252.608 616.105 252.064C616.201 251.509 616.249 250.827 616.249 250.016ZM626.469 254.224H630.149V256H624.229V244.832H626.469V254.224ZM630.997 251.536C630.997 250.64 631.173 249.845 631.525 249.152C631.887 248.459 632.373 247.925 632.981 247.552C633.599 247.179 634.287 246.992 635.045 246.992C635.706 246.992 636.282 247.125 636.773 247.392C637.274 247.659 637.674 247.995 637.973 248.4V247.136H640.229V256H637.973V254.704C637.685 255.12 637.285 255.467 636.773 255.744C636.271 256.011 635.69 256.144 635.029 256.144C634.282 256.144 633.599 255.952 632.981 255.568C632.373 255.184 631.887 254.645 631.525 253.952C631.173 253.248 630.997 252.443 630.997 251.536ZM637.973 251.568C637.973 251.024 637.866 250.56 637.653 250.176C637.439 249.781 637.151 249.483 636.789 249.28C636.426 249.067 636.037 248.96 635.621 248.96C635.205 248.96 634.821 249.061 634.469 249.264C634.117 249.467 633.829 249.765 633.605 250.16C633.391 250.544 633.285 251.003 633.285 251.536C633.285 252.069 633.391 252.539 633.605 252.944C633.829 253.339 634.117 253.643 634.469 253.856C634.831 254.069 635.215 254.176 635.621 254.176C636.037 254.176 636.426 254.075 636.789 253.872C637.151 253.659 637.439 253.36 637.653 252.976C637.866 252.581 637.973 252.112 637.973 251.568ZM647.665 256L644.657 252.224V256H642.417V244.16H644.657V250.896L647.633 247.136H650.545L646.641 251.584L650.577 256H647.665ZM656.752 247.008C657.424 247.008 658.022 247.157 658.544 247.456C659.067 247.744 659.472 248.176 659.76 248.752C660.059 249.317 660.208 250 660.208 250.8V256H657.968V251.104C657.968 250.4 657.792 249.861 657.44 249.488C657.088 249.104 656.608 248.912 656 248.912C655.382 248.912 654.891 249.104 654.528 249.488C654.176 249.861 654 250.4 654 251.104V256H651.76V244.16H654V248.24C654.288 247.856 654.672 247.557 655.152 247.344C655.632 247.12 656.166 247.008 656.752 247.008ZM665.73 256.144C665.005 256.144 664.354 256.016 663.778 255.76C663.202 255.493 662.744 255.136 662.402 254.688C662.072 254.24 661.89 253.744 661.858 253.2H664.114C664.157 253.541 664.322 253.824 664.61 254.048C664.909 254.272 665.277 254.384 665.714 254.384C666.141 254.384 666.472 254.299 666.706 254.128C666.952 253.957 667.074 253.739 667.074 253.472C667.074 253.184 666.925 252.971 666.626 252.832C666.338 252.683 665.874 252.523 665.234 252.352C664.573 252.192 664.029 252.027 663.602 251.856C663.186 251.685 662.824 251.424 662.514 251.072C662.216 250.72 662.066 250.245 662.066 249.648C662.066 249.157 662.205 248.709 662.482 248.304C662.77 247.899 663.176 247.579 663.698 247.344C664.232 247.109 664.856 246.992 665.57 246.992C666.626 246.992 667.469 247.259 668.098 247.792C668.728 248.315 669.074 249.024 669.138 249.92H666.994C666.962 249.568 666.813 249.291 666.546 249.088C666.29 248.875 665.944 248.768 665.506 248.768C665.101 248.768 664.786 248.843 664.562 248.992C664.349 249.141 664.242 249.349 664.242 249.616C664.242 249.915 664.392 250.144 664.69 250.304C664.989 250.453 665.453 250.608 666.082 250.768C666.722 250.928 667.25 251.093 667.666 251.264C668.082 251.435 668.44 251.701 668.738 252.064C669.048 252.416 669.208 252.885 669.218 253.472C669.218 253.984 669.074 254.443 668.786 254.848C668.509 255.253 668.104 255.573 667.57 255.808C667.048 256.032 666.434 256.144 665.73 256.144Z" fill="#210366"/>
<path d="M669.974 184.408C670.027 183.341 670.4 182.52 671.094 181.944C671.798 181.357 672.72 181.064 673.862 181.064C674.64 181.064 675.307 181.203 675.862 181.48C676.416 181.747 676.832 182.115 677.11 182.584C677.398 183.043 677.542 183.565 677.542 184.152C677.542 184.824 677.366 185.395 677.014 185.864C676.672 186.323 676.262 186.632 675.782 186.792V186.856C676.4 187.048 676.88 187.389 677.222 187.88C677.574 188.371 677.75 189 677.75 189.768C677.75 190.408 677.6 190.979 677.302 191.48C677.014 191.981 676.582 192.376 676.006 192.664C675.44 192.941 674.758 193.08 673.958 193.08C672.752 193.08 671.771 192.776 671.014 192.168C670.256 191.56 669.856 190.664 669.814 189.48H671.99C672.011 190.003 672.187 190.424 672.518 190.744C672.859 191.053 673.323 191.208 673.91 191.208C674.454 191.208 674.87 191.059 675.158 190.76C675.456 190.451 675.606 190.056 675.606 189.576C675.606 188.936 675.403 188.477 674.998 188.2C674.592 187.923 673.963 187.784 673.11 187.784H672.646V185.944H673.11C674.624 185.944 675.382 185.437 675.382 184.424C675.382 183.965 675.243 183.608 674.966 183.352C674.699 183.096 674.31 182.968 673.798 182.968C673.296 182.968 672.907 183.107 672.63 183.384C672.363 183.651 672.208 183.992 672.166 184.408H669.974ZM679.552 184.408C679.605 183.341 679.979 182.52 680.672 181.944C681.376 181.357 682.299 181.064 683.44 181.064C684.219 181.064 684.885 181.203 685.44 181.48C685.995 181.747 686.411 182.115 686.688 182.584C686.976 183.043 687.12 183.565 687.12 184.152C687.12 184.824 686.944 185.395 686.592 185.864C686.251 186.323 685.84 186.632 685.36 186.792V186.856C685.979 187.048 686.459 187.389 686.8 187.88C687.152 188.371 687.328 189 687.328 189.768C687.328 190.408 687.179 190.979 686.88 191.48C686.592 191.981 686.16 192.376 685.584 192.664C685.019 192.941 684.336 193.08 683.536 193.08C682.331 193.08 681.349 192.776 680.592 192.168C679.835 191.56 679.435 190.664 679.392 189.48H681.568C681.589 190.003 681.765 190.424 682.096 190.744C682.437 191.053 682.901 191.208 683.488 191.208C684.032 191.208 684.448 191.059 684.736 190.76C685.035 190.451 685.184 190.056 685.184 189.576C685.184 188.936 684.981 188.477 684.576 188.2C684.171 187.923 683.541 187.784 682.688 187.784H682.224V185.944H682.688C684.203 185.944 684.96 185.437 684.96 184.424C684.96 183.965 684.821 183.608 684.544 183.352C684.277 183.096 683.888 182.968 683.376 182.968C682.875 182.968 682.485 183.107 682.208 183.384C681.941 183.651 681.787 183.992 681.744 184.408H679.552ZM690.346 193.112C689.941 193.112 689.605 192.989 689.338 192.744C689.082 192.488 688.954 192.173 688.954 191.8C688.954 191.427 689.082 191.117 689.338 190.872C689.605 190.616 689.941 190.488 690.346 190.488C690.741 190.488 691.066 190.616 691.322 190.872C691.578 191.117 691.706 191.427 691.706 191.8C691.706 192.173 691.578 192.488 691.322 192.744C691.066 192.989 690.741 193.112 690.346 193.112ZM693.254 187.016C693.254 185.171 693.585 183.725 694.246 182.68C694.918 181.635 696.028 181.112 697.574 181.112C699.121 181.112 700.225 181.635 700.886 182.68C701.558 183.725 701.894 185.171 701.894 187.016C701.894 188.872 701.558 190.328 700.886 191.384C700.225 192.44 699.121 192.968 697.574 192.968C696.028 192.968 694.918 192.44 694.246 191.384C693.585 190.328 693.254 188.872 693.254 187.016ZM699.686 187.016C699.686 186.227 699.633 185.565 699.526 185.032C699.43 184.488 699.228 184.045 698.918 183.704C698.62 183.363 698.172 183.192 697.574 183.192C696.977 183.192 696.524 183.363 696.214 183.704C695.916 184.045 695.713 184.488 695.606 185.032C695.51 185.565 695.462 186.227 695.462 187.016C695.462 187.827 695.51 188.509 695.606 189.064C695.702 189.608 695.905 190.051 696.214 190.392C696.524 190.723 696.977 190.888 697.574 190.888C698.172 190.888 698.625 190.723 698.934 190.392C699.244 190.051 699.446 189.608 699.542 189.064C699.638 188.509 699.686 187.827 699.686 187.016ZM709.907 191.224H713.587V193H707.667V181.832H709.907V191.224Z" fill="#210366"/>
<path d="M750.752 253.728V251.968L755.984 244.48H758.592V251.776H760V253.728H758.592V256H756.352V253.728H750.752ZM756.496 246.88L753.216 251.776H756.496V246.88ZM763.378 249.824C762.311 249.269 761.778 248.411 761.778 247.248C761.778 246.672 761.922 246.149 762.21 245.68C762.509 245.2 762.951 244.821 763.538 244.544C764.135 244.256 764.861 244.112 765.714 244.112C766.567 244.112 767.287 244.256 767.874 244.544C768.471 244.821 768.914 245.2 769.202 245.68C769.501 246.149 769.65 246.672 769.65 247.248C769.65 247.835 769.506 248.352 769.218 248.8C768.93 249.237 768.546 249.579 768.066 249.824C768.653 250.08 769.111 250.453 769.442 250.944C769.773 251.435 769.938 252.016 769.938 252.688C769.938 253.413 769.751 254.048 769.378 254.592C769.015 255.125 768.514 255.536 767.874 255.824C767.234 256.112 766.514 256.256 765.714 256.256C764.914 256.256 764.194 256.112 763.554 255.824C762.925 255.536 762.423 255.125 762.05 254.592C761.687 254.048 761.506 253.413 761.506 252.688C761.506 252.016 761.671 251.435 762.002 250.944C762.333 250.443 762.791 250.069 763.378 249.824ZM767.474 247.568C767.474 247.045 767.314 246.64 766.994 246.352C766.685 246.064 766.258 245.92 765.714 245.92C765.181 245.92 764.754 246.064 764.434 246.352C764.125 246.64 763.97 247.051 763.97 247.584C763.97 248.064 764.13 248.448 764.45 248.736C764.781 249.024 765.202 249.168 765.714 249.168C766.226 249.168 766.647 249.024 766.978 248.736C767.309 248.437 767.474 248.048 767.474 247.568ZM765.714 250.8C765.106 250.8 764.61 250.955 764.226 251.264C763.853 251.573 763.666 252.016 763.666 252.592C763.666 253.125 763.847 253.563 764.21 253.904C764.583 254.235 765.085 254.4 765.714 254.4C766.343 254.4 766.839 254.229 767.202 253.888C767.565 253.547 767.746 253.115 767.746 252.592C767.746 252.027 767.559 251.589 767.186 251.28C766.813 250.96 766.322 250.8 765.714 250.8ZM772.955 256.112C772.55 256.112 772.214 255.989 771.947 255.744C771.691 255.488 771.563 255.173 771.563 254.8C771.563 254.427 771.691 254.117 771.947 253.872C772.214 253.616 772.55 253.488 772.955 253.488C773.35 253.488 773.675 253.616 773.931 253.872C774.187 254.117 774.315 254.427 774.315 254.8C774.315 255.173 774.187 255.488 773.931 255.744C773.675 255.989 773.35 256.112 772.955 256.112ZM775.864 250.016C775.864 248.171 776.194 246.725 776.856 245.68C777.528 244.635 778.637 244.112 780.184 244.112C781.73 244.112 782.834 244.635 783.496 245.68C784.168 246.725 784.504 248.171 784.504 250.016C784.504 251.872 784.168 253.328 783.496 254.384C782.834 255.44 781.73 255.968 780.184 255.968C778.637 255.968 777.528 255.44 776.856 254.384C776.194 253.328 775.864 251.872 775.864 250.016ZM782.296 250.016C782.296 249.227 782.242 248.565 782.136 248.032C782.04 247.488 781.837 247.045 781.528 246.704C781.229 246.363 780.781 246.192 780.184 246.192C779.586 246.192 779.133 246.363 778.824 246.704C778.525 247.045 778.322 247.488 778.216 248.032C778.12 248.565 778.072 249.227 778.072 250.016C778.072 250.827 778.12 251.509 778.216 252.064C778.312 252.608 778.514 253.051 778.824 253.392C779.133 253.723 779.586 253.888 780.184 253.888C780.781 253.888 781.234 253.723 781.544 253.392C781.853 253.051 782.056 252.608 782.152 252.064C782.248 251.509 782.296 250.827 782.296 250.016ZM792.516 254.224H796.196V256H790.276V244.832H792.516V254.224ZM797.044 251.536C797.044 250.64 797.22 249.845 797.572 249.152C797.934 248.459 798.42 247.925 799.028 247.552C799.646 247.179 800.334 246.992 801.092 246.992C801.753 246.992 802.329 247.125 802.82 247.392C803.321 247.659 803.721 247.995 804.02 248.4V247.136H806.276V256H804.02V254.704C803.732 255.12 803.332 255.467 802.82 255.744C802.318 256.011 801.737 256.144 801.076 256.144C800.329 256.144 799.646 255.952 799.028 255.568C798.42 255.184 797.934 254.645 797.572 253.952C797.22 253.248 797.044 252.443 797.044 251.536ZM804.02 251.568C804.02 251.024 803.913 250.56 803.7 250.176C803.486 249.781 803.198 249.483 802.836 249.28C802.473 249.067 802.084 248.96 801.668 248.96C801.252 248.96 800.868 249.061 800.516 249.264C800.164 249.467 799.876 249.765 799.652 250.16C799.438 250.544 799.332 251.003 799.332 251.536C799.332 252.069 799.438 252.539 799.652 252.944C799.876 253.339 800.164 253.643 800.516 253.856C800.878 254.069 801.262 254.176 801.668 254.176C802.084 254.176 802.473 254.075 802.836 253.872C803.198 253.659 803.486 253.36 803.7 252.976C803.913 252.581 804.02 252.112 804.02 251.568ZM813.711 256L810.703 252.224V256H808.463V244.16H810.703V250.896L813.679 247.136H816.591L812.687 251.584L816.623 256H813.711ZM822.799 247.008C823.471 247.008 824.068 247.157 824.591 247.456C825.114 247.744 825.519 248.176 825.807 248.752C826.106 249.317 826.255 250 826.255 250.8V256H824.015V251.104C824.015 250.4 823.839 249.861 823.487 249.488C823.135 249.104 822.655 248.912 822.047 248.912C821.428 248.912 820.938 249.104 820.575 249.488C820.223 249.861 820.047 250.4 820.047 251.104V256H817.807V244.16H820.047V248.24C820.335 247.856 820.719 247.557 821.199 247.344C821.679 247.12 822.212 247.008 822.799 247.008ZM831.777 256.144C831.052 256.144 830.401 256.016 829.825 255.76C829.249 255.493 828.791 255.136 828.449 254.688C828.119 254.24 827.937 253.744 827.905 253.2H830.161C830.204 253.541 830.369 253.824 830.657 254.048C830.956 254.272 831.324 254.384 831.761 254.384C832.188 254.384 832.519 254.299 832.753 254.128C832.999 253.957 833.121 253.739 833.121 253.472C833.121 253.184 832.972 252.971 832.673 252.832C832.385 252.683 831.921 252.523 831.281 252.352C830.62 252.192 830.076 252.027 829.649 251.856C829.233 251.685 828.871 251.424 828.561 251.072C828.263 250.72 828.113 250.245 828.113 249.648C828.113 249.157 828.252 248.709 828.529 248.304C828.817 247.899 829.223 247.579 829.745 247.344C830.279 247.109 830.903 246.992 831.617 246.992C832.673 246.992 833.516 247.259 834.145 247.792C834.775 248.315 835.121 249.024 835.185 249.92H833.041C833.009 249.568 832.86 249.291 832.593 249.088C832.337 248.875 831.991 248.768 831.553 248.768C831.148 248.768 830.833 248.843 830.609 248.992C830.396 249.141 830.289 249.349 830.289 249.616C830.289 249.915 830.439 250.144 830.737 250.304C831.036 250.453 831.5 250.608 832.129 250.768C832.769 250.928 833.297 251.093 833.713 251.264C834.129 251.435 834.487 251.701 834.785 252.064C835.095 252.416 835.255 252.885 835.265 253.472C835.265 253.984 835.121 254.443 834.833 254.848C834.556 255.253 834.151 255.573 833.617 255.808C833.095 256.032 832.481 256.144 831.777 256.144Z" fill="#210366"/>
<path d="M921.919 247.248C921.813 246.8 921.626 246.464 921.359 246.24C921.103 246.016 920.73 245.904 920.239 245.904C919.503 245.904 918.959 246.203 918.607 246.8C918.266 247.387 918.09 248.347 918.079 249.68C918.335 249.253 918.709 248.923 919.199 248.688C919.69 248.443 920.223 248.32 920.799 248.32C921.493 248.32 922.106 248.469 922.639 248.768C923.173 249.067 923.589 249.504 923.887 250.08C924.186 250.645 924.335 251.328 924.335 252.128C924.335 252.885 924.181 253.563 923.871 254.16C923.573 254.747 923.13 255.205 922.543 255.536C921.957 255.867 921.258 256.032 920.447 256.032C919.338 256.032 918.463 255.787 917.823 255.296C917.194 254.805 916.751 254.123 916.495 253.248C916.25 252.363 916.127 251.275 916.127 249.984C916.127 248.032 916.463 246.56 917.135 245.568C917.807 244.565 918.869 244.064 920.319 244.064C921.439 244.064 922.309 244.368 922.927 244.976C923.546 245.584 923.903 246.341 923.999 247.248H921.919ZM920.287 250.16C919.722 250.16 919.247 250.325 918.863 250.656C918.479 250.987 918.287 251.467 918.287 252.096C918.287 252.725 918.463 253.221 918.815 253.584C919.178 253.947 919.685 254.128 920.335 254.128C920.911 254.128 921.365 253.952 921.695 253.6C922.037 253.248 922.207 252.773 922.207 252.176C922.207 251.557 922.042 251.067 921.711 250.704C921.391 250.341 920.917 250.16 920.287 250.16ZM926.01 253.728V251.968L931.242 244.48H933.85V251.776H935.258V253.728H933.85V256H931.61V253.728H926.01ZM931.754 246.88L928.474 251.776H931.754V246.88ZM937.932 256.112C937.527 256.112 937.191 255.989 936.924 255.744C936.668 255.488 936.54 255.173 936.54 254.8C936.54 254.427 936.668 254.117 936.924 253.872C937.191 253.616 937.527 253.488 937.932 253.488C938.327 253.488 938.652 253.616 938.908 253.872C939.164 254.117 939.292 254.427 939.292 254.8C939.292 255.173 939.164 255.488 938.908 255.744C938.652 255.989 938.327 256.112 937.932 256.112ZM940.84 250.016C940.84 248.171 941.171 246.725 941.832 245.68C942.504 244.635 943.614 244.112 945.16 244.112C946.707 244.112 947.811 244.635 948.472 245.68C949.144 246.725 949.48 248.171 949.48 250.016C949.48 251.872 949.144 253.328 948.472 254.384C947.811 255.44 946.707 255.968 945.16 255.968C943.614 255.968 942.504 255.44 941.832 254.384C941.171 253.328 940.84 251.872 940.84 250.016ZM947.272 250.016C947.272 249.227 947.219 248.565 947.112 248.032C947.016 247.488 946.814 247.045 946.504 246.704C946.206 246.363 945.758 246.192 945.16 246.192C944.563 246.192 944.11 246.363 943.8 246.704C943.502 247.045 943.299 247.488 943.192 248.032C943.096 248.565 943.048 249.227 943.048 250.016C943.048 250.827 943.096 251.509 943.192 252.064C943.288 252.608 943.491 253.051 943.8 253.392C944.11 253.723 944.563 253.888 945.16 253.888C945.758 253.888 946.211 253.723 946.52 253.392C946.83 253.051 947.032 252.608 947.128 252.064C947.224 251.509 947.272 250.827 947.272 250.016ZM957.492 254.224H961.172V256H955.252V244.832H957.492V254.224ZM962.02 251.536C962.02 250.64 962.196 249.845 962.548 249.152C962.911 248.459 963.396 247.925 964.004 247.552C964.623 247.179 965.311 246.992 966.068 246.992C966.73 246.992 967.306 247.125 967.796 247.392C968.298 247.659 968.698 247.995 968.996 248.4V247.136H971.252V256H968.996V254.704C968.708 255.12 968.308 255.467 967.796 255.744C967.295 256.011 966.714 256.144 966.052 256.144C965.306 256.144 964.623 255.952 964.004 255.568C963.396 255.184 962.911 254.645 962.548 253.952C962.196 253.248 962.02 252.443 962.02 251.536ZM968.996 251.568C968.996 251.024 968.89 250.56 968.676 250.176C968.463 249.781 968.175 249.483 967.812 249.28C967.45 249.067 967.06 248.96 966.644 248.96C966.228 248.96 965.844 249.061 965.492 249.264C965.14 249.467 964.852 249.765 964.628 250.16C964.415 250.544 964.308 251.003 964.308 251.536C964.308 252.069 964.415 252.539 964.628 252.944C964.852 253.339 965.14 253.643 965.492 253.856C965.855 254.069 966.239 254.176 966.644 254.176C967.06 254.176 967.45 254.075 967.812 253.872C968.175 253.659 968.463 253.36 968.676 252.976C968.89 252.581 968.996 252.112 968.996 251.568ZM978.688 256L975.68 252.224V256H973.44V244.16H975.68V250.896L978.656 247.136H981.568L977.664 251.584L981.6 256H978.688ZM987.776 247.008C988.448 247.008 989.045 247.157 989.568 247.456C990.09 247.744 990.496 248.176 990.784 248.752C991.082 249.317 991.232 250 991.232 250.8V256H988.992V251.104C988.992 250.4 988.816 249.861 988.464 249.488C988.112 249.104 987.632 248.912 987.024 248.912C986.405 248.912 985.914 249.104 985.552 249.488C985.2 249.861 985.024 250.4 985.024 251.104V256H982.784V244.16H985.024V248.24C985.312 247.856 985.696 247.557 986.176 247.344C986.656 247.12 987.189 247.008 987.776 247.008ZM996.754 256.144C996.028 256.144 995.378 256.016 994.802 255.76C994.226 255.493 993.767 255.136 993.426 254.688C993.095 254.24 992.914 253.744 992.882 253.2H995.138C995.18 253.541 995.346 253.824 995.634 254.048C995.932 254.272 996.3 254.384 996.738 254.384C997.164 254.384 997.495 254.299 997.73 254.128C997.975 253.957 998.098 253.739 998.098 253.472C998.098 253.184 997.948 252.971 997.65 252.832C997.362 252.683 996.898 252.523 996.258 252.352C995.596 252.192 995.052 252.027 994.626 251.856C994.21 251.685 993.847 251.424 993.538 251.072C993.239 250.72 993.09 250.245 993.09 249.648C993.09 249.157 993.228 248.709 993.506 248.304C993.794 247.899 994.199 247.579 994.722 247.344C995.255 247.109 995.879 246.992 996.594 246.992C997.65 246.992 998.492 247.259 999.122 247.792C999.751 248.315 1000.1 249.024 1000.16 249.92H998.018C997.986 249.568 997.836 249.291 997.57 249.088C997.314 248.875 996.967 248.768 996.53 248.768C996.124 248.768 995.81 248.843 995.586 248.992C995.372 249.141 995.266 249.349 995.266 249.616C995.266 249.915 995.415 250.144 995.714 250.304C996.012 250.453 996.476 250.608 997.106 250.768C997.746 250.928 998.274 251.093 998.69 251.264C999.106 251.435 999.463 251.701 999.762 252.064C1000.07 252.416 1000.23 252.885 1000.24 253.472C1000.24 253.984 1000.1 254.443 999.81 254.848C999.532 255.253 999.127 255.573 998.594 255.808C998.071 256.032 997.458 256.144 996.754 256.144Z" fill="#210366"/>
<path d="M1045.92 249.824C1044.85 249.269 1044.32 248.411 1044.32 247.248C1044.32 246.672 1044.46 246.149 1044.75 245.68C1045.05 245.2 1045.49 244.821 1046.08 244.544C1046.67 244.256 1047.4 244.112 1048.25 244.112C1049.11 244.112 1049.83 244.256 1050.41 244.544C1051.01 244.821 1051.45 245.2 1051.74 245.68C1052.04 246.149 1052.19 246.672 1052.19 247.248C1052.19 247.835 1052.05 248.352 1051.76 248.8C1051.47 249.237 1051.09 249.579 1050.61 249.824C1051.19 250.08 1051.65 250.453 1051.98 250.944C1052.31 251.435 1052.48 252.016 1052.48 252.688C1052.48 253.413 1052.29 254.048 1051.92 254.592C1051.55 255.125 1051.05 255.536 1050.41 255.824C1049.77 256.112 1049.05 256.256 1048.25 256.256C1047.45 256.256 1046.73 256.112 1046.09 255.824C1045.46 255.536 1044.96 255.125 1044.59 254.592C1044.23 254.048 1044.05 253.413 1044.05 252.688C1044.05 252.016 1044.21 251.435 1044.54 250.944C1044.87 250.443 1045.33 250.069 1045.92 249.824ZM1050.01 247.568C1050.01 247.045 1049.85 246.64 1049.53 246.352C1049.22 246.064 1048.8 245.92 1048.25 245.92C1047.72 245.92 1047.29 246.064 1046.97 246.352C1046.66 246.64 1046.51 247.051 1046.51 247.584C1046.51 248.064 1046.67 248.448 1046.99 248.736C1047.32 249.024 1047.74 249.168 1048.25 249.168C1048.77 249.168 1049.19 249.024 1049.52 248.736C1049.85 248.437 1050.01 248.048 1050.01 247.568ZM1048.25 250.8C1047.65 250.8 1047.15 250.955 1046.77 251.264C1046.39 251.573 1046.21 252.016 1046.21 252.592C1046.21 253.125 1046.39 253.563 1046.75 253.904C1047.12 254.235 1047.62 254.4 1048.25 254.4C1048.88 254.4 1049.38 254.229 1049.74 253.888C1050.1 253.547 1050.29 253.115 1050.29 252.592C1050.29 252.027 1050.1 251.589 1049.73 251.28C1049.35 250.96 1048.86 250.8 1048.25 250.8ZM1054.25 250.016C1054.25 248.171 1054.58 246.725 1055.24 245.68C1055.91 244.635 1057.02 244.112 1058.57 244.112C1060.11 244.112 1061.22 244.635 1061.88 245.68C1062.55 246.725 1062.89 248.171 1062.89 250.016C1062.89 251.872 1062.55 253.328 1061.88 254.384C1061.22 255.44 1060.11 255.968 1058.57 255.968C1057.02 255.968 1055.91 255.44 1055.24 254.384C1054.58 253.328 1054.25 251.872 1054.25 250.016ZM1060.68 250.016C1060.68 249.227 1060.63 248.565 1060.52 248.032C1060.42 247.488 1060.22 247.045 1059.91 246.704C1059.61 246.363 1059.16 246.192 1058.57 246.192C1057.97 246.192 1057.52 246.363 1057.21 246.704C1056.91 247.045 1056.71 247.488 1056.6 248.032C1056.5 248.565 1056.45 249.227 1056.45 250.016C1056.45 250.827 1056.5 251.509 1056.6 252.064C1056.69 252.608 1056.9 253.051 1057.21 253.392C1057.52 253.723 1057.97 253.888 1058.57 253.888C1059.16 253.888 1059.62 253.723 1059.93 253.392C1060.24 253.051 1060.44 252.608 1060.53 252.064C1060.63 251.509 1060.68 250.827 1060.68 250.016ZM1065.84 256.112C1065.43 256.112 1065.1 255.989 1064.83 255.744C1064.57 255.488 1064.45 255.173 1064.45 254.8C1064.45 254.427 1064.57 254.117 1064.83 253.872C1065.1 253.616 1065.43 253.488 1065.84 253.488C1066.23 253.488 1066.56 253.616 1066.81 253.872C1067.07 254.117 1067.2 254.427 1067.2 254.8C1067.2 255.173 1067.07 255.488 1066.81 255.744C1066.56 255.989 1066.23 256.112 1065.84 256.112ZM1068.75 250.016C1068.75 248.171 1069.08 246.725 1069.74 245.68C1070.41 244.635 1071.52 244.112 1073.07 244.112C1074.61 244.112 1075.72 244.635 1076.38 245.68C1077.05 246.725 1077.39 248.171 1077.39 250.016C1077.39 251.872 1077.05 253.328 1076.38 254.384C1075.72 255.44 1074.61 255.968 1073.07 255.968C1071.52 255.968 1070.41 255.44 1069.74 254.384C1069.08 253.328 1068.75 251.872 1068.75 250.016ZM1075.18 250.016C1075.18 249.227 1075.13 248.565 1075.02 248.032C1074.92 247.488 1074.72 247.045 1074.41 246.704C1074.11 246.363 1073.66 246.192 1073.07 246.192C1072.47 246.192 1072.02 246.363 1071.71 246.704C1071.41 247.045 1071.21 247.488 1071.1 248.032C1071 248.565 1070.95 249.227 1070.95 250.016C1070.95 250.827 1071 251.509 1071.1 252.064C1071.19 252.608 1071.4 253.051 1071.71 253.392C1072.02 253.723 1072.47 253.888 1073.07 253.888C1073.66 253.888 1074.12 253.723 1074.43 253.392C1074.74 253.051 1074.94 252.608 1075.03 252.064C1075.13 251.509 1075.18 250.827 1075.18 250.016ZM1085.4 254.224H1089.08V256H1083.16V244.832H1085.4V254.224ZM1089.93 251.536C1089.93 250.64 1090.1 249.845 1090.45 249.152C1090.82 248.459 1091.3 247.925 1091.91 247.552C1092.53 247.179 1093.22 246.992 1093.97 246.992C1094.64 246.992 1095.21 247.125 1095.7 247.392C1096.2 247.659 1096.6 247.995 1096.9 248.4V247.136H1099.16V256H1096.9V254.704C1096.61 255.12 1096.21 255.467 1095.7 255.744C1095.2 256.011 1094.62 256.144 1093.96 256.144C1093.21 256.144 1092.53 255.952 1091.91 255.568C1091.3 255.184 1090.82 254.645 1090.45 253.952C1090.1 253.248 1089.93 252.443 1089.93 251.536ZM1096.9 251.568C1096.9 251.024 1096.8 250.56 1096.58 250.176C1096.37 249.781 1096.08 249.483 1095.72 249.28C1095.36 249.067 1094.97 248.96 1094.55 248.96C1094.13 248.96 1093.75 249.061 1093.4 249.264C1093.05 249.467 1092.76 249.765 1092.53 250.16C1092.32 250.544 1092.21 251.003 1092.21 251.536C1092.21 252.069 1092.32 252.539 1092.53 252.944C1092.76 253.339 1093.05 253.643 1093.4 253.856C1093.76 254.069 1094.15 254.176 1094.55 254.176C1094.97 254.176 1095.36 254.075 1095.72 253.872C1096.08 253.659 1096.37 253.36 1096.58 252.976C1096.8 252.581 1096.9 252.112 1096.9 251.568ZM1106.59 256L1103.59 252.224V256H1101.35V244.16H1103.59V250.896L1106.56 247.136H1109.47L1105.57 251.584L1109.51 256H1106.59ZM1115.68 247.008C1116.35 247.008 1116.95 247.157 1117.47 247.456C1118 247.744 1118.4 248.176 1118.69 248.752C1118.99 249.317 1119.14 250 1119.14 250.8V256H1116.9V251.104C1116.9 250.4 1116.72 249.861 1116.37 249.488C1116.02 249.104 1115.54 248.912 1114.93 248.912C1114.31 248.912 1113.82 249.104 1113.46 249.488C1113.11 249.861 1112.93 250.4 1112.93 251.104V256H1110.69V244.16H1112.93V248.24C1113.22 247.856 1113.6 247.557 1114.08 247.344C1114.56 247.12 1115.1 247.008 1115.68 247.008ZM1124.66 256.144C1123.93 256.144 1123.28 256.016 1122.71 255.76C1122.13 255.493 1121.67 255.136 1121.33 254.688C1121 254.24 1120.82 253.744 1120.79 253.2H1123.04C1123.09 253.541 1123.25 253.824 1123.54 254.048C1123.84 254.272 1124.21 254.384 1124.64 254.384C1125.07 254.384 1125.4 254.299 1125.64 254.128C1125.88 253.957 1126 253.739 1126 253.472C1126 253.184 1125.85 252.971 1125.56 252.832C1125.27 252.683 1124.8 252.523 1124.16 252.352C1123.5 252.192 1122.96 252.027 1122.53 251.856C1122.12 251.685 1121.75 251.424 1121.44 251.072C1121.15 250.72 1121 250.245 1121 249.648C1121 249.157 1121.13 248.709 1121.41 248.304C1121.7 247.899 1122.11 247.579 1122.63 247.344C1123.16 247.109 1123.79 246.992 1124.5 246.992C1125.56 246.992 1126.4 247.259 1127.03 247.792C1127.66 248.315 1128 249.024 1128.07 249.92H1125.92C1125.89 249.568 1125.74 249.291 1125.48 249.088C1125.22 248.875 1124.87 248.768 1124.44 248.768C1124.03 248.768 1123.72 248.843 1123.49 248.992C1123.28 249.141 1123.17 249.349 1123.17 249.616C1123.17 249.915 1123.32 250.144 1123.62 250.304C1123.92 250.453 1124.38 250.608 1125.01 250.768C1125.65 250.928 1126.18 251.093 1126.6 251.264C1127.01 251.435 1127.37 251.701 1127.67 252.064C1127.98 252.416 1128.14 252.885 1128.15 253.472C1128.15 253.984 1128 254.443 1127.72 254.848C1127.44 255.253 1127.03 255.573 1126.5 255.808C1125.98 256.032 1125.36 256.144 1124.66 256.144Z" fill="#210366"/>
<path d="M1124.16 100.824C1123.09 100.269 1122.56 99.4107 1122.56 98.248C1122.56 97.672 1122.7 97.1493 1122.99 96.68C1123.29 96.2 1123.73 95.8213 1124.32 95.544C1124.92 95.256 1125.64 95.112 1126.5 95.112C1127.35 95.112 1128.07 95.256 1128.66 95.544C1129.25 95.8213 1129.7 96.2 1129.98 96.68C1130.28 97.1493 1130.43 97.672 1130.43 98.248C1130.43 98.8347 1130.29 99.352 1130 99.8C1129.71 100.237 1129.33 100.579 1128.85 100.824C1129.43 101.08 1129.89 101.453 1130.22 101.944C1130.55 102.435 1130.72 103.016 1130.72 103.688C1130.72 104.413 1130.53 105.048 1130.16 105.592C1129.8 106.125 1129.3 106.536 1128.66 106.824C1128.02 107.112 1127.3 107.256 1126.5 107.256C1125.7 107.256 1124.98 107.112 1124.34 106.824C1123.71 106.536 1123.2 106.125 1122.83 105.592C1122.47 105.048 1122.29 104.413 1122.29 103.688C1122.29 103.016 1122.45 102.435 1122.78 101.944C1123.11 101.443 1123.57 101.069 1124.16 100.824ZM1128.26 98.568C1128.26 98.0453 1128.1 97.64 1127.78 97.352C1127.47 97.064 1127.04 96.92 1126.5 96.92C1125.96 96.92 1125.54 97.064 1125.22 97.352C1124.91 97.64 1124.75 98.0507 1124.75 98.584C1124.75 99.064 1124.91 99.448 1125.23 99.736C1125.56 100.024 1125.98 100.168 1126.5 100.168C1127.01 100.168 1127.43 100.024 1127.76 99.736C1128.09 99.4373 1128.26 99.048 1128.26 98.568ZM1126.5 101.8C1125.89 101.8 1125.39 101.955 1125.01 102.264C1124.63 102.573 1124.45 103.016 1124.45 103.592C1124.45 104.125 1124.63 104.563 1124.99 104.904C1125.36 105.235 1125.87 105.4 1126.5 105.4C1127.12 105.4 1127.62 105.229 1127.98 104.888C1128.35 104.547 1128.53 104.115 1128.53 103.592C1128.53 103.027 1128.34 102.589 1127.97 102.28C1127.59 101.96 1127.1 101.8 1126.5 101.8ZM1132.49 101.016C1132.49 99.1707 1132.82 97.7253 1133.48 96.68C1134.15 95.6347 1135.26 95.112 1136.81 95.112C1138.36 95.112 1139.46 95.6347 1140.12 96.68C1140.79 97.7253 1141.13 99.1707 1141.13 101.016C1141.13 102.872 1140.79 104.328 1140.12 105.384C1139.46 106.44 1138.36 106.968 1136.81 106.968C1135.26 106.968 1134.15 106.44 1133.48 105.384C1132.82 104.328 1132.49 102.872 1132.49 101.016ZM1138.92 101.016C1138.92 100.227 1138.87 99.5653 1138.76 99.032C1138.66 98.488 1138.46 98.0453 1138.15 97.704C1137.85 97.3627 1137.41 97.192 1136.81 97.192C1136.21 97.192 1135.76 97.3627 1135.45 97.704C1135.15 98.0453 1134.95 98.488 1134.84 99.032C1134.74 99.5653 1134.7 100.227 1134.7 101.016C1134.7 101.827 1134.74 102.509 1134.84 103.064C1134.94 103.608 1135.14 104.051 1135.45 104.392C1135.76 104.723 1136.21 104.888 1136.81 104.888C1137.41 104.888 1137.86 104.723 1138.17 104.392C1138.48 104.051 1138.68 103.608 1138.78 103.064C1138.87 102.509 1138.92 101.827 1138.92 101.016ZM1144.08 107.112C1143.68 107.112 1143.34 106.989 1143.07 106.744C1142.82 106.488 1142.69 106.173 1142.69 105.8C1142.69 105.427 1142.82 105.117 1143.07 104.872C1143.34 104.616 1143.68 104.488 1144.08 104.488C1144.48 104.488 1144.8 104.616 1145.06 104.872C1145.31 105.117 1145.44 105.427 1145.44 105.8C1145.44 106.173 1145.31 106.488 1145.06 106.744C1144.8 106.989 1144.48 107.112 1144.08 107.112ZM1146.99 101.016C1146.99 99.1707 1147.32 97.7253 1147.98 96.68C1148.65 95.6347 1149.76 95.112 1151.31 95.112C1152.86 95.112 1153.96 95.6347 1154.62 96.68C1155.29 97.7253 1155.63 99.1707 1155.63 101.016C1155.63 102.872 1155.29 104.328 1154.62 105.384C1153.96 106.44 1152.86 106.968 1151.31 106.968C1149.76 106.968 1148.65 106.44 1147.98 105.384C1147.32 104.328 1146.99 102.872 1146.99 101.016ZM1153.42 101.016C1153.42 100.227 1153.37 99.5653 1153.26 99.032C1153.16 98.488 1152.96 98.0453 1152.65 97.704C1152.35 97.3627 1151.91 97.192 1151.31 97.192C1150.71 97.192 1150.26 97.3627 1149.95 97.704C1149.65 98.0453 1149.45 98.488 1149.34 99.032C1149.24 99.5653 1149.2 100.227 1149.2 101.016C1149.2 101.827 1149.24 102.509 1149.34 103.064C1149.44 103.608 1149.64 104.051 1149.95 104.392C1150.26 104.723 1150.71 104.888 1151.31 104.888C1151.91 104.888 1152.36 104.723 1152.67 104.392C1152.98 104.051 1153.18 103.608 1153.28 103.064C1153.37 102.509 1153.42 101.827 1153.42 101.016ZM1163.64 105.224H1167.32V107H1161.4V95.832H1163.64V105.224Z" fill="#210366"/>
<path d="M59.3055 101.832V113H57.0655V108.248H52.2815V113H50.0415V101.832H52.2815V106.424H57.0655V101.832H59.3055ZM62.6463 103.08C62.2516 103.08 61.9209 102.957 61.6543 102.712C61.3983 102.456 61.2703 102.141 61.2703 101.768C61.2703 101.395 61.3983 101.085 61.6543 100.84C61.9209 100.584 62.2516 100.456 62.6463 100.456C63.0409 100.456 63.3663 100.584 63.6223 100.84C63.8889 101.085 64.0223 101.395 64.0223 101.768C64.0223 102.141 63.8889 102.456 63.6223 102.712C63.3663 102.957 63.0409 103.08 62.6463 103.08ZM63.7503 104.136V113H61.5103V104.136H63.7503ZM69.4354 103.992C70.0967 103.992 70.678 104.125 71.1794 104.392C71.6807 104.648 72.0754 104.984 72.3634 105.4V104.136H74.6194V113.064C74.6194 113.885 74.454 114.616 74.1234 115.256C73.7927 115.907 73.2967 116.419 72.6354 116.792C71.974 117.176 71.174 117.368 70.2354 117.368C68.9767 117.368 67.942 117.075 67.1314 116.488C66.3314 115.901 65.878 115.101 65.7714 114.088H67.9954C68.1127 114.493 68.3634 114.813 68.7474 115.048C69.142 115.293 69.6167 115.416 70.1714 115.416C70.822 115.416 71.35 115.219 71.7554 114.824C72.1607 114.44 72.3634 113.853 72.3634 113.064V111.688C72.0754 112.104 71.6754 112.451 71.1634 112.728C70.662 113.005 70.086 113.144 69.4354 113.144C68.6887 113.144 68.006 112.952 67.3874 112.568C66.7687 112.184 66.278 111.645 65.9154 110.952C65.5634 110.248 65.3874 109.443 65.3874 108.536C65.3874 107.64 65.5634 106.845 65.9154 106.152C66.278 105.459 66.7634 104.925 67.3714 104.552C67.99 104.179 68.678 103.992 69.4354 103.992ZM72.3634 108.568C72.3634 108.024 72.2567 107.56 72.0434 107.176C71.83 106.781 71.542 106.483 71.1794 106.28C70.8167 106.067 70.4274 105.96 70.0114 105.96C69.5954 105.96 69.2114 106.061 68.8594 106.264C68.5074 106.467 68.2194 106.765 67.9954 107.16C67.782 107.544 67.6754 108.003 67.6754 108.536C67.6754 109.069 67.782 109.539 67.9954 109.944C68.2194 110.339 68.5074 110.643 68.8594 110.856C69.222 111.069 69.606 111.176 70.0114 111.176C70.4274 111.176 70.8167 111.075 71.1794 110.872C71.542 110.659 71.83 110.36 72.0434 109.976C72.2567 109.581 72.3634 109.112 72.3634 108.568ZM81.7991 104.008C82.4711 104.008 83.0685 104.157 83.5911 104.456C84.1138 104.744 84.5191 105.176 84.8071 105.752C85.1058 106.317 85.2551 107 85.2551 107.8V113H83.0151V108.104C83.0151 107.4 82.8391 106.861 82.4871 106.488C82.1351 106.104 81.6551 105.912 81.0471 105.912C80.4285 105.912 79.9378 106.104 79.5751 106.488C79.2231 106.861 79.0471 107.4 79.0471 108.104V113H76.8071V101.16H79.0471V105.24C79.3351 104.856 79.7191 104.557 80.1991 104.344C80.6791 104.12 81.2125 104.008 81.7991 104.008ZM95.6253 108.376C95.6253 108.696 95.6039 108.984 95.5613 109.24H89.0813C89.1346 109.88 89.3586 110.381 89.7533 110.744C90.1479 111.107 90.6333 111.288 91.2093 111.288C92.0413 111.288 92.6333 110.931 92.9853 110.216H95.4013C95.1453 111.069 94.6546 111.773 93.9293 112.328C93.2039 112.872 92.3133 113.144 91.2573 113.144C90.4039 113.144 89.6359 112.957 88.9533 112.584C88.2813 112.2 87.7533 111.661 87.3693 110.968C86.9959 110.275 86.8092 109.475 86.8092 108.568C86.8092 107.651 86.9959 106.845 87.3693 106.152C87.7426 105.459 88.2653 104.925 88.9373 104.552C89.6093 104.179 90.3826 103.992 91.2573 103.992C92.0999 103.992 92.8519 104.173 93.5133 104.536C94.1853 104.899 94.7026 105.416 95.0653 106.088C95.4386 106.749 95.6253 107.512 95.6253 108.376ZM93.3053 107.736C93.2946 107.16 93.0866 106.701 92.6813 106.36C92.2759 106.008 91.7799 105.832 91.1933 105.832C90.6386 105.832 90.1693 106.003 89.7853 106.344C89.4119 106.675 89.1826 107.139 89.0973 107.736H93.3053ZM100.652 113.144C99.9269 113.144 99.2763 113.016 98.7003 112.76C98.1243 112.493 97.6656 112.136 97.3243 111.688C96.9936 111.24 96.8123 110.744 96.7803 110.2H99.0363C99.0789 110.541 99.2443 110.824 99.5323 111.048C99.8309 111.272 100.199 111.384 100.636 111.384C101.063 111.384 101.394 111.299 101.628 111.128C101.874 110.957 101.996 110.739 101.996 110.472C101.996 110.184 101.847 109.971 101.548 109.832C101.26 109.683 100.796 109.523 100.156 109.352C99.4949 109.192 98.9509 109.027 98.5243 108.856C98.1083 108.685 97.7456 108.424 97.4363 108.072C97.1376 107.72 96.9883 107.245 96.9883 106.648C96.9883 106.157 97.1269 105.709 97.4043 105.304C97.6923 104.899 98.0976 104.579 98.6203 104.344C99.1536 104.109 99.7776 103.992 100.492 103.992C101.548 103.992 102.391 104.259 103.02 104.792C103.65 105.315 103.996 106.024 104.06 106.92H101.916C101.884 106.568 101.735 106.291 101.468 106.088C101.212 105.875 100.866 105.768 100.428 105.768C100.023 105.768 99.7083 105.843 99.4843 105.992C99.2709 106.141 99.1643 106.349 99.1643 106.616C99.1643 106.915 99.3136 107.144 99.6123 107.304C99.9109 107.453 100.375 107.608 101.004 107.768C101.644 107.928 102.172 108.093 102.588 108.264C103.004 108.435 103.362 108.701 103.66 109.064C103.97 109.416 104.13 109.885 104.14 110.472C104.14 110.984 103.996 111.443 103.708 111.848C103.431 112.253 103.026 112.573 102.492 112.808C101.97 113.032 101.356 113.144 100.652 113.144ZM108.587 105.976V110.264C108.587 110.563 108.656 110.781 108.795 110.92C108.944 111.048 109.19 111.112 109.531 111.112H110.571V113H109.163C107.275 113 106.331 112.083 106.331 110.248V105.976H105.275V104.136H106.331V101.944H108.587V104.136H110.571V105.976H108.587ZM124.139 105.288C124.139 105.885 123.995 106.445 123.707 106.968C123.429 107.491 122.987 107.912 122.379 108.232C121.781 108.552 121.024 108.712 120.107 108.712H118.235V113H115.995V101.832H120.107C120.971 101.832 121.707 101.981 122.315 102.28C122.923 102.579 123.376 102.989 123.675 103.512C123.984 104.035 124.139 104.627 124.139 105.288ZM120.011 106.904C120.629 106.904 121.088 106.765 121.387 106.488C121.685 106.2 121.835 105.8 121.835 105.288C121.835 104.2 121.227 103.656 120.011 103.656H118.235V106.904H120.011ZM125.153 108.536C125.153 107.64 125.329 106.845 125.681 106.152C126.044 105.459 126.529 104.925 127.137 104.552C127.756 104.179 128.444 103.992 129.201 103.992C129.862 103.992 130.438 104.125 130.929 104.392C131.43 104.659 131.83 104.995 132.129 105.4V104.136H134.385V113H132.129V111.704C131.841 112.12 131.441 112.467 130.929 112.744C130.428 113.011 129.846 113.144 129.185 113.144C128.438 113.144 127.756 112.952 127.137 112.568C126.529 112.184 126.044 111.645 125.681 110.952C125.329 110.248 125.153 109.443 125.153 108.536ZM132.129 108.568C132.129 108.024 132.022 107.56 131.809 107.176C131.596 106.781 131.308 106.483 130.945 106.28C130.582 106.067 130.193 105.96 129.777 105.96C129.361 105.96 128.977 106.061 128.625 106.264C128.273 106.467 127.985 106.765 127.761 107.16C127.548 107.544 127.441 108.003 127.441 108.536C127.441 109.069 127.548 109.539 127.761 109.944C127.985 110.339 128.273 110.643 128.625 110.856C128.988 111.069 129.372 111.176 129.777 111.176C130.193 111.176 130.582 111.075 130.945 110.872C131.308 110.659 131.596 110.36 131.809 109.976C132.022 109.581 132.129 109.112 132.129 108.568ZM135.997 108.568C135.997 107.651 136.183 106.851 136.557 106.168C136.93 105.475 137.447 104.941 138.109 104.568C138.77 104.184 139.527 103.992 140.381 103.992C141.479 103.992 142.386 104.269 143.101 104.824C143.826 105.368 144.311 106.136 144.557 107.128H142.141C142.013 106.744 141.794 106.445 141.485 106.232C141.186 106.008 140.813 105.896 140.365 105.896C139.725 105.896 139.218 106.131 138.845 106.6C138.471 107.059 138.285 107.715 138.285 108.568C138.285 109.411 138.471 110.067 138.845 110.536C139.218 110.995 139.725 111.224 140.365 111.224C141.271 111.224 141.863 110.819 142.141 110.008H144.557C144.311 110.968 143.826 111.731 143.101 112.296C142.375 112.861 141.469 113.144 140.381 113.144C139.527 113.144 138.77 112.957 138.109 112.584C137.447 112.2 136.93 111.667 136.557 110.984C136.183 110.291 135.997 109.485 135.997 108.568ZM151.446 113L148.438 109.224V113H146.198V101.16H148.438V107.896L151.414 104.136H154.326L150.422 108.584L154.358 113H151.446ZM154.965 108.536C154.965 107.64 155.141 106.845 155.493 106.152C155.856 105.459 156.342 104.925 156.95 104.552C157.568 104.179 158.256 103.992 159.014 103.992C159.675 103.992 160.251 104.125 160.742 104.392C161.243 104.659 161.643 104.995 161.942 105.4V104.136H164.198V113H161.942V111.704C161.654 112.12 161.254 112.467 160.742 112.744C160.24 113.011 159.659 113.144 158.998 113.144C158.251 113.144 157.568 112.952 156.95 112.568C156.342 112.184 155.856 111.645 155.493 110.952C155.141 110.248 154.965 109.443 154.965 108.536ZM161.942 108.568C161.942 108.024 161.835 107.56 161.622 107.176C161.408 106.781 161.12 106.483 160.758 106.28C160.395 106.067 160.006 105.96 159.59 105.96C159.174 105.96 158.79 106.061 158.438 106.264C158.086 106.467 157.798 106.765 157.574 107.16C157.36 107.544 157.254 108.003 157.254 108.536C157.254 109.069 157.36 109.539 157.574 109.944C157.798 110.339 158.086 110.643 158.438 110.856C158.8 111.069 159.184 111.176 159.59 111.176C160.006 111.176 160.395 111.075 160.758 110.872C161.12 110.659 161.408 110.36 161.622 109.976C161.835 109.581 161.942 109.112 161.942 108.568ZM169.857 103.992C170.519 103.992 171.1 104.125 171.601 104.392C172.103 104.648 172.497 104.984 172.785 105.4V104.136H175.041V113.064C175.041 113.885 174.876 114.616 174.545 115.256C174.215 115.907 173.719 116.419 173.057 116.792C172.396 117.176 171.596 117.368 170.657 117.368C169.399 117.368 168.364 117.075 167.553 116.488C166.753 115.901 166.3 115.101 166.193 114.088H168.417C168.535 114.493 168.785 114.813 169.169 115.048C169.564 115.293 170.039 115.416 170.593 115.416C171.244 115.416 171.772 115.219 172.177 114.824C172.583 114.44 172.785 113.853 172.785 113.064V111.688C172.497 112.104 172.097 112.451 171.585 112.728C171.084 113.005 170.508 113.144 169.857 113.144C169.111 113.144 168.428 112.952 167.809 112.568C167.191 112.184 166.7 111.645 166.337 110.952C165.985 110.248 165.809 109.443 165.809 108.536C165.809 107.64 165.985 106.845 166.337 106.152C166.7 105.459 167.185 104.925 167.793 104.552C168.412 104.179 169.1 103.992 169.857 103.992ZM172.785 108.568C172.785 108.024 172.679 107.56 172.465 107.176C172.252 106.781 171.964 106.483 171.601 106.28C171.239 106.067 170.849 105.96 170.433 105.96C170.017 105.96 169.633 106.061 169.281 106.264C168.929 106.467 168.641 106.765 168.417 107.16C168.204 107.544 168.097 108.003 168.097 108.536C168.097 109.069 168.204 109.539 168.417 109.944C168.641 110.339 168.929 110.643 169.281 110.856C169.644 111.069 170.028 111.176 170.433 111.176C170.849 111.176 171.239 111.075 171.601 110.872C171.964 110.659 172.252 110.36 172.465 109.976C172.679 109.581 172.785 109.112 172.785 108.568ZM185.469 108.376C185.469 108.696 185.448 108.984 185.405 109.24H178.925C178.978 109.88 179.202 110.381 179.597 110.744C179.992 111.107 180.477 111.288 181.053 111.288C181.885 111.288 182.477 110.931 182.829 110.216H185.245C184.989 111.069 184.498 111.773 183.773 112.328C183.048 112.872 182.157 113.144 181.101 113.144C180.248 113.144 179.48 112.957 178.797 112.584C178.125 112.2 177.597 111.661 177.213 110.968C176.84 110.275 176.653 109.475 176.653 108.568C176.653 107.651 176.84 106.845 177.213 106.152C177.586 105.459 178.109 104.925 178.781 104.552C179.453 104.179 180.226 103.992 181.101 103.992C181.944 103.992 182.696 104.173 183.357 104.536C184.029 104.899 184.546 105.416 184.909 106.088C185.282 106.749 185.469 107.512 185.469 108.376ZM183.149 107.736C183.138 107.16 182.93 106.701 182.525 106.36C182.12 106.008 181.624 105.832 181.037 105.832C180.482 105.832 180.013 106.003 179.629 106.344C179.256 106.675 179.026 107.139 178.941 107.736H183.149Z" fill="#210366"/>
<path d="M53.0926 191.872H48.6446L47.9086 194H45.5566L49.5726 182.816H52.1806L56.1966 194H53.8286L53.0926 191.872ZM52.4846 190.08L50.8686 185.408L49.2526 190.08H52.4846ZM61.3938 191.936L63.6338 185.136H66.0178L62.7378 194H60.0178L56.7538 185.136H59.1538L61.3938 191.936ZM75.5159 189.376C75.5159 189.696 75.4945 189.984 75.4519 190.24H68.9719C69.0252 190.88 69.2492 191.381 69.6439 191.744C70.0385 192.107 70.5239 192.288 71.0999 192.288C71.9319 192.288 72.5239 191.931 72.8759 191.216H75.2919C75.0359 192.069 74.5452 192.773 73.8199 193.328C73.0945 193.872 72.2039 194.144 71.1479 194.144C70.2945 194.144 69.5265 193.957 68.8439 193.584C68.1719 193.2 67.6439 192.661 67.2599 191.968C66.8865 191.275 66.6999 190.475 66.6999 189.568C66.6999 188.651 66.8865 187.845 67.2599 187.152C67.6332 186.459 68.1559 185.925 68.8279 185.552C69.4999 185.179 70.2732 184.992 71.1479 184.992C71.9905 184.992 72.7425 185.173 73.4039 185.536C74.0759 185.899 74.5932 186.416 74.9559 187.088C75.3292 187.749 75.5159 188.512 75.5159 189.376ZM73.1959 188.736C73.1852 188.16 72.9772 187.701 72.5719 187.36C72.1665 187.008 71.6705 186.832 71.0839 186.832C70.5292 186.832 70.0599 187.003 69.6759 187.344C69.3025 187.675 69.0732 188.139 68.9879 188.736H73.1959ZM79.3909 186.512C79.6789 186.043 80.0522 185.675 80.5109 185.408C80.9802 185.141 81.5135 185.008 82.1109 185.008V187.36H81.5189C80.8149 187.36 80.2815 187.525 79.9189 187.856C79.5669 188.187 79.3909 188.763 79.3909 189.584V194H77.1509V185.136H79.3909V186.512ZM83.0436 189.536C83.0436 188.64 83.2196 187.845 83.5716 187.152C83.9343 186.459 84.4196 185.925 85.0276 185.552C85.6463 185.179 86.3343 184.992 87.0916 184.992C87.753 184.992 88.329 185.125 88.8196 185.392C89.321 185.659 89.721 185.995 90.0196 186.4V185.136H92.2756V194H90.0196V192.704C89.7316 193.12 89.3316 193.467 88.8196 193.744C88.3183 194.011 87.737 194.144 87.0756 194.144C86.329 194.144 85.6463 193.952 85.0276 193.568C84.4196 193.184 83.9343 192.645 83.5716 191.952C83.2196 191.248 83.0436 190.443 83.0436 189.536ZM90.0196 189.568C90.0196 189.024 89.913 188.56 89.6996 188.176C89.4863 187.781 89.1983 187.483 88.8356 187.28C88.473 187.067 88.0836 186.96 87.6676 186.96C87.2516 186.96 86.8676 187.061 86.5156 187.264C86.1636 187.467 85.8756 187.765 85.6516 188.16C85.4383 188.544 85.3316 189.003 85.3316 189.536C85.3316 190.069 85.4383 190.539 85.6516 190.944C85.8756 191.339 86.1636 191.643 86.5156 191.856C86.8783 192.069 87.2623 192.176 87.6676 192.176C88.0836 192.176 88.473 192.075 88.8356 191.872C89.1983 191.659 89.4863 191.36 89.6996 190.976C89.913 190.581 90.0196 190.112 90.0196 189.568ZM97.9354 184.992C98.5967 184.992 99.178 185.125 99.6794 185.392C100.181 185.648 100.575 185.984 100.863 186.4V185.136H103.119V194.064C103.119 194.885 102.954 195.616 102.623 196.256C102.293 196.907 101.797 197.419 101.135 197.792C100.474 198.176 99.674 198.368 98.7354 198.368C97.4767 198.368 96.442 198.075 95.6314 197.488C94.8314 196.901 94.378 196.101 94.2714 195.088H96.4954C96.6127 195.493 96.8634 195.813 97.2474 196.048C97.642 196.293 98.1167 196.416 98.6714 196.416C99.322 196.416 99.85 196.219 100.255 195.824C100.661 195.44 100.863 194.853 100.863 194.064V192.688C100.575 193.104 100.175 193.451 99.6634 193.728C99.162 194.005 98.586 194.144 97.9354 194.144C97.1887 194.144 96.506 193.952 95.8874 193.568C95.2687 193.184 94.778 192.645 94.4154 191.952C94.0634 191.248 93.8874 190.443 93.8874 189.536C93.8874 188.64 94.0634 187.845 94.4154 187.152C94.778 186.459 95.2634 185.925 95.8714 185.552C96.49 185.179 97.178 184.992 97.9354 184.992ZM100.863 189.568C100.863 189.024 100.757 188.56 100.543 188.176C100.33 187.781 100.042 187.483 99.6794 187.28C99.3167 187.067 98.9274 186.96 98.5114 186.96C98.0954 186.96 97.7114 187.061 97.3594 187.264C97.0074 187.467 96.7194 187.765 96.4954 188.16C96.282 188.544 96.1754 189.003 96.1754 189.536C96.1754 190.069 96.282 190.539 96.4954 190.944C96.7194 191.339 97.0074 191.643 97.3594 191.856C97.722 192.069 98.106 192.176 98.5114 192.176C98.9274 192.176 99.3167 192.075 99.6794 191.872C100.042 191.659 100.33 191.36 100.543 190.976C100.757 190.581 100.863 190.112 100.863 189.568ZM113.547 189.376C113.547 189.696 113.526 189.984 113.483 190.24H107.003C107.056 190.88 107.28 191.381 107.675 191.744C108.07 192.107 108.555 192.288 109.131 192.288C109.963 192.288 110.555 191.931 110.907 191.216H113.323C113.067 192.069 112.576 192.773 111.851 193.328C111.126 193.872 110.235 194.144 109.179 194.144C108.326 194.144 107.558 193.957 106.875 193.584C106.203 193.2 105.675 192.661 105.291 191.968C104.918 191.275 104.731 190.475 104.731 189.568C104.731 188.651 104.918 187.845 105.291 187.152C105.664 186.459 106.187 185.925 106.859 185.552C107.531 185.179 108.304 184.992 109.179 184.992C110.022 184.992 110.774 185.173 111.435 185.536C112.107 185.899 112.624 186.416 112.987 187.088C113.36 187.749 113.547 188.512 113.547 189.376ZM111.227 188.736C111.216 188.16 111.008 187.701 110.603 187.36C110.198 187.008 109.702 186.832 109.115 186.832C108.56 186.832 108.091 187.003 107.707 187.344C107.334 187.675 107.104 188.139 107.019 188.736H111.227ZM127.139 186.288C127.139 186.885 126.995 187.445 126.707 187.968C126.429 188.491 125.987 188.912 125.379 189.232C124.781 189.552 124.024 189.712 123.107 189.712H121.235V194H118.995V182.832H123.107C123.971 182.832 124.707 182.981 125.315 183.28C125.923 183.579 126.376 183.989 126.675 184.512C126.984 185.035 127.139 185.627 127.139 186.288ZM123.011 187.904C123.629 187.904 124.088 187.765 124.387 187.488C124.685 187.2 124.835 186.8 124.835 186.288C124.835 185.2 124.227 184.656 123.011 184.656H121.235V187.904H123.011ZM128.153 189.536C128.153 188.64 128.329 187.845 128.681 187.152C129.044 186.459 129.529 185.925 130.137 185.552C130.756 185.179 131.444 184.992 132.201 184.992C132.862 184.992 133.438 185.125 133.929 185.392C134.43 185.659 134.83 185.995 135.129 186.4V185.136H137.385V194H135.129V192.704C134.841 193.12 134.441 193.467 133.929 193.744C133.428 194.011 132.846 194.144 132.185 194.144C131.438 194.144 130.756 193.952 130.137 193.568C129.529 193.184 129.044 192.645 128.681 191.952C128.329 191.248 128.153 190.443 128.153 189.536ZM135.129 189.568C135.129 189.024 135.022 188.56 134.809 188.176C134.596 187.781 134.308 187.483 133.945 187.28C133.582 187.067 133.193 186.96 132.777 186.96C132.361 186.96 131.977 187.061 131.625 187.264C131.273 187.467 130.985 187.765 130.761 188.16C130.548 188.544 130.441 189.003 130.441 189.536C130.441 190.069 130.548 190.539 130.761 190.944C130.985 191.339 131.273 191.643 131.625 191.856C131.988 192.069 132.372 192.176 132.777 192.176C133.193 192.176 133.582 192.075 133.945 191.872C134.308 191.659 134.596 191.36 134.809 190.976C135.022 190.581 135.129 190.112 135.129 189.568ZM138.997 189.568C138.997 188.651 139.183 187.851 139.557 187.168C139.93 186.475 140.447 185.941 141.109 185.568C141.77 185.184 142.527 184.992 143.381 184.992C144.479 184.992 145.386 185.269 146.101 185.824C146.826 186.368 147.311 187.136 147.557 188.128H145.141C145.013 187.744 144.794 187.445 144.485 187.232C144.186 187.008 143.813 186.896 143.365 186.896C142.725 186.896 142.218 187.131 141.845 187.6C141.471 188.059 141.285 188.715 141.285 189.568C141.285 190.411 141.471 191.067 141.845 191.536C142.218 191.995 142.725 192.224 143.365 192.224C144.271 192.224 144.863 191.819 145.141 191.008H147.557C147.311 191.968 146.826 192.731 146.101 193.296C145.375 193.861 144.469 194.144 143.381 194.144C142.527 194.144 141.77 193.957 141.109 193.584C140.447 193.2 139.93 192.667 139.557 191.984C139.183 191.291 138.997 190.485 138.997 189.568ZM154.446 194L151.438 190.224V194H149.198V182.16H151.438V188.896L154.414 185.136H157.326L153.422 189.584L157.358 194H154.446ZM157.965 189.536C157.965 188.64 158.141 187.845 158.493 187.152C158.856 186.459 159.342 185.925 159.95 185.552C160.568 185.179 161.256 184.992 162.014 184.992C162.675 184.992 163.251 185.125 163.742 185.392C164.243 185.659 164.643 185.995 164.942 186.4V185.136H167.198V194H164.942V192.704C164.654 193.12 164.254 193.467 163.742 193.744C163.24 194.011 162.659 194.144 161.998 194.144C161.251 194.144 160.568 193.952 159.95 193.568C159.342 193.184 158.856 192.645 158.493 191.952C158.141 191.248 157.965 190.443 157.965 189.536ZM164.942 189.568C164.942 189.024 164.835 188.56 164.622 188.176C164.408 187.781 164.12 187.483 163.758 187.28C163.395 187.067 163.006 186.96 162.59 186.96C162.174 186.96 161.79 187.061 161.438 187.264C161.086 187.467 160.798 187.765 160.574 188.16C160.36 188.544 160.254 189.003 160.254 189.536C160.254 190.069 160.36 190.539 160.574 190.944C160.798 191.339 161.086 191.643 161.438 191.856C161.8 192.069 162.184 192.176 162.59 192.176C163.006 192.176 163.395 192.075 163.758 191.872C164.12 191.659 164.408 191.36 164.622 190.976C164.835 190.581 164.942 190.112 164.942 189.568ZM172.857 184.992C173.519 184.992 174.1 185.125 174.601 185.392C175.103 185.648 175.497 185.984 175.785 186.4V185.136H178.041V194.064C178.041 194.885 177.876 195.616 177.545 196.256C177.215 196.907 176.719 197.419 176.057 197.792C175.396 198.176 174.596 198.368 173.657 198.368C172.399 198.368 171.364 198.075 170.553 197.488C169.753 196.901 169.3 196.101 169.193 195.088H171.417C171.535 195.493 171.785 195.813 172.169 196.048C172.564 196.293 173.039 196.416 173.593 196.416C174.244 196.416 174.772 196.219 175.177 195.824C175.583 195.44 175.785 194.853 175.785 194.064V192.688C175.497 193.104 175.097 193.451 174.585 193.728C174.084 194.005 173.508 194.144 172.857 194.144C172.111 194.144 171.428 193.952 170.809 193.568C170.191 193.184 169.7 192.645 169.337 191.952C168.985 191.248 168.809 190.443 168.809 189.536C168.809 188.64 168.985 187.845 169.337 187.152C169.7 186.459 170.185 185.925 170.793 185.552C171.412 185.179 172.1 184.992 172.857 184.992ZM175.785 189.568C175.785 189.024 175.679 188.56 175.465 188.176C175.252 187.781 174.964 187.483 174.601 187.28C174.239 187.067 173.849 186.96 173.433 186.96C173.017 186.96 172.633 187.061 172.281 187.264C171.929 187.467 171.641 187.765 171.417 188.16C171.204 188.544 171.097 189.003 171.097 189.536C171.097 190.069 171.204 190.539 171.417 190.944C171.641 191.339 171.929 191.643 172.281 191.856C172.644 192.069 173.028 192.176 173.433 192.176C173.849 192.176 174.239 192.075 174.601 191.872C174.964 191.659 175.252 191.36 175.465 190.976C175.679 190.581 175.785 190.112 175.785 189.568ZM188.469 189.376C188.469 189.696 188.448 189.984 188.405 190.24H181.925C181.978 190.88 182.202 191.381 182.597 191.744C182.992 192.107 183.477 192.288 184.053 192.288C184.885 192.288 185.477 191.931 185.829 191.216H188.245C187.989 192.069 187.498 192.773 186.773 193.328C186.048 193.872 185.157 194.144 184.101 194.144C183.248 194.144 182.48 193.957 181.797 193.584C181.125 193.2 180.597 192.661 180.213 191.968C179.84 191.275 179.653 190.475 179.653 189.568C179.653 188.651 179.84 187.845 180.213 187.152C180.586 186.459 181.109 185.925 181.781 185.552C182.453 185.179 183.226 184.992 184.101 184.992C184.944 184.992 185.696 185.173 186.357 185.536C187.029 185.899 187.546 186.416 187.909 187.088C188.282 187.749 188.469 188.512 188.469 189.376ZM186.149 188.736C186.138 188.16 185.93 187.701 185.525 187.36C185.12 187.008 184.624 186.832 184.037 186.832C183.482 186.832 183.013 187.003 182.629 187.344C182.256 187.675 182.026 188.139 181.941 188.736H186.149Z" fill="#210366"/>
<line opacity="0.5" x1="204" y1="102" x2="1103" y2="102" stroke="#F87600" stroke-width="6"/>
<line x1="204" y1="185" x2="641" y2="185" stroke="#7B90FF" stroke-width="6"/>
<circle cx="641" cy="186" r="13" fill="#210366"/>
<line x1="204.5" y1="84" x2="204.5" y2="223" stroke="black"/>
<line x1="408.5" y1="84" x2="408.5" y2="223" stroke="black"/>
<line x1="605.5" y1="84" x2="605.5" y2="223" stroke="black"/>
<line x1="793.5" y1="84" x2="793.5" y2="223" stroke="black"/>
<line x1="956.5" y1="84" x2="956.5" y2="223" stroke="black"/>
<line x1="1090.5" y1="84" x2="1090.5" y2="223" stroke="black"/>
<path d="M34.3536 102.646C34.1583 102.451 33.8417 102.451 33.6464 102.646L30.4645 105.828C30.2692 106.024 30.2692 106.34 30.4645 106.536C30.6597 106.731 30.9763 106.731 31.1716 106.536L34 103.707L36.8284 106.536C37.0237 106.731 37.3403 106.731 37.5355 106.536C37.7308 106.34 37.7308 106.024 37.5355 105.828L34.3536 102.646ZM34.5 113L34.5 103L33.5 103L33.5 113L34.5 113Z" fill="#FF7900"/>
<path d="M34.3536 183.646C34.1583 183.451 33.8417 183.451 33.6464 183.646L30.4645 186.828C30.2692 187.024 30.2692 187.34 30.4645 187.536C30.6597 187.731 30.9763 187.731 31.1716 187.536L34 184.707L36.8284 187.536C37.0237 187.731 37.3403 187.731 37.5355 187.536C37.7308 187.34 37.7308 187.024 37.5355 186.828L34.3536 183.646ZM34.5 194L34.5 184L33.5 184L33.5 194L34.5 194Z" fill="#FF7900"/>
<path d="M33.6426 195.349C33.8357 195.547 34.1523 195.55 34.3496 195.357L37.5657 192.209C37.763 192.016 37.7664 191.699 37.5733 191.502C37.3801 191.305 37.0635 191.301 36.8662 191.494L34.0075 194.292L31.2097 191.434C31.0165 191.236 30.6999 191.233 30.5026 191.426C30.3052 191.619 30.3018 191.936 30.495 192.133L33.6426 195.349ZM33.6075 184.995L33.4999 194.994L34.4999 195.005L34.6074 185.005L33.6075 184.995Z" fill="#FF7900"/>
<circle cx="1099" cy="102" r="13" fill="#FF7900"/>
</svg>
