<svg version="1.1" id="Layer_1" xmlns="http://www.w3.org/2000/svg" x="0" y="0" viewBox="0 0 45 45" style="enable-background:new 0 0 45 45" xml:space="preserve"><style>.st0{fill:#24a7d0}.st1{fill:#48639e}</style><path class="st1" d="M4.77 38.17h35.45v1H4.77z"/><path class="st0" d="M16.23 33.7c-.19 0-.37-.1-.45-.28a.504.504 0 0 1 .24-.67l5.66-2.7-5.72-3.77a.498.498 0 0 1 .55-.83l6.46 4.26c.15.1.24.27.22.45-.01.18-.12.34-.28.42l-6.46 3.08a.85.85 0 0 1-.22.04z"/><path class="st0" d="M28.77 34.29a.56.56 0 0 1-.27-.08l-5.64-3.58a.493.493 0 0 1-.23-.44c.01-.18.11-.34.26-.42l4.94-2.66-5-3.66a.479.479 0 0 1-.2-.44c.01-.17.12-.33.27-.41l4.92-2.53-4.99-3.69c-.14-.1-.21-.27-.2-.44s.12-.33.27-.4l5.64-2.86c.25-.12.55-.03.67.22s.03.55-.22.67l-4.91 2.49 4.99 3.69c.14.1.21.27.2.44-.01.17-.12.32-.27.4l-4.92 2.53 4.98 3.65c.14.1.22.27.2.44-.01.17-.11.32-.26.41l-4.88 2.63 4.92 3.12a.5.5 0 0 1-.27.92z"/><path class="st1" d="M29.27 35.83h-1V13.48l-4.64-1.5v23.85h-1V10.61l6.64 2.14z"/><path class="st1" d="M16.73 35.83h-1V25.52l7.22-2.94.37.92-6.59 2.69zM26.79 12.21h-1V8.94h-2.16v2.36h-1V7.94h4.16z"/><path class="st1" d="M25.79 4.72h1v3.72h-1zM31.84 39.07H13.16v-3.41h18.68v3.41zm-17.68-1h16.68v-1.41H14.16v1.41z"/></svg>