<svg version="1.1" id="Layer_1" xmlns="http://www.w3.org/2000/svg" x="0" y="0" viewBox="0 0 45 45" style="enable-background:new 0 0 45 45" xml:space="preserve"><style>.st0{fill:#24a7d0}.st1{fill:#48639e}</style><path class="st1" d="M4.77 38.17h35.45v1H4.77z"/><path class="st0" d="M22.18 8.22h1v6.1h-1z"/><path class="st1" d="M25.91 14.5h-6.47v-4.17h6.47v4.17zm-5.47-1h4.47v-2.17h-4.47v2.17z"/><path class="st1" d="M22.18 14h1v15.04h-1z"/><path class="st0" d="M27.03 18.22h-9.06c-.28 0-.5-.22-.5-.5s.22-.5.5-.5h9.06c.28 0 .5.22.5.5s-.22.5-.5.5zM27.03 22.16h-9.06c-.28 0-.5-.22-.5-.5s.22-.5.5-.5h9.06c.28 0 .5.22.5.5s-.22.5-.5.5zM27.03 26.09h-9.06c-.28 0-.5-.22-.5-.5s.22-.5.5-.5h9.06c.28 0 .5.22.5.5s-.22.5-.5.5z"/><path class="st1" d="M30.3 39.13H14.7V28.19h15.6v10.94zm-14.6-1h13.6v-8.94H15.7v8.94z"/><path class="st1" d="M27.53 29.19H17.47V13.5h10.06v15.69zm-9.06-1h8.06V14.5h-8.06v13.69zM18.15 32.84h8.69v1h-8.69zM18.15 35.5h8.69v1h-8.69z"/><path class="st1" d="M27.19 39.09H17.8v-8.71h9.39v8.71zm-8.38-1h7.39v-6.71h-7.39v6.71z"/><path class="st1" d="M22 30.88h1v7.71h-1z"/></svg>