<svg version="1.1" id="Layer_1" xmlns="http://www.w3.org/2000/svg" x="0" y="0" viewBox="0 0 45 45" style="enable-background:new 0 0 45 45" xml:space="preserve"><style>.st0{fill:#24a7d0}.st1{fill:#48639e}</style><path class="st1" d="M4.77 38.17h35.45v1H4.77z"/><path class="st1" d="M28.77 39.2H16.24V28.16h12.53V39.2zm-11.53-1h10.53v-9.04H17.24v9.04z"/><path class="st0" d="M33.37 17.04h-3.78l.02-1h3.73zM33.41 19.08h-3.87l.03-1h3.82zM33.45 21.13h-3.96l.03-1h3.91zM33.5 23.18h-4.05l.02-1h4.01zM33.54 25.22H29.4l.02-1h4.1zM33.58 27.27h-4.23l.02-1h4.19zM33.63 29.32H29.3l.03-1h4.28zM33.67 31.36h-4.42l.03-1h4.37zM33.72 33.41h-4.51l.02-1h4.46zM33.76 35.46h-4.6l.02-1h4.56zM33.8 37.5h-4.69l.02-1h4.65z"/><path class="st1" d="m33.8 37.5-.02-1-.02-1.04-.02-1-.02-1.05-.03-1-.02-1.05-.02-1-.02-1.04-.02-1-.03-1.05-.02-1-.02-1.05-.02-1-.02-1.04-.02-1-.03-1.05-.02-1-.02-1.05-.02-1-.02-1.04-.03-1-.03-1.58h-3.66l-.04 1.58-.02 1-.02 1.04-.03 1-.02 1.05-.03 1-.02 1.05-.02 1-.03 1.04-.02 1-.03 1.05-.02 1-.02 1.05-.03 1-.02 1.04-.03 1-.02 1.05-.02 1-.03 1.05-.02 1-.03 1.04-.02 1-.04 1.71h4.77l-.04-1.71zm-3.7.71.02-.71.02-1 .02-1.04.03-1 .02-1.05.03-1 .02-1.05.02-1 .03-1.04.02-1 .02-1.05.03-1 .02-1.05.03-1 .02-1.04.02-1 .03-1.05.02-1 .03-1.05.02-1 .02-1.04.03-1 .01-.58h1.7l.01.58.02 1 .03 1.04.02 1 .02 1.05.02 1 .02 1.05.03 1 .02 1.04.02 1 .02 1.05.02 1 .03 1.05.02 1 .02 1.04.02 1 .03 1.05.02 1 .02 1.05.02 1 .02 1.04.02 1 .02.71H30.1z"/><path class="st0" d="M15.46 17.04h-3.78l.02-1h3.73zM15.5 19.08h-3.87l.03-1h3.82zM15.54 21.13h-3.96l.03-1h3.91zM15.59 23.18h-4.05l.02-1h4.01zM15.63 25.22h-4.14l.02-1h4.1zM15.67 27.27h-4.23l.02-1h4.19zM15.72 29.32h-4.33l.03-1h4.28zM15.76 31.36h-4.42l.03-1h4.37zM15.81 33.41H11.3l.02-1h4.46zM15.85 35.46h-4.6l.02-1h4.56zM15.89 37.5H11.2l.02-1h4.65z"/><path class="st1" d="m15.89 37.5-.02-1-.02-1.04-.02-1-.02-1.05-.03-1-.02-1.05-.02-1-.02-1.04-.02-1-.03-1.05-.02-1-.02-1.05-.02-1-.02-1.04-.02-1-.03-1.05-.02-1-.02-1.05-.02-1-.02-1.04-.03-1-.03-1.58h-3.66l-.04 1.58-.02 1-.02 1.04-.03 1-.02 1.05-.03 1-.02 1.05-.02 1-.03 1.04-.02 1-.03 1.05-.02 1-.02 1.05-.03 1-.02 1.04-.03 1-.02 1.05-.02 1-.03 1.05-.02 1-.03 1.04-.02 1-.04 1.71h4.77l-.04-1.71zm-3.7.71.02-.71.02-1 .02-1.04.03-1 .02-1.05.03-1 .02-1.05.02-1 .03-1.04.02-1 .02-1.05.03-1 .02-1.05.03-1 .02-1.04.02-1 .03-1.05.02-1 .03-1.05.02-1 .02-1.04.03-1 .01-.58h1.7l.01.58.02 1 .03 1.04.02 1 .02 1.05.02 1 .02 1.05.03 1 .02 1.04.02 1 .02 1.05.02 1 .03 1.05.02 1 .02 1.04.02 1 .03 1.05.02 1 .02 1.05.02 1 .02 1.04.02 1 .02.71h-2.72zM26.29 39.2h-7.22v-6.3h7.22v6.3zm-6.22-1h5.22v-4.3h-5.22v4.3z"/><path class="st1" d="M23.63 33.57h1v5.13h-1zM21.24 33.57h1v5.13h-1zM18.42 30.71h8.55v1h-8.55zM26.29 29.16h-7.22v-6.98h7.22v6.98zm-6.22-1h5.22v-4.98h-5.22v4.98z"/><path class="st1" d="M20.49 23.82h4.37v1h-4.37zM20.49 26.51h4.37v1h-4.37z"/></svg>