<svg version="1.1" id="Layer_1" xmlns="http://www.w3.org/2000/svg" x="0" y="0" viewBox="0 0 45 45" style="enable-background:new 0 0 45 45" xml:space="preserve"><style>.st0{fill:#24a7d0}.st1{fill:#48639e}</style><path class="st1" d="M4.77 38.17h35.45v1H4.77z"/><path class="st1" d="m13.55 38.74-.99-.14 1.46-10.15-.01-2.66h3.47v1h-2.47v1.73z"/><path class="st1" d="M14.48 28.22h2.85v1h-2.85z"/><path class="st0" d="m29.28 25.08-.19-14.18h-1v1.64h-2.17V10.9h-.9v4.89h-1V9.9h2.9v1.64h.17V9.9h2.99l.2 15.17z"/><path class="st0" d="M24.52 13.71h5.09v1h-5.09zM24.13 24.95l-.59-6.89.46-.04-.04-.5h.53l.63 7.35zM18.93 25.27l-.99-.08.61-7.67h.46l.04.5.46.04z"/><path class="st0" d="M21.95 19.38h-.85c-.9 0-1.74-.36-2.37-1.01a3.23 3.23 0 0 1-.92-2.28v-.5h3.31v1.02h.81v-1.02h3.31v.5c0 .86-.33 1.67-.92 2.28-.66.67-1.49 1.01-2.37 1.01zm-3.09-2.79c.09.41.29.78.58 1.08.44.46 1.03.71 1.65.71h.85c.62 0 1.19-.24 1.61-.67.32-.33.53-.71.62-1.12h-1.26v1.02H20.1v-1.02h-1.24z"/><path class="st1" d="m37.16 39.14-28.14-.15 1.33-14.82v-2.64h2.89v1.72h.86v-1.8h2.82l.94 3.28h3.12v2.65h.58v-2.65h3.63l-.03 2.62h.67v-2.62h2.83v2.68h.6v-2.68h3.08v2.65h.22v-2.65h2.12l2.48 14.41zm-19.9-1.1 18.71.1-2.12-12.4h-.28v2.65h-2.22v-2.65h-1.08v2.68h-2.6v-2.68h-.83v2.62h-2.69l.03-2.62h-1.62v2.65h-2.58v-2.65h-2v2.5l-.72 9.8zM10.11 38l6.15.03.72-9.83v-2.89l-.81-2.85H15.1v1.8h-2.86v-1.72h-.89v1.68L10.11 38zM34.82 22.46h-3.48v-2.74h3.48v2.74zm-2.48-1h1.48v-.74h-1.48v.74z"/><path transform="matrix(0.1288 -0.9917 0.9917 0.1288 4.4472 52.2484)" class="st1" d="M30.54 23.09h2.84v1h-2.84z"/><path transform="matrix(0.9974 -0.0716 0.0716 0.9974 -1.6097 2.5069)" class="st1" d="M33.67 22.18h1v3.06h-1z"/><path class="st0" d="M19.08 34.52h14v1h-14zM19.08 31.42h14v1h-14z"/></svg>