<svg version="1.1" id="Layer_1" xmlns="http://www.w3.org/2000/svg" x="0" y="0" viewBox="0 0 45 45" style="enable-background:new 0 0 45 45" xml:space="preserve"><style>.st0{fill:#24a7d0}.st1{fill:#48639e}</style><path class="st1" d="M22 6.5h1v2.76h-1z"/><path class="st0" d="m24.61 14.24-.69-.28a3.87 3.87 0 0 0-2.84 0l-.69.28v-3.58c0-1.05.95-1.9 2.11-1.9s2.11.85 2.11 1.9v3.58zM22.5 9.76c-.61 0-1.11.4-1.11.9v2.15c.72-.17 1.51-.17 2.22 0v-2.15c0-.49-.5-.9-1.11-.9z"/><path class="st0" d="M20.09 10.74h4.81v1h-4.81zM20.4 16.01h1v7.4h-1zM23.6 16.01h1v7.4h-1z"/><path class="st1" d="M19.58 37.7h-4.29v-7.81h1v6.81h3.29zM29.71 37.7h-4.29v-1h3.29v-6.81h1zM29.71 29.89h-1V27.1H16.29v2.79h-1V26.1h14.42z"/><path class="st1" d="M14.17 27.75h16.66v1H14.17zM19.15 27.1h-2.71v-4.6h2.71v4.6zm-1.71-1h.71v-2.6h-.71v2.6zM28.56 27.1h-2.71v-4.6h2.71v4.6zm-1.71-1h.71v-2.6h-.71v2.6z"/><path class="st1" d="M26.85 27.1h-8.7V16.5c0-.11 0-.21.01-.31s.02-.19.04-.28c.21-1.27 1.14-2.35 2.5-2.88 1.11-.45 2.47-.46 3.6 0 .43.17.86.42 1.24.74.68.58 1.12 1.34 1.25 2.15.04.18.06.36.06.58v10.6zm-7.7-1h6.7v-9.6c0-.15-.01-.27-.04-.38l-.01-.03c-.09-.58-.42-1.13-.91-1.56a3.3 3.3 0 0 0-.97-.57c-.9-.37-1.97-.37-2.86 0-1.03.4-1.73 1.2-1.89 2.14-.02.08-.02.14-.03.19-.01.07-.01.14-.01.22v9.59z"/><path class="st1" d="M18.65 22.91h7.7v1h-7.7zM18.66 15.51h7.43v1h-7.43zM20.08 39.17h-5.96V36.7h5.96v2.47zm-4.97-1h3.96v-.47h-3.96v.47zM30.89 39.17h-5.96V36.7h5.96v2.47zm-4.97-1h3.96v-.47h-3.96v.47z"/><path class="st0" d="M25.92 39.17h-6.85v-5.99c0-1.67 1.54-3.02 3.42-3.02.9 0 1.75.31 2.39.86.65.55 1.03 1.34 1.03 2.16v5.99zm-5.84-1h4.85v-4.99c0-.52-.25-1.03-.68-1.4-.47-.4-1.08-.62-1.74-.62-1.34 0-2.42.91-2.42 2.02v4.99z"/><path class="st1" d="M4.77 38.17h35.45v1H4.77z"/></svg>