<svg version="1.1" id="Layer_1" xmlns="http://www.w3.org/2000/svg" x="0" y="0" viewBox="0 0 45 45" style="enable-background:new 0 0 45 45" xml:space="preserve"><style>.st0{fill:#24a7d0}.st1{fill:#48639e}</style><path class="st1" d="M4.77 38.17h35.45v1H4.77z"/><path class="st1" d="M18.55 39.17h-9.9v-9.5l.08-.12s1.44-2.22 2.71-4.17c1.76-2.69 1.9-2.88 1.98-2.96l.45-.45 4.69 7.72v9.48zm-8.9-1h7.9v-8.2l-3.81-6.28c-.43.65-1.11 1.69-1.47 2.23-1.09 1.67-2.31 3.54-2.62 4.04v8.21zm6.01-2.2h-4.02v-6.45l.06-.11 2.02-3.95 1.94 4v6.51zm-3.03-1h2.02v-5.28l-.97-1.99-1.06 2.07v5.2z"/><path class="st1" d="M15.66 35.97h-4.02v-6.45l.06-.11 2.02-3.95 1.94 4v6.51zm-3.03-1h2.02v-5.28l-.97-1.99-1.06 2.07v5.2z"/><path class="st0" d="M15.66 35.97h-4.02v-6.45l.06-.11 2.02-3.95 1.94 4v6.51zm-3.03-1h2.02v-5.28l-.97-1.99-1.06 2.07v5.2z"/><path class="st0" d="M12.13 29.12h3.02v1h-3.02z"/><path class="st0" d="M13.15 29.62h1v5.85h-1z"/><path class="st1" d="M36.41 39.17H26.5v-9.5l.08-.12s1.43-2.22 2.71-4.17c1.77-2.7 1.91-2.88 1.99-2.96l.45-.44 4.68 7.71v9.48zm-8.91-1h7.91v-8.2l-3.81-6.28c-.43.65-1.11 1.69-1.47 2.24-1.09 1.67-2.31 3.54-2.62 4.04v8.2zm6.01-2.2h-4.03v-6.45l.06-.11 2.02-3.95 1.95 4v6.51zm-3.02-1h2.03v-5.28l-.97-1.99-1.06 2.07v5.2z"/><path class="st1" d="M33.51 35.97h-4.03v-6.45l.06-.11 2.02-3.95 1.95 4v6.51zm-3.02-1h2.03v-5.28l-.97-1.99-1.06 2.07v5.2z"/><path class="st0" d="M33.51 35.97h-4.03v-6.45l.06-.11 2.02-3.95 1.95 4v6.51zm-3.02-1h2.03v-5.28l-.97-1.99-1.06 2.07v5.2z"/><path class="st0" d="M29.99 29.12h3.02v1h-3.02z"/><path class="st0" d="M31 29.62h1v5.85h-1z"/><path class="st1" d="M27.46 39.17h-9.9v-9.5l2.79-4.29c1.77-2.69 1.9-2.88 1.98-2.96l.45-.45 4.69 7.72v9.48zm-3.35-1h2.34v-8.2l-3.81-6.28c-.43.65-1.11 1.69-1.47 2.23l-2.62 4.04v8.21h2.58v-.83a1.494 1.494 0 0 1 2.55-1.05c.28.28.43.65.43 1.05v.83zm-1.97-.04h.98v-.79c0-.17-.08-.28-.14-.35-.28-.28-.83-.06-.83.35v.79z"/><path class="st1" d="M24.11 39.13h-2.98v-1.79a1.494 1.494 0 0 1 2.55-1.05c.28.28.43.65.43 1.05v1.79zm-1.97-1h.98v-.79c0-.17-.08-.28-.14-.35-.28-.28-.83-.05-.83.35v.79z"/><path class="st1" d="M24.11 39.13h-2.98v-1.79a1.494 1.494 0 0 1 2.55-1.05c.28.28.43.65.43 1.05v1.79zm-1.97-1h.98v-.79c0-.17-.08-.28-.14-.35-.28-.28-.83-.06-.83.35v.79zM24.42 25.15h5.29v1h-5.29zM15.46 25.15h3.99v1h-3.99z"/><path class="st0" d="M25.74 35.47H19.5v-5.1a3.109 3.109 0 0 1 1.84-2.84c.84-.38 1.84-.36 2.65.04.3.15.58.35.83.6.44.43.73.98.85 1.59.04.2.06.41.06.61v5.1zm-5.23-1h4.24v-4.1a2.084 2.084 0 0 0-.62-1.5 2.101 2.101 0 0 0-2.37-.44c-.62.28-1.08.85-1.21 1.51-.02.13-.04.27-.04.42v4.11z"/><path class="st0" d="M25.74 35.47H19.5v-5.1a3.109 3.109 0 0 1 1.84-2.84c.85-.38 1.84-.36 2.65.04.3.15.58.35.83.6a3.092 3.092 0 0 1 .91 2.2v5.1zm-5.23-1h4.24v-4.1c0-.14-.01-.28-.04-.42-.08-.41-.28-.78-.58-1.07a2.101 2.101 0 0 0-2.37-.44c-.62.28-1.07.85-1.21 1.51-.02.13-.04.27-.04.42v4.1z"/><path class="st0" d="M20.01 31.05h5.24v1h-5.24z"/><path class="st0" d="M21.31 28.01h1v6.96h-1zM22.94 27.9h1v7.07h-1z"/><path class="st1" d="M38.54 39.13h-3.13v-13.6l1.57-2.85 1.56 2.85v13.6zm-2.13-1h1.13V25.78l-.57-1.03-.57 1.03v12.35z"/><path class="st1" d="M35.91 25.15h2.13v1h-2.13zM9.65 39.13H6.51v-13.6l1.57-2.85 1.56 2.85v13.6zm-2.14-1h1.13V25.78l-.57-1.03-.57 1.03v12.35zM15.52 25.15h.14v1h-.14z"/><path class="st1" d="M7.01 25.15h4.84v1H7.01zM33.37 25.15h2.7v1h-2.7zM27.43 25.15h2.28v1h-2.28zM26.06 26.15h-1.93l-1.49-2.46c-.43.65-1.11 1.69-1.47 2.23l-.15.23h-2.08l.03-5.91 3.53-9.04 3.56 9.22v5.73zm-1.36-1h.36v-4.63l-2.56-6.56-2.56 6.56v4.63h.54c1.62-2.48 1.76-2.65 1.83-2.73l.45-.45 1.94 3.18z"/><path class="st1" d="M19.44 19.93h6.12v1h-6.12z"/></svg>