<svg version="1.1" id="Layer_1" xmlns="http://www.w3.org/2000/svg" x="0" y="0" viewBox="0 0 45 45" style="enable-background:new 0 0 45 45" xml:space="preserve"><style>.st0{fill:#24a7d0}.st1{fill:#48639e}</style><path class="st1" d="M4.77 38.17h35.45v1H4.77z"/><path class="st0" d="M31.97 37.41h-2.95v-6.55c0-.81.66-1.47 1.47-1.47s1.47.66 1.47 1.47v6.55zm-1.95-1h.95v-5.55a.47.47 0 1 0-.94 0v5.55z"/><path class="st1" d="M25.57 39.14h-4.42v-4.03l2.2-3.45 2.22 3.35v4.13zm-3.41-1h2.42v-2.83l-1.2-1.82-1.22 1.91v2.74z"/><path d="m16.95 25.63-.54-.59-2.84 5.87v7.73h5.33V27.75l-1.95-2.12zm.41 11.28h-1.94v-6.04c0-.54.43-.98.97-.98.21 0 .41.07.56.19.25.17.41.46.41.79v6.04z" style="fill:none;stroke:#48639e;stroke-miterlimit:10"/><path class="st1" d="M33.66 39.14h-6.33V27.56l3.12-3.4 3.21 6.75v8.23zm-5.33-1h4.33v-7.11l-2.47-5.11-1.86 2.03v10.19z"/><path class="st1" d="M28.33 39.14H18.4v-14.6h1.66v-.65l3.39-4.86.49.5 2.73 3.98v1.02h1.66v14.61zm-8.93-1h7.93v-12.6h-1.66v-1.71l-2.15-3.14-2.46 3.52v1.33H19.4v12.6z"/><path class="st0" d="M25.04 26.96H22.1v-2.72c0-.81.66-1.47 1.47-1.47s1.47.66 1.47 1.47v2.72zm-1.94-1h.95v-1.72a.47.47 0 1 0-.94 0v1.72zM17.86 37.41h-2.94v-6.54c0-.82.66-1.48 1.47-1.48.32 0 .63.11.87.3.36.25.6.7.6 1.18v6.54zm-1.94-1h.94v-5.54c0-.15-.07-.29-.19-.38-.36-.28-.75.02-.75.38v5.54zM15.87 23.08h-2.95v-4.07c0-.81.66-1.47 1.47-1.47s1.47.66 1.47 1.47v4.07zm-1.95-1h.95v-3.07a.47.47 0 1 0-.94 0v3.07z"/><path class="st1" d="M18.74 29.58h8.93v1h-8.93zM23.03 16.65h1v3.36h-1z"/><path class="st1" d="M22.22 17.54h2.62v1h-2.62zM13.57 39.14h-2.23l.02-20.68L14.4 8.45l3.05 10.15v7.03h-1v-6.96l-2.05-6.78-2.06 6.78v19.47h1.23zM18.9 27.88h8.77v1H18.9z"/></svg>