<svg version="1.1" id="Layer_1" xmlns="http://www.w3.org/2000/svg" x="0" y="0" viewBox="0 0 45 45" style="enable-background:new 0 0 45 45" xml:space="preserve"><style>.st0{fill:#24a7d0}.st1{fill:#48639e}</style><path class="st1" d="M4.77 38.17h35.45v1H4.77z"/><path class="st0" d="M13.81 27.13h3.86v1h-3.86zM13.81 29.49h3.86v1h-3.86zM13.81 32.43h3.86v1h-3.86zM23.93 23.29h1v9.87h-1zM26.9 23.29h1v9.87h-1z"/><path class="st1" d="M31.16 38.67h-1V20.43l-8.38-3.54v21.78h-1V15.39l10.38 4.38z"/><path transform="matrix(0.3738 -0.9275 0.9275 0.3738 -2.9412 37.0504)" class="st1" d="M25.47 13.79h1v13.83h-1z"/><path transform="matrix(0.3738 -0.9275 0.9275 0.3738 -0.3864 35.664)" class="st1" d="M25.72 11.2h1v13.83h-1z"/><path class="st1" d="M14.56 38.67h-1V25.45c0-.57.33-1.1.84-1.35l6.65-3.24.44.9L14.84 25a.5.5 0 0 0-.28.45v13.22zM17.17 35.33h1v3.34h-1zM23.93 35.33h1v3.34h-1zM26.9 35.33h1v3.34h-1z"/></svg>