<svg version="1.1" id="Layer_1" xmlns="http://www.w3.org/2000/svg" x="0" y="0" viewBox="0 0 45 45" style="enable-background:new 0 0 45 45" xml:space="preserve"><style>.st0{fill:#24a7d0}.st1{fill:#48639e}</style><path class="st0" d="M25.97 39.12h-6.66v-8.08c0-1.84 1.49-3.33 3.33-3.33.89 0 1.72.35 2.35.98.63.63.98 1.47.98 2.35v8.08zm-5.66-1h4.66v-7.08a2.322 2.322 0 0 0-2.33-2.33c-1.28 0-2.33 1.04-2.33 2.33v7.08z"/><path class="st0" d="M22.09 28.21h1v10.44h-1z"/><path class="st0" d="M19.81 31.24h5.94v1h-5.94zM19.81 34.71h5.94v1h-5.94z"/><path class="st1" d="M4.77 38.17h35.45v1H4.77z"/><path class="st1" d="M33.59 39.12h-6.75V15.11l.18-.15c.82-.68 2.47-2.07 2.84-2.44l.33-.33 3.41 2.92v24.01zm-5.75-1h4.75V15.57l-2.37-2.03c-.67.6-1.91 1.64-2.38 2.03v22.55z"/><path class="st1" d="M27.84 39.12H17.77v-1h9.07V14.84h6.25v1h-5.25z"/><path class="st1" d="M18.27 39.12h-6.75V15.11l.18-.15c.82-.68 2.47-2.07 2.84-2.44l.33-.33 3.41 2.92v24.01zm-5.75-1h4.75V15.57l-2.37-2.03c-.67.6-1.91 1.64-2.38 2.03v22.55z"/><path class="st1" d="M17.98 15.84h-5.96v-1h5.54l4.94-5.06 5.19 5.21-.7.7-4.49-4.49z"/><path class="st0" d="M16.37 23.45h-2.95v-4.07c0-.81.66-1.47 1.47-1.47s1.47.66 1.47 1.47v4.07zm-1.95-1h.95v-3.07a.47.47 0 1 0-.94 0v3.07zM16.37 32.39h-2.95v-4.07c0-.81.66-1.47 1.47-1.47s1.47.66 1.47 1.47v4.07zm-1.95-1h.95v-3.07a.47.47 0 1 0-.94 0v3.07zM31.69 23.45h-2.95v-4.07c0-.81.66-1.47 1.47-1.47s1.47.66 1.47 1.47v4.07zm-1.95-1h.95v-3.07a.47.47 0 1 0-.94 0v3.07zM31.69 32.39h-2.95v-4.07c0-.81.66-1.47 1.47-1.47s1.47.66 1.47 1.47v4.07zm-1.95-1h.95v-3.07a.47.47 0 1 0-.94 0v3.07z"/><path class="st1" d="M22 7.23h1v3.36h-1z"/><path class="st1" d="M21.19 8.12h2.62v1h-2.62zM22.5 23.44c-2.15 0-3.9-1.75-3.9-3.9s1.75-3.9 3.9-3.9 3.9 1.75 3.9 3.9-1.75 3.9-3.9 3.9zm0-6.81c-1.6 0-2.9 1.3-2.9 2.9s1.3 2.9 2.9 2.9 2.9-1.3 2.9-2.9-1.3-2.9-2.9-2.9z"/><path class="st1" d="M22.5 21.78c-1.24 0-2.24-1.01-2.24-2.24s1.01-2.24 2.24-2.24 2.24 1.01 2.24 2.24-1 2.24-2.24 2.24zm0-3.49a1.24 1.24 0 1 0 0 2.48 1.24 1.24 0 0 0 0-2.48z"/></svg>