<svg version="1.1" id="Layer_1" xmlns="http://www.w3.org/2000/svg" x="0" y="0" viewBox="0 0 45 45" style="enable-background:new 0 0 45 45" xml:space="preserve"><style>.st0{fill:#48639e}</style><path class="st0" d="M4.77 38.17h35.45v1H4.77zM24.77 15.54v-2.18c0-1.09-.77-2-1.8-2.22V6.37h-1v4.74c-1.13.13-2 1.09-2 2.25v2.28l-1.89 1.98 1.89 1.92v2.45c0 .67.29 1.27.75 1.68v10.21l.07-.41h3.28l.07.42V23.55c.4-.41.63-.95.63-1.56v-2.11l2.15-2.43-2.15-1.91zm-2.54-3.45h.27c.49 0 .91.27 1.12.68h-2.5c.21-.41.63-.68 1.11-.68zm-1.26 1.68h2.8v1.5h-2.8v-1.5zm2.17 19.63h-1.42v-9.2c.16.04.33.06.51.06h.27c.22 0 .44-.03.64-.09v9.23zm.63-11.41c0 .47-.25.87-.63 1.09-.19.12-.41.18-.64.18h-.27a1.272 1.272 0 0 1-1.26-1.27v-2.03h2.8v2.03zm.49-3.03-3.51-.06-.78-.79-.49-.5.47-.5.69-.72h3.58l.81.72.48.43-.5.57-.75.85z"/><path class="st0" d="m24.14 33.89-.07-.42h-3.28l-.07.41-.79 4.66.98.17.19-1.1 2.64-.02.19 1.12.99-.17-.78-4.65zm-2.87 2.72.37-2.14h1.58l.36 2.12-2.31.02z"/><path style="fill:#24a7d0" d="m25.51 17.54-.5.57h-5.04l-.49-.5.47-.5h5.08z"/></svg>