<svg version="1.1" id="Layer_1" xmlns="http://www.w3.org/2000/svg" x="0" y="0" viewBox="0 0 45 45" style="enable-background:new 0 0 45 45" xml:space="preserve"><style>.st0{fill:#48639e}.st1{fill:#24a7d0}</style><path class="st0" d="M4.77 38.17h35.45v1H4.77zM17.07 21.02H28.1v1H17.07zM22.07 10.17h1v4.19h-1z"/><path class="st0" d="M20.92 11.25h3.29v1h-3.29zM15.98 31.05h5.76v1h-5.76zM23.97 31.05h5.18v1h-5.18z"/><path class="st1" d="M22.88 28.63c-1.57 0-2.84-1.28-2.84-2.84s1.28-2.84 2.84-2.84 2.84 1.28 2.84 2.84-1.27 2.84-2.84 2.84zm0-4.69c-1.02 0-1.84.83-1.84 1.84s.83 1.84 1.84 1.84 1.84-.83 1.84-1.84-.82-1.84-1.84-1.84z"/><path class="st0" d="M26.35 28.1h1v2.25h-1zM18.48 28.1h1v2.25h-1zM35.82 38.99h-6.98v-1h5.98v-7.88l-5.9-3.15.47-.89 6.43 3.44zM16.16 38.99H9.18v-9.48l6.43-3.44.47.89-5.9 3.15v7.88h5.98z"/><path class="st1" d="M12.42 30.15h1v6.6h-1zM31.94 30.15h1v6.6h-1zM25.41 38.49h-1v-5.33l-1.53-1.94-1.53 1.94v5.33h-1v-5.67l2.24-2.84h.59l2.23 2.84z"/><path class="st0" d="M29.65 39.02H15.48V22.66l7.12-9.11 7.04 9.17v16.3zm-13.17-1h12.17V23.05l-6.05-7.88L16.48 23v15.02z"/></svg>