<svg version="1.1" id="Layer_1" xmlns="http://www.w3.org/2000/svg" x="0" y="0" viewBox="0 0 45 45" style="enable-background:new 0 0 45 45" xml:space="preserve"><style>.st0{fill:#48639e}.st1{fill:#24a7d0}</style><path class="st0" d="M4.77 38.17h35.45v1H4.77z"/><path class="st1" d="M27.77 20.54h-1v-4.37c0-2.24-1.82-4.06-4.06-4.06-2.24 0-4.06 1.82-4.06 4.06v4.37h-1v-4.37c0-2.79 2.27-5.06 5.06-5.06s5.06 2.27 5.06 5.06v4.37z"/><path class="st1" d="M18.18 15.16h9.09v1h-9.09z"/><path class="st0" d="M28.84 39.15h-12.5V23.79h12.5v15.36zm-11.5-1h10.5V24.79h-10.5v13.36z"/><path class="st0" d="M17.09 39.15h-3.12v-2.01l3.28-3.39-.16 5.4zm-2.12-1h1.15l.06-1.85-1.2 1.24v.61zM31.03 39.15h-3.14l.08-5.17 3.06 3.16v2.01zm-2.12-1h1.13v-.61l-1.1-1.14-.03 1.75zM25.35 39.15h-4.88v-6.43h4.88v6.43zm-3.88-1h2.88v-4.43h-2.88v4.43z"/><path class="st1" d="M25.67 25.71h1v5.47h-1zM18.72 25.71h1v5.47h-1z"/><path class="st0" d="M30.52 24.79H14.74v-4.82h15.78v4.82zm-14.78-1h13.78v-2.82H15.74v2.82z"/><path class="st0" d="M25.67 20.54h1v3.75h-1zM22.21 20.54h1v3.75h-1zM18.53 20.54h1v3.75h-1z"/></svg>