<svg version="1.1" id="Layer_1" xmlns="http://www.w3.org/2000/svg" x="0" y="0" viewBox="0 0 45 45" style="enable-background:new 0 0 45 45" xml:space="preserve"><style>.st0{fill:#48639e}.st1{fill:#24a7d0}</style><path class="st1" d="M25.27 13.33h-5.81c-.28 0-.5-.22-.5-.5V8.66c0-.1.03-.19.08-.27l3.01-4.68c.09-.14.25-.23.42-.23h.01c.17 0 .33.1.42.24l2.8 4.68c.05.08.07.17.07.26v4.17c0 .28-.22.5-.5.5zm-5.31-1h4.81V8.8l-2.31-3.87-2.5 3.88v3.52z"/><path class="st1" d="M25.12 9.13h-5.49c-.28 0-.5-.22-.5-.5s.22-.5.5-.5h5.49c.28 0 .5.22.5.5s-.23.5-.5.5z"/><path class="st0" d="M36.47 23.44H8.53l4.6-4h18.5l4.84 4zm-25.27-1h22.48l-2.42-2H13.5l-2.3 2z"/><path class="st0" d="M10.9 23.38h1v15.29h-1zM32.79 23.38h1v15.83h-1z"/><path class="st1" d="M26.01 38.96c-.28 0-.5-.22-.5-.5v-9.78l-3.04-2.11-3.11 2.14v9.74c0 .28-.22.5-.5.5s-.5-.22-.5-.5v-9.99c0-.16.08-.32.22-.41l3.61-2.49c.17-.12.4-.12.57 0l3.54 2.46c.13.09.21.25.21.41v10.04c0 .27-.22.49-.5.49zM31.06 36.52h-2.49c-.28 0-.5-.22-.5-.5v-3.75c0-.96.78-1.75 1.75-1.75s1.74.78 1.74 1.75v3.75c0 .28-.23.5-.5.5zm-1.99-1h1.49v-3.25c0-.41-.33-.75-.74-.75s-.75.33-.75.75v3.25zM16.21 36.52h-2.49c-.28 0-.5-.22-.5-.5v-3.75c0-.96.78-1.75 1.75-1.75s1.75.78 1.75 1.75v3.75c-.01.28-.24.5-.51.5zm-2-1h1.49v-3.25c0-.41-.33-.75-.75-.75s-.75.33-.75.75v3.25zM14.94 29.79c-1.03 0-1.87-.84-1.87-1.87 0-1.03.84-1.87 1.87-1.87 1.03 0 1.87.84 1.87 1.87 0 1.03-.84 1.87-1.87 1.87zm0-2.75a.87.87 0 1 0 .001 1.741.87.87 0 0 0-.001-1.741zM29.81 29.79c-1.03 0-1.87-.84-1.87-1.87 0-1.03.84-1.87 1.87-1.87s1.87.84 1.87 1.87c0 1.03-.84 1.87-1.87 1.87zm0-2.75a.87.87 0 1 0 .001 1.741.87.87 0 0 0-.001-1.741z"/><path class="st0" d="M26.66 20.44h-8.53v-6.19h8.53v6.19zm-7.53-1h6.53v-4.19h-6.53v4.19z"/><path class="st0" d="M27.73 15.24H17.07v-2.92h10.66v2.92zm-9.66-1h8.66v-.92h-8.66v.92zM4.77 38.17h35.45v1H4.77z"/></svg>