<svg version="1.1" id="Layer_1" xmlns="http://www.w3.org/2000/svg" x="0" y="0" viewBox="0 0 45 45" style="enable-background:new 0 0 45 45" xml:space="preserve"><style>.st0{fill:#48639e}.st1{fill:#24a7d0}</style><path class="st0" d="m39.15 38.78-1.83-8.13h-5.46v-1h6.26l2.01 8.91zM5.75 38.78l-.98-.22 2.01-8.91h6.26v1H7.58z"/><path class="st0" d="M2.16 38.17h40.57v1H2.16z"/><path class="st1" d="M27.9 39.17H16.99V26.59c0-3.01 2.45-5.46 5.46-5.46s5.46 2.45 5.46 5.46v12.58zm-9.91-1h8.91V26.59c0-2.46-2-4.46-4.46-4.46s-4.46 2-4.46 4.46v11.58z"/><path class="st0" d="M32.46 39.17H12.54V18.13l9.96-3.03 9.73 2.98.23 21.09zm-18.92-1h17.9l-.21-19.35-8.74-2.68-8.95 2.72v19.31z"/><path class="st0" d="M14.44 19.48h5.74v1h-5.74zM24.54 19.31h5.71v1h-5.71z"/><path class="st1" d="M29.23 23.16h1v9.54h-1zM14.55 23.16h1v9.54h-1z"/><path transform="matrix(0.9611 -0.2762 0.2762 0.9611 -8.1032 11.0806)" class="st0" d="M34.79 31.42h1v5.78h-1z"/><path transform="matrix(0.2755 -0.9613 0.9613 0.2755 -26.3502 33.6547)" class="st0" d="M6.26 33.81h5.78v1H6.26z"/></svg>