<svg version="1.1" id="Layer_1" xmlns="http://www.w3.org/2000/svg" x="0" y="0" viewBox="0 0 45 45" style="enable-background:new 0 0 45 45" xml:space="preserve"><style>.st0{fill:#48639e}.st1{fill:#24a7d0}</style><path class="st0" d="M16.66 39.17H9.39v-12h7.27v12zm-6.27-1h5.27v-10h-5.27v10z"/><path class="st0" d="M16.49 28.17H9.55L8 24.46h10.05l-1.56 3.71zm-6.27-1h5.61l.72-1.71H9.5l.72 1.71z"/><path class="st0" d="M16.66 25.47H9.39v-6.73l3.64-7.19 3.64 7.19v6.73zm-6.27-1h5.27v-5.49l-2.64-5.21-2.64 5.21v5.49z"/><path class="st0" d="M9.89 18.32h6.27v1H9.89zM35.61 39.17h-7.27v-12h7.27v12zm-6.27-1h5.27v-10h-5.27v10z"/><path class="st0" d="M35.45 28.17h-6.93l-1.56-3.71H37l-1.55 3.71zm-6.28-1h5.61l.72-1.71h-7.04l.71 1.71z"/><path class="st0" d="M35.62 25.47h-7.27v-6.73l3.64-7.19 3.64 7.19v6.73zm-6.28-1h5.27v-5.49l-2.64-5.21-2.64 5.21v5.49z"/><path class="st0" d="M28.84 18.32h6.27v1h-6.27zM16.56 22.26l-.8-.59 7.38-9.89 6.13 9.87-.85.53-5.36-8.63z"/><path class="st1" d="M26.91 39.17h-8.16v-7.92c0-2.25 1.83-4.08 4.08-4.08s4.08 1.83 4.08 4.08v7.92zm-7.16-1h6.16v-6.92c0-1.7-1.38-3.08-3.08-3.08s-3.08 1.38-3.08 3.08v6.92zM22.83 25.54c-1.97 0-3.58-1.61-3.58-3.58s1.61-3.58 3.58-3.58 3.58 1.61 3.58 3.58-1.61 3.58-3.58 3.58zm0-6.15c-1.42 0-2.58 1.16-2.58 2.58 0 1.42 1.16 2.58 2.58 2.58s2.58-1.16 2.58-2.58a2.58 2.58 0 0 0-2.58-2.58z"/><path class="st0" d="M4.77 38.17h35.45v1H4.77z"/></svg>