<svg version="1.1" id="Layer_1" xmlns="http://www.w3.org/2000/svg" x="0" y="0" viewBox="0 0 45 45" style="enable-background:new 0 0 45 45" xml:space="preserve"><style>.st0{fill:#48639e}.st1{fill:#24a7d0}</style><path class="st1" d="M36.36 39.17H8.87v-9.05h27.49v9.05zm-26.49-1h25.49v-7.05H9.87v7.05z"/><path class="st0" d="M37.7 31.12H7.3v-3.23h30.4v3.23zm-29.4-1h28.4v-1.23H8.3v1.23z"/><path class="st0" d="M34.22 28.89H10.69v-3.65h23.53v3.65zm-22.53-1h21.53v-1.65H11.69v1.65z"/><path class="st0" d="M32.05 26.24H13.18v-4.03h18.87v4.03zm-17.87-1h16.87v-2.03H14.18v2.03z"/><path class="st0" d="M29.88 23.21H15.31v-4h14.56v4zm-13.57-1h12.56v-2H16.31v2z"/><path class="st0" d="M29.14 20.21h-12.9v-2.85h12.9v2.85zm-11.9-1h10.9v-.85h-10.9v.85z"/><path class="st1" d="M18.11 15.1h1v1.66h-1zM22 15.1h1v1.66h-1zM25.89 15.1h1v1.66h-1zM22.19 10.42h1v3.57h-1zM22.19 8.49h1v1.4h-1z"/><path class="st0" d="M30.13 18.36H15.31V13.5h14.82v4.86zm-13.82-1h12.82V14.5H16.31v2.86z"/><path class="st1" d="M12.69 32.03h1v5.23h-1zM17.16 32.03h1v5.23h-1zM21.63 32.03h1v5.23h-1zM26.1 32.03h1v5.23h-1zM30.56 32.03h1v5.23h-1z"/><path class="st0" d="M4.77 38.17h35.45v1H4.77z"/></svg>