<?xml version="1.0" encoding="utf-8"?>
<!-- Generator: Adobe Illustrator 27.5.0, SVG Export Plug-In . SVG Version: 6.00 Build 0)  -->
<svg version="1.1" id="Layer_1" xmlns="http://www.w3.org/2000/svg" xmlns:xlink="http://www.w3.org/1999/xlink" x="0px" y="0px"
	 viewBox="0 0 3000 2000" style="enable-background:new 0 0 3000 2000;" xml:space="preserve">
<rect style="fill:#FFFFFF;" width="3000" height="2000"/>
<g>
	<g>
		<g>
			<path style="fill:#223247;" d="M931.01,293.981c0,0-16.098-35.221-48.635-19.79c-32.533,15.428-27.17,62.157-15.093,81.893
				c12.074,19.739,55.261,48.919,41.215,84.474c-14.045,35.555-31.823,63.059-31.823,63.059s87.207-3.942,96.936-50.271
				C983.336,407.016,931.01,293.981,931.01,293.981z"/>
		</g>
		<path style="fill:#F08D29;" d="M1105.075,711.658c-2.643-12.914-4.704-12.479-6.162-31.131
			c-1.457-18.657-3.322-107.794-3.76-118.762c-0.438-10.971-2.543-62.625-14.372-84.221c-12.084-22.06-51.29-35.398-51.29-35.398
			s20.275,108.195,20.049,130.673c-0.069,6.764,2.091,19.067,5.217,33.231c0.024,0.11,0.046,0.223,0.069,0.336
			c0.656,3.121,0.679,5.789,0.383,8.218c-0.994,8.084-5.597,13.489-2.77,24.101l-0.058,5.665c0.28,1.059,0.564,2.126,0.844,3.196
			c3.986,15.302,7.673,31.619,9.396,38.936c0.36,1.52,0.637,2.653,0.809,3.306c2.64,9.894-0.583,4.63,4.102,29.408
			C1067.535,719.216,1110.174,736.547,1105.075,711.658z"/>
		<path style="fill:#8E4F3A;" d="M883.364,782.219c0,0-33.523,43.588-42.619,95.3c-9.093,51.712,5.371,225.273,4.976,250.831
			c-0.395,25.557-24.174,89.158-19.417,137.303c4.753,48.146,44.419,290.525,44.419,290.525l31.221-5.755
			c0,0-3.721-251.485-0.748-271.694c2.973-20.209,8.936-93.873,10.125-102.194c1.189-8.321,75.468-226.829,75.468-264.112
			S964.203,721.393,883.364,782.219z"/>
		<path style="fill:#8E4F3A;" d="M1051.774,799.259c0,0,55.081,210.215,61.618,239.339c6.538,29.125,16.01,53.145,16.01,65.512
			c0,28.691,11.118,83.964,11.118,83.964l60.006,338.864h-34.394c0,0-85.082-221.528-94.654-271.741
			c-7.37-38.646-8.77-87.184-14.717-103.827c-5.943-16.643-106.827-198.363-106.827-198.363S881.979,738.233,1051.774,799.259z"/>
		<path style="fill:#292C47;" d="M1129.402,1104.109c0,0-127.398,54.697-317.082,54.697c0,0,8.321-247.122,35.898-309.016
			c27.577-61.894,207.949-34.049,207.949-34.049S1129.402,1052.252,1129.402,1104.109z"/>
		<g>
			<path style="fill:#F08D29;" d="M1071.51,594.405c-14.287,33.09-0.813,44.129-7.343,77.219
				c-6.545,33.09-6.533,123.309-5.317,141.695c1.239,18.377-179.198,64.321-217.188,30.818c0,0,9.883-34.605,22.359-71.533
				c1.546-4.559,3.127-9.162,4.734-13.733c6.192-17.632,12.775-34.874,18.945-48.246c3.994-8.657,6.096-47.173,1.6-58.616
				c-1.734-4.416-10.351-19.852-20.256-37.133c-4.147-7.203-8.509-14.744-12.699-21.925c-11.793-20.234-22.183-37.763-22.183-37.763
				s-10.485-85.185,11.617-102.342c7.554-5.862,21.266-10.464,35.698-14.095c5.417-1.353,10.958-2.571,16.294-3.664
				c16.601-3.436,31.375-5.663,35.698-7.161c9.388-3.271,36.723-4.694,55.932-1.836c0,0,29.407,13.888,39.62,15.931
				c10.216,2.042,49.847,53.529,56.792,72.308C1092.767,533.129,1085.812,561.317,1071.51,594.405z"/>
		</g>
		<g>
			<path style="fill:#8E4F3A;" d="M1003.442,392.155c0,0-0.74,6.766-1.626,16.309c-0.41,4.341-0.856,9.277-1.301,14.389
				c-1.239,15.304-2.301,32.322-1.71,40.832c0,0-30.581,30.607-65.324-35.75c0,0,14.625-27.358,3.602-64.645
				C926.064,326.002,1003.442,392.155,1003.442,392.155z"/>
		</g>
		<path style="fill:#8E4F3A;" d="M909.982,432.638c0,0,36.995,60.063,78.755,57.534c57.8-3.496,27.366-52.437,27.366-52.437
			s-14.387-8.25-18.438-9.029c-4.048-0.779-63.824-1.537-63.824-1.537L909.982,432.638z"/>
		<g>
			<path style="fill:#F08D29;" d="M887.304,443.919c0,0-38.545-6.66-59.596,27.632c-24.089,39.244-23.69,57.3-27.404,77.104
				c-3.51,18.701-15.023,48.81-16.482,54.06c-1.458,5.252-29.422,58.766-17.84,81.436c11.64,22.787,121.697,39.52,122.998,44.317
				c0.825,3.054,13.014-38.649,13.014-38.649s-16.179-3.44-31.797-8.6c-18.998-6.275-38.05-18.275-35.438-28.023
				c5.751-21.481,25.156-70.53,30.516-80.722C870.631,562.282,917.942,458.561,887.304,443.919z"/>
		</g>
		<path style="fill:#51578C;" d="M1171.293,1523.341c0,0,12.004-10.678,17.997-11.94c5.996-1.262,11.674-0.946,14.199,1.894
			c2.524,2.839,9.798,14.195,13.731,17.665c3.932,3.472,32.012,30.602,38.638,32.495c6.625,1.893,35.334,0.316,33.753,17.036
			c-1.577,16.719-24.922,23.976-66.563,20.188c-41.645-3.784-36.596-13.563-59.941-18.612c-23.345-5.047-24.922-16.72-20.821-30.916
			c4.102-14.197,20.636-28.321,18.925-32.105C1159.503,1515.263,1171.293,1523.341,1171.293,1523.341z"/>
		<path style="fill:#51578C;" d="M877.08,1553.62c0,0,13.297-6.035,22.156-5.721c8.858,0.318,7.907,5.745,10.125,9.043
			c2.213,3.298,23.096,34.935,28.789,40.63c5.693,5.693,25.942,11.705,23.096,25.943c-2.847,14.237-28.475,19.931-60.11,15.818
			c-31.64-4.113-47.143-33.535-52.203-40.18c-5.064-6.643,12.02-49.354,17.084-52.36
			C871.076,1543.787,877.08,1553.62,877.08,1553.62z"/>
		<path style="fill:#C9B9B3;" d="M1086.046,551.824c0,0-8.429,30.174-15.334,45.136c-6.91,14.964-5.728,33.379-5.184,44.603
			c0.549,11.222,0.257,24.419-3.322,43.141c0,0,0.518,15.912,3.648,15.784C1065.854,700.488,1080.468,660.443,1086.046,551.824z"/>
		<g>
			<path style="fill:#51578C;" d="M906.176,276.322c0,0-18.112,9.056-17.107,35.553c1.005,26.498,26.979,46.951,38.238,41.561
				C938.567,348.043,906.176,276.322,906.176,276.322z"/>
		</g>
		<g>
			<path style="fill:#8E4F3A;" d="M1020.887,236.071c0,0,35.219,23.144,32.204,72.115c-3.019,48.971-19.454,97.942-29.518,102.302
				c-10.063,4.362-52.898-11.605-61.388-16.104c-9.618-5.091-26.268-23.586-29.622-29.289c-3.357-5.701-38.799-83.407-4.585-112.924
				C962.188,222.653,979.967,221.313,1020.887,236.071z"/>
		</g>
		<g>
			<path style="fill:#223247;" d="M992.712,294.434c0,0,30.205,11.101,60.552,8.402c0,0,9.886-86.555-76.819-86.555
				c-86.705,0-73.96,86.538-72.283,98.278c1.677,11.739,17.567,53.904,36.136,63.672c0,0-6.618-44.553,5.793-52.602
				C958.502,317.578,986.339,307.85,992.712,294.434z"/>
		</g>
		<g>
			<path style="fill:#8E4F3A;" d="M963.869,316.237c-1.769-9.85-11.072-19.119-21.803-9.058
				c-10.735,10.063,7.377,35.219,15.093,33.878C964.875,339.716,966.217,329.317,963.869,316.237z"/>
		</g>
		<g>
			<path style="fill:#C44747;" d="M1049.423,628.241H881.649c-0.964,0-1.745-0.781-1.745-1.745v-35.101
				c0-0.964,0.781-1.745,1.745-1.745h167.774V628.241z"/>
			<path style="fill:#E68E35;" d="M1027.413,666.833H859.639c-0.964,0-1.745-0.781-1.745-1.745v-35.101
				c0-0.964,0.781-1.745,1.745-1.745h167.774V666.833z"/>
			<path style="fill:#58A668;" d="M1049.423,705.424H881.649c-0.964,0-1.745-0.781-1.745-1.745v-35.101
				c0-0.964,0.781-1.745,1.745-1.745h167.774V705.424z"/>
			<path style="fill:#E55353;" d="M1122.8,628.241H955.029c-0.964,0-1.745-0.781-1.745-1.745v-35.101
				c0-0.964,0.781-1.745,1.745-1.745H1122.8V628.241z"/>
			<path style="fill:#FAE6DE;" d="M1122.8,624.021H959.664c-0.964,0-1.745-0.781-1.745-1.745v-26.663
				c0-0.964,0.781-1.745,1.745-1.745H1122.8V624.021z"/>
			<path style="fill:#5084C7;" d="M1112.979,589.65H887.836c-1.116,0-2.021-0.905-2.021-2.021v-34.552
				c0-1.116,0.904-2.021,2.021-2.021h225.142V589.65z"/>
			<path style="fill:#5E9BEB;" d="M1112.979,589.65h-94.824c-0.726,0-1.314-0.588-1.314-1.314v-35.964
				c0-0.725,0.588-1.314,1.314-1.314h94.824V589.65z"/>
			<path style="fill:#FAE6DE;" d="M1112.979,585.43h-92.193c-0.726,0-1.313-0.588-1.313-1.313v-27.525
				c0-0.726,0.588-1.314,1.314-1.314h92.193V585.43z"/>
			<path style="fill:#FAA146;" d="M1100.79,666.833h-167.77c-0.964,0-1.745-0.781-1.745-1.745v-35.101
				c0-0.964,0.781-1.745,1.745-1.745h167.77V666.833z"/>
			<path style="fill:#6DBD7D;" d="M1122.8,705.424H955.029c-0.964,0-1.745-0.781-1.745-1.745v-35.101
				c0-0.964,0.781-1.745,1.745-1.745H1122.8V705.424z"/>
			<path style="fill:#FAE6DE;" d="M1100.79,662.86H937.654c-0.963,0-1.745-0.781-1.745-1.745v-27.158
				c0-0.964,0.781-1.745,1.745-1.745h163.136V662.86z"/>
			<path style="fill:#FAE6DE;" d="M1122.8,700.885H959.664c-0.964,0-1.745-0.781-1.745-1.745v-26.024
				c0-0.964,0.781-1.745,1.745-1.745H1122.8V700.885z"/>
		</g>
		<g>
			<path style="fill:#8E4F3A;" d="M888.083,693.78c0,0-14.514,7.692-10.409,13.228c4.109,5.534,10.244,12.208,10.244,12.208
				L888.083,693.78z"/>
			<path style="fill:#8E4F3A;" d="M1007.459,706.064l-68.996-7.257c6.3-2.908,16.532-8.214,14.671-11.26
				c-2.655-4.349-23.065,2.676-31.091,2.722c-7.351,0.044-17.011,4.165-18.584,4.856l-16.965-1.784l1.423,25.875
				c0,0,36.19,7.744,46.687,9.505c17.068,2.862,71.634-12.563,72.805-15.584C1009.527,707.685,1007.459,706.064,1007.459,706.064z"
				/>
		</g>
		<path style="fill:#F08D29;" d="M901.995,689.819c0,0-6.066,31.684-16.179,45.054c0,0-66.091-23.85-82.504-29.988l41.219-36.262
			C844.531,668.622,867.347,682.165,901.995,689.819z"/>
		<path style="fill:#8E4F3A;" d="M1114.543,691.81c0,0,1.178,24.611-13.608,30.045c-14.79,5.436-31.759,2.94-39.159-0.23
			c-7.4-3.171-26.173-12.578-20.295-19.877C1060.353,678.329,1114.543,691.81,1114.543,691.81z"/>
		<path style="fill:#8E4F3A;" d="M1109.886,708.877c0,0,19.144-0.282,17.391-7.179c-1.753-6.894-15.162-3.123-15.162-3.123
			L1109.886,708.877z"/>
		<path style="fill:#613628;" d="M1001.816,408.464c-0.41,4.341-0.856,9.277-1.301,14.389
			c-29.425-10.696-41.568-30.492-41.568-30.492C966.509,398.537,1001.816,408.464,1001.816,408.464z"/>
	</g>
	<g>
		<g>
			<path style="fill:#163342;" d="M559.767,1730.971c0,0,7.493,18.059,13.808,25.218c6.315,7.156,30.5,19.952,30.631,41.21
				c0.142,23.051-40.767,16.654-56.768,15.812c-15.999-0.842-17.211-13.157-23.947-26.209c-6.737-13.054-13.524-10.842-14.79-21.369
				c-1.262-10.525,5.16-34.091,5.16-34.091L559.767,1730.971z"/>
		</g>
		<path style="fill:#EEA886;" d="M438.261,420.792c0,0,73.714-27.277,69.106,70.684c-4.607,97.96-21.883,107.915-70.373,94.234
			c-48.493-13.681-52.556-75.508-58.871-105.248C371.81,450.719,414.157,425.068,438.261,420.792z"/>
		<path style="fill:#E8734D;" d="M388.371,529.046c0,0-0.211-26.168,10.673-28.578c10.88-2.408,16.486,12.72,16.486,12.72
			l8.763-0.472c0,0-7.831-26.518,2.543-32.597c10.374-6.081,72.437-0.738,80.225-9.667c7.788-8.928-3.507-61.954-20.437-67.158
			c-16.935-5.204-63.187-15.76-92.559,10.397c0,0-25.551,0.487-26.575,21.294C366.465,455.79,379.517,514.857,388.371,529.046z"/>
		<path style="fill:#EEA886;" d="M411.36,489.358c-3.253-8.632-21.638-7.545-19.758,6.142c1.884,13.685,17.08,34.761,23.18,30.809
			C420.882,522.356,415.852,501.263,411.36,489.358z"/>
		<g>
			<path style="fill:#163342;" d="M267.549,1730.971c0,0-7.489,18.059-13.807,25.218c-6.316,7.156-30.501,19.952-30.631,41.21
				c-0.142,23.051,40.77,16.654,56.769,15.812c15.999-0.842,17.211-13.157,23.947-26.209c6.737-13.054,13.524-10.842,14.79-21.369
				c1.262-10.525-5.16-34.091-5.16-34.091L267.549,1730.971z"/>
		</g>
		<g>
			<path style="fill:#2F6B8C;" d="M266.854,1724.304l-1.481,11.616c0,0,25.524,8.586,49.314,0.481l-1.377-15.161L266.854,1724.304z"
				/>
		</g>
		<g>
			<path style="fill:#2F6B8C;" d="M560.108,1724.304l1.427,10.721c0,0-25.064,9.259-48.854,1.154l0.967-14.938L560.108,1724.304z"/>
		</g>
		<g>
			<path style="fill:#1D3B54;" d="M549.999,1433.35c0,28.421,21.377,293.26,21.377,293.26c-2.843,9.474-60.889,9.098-70.361,4.361
				c-9.476-4.737-36.324-268.015-38.074-296.67c-1.749-28.66-53.039-247.112-61.341-246.164
				c-8.306,0.947-35.933,237.252-42.562,259.041c-6.633,21.79-34.31,283.793-34.31,283.793c-27.415,5.532-67.338-1.252-67.338-1.252
				s4.933-270.747,6.122-278.754c1.757-11.851-0.08-43.794,4.738-114.681c4.313-63.411,19.892-201.471,29.772-276.235
				c0.353-2.658,0.686-5.217,1.016-7.661c1.934-14.552,3.384-25.244,4.078-30.371c0.303-2.218,0.468-3.399,0.468-3.399
				c2.659-1.224,5.444-2.354,8.345-3.397c69.383-24.927,203.203,1.46,203.203,1.46s0.077,0.656,0.227,1.895
				c0.18,1.502,0.457,3.858,0.817,6.907c0.771,6.595,1.919,16.409,3.238,27.802c0.008,0.082,0.019,0.165,0.027,0.247
				c0.038,0.342,0.081,0.694,0.119,1.042c4.669,40.546,11.268,99.913,10.65,106.09
				C529.263,1170.136,549.999,1404.929,549.999,1433.35z"/>
		</g>
		<g>
			<path style="fill:#EAD8CF;" d="M250.515,987.615c0,0-104.567-129.464-104.802-157.567c-0.107-12.99,18.338-56.3,34.279-76.657
				c5.248-6.708,10.846-13.403,16.436-19.839c0.008-0.015,0.023-0.021,0.023-0.021c22.321-25.678,44.553-47.009,44.553-47.009
				s57.294-68.142,97.623-31.002c0,0-1.182,24.964-13.305,43.854c-12.12,18.906-27.512,33.266-35.004,39.322
				c-7.485,6.048-74.6,76.55-75.651,79.824c-1.052,3.276,14.532,42.84,24.43,59.96c14.115,24.421,43.245,81.101,43.245,81.101
				L250.515,987.615z"/>
		</g>
		<g>
			<path style="fill:#EAD8CF;" d="M569.588,987.931c0,0,116.008-119.329,118.816-147.29c1.296-12.927-13.098-57.745-27.104-79.479
				c-4.612-7.161-9.573-14.341-14.544-21.262c-0.008-0.018-0.023-0.023-0.023-0.023c-19.869-27.617-40.053-50.897-40.053-50.897
				s-50.803-73.11-94.37-39.826c0,0-1.113,24.968,9.227,44.891c10.335,19.936,24.347,35.648,31.252,42.366
				c6.894,6.71,67.262,83.07,68.01,86.427c0.744,3.359-18.4,41.327-29.825,57.466c-16.297,23.025-49.264,78.104-49.264,78.104
				L569.588,987.931z"/>
		</g>
		<g>
			<path style="fill:#EEA987;" d="M468.853,610.823c0,0,12.008,2.699-38.898,50.433c0,0-35.311-39.186-34.083-45.794
				C397.103,608.855,468.853,610.823,468.853,610.823z"/>
		</g>
		<g>
			<path style="fill:#EAD8CF;" d="M572.351,662.002l-35.986,129.111c-11.548,39.09-18.074,78.384-20.023,112.785
				c-1.504,26.57-0.134,111.092-0.134,111.092s-49.924,18.324-131.407,13.182c0,0-88.623,22.233-81.476-31.499
				c18.91-142.238,0.414-200.882-2.061-215.16c0,0-11.897-69.084-20.414-126.965c24.665-9.183,130.022-44.605,130.022-44.605
				l57.148,0.624C468.021,610.566,548.392,634.446,572.351,662.002z"/>
		</g>
		<path style="fill:#385369;" d="M529.255,818.036c0,0-33.96-15.871-45.708-69.507l-119.849-1.305c0,0-35.859,71.278-55.211,75.082
			c0,0,3.771,78.259,1.354,108.489c-2.413,30.228-9.672,87.403-9.672,87.403s6.84,52.191,218.124,16.681
			c0,0-2.287-125.608-1.945-130.974C516.69,898.537,528.376,821.188,529.255,818.036z"/>
		<path style="fill:#385369;" d="M483.313,748.526c0,0,14.084-72.784,44.906-115.183c0,0-2.961-3.533-10.93-4.855
			c0,0-33.45,47.701-46.794,119.898C457.148,820.585,483.313,748.526,483.313,748.526z"/>
		<path style="fill:#385369;" d="M364.907,747.236c0,0-8.148-65.733-38.039-108.795c0,0,5.056-3.319,13.056-4.464
			c0,0,26.034,40.928,37.801,113.399C389.492,819.847,364.907,747.236,364.907,747.236z"/>
		<g>
			<path style="fill:#EEA987;" d="M397.479,615.005c0,0,12.607-12.45,0.759-61.635c-3.122-12.994,69.207,15.662,69.207,15.662
				s-0.579,10.758-0.514,21.54c0.023,4.834,0.184,9.656,0.58,13.539c0.295,2.915,0.729,5.289,1.339,6.706
				C472.095,618.297,423.982,633.977,397.479,615.005z"/>
		</g>
		<path style="fill:#385369;" d="M572.438,654.085c-30.082,8.72-31.394,122.515-31.394,122.515s-8.367,28.23-11.924,53.588
			c-3.303,23.593-6.909,180.124-7.439,204.151c0,0-29.069,18.679-108.423,17.249c0,0-82.868-5.722-118.099-19.424
			c2.636-22.913,6.534-58.175,9.027-82.233c1.88-18.158,3.495-34.828,4.147-44.372c2.006-29.445-8.767-134.007-8.767-134.007
			c12.499-105.759-9.327-122.666-9.327-122.666c14.463-9.505,101.268-32.414,101.268-32.414
			c17.487,75.995,39.903,91.074,39.903,91.074c32.415-32.213,48.339-93.221,48.339-93.221
			C534.592,625.081,572.438,654.085,572.438,654.085z"/>
		<path style="fill:#EEA886;" d="M549.588,958.592c0,0-3.783,4.12-8.256,4.54c-7.73,0.728-17.56-7.11-24.688,1.66
			c-7.124,8.772,13.88,40.797,20.472,44.125c6.591,3.326,19.654-5.216,32.307-25.488
			C582.08,963.159,549.588,958.592,549.588,958.592z"/>
		<path style="fill:#EEA886;" d="M519.464,962.213c0,0-14.951,7.198-30.588,17.37c-13.719,8.924-28.309,21.531-25.873,25.261
			c3.33,5.101,13.642-6.301,27.841-14.175c13.075-7.249,11.728-3.485,11.728-3.485s0.326-1.095-12.361,9.756
			c-13.639,11.666-28.137,25.963-25.187,29.341c1.849,2.122,1.876,2.564,7.516-0.803c-2.82,2.678-2.494,3.89-1.496,5.263
			c5.16,7.105,27.868-6.683,36.884-12.161c-6.901,4.255-11.505,8.164-5.689,10.462c6.648,2.628,37.862-18.415,49.771-24.803
			C564.996,997.269,519.464,962.213,519.464,962.213z"/>
		<path style="fill:#EEA886;" d="M272.425,960.293c0,0,3.791,4.132,8.279,4.554c7.754,0.727,17.613-7.134,24.761,1.664
			c7.147,8.797-13.923,40.917-20.533,44.255c-6.61,3.338-19.712-5.231-32.403-25.563
			C239.838,964.872,272.425,960.293,272.425,960.293z"/>
		<path style="fill:#EEA886;" d="M302.638,963.924c0,0,14.996,7.218,30.68,17.419c13.762,8.953,28.39,21.596,25.95,25.338
			c-3.338,5.116-13.685-6.32-27.926-14.218c-13.113-7.271-11.762-3.497-11.762-3.497s-0.326-1.097,12.4,9.787
			c13.681,11.701,28.217,26.04,25.263,29.428c-1.861,2.127-1.884,2.57-7.542-0.806c2.831,2.686,2.501,3.901,1.504,5.279
			c-5.179,7.128-27.953-6.703-36.995-12.198c6.921,4.267,11.536,8.189,5.708,10.494c-6.671,2.636-37.978-18.471-49.92-24.877
			C256.968,999.084,302.638,963.924,302.638,963.924z"/>
		<path style="fill:#EAD8CF;" d="M282.342,959.583c0,0-7.715,14.072-31.827,28.032c0,0-48.893-59.907-71.16-94.809h67.757
			C247.112,892.806,277.048,947.412,282.342,959.583z"/>
		<path style="fill:#EAD8CF;" d="M541.708,958.407c0,0,4.167,16.673,27.879,29.524c0,0,65.109-70.695,72.533-79.528l-57.018-19.526
			C585.102,888.877,554.99,934.911,541.708,958.407z"/>
		<path style="fill:#A77860;" d="M467.511,604.111c-43.034-0.556-56.869-33.276-57.287-34.296
			c22.674,22.969,56.707,20.757,56.707,20.757C466.954,595.406,467.115,600.229,467.511,604.111z"/>
		<path style="fill:#D1C1B9;" d="M467.511,604.111c0,0-8.203,10.355-30.619,19.718l10.071,21.989l28.77-32.821L467.511,604.111z"/>
		<path style="fill:#D1C1B9;" d="M401.93,604.476c0,0,8.294,13.159,34.962,19.353l-11.82,25.016l-30.558-33.586L401.93,604.476z"/>
	</g>
	<g>
		<path style="fill:#565E96;" d="M1397.563,1735.504c0,0-37.782-8.009-39.09-9.187c-1.305-1.178-9.181-16.292-15.086-13.782
			c-5.908,2.511-6.304,20.736-12.093,23.719c-5.785,2.982-51.574,32.758-57.233,38.225c-5.655,5.467-39.873,1.587-43.974,11.189
			c-4.101,9.603-4.834,32.445,46.387,27.972c51.221-4.476,109.455,4.874,120.569-0.975
			C1408.155,1806.816,1400.82,1750.282,1397.563,1735.504z"/>
		<path style="fill:#565E96;" d="M1703.104,1714.428c0,0-38.579-1.857-40.057-2.812c-1.477-0.954-11.671-14.613-17.099-11.191
			c-5.429,3.424-2.903,21.479-8.137,25.348c-5.233,3.871-45.669,40.59-50.381,46.891c-4.707,6.303-39.105,7.947-41.618,18.083
			c-2.509,10.135,0.422,32.801,50.266,20.186c49.848-12.612,108.826-12.702,118.858-20.255
			C1724.973,1783.128,1708.683,1728.494,1703.104,1714.428z"/>
		<polygon style="fill:#EEA886;" points="1703.104,1714.428 1692.857,1680.446 1646.847,1687.061 1653.173,1717.644 		"/>
		<polygon style="fill:#EEA886;" points="1400.467,1716.989 1397.563,1735.504 1347.481,1726.246 1350.642,1698.564 		"/>
		<g>
			<path style="fill:#323657;" d="M1518.443,1123.101c0,0,7.769,66.38,16.309,134.412c1.938,15.477,3.925,31.049,5.854,45.932
				c6.368,48.892,12.273,90.482,14.789,97.77c6.787,19.64,73.684,319.849,73.684,319.849s83.524,4.009,85.994-4.03
				c0,0-62.108-331.669-61.191-342.801c0.924-11.133-10.002-325.129-10.002-325.129S1522.168,1105.053,1518.443,1123.101z"/>
		</g>
		<g>
			<path style="fill:#323657;" d="M1442.557,1036.603c0,0-57.014,298.259-62.581,321.761
				c-5.567,23.502-52.192,368.979-52.192,368.979s33.424,22.34,82.343,19.859c0,0,73.185-369.521,79.127-380.787
				c23.058-43.711,100.654-249.646,111.788-279.952c11.133-30.307,44.181-71.762,44.181-71.762S1556.179,976.442,1442.557,1036.603z
				"/>
		</g>
		<g>
			<path style="fill:#CFBEB6;" d="M1476.103,611.092c0,0-31.808,61.305-37.513,98.168c-5.705,36.865,20.44,156.744,19.754,177.595
				c-1.845,56.192-20.748,175.675-20.748,175.675l172.351,10.758c0,0,14.621-57.559,24.208-127.876
				c9.587-70.315-2.072-130.962-1.04-171.844c3.522-139.493-104.007-186.979-104.007-186.979L1476.103,611.092z"/>
		</g>
		<path style="fill:#40498C;" d="M1440.654,1042.475l-5.122,30.813c0,0,127.87,8.801,209.461,8.059l-1.681-27.525
			C1643.313,1053.82,1521.113,1051.938,1440.654,1042.475z"/>
		<g>
			<path style="fill:#EEA886;" d="M1406.747,437.239c0,0-23.495,31.264-15.192,37.93c6.856,5.507-14.51,36.442-17.468,41.578
				c-2.962,5.135,12.196,11.477,15.012,15.494c2.816,4.017,6.215,48.729,18.994,51.99c12.776,3.259,74.306-8.25,92.721-22.401
				c18.419-14.149,42.758-86.94,36.892-120.078C1531.836,408.613,1448.116,382.673,1406.747,437.239z"/>
		</g>
		<g>
			<path style="fill:#EEA886;" d="M1448.346,580.407c0,0,1.174,4.115,2.678,9.841c0.629,2.4,1.339,5.162,2.087,8.145
				c0.576,2.28,1.174,4.694,1.772,7.18c3.775,15.657,7.738,34.6,7.374,43.651c-0.671,16.915,66.851-62.636,66.851-62.636
				s-22.155-53.507-28.708-114.312C1493.855,411.475,1448.346,580.407,1448.346,580.407z"/>
		</g>
		<g>
			<path style="fill:#323657;" d="M1401.971,444.061c0,0-13.197-39.583,24.957-61.714c38.15-22.131,93.695,35.192,100.493,38.085
				c6.799,2.893,45.429,11.216,15.618,79.118c-26.924,61.332-25.185,54.782-25.185,54.782s-11.856-31.73-18.412-38.183
				c-10.232-10.078-35.737-11.877-35.737-11.877s16.819-30.066-1.267-37.412C1444.356,459.514,1422.017,439.877,1401.971,444.061z"
				/>
		</g>
		<g>
			<path style="fill:#EEA886;" d="M1486.45,489.032c2.313-4.122,10.501-22.108,24.961-8.638
				c14.463,13.468-17.057,44.94-19.935,44.973C1488.595,525.4,1466.973,523.727,1486.45,489.032z"/>
		</g>
		<path style="fill:#A77860;" d="M1448.346,580.407c0,0,1.174,4.115,2.678,9.841c0.629,2.4,1.339,5.162,2.087,8.145
			c34.693-18.479,44.63-34.157,44.925-34.643C1481.874,572.1,1448.346,580.407,1448.346,580.407z"/>
		<g>
			<path style="fill:#FFC05C;" d="M1449.378,738.152c2.62,12.939,4.934,25.986,6.955,39.046l-0.004,0.012
				c4.462,28.739,7.566,57.572,9.653,85.536c0.748,9.969,1.354,19.838,1.86,29.555c5.974,115.768,47.999,238.106,47.999,238.106
				s98.908-2.06,122.123-13.814c0,0,11.713-152.616,1.673-281.518c-0.775-9.956-1.692-19.906-2.767-29.779
				c-0.004-0.012-0.004-0.012-0.004-0.012c-11.371-104.427-29.966-206.89-107.755-218.691
				C1527.558,587.977,1435.605,670.189,1449.378,738.152z"/>
		</g>
		<path style="fill:#FFC05C;" d="M1640.316,844.285c0,0-1.968,125.628,59.481,250.546c7.504,15.25-119.813,32.145-119.813,32.145
			L1640.316,844.285z"/>
		<path style="fill:#E8734D;" d="M1498.984,1247.368l211.023-33.466c17.993-2.854,29.388-20.863,24.258-38.344l-42.658-145.396
			c-4.335-14.768-19.078-23.919-34.236-21.248l-191.376,33.732c-16.232,2.859-27.178,18.204-24.595,34.483l23.015,145.131
			C1467.03,1238.741,1482.506,1249.98,1498.984,1247.368z"/>
		<g>
			<path style="fill:#E8734D;" d="M1450.787,1124.052c-4.24-216.614,14.018-346.24,30.078-416.837
				c17.59-77.324,36.278-102.887,37.064-103.936l4.392-5.864l4.555,5.739c69.114,87.142,113.978,216.035,139.441,308.816
				c27.535,100.329,38.968,181.276,39.079,182.082l0.794,5.705l-255.28,30.535L1450.787,1124.052z M1655.421,914.961
				c-24.558-89.488-67.276-212.83-132.378-298.324c-6.322,11.703-19.267,40.176-31.57,94.894
				c-15.568,69.222-33.232,195.688-29.503,406.06l231.383-27.679C1690.264,1069.886,1678.594,999.394,1655.421,914.961z"/>
		</g>
		<path style="fill:#FFC05C;" d="M1532.427,587.158l-7.024-10.272c0,0-53.243,41.041-71.451,114.199
			C1453.952,691.084,1493.107,615.958,1532.427,587.158z"/>
		<path style="fill:#D69D40;" d="M1543.476,712.189c0,0,20.321,113.779,13.416,124.45c-6.902,10.669-53.143,78.101-53.143,78.101
			S1711.461,862.673,1543.476,712.189z"/>
		<g>
			<path style="fill:#EFAA88;" d="M1426.279,1075.324c0,0,7.017-2.359,9.576-4.888c0,0,4.317-4.957,7.593-8.296
				c1.044-1.056,1.976-1.953,2.639-2.467c2.77-2.16,9.496-6.07,14.69-13.123c5.194-7.04,21.016-33.782,21.016-33.782l-20.399-17.525
				l-12.76-19.528c0,0-49.299,19.888-54.9,25.893c-0.541,0.591-1.059,1.192-1.5,1.795c-4.246,5.544-5.076,11.454-6.975,14.615
				c-0.687,1.166-6.767,13.219-5.148,16.913c2.236,5.132,5.87,7.78,9.648,8.433c0,0,4.826,9.854,11.544,12.925
				c0,0,4.159,9.234,13.604,10.674C1414.908,1066.963,1420.179,1075.857,1426.279,1075.324z"/>
		</g>
		<path style="fill:#FFC05C;" d="M1519.022,658.372c0,0,53.039,105.933,60.962,171.566
			c2.482,20.585-145.638,143.748-144.452,151.699c1.189,7.949,43.491,43.893,43.491,43.893s180.657-155.869,181.842-168.861
			c1.185-12.994-36.815-180.175-59.404-215.035c-16.949-26.155-50.197-60.354-73.232-49.17
			C1497.223,607.518,1519.022,658.372,1519.022,658.372z"/>
	</g>
	<g>
		<path style="fill:#323657;" d="M2618.959,841.454c-7.484,33.226-20.676,67.347-41.811,101.026c0,0-50.46,11.589-68.191-22.222
			c-6.985-13.311-8.144-54.215-2.955-105.236c7.979-78.565,31.04-181.121,71.146-243.865
			C2577.148,571.157,2651.356,697.849,2618.959,841.454z"/>
		<path style="fill:#323657;" d="M2618.959,841.454c-7.484,33.226-20.676,67.347-41.811,101.026c0,0-50.46,11.589-68.191-22.222
			c-6.985-13.311-8.144-54.215-2.955-105.236L2618.959,841.454z"/>
		<path style="fill:#163342;" d="M2733.589,462.917c0,0,52.646,112.309,16.406,119.023c-49.757,9.222-69.888-83.797-69.888-83.797
			L2733.589,462.917z"/>
		<path style="fill:#EEA886;" d="M2820.64,993.312c0,0-2.163,12.989-6.435,26.333c-2.08,6.51-1.188,48.479-0.678,53.889
			c0.429,4.535,3.276,1.695,4.652-1.378c0.787-1.763,2.781-16.389,5.051-24.226c1.902-6.58,3.704-9.098,4.933-7.06
			c1.232,2.038,4.612,28.869,2.741,40.498c-1.865,11.627,1.989,38.016,7.785,33.879c5.797-4.137,17.429-52.803,15.353-70.801
			c-2.072-17.999-9.576-40.313-9.576-40.313L2820.64,993.312z"/>
		<path style="fill:#EDDAD3;" d="M2812.895,1003.465c-0.508-5.703-26.442-91.49-31.252-117.238
			c-4.813-25.747-8.803-49.291-11.517-59.573c-0.179-0.677-0.46-1.856-0.828-3.436c-1.771-7.602-5.555-24.557-9.651-40.457
			c-0.289-1.112-0.578-2.219-0.868-3.321l0.06-5.887c-2.899-11.024,1.822-16.644,2.845-25.043c0.305-2.521,0.277-5.295-0.396-8.539
			c-0.021-0.118-0.044-0.236-0.072-0.35c-3.209-14.716-5.428-27.5-5.355-34.531c0.233-23.355-20.591-135.78-20.591-135.78
			s40.261,13.858,52.674,36.782c12.146,22.438,14.31,76.112,14.762,87.511c0.447,11.399,7.389,106.679,8.883,126.065
			c1.497,19.382,3.858,35.932,7.67,49.074c3.812,13.143,29.56,127.396,29.706,137.712
			C2848.994,1008.445,2813.397,1009.167,2812.895,1003.465z"/>
		<path style="fill:#EEA886;" d="M2585.201,922.678c0,0-34.429,45.292-43.767,99.026c-9.339,53.731,5.515,234.077,5.108,260.638
			c-0.406,26.557-24.823,92.642-19.939,142.67c4.883,50.028,45.616,301.883,45.616,301.883l32.062-5.981
			c0,0-3.818-261.315-0.767-282.314c3.053-21,9.178-97.543,10.398-106.191c1.222-8.646,77.502-235.695,77.502-274.434
			C2691.415,1019.232,2668.218,859.475,2585.201,922.678z"/>
		<path style="fill:#EEA886;" d="M2758.152,940.384c0,0,56.564,218.433,63.279,248.695c6.715,30.264,16.442,55.222,16.442,68.071
			c0,29.815-10.946,77.688-10.946,77.688l-89.682,356.834l-34.314,7.765c0,0,21.874-225.538,22.896-266.317
			c1.029-40.866,32.123-98.899,26.018-116.193c-6.105-17.293-98.276-216.786-98.276-216.786S2583.779,876.975,2758.152,940.384z"/>
		<path style="fill:#E8734D;" d="M2837.874,1257.15c0,0-130.833,56.837-325.633,56.837c0,0,8.548-256.782,36.867-321.096
			c28.321-64.315,213.557-35.381,213.557-35.381S2837.874,1203.269,2837.874,1257.15z"/>
		<g>
			<path style="fill:#EDDAD3;" d="M2694.094,552.627c0,0,30.209,14.433,40.695,16.556c10.492,2.122,51.188,55.612,58.319,75.141
				c7.136,19.526,0,48.819-14.683,83.204c-14.687,34.386-0.84,45.849-7.551,80.233c-6.716,34.386-6.708,128.127-5.452,147.23
				c1.26,19.103-184.031,66.838-223.05,32.027c0,0,26.004-92.091,47.281-138.736c4.101-8.99,6.262-49.012,1.648-60.898
				c-4.615-11.888-56.642-100.611-56.642-100.611s-10.752-88.511,11.947-106.35c19.721-15.494,80.396-22.495,90.046-25.891
				C2646.304,551.136,2674.375,549.657,2694.094,552.627z"/>
		</g>
		<g>
			<path style="fill:#EDDAD3;" d="M2778.426,727.523c-14.679,34.385-0.84,45.856-7.551,80.24
				c-6.716,34.384-6.704,128.127-5.452,147.227c1.264,19.101-184.031,66.844-223.05,32.029c0,0,10.154-35.963,22.967-74.331
				c1.585-4.736,3.203-9.521,4.857-14.269c6.361-18.321,13.122-36.238,19.457-50.136c4.103-8.993,6.266-49.012,1.645-60.9
				c-4.611-11.888-56.634-100.607-56.634-100.607s-10.756-88.516,11.939-106.349c7.755-6.087,21.832-10.871,36.655-14.64
				c5.568-1.411,11.254-2.68,16.736-3.814c17.047-3.566,32.225-5.885,36.656-7.44c9.645-3.397,37.719-4.88,57.448-1.902
				c0,0,30.202,14.425,40.685,16.554c10.496,2.116,51.195,55.614,58.323,75.132C2800.248,663.848,2793.108,693.139,2778.426,727.523
				z"/>
		</g>
		<g>
			<path style="fill:#EEA886;" d="M2708.511,517.359c0,0-6.026,56.069-4.767,74.324c0,0-31.39,31.827-67.09-37.15
				c0,0,15.021-28.431,3.716-67.171C2629.063,448.622,2708.511,517.359,2708.511,517.359z"/>
		</g>
		<path style="fill:#EEA987;" d="M2615.773,412.162c0,0-6.926-8.416-9.51,0.058c-2.582,8.476,5.878,33.668,6.81,37.316
			c0,0,4.197,14.139,5.873,12.335S2615.773,412.162,2615.773,412.162z"/>
		<path style="fill:#EEA987;" d="M2736.763,413.207c0,0,6.93-8.416,9.509,0.061c2.583,8.476-5.876,33.668-6.807,37.317
			c0,0-4.2,14.138-5.876,12.332C2731.913,461.113,2736.763,413.207,2736.763,413.207z"/>
		<path style="fill:#EEA987;" d="M2687.136,331.605c0,0,63.573,9.903,54.267,111.222c-9.307,101.32-65.41,93.276-69.162,93.192
			c-3.749-0.084-56.285,2.106-60.831-121.525C2611.409,414.495,2609.289,323.069,2687.136,331.605z"/>
		<path style="fill:#163342;" d="M2623.602,408.438c0,0,70.555,21.23,104.334,14.441c0,0,2.155,12.609,7.009,13.385
			c4.849,0.776,7.329-24.102,7.329-24.102s1.652-82.392-72.011-83.168c-73.665-0.776-58.699,89.243-58.699,89.243l1.003,15.385
			C2612.566,433.622,2623.118,437.837,2623.602,408.438z"/>
		<path style="fill:#A77860;" d="M2647.242,526.349c0,0,22.26,21.34,56.502,1.756c0,0-10.114,17.099-29.31,16.668
			C2655.241,544.339,2647.242,526.349,2647.242,526.349z"/>
		<path style="fill:#EEA886;" d="M2612.538,559.432c0,0,37.992,62.409,80.878,59.783c59.36-3.636,28.102-54.488,28.102-54.488
			s-14.774-8.572-18.935-9.382c-4.155-0.81-65.545-1.596-65.545-1.596L2612.538,559.432z"/>
		<path style="fill:#323657;" d="M2695.104,814.185c-5.875,35.533-21.465,62.024-46.37,78.732
			c-23.913,16.051-51.881,20.034-73.76,20.034c-3.37,0-6.597-0.096-9.634-0.263c1.585-4.736,3.203-9.521,4.857-14.269
			c20.461,0.576,48.109-2.285,70.77-17.51c21.443-14.423,34.953-37.673,40.144-69.091c11.073-67.073-1.09-128.141-36.124-181.506
			c-26.266-39.993-61.42-64.319-61.727-64.524c0,0,5.449-2.87,16.725-3.826c0,0,0.012,0,0.012,0.012
			c1.407,0.944,28.654,17.76,56.443,59.859C2682.136,660.763,2709.703,725.729,2695.104,814.185z"/>
		<g>
			<g>
				<g>
					<g>
						<g>
							<path style="fill:#EEA886;" d="M2704.901,858.252c0,0-5.428,1.768-8.174,1.369c0,0-4.94-1.114-8.502-1.691
								c-1.129-0.179-2.119-0.309-2.766-0.325c-2.705-0.074-8.664,0.587-15.11-1.433c-6.442-2.013-32.021-17.943-32.021-17.943
								l4.582-16.431l2.123-16.006c0,0,40.103-10.024,46.322-8.85c0.606,0.12,1.201,0.259,1.751,0.433
								c5.171,1.511,8.388,4.834,11.011,5.939c0.963,0.413,10.245,5.159,10.931,8.228c0.962,4.255-0.079,7.598-2.128,9.754
								c0,0,1.518,8.418-1.24,13.454c0,0,1.645,7.719-3.554,12.996C2708.126,847.746,2708.931,855.765,2704.901,858.252z"/>
						</g>
					</g>
				</g>
			</g>
		</g>
		<g>
			<path style="fill:#EDDAD3;" d="M2589.246,571.153c0,0-39.583-6.921-61.201,28.712c-24.74,40.778-24.328,59.54-28.143,80.117
				c-3.604,19.432-15.428,50.717-16.928,56.175c-1.497,5.458-30.215,61.062-18.321,84.617
				c11.957,23.677,175.915,26.351,177.248,31.335c0.85,3.175,8.629-49.575,8.629-49.575s-55.26-8.372-72.401-9.867
				c-20.471-1.786-39.302-13.667-36.621-23.797c5.907-22.318,19.613-53.548,25.114-64.137
				C2572.125,694.143,2620.712,586.368,2589.246,571.153z"/>
		</g>
		<path style="fill:#EDDAD3;" d="M2712.472,1696.158c0,0,12.33-11.096,18.482-12.407c6.157-1.31,11.989-0.983,14.58,1.967
			c2.595,2.95,10.067,14.752,14.104,18.357c4.041,3.607,32.875,31.797,39.678,33.766c6.803,1.966,36.287,0.326,34.666,17.7
			c-1.62,17.375-25.593,24.913-68.361,20.98c-42.765-3.934-37.578-14.096-61.556-19.342c-23.974-5.245-25.594-17.373-21.382-32.125
			c4.211-14.75,21.191-29.428,19.437-33.36C2700.368,1687.765,2712.472,1696.158,2712.472,1696.158z"/>
		<path style="fill:#EDDAD3;" d="M2578.747,1724.232c0,0,13.656-6.269,22.753-5.941c9.097,0.329,8.122,5.969,10.398,9.396
			c2.274,3.426,23.718,36.301,29.565,42.218c5.848,5.916,26.644,12.162,23.72,26.956s-29.242,20.71-61.734,16.438
			c-32.491-4.274-48.41-34.848-53.61-41.751c-5.197-6.904,12.348-51.284,17.546-54.407
			C2572.585,1714.02,2578.747,1724.232,2578.747,1724.232z"/>
		<path style="fill:#C9B9B3;" d="M2793.346,683.278c0,0-8.656,31.352-15.748,46.899c-7.092,15.55-5.879,34.685-5.316,46.346
			c0.559,11.661,0.261,25.373-3.416,44.829c0,0,1.24,5.921,3.744,16.399C2772.609,837.752,2787.621,796.142,2793.346,683.278z"/>
	</g>
	<g>
		<g>
			<path style="fill:#EEA886;" d="M2396.491,618.743c0,0,53.745,6.273,56.769,9.714c3.02,3.439,2.302,6.356-2.763,5.98
				c-5.061-0.374-52.207-4.544-52.207-4.544s61.614,18.2,64.745,20.435c1.838,1.308,0.778,7.013-1.969,7.063
				c-2.747,0.052-65.094-14.423-65.094-14.423s57.49,17.099,59.496,19.789c1.754,2.354-0.518,7.438-4.887,6.469
				c-4.374-0.969-58.841-13.762-58.841-13.762s40.874,15.131,41.15,18.5c0.173,2.06-0.51,7.017-10.915,2.774
				c-10.4-4.243-36.174-11.602-36.174-11.602L2396.491,618.743z"/>
		</g>
		<g>
			<g>
				<path style="fill:#EEA886;" d="M2332.936,621.281c0,0,17.894,0.93,23.364-8.12c4.65-7.698,16.014-14.672,19.509-16.827
					c4.673-2.879,16.083-16.838,19.382-11.231c3.299,5.605-17.759,23.838-21.469,28.49c-3.71,4.654,22.083,2.948,26.786,6.332
					c4.703,3.384,2.145,46.07-15.549,45.199c-17.698-0.869-35.212-13.52-38.396-13.051c-3.188,0.466-12.937-0.123-12.937-0.123
					L2332.936,621.281z"/>
			</g>
		</g>
		<g>
			<path style="fill:#D44040;" d="M2340.401,663.481c0,0-131.853-18.461-161.113-25.661c-13.527-3.328-31.345-22.002-48.278-43.955
				c-5.582-7.23-11.057-14.818-16.263-22.328c-0.016-0.016-0.016-0.031-0.016-0.031c-20.774-29.992-37.053-58.741-37.053-58.741
				s-61.401-71.957-12.129-104.034c0,0,14.944-2.536,24.574,0.234c30.432,8.753,55.384,70.256,59.688,79.648
				c4.309,9.374,49.693,93.215,52.816,95.173c3.127,1.961,41.031,10.272,61.791,14.604c30.063,6.271,86.551,17.999,86.551,17.999
				L2340.401,663.481z"/>
		</g>
		<g>
			<path style="fill:#202338;" d="M1917.135,1546.762c0,0-10.848,20.235-17.934,28.267c-7.088,8.032-34.226,22.391-34.373,46.243
				c-0.159,25.868,45.748,18.691,63.701,17.744c17.955-0.943,19.313-14.765,26.873-29.41c7.56-14.648,15.177-12.168,16.594-23.978
				c1.418-11.813-7.319-38.865-7.319-38.865H1917.135z"/>
		</g>
		<g>
			<path style="fill:#202338;" d="M2190.438,1544.404c0,0,22.125,24.699,44.583,29.874c22.459,5.176,38.174,11.776,38.343,25.948
				c0.168,14.174-64.638,23.516-90.342,9.227c-38.357-21.326-42.26-14.896-46.51-25.558c-4.255-10.66,5.105-39.165,4.83-42.555
				C2141,1537.151,2190.438,1544.404,2190.438,1544.404z"/>
		</g>
		<g>
			<path style="fill:#81807E;" d="M2187.951,1532.586c0,0,2.919,11.572,2.486,11.818c-0.434,0.243-50.611,6.223-49.096-3.063
				c1.231-7.531,2.988-15.716,2.988-15.716L2187.951,1532.586z"/>
		</g>
		<g>
			<path style="fill:#81807E;" d="M1964.055,1538.949c0,0,2.101,11.041,1.694,11.306c-0.406,0.265-50.884,9.28-50.598,0.113
				c0.227-7.282,4.656-15.767,4.656-15.767L1964.055,1538.949z"/>
		</g>
		<g>
			<path style="fill:#292C47;" d="M2142.327,839.88c0,0,18.251,177.223,27.738,237.891c11.099,70.936,14.858,129.545,17.954,166.26
				c3.891,46.179,4.643,273.339,7.37,286.84c2.725,13.502-60.447,3.73-60.447,3.73s-31.08-296.81-42.674-345.99
				c-10.792-45.794-50.858-242.949-60.706-230.444c-9.851,12.505-22.064,230.076-29.359,266.193
				c-7.293,36.115-29.482,318.866-29.482,318.866s-50.275,10.011-63.647-1.307c0,0-6.088-243.675-1.441-311.387
				c1.771-25.805-30.235-309.409,10.806-423.581C1940.129,746.614,2142.327,839.88,2142.327,839.88z"/>
		</g>
		<g>
			<path style="fill:#323657;" d="M1932.402,705.763c-1.89,34.078-9.332,70.014-24.784,106.863c0,0-48.464,20.027-71.863-10.341
				c-9.217-11.955-17.25-52.143-20.643-103.405c-5.238-78.93,0.557-184.117,30.076-252.888
				C1845.188,445.992,1940.626,558.461,1932.402,705.763z"/>
		</g>
		<g>
			<path style="fill:#E8734D;" d="M1932.402,705.763c-1.89,34.078-9.332,70.014-24.784,106.863c0,0-48.464,20.027-71.863-10.341
				c-9.217-11.955-17.25-52.143-20.643-103.405L1932.402,705.763z"/>
		</g>
		<g>
			<path style="fill:#B83838;" d="M2139.723,810.021l3.571,32.58c0,0-68.462,31.849-243.206,50.605l-0.451-29.472L2139.723,810.021z
				"/>
		</g>
		<g>
			<path style="fill:#D44040;" d="M2013.661,401.27c0,0,21.403,2.738,71.679,6.762c8.778,6.113,36.593,78.456,39.478,97.388
				c2.886,18.929,4.435,93.399-0.422,123.848c-4.86,30.448,31.566,165.372,18.898,187.727c0,0-123.581,51.235-248.728,48.409
				c0,0,1.37-123.403-7.918-163.417c-11.899-51.261-39.959-169.296-39.959-169.296s-10.115-92.782,2.737-99.45
				c28.964-15.027,99.869-27.172,99.869-27.172L2013.661,401.27z"/>
		</g>
		<g>
			<path style="fill:#B83838;" d="M2042.558,404.571c0,0,1.912-17.458-51.899-15.685c-53.813,1.771-88.64,17.642-88.003,33.069
				c0.637,15.426,140.988,39.053,140.988,39.053L2042.558,404.571z"/>
		</g>
		<g>
			<path style="fill:#EEA987;" d="M1967.215,211.256c0,0,72.019-35.792,78.019,64.373c5.999,100.163-10.491,112.177-61.314,103.549
				c-50.826-8.628-61.706-71.086-71.374-100.654C1902.875,248.954,1943.158,218.237,1967.215,211.256z"/>
		</g>
		<g>
			<path style="fill:#EEA987;" d="M2027.7,415.725c0,0-17.122,9.847-78.404-9.658c0,0-2.648-40.294-18.146-76.536
				c-15.499-36.241,83.885,41.541,83.885,41.541c-0.873,0.768-0.651,4.533,0.447,9.699c0.932,4.379,2.492,9.764,4.548,15.175
				C2024.662,408.122,2023.657,405.979,2027.7,415.725z"/>
		</g>
		<g>
			<path style="fill:#292C47;" d="M1928.269,326.834c0,0-3.068-26.6,7.74-30.237c10.808-3.639,18.161,11.141,18.161,11.141
				l8.863-1.435c0,0-10.861-26.125-0.969-33.443c9.891-7.316,73.614-8.653,80.563-18.586c6.95-9.933-10.325-62.646-28.121-66.095
				c-17.794-3.447-66.005-9.138-93.032,20.677c0,0-24.479,13.838-23.252,35.117C1899.45,265.255,1917.713,313.365,1928.269,326.834z
				"/>
		</g>
		<g>
			<path style="fill:#A77860;" d="M2020.029,395.947c-59.176-3.539-71.408-35.664-71.592-36.167
				c25.721,26.717,67.044,20.992,67.044,20.992C2016.414,385.151,2017.974,390.536,2020.029,395.947z"/>
		</g>
		<g>
			<path style="fill:#EEA987;" d="M1947.328,283.95c-4.255-8.427-22.841-5.315-19.432,8.402
				c3.408,13.717,21.166,33.502,26.943,28.816C1960.616,316.481,1953.194,295.571,1947.328,283.95z"/>
		</g>
		<g>
			<path style="fill:#EFAA88;" d="M1862.494,910.046c0,0-3.469-5.448-3.821-8.571c0,0-0.209-5.729-0.604-9.794
				c-0.131-1.289-0.272-2.41-0.439-3.123c-0.696-2.985-3.117-9.327-2.777-16.965c0.336-7.627,4.257-34.461,4.257-34.461l23.46-0.711
				l19.374-6.262c0,0,22.565,40.539,23.072,47.686c0.045,0.7,0.065,1.391,0.033,2.04c-0.155,6.095-2.833,10.56-3.278,13.748
				c-0.173,1.17-2.655,12.686-5.777,14.307c-4.334,2.258-8.255,2.064-11.177,0.434c0,0-8.682,4.043-14.928,2.444
				c0,0-7.886,3.99-15.089-0.211C1874.799,910.606,1866.344,913.754,1862.494,910.046z"/>
		</g>
		<g>
			<path style="fill:#D44040;" d="M1878.829,427.573c8.275,1.605,19.839,18.852,20.344,56.659
				c0.538,40.565-9.44,59.728-13.014,69.874c-3.572,10.146-24.856,77.322-23.104,86.378c4.565,23.585,15.229,86.093,16.837,90.733
				c2.744,7.93,24.912,101.013,24.912,101.013l-47.743,21.054c0,0-28.897-104.264-39.109-135.515
				c-4.096-12.538-14.293-47.119-16.163-83.071c-1.805-34.68,9.29-114.049,11.511-120.604
				C1815.521,507.539,1824.113,416.961,1878.829,427.573z"/>
		</g>
		<g>
			<path style="fill:#323657;" d="M1883.82,687.748l-13.209-11.25c46.274-54.323,61.242-111.613,44.492-170.281
				c-12.533-43.893-47.158-80.205-47.423-80.484l18.471-5.657c1.195,1.26,31.95,33.443,45.637,81.375
				c8.08,28.296,9.377,56.894,3.854,84.994C1928.782,621.352,1911.348,655.435,1883.82,687.748z"/>
		</g>
		<g>
			<path style="fill:#323657;" d="M2138.234,589.379l-10.962-0.426c0.027-0.539-6.732-25.818-14.037-59.871
				c-6.733-31.396-28.405-83.637-64.065-124.149l18.638,1.649c38.062,43.241,53.906,86.327,61.008,119.714
				C2136.512,562.487,2138.291,588.299,2138.234,589.379z M2127.272,588.953L2127.272,588.953
				C2127.276,588.951,2127.272,588.956,2127.272,588.953L2127.272,588.953z"/>
		</g>
		<g>
			<path style="fill:#323657;" d="M2138.234,589.379c0,0-0.016,16.796-11.979,22.298c0,0,1.017-18.208-1.634-33.518
				C2122.01,563.068,2138.234,589.379,2138.234,589.379z"/>
		</g>
		<g>
			<path style="fill:#323657;" d="M2049.17,404.934c0,0,8.557-1.063,18.638,1.649
				C2067.808,406.583,2055.711,409.845,2049.17,404.934z"/>
		</g>
		<g>
			<path style="fill:#323657;" d="M1867.681,425.733c0,0,7.028-4.857,18.471-5.657
				C1886.151,420.077,1879.99,426.896,1867.681,425.733z"/>
		</g>
	</g>
</g>
</svg>
