<svg version="1.1" id="Layer_1" xmlns="http://www.w3.org/2000/svg" x="0" y="0" viewBox="0 0 45 45" style="enable-background:new 0 0 45 45" xml:space="preserve"><style>.st0{fill:#24a7d0}</style><path style="fill:none;stroke:#48639e;stroke-miterlimit:10" d="M4.77 38.67h35.46"/><path d="M35.47 27.14a.378.378 0 0 0-.28-.12H34.1v-8.93c.12-.06.18-.18.19-.32v-1.62a.36.36 0 0 0-.02-.11V16c-.02-.03-.04-.08-.08-.11l-1.6-1.6a.405.405 0 0 0-.56 0l-1.6 1.6c-.03.03-.06.08-.09.11.01.02.01.03 0 .04-.01.03-.01.06-.01.11v1.62c0 .14.08.26.18.32v2.38l-3.14-2.86V15.4c0-.1-.04-.21-.12-.28s-.18-.12-.28-.12h-1.06l-1.41-2.14v-1.51c0-.03-.01-.06-.02-.1v-.05a.284.284 0 0 0-.08-.11l-1.6-1.6a.4.4 0 0 0-.57 0l-1.6 1.6c-.03.03-.05.06-.08.11v.04c-.01.03-.02.06-.02.1v1.51l-1.41 2.14h-1.14c-.23 0-.4.18-.4.4v2.2l-3.01 2.84v-2.34c.12-.06.18-.18.19-.32v-1.62c-.01-.04-.01-.08-.02-.11V16c-.02-.03-.04-.08-.08-.11l-1.61-1.6c-.06-.08-.17-.12-.28-.12-.1 0-.21.04-.28.12l-1.6 1.6c-.03.03-.05.08-.08.11v.04c-.01.03-.02.06-.02.11v1.62c.01.14.08.26.19.32v8.93H9.81c-.22 0-.4.17-.4.4v1.68c0 .1.04.21.12.28.08.08.18.12.28.12h.54v9.06a.393.393 0 0 0 .4.4h23.51c.23 0 .4-.18.4-.4V29.5h.53c.11 0 .21-.04.28-.12.08-.08.12-.18.12-.28v-1.68c0-.11-.05-.21-.12-.28zm-3.18-12.03.64.64h-1.29l.65-.64zm-1.2 1.43h2.4v.8h-2.4v-.8zm2.21 1.6v8.85h-2.02v-8.85h2.02zm-10.8-7.81.65.64h-1.29l.64-.64zm-1.2 1.44h2.41v.8H21.3v-.8zm-.19 1.6h2.78l1.07 1.62h-4.91l1.06-1.62zm-2.77 2.43h8.19v1.57h-8.19V15.8zm-.24 2.36h8.67l2.65 2.41H15.55l2.55-2.41zm-3.57 3.21h15.95v1.05H14.53v-1.05zm0 1.85h15.95v3.8H26.4v-.09c0-.85-.35-1.67-.94-2.28-.6-.59-1.43-.94-2.28-.94h-1.35c-.85 0-1.67.35-2.28.94-.6.6-.94 1.43-.94 2.28v.09h-4.08v-3.8zm4.88 3.71c0-.64.26-1.25.71-1.71.45-.45 1.07-.71 1.71-.71h1.35c.64 0 1.25.26 1.71.71.45.45.71 1.07.71 1.71v.09h-6.19v-.09zm-6.7-11.8.64.65h-1.27l.63-.65zm-1.2 1.43h2.4v.8h-2.4v-.8zm2.22 1.6v8.86h-2.02v-8.86h2.02zm-1.07 20.01h-1.52V29.5h1.52v8.67zm2.29 0v-5.85c0-.42.33-.76.76-.76.42 0 .76.33.76.76v5.85h-1.52zm13.6 0v-5.85c0-.42.33-.76.76-.76.42 0 .76.33.76.76l.02 5.85h-1.54zm2.31 0v-5.85c0-.56-.29-1.07-.78-1.35-.49-.28-1.08-.28-1.56 0-.49.28-.78.79-.78 1.35v5.85H26.4V34.6c0-1.39-.75-2.68-1.94-3.37-1.2-.69-2.68-.69-3.89 0a3.88 3.88 0 0 0-1.93 3.37v3.56h-1.37v-5.85c0-.56-.29-1.07-.78-1.35-.49-.28-1.08-.28-1.56 0-.49.28-.78.79-.78 1.35v5.85h-.69V29.5h18.09l.02 8.66h-.71zm-11.43-.05V34.6a3.08 3.08 0 0 1 4.62-2.67 3.1 3.1 0 0 1 1.55 2.67v3.52h-6.17zm12.92.05V29.5h1.51l.02 8.66h-1.53zm2.44-9.47H10.21v-.89h24.58v.89z" style="fill:#48639e"/><path class="st0" d="M26.4 26.93v.05h-.8v-.05c0-.64-.26-1.25-.71-1.71-.45-.45-1.07-.71-1.71-.71h-1.35c-.64 0-1.25.26-1.71.71-.45.45-.71 1.07-.71 1.71v.05h-.8v-.05c0-.85.33-1.67.94-2.28.6-.59 1.43-.94 2.28-.94h1.35c.85 0 1.67.35 2.28.94.59.61.94 1.43.94 2.28zM17.26 32.31v5.85h-.8v-5.85c0-.42-.33-.76-.76-.76-.42 0-.76.33-.76.76v5.85h-.8v-5.85c0-.56.29-1.07.78-1.35.48-.28 1.07-.28 1.56 0s.78.79.78 1.35zM24.45 31.23c-1.2-.69-2.68-.69-3.89 0a3.88 3.88 0 0 0-1.93 3.37v3.56h7.77V34.6c0-1.39-.75-2.68-1.95-3.37zm1.15 6.89h-6.17V34.6a3.08 3.08 0 0 1 4.62-2.67 3.1 3.1 0 0 1 1.55 2.67v3.52zM30.86 32.31v5.85h-.78l-.02-5.85c0-.42-.33-.76-.76-.76-.42 0-.76.33-.76.76v5.85h-.8v-5.85c0-.56.29-1.07.78-1.35.48-.28 1.07-.28 1.56 0s.78.79.78 1.35z"/></svg>