<svg version="1.1" id="Layer_1" xmlns="http://www.w3.org/2000/svg" x="0" y="0" viewBox="0 0 45 45" style="enable-background:new 0 0 45 45" xml:space="preserve"><style>.st0{fill:#24a7d0}.st1{fill:#48639e}</style><path style="fill:none;stroke:#48639e;stroke-miterlimit:10" d="M4.78 38.67H40.23"/><path class="st1" d="M25.31 8.99a.43.43 0 0 0-.31-.12h-.28v-.64c0-.52-.19-1.03-.52-1.43-.33-.38-.77-.64-1.26-.74V5.02c0-.24-.2-.44-.44-.44-.23 0-.43.2-.43.44v1.04c-.49.1-.93.36-1.26.74-.33.4-.52.91-.52 1.43v.64h-.28c-.24 0-.44.19-.44.43v1.43c0 .11.05.22.13.3.08.09.19.13.31.13h.28v2.71h.07l.01-.01.78-.52v-2.18h2.71v2.13c.32.13.61.32.86.54v-2.67H25c.12 0 .23-.04.31-.13.08-.08.13-.19.13-.3V9.3c0-.11-.05-.22-.13-.31zm-4.16-.76c0-.48.26-.93.68-1.17.41-.23.93-.23 1.35 0 .42.24.68.69.68 1.17v.64h-2.71v-.64zm-.71 2.07v-.57h4.13v.57h-4.13z"/><path class="st1" d="M27.78 24.42h-.25v-8.59c0-.25-.22-.46-.5-.46h-.46c-.12-1.14-.84-2.13-1.85-2.71-.27-.15-.56-.28-.86-.37-.41-.13-.85-.2-1.3-.2-.5 0-.97.08-1.41.23-.31.11-.6.24-.86.41-.96.58-1.63 1.54-1.75 2.64h-.57c-.19 0-.36.1-.44.26l-.06-.01v8.8h-.24c-.27 0-.5.21-.5.46v14.2h11.55v-14.2c0-.25-.23-.46-.5-.46zm-7.42-10.55.01-.01c.22-.21.48-.39.78-.52.42-.2.9-.32 1.41-.32.46 0 .9.1 1.3.27.32.13.61.32.86.54.45.41.76.94.84 1.54h-6.01c.09-.58.38-1.1.81-1.5zm-1.89 2.42h8.06v8.13h-8.06v-8.13zm8.81 21.87h-9.55v-8.59h9.55v8.59zm0-9.51h-9.55v-3.31h9.55v3.31z"/><path class="st0" d="M26.53 19.37v1.56c0-.49-.45-.89-1-.89-.56 0-1.01.4-1.01.89v3.49h-1v-3.48c0-.5-.45-.9-1.02-.9-.56 0-1.02.4-1.02.9v3.48h-1v-3.49c0-.49-.45-.89-1-.89-.56 0-1.01.4-1.01.89v-1.56c.31-.17.65-.25 1.01-.25.58 0 1.12.22 1.51.62.38-.4.93-.62 1.51-.62.59 0 1.13.22 1.52.62.38-.4.92-.62 1.51-.62.35 0 .7.08 1 .25zM27.28 32.46v1.68c0-.61-.57-1.11-1.26-1.11s-1.25.5-1.25 1.11v4.02h-1v-4c0-.62-.57-1.13-1.27-1.13s-1.27.51-1.27 1.13v4h-1v-4.02c0-.61-.56-1.11-1.25-1.11s-1.25.5-1.25 1.11v-1.68c.37-.23.8-.35 1.25-.35.69 0 1.33.28 1.76.76.43-.48 1.08-.76 1.76-.76.69 0 1.34.28 1.77.76.42-.48 1.07-.76 1.75-.76.45 0 .89.12 1.26.35z"/></svg>