<svg version="1.1" id="Layer_1" xmlns="http://www.w3.org/2000/svg" x="0" y="0" viewBox="0 0 45 45" style="enable-background:new 0 0 45 45" xml:space="preserve"><style>.st0{fill:#24a7d0}</style><path style="fill:none;stroke:#48639e;stroke-miterlimit:10" d="M4.77 38.67h35.46"/><path class="st0" d="M12.65 22.39a1.67 1.67 0 0 0-1.7 0c-.53.3-.85.86-.85 1.47v4.67c0 .14.05.27.14.36.1.1.23.15.36.15h2.39a.515.515 0 0 0 .51-.51v-4.67c0-.6-.33-1.17-.85-1.47zm-.17 5.63h-1.37v-4.16c0-.24.13-.47.34-.59a.66.66 0 0 1 .69 0c.21.12.34.35.34.59v4.16zM34.06 22.39c-.53-.3-1.18-.3-1.71 0-.52.3-.85.86-.85 1.47v4.67a.515.515 0 0 0 .51.51h2.39c.13 0 .26-.05.36-.15.09-.09.14-.22.14-.36v-4.67c0-.61-.32-1.17-.84-1.47zm-.17 5.63h-1.37v-4.16c0-.24.13-.47.34-.59a.66.66 0 0 1 .69 0c.21.12.34.35.34.59v4.16z"/><path d="m34.84 14.37-.29-1.43c-.02-1.42-.82-2.12-1.07-2.25a.484.484 0 0 0-.26-.07c-.1 0-.19.02-.27.07-.01.01-1.05.62-1.07 2.24l-.3 1.48c-1.48.92-1.92 3.02-1.94 4.13v2.68h-.56c-.15-1.37-.92-5.34-4.7-6.33l-.29-1.47c-.01-1.77-1-2.61-1.32-2.84a.567.567 0 0 0-.55.01c-.13.08-1.29.89-1.31 2.81l-.29 1.5c-3.79 1.02-4.56 4.95-4.72 6.31h-.54v-2.67c-.01-1.12-.42-3.25-1.92-4.17l-.3-1.43c-.02-1.42-.82-2.12-1.07-2.25a.495.495 0 0 0-.27-.07c-.09 0-.18.02-.26.07-.01.01-1.05.62-1.07 2.24l-.3 1.48c-1.39.84-1.92 2.73-1.95 4.1v.06l.01 19.97a.515.515 0 0 0 .51.51h27.52a.515.515 0 0 0 .51-.51v-19.9c.01-.04.02-.08.02-.12 0-1.11-.41-3.22-1.95-4.15zM22.5 11.69c.3.36.49.8.55 1.27h-1.11c.06-.47.25-.91.56-1.27zm-.67 2.28h1.33l.15.72c-.26-.02-.53-.04-.79-.04-.29 0-.57.02-.85.05l.16-.73zm.67 1.7c4.54 0 5.4 4.08 5.57 5.56H27v-.37a.506.506 0 0 0-.5-.49h-1.39c-.21-1.07-1-2.18-2.62-2.18s-2.42 1.11-2.64 2.18h-1.38c-.28 0-.51.23-.51.51v.34H16.9c.17-1.47 1.07-5.55 5.6-5.55zm3.49 5.7v1.37h-7.02v-1.37h1.34a.5.5 0 0 0 .5-.49c0-.02.02-1.69 1.68-1.69 1.53 0 1.65 1.4 1.66 1.68 0 .28.23.5.51.5h1.33zM11.8 11.83c.13.2.23.43.27.66h-.55c.04-.23.14-.46.28-.66zm-.42 1.66h.83l.1.49a3.814 3.814 0 0 0-1.04.01l.11-.5zm.42 1.46c1.9 0 2.38 2.04 2.5 3.07H9.28c.13-1.03.62-3.07 2.52-3.07zm.68 23.08h-1.37v-4.84h1.37v4.84zm1.87.02h-.85v-5.37c0-.13-.06-.26-.15-.36a.554.554 0 0 0-.36-.15H10.6c-.28 0-.5.23-.5.51v5.35h-.86v-19h5.11v19.02zm6.4-.02h-1.96v-2.95c.01-.34.2-.65.5-.81.3-.17.66-.17.96 0 .3.16.49.47.5.8v2.96zm5.79 0h-1.96v-2.96c0-.35.18-.67.49-.85.3-.17.68-.17.98 0 .3.18.49.5.49.85v2.96zm3.1 0h-2.08v-2.96c0-.71-.39-1.37-1-1.73-.62-.35-1.38-.35-2 0-.62.36-1 1.02-1 1.73v2.96h-1.79v-2.96c-.03-.7-.41-1.32-1.02-1.67-.61-.33-1.35-.33-1.96 0-.6.34-.99.98-1.02 1.67v2.96h-2.41V31.4h14.28v6.63zm-11.1-7.64h-1.25V25.8h1.25v4.59zm4.56 0h-1.24V25.8h1.24v4.59zm4.57 0h-1.24V25.8h1.24v4.59zm1.97 0h-.95v-5.1c0-.13-.06-.26-.15-.36a.554.554 0 0 0-.36-.15h-2.26c-.28 0-.51.23-.51.51v5.1h-1.28v-5.1a.51.51 0 0 0-.5-.51h-2.28a.51.51 0 0 0-.5.51v5.1h-1.28v-5.1c0-.13-.06-.26-.15-.36a.554.554 0 0 0-.36-.15h-2.28c-.28 0-.51.23-.51.51v5.1h-.91v-8.16h2.6v1.02a.515.515 0 0 0 .51.51h8.02a.515.515 0 0 0 .51-.51v-1.02h2.64v8.16zm3.57-18.56c.13.2.23.43.27.66h-.55c.05-.23.14-.46.28-.66zm-.42 1.68h.83l.1.48c-.34-.06-.69-.05-1.02 0l.09-.48zm.19 1.45h.24c1.9 0 2.38 2.05 2.51 3.07H30.7c.12-.98.58-2.9 2.28-3.07zm.91 23.07h-1.37v-4.84h1.37v4.84zm1.87.02h-.86v-5.37c0-.13-.05-.26-.14-.36a.554.554 0 0 0-.36-.15h-2.39c-.28 0-.51.23-.51.51v5.35h-.85v-19h5.11v19.02z" style="fill:#48639e"/><path class="st0" d="M19.57 25.29v5.1h-1.03V25.8h-1.25v4.59h-1.02v-5.1c0-.28.23-.51.51-.51h2.28c.13 0 .26.06.36.15.09.1.15.23.15.36zM24.13 25.29v5.1H23.1V25.8h-1.24v4.59h-1.01v-5.1c0-.28.22-.5.5-.51h2.28a.51.51 0 0 1 .5.51zM28.69 25.29v5.1h-1.02V25.8h-1.24v4.59h-1.02v-5.1c0-.28.23-.51.51-.51h2.26c.13 0 .26.06.36.15.09.1.15.23.15.36z"/></svg>