<svg version="1.1" id="Layer_1" xmlns="http://www.w3.org/2000/svg" x="0" y="0" viewBox="0 0 45 45" style="enable-background:new 0 0 45 45" xml:space="preserve"><style>.st0{fill:#24a7d0}</style><path style="fill:none;stroke:#48639e;stroke-miterlimit:10" d="M4.77 38.67h35.46"/><path class="st0" d="M15.54 18.3h.99v.99h-.99v-.99zM15.54 22.28h.99v.99h-.99v-.99zM14.55 26.25h.99v.99h-.99v-.99zM16.54 26.25h.99v.99h-.99v-.99zM14.55 28.24h.99v.99h-.99v-.99zM16.54 28.24h.99v.99h-.99v-.99zM14.55 30.22h.99v.99h-.99v-.99zM16.54 30.22h.99v.99h-.99v-.99zM14.55 32.21h.99v.99h-.99v-.99zM16.54 32.21h.99v.99h-.99v-.99zM14.55 34.2h.99v.99h-.99v-.99zM16.54 34.2h.99v.99h-.99v-.99zM28.46 18.3h.99v.99h-.99v-.99zM28.46 22.28h.99v.99h-.99v-.99zM29.46 26.25h.99v.99h-.99v-.99zM27.47 26.25h.99v.99h-.99v-.99zM29.46 28.24h.99v.99h-.99v-.99zM27.47 28.24h.99v.99h-.99v-.99zM29.46 30.22h.99v.99h-.99v-.99zM27.47 30.22h.99v.99h-.99v-.99zM29.46 32.21h.99v.99h-.99v-.99zM27.47 32.21h.99v.99h-.99v-.99zM29.46 34.2h.99v.99h-.99v-.99zM27.47 34.2h.99v.99h-.99v-.99z"/><path d="M32.44 38.17V24.76a.47.47 0 0 0-.15-.35.51.51 0 0 0-.35-.15v-3.48a.47.47 0 0 0-.15-.35.51.51 0 0 0-.35-.15V16.8a.47.47 0 0 0-.15-.35.51.51 0 0 0-.35-.15v-1.49c0-.08-.02-.15-.05-.22l-1.44-2.88V9.36h-.99v2.36l-1.44 2.88c-.04.07-.05.15-.05.22v1.49c-.27 0-.5.22-.5.5v3.48c-.27 0-.5.22-.5.5v3.48c-.27 0-.5.22-.5.5v1.49h-5.96v-1.49a.47.47 0 0 0-.15-.35.51.51 0 0 0-.35-.15v-3.48a.47.47 0 0 0-.15-.35.51.51 0 0 0-.35-.15v-3.48a.47.47 0 0 0-.15-.35.51.51 0 0 0-.35-.15v-1.49c0-.08-.02-.15-.05-.22l-1.44-2.88V9.36h-.99v2.36l-1.44 2.88c-.04.07-.05.15-.05.22v1.49c-.27 0-.5.22-.5.5v3.48c-.27 0-.5.22-.5.5v3.48c-.27 0-.5.22-.5.5v13.41H7.6v.99h29.8v-.99h-4.96zm-16.4-25.21.69 1.37h-1.37l.68-1.37zm-.99 2.36h1.99v.99h-1.99v-.99zm-.5 1.99h2.98v2.98h-2.98v-2.98zm-.5 3.97h3.97v2.98h-3.97v-2.98zm4.48 16.89h-4.97V25.26h4.97v12.91zm.99-8.94h1.78l-1.78 1.78v-1.78zm5.96 8.94h-5.96v-5.76l2.98-2.98 2.98 2.98v5.76zm0-7.16-1.78-1.78h1.78v1.78zm0-2.77h-5.96v-.99h5.96v.99zm3.48-15.28.69 1.37h-1.37l.68-1.37zm-1 2.36h1.99v.99h-1.99v-.99zm-.49 1.99h2.98v2.98h-2.98v-2.98zm-.5 3.97h3.97v2.98h-3.97v-2.98zm4.47 16.89h-4.97V25.26h4.97v12.91z" style="fill:#48639e"/></svg>