<svg version="1.1" id="Layer_1" xmlns="http://www.w3.org/2000/svg" x="0" y="0" viewBox="0 0 45 45" style="enable-background:new 0 0 45 45" xml:space="preserve"><style>.st0{fill:#24a7d0}</style><path style="fill:none;stroke:#48639e;stroke-miterlimit:10" d="M4.77 38.67h35.46"/><path class="st0" d="M15.07 31.51v-.02c-.13-1.24-.88-1.73-1.82-2.35l-.16-.11c-.15-.1-.33-.1-.48 0l-.16.11c-.94.62-1.68 1.12-1.82 2.35v.02l.01.01V34.39c0 .12.04.22.13.31.08.08.19.13.31.13h3.57c.11 0 .23-.05.3-.13.08-.08.13-.19.13-.31v-2.86l-.01-.02zm-3.45-.41c.2-.5.64-.8 1.24-1.19.6.4 1.04.7 1.24 1.19h-2.48zm2.59.87v1.99H11.5v-1.99h2.71zm.79-.45.02-.01h.04l-.06.01zM33.25 29.14l-.16-.11c-.15-.1-.34-.1-.48 0l-.16.11c-.94.62-1.68 1.11-1.82 2.35v2.9c0 .11.05.23.13.31.08.08.19.13.31.13h3.57c.12 0 .22-.04.31-.13.08-.08.13-.19.13-.31V31.48c-.15-1.23-.89-1.72-1.83-2.34zm-1.64 1.96c.2-.49.64-.8 1.24-1.19.6.4 1.04.7 1.24 1.19h-2.48zm2.6.87v1.99H31.5v-1.99h2.71zM11.02 28.27c.08-.08.13-.19.13-.31v-.71c0-.24-.19-.43-.43-.43s-.43.19-.43.43v.71c0 .11.05.22.13.31.08.08.19.13.31.13.1-.01.21-.05.29-.13zM12.14 28.39c.12 0 .22-.04.31-.13.08-.08.13-.19.13-.31v-.71c0-.24-.19-.43-.43-.43s-.43.19-.43.43v.71c0 .12.04.22.13.31.07.09.18.13.29.13zM13.57 28.39c.11 0 .23-.05.3-.13.08-.08.13-.19.13-.31v-.71c0-.24-.19-.43-.43-.43s-.43.19-.43.43v.71c0 .12.04.22.13.31.08.09.19.13.3.13zM15 26.82c-.24 0-.43.19-.43.43v.71c0 .12.04.22.13.31.08.08.19.13.31.13.11 0 .23-.05.3-.13.08-.08.13-.19.13-.31v-.71a.442.442 0 0 0-.44-.43zM31.02 28.27c.08-.08.13-.19.13-.31v-.71c0-.24-.19-.43-.43-.43s-.43.19-.43.43v.71c0 .12.04.22.13.31.08.08.19.13.31.13.1-.01.21-.05.29-.13zM32.14 28.39c.12 0 .22-.04.31-.13.08-.08.13-.19.13-.31v-.71c0-.24-.19-.43-.43-.43s-.43.19-.43.43v.71c0 .11.05.23.13.31.06.09.18.13.29.13zM33.57 28.39c.11 0 .23-.05.3-.13.08-.08.13-.19.13-.31v-.71c0-.24-.19-.43-.43-.43s-.43.19-.43.43v.71c0 .11.05.22.13.31s.18.13.3.13zM35 26.82c-.24 0-.43.19-.43.43v.71c0 .11.05.22.13.31.08.08.19.13.31.13s.22-.04.31-.13c.08-.08.13-.19.13-.31v-.71a.458.458 0 0 0-.45-.43z"/><path d="M37.5 26.25c.11 0 .22-.04.3-.12.08-.09.13-.19.13-.31v-1.43c0-.11-.05-.22-.13-.3a.434.434 0 0 0-.3-.13h-1.71v-3.42h.28c.11 0 .22-.05.3-.13.08-.08.13-.19.13-.3v-1.43a.423.423 0 0 0-.43-.43h-1v-2.71h.28c.12 0 .23-.04.31-.13.08-.08.13-.19.13-.3v-1.43c0-.11-.05-.22-.13-.31a.43.43 0 0 0-.31-.12h-.28v-.64c0-.52-.19-1.03-.52-1.43-.33-.38-.77-.64-1.26-.74V9.39c0-.23-.2-.43-.44-.43-.23 0-.43.2-.43.43v1.05c-.49.1-.93.36-1.26.74-.33.4-.52.91-.52 1.43v.64h-.28c-.24 0-.44.19-.44.43v1.43c0 .11.05.22.13.3.08.09.19.13.31.13h.28v2.71h-1c-.24 0-.43.19-.43.43v1.43c0 .11.04.22.13.3.08.08.19.13.3.13h.28v3.42h-1.27v-1c0-.11-.05-.22-.13-.3s-.19-.13-.31-.13h-.3c.48-.85.73-1.8.74-2.78a5.8 5.8 0 0 0-1.11-3.39c-.71-.98-1.69-1.7-2.83-2.09a1.855 1.855 0 0 0-1.42-1.68h-.87c-.38.09-.72.3-.98.6-.25.3-.41.68-.43 1.08a5.71 5.71 0 0 0-2.84 2.09 5.721 5.721 0 0 0-.37 6.17h-.3c-.24 0-.43.2-.43.43v1h-1.28v-3.42h.28a.423.423 0 0 0 .43-.43v-1.43c0-.12-.04-.23-.12-.31s-.19-.12-.31-.12h-.99v-2.71h.28c.11 0 .22-.04.3-.13.09-.08.13-.19.13-.3v-1.43a.423.423 0 0 0-.43-.43h-.28v-.64a2.218 2.218 0 0 0-1.79-2.17V9.39c0-.23-.19-.43-.43-.43s-.43.2-.43.43v1.05a2.218 2.218 0 0 0-1.79 2.17v.64h-.28c-.24 0-.43.19-.43.43v1.43a.423.423 0 0 0 .43.43h.28v2.71h-.99c-.24 0-.44.19-.44.43v1.43c0 .11.05.22.13.3s.19.13.31.13h.28v3.42H8.22c-.24 0-.43.19-.43.43v1.43c0 .12.04.22.12.31.08.08.19.12.31.12h.28v9.94c-.2.08-.38.22-.5.4-.14.19-.21.42-.21.66v1.42a.43.43 0 0 0 .43.44H37.5c.11 0 .22-.05.3-.13.08-.08.13-.19.13-.31v-1.42c0-.24-.07-.47-.21-.66-.13-.18-.3-.32-.51-.4v-9.94h.29zm-6-13.64a1.353 1.353 0 0 1 2.03-1.17c.42.24.68.69.68 1.17v.64H31.5v-.64zm-.71 1.5h4.13v.57h-4.13v-.57zm3.42 1.43v2.71H31.5v-2.71h2.71zm-4.14 3.57h5.57v.56h-5.57v-.56zm4.85 1.43v3.42h-4.13v-3.42h4.13zm-12.49-7.05c.14-.06.28-.09.43-.09a.982.982 0 0 1 .93.64c-.14-.02-.27-.04-.39-.05-.36-.04-.72-.04-1.08 0-.13.01-.26.03-.4.05.09-.24.27-.43.51-.55zm-3.48 3.27c.65-.85 1.58-1.48 2.62-1.76.19-.05.39-.09.6-.12l.07-.01c.41-.06.83-.06 1.24 0l.15.02c.18.03.35.07.52.11 1.03.28 1.96.91 2.62 1.76.65.85 1.01 1.92 1.01 2.99 0 1-.3 1.96-.87 2.78H18.8c-.57-.82-.87-1.78-.87-2.78.01-1.07.37-2.14 1.02-2.99zm-1.02 6.64h9.85v.56h-9.85v-.56zm-6.42-10.79c0-.48.26-.93.67-1.17.42-.24.94-.24 1.36 0 .41.24.67.69.67 1.17v.64h-2.7v-.64zm-.72 1.5h4.14v.57h-4.14v-.57zm3.42 1.43v2.71h-2.7v-2.71h2.7zm-4.13 3.57h5.56v.56h-5.56v-.56zm4.85 1.43v3.42h-4.14v-3.42h4.14zm-6.28 4.28h28.41v.57H8.65v-.57zm27.7 1.43v9.85h-6.99v-9.85h6.99zm-12.17 3.03-.06-.02c-.34-.08-.69-.17-1.06-.27l-.06-.02a.448.448 0 0 0-.23 0c-.42.12-.82.22-1.18.31h-.03c-1.71.42-3.06.75-3.06 2.25v4.57h-1.28v-7.71H28.5v7.71h-1.28v-4.57c0-1.51-1.28-1.82-3.04-2.25zm-4.72 1.82c.25-.46.98-.65 2.3-.98.3-.07.7-.17 1.13-.28.38.1.75.19 1.08.27 1.32.33 2.06.53 2.29.99h-6.8zm2.96.87v4.13h-3.06v-4.13h3.06zm.87 0h3.06v4.13h-3.06v-4.13zm-6.07-4.44v-1.28H28.5v1.28H17.22zm-.87-1.28v9.85H9.36v-9.85h6.99zm20.71 11.99H8.65v-.99c0-.16.13-.29.28-.29h27.85c.08 0 .15.03.2.09.06.05.09.12.09.2l-.01.99z" style="fill:#48639e"/></svg>