<svg version="1.1" id="Layer_1" xmlns="http://www.w3.org/2000/svg" x="0" y="0" viewBox="0 0 45 45" style="enable-background:new 0 0 45 45" xml:space="preserve"><style>.st0{fill:#24a7d0}.st1{fill:#48639e}</style><path style="fill:none;stroke:#48639e;stroke-miterlimit:10" d="M4.77 38.67h35.46"/><path class="st0" d="M12.04 35.17c-.28 0-.5-.22-.5-.5v-2.13c0-.28.22-.5.5-.5s.5.22.5.5v2.13c0 .28-.22.5-.5.5zM17.18 35.17c-.28 0-.5-.22-.5-.5v-2.13c0-.28.22-.5.5-.5s.5.22.5.5v2.13c0 .28-.22.5-.5.5zM22.32 35.17c-.28 0-.5-.22-.5-.5v-2.13c0-.28.22-.5.5-.5s.5.22.5.5v2.13c0 .28-.22.5-.5.5zM27.46 35.17c-.28 0-.5-.22-.5-.5v-2.13c0-.28.22-.5.5-.5s.5.22.5.5v2.13c0 .28-.23.5-.5.5zM32.6 35.17c-.28 0-.5-.22-.5-.5v-2.13c0-.28.22-.5.5-.5s.5.22.5.5v2.13c0 .28-.23.5-.5.5z"/><path class="st1" d="M26.85 25.04c-.28 0-.5-.22-.5-.5V20.7h-.51c-.28 0-.5-.22-.5-.5s.22-.5.5-.5h1.01c.28 0 .5.22.5.5v4.35c0 .27-.22.49-.5.49zM17.92 25.04c-.28 0-.5-.22-.5-.5V20.2c0-.28.22-.5.5-.5h1.27c.28 0 .5.22.5.5s-.22.5-.5.5h-.77v3.85c0 .27-.22.49-.5.49zM23.52 15.24h-1.99c-.28 0-.5-.22-.5-.5V7.82c0-.28.22-.5.5-.5h1.99c.28 0 .5.22.5.5v6.92c0 .28-.22.5-.5.5zm-1.49-1h.99V8.32h-.99v5.92z"/><path class="st1" d="M25.85 20.7H19.2c-.28 0-.5-.22-.5-.5v-3.4c0-.28.22-.5.5-.5h6.65c.28 0 .5.22.5.5v3.4c0 .27-.23.5-.5.5zm-6.16-1h5.65v-2.4h-5.65v2.4z"/><path class="st1" d="M27.29 17.3h-9.54c-.28 0-.5-.22-.5-.5v-2.06c0-.28.22-.5.5-.5h9.54c.28 0 .5.22.5.5v2.06c0 .27-.23.5-.5.5zm-9.04-1h8.54v-1.06h-8.54v1.06z"/><path class="st0" d="M17.3 32.76c-.22 0-.42-.15-.48-.37-.9-3.21-6.48-2.17-6.53-2.16a.506.506 0 0 1-.59-.4c-.05-.27.12-.53.4-.59.24-.05 5.3-.99 7.17 1.76.61-1.04 1.99-2.39 5.05-2.44 3.48-.05 4.85 1.62 5.36 2.64 1.2-.94 4.18-2.77 7.68-1.2.25.11.37.41.25.66-.11.25-.41.37-.66.25-3.93-1.76-7.1 1.44-7.13 1.48-.13.13-.33.18-.5.13a.515.515 0 0 1-.35-.39c-.02-.1-.55-2.57-4.48-2.57h-.16c-4.11.07-4.53 2.73-4.53 2.76a.51.51 0 0 1-.46.43c-.02 0-.03.01-.04.01z"/><path class="st0" d="M9.76 32.92c-.28 0-.5-.22-.5-.5 0-3.8 1.99-8.34 11.44-8.34h3.4c7.68 0 11.74 2.86 11.74 8.28 0 .28-.22.5-.5.5s-.5-.22-.5-.5c0-6.02-5.84-7.28-10.74-7.28h-3.4c-6.93 0-10.44 2.47-10.44 7.34 0 .27-.23.5-.5.5z"/><path class="st1" d="M36.22 35.3H8.56c-.13 0-.26-.05-.36-.15a.467.467 0 0 1-.14-.36l.02-2.24c0-.27.22-.49.5-.5l27.65-.15c.17-.02.26.05.36.15.09.09.15.22.15.35v2.38c-.02.3-.24.52-.52.52zm-27.16-1h26.66v-1.38l-26.65.14-.01 1.24z"/><path class="st1" d="M37.39 39.02c-.28 0-.5-.22-.5-.5v-3.11L8.12 35.3l.02 3.19c0 .28-.22.5-.5.5-.24.03-.5-.22-.5-.5l-.03-3.7a.51.51 0 0 1 .5-.51l29.77.11c.28 0 .5.22.5.5v3.6a.5.5 0 0 1-.49.53z"/><path class="st1" d="M17.59 38.91c-.07 0-.14-.01-.21-.04a.502.502 0 0 1-.25-.66l1.55-3.44c.12-.25.41-.36.66-.25.25.11.36.41.25.66l-1.55 3.44c-.07.18-.26.29-.45.29zM27.13 39.06c-.2 0-.39-.12-.47-.32l-1.33-3.53c-.1-.26.03-.55.29-.64.26-.1.55.03.64.29l1.33 3.53a.488.488 0 0 1-.46.67z"/><path class="st1" d="M26.46 37.3h-8.15c-.28 0-.5-.22-.5-.5s.22-.5.5-.5h8.15c.28 0 .5.22.5.5s-.22.5-.5.5z"/></svg>