<svg version="1.1" id="Layer_1" xmlns="http://www.w3.org/2000/svg" x="0" y="0" viewBox="0 0 45 45" style="enable-background:new 0 0 45 45" xml:space="preserve"><style>.st0{fill:#24a7d0}</style><path class="st0" d="M24.11 22.68a2.278 2.278 0 0 0-3.23 0c-.42.42-.67 1-.67 1.61 0 .6.24 1.18.67 1.61.43.42 1.01.67 1.62.67a2.286 2.286 0 0 0 2.28-2.28 2.33 2.33 0 0 0-.67-1.61zm-.57 2.64a1.483 1.483 0 0 1-2.09 0c-.27-.27-.43-.64-.43-1.04 0-.39.16-.77.43-1.05s.65-.43 1.05-.43c.39 0 .76.16 1.04.43s.43.65.43 1.05-.16.77-.43 1.04zM14.39 29.33a.425.425 0 0 0-.29-.12h-2.4c-.22 0-.4.18-.4.4v3.49c0 .22.18.4.4.4h2.41c.22 0 .39-.18.39-.4v-3.49a.355.355 0 0 0-.11-.28zm-.69 3.37h-1.6v-2.68h1.6v2.68zM33.57 29.33a.425.425 0 0 0-.29-.12h-2.41a.4.4 0 0 0-.39.4v3.49c0 .22.18.4.39.4h2.42a.4.4 0 0 0 .39-.4v-3.49a.325.325 0 0 0-.11-.28zm-.68 3.37h-1.61v-2.68h1.61v2.68z"/><path d="m37.24 27.35-1.6-3.24a.378.378 0 0 0-.36-.22h-4.39v-.8h1.19c.22 0 .4-.18.4-.4v-1.6c0-.11-.04-.2-.12-.29a.425.425 0 0 0-.29-.12h-1.13c-.46-6.21-5.67-6.88-5.73-6.88h-5.46c-.05 0-5.24.65-5.73 6.88h-1.13a.4.4 0 0 0-.29.12c-.07.07-.12.18-.12.29v1.6c0 .12.04.21.12.29.07.07.18.12.29.12h1.19v.8H9.71c-.15 0-.29.08-.36.22l-1.6 3.24c-.06.12-.05.26.02.39.07.12.2.19.34.18H9.3v10.75c0 .11.04.2.12.27.08.07.18.12.29.12h25.58a.4.4 0 0 0 .29-.12c.07-.07.12-.17.12-.27V27.92h1.19c.15.01.27-.06.35-.18.06-.13.06-.27 0-.39zM19.84 14.6h5.31c.38.05 4.56.73 5 6.07h-2.5c-.19-.94-1.07-3.19-5.14-3.19-4.09 0-4.97 2.25-5.14 3.19h-2.51c.43-5.34 4.61-6.02 4.98-6.07zm-6.53 7.69v-.81h4.39c.21 0 .39-.17.4-.39 0-.12.1-2.8 4.39-2.8s4.38 2.69 4.39 2.8c0 .11.04.21.12.29.07.07.18.12.29.12h4.39v.8h-5.64c-.16-.81-.8-2.59-3.55-2.59-2.76 0-3.4 1.77-3.56 2.59h-5.62zm16.78.79v4h-2.4v-4h2.4zm-3.19 0v4h-8.8v-4h1.2a.4.4 0 0 0 .29-.12c.07-.07.12-.18.12-.29 0-.08.03-2.18 2.8-2.18 2.69 0 2.79 1.96 2.79 2.18 0 .11.04.21.12.29.08.07.18.12.29.12h1.19zm-9.59 0v4h-2.4v-4h2.4zm-8.56 4.05 1.2-2.44h4.16v2.44H8.75zm4.96 11.14h-1.6v-2.69h1.6v2.69zm2 0h-1.2v-3.1c0-.11-.04-.2-.12-.27s-.18-.12-.29-.12h-2.4a.4.4 0 0 0-.4.39v3.1h-1.19V27.92l5.6-.01v10.36zm5.79 0v-5.93h2v5.93h-2zm2.79 0v-6.32a.4.4 0 0 0-.12-.29.436.436 0 0 0-.27-.11h-2.79c-.22 0-.4.18-.4.4v6.32h-1v-6c0-.99.53-1.92 1.39-2.42a2.8 2.8 0 0 1 2.8 0c.87.5 1.39 1.43 1.39 2.42v6h-1zm4.2 0h-2.4v-6c0-1.28-.69-2.47-1.8-3.12a3.665 3.665 0 0 0-3.6 0c-1.11.64-1.8 1.84-1.8 3.12v6h-2.4v-10.4h11.99v10.4zm4.41 0h-1.61v-2.69h1.61v2.69zm1.98 0h-1.19v-3.1c0-.11-.04-.2-.12-.27s-.18-.12-.29-.12h-2.41c-.21 0-.39.18-.39.39v3.1H29.3V27.92h5.59v10.35zm-3.99-11.14v-2.44h4.14l1.21 2.44h-5.35z" style="fill:#48639e"/><path class="st0" d="M24.29 31.96v6.32h-.79v-5.93h-2v5.93h-.79v-6.32c0-.22.18-.4.4-.4h2.79c.11 0 .2.04.27.12.08.06.12.17.12.28z"/><path class="st0" d="M26.09 32.27v6h-.8v-6c0-.99-.53-1.92-1.39-2.42a2.8 2.8 0 0 0-2.8 0c-.87.5-1.39 1.43-1.39 2.42v6h-.8v-6c0-1.28.69-2.47 1.8-3.12 1.12-.63 2.48-.63 3.6 0a3.63 3.63 0 0 1 1.78 3.12z"/><path style="fill:none;stroke:#48639e;stroke-miterlimit:10" d="M4.77 38.67h35.46"/></svg>