<svg version="1.1" id="Layer_1" xmlns="http://www.w3.org/2000/svg" x="0" y="0" viewBox="0 0 45 45" style="enable-background:new 0 0 45 45" xml:space="preserve"><style>.st0{fill:#24a7d0}.st1{fill:#48639e}</style><path class="st1" d="M30.48 31.49h-.01l-5.86-.15a.508.508 0 0 1-.49-.51c.01-.28.24-.5.51-.49l5.86.15a.5.5 0 0 1-.01 1zM37.56 35.91h-4.25c-.28 0-.5-.22-.5-.5s.22-.5.5-.5h4.25c.28 0 .5.22.5.5s-.22.5-.5.5zM25.93 19.96h-.05l-1.78-.17a.5.5 0 0 1-.45-.54c.03-.28.27-.48.54-.45l1.78.17a.5.5 0 0 1 .45.54c-.01.26-.23.45-.49.45zM20.75 27.87h-.05l-1.78-.17a.5.5 0 0 1-.45-.54.5.5 0 0 1 .54-.45l1.78.17a.5.5 0 0 1 .45.54.49.49 0 0 1-.49.45zM23.78 34.88h-.03l-3.03-.17a.49.49 0 0 1-.47-.53c.01-.28.25-.5.53-.47l3.03.17c.28.01.49.25.47.53a.51.51 0 0 1-.5.47zM31.76 23.45h-.04l-2.03-.15a.494.494 0 0 1-.46-.53c.02-.28.26-.48.53-.46l2.03.15c.28.02.48.26.46.53-.01.26-.23.46-.49.46z"/><path class="st1" d="M15.75 32.89a.505.505 0 0 1-.43-.76l11.39-19.28a.505.505 0 0 1 .87.51l-11.4 19.29a.52.52 0 0 1-.43.24z"/><path class="st0" d="M12.34 38.94a.494.494 0 0 1-.45-.7l1.05-2.36c-.21-.06-.48-.15-.79-.26a.501.501 0 0 1 .34-.94c.77.28 1.25.39 1.25.39a.498.498 0 0 1 .35.69l-1.28 2.89c-.1.18-.28.29-.47.29z"/><path class="st1" d="M30.93 27.54c-.27 0-.49-.22-.5-.49-.01-.28.21-.5.49-.51l2.58-.06h.01c.27 0 .49.22.5.49.01.28-.21.5-.49.51l-2.58.06h-.01z"/><path class="st1" d="M23.22 39c-.03 0-.05 0-.08-.01a.505.505 0 0 1-.42-.57l3.98-25.38c.03-.22.21-.39.42-.42.22-.03.43.08.52.28l11.93 25.23a.504.504 0 0 1-.91.43L27.44 14.8l-3.73 23.78c-.04.24-.25.42-.49.42z"/><path class="st0" d="M7.09 39.05a.51.51 0 0 1-.31-.11.496.496 0 0 1-.08-.7l1.86-2.35.03-2.62-.36.34c-.1.1-.25.15-.39.14a.492.492 0 0 1-.36-.2l-2.02-2.7a.503.503 0 0 1-.08-.43l.42-1.6c.02-.07.05-.13.09-.18l1.12-1.43c.08-.1.18-.16.3-.18l2.16-.39-.25-1.5a.46.46 0 0 1 .14-.43c.11-.11.28-.17.43-.14l2 .31c.08.02 4.55 1.07 4.44 7.36l1.46 1.95 1.73 1.02c.11.07.2.17.23.3l.75 2.8a.5.5 0 0 1-.35.61.504.504 0 0 1-.61-.35l-.7-2.6-1.64-.96a.47.47 0 0 1-.15-.13l-1.63-2.17c-.07-.09-.1-.2-.1-.32.17-5.63-3.58-6.51-3.62-6.52l-1.29-.2.23 1.29c.02.13 0 .27-.08.38-.08.11-.19.18-.32.21l-2.47.44-.94 1.2-.33 1.27 1.53 2.06.81-.77a.495.495 0 0 1 .84.36l-.05 3.97c0 .11-.04.22-.11.3l-1.97 2.48c-.07.13-.21.19-.36.19z"/><path style="fill:none;stroke:#48639e;stroke-miterlimit:10" d="M4.77 38.67h35.46"/></svg>