<svg version="1.1" id="Layer_1" xmlns="http://www.w3.org/2000/svg" x="0" y="0" viewBox="0 0 45 45" style="enable-background:new 0 0 45 45" xml:space="preserve"><style>.st0{fill:#24a7d0}</style><path style="fill:none;stroke:#48639e;stroke-miterlimit:10" d="M4.77 38.67h35.46"/><path class="st0" d="M19.48 35.56c.08.08.2.13.32.13s.23-.05.32-.13l1.12-1.07c.09-.09.14-.2.14-.33v-2.14a.47.47 0 0 0-.14-.33l-1.12-1.07a.453.453 0 0 0-.63 0l-1.12 1.07c-.09.09-.14.2-.14.33v2.14c0 .12.05.24.14.33l1.11 1.07zm-.34-3.35.66-.63.67.63v1.75l-.67.64-.66-.63v-1.76zM24.89 35.58c.09.08.2.13.32.12.12 0 .23-.04.32-.12l1.12-1.07c.09-.09.14-.2.14-.33v-2.14a.47.47 0 0 0-.14-.33l-1.12-1.07a.453.453 0 0 0-.63 0l-1.12 1.07c-.09.09-.14.2-.14.33v2.14c0 .12.05.24.14.33l1.11 1.07zm-.35-3.35.67-.63.66.63v1.74l-.66.63-.67-.63v-1.74z"/><path d="M37.61 28.95v-2.51h1.61c.13 0 .25-.05.34-.15.09-.09.13-.22.12-.35l-.73-8.83a.438.438 0 0 0-.2-.34.45.45 0 0 0-.39-.06l-3.25.98h-.7l-.23-2.82a.467.467 0 0 0-.2-.34.45.45 0 0 0-.39-.06l-2.36.71-.06-.85a.44.44 0 0 0-.24-.37.487.487 0 0 0-.44 0l-1.68.95-4.59-.73c-.89-.99-1.33-1.61-1.34-1.62-.02-.02-.03-.04-.05-.06-.01-.02-.03-.03-.04-.04l-.05-.03-.08-.04h-.05c-.03-.02-.06-.03-.09-.04h-.14l-.07.04-.05.03-.04.04-.06.06s-.46.66-1.35 1.66l-4.59.73-1.69-.93a.433.433 0 0 0-.44 0 .44.44 0 0 0-.24.37l-.06.85-2.36-.73a.454.454 0 0 0-.39.06c-.12.08-.19.2-.2.34l-.23 2.82h-.7l-3.25-.98a.45.45 0 0 0-.39.06c-.11.08-.19.2-.2.34l-.73 8.82c-.01.13.03.25.12.35.09.09.21.15.34.15h1.61v2.52L5.5 30.63c-.14.13-.19.33-.13.51.07.18.24.3.43.3h1.61v7.16c0 .12.05.24.13.33.09.09.2.14.33.14h29.31c.12 0 .24-.05.33-.14.09-.09.13-.2.13-.33v-7.16h1.61c.19 0 .36-.12.43-.3s.02-.38-.13-.51l-1.94-1.68zm-3.17-4.76c.13 0 .25-.05.34-.14.09-.09.13-.21.13-.34l-.42-5.1h.69c.05 0 .1-.01.14-.03l2.77-.84.64 7.76-7.2.04-2.6-1.35a.537.537 0 0 0-.21-.05h-1.09v-.07l6.81.12zm.18 2.96-1.33-.69h3.41v2.25h-4.42v-.37c1.43-.16 2.15-.3 2.22-.32.19-.04.34-.19.36-.39a.45.45 0 0 0-.25-.47v-.01zm-2.99-5.59c.17-.05.3-.19.33-.37a.467.467 0 0 0-.19-.45l-.13-.09-.34-4.53 2.01-.61.64 7.75-6.32-.12V21.3c.4.32.81.63 1.25.91a.438.438 0 0 0 .38.06l2.37-.71zm-2.81-5.73c.1.02.2 0 .29-.05l1.2-.66.37 4.85a44.127 44.127 0 0 1-5.45-4.68l3.59.54zm-5.86-1.69c2.22 2.56 4.74 4.85 7.51 6.81l-1.28.37c-3.53-2.4-5.86-6.4-6.23-7.07v-.11zm0 1.88c.58.89 1.22 1.75 1.9 2.56h-1.9v-2.56zm2.72 3.47c.32.34.66.69 1.02 1.02v3.66h-8.4V20.5c.37-.33.7-.67 1.02-1.02h6.36zm-5.54-.91c.69-.82 1.32-1.67 1.9-2.56v2.56h-1.9zm1.9-4.43v.12c-.37.67-2.69 4.66-6.23 7.07l-1.28-.37c2.77-1.97 5.29-4.26 7.51-6.83v.01zm-7.35.97 1.22.66c.09.05.19.07.29.05l3.57-.55c-1.68 1.7-3.5 3.27-5.44 4.68l.36-4.84zm-3 .4 2.02.61-.33 4.53-.13.09a.459.459 0 0 0 .14.82l2.4.7a.438.438 0 0 0 .38-.06c.44-.28.85-.59 1.25-.91v1.85l-6.34.12.61-7.75zm-5.41 10 .64-7.76 2.76.83c.04.01.09.01.13 0h.69l-.41 5.13c-.01.13.03.25.12.35.09.09.21.15.34.15l6.82-.13v.1h-1.1c-.07 0-.15.02-.21.05l-2.6 1.35-7.18-.07zm6.45 12.62H8.31v-6.71h4.42v6.71zm0-7.63H7l1.03-.9h4.71v.9zm0-1.83H8.31v-2.23h3.41l-1.33.69a.48.48 0 0 0-.25.47c.03.19.17.35.36.39.07 0 .8.16 2.22.32v.36zm3.34 9.44h-2.43v-9.69c.69.07 1.5.13 2.43.19v9.5zm5.97 0H17v-9.45c1.44.07 3.12.12 5.06.13l-.02 9.32zm5.98 0h-5.06V28.8c1.94 0 3.62-.06 5.06-.13v9.45zm3.34-7.17v7.18h-2.43v-9.52c.93-.06 1.74-.12 2.43-.19v2.53zm-8.86-3.07c-3.49.03-6.98-.15-10.44-.56l4.34-2.25h12.2l4.35 2.25c-3.47.41-6.96.6-10.45.56zm14.2 10.26h-4.42v-6.71h4.42v6.71zm.45-7.63h-4.88v-.9h4.71l1.03.9h-.86z" style="fill:#48639e"/></svg>