<svg version="1.1" id="Layer_1" xmlns="http://www.w3.org/2000/svg" x="0" y="0" viewBox="0 0 45 45" style="enable-background:new 0 0 45 45" xml:space="preserve"><style>.st0{fill:#24a7d0}</style><path style="fill:none;stroke:#48639e;stroke-miterlimit:10" d="M4.77 38.67h35.46"/><path d="M27.77 19.73c.21.17.52.13.68-.08l7.45-9.63c.16-.21.12-.51-.09-.68l-4.12-3.2a.498.498 0 0 0-.68.08l-8.09 10.47c-.51-.08-1.03-.01-1.51.19l-.45-.35 1.83-2.37c.16-.21.13-.51-.08-.67l-9.63-7.46a.46.46 0 0 0-.36-.09c-.13.01-.24.08-.32.18l-2.12 2.75-1.08 1.38c-.16.21-.12.51.09.67l10.46 8.1c-.04.28-.03.56.01.84l-.27 1.02-2.26-1.75a.491.491 0 0 0-.68.09L9.1 28.86c-.16.21-.12.51.09.67l4.12 3.23c.09.06.19.1.3.1.17-.01.32-.09.39-.22l3.65-4.72-2.79 10.61c-.04.14-.01.3.09.42.09.11.23.18.37.18h14.34c.15 0 .3-.06.39-.18.1-.12.13-.28.09-.42l-2.33-8.87 4.11 3.18c.08.06.2.09.3.1h.05c.13-.02.25-.08.33-.19L34.72 30l1.08-1.37c.08-.1.11-.23.1-.36a.494.494 0 0 0-.18-.32l-10.46-8.09c.08-.51.01-1.04-.19-1.52l.32-.44 2.38 1.83zm7.09-9.92-6.88 8.86L26 17.14l6.85-8.87 2.01 1.54zm-13.64 8.34c.34-.34.8-.53 1.28-.53h.01a1.809 1.809 0 0 1 1.81 1.82 1.809 1.809 0 0 1-1.81 1.81h-.01c-.48 0-.94-.19-1.28-.53-.34-.34-.54-.8-.54-1.28s.2-.95.54-1.29zM12.87 7.09l8.86 6.87-1.53 1.99-8.87-6.87 1.54-1.99zm-2.6 3.36.47-.61 9.82 7.6-.03.03c-.17.17-.32.36-.44.58l-9.82-7.6zm-.11 18.63 6.86-8.88 1.99 1.54-6.86 8.85-1.99-1.51zm3.36 2.59-.61-.47 7.6-9.82c.01.01.02.01.03.02.17.18.37.33.58.45l-7.6 9.82zm15.52 6.49H15.97l3.19-12.2 2.92-3.78c.52.08 1.03.02 1.51-.19l.45.35-1.83 2.37c-.08.1-.12.23-.1.35.02.13.08.25.18.33l4.27 3.3 2.48 9.47zm3.11-6.38-8.88-6.86 1.53-1.99 8.87 6.86-1.52 1.99zm2.6-3.36-.48.61-9.83-7.6.03-.03c.17-.17.32-.37.44-.58l9.84 7.6zM24.49 17.49l-.02-.02c-.18-.18-.38-.32-.59-.45l7.6-9.81.61.47-7.6 9.81z" style="fill:#48639e"/><path class="st0" d="M22.5 26.3c-.61 0-1.18.24-1.61.67-.43.43-.67 1-.67 1.61s.24 1.18.67 1.61c.43.43 1 .67 1.61.67.6 0 1.18-.24 1.61-.67.43-.43.67-1 .67-1.61s-.24-1.18-.67-1.61c-.43-.42-1.01-.67-1.61-.67zm1.31 2.28a1.301 1.301 0 0 1-1.3 1.3h-.1c-.31-.02-.6-.16-.82-.38a1.301 1.301 0 0 1 1.84-1.84c.24.24.38.57.38.92zM25.13 34.6v3.56h-.96l-.02-3.57c.07-.49-.08-.97-.39-1.34-.32-.36-.78-.57-1.26-.57s-.94.21-1.25.57c-.32.37-.46.85-.4 1.32v3.59h-.95v-3.57c-.08-.73.15-1.48.65-2.04s1.22-.88 1.97-.88 1.46.32 1.96.88.74 1.31.65 2.05z"/></svg>