<svg version="1.1" id="Layer_1" xmlns="http://www.w3.org/2000/svg" x="0" y="0" viewBox="0 0 45 45" style="enable-background:new 0 0 45 45" xml:space="preserve"><style>.st0{fill:#24a7d0}.st1{fill:#48639e}</style><path class="st0" d="M25 33.15v5.43h-.96l-.02-5.44c.07-.49-.08-.97-.39-1.34-.32-.36-.78-.57-1.26-.57s-.94.21-1.25.57c-.32.37-.46.85-.4 1.32v5.46h-.95v-5.44c-.08-.73.15-1.48.65-2.04s1.22-.88 1.97-.88 1.46.32 1.96.88.74 1.31.65 2.05z"/><path style="fill:none;stroke:#48639e;stroke-miterlimit:10" d="M4.77 38.67h35.46"/><path class="st0" d="M11.86 30.22a.49.49 0 0 1-.49-.49v-3.55a.49.49 0 0 1 .98 0v3.55c0 .27-.22.49-.49.49zM11.86 37.41a.49.49 0 0 1-.49-.49v-3.55a.49.49 0 0 1 .98 0v3.55c0 .28-.22.49-.49.49z"/><path class="st1" d="M14.32 24.57a.461.461 0 0 0-.15-.26l-.11-.11-1.63-1.52-.43-.41a.493.493 0 0 0-.67.01l-.39.38-1.7 1.62s0 .01-.01.01c-.04.04-.08.09-.1.15-.03.06-.04.12-.04.19v14.03c0 .27.22.49.49.49h4.26c.27 0 .49-.22.49-.49V24.63c0-.02 0-.04-.01-.06zm-.97 13.6h-3.29V24.84l.72-.69.89-.85.9.85.78.73v13.29z"/><path class="st1" d="M12.19 19.98c-.15-.06-.31-.09-.48-.09s-.34.03-.49.09c-.59.19-1.01.75-1.01 1.41 0 .54.29 1.02.73 1.27.22.14.49.22.77.22.26 0 .51-.07.72-.2.46-.24.77-.73.77-1.29 0-.66-.42-1.22-1.01-1.41zm-.63.91c.05-.01.1-.02.15-.02s.1.01.15.02c.21.07.37.26.37.5 0 .29-.24.52-.52.52-.29 0-.52-.23-.52-.52 0-.24.15-.43.37-.5z"/><path class="st1" d="M11.71 20.92a.49.49 0 0 1-.49-.49v-2.18a.49.49 0 0 1 .98 0v2.18c-.01.27-.22.49-.49.49zM13.84 25.12H9.57a.49.49 0 0 1 0-.98h4.26c.27 0 .49.22.49.49.01.27-.21.49-.48.49zM18.06 31.07v.97H9.58a.49.49 0 0 1-.49-.49c0-.26.22-.48.49-.48h8.48zM31.45 31.55c0 .24-.17.43-.39.48-.03.01-.07.01-.1.01H27.2v-.97h3.76c.03 0 .07 0 .1.01.22.05.39.24.39.47z"/><path class="st0" d="M33.45 30.22a.49.49 0 0 1-.49-.49v-3.55a.49.49 0 0 1 .98 0v3.55c0 .27-.22.49-.49.49z"/><path class="st1" d="m35.76 24.31-.11-.1-1.63-1.53-.44-.41a.493.493 0 0 0-.67.01l-.39.37-1.7 1.63a.49.49 0 0 0-.15.35v14.03c0 .27.22.49.49.49h4.27c.26 0 .48-.22.48-.49v-14c0-.14-.05-.26-.15-.35zm-.82 13.86h-3.29V24.84l.72-.69.88-.85.91.85.78.73v13.29z"/><path class="st1" d="M33.78 19.98c-.15-.06-.32-.09-.49-.09-.17 0-.33.03-.48.09-.59.19-1.01.75-1.01 1.41 0 .54.29 1.01.72 1.26.22.15.49.23.77.23.27 0 .51-.07.73-.2.46-.24.77-.73.77-1.29 0-.66-.42-1.22-1.01-1.41zm-.64.91c.05-.01.1-.02.15-.02a.516.516 0 0 1 .53.52.525.525 0 0 1-1.05 0c0-.24.16-.43.37-.5z"/><path class="st1" d="M33.29 20.92a.49.49 0 0 1-.49-.49v-2.18a.49.49 0 0 1 .98 0v2.18c0 .27-.22.49-.49.49zM35.43 25.12h-4.26a.49.49 0 0 1 0-.98h4.26c.27 0 .49.22.49.49-.01.27-.23.49-.49.49z"/><path class="st0" d="M33.45 37.41a.49.49 0 0 1-.49-.49v-3.55a.49.49 0 0 1 .98 0v3.55c0 .28-.22.49-.49.49z"/><path class="st1" d="M35.43 32.04h-4.26a.49.49 0 0 1 0-.98h4.26c.27 0 .49.22.49.49-.01.27-.23.49-.49.49zM31.16 26.3H13.84c-.19 0-.37-.11-.44-.29a.475.475 0 0 1 .08-.52l3.03-3.42a.5.5 0 0 1 .36-.16h11.2c.14 0 .27.06.36.16l3.1 3.42c.13.14.16.35.08.52-.08.18-.26.29-.45.29zm-16.24-.97h15.14l-2.21-2.44H17.08l-2.16 2.44zM31.16 39.15H13.84a.49.49 0 0 1 0-.98h17.32a.49.49 0 0 1 0 .98z"/><path class="st1" d="M28.17 25.81v12.85c0 .27-.22.49-.49.49s-.48-.22-.48-.49V25.81c0-.27.21-.48.48-.48s.49.21.49.48zM18.06 25.81v12.85c0 .27-.22.49-.49.49s-.48-.22-.48-.49V25.81c0-.27.21-.48.48-.48s.49.21.49.48z"/></svg>