<svg version="1.1" id="Layer_1" xmlns="http://www.w3.org/2000/svg" x="0" y="0" viewBox="0 0 45 45" style="enable-background:new 0 0 45 45" xml:space="preserve"><style>.st0{fill:#24a7d0}</style><path class="st0" d="M20.45 7.16a.42.42 0 0 1-.42-.41c0-.23.18-.42.41-.42l4.1-.04c.23 0 .41.18.42.41 0 .23-.18.42-.41.42l-4.1.04z"/><path style="fill:none;stroke:#48639e;stroke-miterlimit:10" d="M4.78 38.67H40.23"/><path class="st0" d="M22.52 9.19a.42.42 0 0 1-.42-.41l-.04-4.1c0-.23.18-.42.41-.42.23 0 .41.18.42.41l.04 4.1c.01.23-.18.42-.41.42zM25.31 33.86h.9c.24 0 .43-.19.43-.43s-.2-.43-.43-.43h-.9c-.24 0-.43.19-.43.43 0 .23.2.43.43.43zM22.04 25.73h.9c.24 0 .43-.19.43-.43s-.19-.43-.43-.43h-.9c-.24 0-.43.19-.43.43s.19.43.43.43zM18.78 33.86h.9c.24 0 .43-.19.43-.43s-.2-.43-.43-.43h-.9c-.24 0-.43.19-.43.43-.01.23.19.43.43.43z"/><path d="m29.52 15.67-6.7-7.43a.43.43 0 0 0-.31-.14h-.01c-.12 0-.24.05-.32.14l-6.7 7.43a.45.45 0 0 0-.07.47c.07.16.23.26.4.26h1.28v5.4h-.24c-.24 0-.44.19-.44.43v1.51c0 .24.2.43.44.43h.24v5.69h-.24c-.24 0-.44.19-.44.43v1.51c0 .24.2.43.44.43h.24v6.48c0 .24.2.44.44.44h9.94c.24 0 .43-.2.43-.44v-6.46h.25c.24 0 .43-.2.43-.44v-1.5c0-.24-.19-.44-.43-.44h-.25v-5.68h.25c.24 0 .43-.2.43-.44v-1.5c0-.24-.19-.44-.43-.44h-.25v-5.4h1.29c.18 0 .33-.1.4-.26a.46.46 0 0 0-.07-.48zm-9.01 22.62h-.84v-1.58c0-.24-.19-.43-.43-.43s-.43.19-.43.43v1.58h-.84v-2.83h2.54v2.83zm3.12 0h-2.26v-3.11c0-.62.51-1.12 1.13-1.12s1.13.5 1.13 1.12v3.11zm3.4 0h-.83v-1.58c0-.24-.2-.43-.43-.43-.24 0-.44.2-.44.43v1.58h-.83v-2.83h2.53v2.83zm0-3.69H24.4a2.001 2.001 0 0 0-1.9-1.41c-.88 0-1.64.57-1.9 1.41h-2.64v-2.35h9.07v2.35zm.69-3.23H17.29v-.64h10.43v.64zm-1.49-4.46c-.21-.72-.87-1.22-1.63-1.22-.76 0-1.42.5-1.64 1.22h-.91c-.22-.72-.88-1.22-1.64-1.22-.76 0-1.42.5-1.63 1.22h-.81v-2.72h9.07v2.72h-.81zm.8.87v2.09h-.72v-2.09h.72zm-1.59-.37v2.46h-1.69v-2.46c0-.47.38-.85.84-.85.47 0 .85.38.85.85zm-2.56.37v2.09h-.76v-2.09h.76zm-1.63-.37v2.46h-1.69v-2.46c0-.47.38-.85.85-.85.46 0 .84.38.84.85zm-2.55.37v2.09h-.74v-2.09h.74zm9.02-4.47H17.29v-.64h10.43v.64zm-.68-3.78v2.27h-9.08v-5.4h9.07l.01 3.13zm-10.26-4 5.72-6.34 5.72 6.34H16.78z" style="fill:#48639e"/><path class="st0" d="M24.5 18.67a2.047 2.047 0 0 0-2.01-1.61c-.97 0-1.79.67-1.99 1.61h-2.54v.86h2.55c.21.94 1.03 1.61 1.99 1.61.97 0 1.79-.67 2-1.61h2.53v-.86H24.5zm-.82.49a1.2 1.2 0 0 1-1.19 1.12c-.64 0-1.17-.53-1.17-1.19 0-.64.53-1.17 1.17-1.17s1.17.51 1.19 1.16l-.02.06.02.02z"/></svg>