<svg version="1.1" id="Layer_1" xmlns="http://www.w3.org/2000/svg" x="0" y="0" viewBox="0 0 45 45" style="enable-background:new 0 0 45 45" xml:space="preserve"><style>.st0{fill:#24a7d0}</style><path style="fill:none;stroke:#48639e;stroke-miterlimit:10" d="M4.77 38.67h35.46"/><path class="st0" d="M33.2 30.64h.99v1.44h-.99v-1.44zM33.2 32.98h.99v1.44h-.99v-1.44zM33.2 35.32h.99v1.44h-.99v-1.44zM10.7 30.64h.99v1.44h-.99v-1.44zM15.93 31.22h.99v2.02h-.99v-2.02zM19.98 31.22h.99v2.02h-.99v-2.02zM24.03 31.22h.99v2.02h-.99v-2.02zM28.08 31.22h.99v2.02h-.99v-2.02zM15.93 34.88h.99v2.02h-.99v-2.02zM28.08 34.88h.99v2.02h-.99v-2.02zM10.7 32.98h.99v1.44h-.99v-1.44zM10.7 35.32h.99v1.44h-.99v-1.44zM22.5 24.89c-.97 0-1.77.79-1.77 1.77 0 .97.79 1.77 1.77 1.77s1.77-.79 1.77-1.77-.8-1.77-1.77-1.77zm0 2.55a.781.781 0 0 1 0-1.56.781.781 0 0 1 0 1.56z"/><path d="M7.17 39.16h30.65a.49.49 0 0 0 0-.98h-1.57v-9.75h.62a.495.495 0 0 0 .44-.73l-2.15-3.86a.484.484 0 0 0-.43-.25h-6.55v-.63h.33a.49.49 0 0 0 0-.98h-.81v-5.06h.3a.49.49 0 0 0 0-.98h-1.81v-.96h.04a.49.49 0 0 0 0-.98h-.69c.06-.41.05-.92-.14-1.41-.23-.57-.68-.99-1.29-1.23-1.08-.42-1.11-1.2-1.11-1.28a.49.49 0 0 0-.98 0c0 .09-.03.86-1.11 1.28-.62.24-1.06.67-1.29 1.23-.2.49-.2.99-.14 1.41h-.69c-.65 0-.65.99 0 .99h.04v.96H17c-.27 0-.49.22-.49.49s.21.46.49.46h.29v5.06h-.54a.49.49 0 0 0 0 .98h.07v.63h-6.56c-.18 0-.35.1-.43.25l-2.14 3.86a.495.495 0 0 0 .44.73h.62v9.75H7.19a.49.49 0 0 0-.49.49c-.02.29.2.51.47.51zm13.35-26.23c.35-.86 1.18-.54 1.98-1.56.8 1.02 1.63.71 1.98 1.56.14.35.12.75.06 1.04h-4.08c-.06-.29-.08-.69.06-1.04zm4.68 2.02v.91h-5.4v-.91h5.4zm-7.4 8h4.42c-.01 0-.01.01-.02.01l-4.4 2.6v-2.61zm5.53-2.66h-1.67v-.79a.828.828 0 0 1 1.42-.58c.16.16.24.36.24.59v.78zm-1.66.99h1.67v.68h-1.67v-.68zm.83 2.65c6.25 3.7 5.02 2.97 8.5 5.03H13.99c.01 0 6.86-4.05 8.51-5.03zm4.7 1.63c-.07-.04-3.81-2.25-3.76-2.22l-.66-.39h4.42v2.61zm-13.45 4.39h17.5v8.22h-6.77v-3.34h-3.96v3.34h-6.77v-8.22zm9.74 8.22h-1.98v-2.36h1.98v2.36zm11.78 0h-3.03v-8.22h.57c.22 0 .42-.15.48-.36a.496.496 0 0 0-.23-.56c-.39-.23-.73-.43-1.03-.61h3.24v9.75zm-.82-13.61 1.6 2.87h-5.68c-.89-.53-.78-.46-2.18-1.29v-1.58h6.26zm-7.73-7.66v5.06h-2.4V19.5c0-.49-.19-.95-.53-1.29-.34-.35-.8-.54-1.29-.54-1 0-1.82.82-1.82 1.82v2.45h-2.4V16.9h8.44zm-16.17 7.66h6.26v1.58l-2.18 1.29H8.96l1.59-2.87zm-.82 3.87h3.24c-.03.01-.97.57-1 .59a.493.493 0 0 0 .21.94h.58v8.22H9.73v-9.75z" style="fill:#48639e"/></svg>