<svg version="1.1" id="Layer_1" xmlns="http://www.w3.org/2000/svg" x="0" y="0" viewBox="0 0 45 45" style="enable-background:new 0 0 45 45" xml:space="preserve"><style>.st0{fill:#24a7d0}.st1{fill:#48639e}</style><path transform="matrix(0.644 -0.765 0.765 0.644 -12.8255 22.5454)" class="st0" d="M.01 24.55h35.61v1H.01z"/><path transform="matrix(0.617 -0.7869 0.7869 0.617 -13.1398 25.2247)" class="st0" d="M3.38 25.61H35.3v1H3.38z"/><path transform="matrix(0.5862 -0.8102 0.8102 0.5862 -13.2342 27.9537)" class="st0" d="M6.19 26.43h29.12v1H6.19z"/><path transform="matrix(0.5481 -0.8364 0.8364 0.5481 -13.2143 31.0486)" class="st0" d="M9.08 27.25h26.11v1H9.08z"/><path transform="matrix(0.4927 -0.8702 0.8702 0.4927 -13.0449 35.1048)" class="st0" d="M12.17 28.24H35v1H12.17z"/><path transform="matrix(0.4212 -0.907 0.907 0.4212 -12.3456 39.8436)" class="st0" d="M14.83 29.1h20.42v1H14.83z"/><path class="st1" d="m26.78 38.81-.98-.17 3.04-16.63-.12-11.62 1.99-.35 1.01 13.83-2.9 14.93-.98-.19 2.88-14.8-.93-12.59-.06.01.1 10.86z"/><path transform="matrix(0.9313 -0.3643 0.3643 0.9313 -7.9333 14.6319)" class="st1" d="M34.32 17.26h1v22.18h-1z"/><path transform="matrix(0.9716 -0.2368 0.2368 0.9716 -6.0211 8.8707)" class="st1" d="M33.42 20.06h1v18.88h-1z"/><path style="fill:none;stroke:#48639e;stroke-miterlimit:10" d="M4.77 38.67h35.46"/></svg>