<svg version="1.1" id="Layer_1" xmlns="http://www.w3.org/2000/svg" x="0" y="0" viewBox="0 0 45 45" style="enable-background:new 0 0 45 45" xml:space="preserve"><style>.st0{fill:#24a7d0}.st1{fill:#48639e}</style><path style="fill:none;stroke:#48639e;stroke-miterlimit:10" d="M4.77 38.67h35.46"/><path class="st1" d="M25.11 33.08v5.43h-.96l-.02-5.44c.07-.49-.08-.97-.39-1.34-.32-.36-.78-.57-1.26-.57s-.94.21-1.25.57c-.32.37-.46.85-.4 1.32v5.46h-.95v-5.44c-.08-.73.15-1.48.65-2.04s1.22-.88 1.97-.88 1.46.32 1.96.88.74 1.31.65 2.05zM34.11 39.13h-3.49a.49.49 0 0 1-.49-.49V17.5c0-.05.01-.09.02-.14l1.94-6.78c.06-.21.26-.36.48-.36h.01c.23.01.42.16.47.38l1.56 6.75c.01.04.01.07.01.11v21.15c-.02.3-.24.52-.51.52zm-3-.99h2.5v-20.6l-1.11-4.83-1.39 4.87v20.56z"/><path class="st1" d="M34.72 17.92h-4.8a.49.49 0 0 1 0-.98h4.8a.49.49 0 0 1 0 .98zM34.01 26.63h-3.44a.49.49 0 0 1 0-.98h3.44a.49.49 0 0 1 0 .98z"/><path class="st0" d="M32.36 23.89a.49.49 0 0 1-.49-.49v-3.56a.49.49 0 0 1 .98 0v3.56c.01.27-.21.49-.49.49zM32.36 35.54a.49.49 0 0 1-.49-.49v-3.56a.49.49 0 0 1 .98 0v3.56c.01.26-.21.49-.49.49z"/><path class="st1" d="M14.47 39.13h-3.49a.49.49 0 0 1-.49-.49V17.5c0-.05.01-.09.02-.14l1.94-6.78c.06-.22.25-.37.49-.36.23.01.42.16.47.38l1.56 6.75c.01.04.01.07.01.11v21.15c-.02.3-.24.52-.51.52zm-3-.99h2.5v-20.6l-1.11-4.83-1.39 4.87v20.56z"/><path class="st1" d="M15.08 17.92h-4.8a.49.49 0 0 1 0-.98h4.8a.49.49 0 0 1 0 .98zM14.55 26.63h-3.62a.49.49 0 0 1 0-.98h3.62a.49.49 0 0 1 0 .98z"/><path class="st0" d="M12.72 23.89a.49.49 0 0 1-.49-.49v-3.56a.49.49 0 0 1 .98 0v3.56c.01.27-.22.49-.49.49zM12.72 35.54a.49.49 0 0 1-.49-.49v-3.56a.49.49 0 0 1 .98 0v3.56a.49.49 0 0 1-.49.49z"/><path class="st1" d="M30.62 39.13H14.55a.47.47 0 0 1-.35-.15.5.5 0 0 1-.14-.35l.09-14.65c0-.13.05-.25.14-.34l8.49-8.87c.1-.1.23-.15.37-.15.14 0 .27.06.36.16l7.43 8.28c.08.09.13.21.13.33l.06 15.24a.5.5 0 0 1-.14.35c-.12.09-.24.15-.37.15zm-15.58-.99h15.08l-.06-14.55-6.94-7.74-7.99 8.34-.09 13.95z"/><path class="st1" d="M23.07 15.4a.49.49 0 0 1-.49-.49l-.07-3.7c-.01-.27.21-.5.49-.5.27-.01.5.21.5.49l.07 3.7c0 .27-.22.49-.5.5.01 0 0 0 0 0z"/><path class="st1" d="M24.38 13.62h-2.95a.49.49 0 0 1 0-.98h2.95a.49.49 0 0 1 0 .98zM28.96 22.11H17.11a.49.49 0 0 1 0-.98h11.85a.49.49 0 0 1 0 .98z"/><path class="st1" d="M24.26 22.11h-2.43a.49.49 0 0 1-.49-.49v-1.93c0-.94.77-1.71 1.71-1.71s1.71.77 1.71 1.71v1.93c0 .27-.22.49-.5.49zm-1.93-.99h1.44v-1.44c0-.4-.32-.72-.72-.72-.4 0-.72.32-.72.72v1.44z"/><path class="st0" d="M18.98 30.75h-2.44a.49.49 0 0 1-.49-.49V25.9a1.72 1.72 0 1 1 3.44 0v4.35a.51.51 0 0 1-.51.5zm-1.94-.99h1.45V25.9c0-.4-.33-.73-.73-.73s-.73.33-.73.73v3.86zM28.55 30.75h-2.44a.49.49 0 0 1-.49-.49V25.9a1.72 1.72 0 1 1 3.44 0v4.35c-.02.28-.24.5-.51.5zm-1.95-.99h1.45V25.9c0-.4-.33-.73-.73-.73-.4 0-.73.33-.73.73v3.86z"/></svg>