<svg version="1.1" id="Layer_1" xmlns="http://www.w3.org/2000/svg" x="0" y="0" viewBox="0 0 45 45" style="enable-background:new 0 0 45 45" xml:space="preserve"><style>.st0{fill:#24a7d0}</style><path style="fill:none;stroke:#48639e;stroke-miterlimit:10" d="M4.77 38.67h35.46"/><path class="st0" d="M10.78 20.58h.9v1.35h-.9v-1.35zM12.58 20.58h.9v1.35h-.9v-1.35zM11.23 27.79h.9v1.35h-.9v-1.35zM11.23 30.05h.9v.9h-.9v-.9zM15.74 33.65h.9v3.61h-.9v-3.61zM17.54 33.65h.9v3.61h-.9v-3.61zM15.74 27.79h.9v3.16h-.9v-3.16zM17.54 27.79h.9v3.16h-.9v-3.16zM21.6 23.28h.9v1.8h-.9v-1.8zM23.4 23.28h.9v1.8h-.9v-1.8zM21.6 27.79h.9v3.16h-.9v-3.16zM23.4 27.79h.9v3.16h-.9v-3.16zM31.07 27.79h.9v3.16h-.9v-3.16zM29.26 27.79h.9v3.16h-.9v-3.16zM31.07 33.65h.9v3.61h-.9v-3.61zM29.26 33.65h.9v3.61h-.9v-3.61z"/><path d="M35.58 38.16V24.07l-3.61-6.32v-1.96l-.9-.45v-.02h-.9v.02l-.91.45v1.96l-1.87 3.28h-9.85v-.01h-.68l-.22.35-1.8 3.31V23.4l.45-.91v-3.38l-.84-1.54-.08-.15-.5-.9-1.29-2.36h-.9l-1.29 2.36-.5.9-.13.25h-.01l-.78 1.44v3.38l.46.9v14.77h-.46v.9h27.06v-.9h-.45zM12.13 15.21l1.95 3.57h-3.89l1.94-3.57zm1.8 22.95h-3.6v-5.41h3.6v5.41zm0-6.31h-3.6v-4.96h3.6v4.96zm0-5.86h-3.6v-2.26h3.6v2.26zm.46-3.72-.28.56h-3.96l-.27-.56v-2.59h4.51v2.59zm15.78-5.92.45-.23.45.23v1.07h-.9v-1.07zm-.2 1.97h1.28l3.1 5.41h-1.99l-1.29-2.36v-.03h-.9v.03l-1.3 2.36h-1.98l3.08-5.41zm2.59 7.67h-3.89l1.95-3.57 1.94 3.57zm-15.47-3.57 1.94 3.57h-3.88l1.94-3.57zm2.25 15.74h-4.5v-5.41h4.5v5.41zm0-6.31h-4.5v-4.96h4.5v4.96zm4.51 6.31h-1.8v-2.7c0-.5.41-.9.9-.9.5 0 .9.4.9.9v2.7zm1.81 0h-.9v-2.7c0-1-.81-1.81-1.81-1.81s-1.8.81-1.8 1.81v2.7h-.9v-5.41h5.41v5.41zm0-6.31h-5.41v-4.96h5.41v4.96zm0-5.86h-5.6l-2.21-4.06h9.02l-1.21 2.14v1.92zm1.8 12.17h-.9v-5.41h.9v5.41zm0-6.31h-.9v-7.21h1.82l-.92 1.69v5.52zm5.41 6.31h-4.51v-5.41h4.51v5.41zm0-6.31h-4.51v-4.96h4.51v4.96zm1.8 6.31h-.9v-5.41h.9v5.41zm0-6.31h-.9v-5.52l-.92-1.69h1.82v7.21z" style="fill:#48639e"/></svg>