<svg version="1.1" id="Layer_1" xmlns="http://www.w3.org/2000/svg" x="0" y="0" viewBox="0 0 45 45" style="enable-background:new 0 0 45 45" xml:space="preserve"><style>.st0{fill:#24a7d0}</style><path style="fill:none;stroke:#48639e;stroke-miterlimit:10" d="M4.77 38.67h35.46"/><path class="st0" d="M16.11 29.89c.23 0 .42-.19.42-.42v-2.91c0-.23-.19-.42-.42-.42-.23 0-.42.19-.42.42v2.91c0 .23.19.42.42.42zM16.11 22.08c-.23 0-.42.19-.42.42v.96c0 .23.19.42.42.42.23 0 .42-.19.42-.42v-.96a.41.41 0 0 0-.42-.42zM28.82 26.13c-.23 0-.42.19-.42.42v2.91c0 .23.19.42.42.42.23 0 .42-.19.42-.42v-2.91c0-.23-.19-.42-.42-.42zM28.82 23.89c.23 0 .42-.19.42-.42v-.96c0-.23-.19-.42-.42-.42-.23 0-.42.19-.42.42v.96c-.01.23.18.42.42.42zM20.78 20.41a1.641 1.641 0 0 0 3.28 0c0-.9-.74-1.64-1.64-1.64-.9 0-1.64.74-1.64 1.64zm2.44 0a.794.794 0 1 1-1.59 0c0-.44.35-.79.79-.79.44 0 .8.36.8.79z"/><path d="M35.67 38.22h-2.02V22.93h.84c.14 0 .28-.07.35-.19.08-.12.1-.27.04-.4l-2.36-5.54a.414.414 0 0 0-.39-.26h-2.89v-.74a.425.425 0 1 0-.85 0v.74h-4.44l-1.11-2.24c-.14-.29-.62-.29-.76 0l-1.11 2.24h-4.44v-.74a.425.425 0 1 0-.85 0v.74h-2.82c-.17 0-.32.1-.39.26l-2.36 5.54a.41.41 0 0 0 .04.4c.07.12.21.19.35.19h.84v15.29H9.32a.425.425 0 0 0 0 .85h26.35a.425.425 0 0 0 0-.85zm-6.86-20.03 1.02 2.18H27.8l1.01-2.18zm-12.7 0 1.01 2.18h-2.03l1.02-2.18zM14 24.76h-.05a.425.425 0 1 0 0 .85H14v4.83h-.47a.425.425 0 0 0 0 .85H14v.9h-.47a.425.425 0 0 0 0 .85H14v5.15h-1.81V22.93H14v1.83zm-.05-3.55H14v.87h-2.86l2-4.69h2.4l-1.39 2.97h-.2a.425.425 0 1 0 0 .85zm3.42 16.98h-2.52v-5.15h2.52v5.15zm0-6h-2.52v-.9h2.52v.9zm0-1.75h-2.52v-4.83h2.52v4.83zm0-5.68h-2.52v-3.54h2.52v3.54zm-.7-7.37h3.88l-2.33 4.69v-.87h.05a.425.425 0 0 0 0-.85h-.21l-1.39-2.97zm3.43 20.8-.03-1.49c0-1.28 1.04-2.31 2.32-2.31 1.27 0 2.32 1.02 2.32 2.32l.02 1.48H20.1zm6.6 0h-1.12l-.02-1.49a3.171 3.171 0 0 0-6.34.01l.03 1.48h-1.03v-5.15h8.48v5.15zm0-6h-8.48v-.9h8.48v.9zm0-7.43h-.05a.425.425 0 0 0 0 .85h.05v4.83h-8.48v-4.83h.05a.425.425 0 0 0 0-.85h-.05v-.77c.6-1.22-.7 1.4 4.24-8.54 2.8 5.63 3.06 6.16 4.24 8.53v.78zm-.05-3.55h.05v.86l-2.32-4.68h3.87l-1.39 2.97h-.21a.425.425 0 0 0 0 .85zm3.42 16.98h-2.52v-5.15h2.52v5.15zm0-6h-2.52v-.9h2.52v.9zm0-1.75h-2.51v-4.83h2.51v4.83zm0-5.68h-2.51v-.87c0-.01-.01-.01-.01-.01v-2.66h2.52v3.54zm-.69-7.37h2.47l2 4.69h-2.93v-.87h.05a.425.425 0 1 0 0-.85h-.2l-1.39-2.97zm3.42 20.8h-1.88v-5.15h.47a.425.425 0 0 0 0-.85h-.47v-.9h.47a.425.425 0 0 0 0-.85h-.47v-4.83h.05a.425.425 0 1 0 0-.85h-.05v-1.83h1.88v15.26z" style="fill:#48639e"/><path class="st0" d="M25.73 26.28v4.16h-.85v-4.16a.525.525 0 0 0-1.05 0v4.16h-.85v-6.02c0-.3-.24-.53-.52-.53-.29 0-.52.24-.52.53v6.02h-.85v-4.16c0-.3-.24-.52-.52-.52-.29 0-.52.23-.52.52v4.16h-.85v-4.16c0-.76.61-1.37 1.37-1.37.18 0 .35.03.52.1v-.59c0-.76.61-1.38 1.37-1.38.74 0 1.37.6 1.37 1.38v.59c.16-.07.34-.1.52-.1.76 0 1.38.61 1.38 1.37z"/></svg>