<svg version="1.1" id="Layer_1" xmlns="http://www.w3.org/2000/svg" x="0" y="0" viewBox="0 0 45 45" style="enable-background:new 0 0 45 45" xml:space="preserve"><style>.st0{fill:#24a7d0}</style><path style="fill:none;stroke:#48639e;stroke-miterlimit:10" d="M4.77 38.67h35.46"/><path class="st0" d="M16.06 17.99c-.84 0-1.53.69-1.53 1.53v1.05c0 .26.21.48.48.48h2.1c.26 0 .48-.21.48-.48v-1.05c0-.85-.69-1.53-1.53-1.53zm.57 1.52v.58h-1.15v-.58c0-.32.26-.58.58-.58.32.01.57.27.57.58zM12.09 17.99c-.84 0-1.53.69-1.53 1.53v1.05c0 .26.21.48.48.48h2.1c.26 0 .48-.21.48-.48v-1.05c0-.85-.69-1.53-1.53-1.53zm.58 1.52v.58h-1.15v-.58c0-.32.26-.58.58-.58s.57.27.57.58zM16.06 23.19c-.84 0-1.53.69-1.53 1.53v1.05c0 .26.21.48.48.48h2.1c.26 0 .48-.21.48-.48v-1.05c0-.84-.69-1.53-1.53-1.53zm.57 1.53v.58h-1.15v-.58c0-.32.26-.58.58-.58.32 0 .57.26.57.58zM12.09 23.19c-.84 0-1.53.69-1.53 1.53v1.05c0 .26.21.48.48.48h2.1c.26 0 .48-.21.48-.48v-1.05c0-.84-.69-1.53-1.53-1.53zm.58 1.53v.58h-1.15v-.58c0-.32.26-.58.58-.58s.57.26.57.58zM16.06 28.4c-.84 0-1.53.69-1.53 1.53v1.05c0 .26.21.48.48.48h2.1c.26 0 .48-.21.48-.48v-1.05c0-.85-.69-1.53-1.53-1.53zm.57 1.52v.58h-1.15v-.58c0-.32.26-.58.58-.58.32.01.57.27.57.58zM12.09 28.4c-.84 0-1.53.69-1.53 1.53v1.05c0 .26.21.48.48.48h2.1c.26 0 .48-.21.48-.48v-1.05c0-.85-.69-1.53-1.53-1.53zm-.58 1.52a.58.58 0 0 1 1.16 0v.58h-1.15v-.58zM33.02 17.99c-.84 0-1.53.69-1.53 1.53v1.05c0 .26.21.48.48.48h2.1c.26 0 .48-.21.48-.48v-1.05c-.01-.85-.69-1.53-1.53-1.53zm.57 1.52v.58h-1.15v-.58c0-.32.26-.58.58-.58s.57.27.57.58zM29.05 17.99c-.84 0-1.53.69-1.53 1.53v1.05c0 .26.21.48.48.48h2.1c.26 0 .48-.21.48-.48v-1.05c-.01-.85-.69-1.53-1.53-1.53zm.57 1.52v.58h-1.15v-.58c0-.32.26-.58.58-.58s.57.27.57.58zM33.02 23.19c-.84 0-1.53.69-1.53 1.53v1.05c0 .26.21.48.48.48h2.1c.26 0 .48-.21.48-.48v-1.05c-.01-.84-.69-1.53-1.53-1.53zm.57 1.53v.58h-1.15v-.58c0-.32.26-.58.58-.58s.57.26.57.58zM29.05 23.19c-.84 0-1.53.69-1.53 1.53v1.05c0 .26.21.48.48.48h2.1c.26 0 .48-.21.48-.48v-1.05c-.01-.84-.69-1.53-1.53-1.53zm.57 1.53v.58h-1.15v-.58c0-.32.26-.58.58-.58s.57.26.57.58zM33.02 28.4c-.84 0-1.53.69-1.53 1.53v1.05c0 .26.21.48.48.48h2.1c.26 0 .48-.21.48-.48v-1.05c-.01-.85-.69-1.53-1.53-1.53zm.57 1.52v.58h-1.15v-.58c0-.32.26-.58.58-.58s.57.27.57.58zM29.05 28.4c-.84 0-1.53.69-1.53 1.53v1.05c0 .26.21.48.48.48h2.1c.26 0 .48-.21.48-.48v-1.05c-.01-.85-.69-1.53-1.53-1.53zm-.58 1.52a.58.58 0 0 1 1.16 0v.58h-1.15v-.58zM32.52 15.08c0-1.04-.85-1.89-1.89-1.89s-1.89.85-1.89 1.89.85 1.89 1.89 1.89 1.89-.84 1.89-1.89zm-.95 0a.939.939 0 1 1-1.88 0 .939.939 0 1 1 1.88 0zM23.62 20.95h-2.24a.48.48 0 0 0-.48.48v3.67c0 .26.21.48.48.48h2.24c.26 0 .48-.21.48-.48v-3.67c0-.27-.21-.48-.48-.48zm-.47.95v2.72h-1.29V21.9h1.29zM23.62 26.83h-2.24a.48.48 0 0 0-.48.48v3.67c0 .26.21.48.48.48h2.24c.26 0 .48-.21.48-.48v-3.67c0-.27-.21-.48-.48-.48zm-.47.95v2.72h-1.29v-2.72h1.29z"/><path d="M36.65 15.42a.48.48 0 0 0-.48-.48h-1.41v-1.69c0-.13-.05-.25-.15-.34l-2.02-1.93a.507.507 0 0 0-.33-.13h-3.28c-.12 0-.24.05-.33.13l-2.02 1.93c-.09.09-.15.21-.15.34v1.69h-1.41a.48.48 0 0 0-.48.48v3.9l-1.82-1.36a.465.465 0 0 0-.57 0l-2.14 1.6-.02-4.15c0-.26-.21-.47-.48-.47h-1.42v-1.69a.48.48 0 0 0-.48-.48h-1.55v-1.45a.48.48 0 0 0-.48-.48h-3.28a.48.48 0 0 0-.48.48v1.45h-1.55a.48.48 0 0 0-.48.48v1.69H8.82a.48.48 0 0 0-.48.48v23.27c0 .26.21.48.48.48h27.36c.26 0 .48-.21.48-.48l-.01-23.27zM21.57 35.24c0-.51.42-.93.93-.93s.93.42.93.93v2.97h-1.86v-2.97zm.93-1.88c-1.04 0-1.88.84-1.88 1.88v2.97h-.92V21.04l2.8-2.1 2.8 2.1v17.17h-.93v-2.97c.01-1.04-.83-1.88-1.87-1.88zm7.6 1.88c0-.51.42-.93.93-.93s.93.42.93.93v2.97H30.1v-2.97zm.93-1.88c-1.04 0-1.88.84-1.88 1.88v2.97h-2.89V20.8c0-.15-.07-.29-.19-.38l-.51-.38V15.9h1.41c.26 0 .48-.21.48-.48v-1.96l1.74-1.66h2.9l1.74 1.66v1.96c0 .26.21.48.48.48h1.41v22.32h-2.79v-2.97a1.91 1.91 0 0 0-1.9-1.89zm-18 1.88c0-.51.42-.93.93-.93s.93.42.93.93v2.97h-1.86v-2.97zm.93-1.88c-1.04 0-1.88.84-1.88 1.88v2.97H9.3V15.9h1.06c.26 0 .48-.21.48-.48v-1.69h1.55c.26 0 .48-.21.48-.48V11.8h2.33v1.45c0 .26.21.48.48.48h1.55v1.69c0 .26.21.48.48.48h1.42l.03 4.38-.19.14c-.12.09-.19.23-.19.38v17.41h-2.91v-2.97c-.03-1.04-.87-1.88-1.91-1.88z" style="fill:#48639e"/></svg>