<svg version="1.1" id="Layer_1" xmlns="http://www.w3.org/2000/svg" x="0" y="0" viewBox="0 0 45 45" style="enable-background:new 0 0 45 45" xml:space="preserve"><style>.st0{fill:#24a7d0}</style><path style="fill:none;stroke:#48639e;stroke-miterlimit:10" d="M4.77 38.67h35.46"/><path d="M30.19 15.46h-3.01l-.63-3.25c-.04-.23-.27-.39-.55-.39h-7c-.27 0-.5.16-.55.39l-.63 3.25h-3.01c-.3 0-.55.21-.55.46v2.67c0 .26.25.46.55.46h.07v19.59c0 .26.25.46.55.46h14.13c.3 0 .55-.21.55-.46V19.06h.07c.3 0 .55-.21.55-.46v-2.67c.01-.26-.24-.47-.54-.47zM19.14 34.89v3.29h-3.15v-3.29h3.15zm9.87-4.3v3.38h-3.13v-3.29c.33-.08.62-.22.86-.42.37.31.88.49 1.41.49.3 0 .59-.06.86-.16zm-.86-.77c-.47 0-.86-.29-.86-.65v-1.75h1.72v1.75c0 .36-.38.65-.86.65zm-1.96-2.4v1.75c0 .36-.39.65-.86.65s-.86-.29-.86-.65v-1.75h1.72zm-1.42 3.26v7.51h-4.53v-7.51c.32-.08.61-.22.84-.42.37.31.88.49 1.41.49s1.04-.18 1.41-.49c.25.2.55.34.87.42zm-1.41-1.51c0 .36-.39.65-.86.65s-.86-.29-.86-.65v-1.75h1.72v1.75zm-2.83-1.75v1.75c0 .36-.39.65-.86.65s-.86-.29-.86-.65v-1.75h1.72zm-2.82 1.75c0 .36-.39.65-.86.65s-.86-.29-.86-.65v-1.75h1.72v1.75zm1.43 1.52v3.28h-3.15v-3.38c.75.3 1.7.16 2.27-.33.25.2.55.35.88.43zm9.87 4.2v3.29h-3.13v-3.29h3.13zm0-15.83v7.44H15.98v-7.44h13.03zm.63-2.67v1.75H15.36v-1.75h2.92c.27 0 .5-.16.55-.39l.63-3.25h6.07l.64 3.25c.04.22.27.39.55.39h2.92z" style="fill:#48639e"/><path class="st0" d="M18.47 24.77h2.71c.3 0 .55-.21.55-.46v-3.05c0-.26-.25-.46-.55-.46h-2.71c-.31 0-.55.21-.55.46v3.05c0 .26.25.46.55.46zm.55-.92v-2.13h1.61v2.13h-1.61zM23.97 24.77h2.71c.3 0 .55-.21.55-.46v-3.05c0-.26-.25-.46-.55-.46h-2.71c-.3 0-.55.21-.55.46v3.06c0 .25.25.45.55.45zm.55-.92v-2.13h1.61v2.13h-1.61z"/></svg>