<svg xmlns:xlink="http://www.w3.org/1999/xlink" width="56" height="56" viewBox="0 0 56 56" fill="none" xmlns="http://www.w3.org/2000/svg"><path d="M18.42 44.553a.566.566 0 0 1-.565-.565c0-.34.227-.566.566-.566h3.165l2.938-5.877H11.413A1.4 1.4 0 0 1 10 36.132V13.413A1.4 1.4 0 0 1 11.413 12h33.174A1.4 1.4 0 0 1 46 13.413v22.719a1.4 1.4 0 0 1-1.413 1.413H31.532l2.939 5.877h3.165c.282 0 .565.227.565.566 0 .339-.226.565-.565.565H18.42Zm14.808-1.13-2.94-5.878h-4.52l-2.94 5.877h10.4ZM11.13 36.131c0 .17.17.34.34.34h33.174c.17 0 .339-.17.339-.34v-2.091H11.13v2.091Zm33.796-3.165V13.413c0-.17-.17-.34-.339-.34H11.413c-.17 0-.34.17-.34.34v19.554h33.853Z" fill="#24A7D0"></path><path d="M22.772 30.707c-.17 0-.339-.17-.339-.396 0-.113-.226-12.716-8.081-14.185-.226-.057-.34-.226-.283-.452.057-.17.17-.283.396-.283h.056c5.99 1.13 7.856 8.421 8.42 11.699.396-1.696 1.64-6.443 3.674-6.443 1.922 0 2.826 4.465 3.165 7.178l.057.339.113-.34c.565-1.356 1.582-2.995 3.39-3.22h.057c.17 0 .34.112.396.338 0 .226-.113.396-.34.396-2.712.339-3.39 4.804-3.447 4.973 0 .17-.17.34-.339.34-.226 0-.339-.17-.395-.34-.226-3.673-1.244-8.93-2.657-8.93-1.638 0-2.938 5.483-3.39 8.93-.057.226-.227.396-.453.396Z" fill="#48639E"></path><path d="M37.353 28.842c-2.543 0-4.634-2.091-4.634-4.634 0-2.544 2.09-4.635 4.634-4.635 2.543 0 4.634 2.091 4.634 4.635.057 2.543-2.034 4.634-4.634 4.634Zm0-8.364a3.666 3.666 0 0 0-3.673 3.673 3.666 3.666 0 0 0 3.673 3.674 3.666 3.666 0 0 0 3.673-3.674c.057-2.035-1.638-3.673-3.673-3.673Z" fill="#48639E"></path></svg>