<svg xmlns:xlink="http://www.w3.org/1999/xlink" id="Layer_1" xmlns="http://www.w3.org/2000/svg" x="0" y="0" viewBox="-255 347 100 100" xml:space="preserve" width="42"  height="42" ><style>.st1{fill:#22b1bc}</style><path fill="#3B61AD" d="M-184 420.5h-5.6V398c0-.4-.2-.7-.5-.9l-6.2-3.9v-21.3c0-.6-.5-1.1-1.1-1.1-.6 0-1.1.5-1.1 1.1v6l-8.2 5.1-6.3-5.3c-.3-.3-.8-.3-1.1-.2-.4.2-.6.6-.6 1V396l-5-3.2c-.3-.2-.7-.2-1.1 0-.3.2-.5.5-.5.9v26.7h-5.6c-.6 0-1.1.5-1.1 1.1 0 .6.5 1.1 1.1 1.1h42.9c.6 0 1.1-.5 1.1-1.1s-.5-1-1.1-1zm-30.6 0h-4.5v-24.8l4.5 2.8v22zm2.1-39.8 4 3.4-4 2.5v-5.9zm14.1 13.1v26.7h-14v-31.4l6.3-4 7.7-4.8v13.5zm6.7 26.7h-4.5v-24.8l4.5 2.8v22z" style=""></path><path class="st1" fill="#22B1BC" d="M-207.1 409.1v2.5c0 .6-.5 1.1-1.1 1.1s-1.1-.5-1.1-1.1v-2.5c0-.6.5-1.1 1.1-1.1s1.1.5 1.1 1.1zM-208.2 392.9c-.6 0-1.1.5-1.1 1.1v2.5c0 .6.5 1.1 1.1 1.1s1.1-.5 1.1-1.1V394c0-.7-.5-1.1-1.1-1.1zM-208.2 400.5c-.6 0-1.1.5-1.1 1.1v2.5c0 .6.5 1.1 1.1 1.1s1.1-.5 1.1-1.1v-2.5c0-.7-.5-1.1-1.1-1.1zM-202.7 397.5c.6 0 1.1-.5 1.1-1.1v-2.5c0-.6-.5-1.1-1.1-1.1-.6 0-1.1.5-1.1 1.1v2.5c0 .6.5 1.1 1.1 1.1zM-202.7 412.7c.6 0 1.1-.5 1.1-1.1v-2.5c0-.6-.5-1.1-1.1-1.1-.6 0-1.1.5-1.1 1.1v2.5c0 .6.5 1.1 1.1 1.1zM-202.7 405.1c.6 0 1.1-.5 1.1-1.1v-2.5c0-.6-.5-1.1-1.1-1.1-.6 0-1.1.5-1.1 1.1v2.5c0 .6.5 1.1 1.1 1.1z"></path></svg>