<svg xmlns:xlink="http://www.w3.org/1999/xlink" id="Layer_1" xmlns="http://www.w3.org/2000/svg" x="0" y="0" viewBox="-255 347 100 100" xml:space="preserve" width="42"  height="42" ><style>.st0{fill:#22b1bc}</style><path class="st0" fill="#22B1BC" d="M-192.2 401.8c.9 0 1.8-.4 2.5-1s1-1.6 1-2.5c0-.9-.4-1.8-1-2.5-.7-.7-1.6-1-2.5-1s-1.8.4-2.5 1c-.7.7-1 1.6-1 2.5 0 .9.4 1.8 1 2.5.6.6 1.5 1 2.5 1zm-1.4-4.9c.4-.4.9-.6 1.4-.6.5 0 1 .2 1.4.6.4.4.6.9.6 1.4 0 .5-.2 1-.6 1.4-.7.7-2 .7-2.8 0-.4-.4-.6-.9-.6-1.4 0-.6.2-1.1.6-1.4zM-197.3 410.7c.9 0 1.8-.4 2.5-1 .7-.7 1-1.6 1-2.5 0-.9-.4-1.8-1-2.5-.7-.7-1.6-1-2.5-1s-1.8.4-2.5 1c-.7.7-1 1.6-1 2.5 0 .9.4 1.8 1 2.5.7.6 1.6 1 2.5 1zm-1.3-4.9c.4-.4.9-.6 1.4-.6.5 0 1 .2 1.4.6.4.4.6.9.6 1.4 0 .5-.2 1-.6 1.4-.7.7-2 .7-2.8 0-.4-.4-.6-.9-.6-1.4 0-.6.2-1.1.6-1.4zM-208.6 409.6c-.7.7-1 1.6-1 2.5s.4 1.8 1 2.5c.7.7 1.6 1 2.5 1s1.8-.4 2.5-1c1.4-1.4 1.4-3.6 0-5-.7-.7-1.6-1-2.5-1-1 0-1.9.3-2.5 1zm3.8 3.9c-.7.7-2 .7-2.8 0-.4-.4-.6-.9-.6-1.4 0-.5.2-1 .6-1.4.4-.4.9-.6 1.4-.6.5 0 1 .2 1.4.6.8.8.8 2 0 2.8zM-214.9 403.7c-.9 0-1.8.4-2.5 1-.7.7-1 1.6-1 2.5s.4 1.8 1 2.5c.7.7 1.6 1 2.5 1s1.8-.4 2.5-1c1.4-1.4 1.4-3.6 0-5-.7-.7-1.6-1-2.5-1zm1.3 4.9c-.7.7-2 .7-2.8 0-.4-.4-.6-.9-.6-1.4 0-.5.2-1 .6-1.4.4-.4.9-.6 1.4-.6.5 0 1 .2 1.4.6.8.8.8 2 0 2.8zM-217.6 395.6c-.7-.7-1.6-1-2.5-1-.9 0-1.8.4-2.5 1-.7.7-1 1.6-1 2.5s.4 1.8 1 2.5c.7.7 1.6 1 2.5 1 .9 0 1.8-.4 2.5-1 1.4-1.4 1.4-3.6 0-5zm-1.2 3.9c-.7.7-2 .7-2.8 0-.4-.4-.6-.9-.6-1.4 0-.5.2-1 .6-1.4.4-.4.9-.6 1.4-.6.5 0 1 .2 1.4.6.8.8.8 2 0 2.8zM-211.4 383c-.9-.9-2-1.4-3.2-1.4-.9 0-1.7.3-2.3.9-1.4 1.4-1.2 3.8.5 5.5.9.9 2 1.4 3.2 1.4.9 0 1.7-.3 2.3-.9.7-.7 1-1.7.9-2.7-.1-1.1-.6-2-1.4-2.8zm-.6 4.4c-.4.4-.9.5-1.2.5-.7 0-1.5-.3-2-.9-1-1-1.2-2.5-.5-3.2.4-.4.9-.5 1.2-.5.7 0 1.5.3 2 .9.5.5.8 1.2.9 1.8.1.5-.1 1-.4 1.4z"></path><path fill="#3D61AC" d="M-179.1 373.2c-.2-.2-.5-.3-.7-.2l-3.6.8c-.2.1-1.5.4-2.1 1-.9.9-1.2 2.3-.8 3.5-.2 0-.5 0-.7.1l-5.7 4.5c-.2.1-.3.4-.3.6-.2 0-.4.1-.6.3l-3.5 3.8c-1.2.5-2.3 1.2-3.2 2.1-.6.6-1.5 1-2.4 1-.9 0-1.7-.3-2.4-1s-1-1.6-1-2.6v-.7c-.1-2.4-1.1-4.6-2.8-6.3-1.8-1.8-4.1-2.8-6.7-2.8-2 0-3.8.6-5.4 1.7-.5.3-.9.7-1.2 1-.1.1-.2.3-.4.4v.1l-.1.1c-8.8 8.8-8.8 23 0 31.8 4.2 4.3 9.9 6.6 15.9 6.6s11.7-2.3 15.9-6.6c4.3-4.3 6.7-10.1 6.6-16.3v-.2c-.1-2.4-1.1-4.6-2.8-6.3-.9-.9-1.9-1.6-3-2l.1-.1c.2-.1.3-.4.3-.6.2 0 .4-.1.6-.3l4.6-5.7c.1-.2.2-.4.2-.6.4.1.7.2 1.1.2.9 0 1.8-.4 2.4-1 .4-.5 1-2.4 1.8-5.7.2-.1.1-.4-.1-.6zm-13.8 12.4 1.4 1.4-13.4 12.3-.4.1.1-.4 9.3-10.1 3-3.3zm5 5.2c1.4 1.4 2.2 3.3 2.3 5.4v.2c0 5.6-2.1 10.9-6.1 14.9-3.9 3.9-9.2 6.1-14.8 6.1s-10.8-2.2-14.8-6.1c-8.1-8.1-8.2-21.3-.1-29.5.1 0 .1-.1.2-.1l.1-.1.3-.3c.3-.3.6-.6 1-.9 1.3-.9 2.9-1.4 4.5-1.4 2.1 0 4.1.8 5.5 2.3 1.4 1.4 2.2 3.3 2.3 5.3V387.2c0 1.3.5 2.6 1.4 3.6.9.9 2.2 1.4 3.5 1.4.5 0 1-.1 1.5-.2l-5.5 6c-.1.1-.2.2-.2.4l-.3 1.8c0 .3 0 .5.2.7.1.1.2.1.2.2.1 0 .2.1.3.1h.1l1.8-.3c.1 0 .3-.1.4-.2l12.8-11.7c1.4.3 2.5 1 3.4 1.8zm-1.7-5.8-1.4-1.4 4.4-3.5.5.5-3.5 4.4zm7.8-6.5c-.7.7-1.9.7-2.5 0-.7-.7-.7-1.9 0-2.6.2-.2.8-.4 1.3-.6l2.3-.5c-.4 1.8-.9 3.4-1.1 3.7z" style=""></path></svg>