<svg xmlns:xlink="http://www.w3.org/1999/xlink" width="56" height="56" viewBox="0 0 56 56" fill="none" xmlns="http://www.w3.org/2000/svg"><path fill-rule="evenodd" clip-rule="evenodd" d="M40.864 30.956 46 22.447l-3.804-.963-3.922 3.826c-2.667-.96-18.411-6.546-23.415-6.386-3.042.097-4.526.609-4.812 1.66-.227.835.373 1.708 1.837 2.667 2.17 1.42 7.482 2.837 8.602 3.126l8.34 10.336h4.63l-.213-7.058 7.621 1.302Zm-11.453 4.496-8.228-10.197-.2-.051c-.062-.015-6.222-1.568-8.429-3.013-1.297-.85-1.313-1.27-1.313-1.272.002-.007.307-.63 3.658-.737l.185-.003c5.383 0 22.957 6.382 23.134 6.447l.36.13 3.982-3.884 1.5.38-3.814 6.32-8.288-1.417.22 7.297H29.41Zm.841-16.175 3.273.72-.82 1.743 1.115.545 1.499-3.182L30.306 18l-7.067.924.158 1.25 6.855-.897Z" fill="#48639E"></path><path fill-rule="evenodd" clip-rule="evenodd" d="m41.042 33.354-5.368-.555-.125 1.254 5.369.555.124-1.254Zm-5.322 3.29 8.031.83.125-1.254-8.031-.83-.125 1.255Z" fill="#24A7D0"></path></svg>