<svg xmlns:xlink="http://www.w3.org/1999/xlink" xmlns="http://www.w3.org/2000/svg" viewBox="-255 347 100 100" xml:space="preserve" width="42"  height="42" ><path fill="#3B61AD" d="m-189.7 379-5.9 5.9H-228l6.2 9.1 5.5 8h15.4l-1.6 5.2H-215c-1.7.1-3 1.5-3 3.3 0 1.8 1.5 3.3 3.3 3.3 1.8 0 3.3-1.5 3.3-3.3 0-.7-.2-1.3-.5-1.8h5.5c-.3.5-.5 1.1-.5 1.8 0 1.8 1.5 3.3 3.3 3.3 1.8 0 3.3-1.5 3.3-3.3 0-.8-.3-1.6-.8-2.1l7-22.7 5.2-5.2h6.1V379h-6.9zm-25.8 21.5-4.1-6h16.2V393h-17.2l-4.5-6.6h29.1l-4.3 14.1h-15.2zm2.5 10c0 1-.8 1.8-1.8 1.8s-1.8-.8-1.8-1.8.8-1.8 1.8-1.8 1.8.8 1.8 1.8zm9.3 1.8c-1 0-1.8-.8-1.8-1.8s.8-1.8 1.8-1.8 1.8.8 1.8 1.8c-.1 1-.9 1.8-1.8 1.8z" style=""></path><path fill="#22B1BC" d="M-215 407.2c-1.7.2-3 1.6-3 3.3 0 1.8 1.5 3.3 3.3 3.3 1.8 0 3.3-1.5 3.3-3.3 0-.7-.2-1.3-.5-1.8h5.5c-.3.5-.5 1.1-.5 1.8 0 1.8 1.5 3.3 3.3 3.3 1.8 0 3.3-1.5 3.3-3.3 0-.8-.3-1.6-.8-2.1l-13.9-1.2zm2 3.3c0 1-.8 1.8-1.8 1.8s-1.8-.8-1.8-1.8.8-1.8 1.8-1.8 1.8.8 1.8 1.8zm9.3 1.8c-1 0-1.8-.8-1.8-1.8s.8-1.8 1.8-1.8 1.8.8 1.8 1.8-.8 1.8-1.8 1.8z" style=""></path></svg>