<svg xmlns:xlink="http://www.w3.org/1999/xlink" id="Layer_1" xmlns="http://www.w3.org/2000/svg" x="0" y="0" viewBox="-255 347 100 100" xml:space="preserve" width="42"  height="42" ><style>.st1{fill:#22b1bc}</style><path fill="#3B61AD" d="m-180.1 395.6-8.8-9.1c-.5-.5-1.3-.8-2-.8H-193.1v-1.5c0-.6-.4-.9-.5-.9-.1 0-.2-.1-.3-.1-.2 0-.4.1-.7.4l-.3.4-6.2-6.4c-.5-.5-1.3-.8-2-.8h-3c-.8 0-1.5.6-1.6 1.5-.3 2.4-2 5.9-3.6 5.9s-3.2-3.5-3.5-5.9c-.1-.8-.8-1.5-1.6-1.5h-1.9c-.7 0-1.5.4-2 .8l-8.8 9.1c-.6.6-.6 1.6-.1 2.2l3.6 4.2c.3.3.7.5 1.1.5.4 0 .8-.2 1.1-.5l4.3-4.6v16.8c0 .9.7 1.6 1.6 1.6h10.7v4.8c0 .8.6 1.6 1.3 1.8l6 2s.9.3 1.4.3c.5 0 1.4-.3 1.4-.4l5.2-2c.7-.3 1.3-1.1 1.3-1.8v-14.7l6 3.5c.2.1.5.2.9.2.5 0 1-.2 1.4-.6l2-2.2c.4-.6.4-1.6-.2-2.2zm-26.7 9.8h-10.7c-.1 0-.2-.1-.2-.2v-17.7c0-.8-.4-1-.6-1.1-.1 0-.2-.1-.3-.1-.2 0-.5.1-.9.4l-5 5.2h-.1l-3.6-4.2c-.1-.1-.1-.2 0-.3l8.8-9.1c.2-.2.7-.4 1-.4h1.9c.1 0 .2.1.2.2.4 3 2.4 7.1 5 7.1s4.5-4.1 4.9-7.1c0-.2.1-.2.2-.2h3c.3 0 .8.2 1 .4l6.3 6.5-2.7 3.1-4.1-4.6c-.4-.5-.8-.4-1-.3-.1 0-.5.3-.5.9l.1 1.5h-2c-.7 0-1.5.4-2 .8l-8.8 9.1c-.6.6-.6 1.6-.1 2.2l2 2.3c.5.6 1.5.7 2.2.4l6-3.5v8.7zm25.7-8.5-2 2.2c-.1.1-.3.1-.4.1l-6.3-3.7c-.2-.1-.4-.2-.7-.2-.7 0-1.1.5-1.1 1.2v15.1c0 .2-.2.4-.4.5l-5.2 2c-.4.2-.8.3-.9.3-.1 0-.5-.1-.9-.2l-6-2c-.2-.1-.3-.3-.3-.5v-15.1c0-.7-.5-1.2-1.1-1.2h-.2c-.1 0-.3.1-.5.2l-6.3 3.7c-.1.1-.4 0-.4-.1l-2-2.3c-.1-.1-.1-.2 0-.3l8.8-9.1c.2-.2.7-.4 1-.4h1.9c.3 0 .9.2 1.2.4l3.4 2.2c.6.4 1.6.4 2.2 0l3.4-2.2c.3-.2.9-.4 1.2-.4h1.9c.3 0 .8.2 1 .4l8.8 9.1c-.1.1-.1.2-.1.3z" style=""></path><path class="st1" fill="#22B1BC" d="M-198.7 391.5c-.6 0-1 .5-1 1 0 .6.5 1 1 1 .6 0 1-.5 1-1s-.4-1-1-1zm0 1.5c-.2 0-.4-.2-.4-.4s.2-.4.4-.4.4.2.4.4-.2.4-.4.4zM-198.7 396.9c-.6 0-1 .5-1 1 0 .6.5 1 1 1 .6 0 1-.5 1-1s-.4-1-1-1zm0 1.5c-.2 0-.4-.2-.4-.4s.2-.4.4-.4.4.2.4.4-.2.4-.4.4zM-198.7 402.3c-.6 0-1 .5-1 1 0 .6.5 1 1 1 .6 0 1-.5 1-1s-.4-1-1-1zm0 1.5c-.2 0-.4-.2-.4-.4s.2-.4.4-.4.4.2.4.4-.2.4-.4.4zM-198.7 407.7c-.6 0-1 .5-1 1 0 .6.5 1 1 1 .6 0 1-.5 1-1s-.4-1-1-1zm0 1.5c-.2 0-.4-.2-.4-.4s.2-.4.4-.4.4.2.4.4-.2.4-.4.4z"></path></svg>