<svg xmlns:xlink="http://www.w3.org/1999/xlink" xmlns="http://www.w3.org/2000/svg" viewBox="-255 347 100 100" xml:space="preserve" width="42"  height="42" ><path fill="#3B61AD" d="M-198.4 396.3c3.7-2.3 6.2-6.4 6.2-11.1 0-.4 0-.8-.1-1.3h5.1c.6 0 1.1-.5 1.1-1.1s-.5-1.1-1.1-1.1h-5.5l-2.7-11.1c-.3-1.1-.9-2-1.9-2.5-1-.6-2.1-.7-3.2-.4l-4.8 1.4-4.8-1.4c-1.1-.3-2.2-.2-3.2.3s-1.7 1.4-1.9 2.5l-2.8 11.1h-5.6c-.6 0-1.1.5-1.1 1.1s.5 1.1 1.1 1.1h5.1c0 .4-.1.8-.1 1.3 0 7.2 5.9 13.1 13.1 13.1 2.7.1 5.1-.6 7.1-1.9M-212 370c.4-.2.9-.3 1.4-.1l5.1 1.5c.2.1.4.1.7 0l5.1-1.5c.5-.1.9-.1 1.4.1.4.2.7.6.8 1.1l2.5 10.5h-20.4l2.7-10.5c0-.4.3-.8.7-1.1zm17.5 15.2c0 5.9-4.8 10.8-10.8 10.8-5.9 0-10.8-4.8-10.8-10.8 0-.4 0-.8.1-1.3h21.4c0 .5.1.9.1 1.3z" style=""></path><path fill="#22B1BC" d="M-189.5 407.5c-.1-.1-.2-.1-.2-.2-2-1.6-4.2-2.9-6.6-3.8-.1 0-.1-.1-.2-.1-2.5-.9-5.1-1.5-7.9-1.6-.2-.3-.5-.5-.9-.5s-.7.2-.9.5c-2.8.1-5.4.7-7.9 1.6-.1 0-.1 0-.2.1-2.4.9-4.6 2.2-6.6 3.8-.1.1-.2.1-.2.2-5.6 4.6-9.2 11.5-9.2 19.3 0 .6.5 1.1 1.1 1.1.6 0 1.1-.5 1.1-1.1 0-6.2 2.5-11.8 6.6-15.9V426.8c.1.5.6.9 1.1.9.5 0 1-.4 1.1-.9v-17.9c1.3-1 2.7-1.9 4.2-2.6v9.6c0 .6.5 1.1 1.1 1.1h17c.6 0 1.1-.5 1.1-1.1v-9.6c1.5.7 2.9 1.6 4.2 2.6v17.9c.1.5.6.9 1.1.9.5 0 1-.4 1.1-.9V410.9c4.1 4.1 6.6 9.7 6.6 15.9 0 .6.5 1.1 1.1 1.1s1.1-.5 1.1-1.1c.4-7.8-3.2-14.7-8.8-19.3zm-8.5 7.2h-14.7v-9.4c2-.7 4-1.1 6.2-1.2v3c0 .6.5 1.1 1.1 1.1s1.1-.5 1.1-1.1v-3c2.2.1 4.2.5 6.2 1.2v9.4zm2.3 5.8c0 .6-.5 1.1-1.1 1.1h-9.4c-.6 0-1.1-.5-1.1-1.1 0-.6.5-1.1 1.1-1.1h9.4c.6-.1 1.1.4 1.1 1.1zm-13.9 0c0 .6-.5 1.1-1.1 1.1h-3.1c-.6 0-1.1-.5-1.1-1.1 0-.6.5-1.1 1.1-1.1h3.1c.6-.1 1.1.4 1.1 1.1z" style=""></path></svg>