<svg xmlns:xlink="http://www.w3.org/1999/xlink" xmlns="http://www.w3.org/2000/svg" viewBox="-255 347 100 100" xml:space="preserve" width="42"  height="42" ><path fill="#3C61AC" d="M-195.5 395.4v4.4l-.3.4c-.5.7-.6 1.7-.2 2.5.4.8 1.2 1.3 2.1 1.3h9.4c.9 0 1.7-.5 2.1-1.3.4-.8.3-1.7-.2-2.5l-.3-.4v-13.5l.3-.4c.5-.7.6-1.7.2-2.5s-1.2-1.3-2.1-1.3h-9.4c-.9 0-1.7.5-2.1 1.3-.4.8-.3 1.7.2 2.5l.3.4v4.4h-12.7c-.3-.5-.8-.8-1.3-.8h-16.3c-1.5 0-2.9 1.1-3.2 2.5-.2.9.1 1.9.6 2.6.6.7 1.5 1.1 2.4 1.1h16.4c.6 0 1.1-.3 1.3-.8l12.8.1zm.9-11.3c.1-.3.4-.4.7-.4h9.4c.3 0 .6.2.7.4.1.3.1.6-.1.8l-.2.3h-5.9c-.4 0-.8.4-.8.8s.3.8.8.8h5.5v12.5h-5.5c-.4 0-.8.4-.8.8s.3.8.8.8h5.9l.2.3c.2.2.2.5.1.8-.1.3-.4.4-.7.4h-9.4c-.3 0-.6-.2-.7-.4-.1-.3-.1-.6.1-.8l.2-.3h1.2c.4 0 .8-.4.8-.8s-.4-.8-.8-.8h-.8v-12.5h.8c.4 0 .8-.4.8-.8s-.4-.8-.8-.8h-1.2l-.2-.3c-.2-.2-.2-.5-.1-.8zm-.9 9.7H-208v-1.6h12.5v1.6zm-30.4.8c-.5 0-.9-.2-1.2-.6-.3-.4-.4-.8-.3-1.3.1-.7.8-1.2 1.6-1.2h16.3v3.1h-16.4z" style=""></path><path fill="#22B1BC" d="M-181.4 407.1H-197c-1.3 0-2.3 1.1-2.3 2.3v1.5c0 .5.4.9.9.9h18.5c.5 0 .9-.4.9-.9v-1.5c-.1-1.3-1.1-2.3-2.4-2.3zm.8 3.1h-17.2v-.8c0-.4.3-.8.8-.8h15.6c.4 0 .8.4.8.8v.8z" style=""></path></svg>