<svg xmlns:xlink="http://www.w3.org/1999/xlink" xmlns="http://www.w3.org/2000/svg" viewBox="-255 347 100 100" xml:space="preserve" width="42"  height="42" ><path fill="#3D61AC" d="M-225.9 405.5v11.3c0 .4-.3.8-.8.8h-1.5c-.4 0-.8-.3-.8-.8v-11.3c0-.4.3-.8.8-.8h1.5c.5.1.8.4.8.8zm8.4-.7h-1.5c-.4 0-.8.3-.8.8v11.3c0 .4.3.8.8.8h1.5c.4 0 .8-.3.8-.8v-11.3c-.1-.5-.4-.8-.8-.8zm9.1-8.2h-1.5c-.4 0-.8.3-.8.8v19.5c0 .4.3.8.8.8h1.5c.4 0 .8-.3.8-.8v-19.5c0-.5-.4-.8-.8-.8zm9.1-6.4h-1.5c-.4 0-.8.3-.8.8v25.9c0 .4.3.8.8.8h1.5c.4 0 .8-.3.8-.8V391c0-.5-.3-.8-.8-.8zm9.2 6.4h-1.5c-.4 0-.8.3-.8.8v19.5c0 .4.3.8.8.8h1.5c.4 0 .8-.3.8-.8v-19.5c-.1-.5-.4-.8-.8-.8zm9.1-10.1h-1.5c-.4 0-.8.3-.8.8v29.5c0 .4.3.8.8.8h1.5c.4 0 .8-.3.8-.8v-29.5c0-.4-.4-.8-.8-.8z" style=""></path><path fill="#22B1BC" d="M-181.8 376.3c-1.2 0-2.2 1-2.2 2.2 0 .5.1.9.4 1.2l-6.7 9.6c-.2-.1-.4-.1-.7-.1-.5 0-1 .2-1.4.5l-5.6-4.1c0-.2.1-.3.1-.5 0-1.2-1-2.2-2.2-2.2-1.2 0-2.2 1-2.2 2.2 0 .2 0 .4.1.6l-6.1 4.8c-.3-.1-.6-.2-.9-.2-1.2 0-2.2 1-2.2 2.2l-5.5 2.9c-.4-.3-.9-.5-1.4-.5-.8 0-1.5.5-1.9 1.1l-5.1-.8c-.2-1-1.1-1.7-2.1-1.7-1.2 0-2.2 1-2.2 2.2 0 1.2 1 2.2 2.2 2.2.8 0 1.5-.5 1.9-1.1l5.1.8c.2 1 1.1 1.7 2.1 1.7 1.2 0 2.2-1 2.2-2.2v-.3l5.3-2.8c.4.5 1 .7 1.6.7 1.2 0 2.2-1 2.2-2.2 0-.3-.1-.6-.2-.9l5.9-4.6c.3.2.8.4 1.2.4.5 0 .9-.2 1.3-.4l5.7 4.1v.4c0 1.2 1 2.2 2.2 2.2s2.2-1 2.2-2.2c0-.4-.1-.8-.3-1.1l6.7-9.6c.2 0 .4.1.5.1 1.2 0 2.2-1 2.2-2.2 0-1.5-1-2.4-2.2-2.4z" style=""></path></svg>