<svg xmlns:xlink="http://www.w3.org/1999/xlink" xmlns="http://www.w3.org/2000/svg" viewBox="-255 347 100 100" xml:space="preserve" width="42"  height="42" ><path fill="#3B61AD" d="M-183.4 386.9c-.1-.2-.3-.3-.5-.3-.4-.1-.9.2-.9.6-.1.3-.3 1.1-.9 2l-.3.5-12-12 .5-.3c1.2-.7 2-.9 2.1-.9.4-.1.7-.5.6-.9-.1-.4-.5-.7-1-.6-.1 0-11.5 3.1-9.4 19.5l.1.5h-.5c-.9-.1-1.8-.1-2.6-.1-13.3 0-18.4 8.3-18.6 8.7-.2.3-.1.7.1 1 0 0 .1.1.2.1.3.2.9 0 1.1-.3.1-.2.6-1 1.6-2l.3-.3 13.2 13.2-.3.3c-1.1 1-1.9 1.5-2 1.6-.4.2-.5.7-.3 1.1 0 .1.1.1.1.2.1.1.4.2.6.2.1 0 .3 0 .4-.1.4-.2 9.7-6 8.6-21.2v-.5l.5.1c1.4.2 2.7.3 4 .3 13.2 0 15.6-9.6 15.6-9.6-.2-.4-.2-.6-.3-.8zm-22.7 21.3c-.6 1.8-1.5 3.5-2.5 5l-.8 1-13-13 .9-.7c1.5-1.1 3.2-1.9 5-2.6l.8-.3 9.9 9.9-.3.7zm.9-3.5-.1.8-8.4-8.4.8-.1c2.4-.4 5-.5 7.7-.3h.3v.3c.2 2.7.1 5.3-.3 7.7zm8.6-9.2c-2 .2-4.3.1-6.7-.2h-.3v-.3c-.3-2.4-.4-4.7-.2-6.7l.1-1.4 8.5 8.5-1.4.1zm8.9-3.8c-1.4 1.4-3.2 2.4-5.2 3l-.5.1-9.8-9.8.2-.5c.6-2.1 1.7-3.8 3-5.2l.6-.6 12.4 12.2-.7.8z" style=""></path><path fill="#22B1BC" d="m-209.5 414 .3.3-.2.2-.9.9-13.3-13.2 1.1-1.1 13 12.9zm23.4-24.5-12.2-12.1-1.3 1.3 12.4 12.3 1.1-1.1.2-.2-.2-.2z" style=""></path></svg>