<svg xmlns:xlink="http://www.w3.org/1999/xlink" xmlns="http://www.w3.org/2000/svg" width="70" height="71" fill="none"><path fill="#24A7D0" stroke="#24A7D0" stroke-width=".6" d="M43.88 32.42h-.69v6.12h.69v-6.12ZM43.88 42.983h-.69v6.12h.69v-6.12ZM43.88 53.153h-.69v6.12h.69v-6.12ZM35.342 53.153h-.692v6.12h.692v-6.12ZM35.342 43.188h-.692v6.12h.692v-6.12ZM35.342 32.633h-.692v6.12h.692v-6.12ZM26.802 32.633h-.691v6.12h.691v-6.12ZM26.802 43.188h-.691v6.12h.691v-6.12ZM26.802 53.358h-.691v6.12h.691v-6.12Z"/><path fill="#48639E" stroke="#48639E" stroke-width=".6" d="M57.302 69.318v-8.797h1.79v-.682h-1.79v-9.447h1.79v-.681h-1.79V40a2.84 2.84 0 0 0-.686-.887 2.885 2.885 0 0 0-.98-.558 2.96 2.96 0 0 0-2.175.328V36.42h-3.607v-2.39h-.683v2.374h-2.85v-5.2l-.108-.099a4.046 4.046 0 0 0-2.332-.928v-2.144h-.683v2.16a5.04 5.04 0 0 0-2.283.871l-.158.099v.575h-2.608V28.699a3.937 3.937 0 0 0-1.179-1.319 4.006 4.006 0 0 0-1.645-.677V24h-.692v2.71c-.58.11-1.13.346-1.607.691-.477.346-.87.792-1.15 1.306v3.04h-2.633v-.576l-.158-.107a5.157 5.157 0 0 0-2.283-.87v-2.16h-.691v2.151a4.089 4.089 0 0 0-2.333.92l-.116.099v5.208h-2.833v-2.374h-.691v2.374h-3.54v2.464a2.994 2.994 0 0 0-2.175-.328 2.903 2.903 0 0 0-1.666 1.437v9.718h-1.858v.681h1.791v9.447h-1.791v.681h1.791v8.806H7V70h56v-.682h-5.698Zm-42.88-20.092a2.633 2.633 0 0 0-1.04.592v-9.595c.267-.48.707-.843 1.232-1.018a2.535 2.535 0 0 1 1.983.451v9.858a2.977 2.977 0 0 0-2.166-.32l-.008.032Zm0 9.948a2.617 2.617 0 0 0-1.04.583v-8.863a2.2 2.2 0 0 1 1.232-1.01 2.483 2.483 0 0 1 1.983.451v9.159a2.977 2.977 0 0 0-2.166-.32h-.008Zm2.175 1.1v5.619h-3.216V60.84a2.184 2.184 0 0 1 1.233-1.019 2.535 2.535 0 0 1 1.983.452Zm3.54-21.037v6.334H17.29v-8.486h6.373v8.486h-2.833v-6.334h-.691Zm0 10.235v6.268H17.29v-9.488h6.373v9.488h-2.833v-6.276l-.691.008Zm0 10.104v6.317H17.29v-9.471h6.373v9.47h-2.833v-6.316h-.691ZM31.852 37.44v28.454h-2.608V37.439h2.608Zm-2.608-.674v-4.337h2.608v4.337h-2.608Zm-.691 23.6v5.528h-4.165V60.34a3.557 3.557 0 0 1 2.082-.672c.75 0 1.479.236 2.083.672v.025Zm0-9.899v9.118a4.53 4.53 0 0 0-2.166-.575 4.12 4.12 0 0 0-2.016.526v-9.093a3.507 3.507 0 0 1 4.165 0l.017.024Zm0-10.415v9.627a4.732 4.732 0 0 0-2.166-.575 4.21 4.21 0 0 0-2.016.534v-9.61a3.557 3.557 0 0 1 2.082-.673c.75 0 1.48.236 2.083.672l.017.025Zm0-8.519v7.738a4.53 4.53 0 0 0-2.166-.575c-.707 0-1.402.181-2.016.526v-7.713a3.574 3.574 0 0 1 2.082-.668c.749 0 1.478.234 2.083.668l.017.024ZM35 59.766c.511.02 1.008.167 1.446.429.437.261.8.628 1.053 1.066v4.633h-4.915V61.26c.25-.432.606-.795 1.036-1.056.429-.262.918-.412 1.422-.439H35Zm.167-.69H34.825c-.87.06-1.685.442-2.283 1.068v-8.83c.251-.431.607-.793 1.037-1.053.43-.26.918-.41 1.421-.434.51.018 1.008.164 1.445.424.437.26.8.626 1.054 1.063v8.83a3.503 3.503 0 0 0-2.29-1.068h-.042Zm-.175-9.931c-.461.007-.916.106-1.336.291-.422.185-.8.452-1.114.785v-9.364c.251-.431.607-.793 1.037-1.053.43-.26.918-.409 1.421-.434.51.018 1.008.164 1.445.424.437.26.8.626 1.054 1.063v9.364a3.441 3.441 0 0 0-1.137-.793A3.482 3.482 0 0 0 35 49.144h-.008Zm.166-10.457h-.325a3.46 3.46 0 0 0-2.29 1.068V28.929a3.305 3.305 0 0 1 1.04-1.079c.426-.276.911-.453 1.417-.515.513.056 1.006.23 1.44.506.434.277.796.65 1.06 1.088v10.834a3.444 3.444 0 0 0-2.3-1.068l-.042-.008Zm5.607-1.248v28.454h-2.616V37.439h2.616Zm-2.616-.674v-4.337h2.608v4.337h-2.608Zm15.254 23.517a2.516 2.516 0 0 1 1.983-.451 2.2 2.2 0 0 1 1.233 1.01v5.052h-3.224l.008-5.61Zm1.524-1.19a3.21 3.21 0 0 0-1.524.41v-9.167a2.516 2.516 0 0 1 1.983-.452c.527.173.967.537 1.233 1.019v8.863a2.467 2.467 0 0 0-1.667-.682l-.025.008Zm0-9.948a3.37 3.37 0 0 0-1.524.41v-9.857a2.516 2.516 0 0 1 1.983-.451c.527.173.967.537 1.233 1.018v9.553a2.51 2.51 0 0 0-1.7-.673h.008Zm-5.756-9.907v6.334h-2.85v-8.486h6.39v8.486h-2.849v-6.334h-.691Zm0 10.244v6.259h-2.85v-9.488h6.39v9.488h-2.849v-6.276l-.691.017Zm0 10.103v6.309h-2.85v-9.471h6.39v9.47h-2.849v-6.308h-.691ZM41.448 39.27v-7.738a3.532 3.532 0 0 1 2.083-.677c.75 0 1.48.237 2.083.677v7.722a4.212 4.212 0 0 0-4.166 0v.016Zm4.166.756v9.61a4.213 4.213 0 0 0-4.166.05V40.06a3.506 3.506 0 0 1 2.083-.684c.75 0 1.482.24 2.083.684v-.033Zm0 10.416v9.101a4.21 4.21 0 0 0-4.166 0v-9.077a3.532 3.532 0 0 1 2.083-.677c.75 0 1.48.237 2.083.677v-.024Zm0 9.898v5.553h-4.166v-5.52a3.523 3.523 0 0 1 2.083-.68c.75 0 1.48.238 2.083.68v-.033Zm10.988 6.26v2.726h-43.22V66.6h43.22Z"/></svg>