<svg xmlns:xlink="http://www.w3.org/1999/xlink" xmlns="http://www.w3.org/2000/svg" width="70" height="70" fill="none"><mask id="a" fill="#fff"><path d="M53.206 20.808c-.27.134-.27.202-.27.336 0 .135-.068.337-.203.539-.473.74-1.35.538-2.026.404-.337-.068-.675-.135-.945-.068a.513.513 0 0 0-.27.135 1.45 1.45 0 0 1-.81.27c-.338 0-.608-.203-.878-.405-.135-.134-.27-.202-.405-.269-.743-.202-1.35.27-1.959 1.48-.607 1.212-1.35 1.482-2.498 1.616-.54.068-1.013-.134-1.553-.269-.405-.135-.81-.27-1.215-.27-.878.068-1.621.472-2.161 1.213-.135.201-.405.403-.608.605-.337.337-.675.606-.743.943v.201c0 .202 0 .472-.135.674-.337.403-.945.403-1.35.336h-.135c-.878 0-1.553-.538-2.161-1.077-.203-.134-.405-.336-.608-.471-.472-.337-.945-.337-1.688-.067l-.405.202c-.135.067-.203.134-.338.202-.135.067-.27.067-.472.134-.135 0-.338.067-.338.067v.135c0 .135 0 .337-.067.539-.135.201-.27.336-.473.538-.135.135-.338.27-.338.404-.067.135-.067.336-.067.538v.404c-.068.539-.27.673-.54.875-.068.068-.203.135-.338.27l-.067.067c.134.067.607.134.81.202.337.067.607.067.81.202.81.336.945.808.945 1.144 0 .74-.742 1.01-1.283 1.144-.202.068-.405.135-.54.202-.27.135-.27.27-.405.471l-.203.404c-.337.539-.877.74-1.35.875a.513.513 0 0 0-.27.135c-.945.337-1.283.471-2.43.135-.609-.135-1.284-.27-1.757 0-.067.067-.135.067-.135.067 0 .134 0 .27-.135.471-.27.538-.878.808-1.418.875h-.27c-.472 0-1.08-.135-1.62-.337-.068-.067-.203-.067-.27-.134-.068-.067-.136-.067-.203-.135-.27.27-.675.337-1.08.471-.135 0-.203.068-.338.068.067.202.203.269.675.336.405.068.81.135 1.08.471.136.202.203.472.203.674v.134c.068.471.068.471.473.74.135.068.337.135.473.202.742.337 2.025.876 1.688 2.087-.135.471-.473.673-.81.875-.136.068-.27.202-.406.27.135.134.27.269.405.336s.338.135.473.202c.473.202.945.337 1.08.673.135.27.135.74.068 1.279v.202c-.068.606-.27 1.077-.54 1.615-.338.673-.608 1.212-.27 1.885.202.404.472.538 1.013.404.134-.067.337-.135.472-.202.27-.135.473-.202.81-.27.676-.134 1.553-.134 1.959.203.405.336.337.942.27 1.346l-.068.202-.202 1.01-.203.807c-.135.471-.27.875-.067 1.212l.067.134c.135.202.203.404.203.74 0 .27-.068.405-.203.606v.068c.068 0 .068 0 .135.067.27.067.608.202.946.539.27.404.472 1.077.27 1.682-.136.404-.406.673-.676.943-.27.269-.472.47-.54.74-.067.202 0 .27.068.471.067.135.135.337.135.606 0 .539-.338.808-.54 1.01-.136.134-.27.202-.27.336-.136.27-.068.539.202.943.067.134.203.269.27.404.203.269.473.605.54 1.077 0 .201 0 .403-.067.538 0 .067-.068.135-.068.202s0 .202.068.336c.067.135.067.337.067.539-.067.606-.675 1.01-1.215 1.279-.203.134-.405.202-.473.336l-.067.068c.202.134.405.202.675.269l.135.27c.27.336.743.605 1.148.807.405.202.743.471 1.08.673.135.067.203.202.338.27.27.134.743 0 1.013-.135.472-.135.607-.472 1.013-.808.742-.606 1.688-.74 2.566-1.077.54-.202.877-.471 1.282-.942.338-.404 1.689-1.818.54-2.02-.27-.067-.472 0-.675 0-.067 0-.337 0-.405-.067-.135-.135.135-.404.338-.471.337-.202.81-.135 1.08-.471.203-.27.068-.606.135-.943.068-.336.203-.404.473-.673.54-.471.405-1.211.945-1.683.338-.269.81-.47 1.283-.47.338 0 .54.067.878 0 .54-.135 1.148-.405 1.62-.607.27-.134.473-.336.743-.403.406-.135.878.134 1.35.134.339 0 .541-.134.744-.404.067-.134.405-.538.337-.74-.067-.337-1.08-.202-1.215-.606-.135-.471.405-1.077.608-1.48.135-.337.27-.607.27-.943.067-.471.27-.74.675-1.077.405-.404.945-.673 1.35-1.144.203-.27.27-.673.405-1.01.136-.404.338-.875.338-1.279 0-.202 0-.538.068-.74.202-.471.877-.606 1.283-.875.54-.337.877-.27 1.418.067.27.135.405.27.742.27.203 0 .54-.203.743-.135.27.134.338.538.743.605.338.068.54-.269.743-.47.337-.405.607-.876.607-1.414 0-.808.135-1.683.068-2.49-.135-.808-.473-1.616-.27-2.424.067-.404.27-.808.337-1.279.068-.538-.405-.942-.675-1.279-.337-.47-.878-1.01-.878-1.615 0-.539.338-1.144.473-1.683.135-.538.135-1.01.068-1.548-.068-.337-.203-.673-.27-.942-.068-.337.202-.404.405-.673.337-.404.54-.606.675-1.145.067-.404.135-.875.27-1.211.27-.404.743-.673 1.08-1.077.27-.337.406-.673.54-1.01.136-.337.338-.673.473-.942.135-.337.135-.606.135-.943.068-.47-.135-1.144.135-1.615.203-.337.473-.538.676-.875.135-.27.202-.606.202-.942 0-.74-.337-1.347-.135-2.087.068-.337.27-.673.405-1.01.068-.269.203-.807.135-1.144-.742.538-1.148.606-1.485.808Z"/></mask><path fill="#F5F8F9" stroke="#48639E" stroke-width="2" d="M53.206 20.808c-.27.134-.27.202-.27.336 0 .135-.068.337-.203.539-.473.74-1.35.538-2.026.404-.337-.068-.675-.135-.945-.068a.513.513 0 0 0-.27.135 1.45 1.45 0 0 1-.81.27c-.338 0-.608-.203-.878-.405-.135-.134-.27-.202-.405-.269-.743-.202-1.35.27-1.959 1.48-.607 1.212-1.35 1.482-2.498 1.616-.54.068-1.013-.134-1.553-.269-.405-.135-.81-.27-1.215-.27-.878.068-1.621.472-2.161 1.213-.135.201-.405.403-.608.605-.337.337-.675.606-.743.943v.201c0 .202 0 .472-.135.674-.337.403-.945.403-1.35.336h-.135c-.878 0-1.553-.538-2.161-1.077-.203-.134-.405-.336-.608-.471-.472-.337-.945-.337-1.688-.067l-.405.202c-.135.067-.203.134-.338.202-.135.067-.27.067-.472.134-.135 0-.338.067-.338.067v.135c0 .135 0 .337-.067.539-.135.201-.27.336-.473.538-.135.135-.338.27-.338.404-.067.135-.067.336-.067.538v.404c-.068.539-.27.673-.54.875-.068.068-.203.135-.338.27l-.067.067c.134.067.607.134.81.202.337.067.607.067.81.202.81.336.945.808.945 1.144 0 .74-.742 1.01-1.283 1.144-.202.068-.405.135-.54.202-.27.135-.27.27-.405.471l-.203.404c-.337.539-.877.74-1.35.875a.513.513 0 0 0-.27.135c-.945.337-1.283.471-2.43.135-.609-.135-1.284-.27-1.757 0-.067.067-.135.067-.135.067 0 .134 0 .27-.135.471-.27.538-.878.808-1.418.875h-.27c-.472 0-1.08-.135-1.62-.337-.068-.067-.203-.067-.27-.134-.068-.067-.136-.067-.203-.135-.27.27-.675.337-1.08.471-.135 0-.203.068-.338.068.067.202.203.269.675.336.405.068.81.135 1.08.471.136.202.203.472.203.674v.134c.068.471.068.471.473.74.135.068.337.135.473.202.742.337 2.025.876 1.688 2.087-.135.471-.473.673-.81.875-.136.068-.27.202-.406.27.135.134.27.269.405.336s.338.135.473.202c.473.202.945.337 1.08.673.135.27.135.74.068 1.279v.202c-.068.606-.27 1.077-.54 1.615-.338.673-.608 1.212-.27 1.885.202.404.472.538 1.013.404.134-.067.337-.135.472-.202.27-.135.473-.202.81-.27.676-.134 1.553-.134 1.959.203.405.336.337.942.27 1.346l-.068.202-.202 1.01-.203.807c-.135.471-.27.875-.067 1.212l.067.134c.135.202.203.404.203.74 0 .27-.068.405-.203.606v.068c.068 0 .068 0 .135.067.27.067.608.202.946.539.27.404.472 1.077.27 1.682-.136.404-.406.673-.676.943-.27.269-.472.47-.54.74-.067.202 0 .27.068.471.067.135.135.337.135.606 0 .539-.338.808-.54 1.01-.136.134-.27.202-.27.336-.136.27-.068.539.202.943.067.134.203.269.27.404.203.269.473.605.54 1.077 0 .201 0 .403-.067.538 0 .067-.068.135-.068.202s0 .202.068.336c.067.135.067.337.067.539-.067.606-.675 1.01-1.215 1.279-.203.134-.405.202-.473.336l-.067.068c.202.134.405.202.675.269l.135.27c.27.336.743.605 1.148.807.405.202.743.471 1.08.673.135.067.203.202.338.27.27.134.743 0 1.013-.135.472-.135.607-.472 1.013-.808.742-.606 1.688-.74 2.566-1.077.54-.202.877-.471 1.282-.942.338-.404 1.689-1.818.54-2.02-.27-.067-.472 0-.675 0-.067 0-.337 0-.405-.067-.135-.135.135-.404.338-.471.337-.202.81-.135 1.08-.471.203-.27.068-.606.135-.943.068-.336.203-.404.473-.673.54-.471.405-1.211.945-1.683.338-.269.81-.47 1.283-.47.338 0 .54.067.878 0 .54-.135 1.148-.405 1.62-.607.27-.134.473-.336.743-.403.406-.135.878.134 1.35.134.339 0 .541-.134.744-.404.067-.134.405-.538.337-.74-.067-.337-1.08-.202-1.215-.606-.135-.471.405-1.077.608-1.48.135-.337.27-.607.27-.943.067-.471.27-.74.675-1.077.405-.404.945-.673 1.35-1.144.203-.27.27-.673.405-1.01.136-.404.338-.875.338-1.279 0-.202 0-.538.068-.74.202-.471.877-.606 1.283-.875.54-.337.877-.27 1.418.067.27.135.405.27.742.27.203 0 .54-.203.743-.135.27.134.338.538.743.605.338.068.54-.269.743-.47.337-.405.607-.876.607-1.414 0-.808.135-1.683.068-2.49-.135-.808-.473-1.616-.27-2.424.067-.404.27-.808.337-1.279.068-.538-.405-.942-.675-1.279-.337-.47-.878-1.01-.878-1.615 0-.539.338-1.144.473-1.683.135-.538.135-1.01.068-1.548-.068-.337-.203-.673-.27-.942-.068-.337.202-.404.405-.673.337-.404.54-.606.675-1.145.067-.404.135-.875.27-1.211.27-.404.743-.673 1.08-1.077.27-.337.406-.673.54-1.01.136-.337.338-.673.473-.942.135-.337.135-.606.135-.943.068-.47-.135-1.144.135-1.615.203-.337.473-.538.676-.875.135-.27.202-.606.202-.942 0-.74-.337-1.347-.135-2.087.068-.337.27-.673.405-1.01.068-.269.203-.807.135-1.144-.742.538-1.148.606-1.485.808Z" mask="url(#a)"/></svg>