<svg xmlns:xlink="http://www.w3.org/1999/xlink" xmlns="http://www.w3.org/2000/svg" width="70" height="70" fill="none"><mask id="a" fill="#fff"><path d="M16.424 69.572c.08.242.329.356.583.34.108-.007.215-.007.314-.007.492 0 .966-.325.919-.814a4.52 4.52 0 0 0-.164-.756c-.078-.314-.151-.637-.129-.96.016-.234.087-.417.176-.657l.048-.143c.047-.095.047-.143.094-.238.053-.162.081-.339-.057-.439a1.807 1.807 0 0 0-.368-.18c-.283-.142-.613-.285-.755-.666-.283-.808.708-1.284 1.322-1.665.289-.145.583-.313.766-.581a1.13 1.13 0 0 0 .177-.417c.048-.381-.141-.762-.566-1.285-.613-.713-.66-1.38-.142-2.283.378-.666.85-.524 1.227-.428.142.047.284.095.473.095.471.047.566-.143.755-.428.141-.238.283-.524.613-.714.236-.143.52-.19.85-.238.566-.047.802-.143.85-.666 0-.112.075-.21.184-.237h.004c.425-.048.85.094 1.274.19.425.142.802.237 1.133.19.377-.048.472-.238.613-.571l.142-.286c.141-.237.33-.333.519-.428a.876.876 0 0 0 .378-.333c.188-.333-.048-.618-.33-1.046a.657.657 0 0 0-.142-.19c-.19-.238-.425-.619-.284-.952.095-.19.236-.333.52-.428.424-.143.849.143 1.18.38.188.143.377.238.518.286.85.19 1.558-.333 2.266-.809l.14-.094a.34.34 0 0 1 .473.094c.142.19.283.38.33.38h.001c.007 0 .104-.008.377-.237.12-.122.222-.224.304-.344.096-.14.14-.313.215-.465.048-.143.048-.285.142-.428.33-.476.802-.523 1.274-.57.413-.084.835-.252.886-.67l.01-.092c0-.194.063-.383.096-.574.138-.815.378-1.793 1.557-2.09.105-.021.201-.043.292-.06.212-.04.43-.045.64-.087.136-.027.273-.069.45-.167a.271.271 0 0 0 .06-.046.284.284 0 0 1 .044-.037c.249-.166.498-.332.78-.465a.099.099 0 0 0 .048-.133.096.096 0 0 1 .056-.134c.104-.033.202-.06.273-.06h.01a.497.497 0 0 0 .414-.286l.017-.025c.188-.284.456-.498.738-.688.112-.056.223-.13.325-.209.135-.106.234-.25.31-.405l.072-.144c.063-.127.086-.245-.012-.348a1.958 1.958 0 0 1-.134-.158c-.088-.12-.191-.244-.23-.401a.675.675 0 0 1 .012-.372c.022-.07.082-.127.082-.2 0-.058.018-.098.043-.132.03-.04.058-.07.034-.114-.01-.017-.034-.048-.044-.066-.042-.078-.085-.125-.127-.21-.125-.21-.287-.457-.226-.741a.677.677 0 0 1 .085-.227.621.621 0 0 1 .234-.197c.032-.017.07-.023.096-.049a.177.177 0 0 1 .01-.01c.02-.017.05-.02.073-.033.05-.028.085-.054.115-.067.02-.008.038-.026.038-.047 0-.006 0-.012.004-.017.043-.09.044-.138.09-.23.047-.143.094-.333.283-.428.189-.095.378 0 .566.095.142.095.236.19.33.285.135.136.305.057.365-.124a.734.734 0 0 1 .089-.182.296.296 0 0 1 .042-.05c.097-.09.213-.161.32-.21.084-.04.185-.077.265-.123a.448.448 0 0 0 .19-.175c.076-.144.031-.348-.043-.61-.047-.143-.047-.238-.047-.38-.048-.524.141-.81.33-1.143a1.93 1.93 0 0 0 .188-.33.345.345 0 0 0 0-.288c-.047-.095-.14-.19-.14-.38 0-.217.119-.333.242-.414.116-.076.247-.142.37-.205a.254.254 0 0 1 .284 0c.236.143.377.333.519.476.189.19.236.285.66.285.094 0 .187-.019.28-.03a.798.798 0 0 1 .334.03c.236.095.33.38.425.571.047.095.094.19.142.238.047.047.094.095.236.095.094 0 .235.048.377.095.425.19.708.666.802.856.047.096.095.238.142.333.142.333.236.524.472.762l.047.047c.047.04.09.075.129.105.2.151.392.046.343-.2-.047-.19-.094-.476.047-.714a.455.455 0 0 1 .087-.096c.264-.225.67-.3.999-.189.107.027.199.07.275.118.107.068.202.15.31.219.047.03.102.054.157.066.24.053.418-.041.673-.213.236-.19.52-.333.944-.285.273.046.59.224.824.45.017.017.031.036.042.058.02.043.04.084.055.12.019.046.05.108.095.128.013.006.029.008.041.014a.934.934 0 0 1 .217.134c.85.666.614 1.38.284 2.093-.076.152-.109.324-.18.479a1.82 1.82 0 0 1-.208.34c-.09.09-.092.28-.013.38.118.147.214.33.279.459a.365.365 0 0 1 .037.115c.029.21-.018.388-.104.606-.02.059-.04.126-.056.188-.03.117.03.24.15.24.234 0 .449.136.62.295.032.028.06.057.088.085.14.14.344.052.479-.093a.83.83 0 0 1 .607-.287c.217 0 .52-.093.486-.308a1.01 1.01 0 0 0-.062-.216l-.141-.428c-.047-.142-.142-.285-.189-.475-.189-.619.095-.904.425-1.142l.236-.19c.268-.226.367-.28.296-.569-.008-.033-.011-.063-.015-.098-.007-.067-.054-.13-.07-.195-.047-.18-.094-.407.025-.566.192-.291.669-.161.959.034a4 4 0 0 1 .268.204l.176.123c.162.114.393.303.532.163.047-.048.094-.143.141-.333l.002-.008a.241.241 0 0 1 .234-.183c.16 0 .319.057.479.067.083.005.16.004.182-.02.07-.07.013-.217-.076-.26a.775.775 0 0 0-.195-.055c-.07-.013-.143-.014-.214-.027a.765.765 0 0 1-.085-.021.91.91 0 0 1-.347-.173c-.216-.192-.216-.455-.216-.652 0-.143 0-.286-.094-.381-.047-.048-.095-.095-.283-.095a1.049 1.049 0 0 1-.502-.152.505.505 0 0 1-.167-.182 13.74 13.74 0 0 1-.093-.179.586.586 0 0 0-.078-.117c-.032-.036-.057-.036-.057-.036H58.333c-.142 0-.378 0-.472-.286-.138-.415.17-.651.36-.795a.361.361 0 0 0 .035-.03c.068-.069.16-.123.195-.213.081-.212.09-.512-.024-.627-.115-.115-.319-.06-.474-.11a.333.333 0 0 1-.14-.08c-.092-.093-.273-.23-.195-.413.004-.01.006-.01.007-.021.005-.034.051-.066.06-.099.044-.16.129-.274.184-.38.03-.055.059-.111.095-.163.101-.144.164-.27.14-.452a.628.628 0 0 1-.007-.084.46.46 0 0 0-.013-.104 1.032 1.032 0 0 1-.032-.315c.015-.18.103-.374.264-.457a.332.332 0 0 1 .158-.033c.033 0 .043 0 .061-.016a.24.24 0 0 1 .408.136l.003.023c0 .185 0 .37-.044.512a.074.074 0 0 0-.003.022c0 .056.062.089.105.053.216-.178.352-.407.323-.572a.184.184 0 0 1-.003-.032c0-.02-.005-.04-.014-.06-.09-.184-.175-.41-.175-.637 0-.285.236-.476.377-.619.095-.095.19-.142.19-.19 0-.095-.237-.238-.426-.333a1.646 1.646 0 0 1-.424-.285c-.15-.189-.122-.377-.08-.566.022-.098.08-.19.08-.29 0-.103.099-.195.075-.294-.008-.033-.032-.069-.075-.135a.23.23 0 0 0-.06-.07c-.14-.121-.298-.204-.446-.317a.866.866 0 0 1-.328-.498.696.696 0 0 1 .031-.351c.142-.476.708-.714 1.18-.904l.283-.143a.603.603 0 0 0 .145-.1.043.043 0 0 0-.01-.07.047.047 0 0 1-.022-.06.332.332 0 0 0 .028-.113c.002-.025-.004-.05-.023-.066-.092-.077-.374-.12-.542-.162-.142-.047-.284-.047-.378-.095-.377-.143-.566-.523-.708-.856-.047-.096-.094-.238-.141-.333-.142-.238-.33-.428-.52-.619l-.094-.095c-.128-.13-.218-.258-.338-.317-.026-.012-.053-.014-.08-.025a.221.221 0 0 0-.192.02.223.223 0 0 0-.026.015c-.017.013-.034.028-.052.04-.127.09-.218.181-.35.315-.236.285-.567.57-1.039.57-.188 0-.33-.047-.519-.095a.7.7 0 0 0-.789.307c-.053.087-.104.179-.154.264-.038.076-.075.151-.137.227-.031.04-.062.08-.09.123-.012.017-.013.04-.02.06-.05.133-.147.263-.367.351-.425.143-1.227-.428-1.369-.713-.141-.286-.047-.523 0-.714.048-.19.095-.285 0-.428-.236-.38-1.368-.57-1.746-.38-.189.095-.283.285-.377.523-.142.333-.283.713-.803.76-.283.049-.519-.142-.755-.284a3.15 3.15 0 0 0-.19-.123c-.11-.062-.225-.003-.304.094-.015.02-.032.039-.045.06-.082.132-.132.26-.263.349-.566.38-1.227.143-1.652-.19-.189-.143-.283-.333-.377-.476-.142-.238-.19-.333-.425-.333-.267 0-.75.156-.975.29-.082.05-.143.114-.124.208.02.103.076.219.096.322a.788.788 0 0 1-.035.465c-.283.618-1.086.428-1.7.332-.188-.047-.377-.095-.471-.095-.19 0-.425.096-.708.19-.614.19-1.322.429-1.84 0-.2-.166-.259-.333-.276-.467a.513.513 0 0 1 .042-.293c.056-.114.146-.218.252-.31.37-.322.578-.81.202-1.125a.72.72 0 0 0-.123-.086.077.077 0 0 1-.01-.01c-.016-.015-.067-.007-.077.012a.12.12 0 0 0-.01.03.045.045 0 0 1-.01.024.882.882 0 0 1-.463.275c-.283.048-.613-.095-.944-.285-.566-.238-.802-.333-.99-.095-.095.095-.095.285-.095.475 0 .333 0 .714-.472 1.047a.887.887 0 0 1-.233.125c-.242.088-.516.07-.755.167-.17.07-.314.201-.373.375-.046.14-.074.307-.102.475-.047.428-.142.904-.614 1.189-.283.143-.613.143-.896.143h-.378c-.189 0-.33.095-.519.19s-.425.238-.66.238h-.142a.793.793 0 0 1-.472-.143c-.33-.285-.33-.856-.33-1.332 0-.238 0-.57-.048-.666-.141-.238-.66-.19-1.132-.143-.33.048-.614.096-.85.048-.358-.09-.685-.298-1.051-.34a.707.707 0 0 0-.223.007c-.142.047-.33.143-.52.238-.33.19-.754.476-1.273.285-.614-.238-.614-.904-.614-1.38 0-.332 0-.57-.142-.618-.141-.047-.471 0-.707.048-.19.047-.33.047-.472.047-.338 0-.603-.073-.847-.149-.19-.06-.391-.094-.57-.184-.093-.047-.14 0-.282.048-.34.114-.746.022-.919-.292-.235-.429-.201-1.123-.167-1.468 0-.055 0-.094.01-.135.015-.071.038-.14.047-.212.014-.11.04-.247.03-.349-.005-.067-.074-.073-.131-.037-.028.017-.063.032-.086.055a.374.374 0 0 1-.047.038c-.035.023-.078.031-.116.049-.422.195-.982.264-1.466.192a6.362 6.362 0 0 0-.93-.077c-.378 0-.662.048-.803.238-.121.163-.139.36-.082.623.02.092.038.205.064.296a.58.58 0 0 1 .027.18c0 .204-.117.402-.198.566-.073.148-.029.314.13.356.293.077.726.013 1.05-.023.189 0 .377-.048.52-.048h.093c.236 0 .661-.047.756.286.047.19 0 .285-.048.38-.13.22-.503.277-.782.322-.045.008-.103.01-.149.013-.087.007-.15.062-.218.118-.038.03-.075.068-.125.118l-.1.101a1.146 1.146 0 0 1-.269.205c-.121.07-.287.07-.386.17-.226.228-.173.626-.39.863-.112.122-.29.207-.601.231-.189 0-.378-.047-.52-.095-.173-.044-.386-.088-.493-.057a.106.106 0 0 0-.045.029.111.111 0 0 0-.036.067c-.01.114.14.17.48.341.33.143.708.334.85.666a.492.492 0 0 1 .02.335c-.035.127-.114.247-.114.38 0 .18.127.274.382.446a.63.63 0 0 1 .079.065c.025.024.05.044.076.053.018.007.038.01.055.02a.124.124 0 0 1 .068.11v.007l.002.024c.054.315-.049.49-.18.611-.15.14-.391.192-.482.376-.048.095-.095.142-.142.285-.047.143-.094.333-.283.523-.567.476-.991 0-1.274-.333-.046-.046-.138-.138-.186-.23a.043.043 0 0 0-.008-.013c-.034-.034-.103.004-.098.052.008.074.008.149.008.223a.1.1 0 0 1-.005.03l-.003.012a.17.17 0 0 1-.162.117h-.018a.898.898 0 0 0-.193.019c-.057.012-.09.065-.09.123 0 .096 0 .143-.048.286-.075.34-.269.44-.44.49-.083.025-.172.029-.254.058a1.191 1.191 0 0 0-.138.062.115.115 0 0 0-.03.022c-.022.021-.06.029-.075.055a.05.05 0 0 0-.007.026c0 .032.004.064.012.094l.036.144c.045.272.132.544.181.857.005.03.002.042.024.064.01.01.034.037.04.048.048.095.127.232.038.41-.08.203-.297.268-.447.312-.048.014-.115.027-.161.046-.046.018-.077.04-.091.087-.01.032-.01.072-.01.127 0 .142-.046.428-.282.57-.19.143-.33.19-.472.19a.652.652 0 0 1-.439-.186c-.306-.288-.461-.831-.552-1.218-.029-.124-.146-.208-.236-.117-.143.143-.313.27-.51.319a.843.843 0 0 1-.576-.082c-.12-.06-.236.062-.226.197.013.2.037.395.037.565.048.76.33 1.57 0 2.235-.188.381-.519.666-.613 1.095-.094.618.283 1.236.425 1.855.094.523.141.809-.047 1.284-.048.19-.236.476-.142.666.094.238.047.095.33 0 .378-.095.944-.238 1.18.143.189.38-.141.618-.33.856-.472.524-.66.904-.567 1.618.095.666.095 1.284.095 1.95 0 .809.472 1.094.802 1.855.33.666.378 1.237.378 1.951 0 .713-.047 1.57.236 2.283.236.619.708.952.896 1.57.378 1.38-.377 2.807-.141 4.187.073.556.491 1.98 1.074 2.558.249.246.608.498.477.821-.12.294-.145.644.032.908.572.857.953 1.73 1.437 2.706.183.391.41.817.623 1.248.434.884.477 1.874.651 2.843Z"/></mask><path fill="#F5F8F9" stroke="#48639E" stroke-width="2" d="M16.424 69.572c.08.242.329.356.583.34.108-.007.215-.007.314-.007.492 0 .966-.325.919-.814a4.52 4.52 0 0 0-.164-.756c-.078-.314-.151-.637-.129-.96.016-.234.087-.417.176-.657l.048-.143c.047-.095.047-.143.094-.238.053-.162.081-.339-.057-.439a1.807 1.807 0 0 0-.368-.18c-.283-.142-.613-.285-.755-.666-.283-.808.708-1.284 1.322-1.665.289-.145.583-.313.766-.581a1.13 1.13 0 0 0 .177-.417c.048-.381-.141-.762-.566-1.285-.613-.713-.66-1.38-.142-2.283.378-.666.85-.524 1.227-.428.142.047.284.095.473.095.471.047.566-.143.755-.428.141-.238.283-.524.613-.714.236-.143.52-.19.85-.238.566-.047.802-.143.85-.666 0-.112.075-.21.184-.237h.004c.425-.048.85.094 1.274.19.425.142.802.237 1.133.19.377-.048.472-.238.613-.571l.142-.286c.141-.237.33-.333.519-.428a.876.876 0 0 0 .378-.333c.188-.333-.048-.618-.33-1.046a.657.657 0 0 0-.142-.19c-.19-.238-.425-.619-.284-.952.095-.19.236-.333.52-.428.424-.143.849.143 1.18.38.188.143.377.238.518.286.85.19 1.558-.333 2.266-.809l.14-.094a.34.34 0 0 1 .473.094c.142.19.283.38.33.38h.001c.007 0 .104-.008.377-.237.12-.122.222-.224.304-.344.096-.14.14-.313.215-.465.048-.143.048-.285.142-.428.33-.476.802-.523 1.274-.57.413-.084.835-.252.886-.67l.01-.092c0-.194.063-.383.096-.574.138-.815.378-1.793 1.557-2.09.105-.021.201-.043.292-.06.212-.04.43-.045.64-.087.136-.027.273-.069.45-.167a.271.271 0 0 0 .06-.046.284.284 0 0 1 .044-.037c.249-.166.498-.332.78-.465a.099.099 0 0 0 .048-.133.096.096 0 0 1 .056-.134c.104-.033.202-.06.273-.06h.01a.497.497 0 0 0 .414-.286l.017-.025c.188-.284.456-.498.738-.688.112-.056.223-.13.325-.209.135-.106.234-.25.31-.405l.072-.144c.063-.127.086-.245-.012-.348a1.958 1.958 0 0 1-.134-.158c-.088-.12-.191-.244-.23-.401a.675.675 0 0 1 .012-.372c.022-.07.082-.127.082-.2 0-.058.018-.098.043-.132.03-.04.058-.07.034-.114-.01-.017-.034-.048-.044-.066-.042-.078-.085-.125-.127-.21-.125-.21-.287-.457-.226-.741a.677.677 0 0 1 .085-.227.621.621 0 0 1 .234-.197c.032-.017.07-.023.096-.049a.177.177 0 0 1 .01-.01c.02-.017.05-.02.073-.033.05-.028.085-.054.115-.067.02-.008.038-.026.038-.047 0-.006 0-.012.004-.017.043-.09.044-.138.09-.23.047-.143.094-.333.283-.428.189-.095.378 0 .566.095.142.095.236.19.33.285.135.136.305.057.365-.124a.734.734 0 0 1 .089-.182.296.296 0 0 1 .042-.05c.097-.09.213-.161.32-.21.084-.04.185-.077.265-.123a.448.448 0 0 0 .19-.175c.076-.144.031-.348-.043-.61-.047-.143-.047-.238-.047-.38-.048-.524.141-.81.33-1.143a1.93 1.93 0 0 0 .188-.33.345.345 0 0 0 0-.288c-.047-.095-.14-.19-.14-.38 0-.217.119-.333.242-.414.116-.076.247-.142.37-.205a.254.254 0 0 1 .284 0c.236.143.377.333.519.476.189.19.236.285.66.285.094 0 .187-.019.28-.03a.798.798 0 0 1 .334.03c.236.095.33.38.425.571.047.095.094.19.142.238.047.047.094.095.236.095.094 0 .235.048.377.095.425.19.708.666.802.856.047.096.095.238.142.333.142.333.236.524.472.762l.047.047c.047.04.09.075.129.105.2.151.392.046.343-.2-.047-.19-.094-.476.047-.714a.455.455 0 0 1 .087-.096c.264-.225.67-.3.999-.189.107.027.199.07.275.118.107.068.202.15.31.219.047.03.102.054.157.066.24.053.418-.041.673-.213.236-.19.52-.333.944-.285.273.046.59.224.824.45.017.017.031.036.042.058.02.043.04.084.055.12.019.046.05.108.095.128.013.006.029.008.041.014a.934.934 0 0 1 .217.134c.85.666.614 1.38.284 2.093-.076.152-.109.324-.18.479a1.82 1.82 0 0 1-.208.34c-.09.09-.092.28-.013.38.118.147.214.33.279.459a.365.365 0 0 1 .037.115c.029.21-.018.388-.104.606-.02.059-.04.126-.056.188-.03.117.03.24.15.24.234 0 .449.136.62.295.032.028.06.057.088.085.14.14.344.052.479-.093a.83.83 0 0 1 .607-.287c.217 0 .52-.093.486-.308a1.01 1.01 0 0 0-.062-.216l-.141-.428c-.047-.142-.142-.285-.189-.475-.189-.619.095-.904.425-1.142l.236-.19c.268-.226.367-.28.296-.569-.008-.033-.011-.063-.015-.098-.007-.067-.054-.13-.07-.195-.047-.18-.094-.407.025-.566.192-.291.669-.161.959.034a4 4 0 0 1 .268.204l.176.123c.162.114.393.303.532.163.047-.048.094-.143.141-.333l.002-.008a.241.241 0 0 1 .234-.183c.16 0 .319.057.479.067.083.005.16.004.182-.02.07-.07.013-.217-.076-.26a.775.775 0 0 0-.195-.055c-.07-.013-.143-.014-.214-.027a.765.765 0 0 1-.085-.021.91.91 0 0 1-.347-.173c-.216-.192-.216-.455-.216-.652 0-.143 0-.286-.094-.381-.047-.048-.095-.095-.283-.095a1.049 1.049 0 0 1-.502-.152.505.505 0 0 1-.167-.182 13.74 13.74 0 0 1-.093-.179.586.586 0 0 0-.078-.117c-.032-.036-.057-.036-.057-.036H58.333c-.142 0-.378 0-.472-.286-.138-.415.17-.651.36-.795a.361.361 0 0 0 .035-.03c.068-.069.16-.123.195-.213.081-.212.09-.512-.024-.627-.115-.115-.319-.06-.474-.11a.333.333 0 0 1-.14-.08c-.092-.093-.273-.23-.195-.413.004-.01.006-.01.007-.021.005-.034.051-.066.06-.099.044-.16.129-.274.184-.38.03-.055.059-.111.095-.163.101-.144.164-.27.14-.452a.628.628 0 0 1-.007-.084.46.46 0 0 0-.013-.104 1.032 1.032 0 0 1-.032-.315c.015-.18.103-.374.264-.457a.332.332 0 0 1 .158-.033c.033 0 .043 0 .061-.016a.24.24 0 0 1 .408.136l.003.023c0 .185 0 .37-.044.512a.074.074 0 0 0-.003.022c0 .056.062.089.105.053.216-.178.352-.407.323-.572a.184.184 0 0 1-.003-.032c0-.02-.005-.04-.014-.06-.09-.184-.175-.41-.175-.637 0-.285.236-.476.377-.619.095-.095.19-.142.19-.19 0-.095-.237-.238-.426-.333a1.646 1.646 0 0 1-.424-.285c-.15-.189-.122-.377-.08-.566.022-.098.08-.19.08-.29 0-.103.099-.195.075-.294-.008-.033-.032-.069-.075-.135a.23.23 0 0 0-.06-.07c-.14-.121-.298-.204-.446-.317a.866.866 0 0 1-.328-.498.696.696 0 0 1 .031-.351c.142-.476.708-.714 1.18-.904l.283-.143a.603.603 0 0 0 .145-.1.043.043 0 0 0-.01-.07.047.047 0 0 1-.022-.06.332.332 0 0 0 .028-.113c.002-.025-.004-.05-.023-.066-.092-.077-.374-.12-.542-.162-.142-.047-.284-.047-.378-.095-.377-.143-.566-.523-.708-.856-.047-.096-.094-.238-.141-.333-.142-.238-.33-.428-.52-.619l-.094-.095c-.128-.13-.218-.258-.338-.317-.026-.012-.053-.014-.08-.025a.221.221 0 0 0-.192.02.223.223 0 0 0-.026.015c-.017.013-.034.028-.052.04-.127.09-.218.181-.35.315-.236.285-.567.57-1.039.57-.188 0-.33-.047-.519-.095a.7.7 0 0 0-.789.307c-.053.087-.104.179-.154.264-.038.076-.075.151-.137.227-.031.04-.062.08-.09.123-.012.017-.013.04-.02.06-.05.133-.147.263-.367.351-.425.143-1.227-.428-1.369-.713-.141-.286-.047-.523 0-.714.048-.19.095-.285 0-.428-.236-.38-1.368-.57-1.746-.38-.189.095-.283.285-.377.523-.142.333-.283.713-.803.76-.283.049-.519-.142-.755-.284a3.15 3.15 0 0 0-.19-.123c-.11-.062-.225-.003-.304.094-.015.02-.032.039-.045.06-.082.132-.132.26-.263.349-.566.38-1.227.143-1.652-.19-.189-.143-.283-.333-.377-.476-.142-.238-.19-.333-.425-.333-.267 0-.75.156-.975.29-.082.05-.143.114-.124.208.02.103.076.219.096.322a.788.788 0 0 1-.035.465c-.283.618-1.086.428-1.7.332-.188-.047-.377-.095-.471-.095-.19 0-.425.096-.708.19-.614.19-1.322.429-1.84 0-.2-.166-.259-.333-.276-.467a.513.513 0 0 1 .042-.293c.056-.114.146-.218.252-.31.37-.322.578-.81.202-1.125a.72.72 0 0 0-.123-.086.077.077 0 0 1-.01-.01c-.016-.015-.067-.007-.077.012a.12.12 0 0 0-.01.03.045.045 0 0 1-.01.024.882.882 0 0 1-.463.275c-.283.048-.613-.095-.944-.285-.566-.238-.802-.333-.99-.095-.095.095-.095.285-.095.475 0 .333 0 .714-.472 1.047a.887.887 0 0 1-.233.125c-.242.088-.516.07-.755.167-.17.07-.314.201-.373.375-.046.14-.074.307-.102.475-.047.428-.142.904-.614 1.189-.283.143-.613.143-.896.143h-.378c-.189 0-.33.095-.519.19s-.425.238-.66.238h-.142a.793.793 0 0 1-.472-.143c-.33-.285-.33-.856-.33-1.332 0-.238 0-.57-.048-.666-.141-.238-.66-.19-1.132-.143-.33.048-.614.096-.85.048-.358-.09-.685-.298-1.051-.34a.707.707 0 0 0-.223.007c-.142.047-.33.143-.52.238-.33.19-.754.476-1.273.285-.614-.238-.614-.904-.614-1.38 0-.332 0-.57-.142-.618-.141-.047-.471 0-.707.048-.19.047-.33.047-.472.047-.338 0-.603-.073-.847-.149-.19-.06-.391-.094-.57-.184-.093-.047-.14 0-.282.048-.34.114-.746.022-.919-.292-.235-.429-.201-1.123-.167-1.468 0-.055 0-.094.01-.135.015-.071.038-.14.047-.212.014-.11.04-.247.03-.349-.005-.067-.074-.073-.131-.037-.028.017-.063.032-.086.055a.374.374 0 0 1-.047.038c-.035.023-.078.031-.116.049-.422.195-.982.264-1.466.192a6.362 6.362 0 0 0-.93-.077c-.378 0-.662.048-.803.238-.121.163-.139.36-.082.623.02.092.038.205.064.296a.58.58 0 0 1 .027.18c0 .204-.117.402-.198.566-.073.148-.029.314.13.356.293.077.726.013 1.05-.023.189 0 .377-.048.52-.048h.093c.236 0 .661-.047.756.286.047.19 0 .285-.048.38-.13.22-.503.277-.782.322-.045.008-.103.01-.149.013-.087.007-.15.062-.218.118-.038.03-.075.068-.125.118l-.1.101a1.146 1.146 0 0 1-.269.205c-.121.07-.287.07-.386.17-.226.228-.173.626-.39.863-.112.122-.29.207-.601.231-.189 0-.378-.047-.52-.095-.173-.044-.386-.088-.493-.057a.106.106 0 0 0-.045.029.111.111 0 0 0-.036.067c-.01.114.14.17.48.341.33.143.708.334.85.666a.492.492 0 0 1 .02.335c-.035.127-.114.247-.114.38 0 .18.127.274.382.446a.63.63 0 0 1 .079.065c.025.024.05.044.076.053.018.007.038.01.055.02a.124.124 0 0 1 .068.11v.007l.002.024c.054.315-.049.49-.18.611-.15.14-.391.192-.482.376-.048.095-.095.142-.142.285-.047.143-.094.333-.283.523-.567.476-.991 0-1.274-.333-.046-.046-.138-.138-.186-.23a.043.043 0 0 0-.008-.013c-.034-.034-.103.004-.098.052.008.074.008.149.008.223a.1.1 0 0 1-.005.03l-.003.012a.17.17 0 0 1-.162.117h-.018a.898.898 0 0 0-.193.019c-.057.012-.09.065-.09.123 0 .096 0 .143-.048.286-.075.34-.269.44-.44.49-.083.025-.172.029-.254.058a1.191 1.191 0 0 0-.138.062.115.115 0 0 0-.03.022c-.022.021-.06.029-.075.055a.05.05 0 0 0-.007.026c0 .032.004.064.012.094l.036.144c.045.272.132.544.181.857.005.03.002.042.024.064.01.01.034.037.04.048.048.095.127.232.038.41-.08.203-.297.268-.447.312-.048.014-.115.027-.161.046-.046.018-.077.04-.091.087-.01.032-.01.072-.01.127 0 .142-.046.428-.282.57-.19.143-.33.19-.472.19a.652.652 0 0 1-.439-.186c-.306-.288-.461-.831-.552-1.218-.029-.124-.146-.208-.236-.117-.143.143-.313.27-.51.319a.843.843 0 0 1-.576-.082c-.12-.06-.236.062-.226.197.013.2.037.395.037.565.048.76.33 1.57 0 2.235-.188.381-.519.666-.613 1.095-.094.618.283 1.236.425 1.855.094.523.141.809-.047 1.284-.048.19-.236.476-.142.666.094.238.047.095.33 0 .378-.095.944-.238 1.18.143.189.38-.141.618-.33.856-.472.524-.66.904-.567 1.618.095.666.095 1.284.095 1.95 0 .809.472 1.094.802 1.855.33.666.378 1.237.378 1.951 0 .713-.047 1.57.236 2.283.236.619.708.952.896 1.57.378 1.38-.377 2.807-.141 4.187.073.556.491 1.98 1.074 2.558.249.246.608.498.477.821-.12.294-.145.644.032.908.572.857.953 1.73 1.437 2.706.183.391.41.817.623 1.248.434.884.477 1.874.651 2.843Z" mask="url(#a)"/></svg>