<svg xmlns:xlink="http://www.w3.org/1999/xlink" xmlns="http://www.w3.org/2000/svg" width="71" height="71" fill="none"><path fill="#24A7D0" d="M40.766 35.69a1.283 1.283 0 1 0 0 2.566 1.283 1.283 0 0 0 0-2.565Zm.626 1.284a.627.627 0 1 1-1.253 0 .627.627 0 0 1 1.253 0ZM36.124 35.69a1.283 1.283 0 1 0 0 2.566 1.283 1.283 0 0 0 0-2.565Zm.627 1.284a.626.626 0 1 1-1.252 0 .626.626 0 0 1 1.252 0ZM31.483 35.69a1.283 1.283 0 1 0 0 2.566 1.283 1.283 0 0 0 0-2.565Zm.626 1.284a.626.626 0 1 1-1.251 0 .626.626 0 0 1 1.251 0ZM22.343 44.25a1.283 1.283 0 1 0 0 2.565 1.283 1.283 0 0 0 0-2.566Zm.62 1.282a.626.626 0 1 1-1.253.015.626.626 0 0 1 1.252-.015ZM17.702 44.25a1.283 1.283 0 1 0 0 2.565 1.283 1.283 0 0 0 0-2.566Zm.619 1.282a.626.626 0 1 1-1.252.015.626.626 0 0 1 1.252-.015ZM13.075 44.25a1.283 1.283 0 1 0 0 2.565 1.283 1.283 0 0 0 0-2.566Zm.627 1.282a.627.627 0 0 1-.627.627.627.627 0 1 1 0-1.246.626.626 0 0 1 .627.62ZM59.28 44.25a1.283 1.283 0 1 0 0 2.565 1.283 1.283 0 0 0 0-2.566Zm.626 1.282a.626.626 0 1 1-1.253.015.626.626 0 0 1 1.253-.015ZM54.638 44.25a1.283 1.283 0 1 0 0 2.565 1.283 1.283 0 0 0 0-2.566Zm.619 1.282a.626.626 0 1 1-1.253.015.626.626 0 0 1 1.253-.015ZM49.996 44.25a1.283 1.283 0 1 0 0 2.565 1.283 1.283 0 0 0 0-2.566Zm.62 1.282a.627.627 0 1 1-1.254.015.627.627 0 0 1 1.253-.015Z"/><path fill="#48639E" stroke="#48639E" stroke-width=".6" d="M66.66 69.245V64h-2.475V52.876h2.913v-.853h-2.913v-8.876h2.913v-.838h-2.913v-5.003h-.045a.43.43 0 0 0-.227-.204 27.804 27.804 0 0 0-16.875-1.117v-2.166h2.105v-.853h-4.37V30h-17.84v2.966h-4.876v.853h2.068v2.03a28.21 28.21 0 0 0-16.333 1.253.4.4 0 0 0-.226.204h-.045v5.003H4.608v.853H7.52v8.86H4.608v.854H7.52v11.086H4.84v5.283H1V70h69.69v-.755h-4.03Zm-3.328-31.449v4.332a28.484 28.484 0 0 0-9.728-1.705 22.929 22.929 0 0 0-8.913 1.592v-4.272c.935-.43 8.74-3.713 18.641.053ZM44.691 57.238V42.98c.943-.43 8.74-3.713 18.641.045v14.212H44.691Zm18.641.853V64H44.691v-5.91h18.641ZM27.785 30.853H43.92v2.113H27.785v-2.113Zm-2.808 2.966h21.185v2.415a8.299 8.299 0 0 0-2.143.92.413.413 0 0 0-.128.152h-.046v3.102h-15.97v-3.102h-.045a.415.415 0 0 0-.128-.151 10.108 10.108 0 0 0-2.725-1.117v-2.22Zm10.876 10.158c-2.853 0-5.17 1.729-5.17 3.85V64h-2.815V41.26h15.97V64H41V47.826c0-2.128-2.317-3.849-5.17-3.849h.023Zm4.317 3.85V64h-8.634V47.826c0-1.652 1.94-3.019 4.317-3.019 2.377 0 4.317 1.344 4.317 3.02ZM8.374 37.796c9.902-3.774 17.705-.484 18.641-.054v4.272c-2.838-1.313-10.566-2.845-18.641.113v-4.332Zm0 5.237c9.902-3.774 17.705-.483 18.641-.045v14.249H8.374V43.034Zm0 15.094h18.641v5.91H8.374v-5.91Zm-2.68 6.793H65.8v4.302H5.694V64.92Z"/></svg>