<svg xmlns:xlink="http://www.w3.org/1999/xlink" xmlns="http://www.w3.org/2000/svg" width="70" height="70" fill="none"><mask id="a" fill="#fff"><path d="M59.066 46.482h-.083c-.082.083-.165.249-.413.332-.495.332-1.073.249-1.569.166-.495-.083-.99-.166-1.404.083 0 .166-.082.415-.33.498-.165.083-.33.166-.578.166-.413 0-.909-.166-1.156-.332-.413-.332-.496-.996-.578-1.495 0-.082 0-.248-.083-.331-.083-.25-.165-.582-.165-.83a5.13 5.13 0 0 1-.248-1.494c0-.166 0-.25.082-.415v-.166c-.082 0-.33.082-.412.166-.166.083-.33.166-.496.166-.33.082-.743.082-1.074-.25-.247-.248-.247-.663-.247-.913v-.331c0-.166-.083-.25-.33-.499-.166-.166-.331-.332-.414-.498-.165-.332-.165-.498-.165-.664v-.249c-.165-.58-.578-1.41-.99-1.577h-.249c-.247 0-.495.083-.743-.083s-.413-.332-.578-.498c-.083-.166-.248-.249-.33-.332h-.33c-.248 0-.661 0-.91-.249-.247-.249-.33-.58-.412-.83-.083-.415-.165-.415-.413-.415-.33 0-.578.332-.66.664l-.083.332h-.33c-.744 0-1.074-.249-1.322-.58-.165-.167-.248-.25-.496-.333-.082 0-.165-.083-.33-.083-.33 0-.743-.083-.991-.498s-.083-.913.083-1.328c.082-.249.165-.58.165-.747-.083-.332-.413-.747-.578-.83l-.248-.083-.083-.249c-.165-.664.083-.913.413-1.079.083-.083.165-.083.165-.166.166-.166.248-.415.33-.747.083-.166.083-.332.166-.498.578-1.245.743-1.909-.248-2.656-.082-.083-.165-.083-.248-.166a1.726 1.726 0 0 1-.495-.332c-.165-.166-.165-.332-.165-.498a1.966 1.966 0 0 0-.909-.498c-.33-.083-.66.083-1.073.415-.496.332-1.157.747-2.065.415-.248-.083-.496-.249-.66-.332-.166-.083-.249-.166-.414-.249h-.578c-.33.083-.413.166-.413.166-.082.083 0 .332 0 .581.083.415.248 1.08-.33 1.494-.578.498-1.404-.166-1.9-.498l-.082-.083c-.66-.498-.909-1.079-1.156-1.66l-.248-.498c-.248-.498-.578-.913-.991-1.079-.165-.083-.248-.083-.413-.083-.248-.083-.66-.083-.991-.498-.165-.166-.248-.498-.33-.664-.083-.249-.166-.498-.331-.581 0 0-.165 0-.33.083-.083 0-.248.083-.33.083-1.074.083-1.487-.332-1.818-.747L23.636 21c-.083 0-.083.083-.165.083-.083 0-.248.083-.248.166s0 .083.082.249c.083.166.33.498.166.996-.166.415-.33.664-.496.996-.33.498-.495.83-.495 1.494 0 .166.082.332.082.581.165.664.248 1.411-.413 2.075-.165.166-.413.25-.66.332l-.496.25c-.082.165-.165.331-.165.58 0 .166-.083.332-.083.415l-.082.25-.248.082c-.66.083-1.156-.332-1.487-.664-.165-.166-.33-.249-.413-.332-.082-.083-.165-.083-.247-.083 0 .083 0 .083-.083.166-.082.166-.082.332-.165.498-.165.25-.248.415-.413.415 0 0-.083 0-.083.083-.082.083-.165.083-.247.166-.166.083-.166.166-.248.166-.083.25 0 .498.248.83.082.166.247.332.247.581.166.415.248.664-.082.913v.083c0 .083-.083.166-.083.25-.082.082-.082.165 0 .331 0 .166.165.332.33.415.248.25.496.581.496.996 0 .332-.495 1.245-.578 1.411-.248.332-.66.581-1.074.83-.247.166-.413.25-.578.415-.165.083-.248.332-.33.498-.165.25-.248.498-.496.664-.247.166-.495.166-.825.25h-.083v.165c-.165.83.248 1.494.578 2.158.413.748.909 1.66.496 2.906-.248.747-.33 1.577-.496 2.407-.083.332-.083.747-.165 1.162-.165.913-.66 1.162-1.074 1.41h-.082c.66.084 1.404.333 1.404 1.329 0 .664-.413 1.079-.826 1.494-.165.249-.413.415-.496.664-.165.415-.248.83-.33 1.328-.083.498-.165.996-.33 1.494-.083.166-.166.332-.33.58-.166.25-.331.499-.331.748 0 .415.33.83.66 1.245.579.664 1.24 1.494.579 2.656-.413.747-1.322.996-2.148 1.245-.082 0-.247.083-.33.083.165.166.413.249.66.415 1.074.58 2.478 1.328 1.818 3.237a4.058 4.058 0 0 1-.248.581c-.165.249-.248.332-.083.747.083.332.248.498.496.83.248.332.495.664.578 1.162a5.3 5.3 0 0 0 1.652.249 5.3 5.3 0 0 1 1.651.25c.413.165.744.331 1.074.497.33.25.743.415 1.074.498.495.083.495 0 .743-.415.083-.166.165-.415.33-.664.248-.332.661-.498.909-.664.165-.083.413-.166.495-.332.083-.083.083-.083.083-.332 0-.166 0-.332.082-.498.166-.498.991-.747 1.322-.83.33-.083.66-.083.99.083.166.083.331.166.496.332.166.083.33.249.413.249 0 0 .083 0 .166-.083.165-.083.33-.166.66-.083.248.083.413.166.578.249l.166.083c.082.083.165.083.247.166.083.083.248.166.248.166.083-.083.248-.166.578-.332a.636.636 0 0 0 .165-.415c.083-.332.166-.664.496-.913.578-.332 1.074 0 1.321.249.083.083.248.166.33.166.083 0 .248 0 .414-.083h.082c.578-.166.826-.498.826-1.162 0-.415-.165-.498-.413-.747l-.33-.332c-.248-.332-.33-.664-.248-.913.083-.581.743-.913 1.239-1.162.248-.166.495-.25.66-.25.166-.082.413-.165.579-.248l.165-.166c.165-.166.33-.415.66-.498.33-.083.661-.083.909 0 .248 0 .495.083.66 0 .166-.083.248-.166.414-.332.165-.166.33-.332.578-.415.908-.415 1.404-.25 2.064.083l.413.166c.33.166.909.415 1.157.249.082 0 .082 0 .082-.25v-.497c.083-.332.248-.498.413-.664.083-.083.165-.25.248-.332.082-.083 0-.332 0-.581 0-.332-.083-.747.165-.996.413-.581 1.404-.581 1.9-.415.412.083.743.498 1.073.83.33.332.66.747.909.664.165-.083.165-.498 0-1.411-.083-.25-.083-.415-.083-.581v-.25l.248-.082c.248-.166.495-.25.743-.332.413-.166.743-.25.909-.498.082-.166.247-.25.33-.415.248-.415.495-.747 1.239-.996.826-.25 1.9-.498 2.395 0 .082.083.165.166.165.332.66-.332 1.404-.332 2.065-.25.578 0 1.238.084 1.734-.248.495-.332 1.156-.83 1.321-1.245.083-.25.083-.415.083-.581 0-.332 0-.747.578-1.162.248-.166.413-.332.66-.498.744-.498 1.24-.83 1.157-1.494 0-.25-.083-.332-.083-.415-.165-.332-.082-.581.166-.913.413-.581.413-.581.33-.581"/></mask><path fill="#F5F8F9" stroke="#48639E" stroke-width="2" d="M59.066 46.482h-.083c-.082.083-.165.249-.413.332-.495.332-1.073.249-1.569.166-.495-.083-.99-.166-1.404.083 0 .166-.082.415-.33.498-.165.083-.33.166-.578.166-.413 0-.909-.166-1.156-.332-.413-.332-.496-.996-.578-1.495 0-.082 0-.248-.083-.331-.083-.25-.165-.582-.165-.83a5.13 5.13 0 0 1-.248-1.494c0-.166 0-.25.082-.415v-.166c-.082 0-.33.082-.412.166-.166.083-.33.166-.496.166-.33.082-.743.082-1.074-.25-.247-.248-.247-.663-.247-.913v-.331c0-.166-.083-.25-.33-.499-.166-.166-.331-.332-.414-.498-.165-.332-.165-.498-.165-.664v-.249c-.165-.58-.578-1.41-.99-1.577h-.249c-.247 0-.495.083-.743-.083s-.413-.332-.578-.498c-.083-.166-.248-.249-.33-.332h-.33c-.248 0-.661 0-.91-.249-.247-.249-.33-.58-.412-.83-.083-.415-.165-.415-.413-.415-.33 0-.578.332-.66.664l-.083.332h-.33c-.744 0-1.074-.249-1.322-.58-.165-.167-.248-.25-.496-.333-.082 0-.165-.083-.33-.083-.33 0-.743-.083-.991-.498s-.083-.913.083-1.328c.082-.249.165-.58.165-.747-.083-.332-.413-.747-.578-.83l-.248-.083-.083-.249c-.165-.664.083-.913.413-1.079.083-.083.165-.083.165-.166.166-.166.248-.415.33-.747.083-.166.083-.332.166-.498.578-1.245.743-1.909-.248-2.656-.082-.083-.165-.083-.248-.166a1.726 1.726 0 0 1-.495-.332c-.165-.166-.165-.332-.165-.498a1.966 1.966 0 0 0-.909-.498c-.33-.083-.66.083-1.073.415-.496.332-1.157.747-2.065.415-.248-.083-.496-.249-.66-.332-.166-.083-.249-.166-.414-.249h-.578c-.33.083-.413.166-.413.166-.082.083 0 .332 0 .581.083.415.248 1.08-.33 1.494-.578.498-1.404-.166-1.9-.498l-.082-.083c-.66-.498-.909-1.079-1.156-1.66l-.248-.498c-.248-.498-.578-.913-.991-1.079-.165-.083-.248-.083-.413-.083-.248-.083-.66-.083-.991-.498-.165-.166-.248-.498-.33-.664-.083-.249-.166-.498-.331-.581 0 0-.165 0-.33.083-.083 0-.248.083-.33.083-1.074.083-1.487-.332-1.818-.747L23.636 21c-.083 0-.083.083-.165.083-.083 0-.248.083-.248.166s0 .083.082.249c.083.166.33.498.166.996-.166.415-.33.664-.496.996-.33.498-.495.83-.495 1.494 0 .166.082.332.082.581.165.664.248 1.411-.413 2.075-.165.166-.413.25-.66.332l-.496.25c-.082.165-.165.331-.165.58 0 .166-.083.332-.083.415l-.082.25-.248.082c-.66.083-1.156-.332-1.487-.664-.165-.166-.33-.249-.413-.332-.082-.083-.165-.083-.247-.083 0 .083 0 .083-.083.166-.082.166-.082.332-.165.498-.165.25-.248.415-.413.415 0 0-.083 0-.083.083-.082.083-.165.083-.247.166-.166.083-.166.166-.248.166-.083.25 0 .498.248.83.082.166.247.332.247.581.166.415.248.664-.082.913v.083c0 .083-.083.166-.083.25-.082.082-.082.165 0 .331 0 .166.165.332.33.415.248.25.496.581.496.996 0 .332-.495 1.245-.578 1.411-.248.332-.66.581-1.074.83-.247.166-.413.25-.578.415-.165.083-.248.332-.33.498-.165.25-.248.498-.496.664-.247.166-.495.166-.825.25h-.083v.165c-.165.83.248 1.494.578 2.158.413.748.909 1.66.496 2.906-.248.747-.33 1.577-.496 2.407-.083.332-.083.747-.165 1.162-.165.913-.66 1.162-1.074 1.41h-.082c.66.084 1.404.333 1.404 1.329 0 .664-.413 1.079-.826 1.494-.165.249-.413.415-.496.664-.165.415-.248.83-.33 1.328-.083.498-.165.996-.33 1.494-.083.166-.166.332-.33.58-.166.25-.331.499-.331.748 0 .415.33.83.66 1.245.579.664 1.24 1.494.579 2.656-.413.747-1.322.996-2.148 1.245-.082 0-.247.083-.33.083.165.166.413.249.66.415 1.074.58 2.478 1.328 1.818 3.237a4.058 4.058 0 0 1-.248.581c-.165.249-.248.332-.083.747.083.332.248.498.496.83.248.332.495.664.578 1.162a5.3 5.3 0 0 0 1.652.249 5.3 5.3 0 0 1 1.651.25c.413.165.744.331 1.074.497.33.25.743.415 1.074.498.495.083.495 0 .743-.415.083-.166.165-.415.33-.664.248-.332.661-.498.909-.664.165-.083.413-.166.495-.332.083-.083.083-.083.083-.332 0-.166 0-.332.082-.498.166-.498.991-.747 1.322-.83.33-.083.66-.083.99.083.166.083.331.166.496.332.166.083.33.249.413.249 0 0 .083 0 .166-.083.165-.083.33-.166.66-.083.248.083.413.166.578.249l.166.083c.082.083.165.083.247.166.083.083.248.166.248.166.083-.083.248-.166.578-.332a.636.636 0 0 0 .165-.415c.083-.332.166-.664.496-.913.578-.332 1.074 0 1.321.249.083.083.248.166.33.166.083 0 .248 0 .414-.083h.082c.578-.166.826-.498.826-1.162 0-.415-.165-.498-.413-.747l-.33-.332c-.248-.332-.33-.664-.248-.913.083-.581.743-.913 1.239-1.162.248-.166.495-.25.66-.25.166-.082.413-.165.579-.248l.165-.166c.165-.166.33-.415.66-.498.33-.083.661-.083.909 0 .248 0 .495.083.66 0 .166-.083.248-.166.414-.332.165-.166.33-.332.578-.415.908-.415 1.404-.25 2.064.083l.413.166c.33.166.909.415 1.157.249.082 0 .082 0 .082-.25v-.497c.083-.332.248-.498.413-.664.083-.083.165-.25.248-.332.082-.083 0-.332 0-.581 0-.332-.083-.747.165-.996.413-.581 1.404-.581 1.9-.415.412.083.743.498 1.073.83.33.332.66.747.909.664.165-.083.165-.498 0-1.411-.083-.25-.083-.415-.083-.581v-.25l.248-.082c.248-.166.495-.25.743-.332.413-.166.743-.25.909-.498.082-.166.247-.25.33-.415.248-.415.495-.747 1.239-.996.826-.25 1.9-.498 2.395 0 .082.083.165.166.165.332.66-.332 1.404-.332 2.065-.25.578 0 1.238.084 1.734-.248.495-.332 1.156-.83 1.321-1.245.083-.25.083-.415.083-.581 0-.332 0-.747.578-1.162.248-.166.413-.332.66-.498.744-.498 1.24-.83 1.157-1.494 0-.25-.083-.332-.083-.415-.165-.332-.082-.581.166-.913.413-.581.413-.581.33-.581Z" mask="url(#a)"/></svg>