<svg xmlns:xlink="http://www.w3.org/1999/xlink" xmlns="http://www.w3.org/2000/svg" width="70" height="70" fill="none"><g stroke-width=".6" clip-path="url(#a)"><path fill="#48639E" stroke="#48639E" d="M65.089 69.232V57.216a28.426 28.426 0 0 0-2.01-6.799l2.14-8.272h-9.517c-2.246-1.191-4.626-1.9-7.047-2.1-3.684-.286-8.858.724-12.618 7.103l-.13.223.528.545.13-.223c3.582-6.075 8.53-7.031 12.042-6.8 2.32.196 4.602.871 6.759 2.002l.158.09a12.247 12.247 0 0 1 2.937 1.858c-1.272.212-2.534.51-3.781.893-1.811-1.023-3.745-1.628-5.716-1.787l-.816-.044v-.072l-.117.054h-.137c-4.184-.007-8.216 2.045-11.288 5.744l-.686 1.045.501.581.686-1.01.467-.509c.519.625 1 1.3 1.44 2.02a28.27 28.27 0 0 0-2.435 4.225l-.645 1.626.597.411.638-1.617c.041-.09 3.733-8.532 10.979-11.614h.837c1.592.14 3.161.575 4.659 1.295-.46.161-.892.322-1.325.492-4.672 1.85-10.944 5.762-14.484 13.972l-.103.242.583.446.103-.25c3.43-7.951 9.53-11.757 14.046-13.553a26.09 26.09 0 0 1 2.188-.759c1.909.99 3.5 2.799 4.508 5.128l-5.235 17.43h-14.45v-3.484h1.935v-.894H27.124v.894h1.503v3.484H14.409l-5.242-17.43c1.017-2.321 2.605-4.128 4.508-5.128.734.223 1.468.483 2.189.76 4.515 1.786 10.615 5.601 14.046 13.543l.102.26.584-.439-.103-.25c-3.54-8.21-9.812-12.123-14.41-13.954-.432-.17-.87-.33-1.324-.492a13.427 13.427 0 0 1 4.66-1.295h.843c7.232 3.109 10.917 11.542 10.979 11.614l.645 1.626.597-.411-.686-1.644a27.47 27.47 0 0 0-2.43-4.208c.441-.72.923-1.394 1.441-2.019.151.161.31.322.447.483l.686 1.036.5-.58-.686-1.073c-3.093-3.725-7.163-5.77-11.376-5.718h-.172l-.81.045c-1.97.163-3.903.768-5.715 1.787a36.95 36.95 0 0 0-3.788-.893 12.28 12.28 0 0 1 2.978-1.877l.158-.071c2.135-1.126 4.393-1.804 6.69-2.01 3.52-.268 8.46.697 12.042 6.754l.13.223.529-.545-.13-.178c-3.76-6.38-8.962-7.38-12.619-7.103-2.421.198-4.802.91-7.047 2.108H3.101l2.148 8.255a28.525 28.525 0 0 0-2.01 6.862v11.962h-.88V70h64.754v-.768H65.09ZM38.96 65.74v3.493h-9.812V65.74h9.812ZM7.397 55.965l-1.42-5.485c.326-.967.755-1.87 1.276-2.68l6.429 21.441h-2.827l-3.43-13.07v-.197l-.028-.009Zm.686-10.443c-.2.223-.391.455-.57.688l-.226-.751.796.063Zm-.33 1.626c.387-.53.805-1.02 1.25-1.466 1.186.161 2.373.402 3.547.706-1.507 1.049-2.778 2.588-3.692 4.467l-1.104-3.707Zm3.226-4.119a13.14 13.14 0 0 0-2.155 1.697c-1.283-.16-2.058-.17-2.058-.17H6.27l.687 2.36a13.766 13.766 0 0 0-1.304 2.394L4.02 43.056l6.958-.027Zm-.838 26.203h-3.04V58.181l.076-.366 2.964 11.417ZM6.76 56.224c-.192 1.224-.323 1.787-.323 1.787v11.221H3.911V57.377c.343-2.04.892-4.01 1.633-5.86l1.215 4.707Zm54.391 1.582.076.375v11.051h-3.047l2.971-11.426Zm-.082-12.347-.233.795a16.15 16.15 0 0 0-.563-.688c.316 0 .583-.053.79-.062l.006-.045Zm1.592 3.842c-.346-.82-.76-1.587-1.235-2.288l-.062-.089.686-2.358h-.494s-.775 0-2.058.178a12.814 12.814 0 0 0-2.175-1.697h6.964L62.66 49.3Zm-3.335-3.663c.444.46.86.965 1.242 1.51L59.47 50.81c-.915-1.877-2.186-3.416-3.691-4.467a30.167 30.167 0 0 1 3.54-.705h.007Zm1.743 2.198c.522.81.954 1.712 1.283 2.68l-1.434 5.494h-.075v.17l-3.37 13.052h-2.826l6.422-21.396Zm3.349 9.487v11.91h-2.519V57.965a28.614 28.614 0 0 1-.315-1.786l1.221-4.7a28.918 28.918 0 0 1 1.633 5.808l-.02.035Zm-18.41-12.418c-2.474 1.496-4.701 3.601-6.56 6.2a18.335 18.335 0 0 0-1.372-1.93c2.29-2.35 5.036-3.828 7.932-4.27Zm-23.693 0c2.9.437 5.648 1.916 7.939 4.27a16.515 16.515 0 0 0-1.373 1.93c-1.86-2.599-4.09-4.704-6.566-6.2Z"/><path fill="#24A7D0" stroke="#24A7D0" d="M38.166 62.388v.3H39.133v2.777H28.974v-2.75h1.222V60.035h1.907V47.816c.078-.686.342-1.301.729-1.739.388-.439.87-.663 1.349-.663.48 0 .96.224 1.35.663.386.438.65 1.053.727 1.739v12.192H38.166v2.38Zm-5.99-2.68v.3h4.01V47.812l-.001-.013c-.054-.583-.28-1.13-.65-1.52-.364-.384-.844-.589-1.344-.541-.501-.046-.982.158-1.349.54-.372.388-.604.933-.665 1.517l-.001.015v11.898Zm-1.908 2.68v.3H38.1V60.302h-7.832v2.086Zm-1.221 2.475v.3H39.06v-2.19H29.047V64.863Z"/></g><defs><clipPath id="a"><path fill="#fff" d="M0 40h69v30H0z"/></clipPath></defs></svg>