<svg xmlns:xlink="http://www.w3.org/1999/xlink" xmlns="http://www.w3.org/2000/svg" width="70" height="71" fill="none"><path fill="#48639E" d="M39.535 32.788h-8.927v-4.616l-.617-1.626h10.345l-.801 1.45v4.792Zm-8.217-.704h7.507V27.82l.312-.57h-8.124l.305.858v3.976Z"/><path fill="#48639E" stroke="#48639E" stroke-width=".3" d="M58.615 69.296v-6.481h.936v-.704h-.936V52.069h.936v-.704h-.936v-5.777h.936v-.704h-.936v-5.292h.936v-.703h-.936v-6.052h.936v-.704h-.936v-3.518l.71-1.464h-7.458l.71 1.527v3.427H17.693v-3.406l.71-1.527h-7.472l.71 1.464v3.518h-.965v.704h.95v6.03h-.95v.704h.95v5.3h-.95v.703h.95v5.777h-.95v.704h.95v10.035h-.95v.704h.95v6.48H5V70h21.166v-7.184h.433v-.704h-.433v-3.765h17.91v3.765h-.433v.704h.433v7.184h21.159v-.703h-6.62Zm-41.332-41.42-.263.605v3.645h-4.683v-3.575l-.284-.703 5.23.028Zm-.355 11.013h-4.591v-6.052h4.59v6.052Zm-4.591 12.476v-5.777h4.59v5.777h-4.59Zm4.59.704v10.042h-4.59V52.069h4.59Zm-4.59-7.185v-5.292h4.59v5.3l-4.59-.008Zm13.12 24.412h-13.12v-6.481h13.12v6.48Zm0-10.95v3.765H17.65V52.069h7.806v6.277Zm0-6.98H17.65v-5.778h7.806v5.777Zm0-6.482H17.65v-5.292h7.806v5.292Zm0-6.002H17.65V32.83h7.806v6.052Zm18.619 18.76h-17.91V52.07h17.91v5.573Zm0-6.277h-17.91v-5.777h17.91v5.777Zm0-6.48h-17.91v-5.293h17.91v5.292Zm0-6.003h-17.91V32.83h17.91v6.052Zm.71-6.052h7.755v6.059h-7.756v-6.06Zm0 6.755h7.755v5.3h-7.756v-5.3Zm0 6.003h7.755v5.777h-7.756v-5.777Zm0 12.758V52.07h7.755v10.042h-7.756v-3.765Zm13.12 10.95h-13.12v-6.481h13.12v6.48Zm0-7.185H53.25V52.069h4.67l-.015 10.042Zm0-10.746H53.25v-5.777h4.67l-.015 5.777Zm0-6.48H53.25v-5.293h4.67l-.015 5.292Zm0-6.003H53.25V32.83h4.67l-.015 6.052Zm0-10.33v3.574H53.25v-3.645l-.27-.605h5.237l-.312.675Z"/><path fill="#48639E" d="M14.402 24.716a1.471 1.471 0 0 0-1.034.425 1.448 1.448 0 0 0-.428 1.025v1.647h2.924v-1.647a1.451 1.451 0 0 0-.43-1.023 1.475 1.475 0 0 0-1.032-.427Zm.752 2.393H13.65v-.943c0-.198.079-.388.22-.527a.755.755 0 0 1 1.064 0c.14.14.22.33.22.527v.943ZM20.937 29.408a1.466 1.466 0 0 0-1.031.425 1.44 1.44 0 0 0-.424 1.025v1.64h2.916v-1.64c0-.384-.154-.753-.428-1.025a1.468 1.468 0 0 0-1.033-.425Zm.752 2.386h-1.497v-.936a.74.74 0 0 1 .444-.754.758.758 0 0 1 .861.18.745.745 0 0 1 .192.574v.936ZM27.273 29.408c-.387 0-.76.153-1.033.425-.274.272-.428.64-.428 1.025v1.64h2.916v-1.64a1.432 1.432 0 0 0-.424-1.024 1.457 1.457 0 0 0-1.03-.426Zm.71 2.386H26.52v-.936a.74.74 0 0 1 .444-.754.758.758 0 0 1 .862.18.745.745 0 0 1 .191.574l-.035.936ZM55.79 24.716c.388 0 .76.153 1.034.425s.428.64.428 1.025v1.647H54.33v-1.647c.002-.384.156-.752.43-1.023a1.476 1.476 0 0 1 1.032-.427Zm-.752 2.393h1.505v-.943a.743.743 0 0 0-.22-.527.755.755 0 0 0-1.064 0 .743.743 0 0 0-.22.527v.943ZM49.256 29.408a1.466 1.466 0 0 1 1.03.425 1.44 1.44 0 0 1 .424 1.025v1.64h-2.916v-1.64c0-.384.154-.753.428-1.025a1.468 1.468 0 0 1 1.034-.425Zm-.753 2.386h1.498v-.936a.74.74 0 0 0-.444-.754.758.758 0 0 0-.862.18.745.745 0 0 0-.192.574v.936ZM42.92 29.408c.387 0 .759.153 1.033.425.274.272.428.64.428 1.025v1.64h-2.924v-1.64c0-.384.154-.753.429-1.025a1.468 1.468 0 0 1 1.033-.425Zm-.753 2.386h1.504v-.936a.74.74 0 0 0-.464-.69.758.758 0 0 0-.983.405.74.74 0 0 0-.057.285v.936ZM38.633 69.648V65.13a1.5 1.5 0 0 0-.34-.852 1.52 1.52 0 0 0-.774-.499 2.962 2.962 0 0 0 .142-2.181c-.333-.88-1.178-1.513-2.512-1.893v.084-.084c-1.334.38-2.178 1.013-2.504 1.893a2.96 2.96 0 0 0 .134 2.181 1.534 1.534 0 0 0-.788.524c-.2.253-.314.562-.325.883v4.497h.709V65.18a.834.834 0 0 1 .611-.742.85.85 0 0 1 .34-.025h.653l-.355-.542a2.547 2.547 0 0 1-.312-2.026c.18-.361.443-.676.767-.92s.7-.41 1.099-.488c.399.077.775.244 1.099.488.323.244.586.559.767.92a2.568 2.568 0 0 1-.312 2.026l-.355.542h.653c.22-.028.442.03.62.161a.844.844 0 0 1 .33.543v4.497l.653.035Z"/><path fill="#24A7D0" d="M50.327 34.667h-3.35v2.92h3.35v-2.92Zm-.71 2.216h-1.93V35.37h1.93v1.513ZM51.668 34.843h-.71v2.526h.71v-2.526ZM46.346 34.843h-.71v2.526h.71v-2.526ZM50.327 47.017h-3.35v2.92h3.35v-2.92Zm-.71 2.216h-1.93v-1.512h1.93v1.513ZM51.668 47.214h-.71v2.526h.71v-2.526ZM46.346 47.214h-.71v2.526h.71v-2.526ZM46.978 61.703h3.349v-2.928h-3.35v2.928Zm.71-2.224h1.93V61h-1.93v-1.52ZM51.668 58.98h-.71v2.526h.71V58.98ZM46.346 58.98h-.71v2.526h.71V58.98ZM23.222 34.667H19.9v2.92h3.349l-.028-2.92Zm-.71 2.216H20.61V35.37h1.93l-.028 1.513ZM24.563 34.843h-.71v2.526h.71v-2.526ZM19.241 34.843h-.71v2.526h.71v-2.526ZM23.222 47.017H19.9v2.927h3.349l-.028-2.927Zm-.71 2.224H20.61v-1.52h1.93l-.028 1.52ZM24.563 47.214h-.71v2.526h.71v-2.526ZM19.241 47.214h-.71v2.526h.71v-2.526ZM19.9 61.703h3.35v-2.92H19.9v2.92Zm.71-2.217h1.93V61h-1.93v-1.513ZM24.563 58.98h-.71v2.526h.71V58.98ZM19.241 58.98h-.71v2.526h.71V58.98ZM13.756 31.183c0-.197.08-.387.22-.527a.755.755 0 0 1 1.064 0c.141.14.22.33.22.527v.944h.71v-.944c0-.384-.154-.753-.428-1.024a1.468 1.468 0 0 0-2.067 0c-.274.271-.428.64-.428 1.024v.944h.709v-.944ZM14.629 42.5c-.386 0-.756.151-1.029.422-.273.27-.426.637-.426 1.02v.943h.71v-.943a.744.744 0 0 1 .243-.48.756.756 0 0 1 1.254.48v.943h.71v-.943a1.433 1.433 0 0 0-.429-1.023 1.458 1.458 0 0 0-1.033-.42ZM14.629 59.647a1.46 1.46 0 0 0-1.029.422c-.273.27-.426.638-.426 1.02v.943h.71v-.943a.743.743 0 0 1 .243-.48.756.756 0 0 1 1.254.48v.943h.71v-.943a1.433 1.433 0 0 0-.429-1.022 1.456 1.456 0 0 0-1.033-.42ZM54.755 31.183c0-.197.079-.387.22-.527a.755.755 0 0 1 1.064 0c.14.14.22.33.22.527v.944h.71v-.944c0-.384-.154-.753-.429-1.024a1.468 1.468 0 0 0-2.067 0c-.274.271-.428.64-.428 1.024v.944h.71v-.944ZM55.627 42.5c-.38.008-.74.164-1.005.434-.265.27-.414.631-.414 1.008v.943h.71v-.943a.743.743 0 0 1 .243-.48.756.756 0 0 1 1.254.48v.943h.71v-.943a1.433 1.433 0 0 0-.441-1.035 1.457 1.457 0 0 0-1.056-.408ZM55.627 59.647c-.38.01-.74.166-1.005.435-.265.27-.414.631-.414 1.008v.943h.71v-.943a.743.743 0 0 1 .243-.48.756.756 0 0 1 1.254.48v.943h.71v-.943a1.432 1.432 0 0 0-.441-1.035 1.457 1.457 0 0 0-1.056-.408Z"/><path fill="#48639E" d="M35.121 23.88a1.464 1.464 0 0 0-1.033.42 1.443 1.443 0 0 0-.429 1.022v1.646h2.924v-1.646a1.444 1.444 0 0 0-.43-1.02 1.468 1.468 0 0 0-1.032-.423Zm.752 2.385H34.37v-.943c0-.198.08-.388.22-.528a.755.755 0 0 1 1.064 0c.14.14.22.33.22.528v.943Z"/><path fill="#48639E" d="M35.476 22h-.71v1.879h.71V22Z"/><path stroke="#24A7D0" stroke-miterlimit="10" d="M36.753 28.544H33.49v2.386h3.264v-2.386Z"/><path fill="#48639E" d="M36.718 35.3a1.211 1.211 0 0 0-.816.324 1.184 1.184 0 0 0-1.618-.007 1.184 1.184 0 0 0-.802-.317c-.318 0-.623.125-.848.348a1.184 1.184 0 0 0-.351.841v1.5h5.634v-1.5c0-.315-.127-.618-.352-.84a1.204 1.204 0 0 0-.847-.349Zm-3.726 1.985v-.796a.482.482 0 0 1 .303-.448.484.484 0 0 1 .62.237c-.008.07-.008.141 0 .211v.796h-.923Zm1.682 0v-.796c.007-.07.007-.14 0-.21a.48.48 0 0 1 .458-.27.485.485 0 0 1 .429.311 1.36 1.36 0 0 0 0 .17v.794h-.887Zm2.533 0h-.922v-.796a1.36 1.36 0 0 0 0-.169.472.472 0 0 1 .447-.316.491.491 0 0 1 .49.485l-.015.796ZM36.718 47.412a1.212 1.212 0 0 0-.816.323 1.183 1.183 0 0 0-1.618-.007 1.183 1.183 0 0 0-.802-.316c-.318 0-.623.125-.848.348a1.185 1.185 0 0 0-.351.84v1.5h5.634v-1.5c0-.315-.127-.617-.352-.84a1.204 1.204 0 0 0-.847-.348Zm-3.726 1.984v-.795a.482.482 0 0 1 .303-.449.485.485 0 0 1 .62.238c-.008.07-.008.14 0 .21v.796h-.923Zm1.682 0v-.795c.007-.07.007-.141 0-.211a.48.48 0 0 1 .458-.27.485.485 0 0 1 .429.312 1.36 1.36 0 0 0 0 .169v.795h-.887Zm2.533 0h-.922v-.795a1.36 1.36 0 0 0 0-.169.473.473 0 0 1 .447-.317.492.492 0 0 1 .49.486l-.015.795Z"/><path fill="#24A7D0" d="M31.963 53.596h-.71v2.527h.71v-2.527ZM33.872 53.596h-.71v2.527h.71v-2.527ZM35.774 53.596h-.71v2.527h.71v-2.527ZM37.683 53.596h-.71v2.527h.71v-2.527ZM39.591 53.596h-.71v2.527h.71v-2.527Z"/><path fill="#48639E" d="M65.235 69.296H5V70h60.235v-.704Z"/></svg>