<svg xmlns:xlink="http://www.w3.org/1999/xlink" xmlns="http://www.w3.org/2000/svg" width="70" height="70" fill="none"><g clip-path="url(#a)"><path fill="#48639E" stroke="#48639E" stroke-width=".6" d="M58.668 69.276v-17.67h-1.811a4.528 4.528 0 0 0-4.13-4.13v-1.693h-.725v1.693a4.529 4.529 0 0 0-4.13 4.13h-1.095V40.43h1.222v-.724h-1.222v-2.917h1.222v-.724h-1.222V33.14h1.222v-.725h-1.222v-1.974a3.306 3.306 0 0 0-2.953-3.297V22H43.1v5.144a3.314 3.314 0 0 0-2.953 3.297v1.974h-1.213v.725h1.213v2.925h-1.213v.724h1.213v2.917h-1.213v.724h1.213v5.163h-.905a4.528 4.528 0 0 0-4.022-3.995v-1.711h-.824v1.712a4.529 4.529 0 0 0-4.012 3.994h-.905V40.43h1.204v-.724h-1.204v-2.917h1.204v-.724h-1.204V33.14h1.204v-.725h-1.204v-1.974a3.324 3.324 0 0 0-2.962-3.297V22h-.724v5.144a3.315 3.315 0 0 0-2.953 3.297v1.974h-1.214v.725h1.214v2.925h-1.214v.724h1.214v2.917h-1.214v.724h1.214v11.176h-1.096a4.529 4.529 0 0 0-4.13-4.13v-1.693h-.724v1.693a4.529 4.529 0 0 0-4.12 4.13h-1.812v17.67H7V70h55.734v-.725zm-9.102-11.847a2.845 2.845 0 1 1 5.679 0v11.846h-5.679zm2.844-3.559a3.623 3.623 0 0 0-3.568 3.56v11.845h-2.065V52.331h11.166v16.944h-2.037V57.43a3.623 3.623 0 0 0-3.56-3.568zm0-5.687a3.768 3.768 0 0 1 3.767 3.423h-7.58a3.768 3.768 0 0 1 3.767-3.423zm-6.34-7.753v28.845h-5.198V40.43zm0-3.623v2.917h-5.198v-2.935zm0-3.622v2.925h-5.198v-2.97zm0-2.717v1.947h-5.198v-1.974a2.59 2.59 0 0 1 5.18 0zm-7.562 15.125h-7.4a3.722 3.722 0 0 1 7.4 0zm-6.539 9.6c.118-.399.951-2.971 2.844-4.058 1.884 1.087 2.717 3.623 2.834 4.058v14.082H31.97zm2.871-4.891-.082.045c-2.454 1.232-3.378 4.529-3.423 4.691v14.237h-1.857V46.317h10.67v22.958h-1.812V55.047c0-.135-.96-3.432-3.423-4.664l-.082-.045zm-6.104-9.872v28.845h-5.172V40.43zm0-3.623v2.917h-5.172v-2.935zm0-3.622v2.925h-5.172v-2.97zm0-2.717v1.947h-5.172v-1.974a2.598 2.598 0 1 1 5.19 0zM14.417 57.429a2.843 2.843 0 1 1 5.679 0v11.846h-5.679zm2.844-3.568a3.623 3.623 0 0 0-3.568 3.568v11.846h-2.02V52.321H22.84v16.954h-2.02V57.43a3.558 3.558 0 0 0-3.559-3.568zm0-5.678a3.768 3.768 0 0 1 3.768 3.423h-7.544a3.777 3.777 0 0 1 3.776-3.423z"/><path fill="#24A7D0" d="M13.5 54.783a.797.797 0 1 0 0-1.594.797.797 0 0 0 0 1.594M21.445 54.586a.797.797 0 1 0 0-1.594.797.797 0 0 0 0 1.594M48.18 54.586a.797.797 0 1 0 0-1.594.797.797 0 0 0 0 1.594M56.54 54.586a.797.797 0 1 0 0-1.594.797.797 0 0 0 0 1.594"/></g><defs><clipPath id="a"><path fill="#fff" d="M7 22h55.734v48H7z"/></clipPath></defs></svg>