<svg xmlns:xlink="http://www.w3.org/1999/xlink" xmlns="http://www.w3.org/2000/svg" width="71" height="70" fill="none"><g clip-path="url(#a)"><path fill="#48639E" d="M61.582 69.202v-11.36a3.263 3.263 0 1 0-6.508-.251H41.502V33.545h-1.735V28.34h-3.185V24h-.798v4.339h-3.142v5.206h-1.735v24.029H17.3a3.42 3.42 0 0 0-3.245-3.367 3.47 3.47 0 0 0-3.245 3.636V69.21h-.677v.781h52.109v-.798l-.66.009Zm-6.517-2.925v2.925H41.511V66.26l13.554.017Zm-13.554-.807v-3.288h2.447v3.297l-2.447-.009Zm3.237 0v-3.288h2.88v3.297l-2.88-.009Zm3.67 0v-3.288H51.3v3.297l-2.88-.009Zm6.647-3.288v3.297H52.09v-3.297h2.976Zm0-3.81v3.011H41.511v-3.02l13.554.009Zm5.728 0v10.821h-4.93v-10.83l4.93.009Zm-2.465-3.367a2.603 2.603 0 0 1 2.447 2.603h-4.903a2.604 2.604 0 0 1 2.456-2.603ZM33.45 33.545v-4.46h5.485v4.46H33.45Zm7.255 32.689v2.942h-9.025V66.25l9.025-.017Zm0-25.356v24.558h-9.025v-24.54l9.025-.018Zm-9.025-6.543h9.025v5.745h-9.025v-5.745ZM16.52 58.363v10.83h-4.928v-10.83h4.928Zm-2.464-3.367a2.603 2.603 0 0 1 2.456 2.604h-4.903a2.603 2.603 0 0 1 2.447-2.604Zm16.817 11.281v2.933H17.31V66.27l13.563.008Zm-13.563-.78V62.18h2.976v3.298l-2.976.017Zm3.775 0V62.18h2.872v3.298l-2.872.017Zm3.67 0V62.18h2.873v3.298l-2.872.017Zm6.075-3.298v3.297h-2.404v-3.314l2.404.017Zm0-3.81v3.02h-13.52v-3.046l13.52.026Z"/><path fill="#48639E" d="M70.529 69.202H2.999v.79h67.53v-.79Z"/><path stroke="#48639E" stroke-width=".6" d="M61.582 69.202v-11.36a3.263 3.263 0 1 0-6.508-.251H41.502V33.545h-1.735V28.34h-3.185V24h-.798v4.339h-3.142v5.206h-1.735v24.029H17.3a3.42 3.42 0 0 0-3.245-3.367 3.47 3.47 0 0 0-3.245 3.636V69.21h-.677v.781h52.109v-.798l-.66.009Zm-6.517-2.925v2.925H41.511V66.26l13.554.017Zm-13.554-.807v-3.288h2.447v3.297l-2.447-.009Zm3.237 0v-3.288h2.88v3.297l-2.88-.009Zm3.67 0v-3.288H51.3v3.297l-2.88-.009Zm6.647-3.288v3.297H52.09v-3.297h2.976Zm0-3.81v3.011H41.511v-3.02l13.554.009Zm5.728 0v10.821h-4.93v-10.83l4.93.009Zm-2.465-3.367a2.603 2.603 0 0 1 2.447 2.603h-4.903a2.604 2.604 0 0 1 2.456-2.603ZM33.45 33.545v-4.46h5.485v4.46H33.45Zm7.255 32.689v2.942h-9.025V66.25l9.025-.017Zm0-25.356v24.558h-9.025v-24.54l9.025-.018Zm-9.025-6.543h9.025v5.745h-9.025v-5.745ZM16.52 58.363v10.83h-4.928v-10.83h4.928Zm-2.464-3.367a2.603 2.603 0 0 1 2.456 2.604h-4.903a2.603 2.603 0 0 1 2.447-2.604Zm16.817 11.281v2.933H17.31V66.27l13.563.008Zm-13.563-.78V62.18h2.976v3.298l-2.976.017Zm3.775 0V62.18h2.872v3.298l-2.872.017Zm3.67 0V62.18h2.873v3.298l-2.872.017Zm6.075-3.298v3.297h-2.404v-3.314l2.404.017Zm0-3.81v3.02h-13.52v-3.046l13.52.026Z"/><path stroke="#48639E" stroke-width=".6" d="M70.529 69.202H2.999v.79h67.53v-.79Z"/><path fill="#24A7D0" d="M38.1 43.88h-3.887v.79H38.1v-.79ZM36.148 35.793a1.45 1.45 0 1 0 1.449 1.44 1.441 1.441 0 0 0-1.45-1.44Zm.694 1.44a.703.703 0 0 1-.703.703.711.711 0 0 1-.703-.703.72.72 0 0 1 .703-.702.712.712 0 0 1 .712.702h-.009ZM34.664 47.256h-.937v2.725h.937v-2.725ZM10.376 69.202H7.65v.79h2.725v-.79ZM64.784 69.202h-2.725v.79h2.725v-.79ZM38.578 47.256h-.938v2.725h.938v-2.725Z"/><path fill="#24A7D0" d="M67.292 57.582a3.47 3.47 0 0 0-3.246-3.367 3.47 3.47 0 0 0-3.262 3.628V69.99H67.3V57.582h-.01Zm-3.246-2.603a2.603 2.603 0 0 1 2.456 2.603h-4.911a2.603 2.603 0 0 1 2.455-2.603Zm2.465 14.197h-4.929V58.372h4.929v10.804ZM11.582 57.582a3.472 3.472 0 0 0-3.246-3.367 3.47 3.47 0 0 0-3.263 3.628V69.99h6.517V57.582h-.008ZM8.336 54.98a2.603 2.603 0 0 1 2.473 2.603H5.88a2.603 2.603 0 0 1 2.456-2.603Zm2.473 14.223H5.872v-10.83h4.937v10.83Z"/><path stroke="#24A7D0" stroke-width=".6" d="M38.1 43.88h-3.887v.79H38.1v-.79ZM36.148 35.793a1.45 1.45 0 1 0 1.449 1.44 1.441 1.441 0 0 0-1.45-1.44Zm.694 1.44a.703.703 0 0 1-.703.703.711.711 0 0 1-.703-.703.72.72 0 0 1 .703-.702.712.712 0 0 1 .712.702h-.009ZM34.664 47.256h-.937v2.725h.937v-2.725ZM10.376 69.202H7.65v.79h2.725v-.79ZM64.784 69.202h-2.725v.79h2.725v-.79ZM38.578 47.256h-.938v2.725h.938v-2.725Z"/><path stroke="#24A7D0" stroke-width=".6" d="M67.292 57.582a3.47 3.47 0 0 0-3.246-3.367 3.47 3.47 0 0 0-3.262 3.628V69.99H67.3V57.582h-.01Zm-3.246-2.603a2.603 2.603 0 0 1 2.456 2.603h-4.911a2.603 2.603 0 0 1 2.455-2.603Zm2.465 14.197h-4.929V58.372h4.929v10.804ZM11.582 57.582a3.472 3.472 0 0 0-3.246-3.367 3.47 3.47 0 0 0-3.263 3.628V69.99h6.517V57.582h-.008ZM8.336 54.98a2.603 2.603 0 0 1 2.473 2.603H5.88a2.603 2.603 0 0 1 2.456-2.603Zm2.473 14.223H5.872v-10.83h4.937v10.83Z"/></g><defs><clipPath id="a"><path fill="#fff" d="M3 24h67.529v46H3z"/></clipPath></defs></svg>