<svg xmlns:xlink="http://www.w3.org/1999/xlink" xmlns="http://www.w3.org/2000/svg" width="70" height="71" fill="none"><mask id="a" fill="#fff"><path d="M10.604 45.563c.242 0 .533-.048.726.096.194.096.194.383.388.527.242.191.387.143.581.43.485.815 0 1.677-.194 2.444-.048.287-.048.527-.193.766-.146.288-.485.288-.679.527-.484.527.485.91.872 1.15.388.24.727.767 1.163.67.581-.095.969-.478 1.599-.478.145.575.29 1.101.145 1.724-.145.719.145.767.533 1.246.194.24.194.67.29 1.006.146.43.388.766.679 1.15.387.478.532.814.63 1.389.048.335.096.574-.098.862.388.144.776.287 1.066.24.097 0 .146-.096.29-.192.098-.096.194-.24.388-.288.388-.143.872 0 1.211.144l.146.048c.63.192 1.017.24 1.598.048.097-.048.194-.048.29-.096.437-.144.873-.24 1.406.048.193.096.387.287.581.431.194.144.34.288.533.383h.29c.243-.048.582-.096.776.144.096.144.096.288.096.431v.096c.049.096.146.24.243.335.145.144.145.144.29.144h.388c.145 0 .194.048.29.144l.049.048c.097.095.145.191.194.24.048.095.097.143.145.19.242.24.484.336.678.336.242 0 .436-.191.727-.527l.097-.144c.193-.24.436-.574.775-.622.194 0 .387.048.581.191.29.24.388.623.484 1.006.146.623.243.91.533.91h.242V63c0 .335 0 .67-.048.958 0 .288-.048.527-.048.814 0 .48.096.575.339.863.048.048.145.143.194.24.29.382.387.766.436 1.101.048.287.096.575.29.862.145.192.242.192.533.144.145 0 .339 0 .581.048.678.144.824.67.97 1.102 0 .096.047.143.096.24.145.43.34.43.92.335.485-.096.727-.048 1.066.383.145.144.242.335.29.479.098.191.194.335.291.431l.049-.048c.194-.096.484-.096.726-.096.291 0 .582 0 .679-.143 0 0-.049 0-.049-.048-.097-.048-.242-.096-.387-.24-.146-.191-.146-.431-.146-.67 0-.144 0-.336-.048-.432a1.054 1.054 0 0 0-.242-.191c-.243-.144-.533-.336-.485-.719.097-.575 1.357-.814 1.357-.814.145 0 .339-.048.58-.048.63 0 1.551-.048 1.648-.527 0-.192-.048-.335-.145-.527-.146-.335-.291-.719 0-1.198a.58.58 0 0 1 .242-.24c.048-.047.097-.047.097-.095.048-.096 0-.287 0-.431v-.335c0-.288-.194-.575-.34-.767-.048-.048-.145-.096-.242-.144-.242-.143-.532-.335-.58-.574-.098-.24 0-.384.047-.527 0-.048.049-.048.049-.096.048-.048.048-.144.097-.192.097-.144.145-.24.097-.383 0-.048-.049-.096-.097-.144-.049-.048-.097-.144-.145-.287-.146-.67.387-1.054.775-1.342.096-.047.193-.143.339-.191.145-.048.387-.192.484-.288a1.043 1.043 0 0 0-.339-.191c-.29-.144-.727-.336-.775-.862-.048-.336.048-.527.242-.671.34-.192.775.048 1.017.24.533.287 1.115.287 1.55-.096l.194-.144.146.144a.853.853 0 0 1 .242.622c0 .048 0 .144.048.192 0 .048.049.096.049.144.048.048.048.096.097.143.29.384.29.575.096.863-.048.096-.096.096-.096.24 0 .047 0 .095.145.19.242.097.63.049.775-.047.048-.048.048-.144.097-.24.048-.143.097-.335.29-.479.291-.191 1.066-.095 1.308.144.388.335.146.815 0 1.15-.096.191-.193.43-.145.575 0 .143.145.287.242.43.242.336.533.72.29 1.198-.193.336-.58.431-.968.48-.387.047-.533.095-.533.191s.146.192.242.335c.194.144.388.384.436.671l.049.192-.194.047c-.145.048-.339.096-.581.144-.485.096-1.26.288-1.26.67a.65.65 0 0 0 .34.528.312.312 0 0 0 .29 0c0-.048.048-.144.097-.24.242-.191.484-.24.678-.24.194 0 .388.049.581.097.34.095.388.095.485-.096.097-.144.097-.24.097-.383 0-.24 0-.527.436-.719l.194-.096c.242-.143.484-.24.726-.43.388-.288.388-.384.34-.72 0-.047 0-.095-.05-.143-.048-.144-.048-.288.05-.383.096-.144.241-.192.484-.192.58-.096.871.287 1.065.575.194.24.34.479.678.527.194.048.388.048.582 0 .387 0 .775-.048 1.162.24.097.047.194.19.34.287.145.143.435.383.58.43 0-.047.05-.143 0-.287 0-.574-.338-.958-.92-1.389-.145-.096-.58-.623-.532-1.054a.61.61 0 0 1 .339-.43c.29-.145.532.095.726.239l.049.048c.145-.096.339-.192.484-.288.242-.144.485-.24.678-.431.146-.192.146-.287.146-.287s-.146-.048-.243-.096c-.193-.096-.484-.144-.63-.383-.096-.096-.096-.24-.145-.336 0-.048-.048-.144-.048-.191-.049-.048-.097-.048-.194-.096s-.194-.048-.242-.096c-.194-.096-.63-.383-.436-1.006.242-.67 1.55-.91 1.695-.91.194-.048.388 0 .533 0h.533v-.096l-.048-.24.242-.047c.097 0 .242-.048.387-.048.436-.048.776-.048.872-.336.049-.096 0-.287-.048-.43-.29.095-.63 0-.92-.049-.146-.048-.291-.096-.388-.096-.097 0-.145 0-.242.048-.049 0-.097.048-.146.096-.775.335-1.404.431-1.986.383-.63-.095-1.308-.526-1.308-1.245 0-.288.097-.48.194-.623.097-.144.145-.191.145-.335 0-.192-.145-.431-.339-.719-.29-.479-.63-1.006-.339-1.485.146-.24.388-.383.63-.479.242-.096.388-.191.436-.335.048-.048.048-.144.048-.192.049-.191.097-.383.291-.575.388-.43.92-.43 1.405-.43.29 0 .581 0 .872-.096.194-.096.339-.288.484-.48l.097-.143c.194-.24.388-.336.581-.431.097-.048.194-.096.291-.192.097-.096.194-.144.29-.24.34-.287.679-.574 1.26-.814.049-.048.146-.048.194-.048.242-.096.484-.143.581-.335.049-.048.049-.096.097-.144.049-.096.145-.191.29-.287.291-.192.63-.24.97-.288.29-.048.581-.096.823-.24.145-.095.145-.143.145-.143v-.096a.725.725 0 0 1 .049-.623l.048-.143h.146a.807.807 0 0 0 .581-.24c-.048-.048-.097-.096-.097-.144-.194-.095-.678-.047-1.066.048-.048 0-.097.048-.145.048a.705.705 0 0 1-.339.096c-.145 0-.34-.048-.484-.096-.097-.048-.243-.096-.291-.048-.049 0-.049 0-.049.048l-.145.144c-.242.192-.484.24-.726.335-.291.048-.679.096-.92-.095-.146-.144-.195-.384-.146-.671.048-.192.145-.383.194-.527.096-.144.145-.24.193-.383v-.48c0-.239-.048-.526.049-.766l.145-.287c.097-.24.097-.24 0-.336-.145-.095-.339-.143-.533-.191-.339-.048-.726-.144-.968-.527-.194-.335-.146-.91-.146-1.198 0-.096.049-.24.049-.335.048-.335.096-.67 0-1.006-.146 0-.243.048-.388.096a.905.905 0 0 1-.339.096c-.145.047-.29.047-.436.047-.242 0-.29 0-.436.24l-.242.335-.194-.335c-.34-.575-.29-1.054-.242-1.629v-.24c.048-.43-.049-.91-.097-1.245-.145.048-.34.192-.484.336a2.03 2.03 0 0 1-.872.526c-.776.192-.92 0-1.308-.43l-.097-.096c-.29-.336-.485-.48-.581-.48-.097 0-.146 0-.097.384V36.892c0 .288 0 .575-.34.862-.048.048-.145.096-.242.144-.242.144-.387.24-.387.431 0 .048.048.144.097.24.096.144.193.287.193.479v.191l-.193.048c-.485.048-.97-.095-1.26-.383-.29-.287-.581-1.197-.581-1.629 0-.335.242-.526.387-.622.194-.144.194-.144.097-.383-.097-.144-.194-.336-.339-.48-.097-.143-.194-.24-.29-.383a.363.363 0 0 1-.097-.24c-.049-.095-.097-.239-.146-.287-.145-.096-.436-.144-.678-.144-.339-.047-.678-.047-.969-.287-.145-.144-.242-.287-.339-.431-.048-.096-.097-.144-.145-.24l-.049-.047V33.443c0-.287-.048-.718.291-.958-.048-.144-.097-.24-.145-.383-.097-.24-.242-.575-.242-.91 0-.336.048-.671.096-.959.049-.191.097-.43.097-.622.049-.575-.097-.767-.145-.815 0 0-.097-.095-.242-.047-.097 0-.194.047-.29.095-.195.096-.437.192-.679.144-.242-.048-.436-.24-.581-.383-.097-.096-.194-.192-.29-.24l-.098-.048a4.829 4.829 0 0 1-.969-.527c-.387-.287-.58-.24-.92.144-.048.048-.048.096-.097.144-.097.144-.145.24-.29.335-.388.24-.92.192-1.405.192h-.533l-.049-.192c-.048-.527.243-.766.485-1.006a.745.745 0 0 0 .29-.383c.049-.144 0-.335-.048-.575a2.377 2.377 0 0 1-.097-.575c0-.143.097-.287.242-.527.146-.24.388-.67.34-.862 0 0 0-.048-.097-.048 0 0-.097.048-.194.048s-.194.048-.242.048c-.34 0-.63-.048-.97-.24-.193-.095-.29-.191-.387-.24-.194-.143-.339-.239-.678-.239-.145 0-.242.048-.388.048-.242.048-.484.096-.92-.143-.29-.144-.533-.384-.727-.527l.146-.192c-.581.335-1.26.24-1.89.383-.58.144-.871.719-1.065 1.246-.242.766-.581 1.533-.872 2.3-.242.67-.436 1.34-.872 1.915-.34.383-.823.815-1.26 1.102-.726.48-1.307.623-2.13.767-.873.143-1.067.335-1.212 1.15-.048.239 0 .335-.194.526-.145.192-.387.24-.533.431-.193.24-.29.623-.387.958-.194.623-.581 1.15-1.017 1.63-.243.239-.872.478-.97.766-.241.575.437 1.006-.435 1.245-1.114.288-2.374-.096-3.488.096-.484.096-1.017.192-1.502.335-.29.096-.63.288-.92.288-.388 0-.824-.431-.92-.767-.049-.24.096-.527.096-.766-.096-.575-.968-.383-1.404-.383-.775 0-1.018-.48-1.454.335-.436.766-.823 1.629-1.55 2.203-.339.288-.533.48-.678.91-.194.528-.436.863-1.017 1.15-.678.384-1.647.91-1.89 1.677-.29.862-.145 2.108-.145 3.066.872.144 1.793 0 2.568 0"/></mask><path fill="#F5F8F9" stroke="#48639E" stroke-width="2" d="M10.604 45.563c.242 0 .533-.048.726.096.194.096.194.383.388.527.242.191.387.143.581.43.485.815 0 1.677-.194 2.444-.048.287-.048.527-.193.766-.146.288-.485.288-.679.527-.484.527.485.91.872 1.15.388.24.727.767 1.163.67.581-.095.969-.478 1.599-.478.145.575.29 1.101.145 1.724-.145.719.145.767.533 1.246.194.24.194.67.29 1.006.146.43.388.766.679 1.15.387.478.532.814.63 1.389.048.335.096.574-.098.862.388.144.776.287 1.066.24.097 0 .146-.096.29-.192.098-.096.194-.24.388-.288.388-.143.872 0 1.211.144l.146.048c.63.192 1.017.24 1.598.048.097-.048.194-.048.29-.096.437-.144.873-.24 1.406.048.193.096.387.287.581.431.194.144.34.288.533.383h.29c.243-.048.582-.096.776.144.096.144.096.288.096.431v.096c.049.096.146.24.243.335.145.144.145.144.29.144h.388c.145 0 .194.048.29.144l.049.048c.097.095.145.191.194.24.048.095.097.143.145.19.242.24.484.336.678.336.242 0 .436-.191.727-.527l.097-.144c.193-.24.436-.574.775-.622.194 0 .387.048.581.191.29.24.388.623.484 1.006.146.623.243.91.533.91h.242V63c0 .335 0 .67-.048.958 0 .288-.048.527-.048.814 0 .48.096.575.339.863.048.048.145.143.194.24.29.382.387.766.436 1.101.048.287.096.575.29.862.145.192.242.192.533.144.145 0 .339 0 .581.048.678.144.824.67.97 1.102 0 .096.047.143.096.24.145.43.34.43.92.335.485-.096.727-.048 1.066.383.145.144.242.335.29.479.098.191.194.335.291.431l.049-.048c.194-.096.484-.096.726-.096.291 0 .582 0 .679-.143 0 0-.049 0-.049-.048-.097-.048-.242-.096-.387-.24-.146-.191-.146-.431-.146-.67 0-.144 0-.336-.048-.432a1.054 1.054 0 0 0-.242-.191c-.243-.144-.533-.336-.485-.719.097-.575 1.357-.814 1.357-.814.145 0 .339-.048.58-.048.63 0 1.551-.048 1.648-.527 0-.192-.048-.335-.145-.527-.146-.335-.291-.719 0-1.198a.58.58 0 0 1 .242-.24c.048-.047.097-.047.097-.095.048-.096 0-.287 0-.431v-.335c0-.288-.194-.575-.34-.767-.048-.048-.145-.096-.242-.144-.242-.143-.532-.335-.58-.574-.098-.24 0-.384.047-.527 0-.048.049-.048.049-.096.048-.048.048-.144.097-.192.097-.144.145-.24.097-.383 0-.048-.049-.096-.097-.144-.049-.048-.097-.144-.145-.287-.146-.67.387-1.054.775-1.342.096-.047.193-.143.339-.191.145-.048.387-.192.484-.288a1.043 1.043 0 0 0-.339-.191c-.29-.144-.727-.336-.775-.862-.048-.336.048-.527.242-.671.34-.192.775.048 1.017.24.533.287 1.115.287 1.55-.096l.194-.144.146.144a.853.853 0 0 1 .242.622c0 .048 0 .144.048.192 0 .048.049.096.049.144.048.048.048.096.097.143.29.384.29.575.096.863-.048.096-.096.096-.096.24 0 .047 0 .095.145.19.242.097.63.049.775-.047.048-.048.048-.144.097-.24.048-.143.097-.335.29-.479.291-.191 1.066-.095 1.308.144.388.335.146.815 0 1.15-.096.191-.193.43-.145.575 0 .143.145.287.242.43.242.336.533.72.29 1.198-.193.336-.58.431-.968.48-.387.047-.533.095-.533.191s.146.192.242.335c.194.144.388.384.436.671l.049.192-.194.047c-.145.048-.339.096-.581.144-.485.096-1.26.288-1.26.67a.65.65 0 0 0 .34.528.312.312 0 0 0 .29 0c0-.048.048-.144.097-.24.242-.191.484-.24.678-.24.194 0 .388.049.581.097.34.095.388.095.485-.096.097-.144.097-.24.097-.383 0-.24 0-.527.436-.719l.194-.096c.242-.143.484-.24.726-.43.388-.288.388-.384.34-.72 0-.047 0-.095-.05-.143-.048-.144-.048-.288.05-.383.096-.144.241-.192.484-.192.58-.096.871.287 1.065.575.194.24.34.479.678.527.194.048.388.048.582 0 .387 0 .775-.048 1.162.24.097.047.194.19.34.287.145.143.435.383.58.43 0-.047.05-.143 0-.287 0-.574-.338-.958-.92-1.389-.145-.096-.58-.623-.532-1.054a.61.61 0 0 1 .339-.43c.29-.145.532.095.726.239l.049.048c.145-.096.339-.192.484-.288.242-.144.485-.24.678-.431.146-.192.146-.287.146-.287s-.146-.048-.243-.096c-.193-.096-.484-.144-.63-.383-.096-.096-.096-.24-.145-.336 0-.048-.048-.144-.048-.191-.049-.048-.097-.048-.194-.096s-.194-.048-.242-.096c-.194-.096-.63-.383-.436-1.006.242-.67 1.55-.91 1.695-.91.194-.048.388 0 .533 0h.533v-.096l-.048-.24.242-.047c.097 0 .242-.048.387-.048.436-.048.776-.048.872-.336.049-.096 0-.287-.048-.43-.29.095-.63 0-.92-.049-.146-.048-.291-.096-.388-.096-.097 0-.145 0-.242.048-.049 0-.097.048-.146.096-.775.335-1.404.431-1.986.383-.63-.095-1.308-.526-1.308-1.245 0-.288.097-.48.194-.623.097-.144.145-.191.145-.335 0-.192-.145-.431-.339-.719-.29-.479-.63-1.006-.339-1.485.146-.24.388-.383.63-.479.242-.096.388-.191.436-.335.048-.048.048-.144.048-.192.049-.191.097-.383.291-.575.388-.43.92-.43 1.405-.43.29 0 .581 0 .872-.096.194-.096.339-.288.484-.48l.097-.143c.194-.24.388-.336.581-.431.097-.048.194-.096.291-.192.097-.096.194-.144.29-.24.34-.287.679-.574 1.26-.814.049-.048.146-.048.194-.048.242-.096.484-.143.581-.335.049-.048.049-.096.097-.144.049-.096.145-.191.29-.287.291-.192.63-.24.97-.288.29-.048.581-.096.823-.24.145-.095.145-.143.145-.143v-.096a.725.725 0 0 1 .049-.623l.048-.143h.146a.807.807 0 0 0 .581-.24c-.048-.048-.097-.096-.097-.144-.194-.095-.678-.047-1.066.048-.048 0-.097.048-.145.048a.705.705 0 0 1-.339.096c-.145 0-.34-.048-.484-.096-.097-.048-.243-.096-.291-.048-.049 0-.049 0-.049.048l-.145.144c-.242.192-.484.24-.726.335-.291.048-.679.096-.92-.095-.146-.144-.195-.384-.146-.671.048-.192.145-.383.194-.527.096-.144.145-.24.193-.383v-.48c0-.239-.048-.526.049-.766l.145-.287c.097-.24.097-.24 0-.336-.145-.095-.339-.143-.533-.191-.339-.048-.726-.144-.968-.527-.194-.335-.146-.91-.146-1.198 0-.096.049-.24.049-.335.048-.335.096-.67 0-1.006-.146 0-.243.048-.388.096a.905.905 0 0 1-.339.096c-.145.047-.29.047-.436.047-.242 0-.29 0-.436.24l-.242.335-.194-.335c-.34-.575-.29-1.054-.242-1.629v-.24c.048-.43-.049-.91-.097-1.245-.145.048-.34.192-.484.336a2.03 2.03 0 0 1-.872.526c-.776.192-.92 0-1.308-.43l-.097-.096c-.29-.336-.485-.48-.581-.48-.097 0-.146 0-.097.384V36.892c0 .288 0 .575-.34.862-.048.048-.145.096-.242.144-.242.144-.387.24-.387.431 0 .048.048.144.097.24.096.144.193.287.193.479v.191l-.193.048c-.485.048-.97-.095-1.26-.383-.29-.287-.581-1.197-.581-1.629 0-.335.242-.526.387-.622.194-.144.194-.144.097-.383-.097-.144-.194-.336-.339-.48-.097-.143-.194-.24-.29-.383a.363.363 0 0 1-.097-.24c-.049-.095-.097-.239-.146-.287-.145-.096-.436-.144-.678-.144-.339-.047-.678-.047-.969-.287-.145-.144-.242-.287-.339-.431-.048-.096-.097-.144-.145-.24l-.049-.047V33.443c0-.287-.048-.718.291-.958-.048-.144-.097-.24-.145-.383-.097-.24-.242-.575-.242-.91 0-.336.048-.671.096-.959.049-.191.097-.43.097-.622.049-.575-.097-.767-.145-.815 0 0-.097-.095-.242-.047-.097 0-.194.047-.29.095-.195.096-.437.192-.679.144-.242-.048-.436-.24-.581-.383-.097-.096-.194-.192-.29-.24l-.098-.048a4.829 4.829 0 0 1-.969-.527c-.387-.287-.58-.24-.92.144-.048.048-.048.096-.097.144-.097.144-.145.24-.29.335-.388.24-.92.192-1.405.192h-.533l-.049-.192c-.048-.527.243-.766.485-1.006a.745.745 0 0 0 .29-.383c.049-.144 0-.335-.048-.575a2.377 2.377 0 0 1-.097-.575c0-.143.097-.287.242-.527.146-.24.388-.67.34-.862 0 0 0-.048-.097-.048 0 0-.097.048-.194.048s-.194.048-.242.048c-.34 0-.63-.048-.97-.24-.193-.095-.29-.191-.387-.24-.194-.143-.339-.239-.678-.239-.145 0-.242.048-.388.048-.242.048-.484.096-.92-.143-.29-.144-.533-.384-.727-.527l.146-.192c-.581.335-1.26.24-1.89.383-.58.144-.871.719-1.065 1.246-.242.766-.581 1.533-.872 2.3-.242.67-.436 1.34-.872 1.915-.34.383-.823.815-1.26 1.102-.726.48-1.307.623-2.13.767-.873.143-1.067.335-1.212 1.15-.048.239 0 .335-.194.526-.145.192-.387.24-.533.431-.193.24-.29.623-.387.958-.194.623-.581 1.15-1.017 1.63-.243.239-.872.478-.97.766-.241.575.437 1.006-.435 1.245-1.114.288-2.374-.096-3.488.096-.484.096-1.017.192-1.502.335-.29.096-.63.288-.92.288-.388 0-.824-.431-.92-.767-.049-.24.096-.527.096-.766-.096-.575-.968-.383-1.404-.383-.775 0-1.018-.48-1.454.335-.436.766-.823 1.629-1.55 2.203-.339.288-.533.48-.678.91-.194.528-.436.863-1.017 1.15-.678.384-1.647.91-1.89 1.677-.29.862-.145 2.108-.145 3.066.872.144 1.793 0 2.568 0Z" mask="url(#a)"/></svg>