<svg xmlns:xlink="http://www.w3.org/1999/xlink" xmlns="http://www.w3.org/2000/svg" width="70" height="70" fill="none"><mask id="a" fill="#fff"><path d="m45.12 70 .255-.25c.17-.165.425-.331.765-.498.51-.249 1.104-.58 1.104-.913 0-.166 0-.25-.085-.415-.085-.167-.085-.416-.085-.665 0-.166.085-.249.085-.332 0-.166.085-.25.085-.415 0-.416-.17-.582-.425-.914-.17-.166-.255-.332-.425-.581-.254-.333-.764-1.163-.34-1.994.17-.332.34-.498.595-.664.255-.25.425-.332.425-.582 0-.166-.085-.249-.085-.415-.085-.25-.255-.581-.085-1.163.17-.498.595-.913.934-1.245.255-.25.595-.582.68-.914.17-.332 0-.914-.255-1.246-.17-.25-.34-.25-.68-.415-.17-.083-.424-.083-.594-.166l-.255-.083v-.25c0-.332.085-.581.17-.747.085-.166.085-.25.085-.332 0-.25-.085-.333-.17-.499 0-.083-.085-.166-.085-.249-.34-.747-.17-1.495.085-2.16.085-.331.17-.58.255-.913l.255-1.246.085-.249c.085-.498 0-.83-.085-.914-.085-.083-.765-.166-1.784 0-.255 0-.51.166-.764.25-.255.083-.51.249-.764.249-1.36.332-1.954-.333-2.294-.997-.51-1.246 0-2.16.425-3.073.255-.581.51-1.08.594-1.661v-.332c0-.25.085-.914 0-1.08-.084-.166-.594-.332-.934-.498-.34-.084-.594-.25-.764-.333-.34-.249-.595-.498-.85-.747l-.254-.25.085-.332c.255-.415.594-.664.934-.913.34-.166.594-.416.68-.665.17-.664-.34-.996-1.614-1.578-.255-.083-.51-.249-.68-.332-.85-.498-.934-.664-1.019-1.495v-.166c0-.083 0-.332-.085-.332-.17-.166-.51-.25-.85-.25-.594-.083-1.613-.249-1.613-1.495v-.249l.255-.083c.255-.083.51-.166.85-.249.339-.083.764-.249 1.018-.415.17-.166.17-.166.17-.415h-.34c-.934 0-2.038.083-2.632-.582-.34-.332-.425-.664-.595-1.08-.085-.332-.17-.581-.424-.747-.17-.166-.51-.25-.765-.332-.425-.083-.934-.166-1.274-.665-.085-.083-.17-.332-.255-.498 0-.083-.085-.083-.085-.166h-.68c-.594 0-1.103-.083-1.868-.332-1.189-.25-1.528-1.08-1.783-1.828-.17-.498-.34-.913-.765-1.162-.17-.167-.424-.25-.764-.333-.34-.083-.68-.249-.934-.498-.425-.332-.34-.747-.255-1.08 0-.166.085-.249 0-.415-.085-.332-.68-.415-1.274-.415h-.425c-.934 0-1.358-.083-1.868-.997-.085.665-.17 1.246.085 1.91.255.748.934 1.33 1.189 2.16.17.664 0 1.412.425 1.993 1.019 1.495 3.652.914 4.161 2.99.34 1.163-.255 1.661-.51 2.575-.509 1.578 1.105 2.575 2.039 3.571.764.83 1.699 1.578 1.869 2.741.084.498-.085 1.08.084 1.578.17.582.595.997.85 1.495.34.748.51 1.578.764 2.409.255.747.765 1.329 1.02 2.076.254.914 0 1.91.17 2.907.169 1.08 1.018 1.91 1.528 2.824.68 1.412.68 2.907 1.02 4.485.254 1.246.169 2.243.169 3.572 0 1.329 1.274 1.744 1.529 2.99.17.996-.595 2.076.594 2.74 1.614.831 3.058-.498 4.247 1.246.934 1.33 1.614 2.824 2.803 3.738Z"/></mask><path fill="#F5F8F9" d="m45.12 70 .255-.25c.17-.165.425-.331.765-.498.51-.249 1.104-.58 1.104-.913 0-.166 0-.25-.085-.415-.085-.167-.085-.416-.085-.665 0-.166.085-.249.085-.332 0-.166.085-.25.085-.415 0-.416-.17-.582-.425-.914-.17-.166-.255-.332-.425-.581-.254-.333-.764-1.163-.34-1.994.17-.332.34-.498.595-.664.255-.25.425-.332.425-.582 0-.166-.085-.249-.085-.415-.085-.25-.255-.581-.085-1.163.17-.498.595-.913.934-1.245.255-.25.595-.582.68-.914.17-.332 0-.914-.255-1.246-.17-.25-.34-.25-.68-.415-.17-.083-.424-.083-.594-.166l-.255-.083v-.25c0-.332.085-.581.17-.747.085-.166.085-.25.085-.332 0-.25-.085-.333-.17-.499 0-.083-.085-.166-.085-.249-.34-.747-.17-1.495.085-2.16.085-.331.17-.58.255-.913l.255-1.246.085-.249c.085-.498 0-.83-.085-.914-.085-.083-.765-.166-1.784 0-.255 0-.51.166-.764.25-.255.083-.51.249-.764.249-1.36.332-1.954-.333-2.294-.997-.51-1.246 0-2.16.425-3.073.255-.581.51-1.08.594-1.661v-.332c0-.25.085-.914 0-1.08-.084-.166-.594-.332-.934-.498-.34-.084-.594-.25-.764-.333-.34-.249-.595-.498-.85-.747l-.254-.25.085-.332c.255-.415.594-.664.934-.913.34-.166.594-.416.68-.665.17-.664-.34-.996-1.614-1.578-.255-.083-.51-.249-.68-.332-.85-.498-.934-.664-1.019-1.495v-.166c0-.083 0-.332-.085-.332-.17-.166-.51-.25-.85-.25-.594-.083-1.613-.249-1.613-1.495v-.249l.255-.083c.255-.083.51-.166.85-.249.339-.083.764-.249 1.018-.415.17-.166.17-.166.17-.415h-.34c-.934 0-2.038.083-2.632-.582-.34-.332-.425-.664-.595-1.08-.085-.332-.17-.581-.424-.747-.17-.166-.51-.25-.765-.332-.425-.083-.934-.166-1.274-.665-.085-.083-.17-.332-.255-.498 0-.083-.085-.083-.085-.166h-.68c-.594 0-1.103-.083-1.868-.332-1.189-.25-1.528-1.08-1.783-1.828-.17-.498-.34-.913-.765-1.162-.17-.167-.424-.25-.764-.333-.34-.083-.68-.249-.934-.498-.425-.332-.34-.747-.255-1.08 0-.166.085-.249 0-.415-.085-.332-.68-.415-1.274-.415h-.425c-.934 0-1.358-.083-1.868-.997-.085.665-.17 1.246.085 1.91.255.748.934 1.33 1.189 2.16.17.664 0 1.412.425 1.993 1.019 1.495 3.652.914 4.161 2.99.34 1.163-.255 1.661-.51 2.575-.509 1.578 1.105 2.575 2.039 3.571.764.83 1.699 1.578 1.869 2.741.084.498-.085 1.08.084 1.578.17.582.595.997.85 1.495.34.748.51 1.578.764 2.409.255.747.765 1.329 1.02 2.076.254.914 0 1.91.17 2.907.169 1.08 1.018 1.91 1.528 2.824.68 1.412.68 2.907 1.02 4.485.254 1.246.169 2.243.169 3.572 0 1.329 1.274 1.744 1.529 2.99.17.996-.595 2.076.594 2.74 1.614.831 3.058-.498 4.247 1.246.934 1.33 1.614 2.824 2.803 3.738Z"/><path fill="#48639E" d="m45.12 70-.609.793.688.529.62-.607-.698-.715Zm.255-.25-.699-.714.7.715Zm.765-.498.439.899-.44-.898Zm.68-3.654.793-.609-.044-.056-.05-.05-.7.715Zm-.425-.581.826-.564-.016-.023-.017-.022-.794.609Zm-.34-1.994-.89-.455.89.455Zm.594-.664.547.837.082-.053.07-.07-.699-.714Zm.34-.997h1v-.166l-.053-.157-.947.323Zm-.085-1.163-.946-.322-.008.02-.006.022.96.28Zm.934-1.245.7.714-.7-.715Zm.68-.914-.89-.455-.051.099-.028.108.969.248Zm-.255-1.246-.826.563.016.023.016.023.794-.609Zm-.68-.415-.439.898.44-.898Zm-.594-.166.44-.899-.064-.03-.066-.022-.31.95Zm-.255-.083h-1v.725l.69.225.31-.95Zm.085-1.828h-1v.241l.11.215.89-.456Zm-.085-.249h1v-.216l-.09-.198-.91.414Zm.085-2.16.934.359.02-.054.015-.057-.969-.247Zm.255-.913.969.248.006-.024.005-.024-.98-.2Zm.255-1.246-.947-.322-.02.06-.013.062.98.2Zm.085-.249.946.323.026-.076.014-.079-.986-.168Zm-1.869-.914v1h.081l.08-.013-.16-.987Zm-1.529.499v-1h-.12l-.117.028.237.972Zm-2.293-.997-.925.379.016.039.019.037.89-.455ZM42.148 45l.907.422.004-.01.005-.01-.916-.402Zm.594-1.661.99.144.01-.072v-.072h-1Zm-.934-1.91.44-.899-.097-.047-.105-.026-.238.972Zm-.764-.333-.592.807.072.053.08.039.44-.899Zm-.85-.747.7-.715-.7.715Zm-.254-.25-.97-.247-.142.56.413.403.699-.715Zm.085-.332-.853-.523-.079.13-.037.146.969.247Zm.934-.913-.44-.898-.08.039-.072.053.592.806Zm.68-.665.946.323.012-.037.01-.038-.969-.248Zm-1.614-1.578.415-.91-.052-.023-.053-.017-.31.95Zm-.68-.332-.506.863.033.019.034.016.44-.898Zm-1.019-1.495h-1v.051l.005.05.995-.101Zm-.085-.498-.7.715.292.285h.408v-1Zm-.85-.25-.138.99.07.01h.069v-1Zm-1.613-1.744-.31-.95-.69.225v.725h1Zm.255-.083.31.951-.31-.95Zm1.868-.664.546.837.083-.053.07-.07-.699-.714Zm.17-.415h1v-1h-1v1Zm-2.972-.582.745-.667-.022-.024-.024-.024-.7.715Zm-.595-1.08-.969.248.017.067.027.064.925-.379Zm-.424-.747-.7.715.07.069.083.054.547-.838Zm-.765-.332.31-.951-.058-.019-.06-.012-.192.982Zm-1.274-.665.826-.563-.056-.082-.07-.07-.7.715Zm-.255-.498h-1v.24l.11.215.89-.455Zm-.085-.166h1v-1h-1v1Zm-2.548-.332.31-.951-.051-.017-.053-.011-.206.979ZM27.37 24.9l-.947.323.947-.323Zm-.765-1.162-.699.715.088.085.105.062.506-.863Zm-1.698-.831.699-.715-.04-.039-.043-.034-.616.788Zm-.255-1.08.969.248.031-.122v-.126h-1Zm0-.415-.969.248.028.108.05.1.891-.456ZM21.085 20l.873-.487-1.48-2.654-.385 3.014.992.127Zm.085 1.91.946-.322-.006-.018-.006-.018-.934.358Zm1.189 2.16.969-.248-.006-.023-.007-.023-.956.294Zm.425 1.993.826-.563-.01-.014-.009-.013-.807.59Zm4.161 2.99-.971.238.005.022.006.02.96-.28Zm-.51 2.575.952.307.006-.019.006-.02-.963-.268Zm2.039 3.571.736-.677-.006-.007-.73.684Zm1.869 2.741-.99.145.002.011.002.012.986-.168Zm.084 1.578.96-.28-.006-.021-.007-.021-.947.322Zm.85 1.495.91-.413-.01-.022-.01-.02-.89.455Zm.764 2.409-.956.293.005.015.005.015.946-.323Zm1.02 2.076.962-.268-.007-.027-.01-.027-.946.322Zm.17 2.907.987-.155-.002-.013-.986.168Zm1.528 2.824.901-.433-.013-.028-.015-.026-.873.487Zm1.02 4.485.979-.2-.002-.01-.978.21Zm1.698 6.562.986-.168-.003-.016-.004-.017-.98.2Zm.594 2.74-.488.874.015.008.016.008.457-.89Zm4.247 1.246-.826.564.004.006.004.006.818-.575Zm3.502 4.453.127-.125.127-.124-1.398-1.43-.127.124-.128.125 1.399 1.43Zm.255-.25c.062-.06.21-.17.504-.314l-.879-1.797c-.385.189-.746.41-1.024.682l1.398 1.43Zm.504-.314c.261-.128.606-.306.895-.518.145-.106.315-.249.458-.432.14-.18.312-.474.312-.862h-2c0-.222.098-.351.11-.367.015-.02.005-.001-.063.048-.135.1-.342.213-.59.334l.878 1.797Zm1.665-1.812c0-.063.002-.214-.025-.376a1.695 1.695 0 0 0-.17-.495l-1.78.91c.006.013.002.008-.004-.01a.431.431 0 0 1-.017-.069c-.005-.024-.005-.038-.005-.032a.9.9 0 0 1 0 .072h2Zm-.195-.87c.024.046.032.08.034.086.002.007 0 0-.003-.025a1.565 1.565 0 0 1-.005-.107l-.001-.164h-2c0 .114 0 .287.015.456.015.163.052.414.18.664l1.78-.91Zm.025-.21c0 .046-.006.09-.016.128-.008.035-.018.058-.016.053l.012-.028c.006-.015.02-.046.032-.082.025-.069.073-.215.073-.403h-2a.82.82 0 0 1 .046-.276c.005-.014.009-.022.005-.014l-.02.046c-.018.048-.05.127-.074.227-.025.103-.042.22-.042.35h2Zm.085-.332c0 .1-.032.177-.011.115.021-.063.096-.265.096-.53h-2c0-.1.032-.178.01-.115-.02.062-.095.264-.095.53h2Zm.085-.415a1.95 1.95 0 0 0-.24-.97c-.123-.223-.31-.448-.391-.553l-1.587 1.218.097.124.071.093c.04.053.053.075.057.082.001.002-.004-.008-.008-.022-.003-.012 0-.007 0 .028h2Zm-.726-1.629a.656.656 0 0 1-.085-.108l-.085-.13c-.035-.054-.078-.12-.127-.192l-1.653 1.127c.096.14.287.474.552.733l1.398-1.43Zm-.33-.475a1.623 1.623 0 0 1-.26-.49c-.054-.179-.047-.315.017-.44l-1.78-.91c-.361.706-.311 1.4-.153 1.927.154.512.422.912.589 1.13l1.587-1.217Zm-.243-.93a.753.753 0 0 1 .111-.172.697.697 0 0 1 .14-.11l-1.093-1.675a2.543 2.543 0 0 0-.939 1.047l1.781.91Zm.404-.404c.046-.045.086-.081.144-.134.048-.043.132-.118.21-.205a1.4 1.4 0 0 0 .371-.958h-2a.632.632 0 0 1 .138-.376l-.007.007-.052.048c-.045.04-.121.108-.203.188l1.398 1.43Zm.725-1.297c0-.265-.075-.468-.096-.53-.021-.062.011.016.011.115h-2c0 .265.075.468.096.53.021.063-.011-.015-.011-.115h2Zm-.138-.738-.043-.118a2.773 2.773 0 0 1-.029-.082.68.68 0 0 1-.027-.102.547.547 0 0 1 .027-.257l-1.92-.561c-.128.437-.136.82-.079 1.154.05.292.165.575.177.612l1.894-.646Zm-.085-.517c.079-.232.307-.483.687-.854l-1.399-1.43c-.3.294-.92.874-1.181 1.639l1.893.645Zm.687-.854c.12-.118.31-.301.478-.507.16-.195.374-.497.47-.873l-1.937-.496c.008-.03.014-.034 0-.009a.912.912 0 0 1-.081.112 4.432 4.432 0 0 1-.329.343l1.398 1.43Zm.87-1.173c.241-.47.192-.977.116-1.304a2.69 2.69 0 0 0-.468-1.006l-1.587 1.218a.75.75 0 0 1 .116.293l.001.018s0-.012.006-.033a.42.42 0 0 1 .035-.096l1.781.91Zm-.319-2.264a1.652 1.652 0 0 0-.663-.574c-.09-.044-.187-.083-.237-.103a2.727 2.727 0 0 1-.166-.074l-.879 1.797c.115.056.213.097.285.127l.084.034.035.016c.004.002-.022-.01-.056-.039a.323.323 0 0 1-.055-.058l1.652-1.126Zm-1.066-.75a1.727 1.727 0 0 0-.33-.12c-.085-.022-.167-.037-.215-.047a2.061 2.061 0 0 1-.1-.02c-.015-.005.009 0 .05.02l-.878 1.797c.126.062.246.098.33.12.084.021.167.037.214.046l.1.02c.016.005-.008 0-.05-.02l.879-1.797Zm-.724-.22-.255-.082-.62 1.901.255.083.62-1.901Zm.435.869v-.25h-2v.25h2Zm0-.25c0-.155.039-.25.06-.292l-1.78-.91c-.148.29-.28.693-.28 1.202h2Zm.06-.292c.074-.144.132-.292.164-.452.033-.16.031-.292.031-.335h-2c0 .04-.002-.009.01-.066.011-.056.026-.08.015-.057l1.78.91Zm.195-.787a1.658 1.658 0 0 0-.238-.88c-.027-.047-.033-.057-.041-.074l-1.781.91a2.789 2.789 0 0 0 .096.175l-.005-.01a.381.381 0 0 1-.025-.08c-.006-.03-.006-.046-.006-.041h2Zm-.17-.499a1.17 1.17 0 0 0-.125-.525 2.22 2.22 0 0 0-.027-.055l-.004-.008c.002.005.01.02.018.043a.826.826 0 0 1 .053.296h-2a1.174 1.174 0 0 0 .125.526l.027.054.005.008a.83.83 0 0 1-.071-.339h2Zm-.174-.663c-.169-.37-.12-.792.108-1.387l-1.867-.716c-.282.733-.573 1.807-.062 2.93l1.82-.827Zm.143-1.498c.038-.147.076-.277.119-.424.042-.144.089-.304.136-.49l-1.938-.495c-.038.148-.075.278-.118.424-.042.145-.09.305-.137.49l1.938.495Zm.266-.96.127-.623.128-.623-1.96-.401-.127.623-.128.623 1.96.4Zm.221-1.124.085-.25-1.893-.645-.085.25 1.893.645Zm.125-.404c.057-.337.062-.647.026-.916a1.934 1.934 0 0 0-.097-.403 1.284 1.284 0 0 0-.301-.478l-1.398 1.43a.808.808 0 0 1-.179-.262c-.011-.031-.01-.039-.007-.016a1.08 1.08 0 0 1-.016.309l1.972.336Zm-.372-1.797c-.177-.173-.376-.241-.432-.26a1.767 1.767 0 0 0-.257-.066 3.584 3.584 0 0 0-.518-.052 7.538 7.538 0 0 0-1.437.106l.322 1.974c.451-.073.81-.089 1.048-.08.12.003.193.013.222.018.016.003.002.002-.032-.01a.91.91 0 0 1-.314-.2l1.398-1.43Zm-2.483-.285c-.33 0-.608.106-.76.168-.22.09-.227.102-.314.13l.62 1.902a3.3 3.3 0 0 0 .274-.105c.087-.037.121-.053.175-.075.104-.042.081-.02.005-.02v-2Zm-1.074.299a3.3 3.3 0 0 0-.275.105c-.086.037-.12.053-.175.075-.103.043-.08.02-.005.02v2c.331 0 .609-.106.76-.168.22-.09.228-.102.315-.13l-.62-1.902Zm-.692.228c-.486.12-.7.034-.793-.02-.12-.069-.242-.205-.372-.46l-1.781.91c.21.41.554.938 1.156 1.284.63.362 1.392.443 2.265.23l-.475-1.944Zm-1.13-.404c-.318-.777-.057-1.276.406-2.273l-1.814-.843c-.386.831-1.145 2.16-.443 3.874l1.85-.758Zm.415-2.293c.22-.503.558-1.166.668-1.918l-1.979-.289c-.06.411-.232.746-.52 1.405l1.83.802Zm.678-2.062V43.006h-2V43.339h2Zm0-.332c0-.023.003-.077.01-.185.006-.093.015-.217.021-.338.006-.118.01-.261.004-.398a1.986 1.986 0 0 0-.024-.24 1.288 1.288 0 0 0-.12-.374l-1.78.91c-.058-.111-.071-.198-.072-.206-.004-.019-.003-.022-.002 0 .002.042.001.111-.004.211-.004.097-.011.196-.018.303a5.136 5.136 0 0 0-.014.317h2Zm-.11-1.535a1.352 1.352 0 0 0-.485-.513 3.016 3.016 0 0 0-.358-.19c-.106-.048-.22-.097-.31-.135a5.409 5.409 0 0 1-.231-.104l-.879 1.797c.11.054.227.104.323.145.104.045.186.08.26.114a2.074 2.074 0 0 1 .11.055l.008.004-.013-.01a.778.778 0 0 1-.205-.254l1.78-.91Zm-1.586-1.015a1.219 1.219 0 0 1-.244-.093 4.164 4.164 0 0 1-.141-.073c-.044-.024-.114-.061-.178-.093l-.878 1.797c.04.02.486.288.966.405l.475-1.943Zm-.41-.167a6.658 6.658 0 0 1-.742-.656l-1.399 1.43c.253.247.554.543.957.839l1.183-1.613Zm-.742-.656-.255-.25-1.398 1.43.254.25 1.399-1.43Zm.015.713.084-.332-1.937-.495-.085.332 1.938.495Zm-.032-.057c.139-.226.322-.372.673-.63l-1.182-1.612c-.329.24-.825.593-1.196 1.197l1.705 1.045Zm.521-.538c.474-.232.985-.647 1.187-1.24l-1.893-.645a.22.22 0 0 1 .023-.051c.001-.002-.004.006-.02.022a.693.693 0 0 1-.175.117l.878 1.797Zm1.21-1.315a1.775 1.775 0 0 0-.02-1.004 1.871 1.871 0 0 0-.546-.807c-.4-.36-.992-.646-1.602-.924l-.83 1.819c.312.143.556.26.746.365.195.107.297.18.348.227.045.04.009.022-.017-.057-.028-.086-.01-.14-.017-.114l1.937.495Zm-2.273-2.776a1.441 1.441 0 0 1-.211-.098l-.154-.084a4.363 4.363 0 0 0-.185-.098l-.879 1.796c.07.035.1.056.276.15.132.07.321.166.533.235l.62-1.901Zm-.484-.244a4.196 4.196 0 0 1-.403-.259c-.071-.054-.076-.07-.066-.055.017.026-.016.02-.061-.42l-1.99.203c.04.39.092.882.385 1.324.283.425.717.693 1.123.932l1.012-1.725Zm-.525-.633V34.617h-2V34.785h2Zm0-.166c0-.033.002-.186-.021-.342a1.328 1.328 0 0 0-.115-.386c-.065-.134-.338-.604-.949-.604v2a.958.958 0 0 1-.623-.23.913.913 0 0 1-.28-.437.538.538 0 0 1-.012-.054c-.002-.01 0 .002 0 .053h2Zm-.386-1.047a1.83 1.83 0 0 0-.79-.435c-.25-.07-.512-.1-.758-.1v2a.86.86 0 0 1 .219.026c.023.006.028.01.019.006a.38.38 0 0 1-.088-.067l1.398-1.43Zm-1.41-.525a3.454 3.454 0 0 1-.389-.07.888.888 0 0 1-.245-.097.183.183 0 0 1-.072-.07c-.012-.021-.046-.095-.046-.267h-2c0 .96.425 1.634 1.05 2.029.535.337 1.145.417 1.425.456l.277-1.98Zm-.752-.505v-.249h-2v.25h2Zm-.69.702.255-.083-.62-1.901-.255.083.62 1.901Zm.255-.083c.253-.083.477-.155.777-.228l-.475-1.943c-.38.092-.666.186-.922.27l.62 1.901Zm.777-.228c.412-.101.951-.304 1.328-.55l-1.093-1.675a2.785 2.785 0 0 1-.71.282l.475 1.942Zm1.48-.672c.032-.031.096-.093.152-.156.065-.075.156-.192.224-.357.066-.162.084-.308.09-.4.006-.081.005-.17.005-.217h-2V31.206a.722.722 0 0 1 .053-.216.738.738 0 0 1 .124-.204c.007-.009.01-.01 0 0l-.046.044 1.399 1.43Zm-.529-2.13H37.73v2H38.072v-2Zm-.34 0c-.528 0-.93.018-1.311-.033-.364-.049-.51-.141-.576-.216l-1.49 1.334c.527.59 1.232.788 1.802.864.553.074 1.17.05 1.575.05v-2Zm-1.933-.297c-.151-.147-.15-.21-.368-.743l-1.851.757c.121.298.292.9.82 1.416l1.399-1.43Zm-.325-.612c-.084-.33-.239-.941-.847-1.338l-1.093 1.676a.236.236 0 0 1-.046-.042c-.016-.018-.023-.03-.022-.03.002.004.01.02.023.06.013.04.028.093.047.17l1.938-.496Zm-.694-1.215a1.992 1.992 0 0 0-.698-.418c-.162-.061-.389-.128-.456-.15l-.62 1.902.214.067c.065.02.115.037.158.053a.613.613 0 0 1 .07.03c.007.003-.023-.011-.067-.054l1.399-1.43Zm-1.272-.599c-.487-.095-.564-.135-.64-.246l-1.652 1.127c.604.885 1.546 1.011 1.908 1.082l.384-1.963Zm-.767-.398a.717.717 0 0 1 .108.134s-.007-.012-.024-.05l-.06-.135a3.716 3.716 0 0 0-.087-.187l-1.781.91c.008.015.02.04.04.086l.067.153c.025.055.06.13.104.206.035.064.112.193.235.313l1.398-1.43Zm.046.217a1.1 1.1 0 0 0-.284-.737c-.03-.033-.057-.06-.059-.061l.028.03a.87.87 0 0 1 .195.354.904.904 0 0 1 .035.248h-2a1.099 1.099 0 0 0 .285.737c.03.032.057.06.059.06a.872.872 0 0 1-.223-.384.899.899 0 0 1-.036-.247h2Zm-1.085-1.166H31.361v2H31.702v-2Zm-.34 0H31.021v2H31.362v-2Zm-.34 0c-.469 0-.873-.06-1.558-.283l-.62 1.901c.844.275 1.46.382 2.179.382v-2Zm-1.663-.311c-.368-.077-.546-.223-.665-.372-.147-.184-.25-.43-.377-.8l-1.893.646c.129.378.323.921.707 1.402.412.515.998.91 1.818 1.081l.41-1.957Zm-1.042-1.171c-.165-.484-.427-1.247-1.204-1.703L26.099 24.6c.072.042.15.11.324.623l1.893-.645Zm-1.011-1.555c-.39-.382-.909-.511-1.226-.59l-.475 1.944c.16.039.25.066.306.09.05.02.032.02-.004-.014l1.399-1.43Zm-1.226-.59a1.046 1.046 0 0 1-.473-.241l-1.398 1.43c.407.399.919.638 1.396.755l.475-1.943Zm-.556-.314c-.011-.009.006.003.027.04.021.038.03.074.032.095.002.017-.001.014.004-.02a2.76 2.76 0 0 1 .035-.16l-1.938-.494c-.041.162-.132.51-.088.9.05.449.268.88.696 1.215l1.232-1.576Zm.13-.292a.444.444 0 0 1-.008.08l.002-.005.004-.021a1.327 1.327 0 0 0 .03-.474 1.325 1.325 0 0 0-.139-.45l-1.78.91a.62.62 0 0 1-.067-.226.678.678 0 0 1 .003-.19c.002-.009.003-.013 0 .002-.002.008-.01.04-.015.07-.014.07-.03.175-.03.304h2Zm-.032-.663c-.189-.737-.872-.974-1.157-1.05-.36-.097-.76-.117-1.086-.117v2c.127 0 .244.004.346.014.105.01.179.023.224.035.053.014.03.016-.025-.023a.643.643 0 0 1-.24-.363l1.938-.496Zm-2.243-1.167h-.425v2h.425v-2Zm-.425 0c-.481 0-.608-.033-.667-.06-.016-.008-.12-.05-.328-.424l-1.746.974c.3.54.664.996 1.222 1.259.514.242 1.067.25 1.52.25v-2Zm-2.86-.124c-.08.627-.216 1.46.143 2.395l1.868-.716c-.151-.393-.117-.723-.027-1.425l-1.984-.254Zm.13 2.36c.18.529.505.982.715 1.29.239.35.388.588.465.84l1.912-.587c-.178-.578-.496-1.046-.724-1.38-.258-.378-.4-.59-.475-.808l-1.893.645Zm1.167 2.084c.06.231.046.403.09.873.036.391.12.948.496 1.463l1.615-1.18c-.048-.066-.092-.174-.12-.468a9.296 9.296 0 0 1-.017-.233c-.006-.083-.012-.18-.02-.276a4.091 4.091 0 0 0-.106-.674l-1.938.495Zm.567 2.31c.391.573.918.915 1.408 1.146.459.217.996.382 1.356.51.818.29 1.13.51 1.253 1.008l1.942-.476c-.387-1.578-1.645-2.105-2.526-2.417-.49-.174-.833-.274-1.17-.433-.307-.145-.492-.291-.61-.465l-1.653 1.126Zm4.028 2.707c.102.348.065.546-.013.762-.052.146-.115.277-.215.5a5.41 5.41 0 0 0-.285.763l1.927.537a3.46 3.46 0 0 1 .185-.485c.073-.163.185-.4.27-.639.199-.552.289-1.185.051-2l-1.92.562Zm-.501 1.987c-.399 1.234.081 2.226.648 2.935.276.345.594.654.873.915.297.28.534.493.74.712l1.459-1.368c-.262-.28-.577-.564-.83-.8-.27-.256-.499-.482-.68-.708-.345-.432-.418-.728-.307-1.072l-1.903-.614Zm2.254 4.555c.462.502.785.786 1.114 1.196.289.36.451.673.501 1.013l1.979-.29c-.12-.823-.51-1.464-.921-1.976-.372-.463-.899-.968-1.201-1.297l-1.472 1.355Zm1.619 2.232c.02.118.01.245-.003.582-.01.272-.024.709.127 1.15l1.893-.644c-.02-.057-.032-.16-.022-.427.008-.204.041-.616-.024-.997l-1.971.336Zm.11 1.69c.13.442.348.794.521 1.054.198.297.306.436.398.617l1.781-.911c-.162-.318-.394-.635-.515-.816-.145-.217-.224-.364-.265-.504l-1.92.56Zm.9 1.629c.305.672.424 1.33.718 2.288l1.912-.586c-.215-.703-.436-1.706-.81-2.53l-1.82.828Zm.728 2.318c.163.48.405.894.589 1.214.198.344.339.595.43.862l1.893-.645c-.164-.48-.406-.895-.59-1.215-.198-.344-.338-.594-.43-.862l-1.892.646Zm1.002 2.022c.083.297.091.638.08 1.132-.01.451-.037 1.06.067 1.674l1.972-.336c-.065-.382-.05-.77-.04-1.295.011-.481.02-1.096-.153-1.712l-1.926.537Zm.145 2.794c.118.75.466 1.37.787 1.864.369.567.617.862.857 1.291l1.746-.974c-.27-.484-.701-1.06-.927-1.408-.273-.42-.435-.755-.487-1.084l-1.976.31Zm1.616 3.102c.28.582.43 1.202.552 1.915.113.662.217 1.54.39 2.347l1.956-.421c-.166-.77-.232-1.43-.374-2.262-.134-.783-.323-1.616-.722-2.446l-1.802.867Zm.94 4.252c.229 1.116.15 1.954.15 3.37h2c0-1.24.091-2.395-.19-3.771l-1.96.4Zm.15 3.37c0 1.04.527 1.713.897 2.162.401.488.585.7.652 1.03l1.96-.402c-.188-.917-.769-1.535-1.068-1.899-.331-.402-.441-.6-.441-.89h-2Zm1.543 3.159a1.72 1.72 0 0 1-.01.472c-.02.176-.076.526-.088.81-.014.319.007.73.202 1.145.202.433.542.769.988 1.019l.976-1.746a.594.594 0 0 1-.134-.095c-.015-.016-.018-.023-.018-.024-.002-.005-.023-.05-.016-.21.008-.193.038-.341.076-.669a3.64 3.64 0 0 0-.005-1.038l-1.971.336Zm1.123 3.462c1.092.562 2.212.399 2.754.39.313-.004.494.022.634.079.119.048.285.151.49.45l1.652-1.126c-.39-.572-.85-.957-1.387-1.176-.515-.21-1.02-.232-1.418-.226-.88.013-1.289.099-1.81-.17l-.915 1.779Zm3.886.932c.217.308.422.632.635.971.209.333.428.69.656 1.032.455.684.995 1.395 1.72 1.952l1.219-1.586c-.464-.356-.858-.85-1.274-1.474-.208-.312-.407-.635-.626-.985a23.726 23.726 0 0 0-.694-1.06l-1.636 1.15Z" mask="url(#a)"/></svg>