<svg xmlns:xlink="http://www.w3.org/1999/xlink" xmlns="http://www.w3.org/2000/svg" width="70" height="70" fill="none"><path fill="#48639E" d="M35.142 26.068h-1.028v1.736h1.028v-1.736ZM49.727 68.973V66.63h-5.084v-4.51h2.815V60.13h2.054v-4.027H47.18v-2.63h-3.41v-2.218h-3.78l1.561-5.629-1.828-2.342h-1.089v-2.218h-8.012v2.167h-1.078l-1.84 2.393 1.562 5.68h-3.78v2.22h-3.41v2.577h-2.3v4.027h2.053v1.993h2.784v4.509H19.53v2.342H9V70h51.256v-1.027H49.727ZM37.761 51.254c.544-1.191 1.428-3.472 1.027-4.9h1.469l-1.346 4.9h-1.15Zm-5.136 0c-.801-1.623-1.613-4.037-1.099-4.848.082-.134.257-.298.76-.288h.627l-.103-.616a1.027 1.027 0 0 1 .216-.78 2.105 2.105 0 0 1 3.204 0c.167.22.244.495.216.77l-.123.636h.647c.514 0 .678.154.76.288.514.812-.298 3.225-1.099 4.848l-4.006-.01Zm7.426-5.927h-2.054a1.836 1.836 0 0 0-.554-.195 2.145 2.145 0 0 0-.33-.873h2.055l.883 1.068Zm-8.402-3.235h5.958v.873h-5.958v-.873Zm-1.612 2.167h2.054a2.148 2.148 0 0 0-.329.873c-.194.035-.381.1-.555.195h-2.054l.884-1.068Zm-1.028 2.054h1.47c-.401 1.428.482 3.708 1.026 4.9h-1.17l-1.326-4.9Zm-2.475 5.927h16.23v1.192h-16.25l.02-1.192Zm-3.41 2.219h23.029v1.643h-23.05l.02-1.643Zm-2.322 2.67h27.652v1.973H20.802V57.13Zm2.055 3.965v-.965h23.625v.965H22.857Zm2.814 1.028h17.945v4.509H25.64l.031-4.51Zm-5.084 5.536H48.73v1.315H20.556l.03-1.315Z"/><path fill="#24A7D0" d="M40.699 36.873h-.545L38.1 27.352h-6.934l-2.054 9.521h-.596v3.082h.904v2.054h10.395v-2.054h.904l-.02-3.081Zm-1.027 2.055H29.544V37.9H39.63l.041 1.027Zm-7.673-10.55h5.259l1.838 8.495H30.16l1.838-8.494Zm6.79 12.686h-8.3v-1.027h8.3v1.027ZM38.048 22h-6.84v4.653h6.84V22Zm-1.027 3.626h-4.786v-2.599h4.786v2.599ZM34.68 62.943a1.407 1.407 0 0 0-1.439 1.366v.072a1.438 1.438 0 1 0 1.438-1.438Zm.718 1.541a.575.575 0 0 1-.616.514.617.617 0 0 1 0-1.233.502.502 0 0 1 .411.205c.116.145.17.33.154.514h.051ZM40.699 62.943a1.4 1.4 0 0 0-1.438 1.366v.072a1.437 1.437 0 1 0 1.438-1.438Zm.719 1.541a.575.575 0 0 1-.617.514.616.616 0 1 1 0-1.233.524.524 0 0 1 .411.205.822.822 0 0 1 .206.514ZM28.516 62.943a1.407 1.407 0 0 0-1.438 1.366v.072a1.437 1.437 0 1 0 1.438-1.438Zm.72 1.541a.576.576 0 0 1-.617.514.617.617 0 0 1 0-1.233.493.493 0 0 1 .41.205.718.718 0 0 1 .247.514h-.04Z"/></svg>