<svg xmlns:xlink="http://www.w3.org/1999/xlink" xmlns="http://www.w3.org/2000/svg" width="70" height="70" fill="none"><mask id="a" fill="#fff"><path d="M46.238 62.26c.467.671 1.401.604 1.535 1.611.066.605-.334 1.075-.534 1.612-.2.403-.334 1.008-.534 1.41-.4.202-.6.672-.667 1.21.2 0 .4.067.534.134.266.134.4.134.6 0a.922.922 0 0 0 .267-.201c.267-.27.467-.404 1.068-.336h.267l.066.268c.134.873.4 1.814.801 2.015.067 0 .134.067.334-.067.066-.067.066-.134.133-.336 0-.201.067-.47.267-.739.134-.134.4-.201.6-.268.067 0 .268-.067.268-.067-.067-.067-.134-.135-.134-.336-.067-.403-.133-.806-.267-1.21l-.066-.268c-.134-.47-.067-.671.4-.873l.067-.067c.2-.134.467-.134.6-.201.2-.068.2-.068.267-.202 0-.134.067-.202.067-.336.067-.47.2-.604.667-.739 0-.067 0-.134-.066-.134-.134-.336-.267-.806.2-1.209l.333-.268.2.403c.134.201.4.47.601.738l.334.336c.534.605.6.605.867.403.134-.134.134-.201.2-.403.067-.201.134-.403.334-.604.2-.202.4-.336.534-.403.2-.135.267-.135.267-.269l-.067-.067c-.4-.269-.867-.605-.867-1.21 0-.2.066-.335.133-.47.067-.133.067-.2.067-.268-.067-.268-.467-.403-.8-.604-.535-.202-1.202-.538-1.069-1.276.067-.269.134-.403.334-.538.334-.201.8-.134 1.201 0 .2.068.4.068.6.068.468 0 .468-.068.535-.404.066-.268.133-.604.533-.94.134-.134.334-.201.468-.268.133-.068.267-.068.333-.135l.2-.201c.134-.135.334-.336.601-.47.133-.068.267-.068.4-.068.134 0 .334-.067.468-.067h-.4c-.201 0-.401 0-.668.068-.801.067-1.802.201-2.336-.336-.4-.403-.133-.806 0-1.142.067-.202.2-.336.2-.47 0-.135-.066-.202-.066-.336-.067-.47-.2-1.075.2-1.612.467-.537 1.068-.604 1.668-.604.2 0 .334 0 .534-.068.267-.537.334-.805.2-1.209-.066-.134-.066-.2-.133-.335-.134-.202-.2-.47-.267-.672-.067-.268 0-.47 0-.739 0-.134.067-.268 0-.403v-.268l.267-.068c.133-.067.2-.067.333-.134-.4-.201-.867-.537-.734-1.074.134-.538 1.068-.806 1.135-.806.267-.068.467-.068.6-.068.334 0 .4 0 .6-.335.335-.605.668-1.008 1.135-1.478.334-.403.267-.47-.133-.806l-.4-.403c-.267-.336-.334-.739-.267-1.209 0-.067.066-.201.066-.268a3.155 3.155 0 0 1-.6-.806c-.067-.202-.2-.336-.334-.538-.334-.403-.334-.403-.867-.268-.668.067-1.602.268-2.002-.94-.067-.135-.067-.27-.134-.336-.2-.605-.334-.94-.8-1.075a.92.92 0 0 0-.601 0c-.4 0-.934.067-1.335-.47-.333-.47-.467-1.008-.534-1.478-.066-.47-.133-.873-.467-1.276-.133-.134-.2-.201-.267-.336-.4-.47-.6-.738-.6-1.611 0-.403 0-.806.067-1.21 0-.335.066-.671.066-1.007-.734-.201-.934-1.007-1.068-1.746-.133-.47-.2-.873-.4-1.075-.133-.067-.2-.134-.267-.134-.2 0-.4.336-.6.605l-.134.201c-.534.672-1 1.008-1.468 1.008-.467.067-.934-.135-1.468-.605-.133-.134-.2-.269-.334-.403-.066-.067-.133-.201-.2-.269l-.133-.134h-.534c-.334 0-.534-.067-.868-.47a3.584 3.584 0 0 1-.467-.672c-.066-.134-.066-.268-.066-.403v-.201h-.4c-.268.067-.535.067-.735 0-.334-.134-.6-.403-.867-.672-.2-.201-.4-.403-.668-.537-.534-.269-.867-.201-1.468 0-.133.067-.267.067-.4.134-.934.269-1.602.202-2.603-.134l-.2-.067c-.4-.134-.867-.336-1.201-.202-.134.067-.2.135-.334.269-.133.134-.333.403-.734.47-.6.134-1.268-.134-1.935-.403-.2.403-.334.739-.2 1.276.067.336.734.605.6.94-.066.336-1.4.74-1.801.874-.734.268-1.802.94-2.536.671-.667-.201-.6-1.41-.734-2.015-1.201.269-2.402.806-3.604 1.008-.133 0-.467-.067-.6 0-.4.201-.334.806-.934 1.007-1.402.403-1.869-.604-2.803-1.276-.6-.47-1.468 0-2.202.067-.668 0-1.535.135-2.202 0-.601-.134-1.602-1.209-2.002-.806-.334.269-.6 1.344-.668 1.746-.066.336.067.672-.066 1.008-.467 1.007-1.602.134-2.336-.067-1.068-.269-1.668.537-2.135 1.343-.267.47-.668.873-1.202 1.142-.467.201-.8.201-.867.806.334.201.6.604.934.739.734.335 1.735 0 2.136-.672.333-.47.267-1.075.934-1.209.467-.067 1 .134.934.605-.067.604-1.201.671-1.335 1.276-.066.268.067.268.134.402.267.806.267 1.747.534 2.553.6.201 1.468 0 2.002.403.4.335.333.94.467 1.41.2.672.534 1.478 1 2.015.668.739 1.736.537 2.603.739.668.201.934.47 1.402.94.667.672 1.601.47 2.535.202.801-.202 1.135-.806 1.735-1.075.534-.269 1.268.134 1.802-.336.467-.403.4-.94 1.135-1.142.467-.134 1-.201 1.267.269.4.604-.133.672-.4 1.075-.4.604 0 1.343-.534 2.014-.267.336-.534.672-.867 1.008-.267.269-.4.604-.668.873-.8.806-2.802.336-3.803.604-1.135.269-1.735 1.612-3.07 1.478-1-.134-1.334-.739-1.935-1.343-.534-.538-.534-.47-1.201-.135-.734.403-1.402.403-1.068 1.41.2.538 1.068 1.344 1.402 1.814.467.605.8 1.142 1.067 1.88.267.74.668 1.411.934 2.15.668 1.545 2.002 2.216 3.337 3.022 1.335.806 1.802 1.948 2.536 3.224.467.806 1.268 1.41 1.935 2.015.6.537.8.604 1.601.672 1.468.134 2.27 2.014 3.737 1.88.668-.067 1.135-.672 1.669-1.007.534-.336 1.134-.202 1.601-.538.4-.671 1.201-.336 1.802-.604.467-.135.8-.269 1.201-.269.734-.067 2.002.269 2.536-.201.6-.538.334-1.41 1-1.948.735-.672 2.003-1.007 2.537-1.948.333-.537.066-1.41.2-2.082.267-1.276.534-1.477-.267-2.485-1.068-1.41.467-2.149.867-3.358.2-.604.067-1.947 1.135-1.007.2.201.267.671.467.806.267.134.934-.067 1.268-.135.467 0 2.135 0 1.334.94-.4.538-1.334.202-1.868.336-.4.135-.6.538-.734.94-.334 1.008.334 1.881.2 2.889-.067.537-.534 1.007-.6 1.612-.067.671.2.604.6 1.074.534.672.2 1.343-.2 1.948-.4.672-.534 1.276-.133 1.948.2.403.533.738.733 1.141.4.336.468.94.668 1.344Z"/></mask><path fill="#F5F8F9" stroke="#48639E" stroke-width="2" d="M46.238 62.26c.467.671 1.401.604 1.535 1.611.066.605-.334 1.075-.534 1.612-.2.403-.334 1.008-.534 1.41-.4.202-.6.672-.667 1.21.2 0 .4.067.534.134.266.134.4.134.6 0a.922.922 0 0 0 .267-.201c.267-.27.467-.404 1.068-.336h.267l.066.268c.134.873.4 1.814.801 2.015.067 0 .134.067.334-.067.066-.067.066-.134.133-.336 0-.201.067-.47.267-.739.134-.134.4-.201.6-.268.067 0 .268-.067.268-.067-.067-.067-.134-.135-.134-.336-.067-.403-.133-.806-.267-1.21l-.066-.268c-.134-.47-.067-.671.4-.873l.067-.067c.2-.134.467-.134.6-.201.2-.068.2-.068.267-.202 0-.134.067-.202.067-.336.067-.47.2-.604.667-.739 0-.067 0-.134-.066-.134-.134-.336-.267-.806.2-1.209l.333-.268.2.403c.134.201.4.47.601.738l.334.336c.534.605.6.605.867.403.134-.134.134-.201.2-.403.067-.201.134-.403.334-.604.2-.202.4-.336.534-.403.2-.135.267-.135.267-.269l-.067-.067c-.4-.269-.867-.605-.867-1.21 0-.2.066-.335.133-.47.067-.133.067-.2.067-.268-.067-.268-.467-.403-.8-.604-.535-.202-1.202-.538-1.069-1.276.067-.269.134-.403.334-.538.334-.201.8-.134 1.201 0 .2.068.4.068.6.068.468 0 .468-.068.535-.404.066-.268.133-.604.533-.94.134-.134.334-.201.468-.268.133-.068.267-.068.333-.135l.2-.201c.134-.135.334-.336.601-.47.133-.068.267-.068.4-.068.134 0 .334-.067.468-.067h-.4c-.201 0-.401 0-.668.068-.801.067-1.802.201-2.336-.336-.4-.403-.133-.806 0-1.142.067-.202.2-.336.2-.47 0-.135-.066-.202-.066-.336-.067-.47-.2-1.075.2-1.612.467-.537 1.068-.604 1.668-.604.2 0 .334 0 .534-.068.267-.537.334-.805.2-1.209-.066-.134-.066-.2-.133-.335-.134-.202-.2-.47-.267-.672-.067-.268 0-.47 0-.739 0-.134.067-.268 0-.403v-.268l.267-.068c.133-.067.2-.067.333-.134-.4-.201-.867-.537-.734-1.074.134-.538 1.068-.806 1.135-.806.267-.068.467-.068.6-.068.334 0 .4 0 .6-.335.335-.605.668-1.008 1.135-1.478.334-.403.267-.47-.133-.806l-.4-.403c-.267-.336-.334-.739-.267-1.209 0-.067.066-.201.066-.268a3.155 3.155 0 0 1-.6-.806c-.067-.202-.2-.336-.334-.538-.334-.403-.334-.403-.867-.268-.668.067-1.602.268-2.002-.94-.067-.135-.067-.27-.134-.336-.2-.605-.334-.94-.8-1.075a.92.92 0 0 0-.601 0c-.4 0-.934.067-1.335-.47-.333-.47-.467-1.008-.534-1.478-.066-.47-.133-.873-.467-1.276-.133-.134-.2-.201-.267-.336-.4-.47-.6-.738-.6-1.611 0-.403 0-.806.067-1.21 0-.335.066-.671.066-1.007-.734-.201-.934-1.007-1.068-1.746-.133-.47-.2-.873-.4-1.075-.133-.067-.2-.134-.267-.134-.2 0-.4.336-.6.605l-.134.201c-.534.672-1 1.008-1.468 1.008-.467.067-.934-.135-1.468-.605-.133-.134-.2-.269-.334-.403-.066-.067-.133-.201-.2-.269l-.133-.134h-.534c-.334 0-.534-.067-.868-.47a3.584 3.584 0 0 1-.467-.672c-.066-.134-.066-.268-.066-.403v-.201h-.4c-.268.067-.535.067-.735 0-.334-.134-.6-.403-.867-.672-.2-.201-.4-.403-.668-.537-.534-.269-.867-.201-1.468 0-.133.067-.267.067-.4.134-.934.269-1.602.202-2.603-.134l-.2-.067c-.4-.134-.867-.336-1.201-.202-.134.067-.2.135-.334.269-.133.134-.333.403-.734.47-.6.134-1.268-.134-1.935-.403-.2.403-.334.739-.2 1.276.067.336.734.605.6.94-.066.336-1.4.74-1.801.874-.734.268-1.802.94-2.536.671-.667-.201-.6-1.41-.734-2.015-1.201.269-2.402.806-3.604 1.008-.133 0-.467-.067-.6 0-.4.201-.334.806-.934 1.007-1.402.403-1.869-.604-2.803-1.276-.6-.47-1.468 0-2.202.067-.668 0-1.535.135-2.202 0-.601-.134-1.602-1.209-2.002-.806-.334.269-.6 1.344-.668 1.746-.066.336.067.672-.066 1.008-.467 1.007-1.602.134-2.336-.067-1.068-.269-1.668.537-2.135 1.343-.267.47-.668.873-1.202 1.142-.467.201-.8.201-.867.806.334.201.6.604.934.739.734.335 1.735 0 2.136-.672.333-.47.267-1.075.934-1.209.467-.067 1 .134.934.605-.067.604-1.201.671-1.335 1.276-.066.268.067.268.134.402.267.806.267 1.747.534 2.553.6.201 1.468 0 2.002.403.4.335.333.94.467 1.41.2.672.534 1.478 1 2.015.668.739 1.736.537 2.603.739.668.201.934.47 1.402.94.667.672 1.601.47 2.535.202.801-.202 1.135-.806 1.735-1.075.534-.269 1.268.134 1.802-.336.467-.403.4-.94 1.135-1.142.467-.134 1-.201 1.267.269.4.604-.133.672-.4 1.075-.4.604 0 1.343-.534 2.014-.267.336-.534.672-.867 1.008-.267.269-.4.604-.668.873-.8.806-2.802.336-3.803.604-1.135.269-1.735 1.612-3.07 1.478-1-.134-1.334-.739-1.935-1.343-.534-.538-.534-.47-1.201-.135-.734.403-1.402.403-1.068 1.41.2.538 1.068 1.344 1.402 1.814.467.605.8 1.142 1.067 1.88.267.74.668 1.411.934 2.15.668 1.545 2.002 2.216 3.337 3.022 1.335.806 1.802 1.948 2.536 3.224.467.806 1.268 1.41 1.935 2.015.6.537.8.604 1.601.672 1.468.134 2.27 2.014 3.737 1.88.668-.067 1.135-.672 1.669-1.007.534-.336 1.134-.202 1.601-.538.4-.671 1.201-.336 1.802-.604.467-.135.8-.269 1.201-.269.734-.067 2.002.269 2.536-.201.6-.538.334-1.41 1-1.948.735-.672 2.003-1.007 2.537-1.948.333-.537.066-1.41.2-2.082.267-1.276.534-1.477-.267-2.485-1.068-1.41.467-2.149.867-3.358.2-.604.067-1.947 1.135-1.007.2.201.267.671.467.806.267.134.934-.067 1.268-.135.467 0 2.135 0 1.334.94-.4.538-1.334.202-1.868.336-.4.135-.6.538-.734.94-.334 1.008.334 1.881.2 2.889-.067.537-.534 1.007-.6 1.612-.067.671.2.604.6 1.074.534.672.2 1.343-.2 1.948-.4.672-.534 1.276-.133 1.948.2.403.533.738.733 1.141.4.336.468.94.668 1.344Z" mask="url(#a)"/></svg>