<svg xmlns:xlink="http://www.w3.org/1999/xlink" xmlns="http://www.w3.org/2000/svg" width="70" height="70" fill="none"><mask id="a" fill="#fff"><path d="M64.58 22.018c-.37-.052-.423 0-.528.258a1.194 1.194 0 0 1-.423.567c-.21.207-.527.258-.791.31-.211.052-.37.103-.528.155-.211.155-.317.31-.475.567-.37.826-.845 1.135-1.742 1.187-.792.052-1.267-.413-1.742-.826-.211-.154-.37-.36-.58-.464l-.159-.103a1.643 1.643 0 0 1-.58-.464c-.053-.104-.159-.155-.211-.258-.159-.207-.264-.31-.423-.361-.21-.052-.317-.052-.475.051a.612.612 0 0 0-.264.464c-.158.62-.475.826-.897 1.084l-.106.052c-.21.154-.475.206-.739.31-.264.102-.528.205-.686.309-.264.154-.58.516-.792.722l-.105.103c-.159.206-.159.31-.159.722v.31c0 .155.053.31 0 .464-.052.361-.263.516-.422.62-.053.051-.158.103-.21.154-.054.103-.054.207-.106.31-.053.206-.106.464-.317.516-.264.103-.528-.052-.74-.207a.628.628 0 0 1-.263-.258c-.106-.154-.211-.206-.317-.206-.052 0-.158.206-.264.31-.052.103-.105.154-.158.206l-.211.258-.211-.258a3.953 3.953 0 0 1-.37-.826c-.21-.567-.37-.928-.739-.98-.264-.051-.422 0-.58.155-.212.206-.264.62-.212 1.187.106.825.053 1.754-.738 2.424-.581.465-1.056.258-1.478.104l-.475-.155c-.212-.052-.528 0-.687.155-.105.051-.105.154-.158.206-.053.103-.105.31-.37.413-.21.103-.474.103-.686.155H42.2c-.052 0-.105 0-.158.051 0 .052 0 .155-.053.258-.053.31-.158.413-.316.568l-.159.154a.636.636 0 0 1-.105.155.785.785 0 0 1 .105.413c.106.774-.475 1.135-1.003 1.393-.158.103-.264.155-.37.258-.157.155-.157.206-.21.361 0 .155 0 .31-.106.516-.21.516-.897.877-1.055.98-.475.258-.95.207-1.373.207-.528-.052-.95-.052-1.267.31l-.37.412-.105-.516v-.309c-.053-.052-.475-.052-.95.154-.316.103-.37.207-.528.413a1.077 1.077 0 0 1-.21.31c-.212.258-.529.36-.845.464-.053.052-.159.052-.211.103v.155c.105.464.21 1.29-.37 1.445-.475.103-.792-.258-1.108-.568-.159-.155-.317-.361-.475-.361-.212-.052-.581 0-.634.051v.31c0 .206.053.413-.053.62-.052.154-.158.257-.264.36-.052.052-.158.155-.158.207v.154c0 .155 0 .413-.264.62-.422.258-.897.051-1.267-.104l-.264-.103c-.422-.155-.527-.206-.897-.051a.922.922 0 0 0-.264.206 2.923 2.923 0 0 1-.422.31c-.264.103-.475.051-.686.051h-.37c-.052 0-.052.052-.158.155a793.6 793.6 0 0 0-.264.258 1.897 1.897 0 0 1-.475.206c-.106.052-.211.052-.317.103-.21.104-.527.258-.58.413 0 .052.052.103.052.103a.713.713 0 0 1 .159.207c.158.155.37.36.422.825 0 .671-.317 1.135-.95 1.239h-.053c-.105.051-.264.051-.422.051-.158 0-.317-.103-.422-.206-.159-.104-.211-.155-.264-.103a.389.389 0 0 0-.106.258c-.053.206-.105.412-.37.567-.21.155-.369.206-.474.258-.264.103-.475-.052-.634-.155-.052-.051-.105-.051-.105-.051-.053 0-.053-.052-.106-.052a.404.404 0 0 0-.211-.103s-.053 0-.053.051c-.053.052-.158.104-.316.104-.264 0-.476-.155-.634-.258a.404.404 0 0 0-.211-.103c-.106-.052-.158-.052-.264 0-.264.051-.475.206-.475.258 0 .051 0 .103-.053.154 0 .155 0 .361-.264.516-.158.155-.316.206-.475.258-.158.052-.316.155-.37.258l-.158.31c-.105.258-.264.567-.791.567h-.211c-.37-.051-.634-.206-.898-.361-.21-.103-.37-.206-.528-.258-.264-.103-.58-.103-.95-.103a3.34 3.34 0 0 1-1.214-.206c-.316 0-.633-.104-.897-.207s-.528-.206-.739-.206c-.317 0-.475.051-.686.154-.106.052-.211.052-.317.104-.158.051-.317.051-.475.103-.37.052-.58.052-.686.258-.106.155 0 .258.264.567.105.104.21.207.264.31.316.568 0 .826-.264 1.032l-.159.155c-.052.051-.158.103-.21.154-.265.207-.265.258-.212.31.053.103.159.155.264.258.211.155.475.31.528.67.053.31-.106.517-.211.723-.053.103-.159.206-.159.31.053.051.159.051.212.154.316.413.21.774.105 1.084 0 .103-.053.206-.053.31l-.052.206h-.212c-.633.103-1.266-.052-1.847-.207-.211-.051-.475-.103-.686-.154 0 .051.053.051.053.103.105.154.264.31.264.567.052.207-.053.413-.106.568-.053.103-.053.206-.053.31 0 .154.053.309.053.464.053.206.106.464.053.774 0 .154-.106.31-.159.464-.158.413-.21.67-.052.877.052.052.21.103.37.155.21.051.421.103.58.31.528.464.633 1.29.686 1.496 0 .206 0 .412-.053.619-.053.154-.053.36-.053.413 0 .051.053.051.053.051a.586.586 0 0 0 .317-.155c.105-.154.158-.31.264-.516.105-.31.264-.722.739-.877h.211c.053-.051.105-.051.211-.103.158-.052.317 0 .422.052h.211v-.104c0-.103 0-.258.106-.412.211-.258.845-.207 1.056 0 .264.206.264.516.264.722v.103c0 .155 0 .155.21.258.265.155.37.516.265.826-.106.31-.37.516-.687.464-.158 0-.264-.103-.37-.155-.052-.051-.105-.051-.105-.051v.361c0 .361-.052.464-.37.67-.316.207-.633.104-.844.052l-.264-.051c-.21-.052-.475-.104-.739-.31l-.052-.052-.053-.051s-.053 0-.106.051h-.052c0 .104 0 .258-.053.361-.159.31-.475.31-.686.362-.106 0-.264.051-.264.051s-.053.103-.053.155c-.053.155-.053.155.211.31l.053.051c.264.207.528.361.686.67.158.156.158.362.211.517v.103c.053.155.053.155.106.155V62.725c0-.258 0-.619.158-.928.211-.31.528-.258.686-.207l.159.052c.105 0 .21.051.316.103.053.052.106.052.106.103a.996.996 0 0 0 .37.103c.052 0 .158 0 .21.052.212.052.423.103.581.052.106-.052.106-.052.158-.104.053-.051.053-.103.159-.206.053-.052.053-.103.053-.103.052-.155.158-.207.369-.31.211-.103.528 0 .739.052.106 0 .211.051.264.051.422 0 .422 0 .633-.31l.106-.154c.211-.31.686-.619 1.161-.67.422-.104.792 0 1.056.154.317.258.633.98.528 1.393-.053.155-.106.258-.159.361-.052.104-.105.155-.052.31.052.103.105.361.844.413.897.051 2.058.258 2.322 1.032.212.619-.422.877-.791.98-.211.103-.528.206-.528.31 0 .051 0 .206.105.309.053.103.212.258.37.413.37.36 1.003.928.37 1.65a5.552 5.552 0 0 1-.634.517c-.264.154-.475.31-.633.567-.053.103-.053.155-.106.258-.105.206-.158.465-.633.568a.46.46 0 0 1-.37 0c.37.258.686.464 1.109.464h.105c.159 0 .528 0 .58-.052v-.206c0-.103 0-.206.054-.361.105-.361.475-.67.738-.98l.423-.413c.528-.67 1.214-1.084 2.058-1.135.423-.052.792.103 1.162.206.316.103.686.207.95.207.844-.104 1.214-.31 1.53-.93.581-1.186 1.32-1.65 2.112-1.392.21.051.37.155.475.258.158.103.264.206.422.206.106 0 .211-.051.317-.103.105-.052.21-.155.37-.155.316-.051.633 0 .95.052.527.103.844.155 1.002-.103.053-.104.053-.155.106-.258.053-.207.105-.413.475-.62.211-.103.475-.154.686-.206a3.695 3.695 0 0 0-.528-.206c-.422-.207-.897-.568-1.003-1.032-.105-.413.317-.67.475-.929.264-.464 0-.722-.21-1.186-.16-.413-.106-.826 0-1.239.21-.619.527-1.238.633-1.857.158-.722.158-1.651-.264-2.27-.37-.516-.898-.98-.845-1.651 0-.361.211-.62.317-.929.158-.413.37-.825.422-1.238.159-.62.106-1.342.37-1.96.37-.93 1.636-.517 2.164-1.239.21-.258.317-.516.475-.774.21-.206.58-.361.844-.413.317-.051.528-.051.74.155.21.155.422.258.633.258.264.052.633.052.739-.155.053-.154-.053-.31.053-.412.105-.155.316-.207.474-.258.212-.155.37-.361.476-.568.105-.155.21-.413.316-.464.264-.207.423-.62.528-.98.053-.362 0-.826.211-1.136.106-.206.37-.36.528-.515.211-.207.528-.465.897-.413.37.051.792.31 1.162.464.422.155.844.465 1.32.465.263 0 .316-.155.474-.31.159-.155.37-.361.58-.413.37-.103.687-.206 1.004-.413.317-.206.58-.154.897-.154.528 0 .58-.413.633-.826.053-.413.476-.722.528-1.135.053-.206.053-.413-.105-.567-.106-.207-.317-.31-.422-.516-.053-.207-.106-.568-.053-.774.053-.361.422-.568.739-.774.58-.361 1.32-.62 1.741-1.187.264-.361.581-.928 1.056-1.083.317-.103.686-.052 1.003-.103.422-.052.739-.104 1.056-.362.475-.36.95-.773 1.267-1.29.264-.515.58-1.134.95-1.496.316-.31.58-.567.897-.774.422-.258.897-.516 1.161-.877.211-.258.317-.464.58-.67.529-.362 1.162-.361 1.743-.62.422-.154.791-.67 1.003-.98.21-.258.264-.619.422-.877.158-.258.422-.464.633-.619.317-.206.58-.413.845-.67.475-.465.422-1.084.844-1.497.686-.722 1.584-1.29 2.217-2.064.211-.36 0-.464-.105-.464"/></mask><path fill="#F5F8F9" stroke="#48639E" stroke-width="2" d="M64.58 22.018c-.37-.052-.423 0-.528.258a1.194 1.194 0 0 1-.423.567c-.21.207-.527.258-.791.31-.211.052-.37.103-.528.155-.211.155-.317.31-.475.567-.37.826-.845 1.135-1.742 1.187-.792.052-1.267-.413-1.742-.826-.211-.154-.37-.36-.58-.464l-.159-.103a1.643 1.643 0 0 1-.58-.464c-.053-.104-.159-.155-.211-.258-.159-.207-.264-.31-.423-.361-.21-.052-.317-.052-.475.051a.612.612 0 0 0-.264.464c-.158.62-.475.826-.897 1.084l-.106.052c-.21.154-.475.206-.739.31-.264.102-.528.205-.686.309-.264.154-.58.516-.792.722l-.105.103c-.159.206-.159.31-.159.722v.31c0 .155.053.31 0 .464-.052.361-.263.516-.422.62-.053.051-.158.103-.21.154-.054.103-.054.207-.106.31-.053.206-.106.464-.317.516-.264.103-.528-.052-.74-.207a.628.628 0 0 1-.263-.258c-.106-.154-.211-.206-.317-.206-.052 0-.158.206-.264.31-.052.103-.105.154-.158.206l-.211.258-.211-.258a3.953 3.953 0 0 1-.37-.826c-.21-.567-.37-.928-.739-.98-.264-.051-.422 0-.58.155-.212.206-.264.62-.212 1.187.106.825.053 1.754-.738 2.424-.581.465-1.056.258-1.478.104l-.475-.155c-.212-.052-.528 0-.687.155-.105.051-.105.154-.158.206-.053.103-.105.31-.37.413-.21.103-.474.103-.686.155H42.2c-.052 0-.105 0-.158.051 0 .052 0 .155-.053.258-.053.31-.158.413-.316.568l-.159.154a.636.636 0 0 1-.105.155.785.785 0 0 1 .105.413c.106.774-.475 1.135-1.003 1.393-.158.103-.264.155-.37.258-.157.155-.157.206-.21.361 0 .155 0 .31-.106.516-.21.516-.897.877-1.055.98-.475.258-.95.207-1.373.207-.528-.052-.95-.052-1.267.31l-.37.412-.105-.516v-.309c-.053-.052-.475-.052-.95.154-.316.103-.37.207-.528.413a1.077 1.077 0 0 1-.21.31c-.212.258-.529.36-.845.464-.053.052-.159.052-.211.103v.155c.105.464.21 1.29-.37 1.445-.475.103-.792-.258-1.108-.568-.159-.155-.317-.361-.475-.361-.212-.052-.581 0-.634.051v.31c0 .206.053.413-.053.62-.052.154-.158.257-.264.36-.052.052-.158.155-.158.207v.154c0 .155 0 .413-.264.62-.422.258-.897.051-1.267-.104l-.264-.103c-.422-.155-.527-.206-.897-.051a.922.922 0 0 0-.264.206 2.923 2.923 0 0 1-.422.31c-.264.103-.475.051-.686.051h-.37c-.052 0-.052.052-.158.155a793.6 793.6 0 0 0-.264.258 1.897 1.897 0 0 1-.475.206c-.106.052-.211.052-.317.103-.21.104-.527.258-.58.413 0 .052.052.103.052.103a.713.713 0 0 1 .159.207c.158.155.37.36.422.825 0 .671-.317 1.135-.95 1.239h-.053c-.105.051-.264.051-.422.051-.158 0-.317-.103-.422-.206-.159-.104-.211-.155-.264-.103a.389.389 0 0 0-.106.258c-.053.206-.105.412-.37.567-.21.155-.369.206-.474.258-.264.103-.475-.052-.634-.155-.052-.051-.105-.051-.105-.051-.053 0-.053-.052-.106-.052a.404.404 0 0 0-.211-.103s-.053 0-.053.051c-.053.052-.158.104-.316.104-.264 0-.476-.155-.634-.258a.404.404 0 0 0-.211-.103c-.106-.052-.158-.052-.264 0-.264.051-.475.206-.475.258 0 .051 0 .103-.053.154 0 .155 0 .361-.264.516-.158.155-.316.206-.475.258-.158.052-.316.155-.37.258l-.158.31c-.105.258-.264.567-.791.567h-.211c-.37-.051-.634-.206-.898-.361-.21-.103-.37-.206-.528-.258-.264-.103-.58-.103-.95-.103a3.34 3.34 0 0 1-1.214-.206c-.316 0-.633-.104-.897-.207s-.528-.206-.739-.206c-.317 0-.475.051-.686.154-.106.052-.211.052-.317.104-.158.051-.317.051-.475.103-.37.052-.58.052-.686.258-.106.155 0 .258.264.567.105.104.21.207.264.31.316.568 0 .826-.264 1.032l-.159.155c-.052.051-.158.103-.21.154-.265.207-.265.258-.212.31.053.103.159.155.264.258.211.155.475.31.528.67.053.31-.106.517-.211.723-.053.103-.159.206-.159.31.053.051.159.051.212.154.316.413.21.774.105 1.084 0 .103-.053.206-.053.31l-.052.206h-.212c-.633.103-1.266-.052-1.847-.207-.211-.051-.475-.103-.686-.154 0 .051.053.051.053.103.105.154.264.31.264.567.052.207-.053.413-.106.568-.053.103-.053.206-.053.31 0 .154.053.309.053.464.053.206.106.464.053.774 0 .154-.106.31-.159.464-.158.413-.21.67-.052.877.052.052.21.103.37.155.21.051.421.103.58.31.528.464.633 1.29.686 1.496 0 .206 0 .412-.053.619-.053.154-.053.36-.053.413 0 .051.053.051.053.051a.586.586 0 0 0 .317-.155c.105-.154.158-.31.264-.516.105-.31.264-.722.739-.877h.211c.053-.051.105-.051.211-.103.158-.052.317 0 .422.052h.211v-.104c0-.103 0-.258.106-.412.211-.258.845-.207 1.056 0 .264.206.264.516.264.722v.103c0 .155 0 .155.21.258.265.155.37.516.265.826-.106.31-.37.516-.687.464-.158 0-.264-.103-.37-.155-.052-.051-.105-.051-.105-.051v.361c0 .361-.052.464-.37.67-.316.207-.633.104-.844.052l-.264-.051c-.21-.052-.475-.104-.739-.31l-.052-.052-.053-.051s-.053 0-.106.051h-.052c0 .104 0 .258-.053.361-.159.31-.475.31-.686.362-.106 0-.264.051-.264.051s-.053.103-.053.155c-.053.155-.053.155.211.31l.053.051c.264.207.528.361.686.67.158.156.158.362.211.517v.103c.053.155.053.155.106.155V62.725c0-.258 0-.619.158-.928.211-.31.528-.258.686-.207l.159.052c.105 0 .21.051.316.103.053.052.106.052.106.103a.996.996 0 0 0 .37.103c.052 0 .158 0 .21.052.212.052.423.103.581.052.106-.052.106-.052.158-.104.053-.051.053-.103.159-.206.053-.052.053-.103.053-.103.052-.155.158-.207.369-.31.211-.103.528 0 .739.052.106 0 .211.051.264.051.422 0 .422 0 .633-.31l.106-.154c.211-.31.686-.619 1.161-.67.422-.104.792 0 1.056.154.317.258.633.98.528 1.393-.053.155-.106.258-.159.361-.052.104-.105.155-.052.31.052.103.105.361.844.413.897.051 2.058.258 2.322 1.032.212.619-.422.877-.791.98-.211.103-.528.206-.528.31 0 .051 0 .206.105.309.053.103.212.258.37.413.37.36 1.003.928.37 1.65a5.552 5.552 0 0 1-.634.517c-.264.154-.475.31-.633.567-.053.103-.053.155-.106.258-.105.206-.158.465-.633.568a.46.46 0 0 1-.37 0c.37.258.686.464 1.109.464h.105c.159 0 .528 0 .58-.052v-.206c0-.103 0-.206.054-.361.105-.361.475-.67.738-.98l.423-.413c.528-.67 1.214-1.084 2.058-1.135.423-.052.792.103 1.162.206.316.103.686.207.95.207.844-.104 1.214-.31 1.53-.93.581-1.186 1.32-1.65 2.112-1.392.21.051.37.155.475.258.158.103.264.206.422.206.106 0 .211-.051.317-.103.105-.052.21-.155.37-.155.316-.051.633 0 .95.052.527.103.844.155 1.002-.103.053-.104.053-.155.106-.258.053-.207.105-.413.475-.62.211-.103.475-.154.686-.206a3.695 3.695 0 0 0-.528-.206c-.422-.207-.897-.568-1.003-1.032-.105-.413.317-.67.475-.929.264-.464 0-.722-.21-1.186-.16-.413-.106-.826 0-1.239.21-.619.527-1.238.633-1.857.158-.722.158-1.651-.264-2.27-.37-.516-.898-.98-.845-1.651 0-.361.211-.62.317-.929.158-.413.37-.825.422-1.238.159-.62.106-1.342.37-1.96.37-.93 1.636-.517 2.164-1.239.21-.258.317-.516.475-.774.21-.206.58-.361.844-.413.317-.051.528-.051.74.155.21.155.422.258.633.258.264.052.633.052.739-.155.053-.154-.053-.31.053-.412.105-.155.316-.207.474-.258.212-.155.37-.361.476-.568.105-.155.21-.413.316-.464.264-.207.423-.62.528-.98.053-.362 0-.826.211-1.136.106-.206.37-.36.528-.515.211-.207.528-.465.897-.413.37.051.792.31 1.162.464.422.155.844.465 1.32.465.263 0 .316-.155.474-.31.159-.155.37-.361.58-.413.37-.103.687-.206 1.004-.413.317-.206.58-.154.897-.154.528 0 .58-.413.633-.826.053-.413.476-.722.528-1.135.053-.206.053-.413-.105-.567-.106-.207-.317-.31-.422-.516-.053-.207-.106-.568-.053-.774.053-.361.422-.568.739-.774.58-.361 1.32-.62 1.741-1.187.264-.361.581-.928 1.056-1.083.317-.103.686-.052 1.003-.103.422-.052.739-.104 1.056-.362.475-.36.95-.773 1.267-1.29.264-.515.58-1.134.95-1.496.316-.31.58-.567.897-.774.422-.258.897-.516 1.161-.877.211-.258.317-.464.58-.67.529-.362 1.162-.361 1.743-.62.422-.154.791-.67 1.003-.98.21-.258.264-.619.422-.877.158-.258.422-.464.633-.619.317-.206.58-.413.845-.67.475-.465.422-1.084.844-1.497.686-.722 1.584-1.29 2.217-2.064.211-.36 0-.464-.105-.464Z" mask="url(#a)"/></svg>