<svg xmlns:xlink="http://www.w3.org/1999/xlink" xmlns="http://www.w3.org/2000/svg" width="72" height="70" fill="none"><path fill="#48639E" stroke="#48639E" stroke-width=".6" d="M1 69.548h70v-.656h-5.66V58.236h-4.5v-6.678h-4.78l-.12-.342c-2.72-7.9-10.92-13.42-19.944-13.42-9.023 0-17.215 5.52-19.937 13.42l-.118.341h-4.78v6.679H6.659v10.656H1v.656Zm28.611-.698h-1.716V55.59h1.716V68.85Zm12.15 0H30.267v-2.84h11.466l.028 2.84Zm0-3.545H30.267v-2.84h11.466l.028 2.84Zm0-3.538H30.267v-2.861h11.466l.028 2.86Zm2.344 7.125h-1.688v-13.26h1.688v13.26Zm20.552 0H44.789V66.01h19.868v2.882Zm0-3.545H44.789v-2.882h19.868v2.882Zm0-6.4v2.862H44.789v-2.861h19.868Zm-52.813-6.706h17.23v-.697H16.631l.266-.698c2.84-7.383 10.516-12.359 19.1-12.359 8.583 0 16.266 4.976 19.106 12.387l.265.697H42.92v.698h17.237v5.995H44.803v-3.37h-3.07v3.342H30.267v-3.343h-3.056v3.343H11.858l-.014-5.995Zm-4.5 6.679H27.21v2.86H7.343v-2.86Zm0 3.545H27.21v2.854H7.343v-2.854Zm0 3.545H27.21v2.882H7.343V66.01Z"/><path fill="#24A7D0" d="M17.118 53.644h-1.025v3.189h1.025v-3.19ZM22.576 53.644H21.55v3.189h1.026v-3.19ZM50.276 53.644H49.25v3.189h1.026v-3.19ZM56.368 53.644h-1.026v3.189h1.026v-3.19ZM36.171 34.698h5.108V34H30.672v.698h4.815v2.38H25.76v.697h2.638v3.008H25.76v.698h2.638v2.987H25.76v.697h2.638v9.77h.698v-9.77h13.824v9.77h.698v-9.77h2.296v-.697h-2.31v-3.001h2.296v-.698h-2.296v-3.008h2.296v-.698H36.17v-2.365Zm6.748 9.77H29.081v-3.001h13.838v3Zm0-6.728v3.043H29.081v-3.022l13.838-.02Z"/><path stroke="#24A7D0" stroke-width=".6" d="M17.118 53.644h-1.025v3.189h1.025v-3.19ZM22.576 53.644H21.55v3.189h1.026v-3.19ZM50.276 53.644H49.25v3.189h1.026v-3.19ZM56.368 53.644h-1.026v3.189h1.026v-3.19ZM36.171 34.698h5.108V34H30.672v.698h4.815v2.38H25.76v.697h2.638v3.008H25.76v.698h2.638v2.987H25.76v.697h2.638v9.77h.698v-9.77h13.824v9.77h.698v-9.77h2.296v-.697h-2.31v-3.001h2.296v-.698h-2.296v-3.008h2.296v-.698H36.17v-2.365Zm6.748 9.77H29.081v-3.001h13.838v3Zm0-6.728v3.043H29.081v-3.022l13.838-.02Z"/></svg>