<svg xmlns:xlink="http://www.w3.org/1999/xlink" xmlns="http://www.w3.org/2000/svg" width="70" height="71" fill="none"><path fill="#48639E" d="M50.76 40.118v-4.347l-8.14-8.06H28.36l-8.134 8.06v4.347l-4.067 6.185v15.48h.78v-2.181h11.312v2.18h.78v-2.18h4.183v-.782h-4.184V47.092h12.934V58.82H37.96v.782h4.005v2.18h.779v-2.18h11.328v2.18h.78v-15.48l-4.091-6.184Zm3.117 6.185H42.48l-3.943-5.676h11.64l3.701 5.676ZM33.036 31.127h4.87l2.968 4.418H30.099l2.937-4.418Zm16.361 4.418H41.84l-2.969-4.418h6.093l4.433 4.418Zm.561 4.3H42.02v-3.518h7.963l-.024 3.518Zm-20.818-4.3h-7.573l4.457-4.418h6.093l-2.977 4.418Zm-.179.782v3.518h-7.954v-3.518h7.954Zm.78 0H41.24v3.518H29.756l-.016-3.518Zm3.653 4.3h4.169l3.95 5.676H29.468l3.7-5.34.226-.336Zm-4.698-12.134H42.3l1.87 1.853H26.802l1.893-1.853Zm-7.869 12.134h11.64l-3.95 5.676H17.095l3.732-5.676Zm-3.895 10.445h5.36v7.748H16.94l-.008-7.748Zm6.14 7.748v-7.748h5.172v7.748h-5.173Zm5.172-8.53H16.94v-3.206h11.312l-.008 3.206Zm25.828-3.206v3.206H42.744v-3.206h11.328Zm-11.305 3.988h5.345v7.748h-5.368l.023-7.748Zm6.124 7.748v-7.748h5.181v7.748h-5.181ZM40.048 24.357c0-.11-.78-2.541-4.534-2.346-3.771-.195-4.511 2.252-4.543 2.346v3.354h.78v-3.128c.085-.336.825-1.907 3.622-1.79h.187c2.883-.125 3.6 1.462 3.709 1.751v3.167h.78v-3.354Z"/><path fill="#48639E" d="M57.82 61.392H13.168A1.175 1.175 0 0 0 12 62.572v6.255A1.175 1.175 0 0 0 13.169 70h44.65a1.175 1.175 0 0 0 1.177-1.173v-6.254a1.19 1.19 0 0 0-1.177-1.181Zm-17.616.782v7.036h-8.835v-7.036h8.835Zm-27.425 6.63v-6.255a.4.4 0 0 1 .39-.399h17.42v7.037H13.17a.397.397 0 0 1-.39-.383Zm45.438 0a.4.4 0 0 1-.398.39H40.983v-7.036H57.82a.397.397 0 0 1 .397.399v6.247Z"/><path stroke="#48639E" stroke-width=".4" d="M50.76 40.118v-4.347l-8.14-8.06H28.36l-8.134 8.06v4.347l-4.067 6.185v15.48h.78v-2.181h11.312v2.18h.78v-2.18h4.183v-.782h-4.184V47.092h12.934V58.82H37.96v.782h4.005v2.18h.779v-2.18h11.328v2.18h.78v-15.48l-4.091-6.184Zm3.117 6.185H42.48l-3.943-5.676h11.64l3.701 5.676ZM33.036 31.127h4.87l2.968 4.418H30.099l2.937-4.418Zm16.361 4.418H41.84l-2.969-4.418h6.093l4.433 4.418Zm.561 4.3H42.02v-3.518h7.963l-.024 3.518Zm-20.818-4.3h-7.573l4.457-4.418h6.093l-2.977 4.418Zm-.179.782v3.518h-7.954v-3.518h7.954Zm.78 0H41.24v3.518H29.756l-.016-3.518Zm3.653 4.3h4.169l3.95 5.676H29.468l3.7-5.34.226-.336Zm-4.698-12.134H42.3l1.87 1.853H26.802l1.893-1.853Zm-7.869 12.134h11.64l-3.95 5.676H17.095l3.732-5.676Zm-3.895 10.445h5.36v7.748H16.94l-.008-7.748Zm6.14 7.748v-7.748h5.172v7.748h-5.173Zm5.172-8.53H16.94v-3.206h11.312l-.008 3.206Zm25.828-3.206v3.206H42.744v-3.206h11.328Zm-11.305 3.988h5.345v7.748h-5.368l.023-7.748Zm6.124 7.748v-7.748h5.181v7.748h-5.181ZM40.048 24.357c0-.11-.78-2.541-4.534-2.346-3.771-.195-4.511 2.252-4.543 2.346v3.354h.78v-3.128c.085-.336.825-1.907 3.622-1.79h.187c2.883-.125 3.6 1.462 3.709 1.751v3.167h.78v-3.354Z"/><path stroke="#48639E" stroke-width=".4" d="M57.82 61.392H13.168A1.175 1.175 0 0 0 12 62.572v6.255A1.175 1.175 0 0 0 13.169 70h44.65a1.175 1.175 0 0 0 1.177-1.173v-6.254a1.19 1.19 0 0 0-1.177-1.181Zm-17.616.782v7.036h-8.835v-7.036h8.835Zm-27.425 6.63v-6.255a.4.4 0 0 1 .39-.399h17.42v7.037H13.17a.397.397 0 0 1-.39-.383Zm45.438 0a.4.4 0 0 1-.398.39H40.983v-7.036H57.82a.397.397 0 0 1 .397.399v6.247Z"/><path fill="#24A7D0" d="M36.55 49.829h-2.112l-1.542 3.19v9.1h.779v-8.905l1.246-2.58h1.146l1.246 2.58v8.905h.78v-9.1l-1.543-3.19ZM16.55 63.393h-.779v4.762h.78v-4.762ZM22.004 63.393h-.78v4.762h.78v-4.762ZM27.458 63.393h-.78v4.762h.78v-4.762ZM44.917 63.393h-.779v4.762h.78v-4.762ZM50.371 63.393h-.779v4.762h.78v-4.762ZM55.825 63.393h-.779v4.762h.78v-4.762Z"/><path stroke="#24A7D0" stroke-width=".4" d="M36.55 49.829h-2.112l-1.542 3.19v9.1h.779v-8.905l1.246-2.58h1.146l1.246 2.58v8.905h.78v-9.1l-1.543-3.19ZM16.55 63.393h-.779v4.762h.78v-4.762ZM22.004 63.393h-.78v4.762h.78v-4.762ZM27.458 63.393h-.78v4.762h.78v-4.762ZM44.917 63.393h-.779v4.762h.78v-4.762ZM50.371 63.393h-.779v4.762h.78v-4.762ZM55.825 63.393h-.779v4.762h.78v-4.762Z"/></svg>