<svg xmlns:xlink="http://www.w3.org/1999/xlink" xmlns="http://www.w3.org/2000/svg" width="70" height="71" fill="none"><path fill="#24A7D0" d="M29.931 45.88a1.414 1.414 0 1 0-.017 2.827 1.414 1.414 0 0 0 .017-2.827Zm.686 1.414a.686.686 0 1 1-.686-.685.686.686 0 0 1 .686.685ZM34.714 45.88a1.414 1.414 0 1 0 1.415 1.414 1.423 1.423 0 0 0-1.415-1.414Zm.686 1.414a.686.686 0 1 1-.686-.685.686.686 0 0 1 .686.685ZM39.506 45.88a1.414 1.414 0 1 0-.017 2.827 1.414 1.414 0 0 0 .017-2.827Zm.685 1.414a.686.686 0 1 1-1.37 0 .686.686 0 1 1 1.37 0ZM20.777 53.714a1.414 1.414 0 1 0-.017 2.828 1.414 1.414 0 0 0 .017-2.828Zm.686 1.414a.686.686 0 0 1-.686.686.686.686 0 0 1-.686-.686.686.686 0 0 1 .686-.685.686.686 0 0 1 .686.685ZM48.66 53.714a1.414 1.414 0 1 0 1.414 1.414 1.423 1.423 0 0 0-1.414-1.414Zm.686 1.414a.686.686 0 0 1-.686.686.686.686 0 0 1-.686-.686.686.686 0 0 1 .686-.685.686.686 0 0 1 .686.685Z"/><path fill="#48639E" stroke="#48639E" stroke-width=".6" d="M60.429 69.331H52.13V51.057l2.203-1.517h-2.203v-4.491h1.86v-.703h-1.894v-5.58h.712v-4.38h-.952v-4.672h-.806V25.06h-.454a1.988 1.988 0 0 0-1.611-1.611V22h-.703v1.449a1.989 1.989 0 0 0-1.569 1.611h-.463v4.654h-.822v4.663h-.943v4.38h.711v1.466h-1.491v-3.729h-.6v-4.483h-.317v-2.854a1.628 1.628 0 0 0-1.286-1.577v-.857H40.8v.857a1.637 1.637 0 0 0-1.286 1.577v2.854h-.317v4.483h-.591v3.737h-7.852v-3.737h-.6v-4.483h-.317v-2.854a1.628 1.628 0 0 0-1.286-1.577v-.857h-.694v.857a1.637 1.637 0 0 0-1.286 1.577v2.854h-.317v4.483h-.591v3.737h-1.457v-1.465h.711v-4.38h-.943v-4.672h-.805V25.06h-.455a1.989 1.989 0 0 0-1.611-1.611V22H20.4v1.449a1.988 1.988 0 0 0-1.603 1.611h-.463v4.654h-.763v4.663h-.985v4.38h.711v5.58h-2.203v.703h2.212v4.491h-2.203l2.203 1.526v18.274H9V70h51.429v-.669ZM18.009 51.7v-1.414h5.494v1.457l-5.494-.043Zm5.494.703v16.894h-5.494V52.403h5.494Zm-5.494-2.863v-4.491h5.494v4.491h-5.494Zm5.485-5.254H18v-5.52h5.494v5.52Zm4.689 25.037v-10.38a6.54 6.54 0 1 1 13.08 0v10.354l-13.08.026ZM46.003 51.7v-1.414h5.426v1.457l-5.426-.043Zm5.426.703v16.894h-5.426V52.403h5.426Zm-5.426-2.863v-4.491h5.426v4.491h-5.426Zm5.391-5.254H45.9v-5.529h5.494v5.529ZM48.651 24.09a1.311 1.311 0 0 1 1.269.969h-2.571a1.311 1.311 0 0 1 1.26-.969h.042Zm-1.714 1.663h3.429v3.96h-3.429v-3.96Zm-.797 4.663h5.031v3.969H46.14v-3.969Zm-.943 7.646v-2.974h6.909v2.974h-6.909Zm-4.971-8.906a.944.944 0 0 1 1.32-.952.945.945 0 0 1 .557.952v2.846h-1.877v-2.846Zm-.317 3.549h2.52v3.788h-2.52v-3.788Zm-.592 4.491h3.694v3.026H39.31l.008-3.026Zm-12-8.04a.934.934 0 0 1 1.869 0v2.846h-1.912l.043-2.846ZM27 32.706h2.511v3.788H27v-3.788Zm-.591 4.491h3.694v3.026h-3.737l.043-3.026Zm-2.152 3.729h20.949v3.428H24.214l.043-3.428Zm0 4.114H45.31v4.5H24.214l.043-4.5Zm0 5.194H45.31v19.063h-3.343V58.934a7.243 7.243 0 0 0-14.486 0v10.363h-3.274l.051-19.063ZM20.83 24.091a1.312 1.312 0 0 1 1.268.96h-2.606a1.312 1.312 0 0 1 1.26-.96h.078Zm-1.715 1.663h3.429v3.96h-3.429v-3.96Zm-.797 4.663h5.032v3.96H18.24l.077-3.96Zm-.943 7.637V35.08h6.909v2.974h-6.909Z"/></svg>