<svg xmlns:xlink="http://www.w3.org/1999/xlink" xmlns="http://www.w3.org/2000/svg" width="70" height="71" fill="none"><path fill="#48639E" stroke="#48639E" stroke-width=".2" d="m53.384 69.019-.883-.393-3.63-1.962v-2.158h-.687V54.008l-6.181-29.433a2.735 2.735 0 0 0 .098-2.355l-.098-.196h-.196c-.59-.098-1.178.098-1.276.687-.098.392-.49 1.275-.883 1.275h-8.437c-.393.098-.883-.883-.883-1.275-.098-.589-.687-.785-1.276-.687h-.196l-.098.196a2.438 2.438 0 0 0 .098 2.355L22.773 53.91v10.498h-.686v2.158l-3.63 1.962-1.178.49H11V70h48.957v-.981h-6.573Zm-10.498-35.32h-15.11l.786-3.924H42.1l.785 3.924Zm.196.981.785 3.925h-17.17l.786-3.925h15.599Zm1.08 5.004.784 3.924h-19.23l.785-3.924h17.66Zm.98 4.905.785 3.925h-21.29l.785-3.925h19.72Zm1.08 5.004.785 3.924h-23.35l.784-3.924h21.78ZM29.64 24.281a2.453 2.453 0 0 1-.294-1.276c.196.589.883 1.962 1.962 1.962h8.143c1.08.099 1.766-1.275 1.962-1.962.032.445-.07.89-.294 1.276l-.098.196.883 4.317H28.758l.883-4.317v-.196Zm-6.868 41.206h.687V54.499h23.645v10.988h.686v.981h-1.079l-4.317-2.453h-1.864v-8.928H29.935v8.928h-1.668l-4.415 2.453h-1.079v-.981Zm12.068 1.08-9.026-.099 2.649-1.472H42.1l2.649 1.472-8.928.098h-.981Zm4.71-2.552h-8.635v-7.947h8.634v7.947Zm-1.276 5.004h-18.74l2.846-1.472h.49l11.97.098h.98l11.97-.098h.393l2.845 1.472H38.275Z"/><path fill="#4FB8DD" d="M35.429 50.084a1.339 1.339 0 0 0-1.374 1.373 1.373 1.373 0 1 0 1.374-1.373Zm.686 1.471a.55.55 0 0 1-.588.49.589.589 0 0 1 0-1.177.512.512 0 0 1 .392.197c.098.196.196.294.196.49ZM35.429 45.178a1.339 1.339 0 0 0-1.374 1.374 1.373 1.373 0 1 0 1.374-1.374Zm.686 1.472a.55.55 0 0 1-.588.49.589.589 0 1 1 0-1.177.51.51 0 0 1 .392.197.75.75 0 0 1 .196.49ZM35.429 40.273a1.342 1.342 0 0 0-1.374 1.373 1.373 1.373 0 1 0 1.374-1.373Zm.686 1.471a.55.55 0 0 1-.588.49.589.589 0 1 1 0-1.177.51.51 0 0 1 .392.197.578.578 0 0 1 .196.49ZM35.429 35.269a1.339 1.339 0 0 0-1.374 1.373 1.373 1.373 0 1 0 1.374-1.373Zm.686 1.57a.55.55 0 0 1-.588.49.589.589 0 0 1 0-1.177.512.512 0 0 1 .392.196.577.577 0 0 1 .196.49ZM35.429 30.364a1.339 1.339 0 0 0-1.374 1.373 1.373 1.373 0 1 0 1.374-1.373Zm.686 1.471a.55.55 0 0 1-.588.49.589.589 0 1 1 0-1.176.51.51 0 0 1 .392.196.75.75 0 0 1 .196.49ZM35.428 28.303a1.374 1.374 0 1 0 0-2.747 1.374 1.374 0 0 0 0 2.747Zm0-2.06a.51.51 0 0 1 .393.196.744.744 0 0 1 .196.392v.099a.55.55 0 0 1-.589.49.633.633 0 0 1-.588-.589.632.632 0 0 1 .588-.588ZM27.286 55.48h-.981v6.966h.98V55.48ZM44.063 55.48h-.981v6.966h.981V55.48Z"/></svg>