<svg id="Layer_1" data-name="Layer 1" xmlns="http://www.w3.org/2000/svg" viewBox="0 0 45 45"><defs><style>.cls-2{fill:#48639e}.cls-3{fill:#fff}.cls-4{fill:#24a7d0}</style></defs><path style="fill:none;stroke:#48639e;stroke-miterlimit:10" d="M4.77 38.67h35.46"/><path class="cls-2" d="M23 10.4h.51v-1H23v-.5h-1v.5h-.51v1H22"/><path class="cls-2" d="M37.35 27.1 26 22.19V17a.49.49 0 0 0 .45-.29.49.49 0 0 0 0-.53L23 11.74V10.4h.5v-1H23v-.5h-1v.5h-.51v1H22v1.34l-3.43 4.41a.5.5 0 0 0-.11.3.46.46 0 0 0 .06.23.49.49 0 0 0 .48.32v5.22L7.66 27.1a.51.51 0 0 0-.29.57.5.5 0 0 0 .49.4v10.6A.51.51 0 0 0 8 39a.49.49 0 0 0 .36.15h28.28A.51.51 0 0 0 37 39a.51.51 0 0 0 .15-.36V28.07a.51.51 0 0 0 .2-1ZM26 23.29l8.68 3.77h-3L26 24.71Zm-3.5-10.55L25 16h-5ZM20 17h5v9.84l-2-1.54-.51-.56-.5.56-2 1.51Zm2.52 9.21L25 28.07h-5ZM19 23.29v1.42l-5.65 2.35h-3Zm0 2.51v1.26h-3Zm-1 12.37H8.87v-1H18Zm0-2H8.87v-6.08H18Zm.2-8a.54.54 0 0 0-.2.41v.5H8.87v-1h9.43Zm5.35 10h-2v-4a1 1 0 0 1 2 0Zm2.53 0h-1.56v-4a2 2 0 0 0-3-1.75 2 2 0 0 0-1 1.75v4H19v-9.09h7ZM26 25.8l3 1.26h-3Zm10.1 12.37h-9.05v-1h9.09Zm0-2h-9.05v-6.08h9.09Zm0-7.07h-9.05v-.5a.54.54 0 0 0-.2-.41l-.14-.1h9.43Z"/><path class="cls-3" d="M27.04 35.65h9.09v1.8h-9.09zM8.87 35.65h9.09v1.8H8.87z"/><path class="cls-4" d="M22.5 22a2 2 0 1 0-1.43-.59 2 2 0 0 0 1.43.59Zm0-3a1 1 0 0 1 .71.3 1 1 0 0 1 0 1.43 1 1 0 0 1-1.42 0 1 1 0 0 1 0-1.43 1 1 0 0 1 .71-.3ZM15.43 31.1a1.52 1.52 0 0 0-1.51 1.52v2a.51.51 0 0 0 .5.5h2a.49.49 0 0 0 .38-.12.51.51 0 0 0 .15-.35v-2a1.47 1.47 0 0 0-.45-1.07 1.49 1.49 0 0 0-1.07-.45Zm.51 3h-1v-1.48a.5.5 0 0 1 .5-.51.51.51 0 0 1 .51.51ZM11.39 31.1a1.52 1.52 0 0 0-1.51 1.52v2a.51.51 0 0 0 .5.5h2a.49.49 0 0 0 .36-.15.51.51 0 0 0 .15-.35v-2a1.47 1.47 0 0 0-.45-1.07 1.49 1.49 0 0 0-1.07-.45Zm.51 3h-1v-1.48a.5.5 0 0 1 .5-.51.51.51 0 0 1 .51.51ZM29.57 31.1a1.49 1.49 0 0 0-1.07.45 1.47 1.47 0 0 0-.45 1.07v2a.51.51 0 0 0 .15.35.49.49 0 0 0 .36.15h2a.51.51 0 0 0 .36-.15.5.5 0 0 0 .14-.35v-2a1.52 1.52 0 0 0-1.51-1.52Zm.5 3h-1v-1.48a.51.51 0 0 1 .51-.51.5.5 0 0 1 .5.51ZM33.61 31.1a1.49 1.49 0 0 0-1.07.45 1.47 1.47 0 0 0-.45 1.07v2a.51.51 0 0 0 .15.35.49.49 0 0 0 .36.15h2a.51.51 0 0 0 .5-.5v-2a1.52 1.52 0 0 0-1.51-1.52Zm.5 3h-1v-1.48a.51.51 0 0 1 .51-.51.5.5 0 0 1 .5.51ZM22 30.09h1v1h-1ZM24 30.09h1v1h-1ZM20 30.09h1v1h-1Z"/></svg>