<svg id="Layer_1" data-name="Layer 1" xmlns="http://www.w3.org/2000/svg" viewBox="0 0 45 45"><defs><style>.cls-3{fill:#24a7d0}</style></defs><path style="fill:none;stroke:#48639e;stroke-miterlimit:10" d="M4.77 38.67h35.46"/><path d="m37.14 19.1-4.75-4.74a.36.36 0 0 0-.29-.12h-1.77v-1.79a1.3 1.3 0 0 0 .41-.62H14.66a1.3 1.3 0 0 0 .41.62v1.79h-2a.36.36 0 0 0-.29.12L8 19.17a.41.41 0 0 0-.1.42V29a.59.59 0 0 0 0 .13.68.68 0 0 0 0 .14v9.49a.41.41 0 0 0 .41.4h28.63a.4.4 0 0 0 .4-.4V19.45a.42.42 0 0 0-.2-.35Zm-6.81-4.05h1.61l4 4h-5.6ZM15.08 38.3H8.71v-8.81h6.37Zm0-9.62H8.71v-8.82h6.37Zm0-9.63H9.27l4-4h1.81Zm4.58 19.25h-3.78v-8.81h3.77Zm0-9.62h-3.78v-8.82h3.78Zm0-9.63h-3.78v-6.41h3.78Zm4.83 19.25h-4v-8.81h4Zm0-9.62h-4v-8.82h4Zm0-9.63h-4v-6.41h4Zm5 19.25h-4.2v-8.81h4.2Zm0-9.62h-4.2v-8.82h4.21Zm0-9.63H25.3v-6.41h4.21Zm7 19.25h-6.2v-8.81h6.2Zm0-9.62h-6.2v-8.82h6.21Z" style="fill:#48639e"/><path class="cls-3" d="M18.79 14.21h-2.4a.4.4 0 0 0-.41.4V17a.41.41 0 0 0 .41.41h2.4a.43.43 0 0 0 .41-.41v-2.39a.41.41 0 0 0-.41-.4Zm-.4.81v1.6h-1.6V15ZM21.31 17.43h2.4a.41.41 0 0 0 .41-.41v-2.41a.4.4 0 0 0-.41-.4h-2.4a.42.42 0 0 0-.41.4V17a.43.43 0 0 0 .41.43Zm.4-.81V15h1.6v1.6ZM28.71 14.21H26.3a.41.41 0 0 0-.41.4V17a.42.42 0 0 0 .41.41h2.41a.41.41 0 0 0 .4-.41v-2.39a.4.4 0 0 0-.4-.4Zm-.41.79v1.6h-1.6V15ZM17.59 27.17a.42.42 0 0 0 .41-.41V22a.41.41 0 0 0-.41-.41.41.41 0 0 0-.41.4v4.82a.42.42 0 0 0 .41.36ZM22.5 27.17a.42.42 0 0 0 .41-.41V22a.41.41 0 0 0-.41-.41.41.41 0 0 0-.41.4v4.82a.42.42 0 0 0 .41.36ZM27.51 27.17a.41.41 0 0 0 .4-.41V22a.4.4 0 0 0-.4-.41.4.4 0 0 0-.41.4v4.82a.41.41 0 0 0 .41.36ZM17.59 36.83a.41.41 0 0 0 .41-.41v-4.81a.43.43 0 0 0-.41-.41.41.41 0 0 0-.41.41v4.81a.41.41 0 0 0 .41.41ZM22.5 36.83a.41.41 0 0 0 .41-.41v-4.81a.41.41 0 0 0-.82 0v4.81a.42.42 0 0 0 .41.41ZM27.51 36.83a.4.4 0 0 0 .4-.41v-4.81a.41.41 0 0 0-.4-.41.41.41 0 0 0-.41.41v4.81a.41.41 0 0 0 .41.41Z"/></svg>