<svg id="Layer_1" data-name="Layer 1" xmlns="http://www.w3.org/2000/svg" viewBox="0 0 45 45"><defs><style>.cls-2{fill:#24a7d0}</style></defs><path style="fill:none;stroke:#48639e;stroke-miterlimit:10" d="M4.77 38.67h35.46"/><path class="cls-2" d="M10.89 17.39h1v1.45h-1ZM12.83 17.39h1v1.45h-1ZM14.76 17.39h1v1.45h-1ZM16.7 17.39h1v1.45h-1ZM22.5 17.39h1v1.45h-1ZM25.4 17.39h1v1.45h-1ZM30.72 20.29h1v1.45h-1ZM33.14 20.29h1v1.45h-1Z"/><path d="M36 18.36h-6.73v-.54l-1.05-5.27h-2.33v-2.42H23v2.42h-4.37v-2.42h-2.9v2.42H9l-1 5.27v21.33h29v-16Zm-6.68 1h5.9l.75 3.39h-6.7ZM24 11.1h1v1.45h-1Zm-7.25 0h1v1.45h-1Zm2.9 27.09H9v-5.81h10.6Zm0-6.78H9V20.77h10.6Zm0-13.63v2H9v-1.86l.88-4.4h10.58Zm8.65 20.41h-7.73v-5.81h7.73Zm0-6.78h-7.73V20.77h7.73Zm0-11.6h-7.73v-1.89l.88-4.4h6l.88 4.4ZM36 38.19h-6.73V23.68H36Z" style="fill:#48639e"/><path class="cls-2" d="M16.87 35.28v2.91h-1v-2.91a1 1 0 0 0-1.93 0v2.91H13v-2.91a1.94 1.94 0 0 1 3.87 0ZM26.37 35.28v2.91h-1v-2.91a1 1 0 0 0-1.93 0v2.91h-1v-2.91a1.94 1.94 0 0 1 3.87 0ZM34.59 35.28v2.91h-1v-2.91a1 1 0 0 0-1.93 0v2.91h-1v-2.91a1.94 1.94 0 0 1 3.87 0Z"/></svg>