<svg id="Layer_1" data-name="Layer 1" xmlns="http://www.w3.org/2000/svg" viewBox="0 0 45 45"><defs><style>.cls-2{fill:#24a7d0}</style></defs><path style="fill:none;stroke:#48639e;stroke-miterlimit:10" d="M4.77 38.67h35.46"/><path class="cls-2" d="M15.3 29.69a1.12 1.12 0 0 0-1.12 1.12v2a.38.38 0 0 0 .38.37h1.5a.38.38 0 0 0 .37-.37v-2a1.13 1.13 0 0 0-1.13-1.12Zm.38 2.7h-.75v-1.58a.38.38 0 1 1 .75 0ZM9.74 27.06h1.5a.37.37 0 0 0 .37-.37v-2a1.12 1.12 0 1 0-2.24 0v2a.38.38 0 0 0 .37.37Zm.37-.74v-1.59a.38.38 0 0 1 .76 0v1.59ZM33.76 27.06h1.5a.38.38 0 0 0 .38-.37v-2a1.13 1.13 0 0 0-2.25 0v1.95a.39.39 0 0 0 .11.27.36.36 0 0 0 .26.15Zm.37-.74v-1.59a.38.38 0 0 1 .76 0v1.59ZM22.54 29.69a1.13 1.13 0 0 0-1.13 1.12v2a.38.38 0 0 0 .38.37h1.5a.38.38 0 0 0 .37-.37v-2a1.12 1.12 0 0 0-1.12-1.12Zm0 .74a.38.38 0 0 1 .37.38v1.58h-.75v-1.58a.38.38 0 0 1 .38-.38ZM29.71 29.69a1.12 1.12 0 0 0-1.12 1.12v2a.38.38 0 0 0 .38.37h1.5a.38.38 0 0 0 .37-.37v-2a1.13 1.13 0 0 0-1.13-1.12Zm.38 1.12v1.58h-.75v-1.58a.38.38 0 1 1 .75 0ZM15.31 23.61a1.12 1.12 0 0 0-1.12 1.12v1.95a.34.34 0 0 0 .1.27.39.39 0 0 0 .27.11h1.5a.38.38 0 0 0 .37-.37v-2a1.12 1.12 0 0 0-1.12-1.08Zm.37 1.12v1.59h-.75v-1.59a.38.38 0 1 1 .75 0Z"/><path d="M37.62 17.7a.39.39 0 0 0-.27-.11h-.5a3 3 0 0 0-.66-1.54l-1.09-1.33a.87.87 0 0 0 .26-.6.85.85 0 0 0-.47-.76v-1.14a.38.38 0 0 0-.75 0v1.14a.83.83 0 0 0-.47.76.86.86 0 0 0 .25.6l-1.09 1.33a3 3 0 0 0-.66 1.54h-.5a.36.36 0 0 0-.37.37v1.19a.37.37 0 0 0 .37.37h.48v2.73h-4.86v-1.62a.38.38 0 0 0-.38-.38h-1.6a.38.38 0 0 0-.37.38v1.62h-4.86v-1.62a.38.38 0 0 0-.37-.38h-1.6a.38.38 0 0 0-.38.38v1.62h-4.88v-2.73h.48a.37.37 0 0 0 .37-.37V18a.36.36 0 0 0-.37-.37h-.5a3 3 0 0 0-.66-1.54l-1.09-1.33a.86.86 0 0 0 .25-.6.83.83 0 0 0-.47-.76v-1.18a.38.38 0 0 0-.75 0v1.14a.85.85 0 0 0-.47.76.87.87 0 0 0 .26.6l-1.09 1.33a3.1 3.1 0 0 0-.67 1.54h-.49a.37.37 0 0 0-.37.37v1.19a.38.38 0 0 0 .37.37h.48v19.14a.38.38 0 0 0 .37.34h28.02a.38.38 0 0 0 .37-.37V19.51h.48a.37.37 0 0 0 .37-.37V18a.35.35 0 0 0-.12-.3Zm-1.49 1.81v18.77h-3.24V19.51ZM29.08 36a.63.63 0 0 1 .63-.62.63.63 0 0 1 .63.62v2.24h-1.26Zm.63-1.37A1.37 1.37 0 0 0 28.34 36v2.24h-1.06v-7.62a2.43 2.43 0 1 1 4.86 0v7.63h-1.06V36a1.37 1.37 0 0 0-1.37-1.35Zm2.43-6.06a3.17 3.17 0 0 0-4.86 0V23h4.86Zm2.37-14.38a.1.1 0 0 1-.1-.09.1.1 0 0 1 .1-.1.09.09 0 0 1 .1.1.09.09 0 0 1-.1.11Zm-1.1 2.31 1.1-1.35 1.1 1.35a2.3 2.3 0 0 1 .49 1.06h-3.17a2.28 2.28 0 0 1 .48-1.04ZM37 18.33v.44h-4.95v-.44H37ZM26.54 21v17.26h-.86V21Zm-4.63 15a.63.63 0 0 1 1.25 0v2.24h-1.25Zm-1.83-7.43V23h4.86v5.59a3.16 3.16 0 0 0-4.86 0Zm2.46 6.06A1.38 1.38 0 0 0 21.16 36v2.24h-1.08v-7.62a2.43 2.43 0 0 1 4.86 0v7.64h-1V36a1.38 1.38 0 0 0-1.4-1.35ZM19.34 21v17.26h-.86V21Zm-4.66 15a.63.63 0 0 1 1.25 0v2.24h-1.25Zm.63-8.57a3.17 3.17 0 0 0-2.43 1.13V23h4.86v5.59a3.17 3.17 0 0 0-2.43-1.14Zm0 7.2A1.38 1.38 0 0 0 13.93 36v2.24h-1V30.6a2.43 2.43 0 0 1 4.86 0v7.64h-1.11V36a1.38 1.38 0 0 0-1.37-1.35Zm-3.2 3.63H8.87V19.51h3.24Zm-1.62-24.04a.11.11 0 0 1-.1-.1.1.1 0 0 1 .1-.1.09.09 0 0 1 .1.1.1.1 0 0 1-.1.1Zm0 1 1.1 1.34a2.23 2.23 0 0 1 .48 1.06H8.9a2.34 2.34 0 0 1 .49-1.06ZM13 18.33v.44H8v-.44h5Z" style="fill:#48639e"/><path class="cls-2" d="M22.54 23.61a1.13 1.13 0 0 0-1.13 1.12v2a.38.38 0 0 0 .37.37h1.5a.38.38 0 0 0 .38-.37v-2a1.12 1.12 0 0 0-1.12-1.12Zm.37 1.12v1.59h-.75v-1.59a.38.38 0 1 1 .75 0ZM29 27.06h1.5a.38.38 0 0 0 .38-.37v-2a1.13 1.13 0 0 0-2.25 0v1.95a.39.39 0 0 0 .11.27.36.36 0 0 0 .26.15Zm.38-.74v-1.59a.38.38 0 1 1 .75 0v1.59Z"/></svg>