<svg id="Layer_1" data-name="Layer 1" xmlns="http://www.w3.org/2000/svg" viewBox="0 0 45 45"><defs><style>.cls-2{fill:#24a7d0}</style></defs><path style="fill:none;stroke:#48639e;stroke-miterlimit:10" d="M4.77 38.67h35.46"/><path class="cls-2" d="M26.63 22.58a.49.49 0 0 1 .5.49v13.44a.49.49 0 0 1-.5.49.5.5 0 0 1-.35-.14.52.52 0 0 1-.14-.35V23.07a.52.52 0 0 1 .14-.35.5.5 0 0 1 .35-.14ZM22.5 22.58a.49.49 0 0 1 .49.49v13.44a.49.49 0 0 1-.49.49.48.48 0 0 1-.35-.14.44.44 0 0 1-.14-.35V23.07a.44.44 0 0 1 .14-.35.48.48 0 0 1 .35-.14ZM12.7 36.25a.5.5 0 0 1 .5.5v.48a.53.53 0 0 1-.1.42.51.51 0 0 1-.78 0 .53.53 0 0 1-.1-.42v-.48a.5.5 0 0 1 .5-.5ZM14.66 36.25a.49.49 0 0 1 .49.5v.48a.49.49 0 0 1-.1.42.5.5 0 0 1-.77 0 .53.53 0 0 1-.1-.42v-.48a.5.5 0 0 1 .5-.5ZM16.61 36.25a.5.5 0 0 1 .5.5v.48a.5.5 0 0 1-.85.36.52.52 0 0 1-.14-.36v-.48a.52.52 0 0 1 .14-.36.5.5 0 0 1 .35-.14ZM18.57 36.25a.52.52 0 0 1 .35.14.47.47 0 0 1 .13.36v.48a.47.47 0 0 1-.13.36.52.52 0 0 1-.35.14.5.5 0 0 1-.5-.5v-.48a.5.5 0 0 1 .5-.5ZM30.48 36.25a.5.5 0 0 1 .5.5v.48a.5.5 0 0 1-1 0v-.48a.5.5 0 0 1 .5-.5ZM32.44 36.25a.5.5 0 0 1 .5.5v.48a.5.5 0 0 1-.49.4.49.49 0 0 1-.49-.4v-.48a.5.5 0 0 1 .5-.5Z"/><path d="M38 38.18h-1v-9.43a.5.5 0 0 0 0-1v-.5a1.46 1.46 0 0 0-.27-.85 1.52 1.52 0 0 0-.7-.55v-.58a.53.53 0 0 0-.11-.42.49.49 0 0 0-.38-.18.53.53 0 0 0-.39.18.53.53 0 0 0-.1.42v.63a1.49 1.49 0 0 0-.71.55 1.53 1.53 0 0 0-.27.85v.5a.5.5 0 0 0 0 1v4.45l-.8-1.25a.48.48 0 0 0-.42-.23h-3.77V20.31h1a.5.5 0 0 0 .44-.5v-1a.53.53 0 0 0-.1-.42.53.53 0 0 0-.39-.18.51.51 0 0 0-.5.5.34.34 0 0 0 0 .1v.5h-1.46v-1a.5.5 0 0 0-.5-.5h-.5v-3.42h.5a.49.49 0 0 0 .41-.1.5.5 0 0 0 0-.78.49.49 0 0 0-.41-.1h-.52l-1.62-1.95a1 1 0 0 0-.34-1.4V7.94a.5.5 0 1 0-1 0v2.12a1 1 0 0 0-.49.86V11a.94.94 0 0 0 .2.47l-1.64 1.95h-.52a.5.5 0 0 0 0 1h.48V18h-.49a.48.48 0 0 0-.35.14.45.45 0 0 0-.14.33v1h-1.5v-.5a.49.49 0 0 0-.5-.49.48.48 0 0 0-.49.49v1a.5.5 0 0 0 .14.35.49.49 0 0 0 .35.15h1v11.32h-9v-2.11a.5.5 0 0 0 0-1v-.5a1.46 1.46 0 0 0-.27-.85 1.52 1.52 0 0 0-.7-.55v-.58a.53.53 0 0 0-.11-.42.49.49 0 0 0-.38-.18.53.53 0 0 0-.39.18.53.53 0 0 0-.1.42v.63a1.49 1.49 0 0 0-.71.55 1.53 1.53 0 0 0-.27.85v.5a.5.5 0 0 0 0 1V38.2h-1a.51.51 0 0 0-.6.49.53.53 0 0 0 .18.39.53.53 0 0 0 .42.1H38a.5.5 0 0 0 0-1Zm-27.74-6.8v6.85h-1v-8.5h1Zm0-2.65h-1v-.5a.48.48 0 0 1 .49-.49.49.49 0 0 1 .34.14.51.51 0 0 1 .15.35Zm.91 4h9v1.57h-9Zm9 5.41h-9v-2.9h9Zm8.88-5.4h3.45l1 1.49h-4.42ZM24.59 12l1.2 1.4h-2.34Zm-1.45 2.43h1v1.45a.53.53 0 0 0 .1.42.53.53 0 0 0 .39.18.51.51 0 0 0 .49-.6V14.4h1v3.5h-2.98Zm-1 4.47h5v.49h-5Zm1.92 19.28h-2.88V20.4h2.87Zm4.05 0h-3V20.31h3Zm5.95 0h-5v-3h5Zm1-10.93a.48.48 0 0 1 .49-.49.49.49 0 0 1 .34.14.51.51 0 0 1 .15.35v.5h-1Zm1 10.93H35V28.8h1v9.43Z" style="fill:#48639e"/></svg>