<svg id="Layer_1" data-name="Layer 1" xmlns="http://www.w3.org/2000/svg" viewBox="0 0 45 45"><defs><style>.cls-2{fill:#24a7d0}</style></defs><path style="fill:none;stroke:#48639e;stroke-miterlimit:10" d="M4.77 38.67h35.46"/><path class="cls-2" d="M10.17 19.7h.95v1.42h-.95ZM12.06 19.7H13v1.42h-.95ZM10.64 27.29h.95v1.42h-.95ZM10.64 29.66h.95v.95h-.95ZM16.33 33.45h1v3.8h-1ZM16.33 27.29h1v3.32h-1ZM21.55 22.55h.95v1.89h-.95ZM23.45 22.55h.95v1.89h-.95ZM21.55 27.29h.95v3.32h-.95ZM23.45 27.29h.95v3.32h-.95ZM30.56 27.29h1v3.32h-1ZM30.56 33.45h1v3.8h-1Z"/><path d="M36.25 38.19V23.37l-3.79-6.64v-2.06l-.95-.48v-1.6h-1v1.6l-.95.48v2.06l-2 3.44H17.28l-1 .36L14.43 24v-1.34l.48-.94v-3.56l-1-1.78-.52-.95-1.36-2.49v-2.25h-1v2.25l-1.28 2.49-.52.95-1 1.78v3.55l.47.95v15.53h-.43v1h28.46v-1Zm-5.69-22.94L31 15l.48.24v1.13h-1Zm-.2 2.08h1.34L35 23h-2.13l-1.36-2.49v-1.3h-1v1.3L29.2 23h-2.09Zm2.72 8.06H29l2-3.75ZM16.8 21.64l2.05 3.75h-4.09Zm-5.21-7.59 2 3.75H9.54Zm1.89 24.14H9.69V32.5h3.79Zm0-6.63H9.69v-5.22h3.79Zm0-6.17H9.69V23h3.79Zm.52-3.91-.29.59h-4.2l-.3-.59v-2.73H14Zm5.22 16.71h-4.79V32.5h4.75Zm0-6.63h-4.79v-5.22h4.75Zm4.74 6.63H22v-2.84a.95.95 0 0 1 1.9 0Zm1.9 0h-.95v-2.84a1.9 1.9 0 0 0-3.8 0v2.84h-.95V32.5h5.7Zm0-6.63h-5.7v-5.22h5.7Zm0-6.17h-5.93l-2.33-4.27h9.5l-1.28 2.25Zm1.89 12.8h-.94V32.5h.94Zm0-6.63h-.94V24h1.91l-1 1.78Zm5.7 6.63h-4.79V32.5h4.75Zm0-6.63h-4.79v-5.22h4.75Zm1.89 6.63h-.94V32.5h.94Zm0-6.63h-.94v-5.81l-1-1.78h1.9Z" style="fill:#48639e"/></svg>