<svg id="Layer_1" data-name="Layer 1" xmlns="http://www.w3.org/2000/svg" viewBox="0 0 45 45"><defs><style>.cls-2{fill:#24a7d0}</style></defs><path style="fill:none;stroke:#48639e;stroke-miterlimit:10" d="M4.78 38.67H40.23"/><path class="cls-2" d="M26.6 36.73a.51.51 0 0 0 .51-.51v-3.33a.51.51 0 0 0-.51-.51.5.5 0 0 0-.5.51v3.33a.5.5 0 0 0 .5.51ZM18.4 36.73a.5.5 0 0 0 .5-.51v-3.33a.5.5 0 0 0-.5-.51.51.51 0 0 0-.51.51v3.33a.51.51 0 0 0 .51.51ZM26.6 30.36a.51.51 0 0 0 .51-.51V29a.51.51 0 0 0-.51-.51.5.5 0 0 0-.5.51v.84a.5.5 0 0 0 .5.52ZM24.55 30.36a.51.51 0 0 0 .51-.51V29a.51.51 0 0 0-1 0v.84a.51.51 0 0 0 .49.52ZM22.5 30.36a.51.51 0 0 0 .51-.51V29a.51.51 0 0 0-1 0v.84a.51.51 0 0 0 .49.52ZM20.45 30.36a.5.5 0 0 0 .5-.51V29a.5.5 0 0 0-.5-.51.51.51 0 0 0-.51.51v.84a.51.51 0 0 0 .51.52ZM18.4 30.36a.5.5 0 0 0 .5-.51V29a.5.5 0 0 0-.5-.51.51.51 0 0 0-.51.51v.84a.51.51 0 0 0 .51.52ZM31 35.11a.51.51 0 0 0-.51.51v.9a.51.51 0 0 0 1 0v-.9a.51.51 0 0 0-.49-.51ZM31 31.93a.51.51 0 0 0-.51.51v.9a.51.51 0 0 0 1 0v-.9a.51.51 0 0 0-.49-.51ZM31 28.75a.51.51 0 0 0-.51.51v.9a.51.51 0 1 0 1 0v-.9a.51.51 0 0 0-.49-.51ZM31 25.57a.51.51 0 0 0-.51.51V27a.51.51 0 0 0 1 0v-.9a.51.51 0 0 0-.49-.53ZM14 35.11a.5.5 0 0 0-.5.51v.9a.5.5 0 0 0 .5.5.5.5 0 0 0 .51-.5v-.9a.51.51 0 0 0-.51-.51ZM14 31.93a.5.5 0 0 0-.5.51v.9a.5.5 0 0 0 .5.5.5.5 0 0 0 .51-.5v-.9a.51.51 0 0 0-.51-.51ZM14 28.75a.5.5 0 0 0-.5.51v.9a.5.5 0 0 0 .5.51.51.51 0 0 0 .51-.51v-.9a.51.51 0 0 0-.51-.51ZM14 25.57a.5.5 0 0 0-.5.51V27a.5.5 0 0 0 .5.51.51.51 0 0 0 .51-.51v-.9a.51.51 0 0 0-.51-.53Z"/><path d="M38.17 38.15h-2.61V27.07a.51.51 0 0 0-.15-.36.51.51 0 0 0-.36-.15H33.6v-3c0-.25 0 0-2.09-6.2A.51.51 0 0 0 31 17a.5.5 0 0 0-.48.34c-2.15 6.23-2.13 6-2.1 6.19v3h-.52v-1.4a5.36 5.36 0 0 0-3.18-4.91l-1.74-5a.5.5 0 0 0-1 0l-1.73 5a5.36 5.36 0 0 0-3.19 4.91v1.4h-.55v-3c0-.24 0 0-2.1-6.19A.5.5 0 0 0 14 17a.51.51 0 0 0-.48.34c-2.14 6.24-2.13 6-2.09 6.2v3H9.94a.51.51 0 0 0-.51.51v11.1h-2.6a.51.51 0 1 0 0 1h31.34a.51.51 0 0 0 0-1Zm-3.61-10.57v10.57h-.96V27.58ZM12.42 38.15V24h3.11v14.2Zm11.5 0h-3.16v-3.6a1.58 1.58 0 1 1 3.16 0Zm5.55 0V24h3.11v14.2ZM31 19l1.35 3.9h-2.68Zm-4.15 6.12v1.4h-2.12v-1.4a10.38 10.38 0 0 0-.73-4.1 4.34 4.34 0 0 1 2.88 4.14Zm-5.6 0c0-2.87.85-4.36 1.21-4.38.75.06 1.21 2.84 1.21 4.38v1.4h-2.39ZM22.5 17l1 2.89a5.66 5.66 0 0 0-1-.09 5.47 5.47 0 0 0-1 .09Zm-4.38 8.19A4.34 4.34 0 0 1 21 21.05a10.27 10.27 0 0 0-.74 4.11v1.4h-2.14Zm10.33 2.42v10.54h-3.51v-3.6a2.6 2.6 0 1 0-5.19 0v3.6h-3.2V27.58ZM14 19l1.36 3.9h-2.74Zm-3.52 8.54h1v10.61h-1Z" style="fill:#48639e"/></svg>