<svg id="Layer_1" data-name="Layer 1" xmlns="http://www.w3.org/2000/svg" viewBox="0 0 45 45"><defs><style>.cls-2{fill:#24a7d0}</style></defs><path style="fill:none;stroke:#48639e;stroke-miterlimit:10" d="M4.77 38.67h35.46"/><path class="cls-2" d="M22.5 23.11a3.11 3.11 0 1 0 3.11 3.1 3.11 3.11 0 0 0-3.11-3.1Zm0 5.32a2.22 2.22 0 1 1 2.22-2.22 2.23 2.23 0 0 1-2.22 2.22Z"/><path class="cls-2" d="M22.94 24.88h-.88v1.51l.57.58.63-.63-.32-.34ZM11.41 32v5.3H15V32Zm2.66 4.43H12.3v-3.56h1.77ZM33.59 37.3V32H30v5.3Zm-2.66-4.43h1.77v3.54h-1.77Z"/><path d="m36.25 28.62-8.87-5.32v-1.66L25.61 19v-2.11h.88v-.44a1.87 1.87 0 0 0-1-1.68l-2.51-1.25v-1.95h-.88v1.95l-2.51 1.25a1.87 1.87 0 0 0-1 1.68v.44h.88V19l-1.77 2.66v1.64l-8.95 5.32v2.47h.88v8h25.74v-8h.88Zm-9.76 9.57h-2.66v-4.44h2.66Zm-3.55-5.32v5.32h-.88v-5.32h-4.44v5.32h-.89v-7.1h11.54v7.1h-.89v-5.32Zm-1.77 5.32h-2.66v-4.44h2.66Zm-11.54-8v-.88h8v.88Zm8.88 0v-8h8v8Zm6.41-10.64 1.19 1.77h-7.22l1.19-1.77Zm-2-2.67v1.78h-.88v-1.77Zm4.44 7.44 6.83 4.1h-6.81Zm-2.66-5.66h-.89v-1.77h.89Zm-4.78-3.11 2.56-1.28 2.56 1.28a1 1 0 0 1 .44.45h-6a1 1 0 0 1 .44-.45Zm1.23 1.33v1.78h-.89v-1.77Zm-3.53 11.55h-6.83l6.83-4.1Zm-7.1 2.66h5.33v7.1h-5.33Zm24 7.1h-5.37v-7.1h5.33Zm-7.1-8v-.88h8v.88Z" style="fill:#48639e"/></svg>