<svg id="Layer_1" data-name="Layer 1" xmlns="http://www.w3.org/2000/svg" viewBox="0 0 45 45"><defs><style>.cls-2{fill:#24a7d0}</style></defs><path style="fill:none;stroke:#48639e;stroke-miterlimit:10" d="M4.77 38.67h35.46"/><path class="cls-2" d="M22 24.09h1v2.35h-1ZM20.15 24.09h.94v2.35h-.94ZM23.91 24.09h.94v2.35h-.94ZM22 27.38h1v2.36h-1ZM20.15 27.38h.94v2.36h-.94ZM23.91 27.38h.94v2.36h-.94ZM23.83 19.93a1.9 1.9 0 0 0-1.33-.55 1.93 1.93 0 0 0-1.34.55 1.9 1.9 0 0 0-.55 1.33 1.88 1.88 0 0 0 1.89 1.89 1.9 1.9 0 0 0 1.33-.55 1.93 1.93 0 0 0 .55-1.34 1.9 1.9 0 0 0-.55-1.33Zm-.67 2a.91.91 0 0 1-.66.28 1 1 0 0 1-.95-.95.91.91 0 0 1 .28-.66 1 1 0 0 1 .67-.28 1 1 0 0 1 .94.94 1 1 0 0 1-.28.67ZM29.23 25.17A1.8 1.8 0 0 0 29.6 28a1.8 1.8 0 1 0 .91-3.36 1.81 1.81 0 0 0-1.28.53Zm1.88 1.88a.86.86 0 0 1-1.21 0 .85.85 0 0 1 0-1.22.86.86 0 0 1 1.21 0 .85.85 0 0 1 0 1.22ZM13.22 25.17a1.76 1.76 0 0 0-.51 1.51 1.8 1.8 0 0 0 .88 1.32 1.82 1.82 0 0 0 1.59.11 1.84 1.84 0 0 0 1.06-1.2 1.8 1.8 0 0 0-3-1.74Zm1.88 1.88a.86.86 0 0 1-1.21 0 .85.85 0 0 1 0-1.22.86.86 0 0 1 1.21 0 .85.85 0 0 1 0 1.22ZM18.73 35.39h.94v.94h-.94ZM25.33 35.39h.94v.94h-.94Z"/><path d="M36.45 33.62 33.8 31.4v-6.84a.5.5 0 0 0-.08-.26L31 20.18V20h-1l-3.5 1.16-3.5-7.07h-1l-3.54 7.07L15 20l-.94.2-2.79 4.1a.5.5 0 0 0-.08.26v6.84l-2.65 2.22a.46.46 0 0 0-.17.36v4.71a.47.47 0 0 0 .14.33.44.44 0 0 0 .33.14h27.31a.48.48 0 0 0 .34-.14.51.51 0 0 0 .13-.33V34a.46.46 0 0 0-.17-.38Zm-25.26 4.6h-.47v-1.89h-.94v1.89h-.47v-2.83h1.88Zm0-3.77H9.31v-.25l1.88-1.57ZM15 38.22h-1V35a1.23 1.23 0 0 1 .47-1 1.23 1.23 0 0 1 .53 1Zm.94 0V35a2.18 2.18 0 0 0-.32-1.14 2.12 2.12 0 0 0-.88-.8.45.45 0 0 0-.42 0 2.12 2.12 0 0 0-.88.8 2.18 2.18 0 0 0-.36 1.14v3.19h-.94V32.1h4.7v6.12Zm1-7.07h-4.8v-.94h4.71Zm0-1.88h-4.8V24.7l2.35-3.53 2.36 3.53Zm-1.3-8.07 2.42.81-.8 1.61Zm5 17h-2.85v-3.75h2.82Zm.09-4.71h-2.94v-1.87h3.76v.07a4.4 4.4 0 0 0-.85 1.82Zm2.74 4.71h-1.92v-3.83a3.6 3.6 0 0 1 .71-2.12l.24-.31.23.31a3.53 3.53 0 0 1 .71 2.12Zm3.77 0h-2.86v-3.75h2.83Zm0-4.71h-2.95a4.4 4.4 0 0 0-.81-1.82v-.07h3.77Zm0-2.83h-9.45v-6l4.71-9.42 4.71 9.42ZM26.93 22l2.42-.81-1.62 2.42Zm4 16.21H30V35a1.23 1.23 0 0 1 .47-1 1.23 1.23 0 0 1 .53 1Zm1.89 0h-.95V35a2.09 2.09 0 0 0-.32-1.14 2.12 2.12 0 0 0-.88-.8.45.45 0 0 0-.42 0 2.12 2.12 0 0 0-.88.8 2.18 2.18 0 0 0-.28 1.14v3.19h-.94V32.1h4.71Zm0-7.07h-4.67v-.94h4.71Zm0-1.88h-4.67V24.7l2.35-3.53 2.36 3.53Zm2.82 9h-.47v-1.93h-.94v1.89h-.43v-2.83h1.88Zm0-3.77H33.8v-1.86l1.88 1.57Z" style="fill:#48639e"/></svg>