<svg width="40" height="41" viewBox="0 0 40 41" fill="none" xmlns="http://www.w3.org/2000/svg">
<g id="span.jsx-5519064">
<g id="Group 18981">
<g id="Group 18950">
<g id="Group 18949">
<g id="Group 18948">
<g id="Group 18947">
<g id="Group 18973">
<path id="Path 31181" fill-rule="evenodd" clip-rule="evenodd" d="M33.8119 38.2227H5.50776C5.40756 38.2225 5.30836 38.2027 5.21584 38.1642C5.12331 38.1257 5.03928 38.0694 4.96854 37.9984C4.89781 37.9275 4.84174 37.8433 4.80357 37.7506C4.7654 37.658 4.74588 37.5587 4.7461 37.4585V3.98682C4.74588 3.88662 4.7654 3.78736 4.80357 3.69471C4.84174 3.60206 4.89781 3.51784 4.96854 3.44687C5.03928 3.3759 5.12331 3.31957 5.21584 3.2811C5.30836 3.24262 5.40756 3.22277 5.50776 3.22266H33.8119C33.9121 3.22277 34.0113 3.24262 34.1039 3.2811C34.1964 3.31957 34.2804 3.3759 34.3512 3.44687C34.4219 3.51784 34.4779 3.60206 34.5161 3.69471C34.5543 3.78736 34.5738 3.88662 34.5736 3.98682V37.4585C34.5738 37.5587 34.5543 37.658 34.5161 37.7506C34.4779 37.8433 34.4219 37.9275 34.3512 37.9984C34.2804 38.0694 34.1964 38.1257 34.1039 38.1642C34.0113 38.2027 33.9121 38.2225 33.8119 38.2227ZM6.26943 36.6952H33.0503V4.75016H6.26943V36.6952Z" fill="#7B90FF"/>
<path id="Path 31181 - Outline" d="M33.8126 38.638H5.50841C5.19567 38.6374 4.89596 38.5127 4.67505 38.2913C4.45415 38.0699 4.33008 37.7699 4.33008 37.4572V3.98552C4.33008 3.67278 4.45415 3.37281 4.67505 3.15143C4.89596 2.93005 5.19567 2.80535 5.50841 2.80469H33.8126C34.1253 2.80535 34.425 2.93005 34.6459 3.15143C34.8668 3.37281 34.9909 3.67278 34.9909 3.98552V37.4572C34.9909 37.7699 34.8668 38.0699 34.6459 38.2913C34.425 38.5127 34.1253 38.6374 33.8126 38.638ZM5.50841 3.63802C5.41662 3.63846 5.32873 3.67529 5.26406 3.74044C5.19938 3.80558 5.16319 3.89372 5.16341 3.98552V37.4572C5.16319 37.549 5.19938 37.6371 5.26406 37.7023C5.32873 37.7674 5.41662 37.8042 5.50841 37.8047H33.8126C33.9044 37.8042 33.9922 37.7674 34.0569 37.7023C34.1216 37.6371 34.1578 37.549 34.1576 37.4572V3.98552C34.1578 3.89372 34.1216 3.80558 34.0569 3.74044C33.9922 3.67529 33.9044 3.63846 33.8126 3.63802H5.50841ZM33.4676 37.1105H5.85341V4.33219H33.4676V37.1105ZM6.68675 36.2772H32.6342V5.16552H6.68675V36.2772Z" fill="#7B90FF"/>
<path id="Union 63" d="M17.8642 33.9871L14.515 32.163L11.165 33.9871C11.0531 34.0475 10.928 34.0792 10.8009 34.0796C10.6826 34.0793 10.566 34.0514 10.4602 33.9983C10.3545 33.9452 10.2626 33.8683 10.1916 33.7736C10.1207 33.679 10.0727 33.5691 10.0515 33.4527C10.0302 33.3363 10.0363 33.2166 10.0692 33.103L11.755 27.2405C11.1819 26.6902 10.7865 25.981 10.6197 25.2042C10.4528 24.4273 10.5222 23.6183 10.8187 22.8812C11.1153 22.1441 11.6257 21.5126 12.284 21.0678C12.9424 20.623 13.7188 20.3854 14.5134 20.3854C15.3079 20.3854 16.0843 20.623 16.7427 21.0678C17.4011 21.5126 17.9114 22.1441 18.208 22.8812C18.5046 23.6183 18.5739 24.4273 18.4071 25.2042C18.2402 25.981 17.8448 26.6902 17.2717 27.2405L18.9567 33.1038C18.9991 33.2482 18.9979 33.4019 18.953 33.5456C18.9081 33.6893 18.8217 33.8164 18.7047 33.911C18.5876 34.0056 18.4451 34.0634 18.2953 34.0771C18.1454 34.0908 17.9948 34.0598 17.8625 33.988L17.8642 33.9871ZM14.8775 30.6263L16.9917 31.7771L15.9334 28.0971C15.0216 28.4482 14.0119 28.4482 13.1 28.0971L12.04 31.773L14.1509 30.6263H14.1559C14.2668 30.5662 14.391 30.5347 14.5171 30.5347C14.6433 30.5347 14.7674 30.5662 14.8784 30.6263H14.8775ZM12.0542 24.3613C12.0558 24.8475 12.2015 25.3222 12.4728 25.7256C12.744 26.1291 13.1288 26.4431 13.5784 26.628C14.028 26.813 14.5223 26.8605 14.9989 26.7647C15.4755 26.669 15.9131 26.4341 16.2563 26.0898C16.5996 25.7455 16.8331 25.3073 16.9274 24.8303C17.0218 24.3534 16.9727 23.8593 16.7864 23.4102C16.6001 22.9612 16.2849 22.5774 15.8806 22.3074C15.4764 22.0373 15.0012 21.8931 14.515 21.893C13.8616 21.8947 13.2356 22.1556 12.7743 22.6183C12.3129 23.0811 12.054 23.7079 12.0542 24.3613ZM23.3734 21.2646C23.1752 21.2581 22.9873 21.1748 22.8494 21.0322C22.7115 20.8897 22.6344 20.6992 22.6344 20.5009C22.6344 20.3026 22.7115 20.1121 22.8494 19.9695C22.9873 19.827 23.1752 19.7437 23.3734 19.7371H28.5209C28.7191 19.7437 28.9069 19.827 29.0448 19.9695C29.1827 20.1121 29.2598 20.3026 29.2598 20.5009C29.2598 20.6992 29.1827 20.8897 29.0448 21.0322C28.9069 21.1748 28.7191 21.2581 28.5209 21.2646H23.3734ZM10.8017 17.283C10.6035 17.2764 10.4156 17.1931 10.2777 17.0506C10.1399 16.9081 10.0628 16.7175 10.0628 16.5192C10.0628 16.3209 10.1399 16.1304 10.2777 15.9879C10.4156 15.8454 10.6035 15.762 10.8017 15.7555H28.52C28.7182 15.762 28.9061 15.8454 29.044 15.9879C29.1819 16.1304 29.259 16.3209 29.259 16.5192C29.259 16.7175 29.1819 16.9081 29.044 17.0506C28.9061 17.1931 28.7182 17.2764 28.52 17.283H10.8017ZM10.8017 13.3021C10.6035 13.2956 10.4156 13.2123 10.2777 13.0697C10.1399 12.9272 10.0628 12.7367 10.0628 12.5384C10.0628 12.3401 10.1399 12.1495 10.2777 12.007C10.4156 11.8645 10.6035 11.7812 10.8017 11.7746H28.52C28.7182 11.7812 28.9061 11.8645 29.044 12.007C29.1819 12.1495 29.259 12.3401 29.259 12.5384C29.259 12.7367 29.1819 12.9272 29.044 13.0697C28.9061 13.2123 28.7182 13.2956 28.52 13.3021H10.8017ZM10.8017 9.32047C10.6035 9.31392 10.4156 9.23059 10.2777 9.08807C10.1399 8.94556 10.0628 8.75502 10.0628 8.55672C10.0628 8.35842 10.1399 8.16788 10.2777 8.02537C10.4156 7.88285 10.6035 7.79952 10.8017 7.79297H28.52C28.7225 7.79297 28.9166 7.87339 29.0598 8.01654C29.203 8.1597 29.2834 8.35385 29.2834 8.5563C29.2834 8.75875 29.203 8.95291 29.0598 9.09606C28.9166 9.23921 28.7225 9.31964 28.52 9.31964L10.8017 9.32047Z" fill="#210366"/>
<path id="Union 63 - Outline" d="M18.225 34.495C18.0288 34.4947 17.8357 34.4454 17.6633 34.3517L14.5133 32.6358L11.3633 34.3517C11.1902 34.445 10.9967 34.4943 10.8 34.495C10.6171 34.4947 10.4368 34.4519 10.2733 34.37C10.1098 34.2881 9.9675 34.1694 9.8577 34.0232C9.7479 33.8769 9.67356 33.7072 9.64055 33.5273C9.60754 33.3474 9.61675 33.1624 9.66747 32.9867L11.2883 27.3575C10.7063 26.7299 10.3201 25.9461 10.177 25.1022C10.0338 24.2583 10.1399 23.391 10.4823 22.6065C10.8247 21.8221 11.3886 21.1545 12.1047 20.6857C12.8209 20.2169 13.6582 19.9672 14.5141 19.9672C15.3701 19.9672 16.2074 20.2169 16.9236 20.6857C17.6397 21.1545 18.2035 21.8221 18.546 22.6065C18.8884 23.391 18.9945 24.2583 18.8513 25.1022C18.7082 25.9461 18.322 26.7299 17.74 27.3575L19.3591 32.9867C19.4099 33.1624 19.4191 33.3474 19.3861 33.5273C19.3531 33.7072 19.2787 33.8769 19.1689 34.0232C19.0591 34.1694 18.9169 34.2881 18.7533 34.37C18.5898 34.4519 18.4095 34.4947 18.2266 34.495H18.225ZM14.5133 31.6867L18.0616 33.62C18.1129 33.6476 18.1702 33.6619 18.2283 33.6617C18.3066 33.6614 18.3825 33.6344 18.4433 33.585C18.4969 33.542 18.5366 33.484 18.5574 33.4185C18.5782 33.3529 18.5791 33.2827 18.56 33.2167L16.8016 27.1142L16.9816 26.94C17.4954 26.4473 17.8499 25.8122 17.9997 25.1164C18.1495 24.4206 18.0876 23.6958 17.8222 23.0354C17.5567 22.375 17.0996 21.8092 16.5099 21.4106C15.9202 21.0121 15.2247 20.7992 14.5129 20.7992C13.8011 20.7992 13.1056 21.0121 12.5159 21.4106C11.9262 21.8092 11.4691 22.375 11.2036 23.0354C10.9381 23.6958 10.8763 24.4206 11.0261 25.1164C11.1759 25.8122 11.5304 26.4473 12.0441 26.94L12.2241 27.1142L10.4683 33.2175C10.4488 33.2834 10.4494 33.3537 10.47 33.4193C10.4905 33.4849 10.5301 33.5429 10.5837 33.5859C10.6373 33.629 10.7025 33.6551 10.7709 33.661C10.8394 33.667 10.9081 33.6524 10.9683 33.6192L14.5133 31.6867ZM11.3591 32.6142L12.82 27.5417L13.245 27.7083C14.0615 28.0232 14.966 28.0232 15.7825 27.7083L16.2066 27.5417L17.6658 32.6158L14.6766 30.9875C14.6258 30.959 14.5683 30.9443 14.51 30.945C14.4599 30.9449 14.4104 30.9557 14.365 30.9767L14.3458 30.9875L11.3591 32.6142ZM14.5125 30.1142C14.7097 30.1143 14.9038 30.1642 15.0766 30.2592L16.3141 30.9325L15.65 28.625C14.9039 28.8267 14.1177 28.8267 13.3716 28.625L12.705 30.9325L13.955 30.2508C14.1265 30.1592 14.318 30.1114 14.5125 30.1117V30.1142ZM14.5125 27.2483C13.9415 27.2501 13.3828 27.0825 12.9072 26.7666C12.4315 26.4507 12.0603 26.0007 11.8406 25.4737C11.6208 24.9467 11.5623 24.3664 11.6726 23.8061C11.7829 23.2459 12.057 22.731 12.4601 22.3266C12.8632 21.9222 13.3772 21.6465 13.9371 21.5345C14.497 21.4224 15.0775 21.479 15.6052 21.6971C16.1329 21.9152 16.584 22.2849 16.9015 22.7596C17.2189 23.2342 17.3883 23.7923 17.3883 24.3633C17.3876 25.1262 17.0848 25.8578 16.5459 26.3979C16.0071 26.938 15.2762 27.2426 14.5133 27.245L14.5125 27.2483ZM14.5125 22.3117C14.1063 22.3099 13.7087 22.4286 13.3701 22.653C13.0315 22.8773 12.7672 23.1971 12.6105 23.5718C12.4538 23.9466 12.4118 24.3594 12.49 24.7579C12.5681 25.1565 12.7628 25.523 13.0493 25.8108C13.3359 26.0987 13.7014 26.295 14.0997 26.3749C14.4979 26.4548 14.9109 26.4147 15.2863 26.2597C15.6617 26.1047 15.9827 25.8417 16.2086 25.5041C16.4344 25.1665 16.555 24.7695 16.555 24.3633C16.5563 23.8202 16.342 23.2988 15.9593 22.9135C15.5765 22.5282 15.0564 22.3105 14.5133 22.3083L14.5125 22.3117ZM28.5175 21.6833H23.3716C23.0585 21.6833 22.7581 21.5589 22.5367 21.3375C22.3152 21.116 22.1908 20.8157 22.1908 20.5025C22.1908 20.1893 22.3152 19.889 22.5367 19.6675C22.7581 19.4461 23.0585 19.3217 23.3716 19.3217H28.5191C28.8323 19.3217 29.1327 19.4461 29.3541 19.6675C29.5756 19.889 29.7 20.1893 29.7 20.5025C29.7 20.8157 29.5756 21.116 29.3541 21.3375C29.1327 21.5589 28.8323 21.6833 28.5191 21.6833H28.5175ZM23.3716 20.1525C23.2825 20.1569 23.1985 20.1953 23.137 20.26C23.0755 20.3246 23.0412 20.4104 23.0412 20.4996C23.0412 20.5888 23.0755 20.6746 23.137 20.7392C23.1985 20.8038 23.2825 20.8423 23.3716 20.8467H28.5191C28.6083 20.8423 28.6923 20.8038 28.7538 20.7392C28.8153 20.6746 28.8496 20.5888 28.8496 20.4996C28.8496 20.4104 28.8153 20.3246 28.7538 20.26C28.6923 20.1953 28.6083 20.1569 28.5191 20.1525H23.3716ZM28.5191 17.6983H10.8C10.4868 17.6983 10.1865 17.5739 9.96501 17.3525C9.74356 17.131 9.61914 16.8307 9.61914 16.5175C9.61914 16.2043 9.74356 15.904 9.96501 15.6825C10.1865 15.4611 10.4868 15.3367 10.8 15.3367H28.5183C28.8315 15.3367 29.1318 15.4611 29.3533 15.6825C29.5747 15.904 29.6991 16.2043 29.6991 16.5175C29.6991 16.8307 29.5747 17.131 29.3533 17.3525C29.1318 17.5739 28.8315 17.6983 28.5183 17.6983H28.5191ZM10.8 16.17C10.7078 16.17 10.6194 16.2066 10.5543 16.2718C10.4891 16.3369 10.4525 16.4253 10.4525 16.5175C10.4525 16.6097 10.4891 16.6981 10.5543 16.7632C10.6194 16.8284 10.7078 16.865 10.8 16.865H28.5183C28.6105 16.865 28.6989 16.8284 28.764 16.7632C28.8292 16.6981 28.8658 16.6097 28.8658 16.5175C28.8658 16.4253 28.8292 16.3369 28.764 16.2718C28.6989 16.2066 28.6105 16.17 28.5183 16.17H10.8ZM28.5183 13.7167H10.8C10.4923 13.7085 10.2001 13.5805 9.98535 13.3601C9.77065 13.1396 9.65051 12.844 9.65051 12.5363C9.65051 12.2285 9.77065 11.9329 9.98535 11.7124C10.2001 11.492 10.4923 11.364 10.8 11.3558H28.5183C28.8259 11.364 29.1182 11.492 29.3329 11.7124C29.5476 11.9329 29.6678 12.2285 29.6678 12.5363C29.6678 12.844 29.5476 13.1396 29.3329 13.3601C29.1182 13.5805 28.8259 13.7085 28.5183 13.7167ZM10.8 12.1892C10.7109 12.1935 10.6268 12.232 10.5653 12.2966C10.5038 12.3612 10.4695 12.447 10.4695 12.5363C10.4695 12.6255 10.5038 12.7113 10.5653 12.7759C10.6268 12.8405 10.7109 12.879 10.8 12.8833H28.5183C28.6074 12.879 28.6914 12.8405 28.753 12.7759C28.8145 12.7113 28.8488 12.6255 28.8488 12.5363C28.8488 12.447 28.8145 12.3612 28.753 12.2966C28.6914 12.232 28.6074 12.1935 28.5183 12.1892H10.8ZM28.5183 9.735H10.8C10.487 9.735 10.1869 9.61068 9.96559 9.38939C9.7443 9.16809 9.61998 8.86796 9.61998 8.555C9.61998 8.24204 9.7443 7.94191 9.96559 7.72061C10.1869 7.49932 10.487 7.375 10.8 7.375H28.5183C28.8313 7.375 29.1314 7.49932 29.3527 7.72061C29.574 7.94191 29.6983 8.24204 29.6983 8.555C29.6983 8.86796 29.574 9.16809 29.3527 9.38939C29.1314 9.61068 28.8313 9.735 28.5183 9.735ZM10.8 8.20833C10.708 8.20833 10.6199 8.24486 10.5548 8.30987C10.4898 8.37488 10.4533 8.46306 10.4533 8.555C10.4533 8.64694 10.4898 8.73512 10.5548 8.80013C10.6199 8.86514 10.708 8.90167 10.8 8.90167H28.5183C28.6102 8.90167 28.6984 8.86514 28.7634 8.80013C28.8285 8.73512 28.865 8.64694 28.865 8.555C28.865 8.46306 28.8285 8.37488 28.7634 8.30987C28.6984 8.24486 28.6102 8.20833 28.5183 8.20833H10.8Z" fill="#210366"/>
</g>
</g>
</g>
</g>
</g>
</g>
</g>
</svg>
