<svg version="1.1" id="Layer_1" xmlns="http://www.w3.org/2000/svg" x="0" y="0" viewBox="0 0 45 45" style="enable-background:new 0 0 45 45" xml:space="preserve"><style>.st0{fill:#48639e}.st1{fill:#24a7d0}</style><path class="st0" d="M4.77 38.17h35.45v1H4.77z"/><path class="st0" d="M23.72 38.92h-2.43V31.4c0-.66.53-1.19 1.19-1.19h.05c.66 0 1.19.53 1.19 1.19v7.52zm-1.97-.46h1.5v-7.05c0-.4-.33-.73-.73-.73h-.05c-.4 0-.73.33-.73.73l.01 7.05z"/><path class="st0" d="M23.97 39.17h-2.93v-7.76c0-.79.65-1.44 1.44-1.44.84 0 1.49.65 1.49 1.44v7.76zM22 38.21h1v-6.8a.48.48 0 0 0-.48-.48c-.31 0-.53.21-.53.48v6.8z"/><path class="st1" d="M25.04 23.38h-.46v-3.57c0-1.14-.93-2.07-2.07-2.07s-2.07.93-2.07 2.07v3.57h-.46v-3.57c0-1.4 1.14-2.54 2.54-2.54 1.4 0 2.54 1.14 2.54 2.54l-.02 3.57z"/><path class="st1" d="M25.29 23.63h-.96v-3.82c0-1-.82-1.82-1.82-1.82s-1.82.82-1.82 1.82v3.82h-.96v-3.82a2.791 2.791 0 0 1 5.58 0v3.82z"/><path class="st1" d="M20.2 20.39h4.61v.46H20.2v-.46z"/><path class="st1" d="M19.95 20.14h5.11v.96h-5.11z"/><path class="st1" d="M21.4 20.62h.46v2.76h-.46v-2.76z"/><path class="st1" d="M21.15 20.37h.96v3.26h-.96zM23.24 20.63h.46v2.75h-.46v-2.75z"/><path class="st1" d="M22.99 20.38h.96v3.25h-.96zM22.23 15.08h.46v2.42h-.46v-2.42z"/><path class="st1" d="M21.98 14.83h.96v2.92h-.96z"/><path class="st0" d="M37.58 38.92h-5.94V25.63h5.94v13.29zm-5.48-.46h5.02V26.09H32.1v12.37z"/><path class="st0" d="M37.83 39.17h-6.44V25.38h6.44v13.79zm-5.48-.96h4.52V26.34h-4.52v11.87z"/><path class="st0" d="M37.18 26.09h-4.89l2.45-2.88 2.44 2.88zm-3.89-.46h2.89l-1.44-1.7-1.45 1.7z"/><path class="st0" d="M37.72 26.34h-5.97l2.99-3.52 2.98 3.52zm-3.89-.96h1.81l-.9-1.07-.91 1.07z"/><path class="st0" d="M32.1 38.92h-5.75V24.44h5.75v14.48zm-5.28-.46h4.82V24.9h-4.82v13.56z"/><path class="st0" d="M32.35 39.17H26.1V24.19h6.25v14.98zm-5.28-.96h4.32V25.15h-4.32v13.06z"/><path class="st0" d="M30.97 24.9h-3.3v-1.73h3.3v1.73zm-2.84-.46h2.38v-.81h-2.38v.81z"/><path class="st0" d="M31.22 25.15h-3.8v-2.23h3.8v2.23zm-2.84-.96h1.88v-.31h-1.88v.31z"/><path class="st1" d="M30.03 26.13h.46v10.92h-.46V26.13z"/><path class="st1" d="M29.78 25.88h.96V37.3h-.96z"/><path class="st0" d="M34.38 29.07h.46v6.95h-.46v-6.95z"/><path class="st0" d="M34.13 28.82h.96v7.45h-.96zM10.16 29.07h.46v6.95h-.46v-6.95z"/><path class="st0" d="M9.91 28.82h.96v7.45h-.96z"/><path class="st1" d="M27.89 26.13h.46v10.92h-.46V26.13z"/><path class="st1" d="M27.64 25.88h.96V37.3h-.96zM16.61 26.13h.46v10.92h-.46V26.13z"/><path class="st1" d="M16.36 25.88h.96V37.3h-.96zM14.46 26.13h.46v10.92h-.46V26.13z"/><path class="st1" d="M14.22 25.88h.96V37.3h-.96z"/><path class="st0" d="M13.36 38.92H7.42V25.63h5.94v13.29zm-5.48-.46h5.02V26.09H7.88v12.37z"/><path class="st0" d="M13.61 39.17H7.17V25.38h6.44v13.79zm-5.48-.96h4.52V26.34H8.13v11.87z"/><path class="st0" d="M12.7 26.09H7.84l2.43-3.01 2.43 3.01zm-3.89-.46h2.92l-1.46-1.81-1.46 1.81z"/><path class="st0" d="M13.22 26.34h-5.9l2.95-3.66 2.95 3.66zm-3.89-.96h1.87l-.94-1.16-.93 1.16z"/><path class="st0" d="M18.64 38.92H12.9V24.44h5.75v14.48zm-5.28-.46h4.82V24.91h-4.82v13.55z"/><path class="st0" d="M18.89 39.17h-6.25V24.19h6.25v14.98zm-5.28-.96h4.32V25.15h-4.32v13.06z"/><path class="st0" d="M17.33 24.9h-3.3v-1.73h3.3v1.73zm-2.84-.46h2.38v-.81h-2.38v.81z"/><path class="st0" d="M17.58 25.15h-3.8v-2.23h3.8v2.23zm-2.84-.96h1.88v-.31h-1.88v.31zM26.82 38.92h-8.64V23.15h8.64v15.77zm-8.18-.46h7.72V23.61h-7.72v14.85z"/><path class="st0" d="M27.07 39.17h-9.14V22.9h9.14v16.27zm-8.18-.96h7.22V23.86h-7.22v14.35z"/><path class="st0" d="M19.71 25.4h.46v2.48h-.46V25.4z"/><path class="st0" d="M19.46 25.15h.96v2.98h-.96zM22.33 25.4h.46v2.47h-.46V25.4z"/><path class="st0" d="M22.08 25.15h.96v2.97h-.96zM24.95 25.4h.46v2.42h-.46V25.4z"/><path class="st0" d="M24.7 25.15h.96v2.92h-.96z"/></svg>