<svg version="1.1" id="Layer_1" xmlns="http://www.w3.org/2000/svg" x="0" y="0" viewBox="0 0 45 45" style="enable-background:new 0 0 45 45" xml:space="preserve"><style>.st0{fill:#48639e}.st1{fill:#24a7d0}</style><path class="st1" d="M19.33 23.16h.4v1.63h-.4v-1.63z"/><path class="st1" d="M19.13 22.96h.8v2.03h-.8zM25.12 23.16h.4v1.63h-.4v-1.63z"/><path class="st1" d="M24.92 22.96h.8v2.03h-.8zM22.3 23.16h.4v1.63h-.4v-1.63z"/><path class="st1" d="M22.1 22.96h.8v2.03h-.8z"/><path class="st0" d="M21.91 17.81h-.4v-1.58c0-.59.48-1.08 1.08-1.08.59 0 1.08.48 1.08 1.08v1.55h-.4v-1.55c0-.37-.31-.68-.68-.68-.37 0-.68.31-.68.68v1.58z"/><path class="st0" d="M22.11 18.01h-.8v-1.78c0-.7.57-1.28 1.28-1.28s1.28.57 1.28 1.28v1.75h-.8v-1.75a.48.48 0 0 0-.96 0v1.78z"/><path class="st0" d="M22.39 13.83h.4v1.52h-.4v-1.52z"/><path class="st0" d="M22.19 13.63h.8v1.93h-.8z"/><path class="st1" d="M26.21 21.72h-.4c0-1.76-1.41-3.82-3.23-3.82s-3.23 2.04-3.23 3.8h-.4c0-1.94 1.58-4.2 3.63-4.2s3.63 2.27 3.63 4.22z"/><path class="st1" d="M26.41 21.92h-.8v-.2c0-1.67-1.32-3.62-3.03-3.62s-3.03 1.93-3.03 3.6v.2h-.8v-.2c0-2.03 1.67-4.4 3.83-4.4 2.15 0 3.83 2.37 3.83 4.41v.21z"/><path class="st0" d="M27.19 23.36h-9.21V22l4.52-1.95 4.7 1.94v1.37zm-8.81-.4h8.42v-.7l-4.3-1.78-4.12 1.78v.7z"/><path class="st0" d="M27.39 23.56h-9.61v-1.69l4.71-2.03 4.9 2.03v1.69zm-8.81-.8h8.02v-.37l-4.1-1.69-3.92 1.69v.37z"/><path class="st1" d="M33.54 38.67h-2.02V33.4c0-.54.44-.98.98-.98h.07c.54 0 .98.44.98.98l-.01 5.27zm-1.63-.4h1.23V33.4a.58.58 0 0 0-.58-.58h-.07a.58.58 0 0 0-.58.58v4.87z"/><path class="st1" d="M33.74 38.87h-2.43V33.4c0-.65.53-1.18 1.18-1.18h.06c.65 0 1.18.53 1.18 1.18v5.47zm-1.63-.8h.83V33.4a.38.38 0 0 0-.38-.38h-.06a.38.38 0 0 0-.38.38v4.67zM13.69 38.67h-2.02V33.4c0-.54.44-.98.98-.98h.07c.54 0 .98.44.98.98l-.01 5.27zm-1.63-.4h1.23V33.4a.58.58 0 0 0-.58-.58h-.07a.58.58 0 0 0-.58.58v4.87z"/><path class="st1" d="M13.89 38.87h-2.42V33.4c0-.65.53-1.18 1.18-1.18h.07c.65 0 1.18.53 1.18 1.18v5.47zm-1.63-.8h.83V33.4a.38.38 0 0 0-.38-.38h-.07a.38.38 0 0 0-.38.38v4.67z"/><path class="st0" d="M26.08 38.67h-2.41v-5.76c0-.64.52-1.17 1.17-1.17h.08c.64 0 1.17.52 1.17 1.17l-.01 5.76zm-2.02-.4h1.62v-5.36a.77.77 0 0 0-.77-.77h-.08a.77.77 0 0 0-.77.77v5.36z"/><path class="st0" d="M26.28 38.87h-2.81v-5.96c0-.75.61-1.37 1.37-1.37h.08c.75 0 1.37.61 1.37 1.37v5.96zm-2.02-.8h1.22v-5.16a.57.57 0 0 0-.57-.57h-.08a.57.57 0 0 0-.57.57v5.16zM21.37 38.67h-2.41v-5.76c0-.64.52-1.17 1.17-1.17h.08c.64 0 1.17.52 1.17 1.17l-.01 5.76zm-2.01-.4h1.62v-5.36a.77.77 0 0 0-.77-.77h-.08a.77.77 0 0 0-.77.77v5.36z"/><path class="st0" d="M21.57 38.87h-2.81v-5.96c0-.75.61-1.37 1.37-1.37h.08c.75 0 1.37.61 1.37 1.37v5.96zm-2.01-.8h1.22v-5.16a.57.57 0 0 0-.57-.57h-.08a.57.57 0 0 0-.57.57v5.16zM29.71 26.87H15.47l-.75-2.28h15.74l-.75 2.28zm-13.96-.39h13.67l.49-1.49H15.26l.49 1.49z"/><path class="st0" d="M29.85 27.07H15.32l-.88-2.68h16.29l-.88 2.68zm-13.95-.79h13.38l.36-1.09h-14.1l.36 1.09z"/><path class="st0" d="M35.5 38.67h-6.16v-12h.4v11.6h5.37V26.3h-5.2v-.4h5.6l-.01 12.77z"/><path class="st0" d="M35.7 38.87h-6.56v-12.4h.56v-.77h6v13.17zm-5.76-.8h4.96V26.5h-4.96v11.57zM15.82 38.68l-6.12-.01V25.91h5.67v.4H10.1v11.97l5.32.01v-11.6h.4v11.99z"/><path class="st0" d="m16.02 38.88-6.52-.01V25.71h6.07v.78h.45v12.39zm-5.72-.81 4.92.01V26.5H10.3v11.57z"/><path class="st1" d="M27.57 30.28H17.21v-2.31h10.35v2.31zm-9.96-.39h9.56v-1.52h-9.56v1.52z"/><path class="st1" d="M27.77 30.48H17.01v-2.71h10.75v2.71zm-9.96-.79h9.16v-1.11h-9.16v1.11z"/><path class="st0" d="M4.77 38.17h35.45v1H4.77z"/></svg>