<svg version="1.1" id="Layer_1" xmlns="http://www.w3.org/2000/svg" x="0" y="0" viewBox="0 0 45 45" style="enable-background:new 0 0 45 45" xml:space="preserve"><style>.st0{fill:#48639e}.st1{fill:#24a7d0}</style><path class="st0" d="M4.77 38.17h35.45v1H4.77zM22.45 12.21v15.06h.28V12.21h-.28zm0 0v15.06h.28V12.21h-.28zm0 0v15.06h.28V12.21h-.28zm0 0v15.06h.28V12.21h-.28zm0 0v15.06h.28V12.21h-.28zm0 0v15.06h.28V12.21h-.28zm0 0v15.06h.28V12.21h-.28zm0 0v15.06h.28V12.21h-.28zm0 0v15.06h.28V12.21h-.28zm5.71 24.62V15.98h-1.58v-3.17h-.65V9.69h-.65V8.41h-.08l-1.58-1.69h-.98V4.97h-.28v1.75h-.98L19.8 8.41h-.08v1.28h-.65v3.12h-.65v3.17h-1.58v20.85h-1.22v1.27h.28v-.99h13.2v.99h.28v-1.27h-1.22zm-9.74 0h-1.3V16.26h1.3v20.57zM21.51 7h1.98l1.33 1.41h-4.64L21.51 7zM20 8.69h5v1h-5v-1zm-.65 1.28h6.3v.6h-6.3v-.6zm.37 26.86H18.7V13.09h1.02v23.74zm5.28 0h-5V12.81h-.65v-1.96h6.3v1.96H25v24.02zm1.3 0h-1.02V13.09h1.02v23.74zm1.58 0h-1.3V16.26h1.3v20.57zm-5.43-9.56h.28V12.21h-.28v15.06zm0-15.06v15.06h.28V12.21h-.28zm0 0v15.06h.28V12.21h-.28zm0 0v15.06h.28V12.21h-.28zm0 0v15.06h.28V12.21h-.28zm0 0v15.06h.28V12.21h-.28zm0 0v15.06h.28V12.21h-.28zm0 0v15.06h.28V12.21h-.28zm0 0v15.06h.28V12.21h-.28zm0 0v15.06h.28V12.21h-.28zm0 0v15.06h.28V12.21h-.28zm0 0v15.06h.28V12.21h-.28zm0 0v15.06h.28V12.21h-.28zm0 0v15.06h.28V12.21h-.28zm0 0v15.06h.28V12.21h-.28zm0 0v15.06h.28V12.21h-.28zm0 0v15.06h.28V12.21h-.28zm0 0v15.06h.28V12.21h-.28zm0 0v15.06h.28V12.21h-.28zm0 0v15.06h.28V12.21h-.28zm0 0v15.06h.28V12.21h-.28zm0 0v15.06h.28V12.21h-.28zm0 0v15.06h.28V12.21h-.28zm0 0v15.06h.28V12.21h-.28zm0 0v15.06h.28V12.21h-.28zm0 0v15.06h.28V12.21h-.28z"/><path class="st0" d="M22.73 11.83h-.28c-.21 0-.37.17-.37.38v15.06c0 .21.16.37.37.37h.28c.21 0 .37-.16.37-.37V12.21c0-.21-.16-.38-.37-.38zm0 0h-.28c-.21 0-.37.17-.37.38v15.06c0 .21.16.37.37.37h.28c.21 0 .37-.16.37-.37V12.21c0-.21-.16-.38-.37-.38zm0 0h-.28c-.21 0-.37.17-.37.38v15.06c0 .21.16.37.37.37h.28c.21 0 .37-.16.37-.37V12.21c0-.21-.16-.38-.37-.38zm0 0h-.28c-.21 0-.37.17-.37.38v15.06c0 .21.16.37.37.37h.28c.21 0 .37-.16.37-.37V12.21c0-.21-.16-.38-.37-.38zm0 0h-.28c-.21 0-.37.17-.37.38v15.06c0 .21.16.37.37.37h.28c.21 0 .37-.16.37-.37V12.21c0-.21-.16-.38-.37-.38zm6.65 24.63h-.84V15.98a.38.38 0 0 0-.38-.38h-1.2v-2.79c0-.21-.17-.37-.38-.37h-.27V9.69a.38.38 0 0 0-.38-.38h-.27v-.9c0-.14-.11-.26-.25-.32l-1.52-1.63a.396.396 0 0 0-.27-.12h-.6V4.97a.38.38 0 0 0-.38-.38h-.28a.38.38 0 0 0-.38.38v1.37h-.6c-.1 0-.2.05-.27.12l-1.48 1.59c-.17.04-.29.19-.29.36v.9h-.27a.38.38 0 0 0-.38.38v2.75h-.27c-.21 0-.38.16-.38.37v2.79h-1.2a.38.38 0 0 0-.38.38v20.48h-.84c-.21 0-.37.16-.37.37v1.27c0 .21.16.37.37.37h.28c.21 0 .37-.16.37-.37v-.61h12.46v.61c0 .21.16.37.37.37h.28c.21 0 .37-.16.37-.37v-1.27c0-.21-.16-.37-.37-.37zM18.04 16.63v19.83h-.54V16.63h.54zm6.58-7.57v.25h-4.24v-.25h4.24zm-3.57-1.02.62-.66h1.66l.62.66h-2.9zm4.6 1.93v.6h-6.3v-.6h6.3zm1.85 6.66v19.83h-.54V16.63h.54zm-7.77-5.4h5.54v1.21H25c-.21 0-.38.16-.38.37v23.65h-4.24V12.81c0-.21-.17-.37-.38-.37h-.27v-1.21zm6.19 2.23v23h-.26v-23h.26zm-6.84 23v-23h.26v23h-.26zm3.37-8.82h.28c.21 0 .37-.16.37-.37V12.21c0-.21-.16-.38-.37-.38h-.28c-.21 0-.37.17-.37.38v15.06c0 .21.16.37.37.37zm.28-15.81h-.28c-.21 0-.37.17-.37.38v15.06c0 .21.16.37.37.37h.28c.21 0 .37-.16.37-.37V12.21c0-.21-.16-.38-.37-.38zm0 0h-.28c-.21 0-.37.17-.37.38v15.06c0 .21.16.37.37.37h.28c.21 0 .37-.16.37-.37V12.21c0-.21-.16-.38-.37-.38zm0 0h-.28c-.21 0-.37.17-.37.38v15.06c0 .21.16.37.37.37h.28c.21 0 .37-.16.37-.37V12.21c0-.21-.16-.38-.37-.38zm0 0h-.28c-.21 0-.37.17-.37.38v15.06c0 .21.16.37.37.37h.28c.21 0 .37-.16.37-.37V12.21c0-.21-.16-.38-.37-.38zm0 0h-.28c-.21 0-.37.17-.37.38v15.06c0 .21.16.37.37.37h.28c.21 0 .37-.16.37-.37V12.21c0-.21-.16-.38-.37-.38zm0 0h-.28c-.21 0-.37.17-.37.38v15.06c0 .21.16.37.37.37h.28c.21 0 .37-.16.37-.37V12.21c0-.21-.16-.38-.37-.38z"/><path class="st1" d="M22.45 27.64h.28c.21 0 .37-.16.37-.37V12.21c0-.21-.16-.38-.37-.38h-.28c-.21 0-.37.17-.37.38v15.06c0 .21.16.37.37.37z"/><path class="st1" d="M25.93 9.31h-.27v-.9c0-.14-.11-.26-.25-.32l-1.52-1.63a.396.396 0 0 0-.27-.12h-.6V4.97a.38.38 0 0 0-.38-.38h-.28a.38.38 0 0 0-.38.38v1.37h-.6c-.1 0-.2.05-.27.12l-1.48 1.59c-.17.04-.29.19-.29.36v.9h-.27a.38.38 0 0 0-.38.38v2.74h1.04v-1.2h5.54v1.2h1.04V9.69a.38.38 0 0 0-.38-.38zm-1.31-.25v.25h-4.24v-.25h4.24zm-3.57-1.02.62-.66h1.66l.62.66h-2.9zm4.6 2.53h-6.3v-.6h6.3v.6zm-2.92 1.26h-.28c-.21 0-.37.17-.37.38v.22h1.02v-.22c0-.21-.16-.38-.37-.38z"/></svg>