<svg version="1.1" id="Layer_1" xmlns="http://www.w3.org/2000/svg" x="0" y="0" viewBox="0 0 45 45" style="enable-background:new 0 0 45 45" xml:space="preserve"><style>.st0{fill:#48639e}.st1{fill:#24a7d0}</style><path class="st0" d="M4.77 38.17h35.45v1H4.77z"/><path class="st0" d="M32.26 38.2H30.6v-2.93c0-.13-.05-.25-.14-.34a.522.522 0 0 0-.34-.14h-1.67v-1.26c0-.13-.05-.25-.14-.34a.507.507 0 0 0-.33-.13h-.65V12.89c0-.13-.05-.25-.14-.34s-.2-.14-.33-.14h-.98v-1.34a.476.476 0 0 0-.48-.48h-.3V9.21c0-.13-.05-.25-.13-.34a.513.513 0 0 0-.34-.13h-.71V7.25a.47.47 0 0 0-.14-.33.47.47 0 0 0-.33-.14h-.48v-.81a.47.47 0 1 0-.94 0v.81h-.48a.47.47 0 0 0-.47.47v1.49h-.71a.47.47 0 0 0-.47.47v1.38h-.3a.48.48 0 0 0-.48.48v1.34h-.98c-.26 0-.47.21-.47.48v20.17h-.65a.47.47 0 0 0-.47.47v1.27h-1.68a.47.47 0 0 0-.47.47v2.93h-1.66c-.26 0-.47.21-.47.47s.21.48.47.48h19.52c.26 0 .47-.22.47-.48s-.21-.47-.47-.47zm-15.71 0h-1.2v-.63h1.2v.63zm0-1.58h-1.2v-.88h1.2v.88zm9.84-23.26v19.7h-.51v-19.7h.51zm-4.36-5.63h.94v1.01h-.94V7.73zm-1.19 1.95h3.32v.91h-3.32v-.91zm-.77 1.86h4.86v.87h-.98c-.26 0-.47.21-.47.48v20.17h-1.96V12.89a.476.476 0 0 0-.47-.48h-.98v-.87zm4.86 1.82v19.7h-.5v-19.7h.5zm-4.36 0v19.7h-.5v-19.7h.5zm-1.96 0h.51v19.7h-.51v-19.7zM27.5 38.2h-.62v-1.61a.48.48 0 0 0-.48-.48c-.26 0-.47.21-.47.48v1.61h-1.01v-1.61c0-.27-.21-.48-.47-.48s-.47.21-.47.48v1.61h-1.01v-1.61c0-.27-.21-.48-.47-.48s-.47.21-.47.48v1.61h-1.01v-1.61c0-.27-.21-.48-.47-.48s-.47.21-.47.48v1.61h-1.01v-1.61c0-.27-.21-.48-.47-.48a.48.48 0 0 0-.48.48v1.61h-.62v-2.46h10v2.46zm0-3.4h-10V34h10v.8zm2.15 3.4h-1.2v-.63h1.2v.63zm0-1.58h-1.2v-.88h1.2v.88z"/><path class="st1" d="M21.52 12.89v20.17h-.95v-19.7h-.5v19.7h-.95v-19.7h-.51v19.7h-.94V12.89c0-.27.21-.48.47-.48h.98v-.03h.95v.03h.98a.476.476 0 0 1 .47.48zM27.33 12.89v20.17h-.94v-19.7h-.51v19.7h-.95v-19.7h-.5v19.7h-.95V12.89c0-.27.21-.48.47-.48h.98v-.03h.95v.03h.98c.13 0 .24.05.33.14s.14.21.14.34z"/><path class="st0" d="M25.74 10.73a.476.476 0 0 0-.34-.14h-.3V9.21c0-.13-.05-.25-.13-.34a.513.513 0 0 0-.34-.13h-.71V7.25a.47.47 0 0 0-.14-.33.47.47 0 0 0-.33-.14h-.48v-.81a.47.47 0 1 0-.94 0v.81h-.48a.47.47 0 0 0-.47.47v1.49h-.71a.47.47 0 0 0-.47.47v1.38h-.3a.48.48 0 0 0-.48.48v1.34h.95v-.87h4.86v.87h.95v-1.34c0-.13-.05-.25-.14-.34zm-3.71-3h.94v1.01h-.94V7.73zm2.13 2.86h-3.32v-.91h3.32v.91z"/></svg>