<svg version="1.1" id="Layer_1" xmlns="http://www.w3.org/2000/svg" x="0" y="0" viewBox="0 0 45 45" style="enable-background:new 0 0 45 45" xml:space="preserve"><style>.st0{fill:#48639e}.st1{fill:#24a7d0}</style><path class="st0" d="M4.77 38.17h35.45v1H4.77zM23.79 19.46h-.95V17.6a.29.29 0 0 0-.58 0v1.87h-.95V17.6c0-.68.56-1.24 1.24-1.24s1.24.56 1.24 1.24v1.86z"/><path class="st0" d="M22.07 15.3h.95v1.78h-.95z"/><path class="st1" d="M25.74 22.26h-.95v-.25c0-1.07-1.05-2.43-2.24-2.43s-2.24 1.36-2.24 2.43v.25h-.95v-.25c0-1.53 1.42-3.38 3.19-3.38s3.19 1.85 3.19 3.38v.25z"/><path class="st0" d="M37.44 38.97H26.62V28.28h10.82v10.69zm-9.87-.95h8.92v-8.78h-8.92v8.78z"/><path class="st0" d="M26.85 35.92h10.37v.95H26.85z"/><path class="st1" d="M28.74 30.23h.95v4.69h-.95zM31.59 30.23h.95v4.69h-.95zM34.44 30.19h.95v4.69h-.95zM9.64 30.23h.95v4.69h-.95zM12.49 30.23h.95v4.69h-.95zM15.34 30.19h.95v4.69h-.95z"/><path class="st0" d="M18.38 38.97H7.56V28.28h10.82v10.69zm-9.87-.95h8.92v-8.78H8.51v8.78z"/><path class="st0" d="M7.78 35.92h10.37v.95H7.78z"/><path class="st0" d="M27.57 38.97H17.43l.01-10.26.79-3.35h8.56l.78 3.34v10.27zm-9.19-.95h8.24v-9.23l-.59-2.47h-7.06l-.6 2.53.01 9.17z"/><path class="st0" d="M17.99 27.2H27v.95h-9.01zM21.94 38.97h-2.49v-2.59c0-.68.55-1.23 1.23-1.23.71 0 1.26.55 1.26 1.23v2.59zm-1.54-.95h.59v-1.64a.28.28 0 0 0-.28-.28c-.19 0-.31.12-.31.28v1.64zM25.63 38.97h-2.49v-2.59c0-.68.55-1.23 1.23-1.23.71 0 1.26.55 1.26 1.23v2.59zm-1.54-.95h.59v-1.64a.28.28 0 0 0-.28-.28c-.19 0-.31.12-.31.28v1.64z"/><path class="st1" d="M19.56 28.51h.95v6.03h-.95zM22.12 28.51h.95v6.03h-.95zM24.68 28.51h.95v6.03h-.95z"/><path class="st0" d="M26.31 26.31h-7.53v-4.5l.34-.1c2.27-.68 4.58-.68 6.85 0l.34.1v4.5zm-6.58-.95h5.63v-2.83c-1.87-.5-3.76-.5-5.63 0v2.83z"/><path class="st0" d="M22.12 21.41h.95v4.66h-.95zM20.46 21.55h.95v4.54h-.95zM23.77 21.55h.95v4.54h-.95z"/></svg>