<svg version="1.1" id="Layer_1" xmlns="http://www.w3.org/2000/svg" x="0" y="0" viewBox="0 0 45 45" style="enable-background:new 0 0 45 45" xml:space="preserve"><style>.st0{fill:#48639e}.st1{fill:#24a7d0}</style><path class="st1" d="M26.35 38.96h-1V26.61H20.9v12.06h-1V25.61h6.45z"/><path class="st1" d="M23.64 27.77h1v9.02h-1zM21.61 27.77h1v9.02h-1zM19.5 17.04h-1v-2.68l4.5-5v6.09h-1v-3.49l-2.5 2.79z"/><path class="st0" d="M15.48 38.67h-1V24.52h2.04v-7.98h5.98v5.36l-1.54 1.57H18.8v2.04h-3.32v13.16zm2.04-14.15h.28v-2.04h2.74l.96-.98v-3.96h-3.98v6.98z"/><path class="st1" d="M27.86 17.04h-1v-2.29l-2.5-2.79v3.49h-1V9.36l4.5 5z"/><path class="st0" d="M31.88 38.67h-1V25.52h-3.32v-2.04H25.4l-1.54-1.57v-5.36h5.98v7.98h2.04v14.14zm-3.32-14.15h.28v-6.98h-3.98v3.96l.96.98h2.74v2.04z"/><path class="st0" d="M24.85 17.13h-1V15.9h-1.37v1.14h-1V14.9h3.37z"/><path class="st1" d="M19 14.42h1.96v1H19zM25.4 14.42h1.96v1H25.4zM22.72 6.36h.81v2.89h-.81z"/><path class="st0" d="M4.77 38.17h35.45v1H4.77z"/></svg>