<svg version="1.1" id="Layer_1" xmlns="http://www.w3.org/2000/svg" x="0" y="0" viewBox="0 0 45 45" style="enable-background:new 0 0 45 45" xml:space="preserve"><style>.st0{fill:#48639e}.st1{fill:#24a7d0}</style><path class="st0" d="M24.72 8.1c0-.01-.01-.01-.01-.02a.48.48 0 0 0-.07-.2l-2-2.98-.02-.02a.138.138 0 0 1-.03-.04.4.4 0 0 0-.19-.11c-.01 0-.01-.01-.02-.01h-.02c-.07-.02-.15 0-.22.02-.02.01-.03.01-.05.02-.02.01-.04.01-.06.03-.05.03-.09.08-.13.13L19.98 7.9a.36.36 0 0 0-.06.2c0 .01-.01.01-.01.02l-1.89 30.34c-.01.12.04.25.12.33.08.09.2.14.33.14h8.1c.25 0 .45-.2.45-.45L24.72 8.1zm-1.18 29.92-.6-29.86.9.3 2.21 29.56h-2.51zm-4.61 0 1.84-29.55 1.27-.36.6 29.9h-3.71zM22.9 7.2l-.03-.35.29.44-.26-.09zm-1.54.18.58-.89.06.71-.64.18z"/><path class="st1" d="M30.07 38.34c-.12 0-.21-.1-.21-.21v-4.2c0-.09.05-.16.13-.2.08-.03.17-.01.23.05l1.46 1.46c.06.06.08.15.05.22-.03.08-.1.13-.18.14l-1.26.08v2.46c-.01.11-.11.2-.22.2zm.21-3.91v.82l.77-.05-.77-.77z"/><path class="st1" d="M30.07 38.48c-.19 0-.35-.16-.35-.35v-4.21c0-.14.08-.27.21-.32.13-.05.28-.02.38.07l1.46 1.46c.1.1.13.24.08.37s-.17.21-.3.22l-1.14.07v2.33c0 .2-.15.36-.34.36zm0-4.64c-.01 0-.02 0-.03.01-.03.01-.05.04-.05.07v4.21c0 .09.16.09.16 0v-2.58l1.39-.09c.03 0 .06-.02.07-.05.01-.03 0-.06-.02-.08l-1.46-1.46c-.02-.02-.04-.03-.06-.03zm.07 1.55v-1.28l1.2 1.2-1.2.08zm.27-.64v.35l.33-.02-.33-.33zM13.25 38.34c-.12 0-.21-.1-.21-.21v-4.21c0-.08.04-.15.11-.19.07-.04.15-.03.22.01l1.74 1.18c.07.05.11.13.09.22a.23.23 0 0 1-.16.17l-1.58.34v2.48c0 .12-.1.21-.21.21zm.21-4.02v.89l1-.22-1-.67z"/><path class="st1" d="M13.25 38.48c-.19 0-.35-.16-.35-.35v-4.21c0-.13.07-.24.18-.3.11-.06.25-.05.36.02l1.74 1.18c.11.08.17.22.15.35-.03.14-.13.24-.27.27l-1.47.32v2.38c0 .18-.15.34-.34.34zm0-4.64c-.01 0-.03 0-.04.01-.03.01-.04.04-.04.07v4.21c0 .09.16.09.16 0v-2.59l1.68-.36a.09.09 0 0 0 .06-.06c.01-.03-.01-.06-.03-.08l-1.74-1.18a.169.169 0 0 0-.05-.02zm.07 1.54v-1.31l1.47.99-1.47.32zm.27-.81v.48l.53-.12-.53-.36z"/><path class="st0" d="M4.77 38.17h35.45v1H4.77z"/></svg>