<svg version="1.1" id="Layer_1" xmlns="http://www.w3.org/2000/svg" x="0" y="0" viewBox="0 0 45 45" style="enable-background:new 0 0 45 45" xml:space="preserve"><style>.st0{fill:#48639e}.st1{fill:#24a7d0}</style><path class="st0" d="M37.12 23.75a.329.329 0 0 0-.33-.31h-5.77l-.03-.5a.338.338 0 0 0-.33-.32l-3.19.01v-.83h.05c.16-.01.3-.12.32-.28a.326.326 0 0 0-.21-.37l-1.5-.54c-.13-.74-.7-3.17-2.86-3.76l-.08-1.41c.02-.02.05-.03.07-.06.11-.15.09-.35-.06-.47-.04-.03-.14-.09-.34-.15-.13-.18-.38-.58-.38-.99a.335.335 0 0 0-.67 0c0 .41-.21.81-.32 1-.2.05-.3.1-.32.11a.33.33 0 0 0-.13.45c.02.05.06.09.11.12l-.04 1.44c-2.08.66-2.63 3.04-2.75 3.77l-1.45.54c-.15.06-.24.22-.21.38s.17.27.33.27h.04v.79h-3.21c-.18 0-.33.15-.33.33l-.01.63-5.56.02c-.17 0-.32.15-.33.32L7.26 38.5c-.01.18.32.34.32.34h.01c.18 0 .33-.14.33-.32l.32-13.07h5.25l-.07 10.02s-.01-.01-.04-.02l-.01 3.22c0 .19.14.34.33.34s.33-.14.34-.33l.05-8.77.01-.72h.57l2.71-.02 1.95-.02 4.04-.03h.01l4.78-.04h.02l2.46-.02.23 9.47c0 .18.15.31.33.31h.02c.18 0 .32-.16.31-.35l-.04-3.65-.34-8.83-.03-.56h5.44l.52 13.08c.01.18.16.32.33.32h.02c.19-.02.32-.36.32-.36l-.63-14.74zM13.5 24.78H8.27l.02-.49 5.22-.02-.01.51zm8.32-9.39c.09-.02.21-.03.36-.03h.02c.14 0 .24.01.32.02l.07 1.35c-.1 0-.21-.01-.32-.01-.17 0-.33.01-.49.03l.04-1.36zm.45 2c2.18 0 2.91 1.97 3.13 2.96l-3.06-1.11a.448.448 0 0 0-.23 0l-3.02 1.14c.22-.99.95-2.99 3.18-2.99zm-.04 2.52 3.4 1.23-6.74.03 3.34-1.26zm-4.49 1.94 9.06-.05v.83l-9.06.01v-.79zm-1.56 6.66h-1.17v-.05h-.67v.06h-.23l.02-1.41c.01-.06.02-.16.01-.28l.02-1.71.01-.22h2.04l-.03 3.61zm2.82-.03-1.28.01v-.03h-.67v.04h-.21l.04-3.6H19v3.58zm3.1-.02h-1.04v.01l-1.39.01V24.9h3.32l.04 3.55-.93.01zm-7.92-4.23v-.22c.01-.03.02-.05.02-.08 0-.02-.01-.04-.02-.07l.01-.55 16.15-.02.05.94H14.18zm11.96 4.2v.03h-1.35v-.02l-1.09.01-.05-3.55h3.18l.13 3.52-.82.01zm2.9-.02v.05h-1.35v-.04h-.06l-.13-3.52h2.06l.16 3.5-.68.01zm1.35-.02-.16-3.49h.19l.09 1.69c-.01.1 0 .19.01.24l.08 1.56h-.21zm.7-3.61-.04-.68h5.43l.04.68h-5.43z"/><path class="st1" d="M9.24 27.42h1v9.54h-1zM11.58 27.42h1v9.54h-1zM32.11 27.42h1v9.54h-1zM34.45 27.42h1v9.54h-1zM22.65 31.26h-.11c-1.44 0-2.62 1.17-2.62 2.62v4.89h5.34v-4.89c0-1.45-1.17-2.62-2.61-2.62zm-.11.62h.11c1.1 0 1.99.9 1.99 2v4.27h-4.09v-4.27c0-1.1.89-2 1.99-2z"/><path class="st1" d="M22.65 31.68h-.11c-1.21 0-2.19.99-2.19 2.2v4.47h4.49v-4.47c0-1.21-.98-2.2-2.19-2.2zm1.79 6.27h-3.69v-4.07c0-.99.8-1.8 1.79-1.8h.11c.99 0 1.79.81 1.79 1.8v4.07zm-1.79-6.27h-.11c-1.21 0-2.19.99-2.19 2.2v4.47h4.49v-4.47c0-1.21-.98-2.2-2.19-2.2zm1.79 6.27h-3.69v-4.07c0-.99.8-1.8 1.79-1.8h.11c.99 0 1.79.81 1.79 1.8v4.07zm-1.79-6.27h-.11c-1.21 0-2.19.99-2.19 2.2v4.47h4.49v-4.47c0-1.21-.98-2.2-2.19-2.2zm1.79 6.27h-3.69v-4.07c0-.99.8-1.8 1.79-1.8h.11c.99 0 1.79.81 1.79 1.8v4.07zm-1.79-6.27h-.11c-1.21 0-2.19.99-2.19 2.2v4.47h4.49v-4.47c0-1.21-.98-2.2-2.19-2.2zm1.79 6.27h-3.69v-4.07c0-.99.8-1.8 1.79-1.8h.11c.99 0 1.79.81 1.79 1.8v4.07zm-1.79-6.27h-.11c-1.21 0-2.19.99-2.19 2.2v4.47h4.49v-4.47c0-1.21-.98-2.2-2.19-2.2zm1.79 6.27h-3.69v-4.07c0-.99.8-1.8 1.79-1.8h.11c.99 0 1.79.81 1.79 1.8v4.07zm-1.79-6.27h-.11c-1.21 0-2.19.99-2.19 2.2v4.47h4.49v-4.47c0-1.21-.98-2.2-2.19-2.2zm1.79 6.27h-3.69v-4.07c0-.99.8-1.8 1.79-1.8h.11c.99 0 1.79.81 1.79 1.8v4.07zm-1.79-6.89h-.11a2.83 2.83 0 0 0-2.82 2.82v5.09h5.74v-5.09c0-1.55-1.26-2.82-2.81-2.82zm2.41 7.51h-4.94v-4.69c0-1.33 1.09-2.42 2.42-2.42h.11a2.42 2.42 0 0 1 2.41 2.42v4.69zm-2.41-6.89h-.11c-1.21 0-2.19.99-2.19 2.2v4.47h4.49v-4.47c0-1.21-.98-2.2-2.19-2.2zm1.79 6.27h-3.69v-4.07c0-.99.8-1.8 1.79-1.8h.11c.99 0 1.79.81 1.79 1.8v4.07zm-1.79-6.27h-.11c-1.21 0-2.19.99-2.19 2.2v4.47h4.49v-4.47c0-1.21-.98-2.2-2.19-2.2zm1.79 6.27h-3.69v-4.07c0-.99.8-1.8 1.79-1.8h.11c.99 0 1.79.81 1.79 1.8v4.07zm-1.79-6.27h-.11c-1.21 0-2.19.99-2.19 2.2v4.47h4.49v-4.47c0-1.21-.98-2.2-2.19-2.2zm1.79 6.27h-3.69v-4.07c0-.99.8-1.8 1.79-1.8h.11c.99 0 1.79.81 1.79 1.8v4.07zm-1.79-6.27h-.11c-1.21 0-2.19.99-2.19 2.2v4.47h4.49v-4.47c0-1.21-.98-2.2-2.19-2.2zm1.79 6.27h-3.69v-4.07c0-.99.8-1.8 1.79-1.8h.11c.99 0 1.79.81 1.79 1.8v4.07zm-1.79-6.27h-.11c-1.21 0-2.19.99-2.19 2.2v4.47h4.49v-4.47c0-1.21-.98-2.2-2.19-2.2zm1.79 6.27h-3.69v-4.07c0-.99.8-1.8 1.79-1.8h.11c.99 0 1.79.81 1.79 1.8v4.07zm-1.79-6.27h-.11c-1.21 0-2.19.99-2.19 2.2v4.47h4.49v-4.47c0-1.21-.98-2.2-2.19-2.2zm1.79 6.27h-3.69v-4.07c0-.99.8-1.8 1.79-1.8h.11c.99 0 1.79.81 1.79 1.8v4.07zm-1.79-6.27h-.11c-1.21 0-2.19.99-2.19 2.2v4.47h4.49v-4.47c0-1.21-.98-2.2-2.19-2.2zm1.79 6.27h-3.69v-4.07c0-.99.8-1.8 1.79-1.8h.11c.99 0 1.79.81 1.79 1.8v4.07z"/><path class="st0" d="M4.77 38.17h35.45v1H4.77z"/></svg>