<svg version="1.1" id="Layer_1" xmlns="http://www.w3.org/2000/svg" x="0" y="0" viewBox="0 0 45 45" style="enable-background:new 0 0 45 45" xml:space="preserve"><style>.st0{fill:#48639e}.st1{fill:#24a7d0}</style><path class="st0" d="M4.77 38.17h35.45v1H4.77z"/><path class="st1" d="M21.88 12.85h.62v6.18h-.62v-6.18z"/><path class="st1" d="M22.7 19.23h-1.02v-6.58h1.02v6.58zm-.62-.4h.22v-5.77h-.22v5.77z"/><path class="st1" d="M20.63 14.21h3.13v.62h-3.13v-.62z"/><path class="st1" d="M23.95 15.03h-3.53v-1.02h3.53v1.02zm-3.12-.4h2.73v-.22h-2.73v.22z"/><path class="st0" d="M28.63 22.36h-3.41l1.71-7.04 1.7 7.04zM26 21.74h1.83l-.92-3.78-.91 3.78z"/><path class="st0" d="M28.88 22.56h-3.92l1.96-8.08 1.96 8.08zm-3.41-.4h2.91l-1.45-5.99-1.46 5.99zm2.62-.22h-2.34l1.17-4.82 1.17 4.82zm-1.83-.4h1.33l-.66-2.73-.67 2.73zM19.09 22.36h-3.41l1.71-7.04 1.7 7.04zm-2.63-.62h1.83l-.92-3.78-.91 3.78z"/><path class="st0" d="M19.34 22.56h-3.92l1.96-8.08 1.96 8.08zm-3.41-.4h2.91l-1.45-5.99-1.46 5.99zm2.62-.22h-2.34l1.17-4.82 1.17 4.82zm-1.83-.4h1.33l-.66-2.73-.67 2.73zM24.78 22.36h-5.19l2.59-3.89 2.6 3.89zm-4.02-.62h2.86l-1.43-2.15-1.43 2.15z"/><path class="st0" d="M25.16 22.56h-5.94l2.97-4.45 2.97 4.45zm-5.19-.4h4.44l-2.22-3.33-2.22 3.33zm4.02-.22h-3.61l1.81-2.71 1.8 2.71zm-2.86-.4h2.12l-1.06-1.59-1.06 1.59z"/><path class="st1" d="M24.86 38.92h-5.34v-4.89c0-1.44 1.17-2.62 2.62-2.62h.1c1.44 0 2.62 1.17 2.62 2.62v4.89zm-4.72-.62h4.1v-4.27c0-1.1-.9-2-2-2h-.1c-1.1 0-2 .9-2 2v4.27z"/><path class="st1" d="M25.06 39.12h-5.74v-5.09c0-1.55 1.26-2.82 2.82-2.82h.1c1.55 0 2.82 1.26 2.82 2.82v5.09zm-5.34-.4h4.94v-4.69c0-1.33-1.08-2.42-2.42-2.42h-.1c-1.33 0-2.42 1.08-2.42 2.42v4.69zm4.72-.22h-4.5v-4.47c0-1.21.99-2.2 2.2-2.2h.1c1.21 0 2.2.99 2.2 2.2v4.47zm-4.1-.4h3.7v-4.07c0-.99-.81-1.8-1.8-1.8h-.1c-.99 0-1.8.81-1.8 1.8v4.07z"/><path class="st0" d="M29.5 38.92H14.88V21.74H29.5v17.18zm-14-.62h13.37V22.36H15.5V38.3z"/><path class="st0" d="M29.7 39.12H14.68V21.54H29.7v17.58zm-14.62-.4H29.3V21.94H15.08v16.78zm13.99-.22H15.3V22.16h13.77V38.5zm-13.37-.4h12.97V22.56H15.7V38.1z"/><path class="st1" d="M32.53 20.37h.62v6.18h-.62v-6.18z"/><path class="st1" d="M33.35 26.75h-1.02v-6.58h1.02v6.58zm-.62-.4h.22v-5.77h-.22v5.77z"/><path class="st1" d="M31.28 21.73h3.13v.62h-3.13v-.62z"/><path class="st1" d="M34.61 22.55h-3.53v-1.02h3.53v1.02zm-3.13-.4h2.73v-.22h-2.73v.22zM11.74 20.37h.62v6.18h-.62v-6.18z"/><path class="st1" d="M12.56 26.75h-1.02v-6.58h1.02v6.58zm-.62-.4h.22v-5.77h-.22v5.77z"/><path class="st1" d="M10.48 21.73h3.13v.62h-3.13v-.62z"/><path class="st1" d="M13.81 22.55h-3.53v-1.02h3.53v1.02zm-3.13-.4h2.73v-.22h-2.73v.22z"/><path class="st0" d="M15.5 38.92H8.81V26.14h6.69v12.78zm-6.06-.62h5.45V26.76H9.44V38.3z"/><path class="st0" d="M15.7 39.12H8.61V25.94h7.09v13.18zm-6.69-.4h6.29V26.34H9.01v12.38zm6.07-.22H9.23V26.56h5.85V38.5zm-5.44-.4h5.05V26.96H9.64V38.1z"/><path class="st0" d="M11.85 28.79h.62v2.78h-.62v-2.78z"/><path class="st0" d="M12.67 31.78h-1.02V28.6h1.02v3.18zm-.62-.41h.22v-2.38h-.22v2.38zM17.25 24.66h.62v2.78h-.62v-2.78z"/><path class="st0" d="M18.08 27.64h-1.02v-3.18h1.02v3.18zm-.63-.4h.22v-2.38h-.22v2.38zM17.25 30.07h.62v2.78h-.62v-2.78z"/><path class="st0" d="M18.08 33.05h-1.02v-3.18h1.02v3.18zm-.63-.4h.22v-2.38h-.22v2.38zM26.16 24.66h.62v2.78h-.62v-2.78z"/><path class="st0" d="M26.98 27.64h-1.02v-3.18h1.02v3.18zm-.62-.4h.22v-2.38h-.22v2.38zM21.88 24.66h.62v2.78h-.62v-2.78z"/><path class="st0" d="M22.7 27.64h-1.02v-3.18h1.02v3.18zm-.62-.4h.22v-2.38h-.22v2.38zM26.16 30.07h.62v2.78h-.62v-2.78z"/><path class="st0" d="M26.98 33.05h-1.02v-3.18h1.02v3.18zm-.62-.4h.22v-2.38h-.22v2.38zM11.85 33.88h.62v2.78h-.62v-2.78z"/><path class="st0" d="M12.67 36.86h-1.02v-3.18h1.02v3.18zm-.62-.4h.22v-2.38h-.22v2.38zM36.19 38.92H29.5V26.14h6.69v12.78zm-6.07-.62h5.45V26.76h-5.45V38.3z"/><path class="st0" d="M36.39 39.12H29.3V25.94h7.09v13.18zm-6.69-.4h6.29V26.34H29.7v12.38zm6.07-.22h-5.85V26.56h5.85V38.5zm-5.45-.4h5.05V26.96h-5.05V38.1z"/><path class="st0" d="M32.53 28.79h.62v2.78h-.62v-2.78z"/><path class="st0" d="M33.35 31.78h-1.02V28.6h1.02v3.18zm-.62-.41h.22v-2.38h-.22v2.38zM32.53 33.88h.62v2.78h-.62v-2.78z"/><path class="st0" d="M33.35 36.86h-1.02v-3.18h1.02v3.18zm-.62-.4h.22v-2.38h-.22v2.38z"/></svg>