<svg width="416" height="375" viewBox="0 0 416 375" fill="none" xmlns="http://www.w3.org/2000/svg">
<path d="M384.832 96.563C378.193 99.79 373.158 105.503 368.3 111.062C365.619 114.13 361.823 117.509 358.012 116.067C355.638 115.169 354.293 112.638 353.654 110.182C353.015 107.726 352.857 105.126 351.833 102.803C348.838 96.009 339.124 94.353 332.657 98.001C326.19 101.649 322.603 108.914 320.755 116.105C318.906 123.296 318.406 130.81 316.142 137.882C315.244 140.688 313.834 143.657 311.128 144.823C307.549 146.364 303.466 144.032 300.767 141.222C298.068 138.412 295.833 134.934 292.303 133.284C287.639 131.105 281.829 132.899 278.153 136.503C274.477 140.107 272.596 145.164 271.477 150.189C267.146 169.634 280.118 197.586 294.103 211.773L405.579 98.271C400.202 93.215 391.472 93.336 384.832 96.563Z" fill="#AAE0FE"/>
<path d="M407.661 118.985C404.554 125.681 398.932 130.818 393.462 135.775C390.443 138.511 387.133 142.367 388.644 146.151C389.585 148.508 392.139 149.807 394.606 150.402C397.073 150.997 399.676 151.108 402.016 152.09C408.863 154.963 410.694 164.645 407.162 171.176C403.631 177.707 396.432 181.425 389.275 183.403C382.118 185.381 374.614 186.017 367.585 188.407C364.796 189.356 361.852 190.819 360.736 193.545C359.259 197.151 361.665 201.191 364.523 203.84C367.381 206.488 370.899 208.66 372.612 212.16C374.875 216.784 373.186 222.625 369.648 226.365C366.11 230.105 361.088 232.077 356.084 233.286C336.721 237.966 308.539 225.5 294.103 211.773L405.579 98.271C410.733 103.558 410.769 112.288 407.661 118.985Z" fill="#77CCFE"/>
<path d="M294.104 211.774C294.679 212.32 295.282 212.863 295.899 213.405L306.38 202.272L357.691 217.82L308.793 199.709L343.359 162.992L385.461 168.751L345.813 160.386L374.387 130.033L344.554 159.149L335.476 119.658L341.992 161.649L305.904 196.87L286.916 148.306L303.386 199.328L292.443 210.008C292.993 210.615 293.547 211.209 294.104 211.774Z" fill="#D8F2FE"/>
<path d="M316.316 217.848C323.61 208.851 332.391 200.843 342.842 195.851C352.87 191.061 364.126 189.205 375.24 189.289C385.783 189.369 396.767 191.347 405.139 197.756C413.511 204.165 418.449 215.866 414.561 225.666C411.872 232.443 405.476 237.262 398.535 239.492C391.594 241.722 384.124 241.662 376.867 240.966C369.61 240.271 362.401 238.963 355.113 238.772C329.934 238.112 305.167 251.649 290.917 272.418C295.603 246.85 309.492 226.265 316.316 217.848Z" fill="#E0422D"/>
<path d="M415.814 216.497C416.096 219.595 415.73 222.716 414.56 225.665C411.871 232.442 405.475 237.261 398.534 239.491C391.593 241.721 384.123 241.661 376.866 240.965C369.609 240.27 362.4 238.962 355.112 238.771C329.933 238.111 305.166 251.648 290.916 272.417C325.232 180.32 415.814 216.497 415.814 216.497Z" fill="#FF5B42"/>
<path d="M277.968 316.759L269.65 334.982C268.919 336.584 269.625 338.475 271.227 339.207C272.829 339.938 274.721 339.232 275.452 337.63L283.77 319.408L277.968 316.759Z" fill="#003672"/>
<path d="M335.009 199.475L320.026 202.634L288.554 271.581C280.55 289.115 274.846 307.611 271.585 326.608L276.048 328.645L280.511 330.682C292.727 315.772 302.964 299.346 310.967 281.812L342.439 212.865L335.009 199.475Z" fill="#FFBB45"/>
<path d="M320.026 202.634L314.021 215.789L336.433 226.02L342.439 212.864L339.061 206.777L326.838 201.197L320.026 202.634Z" fill="#FF9A30"/>
<path d="M367.918 127.379C360.442 123.966 351.615 127.261 348.202 134.737L315.968 205.354L343.041 217.712L375.275 147.095C378.689 139.619 375.395 130.792 367.918 127.379Z" fill="#FFBB45"/>
<path d="M358.4 134.067L357.351 133.588C355.628 132.801 353.594 133.561 352.807 135.284L323.96 198.481C323.173 200.204 323.933 202.239 325.656 203.025L326.705 203.504C328.428 204.291 330.463 203.531 331.249 201.808L360.096 138.611C360.882 136.888 360.122 134.854 358.4 134.067Z" fill="#FFE187"/>
<path d="M320.103 220.228C318.561 219.524 316.74 220.204 316.036 221.746L287.734 283.747C287.03 285.289 287.71 287.11 289.252 287.814C290.794 288.518 292.615 287.838 293.319 286.296L321.621 224.295C322.324 222.752 321.645 220.931 320.103 220.228Z" fill="#FFE187"/>
<path d="M377.783 162.08L342.974 146.191L346.437 138.605L374.751 151.529C378.338 153.166 379.918 157.401 378.281 160.988L377.783 162.08Z" fill="#003672"/>
<path d="M373.172 159.975L343.284 225.451C342.703 226.724 343.264 228.228 344.537 228.809C345.81 229.39 347.314 228.829 347.895 227.556L377.783 162.08L373.172 159.975Z" fill="#003672"/>
<path d="M109.74 230.579C104.206 220.383 97.026 210.889 87.65 204.058C78.653 197.503 67.909 193.614 56.95 191.66C46.554 189.807 35.375 189.743 25.957 194.52C16.539 199.297 9.533 209.914 11.566 220.277C12.972 227.443 18.388 233.36 24.814 236.828C31.24 240.296 38.607 241.605 45.881 242.249C53.155 242.894 60.492 242.927 67.704 244.074C92.619 248.037 114.528 265.904 124.755 288.966C124.822 262.932 114.917 240.117 109.74 230.579Z" fill="#E0422D"/>
<path d="M12.01 211.02C11.165 214.019 10.954 217.159 11.566 220.278C12.972 227.444 18.388 233.361 24.814 236.829C31.24 240.297 38.607 241.606 45.881 242.251C53.155 242.896 60.492 242.929 67.704 244.076C92.619 248.039 114.528 265.906 124.755 288.968C107.836 191.99 12.01 211.02 12.01 211.02Z" fill="#FF5B42"/>
<path d="M251.588 114.794C255.85 103.656 261.884 93.011 270.516 84.784C278.799 76.889 289.222 71.474 300.126 68.002C310.47 64.709 321.853 63.134 332.096 66.729C342.339 70.325 350.913 80.198 350.241 91.033C349.776 98.525 345.057 105.287 338.977 109.689C332.897 114.091 325.567 116.42 318.241 118.06C310.916 119.7 303.443 120.725 296.249 122.868C271.395 130.272 251.483 151.44 244.177 176.323C240.589 149.801 247.601 125.213 251.588 114.794Z" fill="#FF9A30"/>
<path d="M348.537 81.658C349.803 84.6 350.443 87.771 350.241 91.032C349.776 98.524 345.057 105.286 338.977 109.688C332.897 114.09 325.567 116.419 318.241 118.059C310.916 119.699 303.443 120.724 296.249 122.867C271.395 130.271 251.483 151.439 244.177 176.322C248.315 75.213 348.537 81.658 348.537 81.658Z" fill="#FFBB45"/>
<path d="M100.339 244.909C89.391 239.813 77.503 236.323 65.428 236.422C53.841 236.517 42.445 239.924 32.07 245.083C22.227 249.977 12.839 256.852 7.924 266.685C3.009 276.518 3.731 289.739 11.854 297.145C17.471 302.266 25.668 303.858 33.192 302.775C40.716 301.692 47.687 298.22 54.17 294.251C60.653 290.282 66.809 285.761 73.551 282.251C96.843 270.122 126.239 271.485 149.086 284.432C133.006 262.617 110.581 249.677 100.339 244.909Z" fill="#FF9A30"/>
<path d="M6.487 289.128C7.639 292.159 9.409 294.917 11.853 297.145C17.47 302.266 25.667 303.858 33.191 302.775C40.715 301.692 47.686 298.22 54.169 294.251C60.652 290.282 66.808 285.761 73.55 282.251C96.842 270.122 126.238 271.485 149.085 284.432C74.829 213.819 6.487 289.128 6.487 289.128Z" fill="#FFBB45"/>
<path d="M103.374 125.798C99.147 116.885 96.226 107.194 96.237 97.33C96.247 87.864 98.962 78.536 103.116 70.03C107.056 61.961 112.617 54.252 120.62 50.179C128.623 46.106 139.427 46.618 145.525 53.21C149.741 57.768 151.089 64.455 150.249 70.607C149.409 76.759 146.614 82.475 143.409 87.793C140.205 93.112 136.548 98.167 133.72 103.695C123.949 122.793 125.235 146.798 135.945 165.385C118.031 152.378 107.329 134.135 103.374 125.798Z" fill="#FF9A30"/>
<path d="M138.944 48.873C141.427 49.796 143.69 51.226 145.525 53.21C149.741 57.768 151.09 64.455 150.249 70.607C149.409 76.759 146.614 82.475 143.409 87.793C140.205 93.112 136.548 98.167 133.72 103.695C123.949 122.793 125.235 146.798 135.945 165.385C77.828 105.141 138.944 48.873 138.944 48.873Z" fill="#FFBB45"/>
<path d="M311.584 247.436C321.433 243.011 332.104 240.033 342.899 240.267C353.257 240.491 363.405 243.673 372.619 248.41C381.361 252.904 389.671 259.163 393.948 268.012C398.225 276.862 397.421 288.674 390.07 295.198C384.987 299.709 377.639 301.034 370.925 299.976C364.211 298.918 358.02 295.73 352.271 292.104C346.523 288.478 341.072 284.362 335.087 281.143C314.408 270.02 288.109 270.887 267.528 282.189C282.167 262.877 302.371 251.576 311.584 247.436Z" fill="#FF9A30"/>
<path d="M394.964 288.094C393.898 290.79 392.282 293.235 390.07 295.198C384.987 299.709 377.639 301.034 370.925 299.976C364.211 298.918 358.02 295.73 352.271 292.104C346.523 288.478 341.072 284.362 335.087 281.143C314.408 270.021 288.109 270.887 267.528 282.189C334.764 219.945 394.964 288.094 394.964 288.094Z" fill="#FFBB45"/>
<path d="M138.344 68.983C138.176 74.977 140.4 80.749 142.58 86.335C143.783 89.418 144.791 93.421 142.322 95.624C140.783 96.997 138.456 97.015 136.447 96.553C134.438 96.091 132.506 95.228 130.449 95.094C124.431 94.701 119.59 101.075 119.79 107.103C119.99 113.131 123.875 118.442 128.361 122.474C132.846 126.506 138.071 129.688 142.314 133.973C143.998 135.674 145.607 137.804 145.43 140.191C145.196 143.348 141.984 145.413 138.946 146.302C135.908 147.191 132.564 147.495 130.05 149.418C126.729 151.96 125.839 156.818 127.056 160.819C128.272 164.82 131.208 168.074 134.407 170.767C146.787 181.188 171.791 182.34 187.261 177.594L147.365 54.681C141.703 56.655 138.512 62.989 138.344 68.983Z" fill="#FF5B42"/>
<path d="M163.066 60.959C166.723 65.712 168.312 71.689 169.828 77.491C170.665 80.693 172.2 84.525 175.493 84.858C177.544 85.065 179.439 83.713 180.794 82.159C182.149 80.605 183.206 78.772 184.792 77.455C189.432 73.602 197.093 75.919 200.472 80.915C203.85 85.911 203.825 92.492 202.562 98.39C201.299 104.287 198.939 109.931 198.022 115.892C197.658 118.257 197.607 120.927 199.151 122.755C201.194 125.173 205.007 124.957 207.988 123.893C210.969 122.829 213.854 121.11 217.018 121.191C221.198 121.298 224.772 124.707 226.137 128.66C227.503 132.613 227.037 136.97 226.029 141.029C222.129 156.734 202.568 172.351 187.26 177.595L147.364 54.682C153.108 52.953 159.41 56.206 163.066 60.959Z" fill="#E0422D"/>
<path d="M187.261 177.594C187.87 177.385 188.488 177.154 189.109 176.914L185.025 165.184L215.491 134.064L184.085 162.485L170.618 123.8L190.575 95.637L169.662 121.054L158.529 89.075L168.299 121.496L136.446 113.206L169.138 124.28L180.956 163.499L138.846 158.94L181.781 166.235L185.365 178.127C186.01 177.959 186.645 177.783 187.261 177.594Z" fill="#FFA599"/>
<path d="M5.717 105.351C7.374 110.704 11.081 115.139 14.693 119.423C16.686 121.788 18.784 125.025 17.264 127.718C16.317 129.396 14.264 130.113 12.347 130.31C10.43 130.507 8.462 130.326 6.601 130.827C1.159 132.292 -1.202 139.39 0.792002 144.662C2.785 149.934 7.823 153.461 13.005 155.676C18.188 157.891 23.768 159.131 28.813 161.643C30.815 162.64 32.88 164.039 33.443 166.204C34.188 169.067 31.968 171.861 29.549 173.563C27.13 175.265 24.263 176.541 22.619 179C20.447 182.249 21.125 186.814 23.406 189.987C25.687 193.16 29.265 195.153 32.906 196.571C46.997 202.058 69.462 195.543 81.715 186.683L9.385 89.982C4.973 93.434 4.06 99.998 5.717 105.351Z" fill="#FFBB45"/>
<path d="M25.167 90.803C29.834 93.905 33.041 98.714 36.13 103.389C37.835 105.969 40.348 108.896 43.361 108.198C45.238 107.763 46.507 105.997 47.237 104.214C47.967 102.431 48.35 100.491 49.356 98.848C52.299 94.042 59.774 93.782 64.268 97.183C68.762 100.584 70.723 106.413 71.383 112.01C72.043 117.607 71.657 123.311 72.642 128.86C73.033 131.062 73.792 133.439 75.709 134.59C78.245 136.113 81.553 134.773 83.869 132.934C86.185 131.094 88.219 128.705 91.042 127.823C94.772 126.658 98.96 128.597 101.359 131.681C103.758 134.766 104.659 138.761 104.991 142.654C106.274 157.721 93.678 177.43 81.717 186.682L9.38699 89.981C13.946 86.723 20.5 87.701 25.167 90.803Z" fill="#FF9A30"/>
<path d="M81.716 186.683C82.192 186.315 82.669 185.924 83.146 185.524L75.999 176.379L93.57 139.671L74.354 174.275L50.784 144.115L59.95 113.189L49.111 141.974L29.626 117.042L48.038 142.776L17.364 145.042L49.619 144.986L71.892 176.116L33.27 184.774L73.447 178.289L80.201 187.728C80.719 187.383 81.229 187.035 81.716 186.683Z" fill="#FFE1AD"/>
<path d="M103.36 122.349L89.303 51.147L73.338 54.299L57.373 57.451L71.43 128.653L40.934 191.253C35.2 203.023 45.404 216.275 58.249 213.739L103.068 204.891L147.887 196.043C160.732 193.507 165.134 177.372 155.358 168.664L103.36 122.349Z" fill="#AAE0FE"/>
<path d="M88.613 47.651L56.683 53.955C54.752 54.336 53.496 56.211 53.877 58.141C54.258 60.072 56.132 61.328 58.063 60.947L89.993 54.643C91.924 54.262 93.18 52.388 92.799 50.457C92.418 48.526 90.544 47.27 88.613 47.651Z" fill="#AAE0FE"/>
<path d="M151.855 182.418C152.611 179.646 151.815 176.961 149.67 175.051L132.012 159.323C120.867 165.813 107.953 169.298 95.053 168.968C86.181 168.741 77.368 166.819 68.505 167.268C66.23 167.383 63.98 167.66 61.749 168.053L48.623 194.997C47.365 197.58 47.649 200.367 49.402 202.643C51.155 204.919 53.775 205.905 56.593 205.349L146.231 187.652C149.049 187.096 151.098 185.188 151.855 182.418Z" fill="#FF9A30"/>
<path d="M69.833 63.225C67.033 63.778 65.212 66.495 65.765 69.295L76.371 123.017C76.924 125.817 79.641 127.638 82.441 127.085C85.241 126.532 87.062 123.815 86.509 121.015L75.903 67.293C75.351 64.493 72.633 62.672 69.833 63.225Z" fill="white"/>
<path d="M61.5827 35.3677C62.7559 30.3992 59.6792 25.4203 54.7107 24.2471C49.7422 23.0739 44.7634 26.1506 43.5902 31.1191C42.417 36.0876 45.4937 41.0665 50.4622 42.2397C55.4307 43.4129 60.4095 40.3362 61.5827 35.3677Z" fill="#AAE0FE"/>
<path d="M76.556 41.235C76.556 43.365 74.829 45.092 72.699 45.092C70.569 45.092 68.842 43.365 68.842 41.235C68.842 39.105 70.569 37.378 72.699 37.378C74.829 37.379 76.556 39.105 76.556 41.235Z" fill="#AAE0FE"/>
<path d="M294.962 315.876L318.918 334.06L389.914 240.529L365.958 222.346L294.962 315.876Z" fill="#E0422D"/>
<path d="M389.926 240.515L401.549 225.203C403.683 222.392 403.134 218.382 400.323 216.248L386.548 205.792C383.737 203.658 379.727 204.207 377.593 207.018L365.97 222.33L389.926 240.515Z" fill="#FFE5B2"/>
<path d="M365.962 222.346L389.918 240.53L393.312 236.058L369.356 217.874L365.962 222.346Z" fill="#6593C7"/>
<path d="M301.363 320.733L312.52 329.202L383.516 235.671L372.359 227.202L301.363 320.733Z" fill="#FF9A30"/>
<path d="M281.15 358.938L318.925 334.047L306.947 324.954L294.969 315.862L281.15 358.938Z" fill="#FFE5B2"/>
<path d="M281.15 358.938L291.083 352.392L284.784 347.61L281.15 358.938Z" fill="#003672"/>
<path d="M198.12 85.006L187.14 143.311L187.155 143.314C185.535 153.662 206.829 166.271 234.993 171.575C263.158 176.879 287.579 172.878 289.834 162.65L289.849 162.653L300.829 104.348L198.12 85.006Z" fill="#003672"/>
<path d="M240.489 142.396C245.057 143.256 249.526 143.871 253.818 144.254C258.824 144.701 262.339 149.382 261.409 154.321L257.72 173.911C275.269 174.092 288.222 169.965 289.835 162.65L289.85 162.653L296.26 128.614L300.83 104.348L198.12 85.006L192.635 114.132L192.65 114.135C191.031 124.483 212.324 137.092 240.489 142.396Z" fill="#002854"/>
<path d="M249.801 64.519L153.117 71.696C146.812 72.164 145.207 80.685 150.91 83.414L238.361 125.267C241.579 126.807 245.144 127.478 248.702 127.214L345.386 120.037C351.691 119.569 353.296 111.048 347.593 108.319L260.142 66.466C256.923 64.926 253.358 64.255 249.801 64.519Z" fill="#003672"/>
<path d="M295.173 188.478C290.51 187.6 285.256 194.708 283.44 204.355C283.135 205.974 286.668 207.999 291.332 208.877C295.995 209.755 300.023 209.154 300.328 207.535C302.144 197.888 299.836 189.356 295.173 188.478Z" fill="#FFBB45"/>
<path d="M300.056 189.877C300.573 187.132 298.767 184.487 296.021 183.97C293.276 183.453 290.631 185.259 290.114 188.005C289.597 190.75 291.403 193.395 294.149 193.912C296.895 194.428 299.539 192.622 300.056 189.877Z" fill="#003672"/>
<path d="M295.086 188.941C293.58 188.658 292.589 187.207 292.873 185.701L304.423 124.368L248.5 95.581C247.137 94.879 246.601 93.206 247.302 91.844C248.004 90.481 249.679 89.948 251.039 90.647L308.802 120.38C309.894 120.942 310.486 122.154 310.259 123.361L298.326 186.728C298.042 188.233 296.591 189.224 295.086 188.941Z" fill="#FFBB45"/>
<path d="M299.868 176.174L201.899 180.522C201.651 180.533 201.403 180.533 201.155 180.522L103.186 176.174H102.221C97.587 176.174 93.83 179.931 93.83 184.565V286.063C93.83 290.457 97.219 294.107 101.601 294.431C121.842 295.932 176.361 299.952 201.527 301.593C226.693 299.952 281.213 295.932 301.453 294.431C305.835 294.106 309.224 290.456 309.224 286.063V184.565C309.224 179.931 305.467 176.174 300.833 176.174H299.868Z" fill="#003672"/>
<path d="M106.322 164.286L99.527 182.88L98.706 284.649L106.322 274.275C106.322 274.275 127.362 171.002 106.322 164.286Z" fill="#FAB45A"/>
<path d="M106.322 274.275L98.706 284.649L201.527 295.203V285.724C201.527 285.724 145.927 252.272 106.322 274.275Z" fill="#FAB45A"/>
<path d="M296.732 274.275L304.348 284.649L201.527 295.203V285.724C201.527 285.724 257.126 252.272 296.732 274.275Z" fill="#FAB45A"/>
<path d="M201.527 285.723V174.508C201.527 174.508 150.497 139.753 106.322 164.286V274.275C106.322 274.275 141.357 259.146 201.527 285.723Z" fill="#FFEDCC"/>
<path d="M296.732 164.286L303.527 182.88L304.348 284.649L296.732 274.275C296.732 274.275 275.691 171.002 296.732 164.286Z" fill="#FAB45A"/>
<path d="M201.527 285.723V174.508C201.527 174.508 252.557 139.753 296.732 164.286V274.275C296.732 274.275 261.696 259.146 201.527 285.723Z" fill="#FFEDCC"/>
<path d="M201.527 187.217L205.573 285.723L201.527 286.609V187.217Z" fill="#FAB45A"/>
<path d="M191.412 182.879C191.271 182.879 191.127 182.841 190.995 182.76C169.133 169.416 142.474 165.536 117.855 172.115C117.393 172.237 116.931 171.93 116.819 171.428C116.707 170.926 116.988 170.42 117.448 170.297C142.483 163.607 169.596 167.554 191.832 181.126C192.245 181.378 192.393 181.948 192.162 182.399C192.004 182.706 191.713 182.879 191.412 182.879Z" fill="#6593C7"/>
<path d="M191.412 193.756C191.271 193.756 191.127 193.718 190.995 193.637C169.133 180.293 142.474 176.412 117.855 182.991C117.393 183.114 116.931 182.806 116.819 182.304C116.707 181.802 116.988 181.296 117.448 181.173C142.483 174.482 169.595 178.43 191.832 192.003C192.245 192.255 192.393 192.825 192.162 193.276C192.004 193.583 191.713 193.756 191.412 193.756Z" fill="#6593C7"/>
<path d="M191.412 204.633C191.271 204.633 191.127 204.595 190.995 204.514C169.133 191.169 142.474 187.289 117.855 193.869C117.393 193.992 116.931 193.684 116.819 193.182C116.707 192.68 116.988 192.174 117.448 192.051C142.483 185.36 169.595 189.309 191.832 202.88C192.245 203.132 192.393 203.702 192.162 204.153C192.004 204.46 191.713 204.633 191.412 204.633Z" fill="#6593C7"/>
<path d="M191.412 215.51C191.271 215.51 191.127 215.472 190.995 215.391C169.133 202.047 142.474 198.166 117.855 204.746C117.393 204.868 116.931 204.561 116.819 204.059C116.707 203.557 116.988 203.051 117.448 202.928C142.483 196.238 169.596 200.185 191.832 213.757C192.245 214.009 192.393 214.579 192.162 215.03C192.004 215.337 191.713 215.509 191.412 215.51Z" fill="#6593C7"/>
<path d="M191.412 226.387C191.271 226.387 191.127 226.349 190.995 226.268C169.133 212.924 142.474 209.043 117.855 215.622C117.393 215.744 116.931 215.437 116.819 214.936C116.707 214.434 116.988 213.928 117.448 213.805C142.483 207.114 169.595 211.062 191.832 224.635C192.245 224.887 192.393 225.457 192.162 225.908C192.004 226.214 191.713 226.386 191.412 226.387Z" fill="#6593C7"/>
<path d="M191.412 237.263C191.271 237.263 191.127 237.225 190.995 237.144C180.314 230.624 167.981 226.209 155.329 224.374C154.86 224.306 154.53 223.836 154.592 223.323C154.654 222.81 155.085 222.452 155.554 222.519C168.419 224.384 180.963 228.876 191.831 235.51C192.244 235.762 192.392 236.332 192.161 236.783C192.004 237.091 191.713 237.263 191.412 237.263Z" fill="#6593C7"/>
<path d="M191.412 248.14C191.271 248.14 191.127 248.102 190.995 248.021C180.05 241.34 167.405 236.881 154.427 235.125C153.958 235.062 153.624 234.594 153.682 234.082C153.74 233.569 154.166 233.205 154.638 233.269C167.834 235.054 180.695 239.591 191.832 246.388C192.245 246.64 192.393 247.21 192.162 247.661C192.004 247.968 191.713 248.14 191.412 248.14Z" fill="#6593C7"/>
<path d="M191.412 259.017C191.271 259.017 191.127 258.979 190.995 258.898C179.873 252.109 167.02 247.623 153.824 245.922C153.354 245.862 153.018 245.397 153.074 244.883C153.129 244.37 153.555 243.998 154.025 244.064C167.441 245.792 180.514 250.357 191.831 257.264C192.244 257.516 192.392 258.086 192.161 258.537C192.004 258.844 191.713 259.017 191.412 259.017Z" fill="#6593C7"/>
<path d="M191.412 269.893C191.271 269.893 191.127 269.855 190.995 269.774C179.873 262.985 167.02 258.499 153.824 256.798C153.354 256.738 153.018 256.273 153.074 255.759C153.129 255.246 153.555 254.871 154.025 254.94C167.441 256.668 180.514 261.233 191.831 268.14C192.244 268.392 192.392 268.962 192.161 269.413C192.004 269.721 191.713 269.893 191.412 269.893Z" fill="#6593C7"/>
<path d="M285.403 172.142C285.336 172.142 285.267 172.133 285.199 172.115C271.935 168.571 257.643 168.057 243.867 170.631C243.402 170.718 242.958 170.376 242.878 169.866C242.798 169.357 243.112 168.873 243.578 168.786C257.582 166.169 272.116 166.692 285.606 170.297C286.066 170.42 286.347 170.926 286.235 171.428C286.139 171.856 285.789 172.142 285.403 172.142Z" fill="#6593C7"/>
<path d="M285.403 183.019C285.336 183.019 285.267 183.01 285.199 182.992C271.901 179.438 257.574 178.932 243.766 181.527C243.302 181.618 242.857 181.273 242.776 180.764C242.696 180.255 243.009 179.771 243.475 179.683C257.512 177.044 272.08 177.56 285.606 181.174C286.066 181.297 286.347 181.803 286.235 182.305C286.139 182.732 285.789 183.019 285.403 183.019Z" fill="#6593C7"/>
<path d="M285.403 193.895C285.336 193.895 285.267 193.886 285.199 193.868C271.852 190.301 257.475 189.804 243.622 192.43C243.161 192.521 242.712 192.177 242.631 191.668C242.55 191.159 242.862 190.674 243.329 190.586C257.412 187.917 272.032 188.423 285.606 192.05C286.066 192.173 286.347 192.679 286.235 193.181C286.139 193.609 285.789 193.895 285.403 193.895Z" fill="#6593C7"/>
<path d="M285.403 204.772C285.336 204.772 285.267 204.763 285.199 204.745C271.859 201.18 257.488 200.682 243.64 203.304C243.175 203.394 242.73 203.051 242.649 202.542C242.568 202.033 242.881 201.548 243.347 201.46C257.426 198.795 272.04 199.302 285.606 202.927C286.066 203.05 286.347 203.556 286.235 204.058C286.139 204.486 285.789 204.772 285.403 204.772Z" fill="#6593C7"/>
<path d="M211.641 226.387C211.341 226.387 211.049 226.214 210.892 225.908C210.661 225.457 210.809 224.887 211.222 224.635C233.458 211.063 260.57 207.115 285.606 213.805C286.066 213.928 286.347 214.434 286.235 214.936C286.123 215.438 285.659 215.744 285.199 215.622C260.579 209.044 233.921 212.923 212.059 226.268C211.926 226.348 211.783 226.387 211.641 226.387Z" fill="#6593C7"/>
<path d="M211.641 237.657C211.341 237.657 211.049 237.485 210.892 237.178C210.661 236.727 210.809 236.157 211.222 235.905C233.458 222.332 260.57 218.385 285.606 225.075C286.066 225.198 286.347 225.704 286.235 226.206C286.123 226.708 285.659 227.016 285.199 226.892C260.579 220.313 233.921 224.193 212.059 237.538C211.926 237.618 211.783 237.657 211.641 237.657Z" fill="#6593C7"/>
<path d="M211.641 248.534C211.341 248.534 211.049 248.362 210.892 248.055C210.661 247.604 210.809 247.034 211.222 246.782C233.458 233.209 260.57 229.262 285.606 235.952C286.066 236.075 286.347 236.581 286.235 237.083C286.123 237.584 285.659 237.893 285.199 237.77C260.579 231.191 233.921 235.072 212.059 248.416C211.926 248.495 211.783 248.534 211.641 248.534Z" fill="#6593C7"/>
<path d="M211.641 259.41C211.341 259.41 211.049 259.238 210.892 258.931C210.661 258.48 210.809 257.91 211.222 257.658C233.458 244.087 260.569 240.138 285.606 246.829C286.066 246.952 286.347 247.458 286.235 247.96C286.123 248.461 285.659 248.769 285.199 248.647C260.579 242.067 233.921 245.948 212.059 259.292C211.926 259.372 211.783 259.41 211.641 259.41Z" fill="#6593C7"/>
<path d="M211.641 270.287C211.341 270.287 211.049 270.115 210.892 269.808C210.661 269.357 210.809 268.787 211.222 268.535C233.458 254.963 260.569 251.015 285.606 257.706C286.066 257.829 286.347 258.335 286.235 258.837C286.123 259.338 285.659 259.645 285.199 259.524C260.579 252.945 233.921 256.824 212.059 270.169C211.926 270.249 211.783 270.287 211.641 270.287Z" fill="#6593C7"/>
<path d="M117.652 222.306V258.082C117.652 258.082 130.981 255.283 148.831 255.871V219.499C148.831 219.499 136.597 218.251 117.652 222.306Z" fill="#6593C7"/>
<path d="M211.641 180.514V215.704C211.641 215.704 220.768 208.609 234.563 205.099V171.206C234.563 171.206 223.754 172.772 211.641 180.514Z" fill="#6593C7"/>
<path d="M105.005 300.309L98.0573 304.625L107.076 319.142L114.023 314.826L105.005 300.309Z" fill="#6593C7"/>
<path d="M123.714 270.443C123.896 247.09 105.112 228.01 81.7587 227.828C58.4053 227.646 39.326 246.43 39.1439 269.783C38.9617 293.137 57.7457 312.216 81.0991 312.398C104.452 312.58 123.532 293.796 123.714 270.443Z" fill="#003672"/>
<path d="M106.182 294.886C119.859 281.21 119.859 259.036 106.182 245.36C92.5058 231.683 70.3319 231.683 56.6555 245.36C42.9791 259.036 42.9791 281.21 56.6555 294.886C70.3319 308.563 92.5058 308.563 106.182 294.886Z" fill="#AAE0FE"/>
<path d="M111.17 251.645C100.964 235.215 79.372 230.17 62.942 240.376L99.901 299.872C116.331 289.666 121.376 268.074 111.17 251.645Z" fill="#8CCDF5"/>
<path d="M66.113 245.48C81.682 235.809 101.881 239.84 112.639 254.269C112.188 253.383 111.705 252.505 111.17 251.645C100.964 235.215 79.372 230.17 62.942 240.376C46.513 250.582 41.467 272.174 51.673 288.604C52.208 289.464 52.78 290.286 53.375 291.083C45.208 275.045 50.544 255.151 66.113 245.48Z" fill="#6593C7"/>
<path d="M112.639 254.269C112.418 253.835 112.189 253.403 111.95 252.975C111.699 252.529 111.443 252.084 111.17 251.645C100.964 235.215 79.372 230.17 62.942 240.376L66.112 245.48C81.682 235.808 101.881 239.84 112.639 254.269Z" fill="#4C77AD"/>
<path d="M111.689 311.476L105.081 315.581C103.212 316.742 102.638 319.198 103.799 321.067L132.205 366.795C134.499 370.489 139.354 371.623 143.047 369.328C146.741 367.034 147.875 362.179 145.58 358.486L117.174 312.758C116.013 310.889 113.557 310.315 111.689 311.476Z" fill="#003672"/>
<path d="M107.147 317.912C106.239 318.476 105.96 319.67 106.524 320.578L134.212 365.15C134.776 366.058 135.97 366.337 136.878 365.773C137.786 365.209 138.065 364.015 137.501 363.107L109.813 318.535C109.248 317.627 108.055 317.348 107.147 317.912Z" fill="#4C77AD"/>
<path d="M329.169 31.232C321.537 31.232 314.625 34.318 309.613 39.308C306.728 37.903 303.489 37.113 300.064 37.113C293.136 37.113 286.966 40.343 282.965 45.375C281.025 44.46 278.865 43.934 276.578 43.934C268.284 43.934 261.56 50.658 261.56 58.952H356.891C356.889 43.643 344.478 31.232 329.169 31.232Z" fill="#AAE0FE"/>
<path d="M140.025 23.978C137.533 23.978 135.224 24.754 133.319 26.072C129.861 19.685 123.102 15.347 115.33 15.347C104.04 15.347 94.887 24.5 94.887 35.79H151.837C151.837 29.266 146.548 23.978 140.025 23.978Z" fill="#AAE0FE"/>
<path d="M66.185 160.14H87.832L95.126 227.107H88.538L78.787 172.553C78.572 171.606 77.731 170.934 76.76 170.934C75.648 170.934 74.734 171.809 74.684 172.919L72.773 227.107H66.185V160.14Z" fill="#003672"/>
<path d="M89.16 120.511H72.89C70.821 120.511 69.102 122.104 68.944 124.167L66.187 160.141H87.834L93.076 125.054C93.432 122.661 91.579 120.511 89.16 120.511Z" fill="#E0422D"/>
<path d="M77.246 114.223L76.908 121.168C76.821 122.964 78.205 124.49 80.001 124.578C81.797 124.665 83.323 123.28 83.41 121.485L83.748 114.54L77.246 114.223Z" fill="#F8C79F"/>
<path d="M76.978 119.747C78.131 119.61 79.26 119.287 80.317 118.809C81.588 118.235 82.682 117.452 83.653 116.514L83.749 114.538L77.246 114.222L76.978 119.747Z" fill="#D9A275"/>
<path d="M71.234 98.82C72.91 96.587 76.53 95.679 79.566 96.314C82.134 96.851 85.237 98.659 86.296 100.752C87.153 102.446 86.962 104.888 86.606 106.992C86.779 106.952 86.961 106.928 87.152 106.928C87.97 106.931 88.799 107.372 88.939 108.106C89.292 109.964 87.514 111.329 86.087 111.415C85.892 111.442 85.691 111.439 85.489 111.413C84.493 113.93 82.736 116.237 79.882 117.293C78.141 117.937 75.983 117.993 74.476 117.066C73.304 116.346 72.691 115.157 72.341 113.978C72.042 112.972 71.896 111.932 71.91 110.891C71.92 110.133 72.013 109.371 71.903 108.62C71.773 107.734 71.367 106.898 71.023 106.056C70.063 103.706 69.63 100.956 71.234 98.82Z" fill="#F8C79F"/>
<path d="M77.668 103.954C78.302 104.052 79.022 104.367 79.3 104.917C79.446 105.208 78.978 105.466 78.815 105.172C78.574 104.738 78 104.58 77.508 104.48C77.255 104.428 76.991 104.389 76.731 104.385C76.509 104.382 76.32 104.483 76.107 104.47C76.001 104.463 75.951 104.376 75.993 104.292C76.214 103.853 77.239 103.888 77.668 103.954Z" fill="#003672"/>
<path d="M70.793 104.382C71.179 103.892 72.375 103.687 72.785 104.25C72.906 104.417 72.665 104.633 72.478 104.525C71.996 104.244 71.538 104.406 71.081 104.641C70.909 104.73 70.666 104.543 70.793 104.382Z" fill="#003672"/>
<path d="M78.212 109.365C78.34 109.276 78.517 109.222 78.67 109.181C79.211 109.036 79.394 109.741 78.897 109.921C78.605 110.027 78.294 109.926 78.111 109.71C78.011 109.592 78.105 109.44 78.212 109.365Z" fill="#DD675B"/>
<path d="M72.31 109.153C72.465 109.144 72.537 109.188 72.643 109.284C72.891 109.507 72.506 109.852 72.258 109.63C72.152 109.534 72.103 109.467 72.112 109.331C72.119 109.23 72.197 109.16 72.31 109.153Z" fill="#DD675B"/>
<path d="M78.354 107.956C79.061 107.956 79.062 108.941 78.354 108.941C77.647 108.941 77.646 107.956 78.354 107.956Z" fill="#003672"/>
<path d="M72.942 107.735C73.603 107.735 73.605 108.657 72.942 108.657C72.281 108.657 72.28 107.735 72.942 107.735Z" fill="#003672"/>
<path d="M73.576 110.564C74.287 110.647 74.518 109.403 74.577 108.953C74.62 108.624 75.103 108.538 75.233 108.873C75.626 109.891 75.041 111.722 73.576 111.627C72.806 111.577 72.834 110.476 73.576 110.564Z" fill="#DD675B"/>
<path d="M78.233 111.111C78.301 111.026 78.418 110.927 78.516 110.984C78.552 111.005 78.571 111.042 78.588 111.078C78.951 111.866 78.694 112.85 77.98 113.413C77.266 113.976 76.145 114.077 75.32 113.653C74.732 113.351 74.717 112.745 75.411 112.631C76.123 112.514 76.78 112.296 77.363 111.903C77.695 111.68 77.991 111.413 78.233 111.111Z" fill="white"/>
<path d="M87.011 94.991C78.069 87.553 73.56 100.486 71.615 101.62C71.504 101.685 71.389 101.734 71.277 101.795C72.095 101.941 72.928 102.017 73.754 102.018C76.3 102.019 79.113 101.452 81.592 100.872C81.255 104.267 82.58 107.786 84.87 110.315C85.432 108.091 85.898 107.664 86.448 107.351C87.386 106.818 88.024 107.119 88.559 107.631C90.411 104.785 93.119 94.179 87.011 94.991Z" fill="#003672"/>
<path d="M80.637 90.656C77.962 90.077 75.066 90.59 72.753 92.053C69.315 94.228 67.389 98.194 64.136 100.638C65.197 100.456 66.258 100.275 67.319 100.093C66.246 100.628 65.173 101.163 64.1 101.698C67.45 102.243 70.856 102.443 74.246 102.292C76.743 102.181 79.273 101.87 81.57 100.884C83.519 100.047 85.428 98.625 86.456 96.728C87.556 94.7 85.741 93.16 84.135 92.12C83.069 91.429 81.88 90.925 80.637 90.656Z" fill="#003672"/>
<path d="M61.636 144.398C59.402 144.251 58.262 141.301 58.04 139.665L55.825 122.891L60.171 122.3L63.139 135.315L69.466 122.731L74.874 129.578C74.874 129.578 67.227 144.765 61.636 144.398Z" fill="#E0422D"/>
<path d="M60.171 122.3L59.075 117.446C58.878 116.572 58.101 115.951 57.205 115.951H52.559C51.864 115.951 51.3 116.515 51.3 117.21V120.681C51.3 121.247 51.678 121.743 52.223 121.894L55.825 122.891L60.171 122.3Z" fill="#F8C79F"/>
<path d="M57.738 113.93L54.821 125.18L51.738 124.097L54.738 113.722L57.738 113.93Z" fill="#A33021"/>
<path d="M34.65 100.224V112.019V123.814L58.413 114.136C59.274 113.785 59.837 112.948 59.837 112.018C59.837 111.088 59.274 110.251 58.413 109.9L34.65 100.224Z" fill="#E0422D"/>
<path d="M34.65 123.814C36.5974 123.814 38.176 118.533 38.176 112.019C38.176 105.505 36.5974 100.224 34.65 100.224C32.7026 100.224 31.124 105.505 31.124 112.019C31.124 118.533 32.7026 123.814 34.65 123.814Z" fill="#A33021"/>
<path d="M57.509 116.742H53.405L52.28 121.367H54.155L55.009 118.534L56.821 119.763L57.509 116.742Z" fill="#F8C79F"/>
<path d="M84.17 121.367L104.3 117.888L113.05 97.138L117.3 98.279L110.929 120.298C110.458 121.927 109.238 123.234 107.645 123.817L86.925 131.391L84.17 121.367Z" fill="#E0422D"/>
<path d="M120.28 88.972C119.021 87.303 116.297 91.35 114.575 94.324C112.212 87.148 113.05 97.138 113.05 97.138L117.3 98.279C117.3 98.279 122.196 91.513 120.28 88.972Z" fill="#F8C79F"/>
<path d="M72.774 227.108V232.833C72.774 232.833 39.493 247.744 66.186 227.108H72.774Z" fill="#E0422D"/>
<path d="M88.538 227.108L89.339 232.146C89.339 232.146 117.6 245.571 95.126 227.108H88.538Z" fill="#E0422D"/>
<path d="M226.693 67.951H194.93V77.27H226.693V67.951Z" fill="#FF9A30"/>
<path d="M238.948 46.641L238.193 44.994C237.949 44.431 237.659 43.937 237.378 43.427C237.092 42.927 236.824 42.392 236.512 41.935L235.598 40.522C235.285 40.067 234.958 39.638 234.637 39.196C234.319 38.748 233.985 38.333 233.647 37.927C233.308 37.523 232.981 37.091 232.631 36.712L231.589 35.554C230.879 34.817 230.171 34.075 229.435 33.397C229.071 33.048 228.705 32.705 228.331 32.381C227.958 32.053 227.59 31.715 227.209 31.405C226.454 30.768 225.689 30.155 224.905 29.568C224.516 29.272 224.117 28.984 223.715 28.7L223.1 28.276L222.445 27.846C220.467 26.544 218.012 27.47 216.957 29.91C215.902 32.351 216.65 35.385 218.628 36.687L218.745 36.764L219.207 37.068L219.696 37.406C220.025 37.64 220.355 37.876 220.683 38.127C221.341 38.619 221.99 39.14 222.627 39.678C222.951 39.939 223.258 40.225 223.572 40.5C223.888 40.773 224.193 41.059 224.495 41.35C225.112 41.916 225.687 42.526 226.269 43.125L227.107 44.056C227.392 44.361 227.638 44.696 227.907 45.014C228.174 45.333 228.435 45.655 228.671 45.993C228.912 46.327 229.165 46.654 229.398 46.992L230.061 48.02C230.212 48.233 230.334 48.458 230.455 48.682C230.285 48.937 230.108 49.19 229.924 49.442C229.643 49.822 229.387 50.218 229.078 50.588L228.182 51.718L227.234 52.822C226.923 53.195 226.587 53.549 226.256 53.909C225.923 54.266 225.598 54.633 225.251 54.979C224.572 55.686 223.876 56.377 223.167 57.057C222.817 57.403 222.451 57.729 222.094 58.066C221.736 58.404 221.371 58.73 221.005 59.057C220.276 59.715 219.532 60.355 218.784 60.981L217.656 61.911L216.541 62.794L216.444 62.87C215.414 63.683 215.001 65.329 215.524 66.741C216.097 68.286 217.577 68.964 218.829 68.257L220.17 67.499L221.471 66.726C222.335 66.203 223.192 65.668 224.042 65.107C224.468 64.829 224.894 64.551 225.315 64.259C225.736 63.967 226.163 63.688 226.581 63.384C227.422 62.79 228.258 62.175 229.087 61.534C229.505 61.225 229.914 60.882 230.326 60.551C230.738 60.217 231.152 59.89 231.557 59.528L232.779 58.461L233.984 57.32C234.39 56.952 234.778 56.515 235.174 56.108C235.57 55.699 235.965 55.282 236.347 54.811C236.73 54.343 237.125 53.923 237.498 53.407L238.616 51.86L238.637 51.829C239.552 50.381 239.726 48.338 238.948 46.641Z" fill="#E0422D"/>
<path d="M219.207 37.068L219.696 37.406C220.025 37.64 220.355 37.876 220.683 38.127C221.341 38.619 221.99 39.14 222.627 39.678C222.951 39.939 223.258 40.225 223.572 40.5C223.888 40.773 224.193 41.059 224.495 41.35C225.112 41.916 225.687 42.526 226.269 43.125L227.107 44.056C227.344 44.309 227.554 44.581 227.772 44.848C226.714 38.809 222.427 31.351 222.427 31.351C220.482 31.159 219.5 34.136 219.006 36.937L219.207 37.068Z" fill="#A33021"/>
<path d="M182.619 46.641L183.374 44.994C183.618 44.431 183.908 43.937 184.189 43.427C184.475 42.927 184.743 42.392 185.055 41.935L185.969 40.522C186.282 40.067 186.609 39.638 186.93 39.196C187.248 38.748 187.582 38.333 187.92 37.927C188.259 37.523 188.586 37.091 188.936 36.712L189.978 35.554C190.688 34.817 191.397 34.075 192.132 33.397C192.496 33.048 192.862 32.705 193.236 32.381C193.609 32.053 193.977 31.715 194.358 31.405C195.113 30.768 195.878 30.155 196.662 29.568C197.051 29.272 197.45 28.984 197.852 28.7L198.466 28.276L199.121 27.846C201.099 26.544 203.554 27.47 204.609 29.91C205.664 32.351 204.916 35.385 202.938 36.687L202.821 36.764L202.359 37.068L201.87 37.406C201.541 37.64 201.211 37.876 200.883 38.127C200.225 38.619 199.576 39.14 198.939 39.678C198.615 39.939 198.308 40.225 197.994 40.5C197.678 40.773 197.373 41.059 197.071 41.35C196.454 41.916 195.879 42.526 195.297 43.125L194.459 44.056C194.174 44.361 193.928 44.696 193.659 45.014C193.392 45.333 193.131 45.655 192.895 45.993C192.654 46.327 192.401 46.654 192.168 46.992L191.505 48.02C191.354 48.233 191.232 48.458 191.111 48.682C191.281 48.937 191.458 49.19 191.642 49.442C191.923 49.822 192.179 50.218 192.488 50.588L193.384 51.718L194.332 52.822C194.644 53.195 194.979 53.549 195.31 53.909C195.643 54.266 195.968 54.633 196.315 54.979C196.994 55.686 197.69 56.377 198.4 57.057C198.75 57.403 199.116 57.729 199.473 58.066C199.83 58.404 200.196 58.73 200.562 59.057C201.291 59.715 202.034 60.355 202.783 60.981L203.911 61.911L205.026 62.794L205.123 62.87C206.153 63.683 206.566 65.329 206.043 66.741C205.47 68.286 203.99 68.964 202.738 68.257L201.397 67.499L200.096 66.726C199.232 66.203 198.375 65.668 197.525 65.107C197.099 64.829 196.673 64.551 196.252 64.259C195.831 63.967 195.404 63.688 194.986 63.384C194.145 62.79 193.309 62.175 192.48 61.534C192.062 61.225 191.653 60.882 191.241 60.551C190.829 60.217 190.415 59.89 190.01 59.528L188.788 58.461L187.583 57.32C187.177 56.952 186.789 56.515 186.393 56.108C185.997 55.699 185.602 55.282 185.22 54.811C184.837 54.343 184.442 53.923 184.069 53.407L182.951 51.86L182.93 51.829C182.016 50.381 181.841 48.338 182.619 46.641Z" fill="#E0422D"/>
<path d="M202.36 37.068L201.871 37.406C201.542 37.64 201.212 37.876 200.884 38.127C200.226 38.619 199.577 39.14 198.94 39.678C198.616 39.939 198.309 40.225 197.995 40.5C197.679 40.773 197.374 41.059 197.072 41.35C196.455 41.916 195.88 42.526 195.298 43.125L194.46 44.056C194.224 44.309 194.013 44.581 193.795 44.848C194.853 38.809 199.14 31.351 199.14 31.351C201.085 31.159 202.067 34.136 202.561 36.937L202.36 37.068Z" fill="#A33021"/>
<path d="M220.098 27.219H201.151C199.677 27.219 198.483 28.414 198.483 29.887V63.006H222.767V29.887C222.766 28.414 221.572 27.219 220.098 27.219Z" fill="#E0422D"/>
<path d="M207.34 22.069V27.945C207.34 29.824 208.863 31.347 210.742 31.347C212.621 31.347 214.145 29.824 214.145 27.945V22.069H207.34Z" fill="#F8C79F"/>
<path d="M207.34 24.317C207.849 24.756 208.391 25.159 208.964 25.511C209.962 26.123 211.045 26.595 212.176 26.899C212.811 27.07 213.493 27.176 214.145 27.127V22.069H207.34V24.317Z" fill="#D9A275"/>
<path d="M229.071 43.427C229.071 40.934 227.05 38.914 224.558 38.914H197.646C195.154 38.914 193.133 40.935 193.133 43.427L193.327 65.657H229.265L229.071 43.427Z" fill="#002854"/>
<path d="M211.102 55.194C213.03 55.194 214.593 53.631 214.593 51.703C214.593 49.775 213.03 48.212 211.102 48.212C209.174 48.212 207.611 49.775 207.611 51.703C207.611 53.631 209.174 55.194 211.102 55.194Z" fill="white"/>
<path d="M230.45 65.658H192.322V70.152H230.45V65.658Z" fill="#002854"/>
<path d="M233.24 70.495C234.471 72.789 233.705 75.558 231.639 76.934C231.276 77.176 230.87 77.344 230.455 77.48L202.668 86.588L199.947 80.623L226.701 68.42C229.091 67.331 231.999 68.182 233.24 70.495Z" fill="#FFBB45"/>
<path d="M214.544 73.966L199.948 80.624L202.669 86.589L226.692 78.714L214.544 73.966Z" fill="#FF9A30"/>
<path d="M187.782 70.495C186.551 72.789 187.317 75.558 189.383 76.934C189.746 77.176 190.152 77.344 190.567 77.48L218.354 86.588L221.075 80.623L194.32 68.42C191.931 67.331 189.024 68.182 187.782 70.495Z" fill="#FFBB45"/>
<path d="M221.074 80.624H233.832C233.832 80.624 234.001 86.589 227.369 86.589C220.737 86.589 218.354 86.589 218.354 86.589L221.074 80.624Z" fill="#E0422D"/>
<path d="M199.948 80.624H187.19C187.19 80.624 187.021 86.589 193.653 86.589C200.285 86.589 202.668 86.589 202.668 86.589L199.948 80.624Z" fill="#E0422D"/>
<path d="M219.862 11.662C222.289 11.932 224.556 9.392 224.249 6.746C224.068 5.185 223.139 3.786 221.968 2.841C220.797 1.896 219.399 1.357 217.997 0.973996C212.063 -0.651004 205.629 0.376998 200.504 3.769C200.472 7.014 200.286 10.521 201.135 13.66C201.984 16.8 203.855 19.808 206.615 21.107C209.312 22.376 212.51 21.795 214.879 20.04C217.249 18.285 218.984 14.656 219.862 11.662Z" fill="#003672"/>
<path d="M202.003 9.709C203.757 12.82 202.517 16.839 203.747 20.193C204.752 22.935 207.506 24.942 210.423 25.06C213.341 25.178 216.247 23.401 217.471 20.749C218.395 18.747 218.385 16.46 218.424 14.255C218.463 12.05 218.602 9.737 219.763 7.862C220.136 7.259 219.395 6.364 218.861 5.898C218.327 5.432 217.657 5.152 216.986 4.923C213.175 3.626 208.887 3.792 205.188 5.379C204.321 5.751 203.473 6.207 202.809 6.877C202.145 7.547 201.54 8.887 202.003 9.709Z" fill="#F8C79F"/>
<path d="M207.34 14.505C206.633 14.505 206.632 15.49 207.34 15.49C208.047 15.49 208.048 14.505 207.34 14.505Z" fill="#003672"/>
<path d="M214.145 14.505C213.438 14.505 213.437 15.49 214.145 15.49C214.852 15.49 214.853 14.505 214.145 14.505Z" fill="#003672"/>
<path d="M206.152 17.521C206.704 17.521 207.152 17.2457 207.152 16.906C207.152 16.5663 206.704 16.291 206.152 16.291C205.6 16.291 205.152 16.5663 205.152 16.906C205.152 17.2457 205.6 17.521 206.152 17.521Z" fill="#DD675B"/>
<path d="M215.308 17.521C215.86 17.521 216.308 17.2457 216.308 16.906C216.308 16.5663 215.86 16.291 215.308 16.291C214.756 16.291 214.308 16.5663 214.308 16.906C214.308 17.2457 214.756 17.521 215.308 17.521Z" fill="#DD675B"/>
<path d="M211.804 18.39C211.093 18.474 210.862 17.229 210.803 16.779C210.76 16.45 210.277 16.364 210.147 16.699C209.754 17.717 210.339 19.548 211.804 19.453C212.575 19.403 212.546 18.302 211.804 18.39Z" fill="#DD675B"/>
<path d="M209.738 21.607C209.26 21.607 208.781 21.467 208.381 21.206C207.877 20.877 207.5 20.354 207.348 19.771C207.313 19.637 207.393 19.5 207.526 19.466C207.659 19.428 207.796 19.51 207.831 19.644C207.953 20.109 208.253 20.525 208.654 20.788C209.056 21.052 209.558 21.162 210.032 21.085C210.162 21.066 210.296 21.156 210.318 21.294C210.339 21.43 210.246 21.558 210.11 21.58C209.988 21.598 209.863 21.607 209.738 21.607Z" fill="#DD675B"/>
<path d="M205.308 12.614C205.262 12.614 205.215 12.601 205.173 12.574C205.057 12.499 205.023 12.345 205.098 12.228C205.11 12.209 206.349 10.337 208.464 10.871C208.598 10.905 208.679 11.041 208.645 11.175C208.611 11.308 208.476 11.39 208.341 11.356C206.569 10.908 205.53 12.482 205.519 12.499C205.471 12.574 205.39 12.614 205.308 12.614Z" fill="#003672"/>
<path d="M216.223 12.614C216.141 12.614 216.06 12.574 216.013 12.5C215.97 12.434 214.955 10.909 213.191 11.356C213.055 11.39 212.921 11.309 212.887 11.175C212.853 11.041 212.934 10.905 213.068 10.871C215.187 10.336 216.422 12.209 216.434 12.228C216.508 12.344 216.475 12.498 216.359 12.573C216.316 12.601 216.269 12.614 216.223 12.614Z" fill="#003672"/>
<path d="M218.481 13.539C218.777 13.202 219.303 13.02 219.686 13.253C220.054 13.477 220.148 13.969 220.139 14.4C220.117 15.481 219.666 16.547 218.907 17.316C218.729 17.497 218.498 17.673 218.248 17.633C217.914 17.58 217.759 17.19 217.708 16.855C217.555 15.853 217.783 14.335 218.481 13.539Z" fill="#F8C79F"/>
<path d="M202.987 13.539C202.691 13.202 202.165 13.02 201.782 13.253C201.414 13.477 201.32 13.969 201.329 14.4C201.351 15.481 201.802 16.547 202.561 17.316C202.739 17.497 202.97 17.673 203.22 17.633C203.555 17.58 203.709 17.19 203.76 16.855C203.913 15.853 203.685 14.335 202.987 13.539Z" fill="#F8C79F"/>
<path d="M202.706 15.1C204.146 12.84 205.064 10.249 205.368 7.58599C209.388 9.91499 214.008 11.136 218.647 10.89C219.316 10.855 221.434 6.59799 220.647 5.86399C218.403 3.77299 215.206 3.07099 212.15 2.81499C209.948 2.62999 207.679 2.63999 205.593 3.36999C203.507 4.09899 201.613 5.64899 200.933 7.75199C200.366 9.50399 200.684 11.419 201.209 13.184C201.446 13.98 201.899 14.897 202.706 15.1Z" fill="#003672"/>
<path d="M217.111 10.104C217.047 11.684 217.393 13.278 218.107 14.689C219 13.671 219.666 12.452 219.984 11.136C220.09 10.697 220.156 10.213 219.952 9.81C219.717 9.347 219.153 9.107 218.638 9.17C218.122 9.233 217.429 9.694 217.111 10.104Z" fill="#003672"/>
<path d="M197.06 293.309L213.746 364.852L209.722 366.055L186.479 310.271C186.479 310.271 187.584 288.677 197.06 293.309Z" fill="#003672"/>
<path d="M189.742 318.102L196.649 334.677L193.839 298.695L189.742 318.102Z" fill="#002854"/>
<path d="M183.276 293.255C183.276 293.255 177.912 298.842 178.978 316.284C180.044 333.726 183.84 367.854 183.84 367.854H189.261L194.12 294.447C194.12 294.447 185.306 289.673 183.276 293.255Z" fill="#003672"/>
<path d="M195.484 267.043C198.989 275.585 196.95 284.385 197.06 293.309C191.386 294.773 188.859 294.898 183.276 293.256C183.636 287.607 182.787 281.899 180.971 276.405C183.805 271.944 189.031 268.319 195.484 267.043Z" fill="#E0422D"/>
<path d="M195.323 274.651C198.645 277.141 200.3 278.174 204.604 279.793C210.806 277.473 219.567 271.006 220.279 268.395C220.481 267.654 220.584 266.86 220.147 266.168C219.497 265.139 217.593 264.589 216.078 264.993C214.564 265.397 213.685 266.688 214.201 267.753C214.544 268.459 215.471 269.336 214.931 269.981C212.962 272.329 207.404 273.505 204.621 275.419C201.6 274.027 201.102 273.293 198.828 271.336C198.565 271.109 198.236 270.856 197.817 270.877C197.582 270.888 197.376 270.987 197.193 271.089C195.713 271.916 195.167 273.339 195.323 274.651Z" fill="#F8C79F"/>
<path d="M189.882 263.157C192.008 263.426 195.092 265.062 199.938 271.721C198.67 273.007 197.224 274.386 195.957 275.672C193.523 274.163 191.484 272.168 189.826 269.97C189.049 268.94 188.354 267.794 188.304 266.551C188.255 265.308 188.517 262.984 189.882 263.157Z" fill="#E0422D"/>
<path d="M198.115 273.774L191.776 268.952L195.73 275.535L198.115 273.774Z" fill="#A33021"/>
<path d="M189.882 263.157L185.645 261.871L182.117 262.781L181.156 276.206L186.746 281.014L196.654 277.324L189.882 263.157Z" fill="#E0422D"/>
<path d="M186.109 267.043C188.764 269.729 190.99 273.836 191.776 277.717C190.424 278.261 188.08 279.708 186.63 279.98C186.455 280.013 186.256 280.039 186.111 279.945C186.006 279.877 185.956 279.761 185.914 279.651C185.166 277.68 185.369 275.523 185.788 273.475C186.206 271.427 186.034 269.124 186.109 267.043Z" fill="#A33021"/>
<path d="M183.933 257.426C184.534 259.116 184.533 260.861 184.604 262.957C185.558 264.809 188.582 266.553 189.882 266.551C188.808 264.115 189.546 259.23 189.882 257.179C187.627 257.154 186.193 256.945 183.933 257.426Z" fill="#F8C79F"/>
<path d="M183.99 257.609C184.165 258.139 184.285 258.676 184.368 259.228C185.577 260.996 187.305 262.432 189.33 263.388C189.281 261.514 189.532 259.46 189.747 258.036C189.089 257.711 188.438 257.406 187.755 257.124C186.556 257.094 185.452 257.116 184.029 257.409C184.017 257.474 184.003 257.542 183.99 257.609Z" fill="#D9A275"/>
<path d="M178.596 237.877C176.808 237.959 175.196 239.066 174.374 240.493C173.553 241.92 173.448 243.615 173.787 245.192C174.126 246.769 174.879 248.249 175.708 249.672C176.208 250.532 176.755 251.501 176.431 252.427C176.191 253.112 175.481 253.62 174.699 253.77C173.917 253.92 173.083 253.74 172.398 253.369C172.509 254.035 173.017 254.611 173.643 254.983C174.27 255.355 175.007 255.546 175.744 255.679C177.077 255.92 178.572 255.956 179.677 255.246C180.642 254.625 181.109 253.566 181.464 252.549C182.307 250.135 182.792 247.622 182.912 245.095C182.998 243.277 183.331 240.849 182.009 239.315C181.207 238.384 179.916 237.816 178.596 237.877Z" fill="#003672"/>
<path d="M182.912 245.095C182.973 243.809 183.146 242.224 182.781 240.86C182.489 240.653 182.156 240.499 181.817 240.443C179.285 241.532 177.585 244.02 177.652 246.537C177.685 247.771 178.102 248.966 178.438 250.163C178.775 251.36 179.034 252.614 178.749 253.822C178.571 254.579 178.132 255.316 177.499 255.829C178.283 255.81 179.043 255.653 179.675 255.247C180.64 254.626 181.107 253.566 181.462 252.55C182.307 250.135 182.792 247.621 182.912 245.095Z" fill="#002854"/>
<path d="M196.866 257.722C196.903 257.608 196.143 256.702 196.054 256.54C195.816 256.105 195.627 255.649 195.486 255.181C195.204 254.245 195.118 253.26 195.237 252.296C195.29 251.866 195.657 249.891 196.418 250.983C197.005 251.827 197.183 253.137 197.271 254.106C197.38 255.32 197.248 256.553 196.866 257.722Z" fill="#003672"/>
<path d="M180.74 240.784C179.99 241.529 179.62 242.546 179.62 243.55C179.62 244.01 179.714 244.507 180.083 244.826C180.448 245.141 181.018 245.209 181.506 245.085C181.994 244.962 182.409 244.673 182.767 244.352C183.401 243.783 183.891 243.093 184.25 242.356C184.465 241.913 184.637 241.437 184.6 240.955C184.563 240.474 184.214 239.807 183.625 239.71C182.982 239.604 182.212 239.84 181.662 240.122C181.318 240.296 181.005 240.521 180.74 240.784Z" fill="#E0422D"/>
<path d="M179.708 251.281C180.631 253.897 182.55 256.158 184.796 258.021C185.111 256.918 185.029 255.759 184.927 254.624C184.789 253.093 184.617 251.565 184.413 250.04C184.237 248.729 184.034 247.41 183.537 246.167C183.17 245.25 181.745 242.899 180.316 243.989C179.72 244.443 179.526 245.421 179.373 246.072C179.181 246.891 179.115 247.732 179.161 248.567C179.212 249.488 179.398 250.402 179.708 251.281Z" fill="#003672"/>
<path d="M196.531 243.046C194.92 240.9 191.441 240.027 188.523 240.637C186.056 241.153 183.073 242.89 182.055 244.902C181.231 246.53 181.415 248.877 181.757 250.899C181.59 250.86 181.416 250.837 181.232 250.838C180.446 250.841 179.737 251.287 179.514 251.971C179.46 252.136 179.441 252.301 179.439 252.464C179.406 252.585 179.383 252.71 179.382 252.843C179.376 254.039 180.882 255.069 182.254 255.152C182.442 255.178 182.634 255.175 182.829 255.15C183.786 257.569 185.475 259.787 188.218 260.801C189.891 261.42 191.965 261.473 193.414 260.583C194.54 259.891 195.129 258.749 195.466 257.615C195.754 256.648 195.893 255.649 195.881 254.648C195.872 253.92 195.782 253.187 195.888 252.465C196.012 251.613 196.403 250.811 196.734 250C197.657 247.743 198.073 245.1 196.531 243.046Z" fill="#F8C79F"/>
<path d="M190.347 247.982C189.738 248.076 189.045 248.379 188.779 248.908C188.638 249.187 189.089 249.435 189.246 249.153C189.478 248.736 190.03 248.584 190.503 248.488C190.746 248.438 191 248.401 191.25 248.397C191.463 248.394 191.645 248.491 191.85 248.478C191.952 248.472 192 248.388 191.959 248.307C191.745 247.884 190.76 247.918 190.347 247.982Z" fill="#003672"/>
<path d="M196.955 248.393C196.584 247.922 195.434 247.725 195.041 248.266C194.924 248.426 195.157 248.634 195.336 248.53C195.799 248.26 196.24 248.416 196.679 248.641C196.844 248.727 197.077 248.547 196.955 248.393Z" fill="#003672"/>
<path d="M189.824 253.182C189.701 253.097 189.531 253.045 189.384 253.005C188.864 252.866 188.688 253.543 189.166 253.716C189.447 253.818 189.745 253.721 189.922 253.513C190.017 253.4 189.928 253.253 189.824 253.182Z" fill="#DD675B"/>
<path d="M195.497 252.978C195.348 252.97 195.279 253.012 195.177 253.104C194.938 253.318 195.309 253.65 195.547 253.436C195.649 253.344 195.696 253.28 195.687 253.149C195.68 253.052 195.605 252.984 195.497 252.978Z" fill="#DD675B"/>
<path d="M189.688 251.827C189.009 251.827 189.008 252.774 189.688 252.774C190.367 252.774 190.368 251.827 189.688 251.827Z" fill="#003672"/>
<path d="M194.889 251.615C194.253 251.615 194.252 252.501 194.889 252.501C195.524 252.501 195.525 251.615 194.889 251.615Z" fill="#003672"/>
<path d="M194.28 254.333C193.597 254.413 193.374 253.217 193.318 252.785C193.276 252.469 192.812 252.387 192.688 252.708C192.31 253.686 192.872 255.446 194.281 255.355C195.02 255.308 194.993 254.25 194.28 254.333Z" fill="#DD675B"/>
<path d="M189.804 254.859C189.738 254.777 189.626 254.682 189.532 254.737C189.498 254.757 189.479 254.793 189.463 254.827C189.115 255.585 189.361 256.53 190.047 257.071C190.734 257.612 191.81 257.709 192.603 257.302C193.168 257.012 193.183 256.429 192.515 256.32C191.83 256.208 191.199 255.998 190.639 255.621C190.321 255.406 190.037 255.15 189.804 254.859Z" fill="white"/>
<path d="M181.796 250.949C181.758 252.923 182.72 256.247 184.023 257.838C185.104 256.558 184.904 253.426 183.971 252.055C186.331 251.196 188.653 250.201 190.684 248.823C192.715 247.445 194.454 245.656 195.384 243.529C196.391 244.863 197.06 246.433 197.359 248.021C200.595 245.729 199.956 239.237 195.099 240.001C191.227 236.741 186.619 237.827 184.119 239.297C181.62 240.767 179.865 243.225 179.45 245.879C179.151 247.8 180.014 249.852 181.796 250.949Z" fill="#003672"/>
<path d="M176.249 298.695C176.249 298.695 182.847 301.834 189.261 300.863C190.024 307.927 189.116 313.666 186.479 313.666C183.842 313.666 175.719 312.341 175.719 312.341C175.719 312.341 170.244 311.763 176.249 298.695Z" fill="#6593C7"/>
<path d="M188.993 304.073L188.271 304.011C188.301 303.67 191.268 269.826 184.805 263.919C184.073 263.25 183.268 262.993 182.345 263.13C178.845 263.652 178.14 276.267 177.519 287.397C177.186 293.359 176.872 298.99 176.174 303.04L175.459 302.923C176.15 298.912 176.463 293.3 176.795 287.358C177.493 274.852 178.152 263.04 182.235 262.431C183.37 262.26 184.407 262.587 185.3 263.403C192.019 269.544 189.12 302.665 188.993 304.073Z" fill="#6593C7"/>
<path d="M182.176 273.389C182.358 277.06 183.514 281.291 185.399 284.555C191.144 284.587 199.876 281.034 206.008 270.917C206.837 271.529 208.636 272.358 209.639 272.014C210.642 271.67 211.422 270.879 211.757 269.964C212.02 269.246 212.012 268.427 211.609 267.763C211.205 267.1 210.368 266.634 209.53 266.718C210.367 266.474 211.121 266.103 211.958 265.86C211.243 264.6 209.213 264.384 207.805 265.021C206.398 265.658 205.545 266.939 204.534 268.024C199.82 273.079 196.168 274.449 188.609 278.287C187.691 275.254 187.213 272.494 187.031 269.447C185.365 269.035 183.217 272.152 182.176 273.389Z" fill="#F8C79F"/>
<path d="M184.941 264.098C184.314 263.283 183.217 262.68 182.118 262.781C180.603 262.919 179.714 264.38 179.357 265.708C178.681 268.223 178.955 270.883 179.702 273.381C180.449 275.879 181.653 278.246 182.856 280.597C184.946 279.198 187.288 278.091 189.776 277.389C189.14 275.197 188.183 268.315 184.941 264.098Z" fill="#E0422D"/>
<path d="M235.551 254.906H215.991C215.692 254.906 215.424 255.089 215.315 255.367L210.007 268.877C209.82 269.354 210.171 269.869 210.683 269.869H230.243C230.542 269.869 230.81 269.686 230.919 269.408L236.227 255.898C236.415 255.421 236.063 254.906 235.551 254.906Z" fill="#003672"/>
<path d="M200.842 267.645H230.243V269.869H200.842C200.228 269.869 199.73 269.371 199.73 268.757C199.73 268.143 200.228 267.645 200.842 267.645Z" fill="#003672"/>
<path d="M227.217 261.259H221.329C221.208 261.259 221.099 261.335 221.059 261.449L220.59 262.764C220.523 262.951 220.662 263.147 220.86 263.147H226.748C226.869 263.147 226.977 263.071 227.018 262.957L227.487 261.642C227.554 261.456 227.416 261.259 227.217 261.259Z" fill="#FFEDCC"/>
<path d="M183.84 367.855V373.42C183.84 374.169 184.517 374.775 185.352 374.775H189.319C190.497 374.775 191.336 373.749 190.981 372.741L189.26 367.854H183.84V367.855Z" fill="#F8C79F"/>
<path d="M209.722 366.055L210.812 371.316H225.093C226.452 371.316 226.82 369.637 225.561 369.177L213.746 364.853L209.722 366.055Z" fill="#F8C79F"/>
<path d="M210.812 371.315H225.093C226.452 371.315 226.82 369.636 225.561 369.176L220.126 367.187C218.746 369.45 213.308 368.865 210.189 368.314L210.812 371.315Z" fill="#E0422D"/>
<path d="M189.319 374.776C190.497 374.776 191.336 373.75 190.981 372.742L190.428 371.172C187.132 372.156 185.045 371.762 183.839 371.217V373.421C183.839 374.17 184.516 374.776 185.351 374.776H189.319Z" fill="#E0422D"/>
<path d="M178.827 305.279C178.565 305.607 178.507 306.055 178.531 306.474C178.55 306.805 178.638 307.169 178.913 307.355C179.091 307.475 179.315 307.498 179.529 307.515C180.063 307.557 180.598 307.585 181.134 307.597C181.406 307.604 181.699 307.6 181.922 307.444C182.216 307.238 182.29 306.84 182.341 306.484C182.382 306.193 182.419 305.879 182.278 305.621C182.093 305.283 181.667 305.161 181.282 305.141C180.8 305.115 180.421 305.061 179.961 304.947C179.559 304.848 179.096 304.943 178.827 305.279Z" fill="#FFBB45"/>
</svg>
