<svg width="426" height="408" viewBox="0 0 426 408" fill="none" xmlns="http://www.w3.org/2000/svg">
<path d="M182.881 407.896C283.386 407.896 364.861 348.364 364.861 274.928C364.861 201.492 283.386 141.96 182.881 141.96C82.3762 141.96 0.901001 201.492 0.901001 274.928C0.901001 348.364 82.3762 407.896 182.881 407.896Z" fill="#FFBFA2"/>
<path d="M121.188 247.105C119.959 247.094 118.972 246.097 118.983 244.867C118.995 243.649 119.991 242.663 121.21 242.674C122.439 242.674 123.425 243.672 123.414 244.9C123.403 246.119 122.418 247.105 121.198 247.105C121.188 247.105 121.188 247.105 121.188 247.105ZM130.051 244.624C129.951 243.406 130.848 242.332 132.067 242.231C133.285 242.121 134.361 243.029 134.471 244.248C134.571 245.466 133.674 246.542 132.455 246.641C132.389 246.652 132.322 246.652 132.256 246.652C131.125 246.651 130.15 245.787 130.051 244.624ZM109.933 246.529C108.715 246.419 107.818 245.334 107.939 244.115C108.061 242.897 109.136 241.999 110.354 242.121C111.573 242.243 112.47 243.317 112.349 244.535C112.238 245.687 111.274 246.541 110.144 246.541C110.077 246.541 110 246.541 109.933 246.529ZM141.052 243.361C140.841 242.164 141.638 241.001 142.835 240.79C144.042 240.568 145.194 241.367 145.416 242.574C145.627 243.781 144.829 244.933 143.621 245.155C143.621 245.155 143.621 245.155 143.621 245.143C143.5 245.176 143.367 245.187 143.234 245.187C142.181 245.188 141.251 244.435 141.052 243.361ZM98.766 244.923C98.766 244.923 98.766 244.923 98.778 244.923C97.571 244.69 96.783 243.526 97.017 242.331C97.238 241.123 98.402 240.348 99.609 240.569C100.806 240.801 101.592 241.966 101.37 243.162C101.159 244.226 100.229 244.968 99.188 244.968C99.055 244.968 98.911 244.956 98.766 244.923ZM151.885 241.09C151.553 239.904 152.251 238.686 153.425 238.353C154.61 238.032 155.829 238.719 156.15 239.893C156.482 241.078 155.795 242.297 154.621 242.629C154.421 242.684 154.222 242.707 154.023 242.707C153.048 242.708 152.162 242.065 151.885 241.09ZM87.81 242.287C86.624 241.943 85.949 240.713 86.292 239.539C86.636 238.365 87.865 237.689 89.04 238.032C90.214 238.376 90.89 239.605 90.546 240.78C90.269 241.744 89.383 242.375 88.419 242.375C88.22 242.374 88.009 242.353 87.81 242.287ZM162.465 237.811C162.033 236.669 162.598 235.384 163.74 234.953C164.881 234.509 166.166 235.086 166.609 236.226C167.042 237.367 166.465 238.652 165.324 239.084C165.07 239.184 164.804 239.24 164.538 239.24C163.65 239.24 162.798 238.697 162.465 237.811ZM77.131 238.642C76.001 238.188 75.436 236.902 75.89 235.761C76.344 234.632 77.629 234.066 78.759 234.52C79.9 234.964 80.453 236.249 80.01 237.389C79.667 238.264 78.825 238.796 77.95 238.796C77.674 238.797 77.408 238.742 77.131 238.642ZM172.69 233.568C172.147 232.471 172.59 231.131 173.698 230.598C174.783 230.056 176.113 230.499 176.656 231.596C177.199 232.693 176.756 234.022 175.659 234.565C175.338 234.721 175.005 234.797 174.673 234.797C173.864 234.797 173.078 234.343 172.69 233.568ZM66.851 234.011C65.754 233.457 65.322 232.127 65.876 231.032C66.43 229.946 67.759 229.503 68.856 230.057C69.942 230.611 70.385 231.951 69.831 233.036C69.432 233.812 68.657 234.255 67.848 234.255C67.515 234.255 67.172 234.177 66.851 234.011ZM182.472 228.383C181.829 227.342 182.161 225.979 183.203 225.336C184.244 224.694 185.607 225.015 186.25 226.057C186.893 227.099 186.559 228.461 185.519 229.103C185.164 229.325 184.754 229.435 184.367 229.435C183.624 229.436 182.893 229.059 182.472 228.383ZM57.035 228.45C56.004 227.796 55.695 226.423 56.348 225.393C57.001 224.362 58.364 224.041 59.394 224.694C60.435 225.348 60.746 226.721 60.092 227.752C59.671 228.427 58.951 228.793 58.22 228.793C57.811 228.793 57.401 228.683 57.035 228.45ZM191.734 222.313C191.003 221.338 191.202 219.942 192.176 219.211C193.151 218.48 194.546 218.678 195.278 219.653C196.02 220.628 195.821 222.013 194.846 222.755C194.447 223.055 193.971 223.199 193.506 223.199C192.842 223.199 192.176 222.888 191.734 222.313ZM47.785 222.002C46.81 221.26 46.633 219.864 47.375 218.89C48.117 217.926 49.513 217.738 50.477 218.491C51.452 219.233 51.64 220.629 50.887 221.592C50.456 222.157 49.791 222.457 49.126 222.457C48.661 222.457 48.184 222.313 47.785 222.002ZM200.407 215.422C199.576 214.513 199.654 213.106 200.552 212.287C201.46 211.467 202.867 211.533 203.686 212.442C204.506 213.351 204.44 214.746 203.531 215.566C203.11 215.953 202.578 216.141 202.047 216.141C201.438 216.142 200.84 215.899 200.407 215.422ZM39.167 214.724C38.27 213.893 38.214 212.497 39.045 211.601C39.876 210.703 41.283 210.648 42.18 211.479C43.077 212.31 43.132 213.705 42.302 214.614C41.859 215.079 41.272 215.323 40.674 215.323C40.13 215.322 39.588 215.123 39.167 214.724ZM208.394 207.756C207.497 206.925 207.431 205.529 208.262 204.622C209.081 203.724 210.489 203.658 211.385 204.489C212.294 205.308 212.349 206.716 211.529 207.612C211.087 208.1 210.488 208.333 209.89 208.333C209.358 208.332 208.816 208.144 208.394 207.756ZM31.257 206.692C30.437 205.784 30.515 204.377 31.423 203.569C32.331 202.749 33.727 202.827 34.547 203.735C35.367 204.644 35.29 206.039 34.381 206.859C33.96 207.246 33.428 207.436 32.897 207.436C32.298 207.436 31.689 207.18 31.257 206.692ZM215.651 199.392C214.676 198.65 214.487 197.254 215.23 196.279C215.96 195.304 217.357 195.116 218.332 195.858C219.307 196.6 219.495 197.985 218.753 198.96C218.321 199.536 217.656 199.835 216.991 199.835C216.526 199.835 216.049 199.692 215.651 199.392ZM24.111 197.963C23.38 196.988 23.591 195.593 24.565 194.861C25.551 194.13 26.936 194.341 27.667 195.326V195.315C28.398 196.301 28.199 197.685 27.213 198.417C26.814 198.717 26.348 198.861 25.894 198.861C25.219 198.861 24.543 198.55 24.111 197.963ZM222.098 190.385C221.068 189.732 220.747 188.369 221.4 187.339V187.328C222.043 186.286 223.406 185.977 224.446 186.619C225.488 187.273 225.798 188.635 225.156 189.676C224.734 190.351 224.015 190.717 223.273 190.717C222.874 190.718 222.464 190.607 222.098 190.385ZM17.808 188.613C17.177 187.571 17.509 186.209 18.55 185.567C19.591 184.935 20.954 185.267 21.596 186.309C22.228 187.35 21.895 188.724 20.854 189.356C20.5 189.578 20.1 189.677 19.702 189.677C18.96 189.677 18.229 189.301 17.808 188.613ZM227.693 180.825C226.596 180.271 226.153 178.942 226.707 177.856C227.25 176.759 228.59 176.315 229.676 176.859C230.772 177.413 231.215 178.742 230.672 179.839C230.273 180.614 229.498 181.057 228.689 181.057C228.347 181.058 228.014 180.98 227.693 180.825ZM12.402 178.72C11.859 177.624 12.313 176.294 13.421 175.762C14.518 175.22 15.847 175.685 16.379 176.781C16.922 177.878 16.457 179.208 15.36 179.74C15.05 179.895 14.717 179.961 14.396 179.961C13.576 179.961 12.778 179.507 12.402 178.72ZM232.379 170.789C231.238 170.345 230.673 169.06 231.116 167.919C231.559 166.779 232.844 166.213 233.985 166.656C235.127 167.1 235.691 168.385 235.248 169.525C234.905 170.4 234.063 170.933 233.176 170.933C232.911 170.933 232.645 170.889 232.379 170.789ZM7.926 168.373C7.926 168.373 7.926 168.373 7.937 168.373C7.494 167.221 8.081 165.948 9.222 165.515C10.363 165.083 11.648 165.659 12.08 166.8C12.512 167.952 11.925 169.227 10.784 169.658C10.529 169.758 10.263 169.802 10.008 169.802C9.112 169.802 8.27 169.259 7.926 168.373ZM236.101 160.354C234.926 160.021 234.239 158.803 234.572 157.617C234.904 156.443 236.133 155.767 237.308 156.099C238.482 156.432 239.169 157.661 238.837 158.836C238.56 159.811 237.674 160.442 236.71 160.442C236.511 160.441 236.3 160.42 236.101 160.354ZM4.448 157.639C4.127 156.464 4.814 155.246 5.999 154.925C7.185 154.604 8.403 155.291 8.724 156.476C9.045 157.65 8.348 158.868 7.173 159.189C6.974 159.245 6.774 159.278 6.586 159.278C5.611 159.278 4.714 158.625 4.448 157.639ZM238.837 149.63C237.63 149.408 236.832 148.245 237.065 147.049C237.286 145.842 238.438 145.055 239.646 145.277C240.841 145.499 241.64 146.662 241.418 147.858C241.219 148.921 240.287 149.664 239.236 149.664C239.103 149.663 238.97 149.652 238.837 149.63ZM1.978 146.638C1.767 145.431 2.576 144.29 3.784 144.079C4.98 143.857 6.133 144.666 6.343 145.874C6.554 147.082 5.756 148.223 4.549 148.433C4.416 148.466 4.283 148.477 4.161 148.477C3.097 148.477 2.166 147.713 1.978 146.638ZM240.554 138.695C239.336 138.585 238.438 137.499 238.549 136.28V136.291C238.67 135.062 239.746 134.175 240.964 134.286C242.182 134.396 243.08 135.471 242.97 136.69C242.859 137.842 241.895 138.707 240.765 138.707C240.698 138.707 240.632 138.707 240.554 138.695ZM0.548 135.461C0.548 135.461 0.547998 135.461 0.536998 135.461C0.436998 134.243 1.346 133.168 2.575 133.068C3.794 132.969 4.857 133.877 4.957 135.096C5.057 136.315 4.148 137.39 2.93 137.489C2.875 137.489 2.808 137.5 2.753 137.5C1.612 137.499 0.637 136.613 0.548 135.461ZM239.048 125.435C239.048 124.205 240.044 123.219 241.264 123.219C242.493 123.219 243.48 124.205 243.48 125.435C243.48 126.653 242.493 127.64 241.264 127.64C240.044 127.64 239.048 126.653 239.048 125.435ZM2.332 126.433C1.113 126.421 0.127 125.414 0.138 124.195C0.16 122.966 1.158 121.99 2.376 122.002C3.606 122.013 4.581 123.009 4.569 124.239C4.558 125.446 3.572 126.433 2.353 126.433C2.353 126.433 2.343 126.433 2.332 126.433ZM238.749 116.949C238.66 115.731 239.58 114.668 240.798 114.59C242.017 114.501 243.081 115.421 243.169 116.639C243.258 117.858 242.338 118.922 241.119 119C241.064 119.011 241.009 119.011 240.953 119.011C239.801 119.01 238.837 118.124 238.749 116.949ZM2.753 115.365C1.534 115.243 0.648 114.158 0.77 112.938C0.892 111.72 1.977 110.834 3.196 110.955C4.415 111.077 5.301 112.163 5.179 113.382C5.057 114.523 4.104 115.376 2.974 115.376C2.908 115.376 2.83 115.376 2.753 115.365ZM237.474 106.159C237.275 104.952 238.095 103.811 239.302 103.611C240.509 103.412 241.651 104.232 241.85 105.439C242.05 106.646 241.23 107.788 240.023 107.987C239.901 108.01 239.778 108.02 239.657 108.02C238.594 108.021 237.651 107.245 237.474 106.159ZM4.182 104.387C2.974 104.155 2.199 102.981 2.432 101.784C2.675 100.588 3.839 99.801 5.035 100.044C6.231 100.277 7.018 101.439 6.785 102.636C6.575 103.7 5.644 104.431 4.614 104.431C4.47 104.431 4.326 104.41 4.182 104.387ZM235.203 95.535C234.894 94.361 235.602 93.142 236.788 92.833C237.973 92.522 239.18 93.231 239.491 94.417C239.801 95.603 239.093 96.81 237.907 97.121C237.719 97.165 237.53 97.198 237.342 97.198C236.366 97.197 235.469 96.533 235.203 95.535ZM6.619 93.586C5.445 93.243 4.78 92.013 5.123 90.839C5.478 89.664 6.707 88.988 7.882 89.343C9.056 89.687 9.721 90.916 9.378 92.091C9.09 93.055 8.204 93.675 7.251 93.675C7.041 93.674 6.829 93.652 6.619 93.586ZM231.958 85.178C231.537 84.026 232.125 82.751 233.277 82.331C234.428 81.91 235.703 82.497 236.123 83.65C236.123 83.65 236.123 83.65 236.112 83.65C236.533 84.802 235.945 86.075 234.793 86.496C234.55 86.585 234.296 86.629 234.04 86.629C233.132 86.628 232.29 86.074 231.958 85.178ZM10.065 83.062C8.924 82.608 8.37 81.311 8.824 80.182C9.278 79.051 10.575 78.498 11.705 78.952C12.846 79.406 13.399 80.692 12.945 81.832C12.591 82.696 11.76 83.217 10.885 83.217C10.607 83.216 10.33 83.172 10.065 83.062ZM227.759 75.152C227.227 74.044 227.704 72.725 228.801 72.205C229.909 71.685 231.226 72.15 231.759 73.258C232.279 74.354 231.814 75.684 230.707 76.204C230.396 76.349 230.075 76.426 229.754 76.426C228.933 76.425 228.136 75.95 227.759 75.152ZM14.463 72.903C13.377 72.338 12.945 71.009 13.51 69.923C14.064 68.827 15.404 68.406 16.49 68.96C17.587 69.514 18.008 70.854 17.454 71.939C17.055 72.704 16.28 73.146 15.482 73.146C15.138 73.146 14.795 73.07 14.463 72.903ZM222.641 65.569C222.009 64.516 222.353 63.165 223.417 62.533C224.458 61.913 225.821 62.256 226.453 63.309C227.073 64.362 226.73 65.713 225.677 66.345C225.322 66.555 224.935 66.656 224.546 66.656C223.793 66.656 223.051 66.267 222.641 65.569ZM19.802 63.199C18.772 62.534 18.462 61.172 19.126 60.13C19.78 59.1 21.153 58.801 22.184 59.455C23.214 60.119 23.513 61.482 22.86 62.512C22.439 63.176 21.719 63.542 20.988 63.542C20.577 63.542 20.167 63.432 19.802 63.199ZM216.659 56.497C215.939 55.51 216.148 54.126 217.146 53.406C218.132 52.686 219.516 52.897 220.237 53.893C220.957 54.879 220.736 56.263 219.749 56.984C219.362 57.272 218.896 57.416 218.453 57.416C217.767 57.415 217.091 57.094 216.659 56.497ZM26.006 54.026C25.043 53.273 24.865 51.876 25.618 50.914C26.36 49.95 27.756 49.773 28.72 50.526C29.695 51.268 29.872 52.664 29.119 53.628C28.676 54.194 28.022 54.492 27.369 54.492C26.892 54.491 26.416 54.337 26.006 54.026ZM209.868 48.022C209.06 47.103 209.138 45.696 210.068 44.898C210.976 44.09 212.383 44.179 213.192 45.098C214.001 46.006 213.913 47.413 212.993 48.221C212.572 48.587 212.052 48.775 211.53 48.775C210.91 48.775 210.3 48.521 209.868 48.022ZM33.03 45.462C32.143 44.631 32.099 43.225 32.93 42.339C33.772 41.441 35.168 41.397 36.065 42.228C36.951 43.059 37.007 44.466 36.165 45.363C35.733 45.828 35.146 46.061 34.548 46.061C34.004 46.061 33.461 45.861 33.03 45.462ZM202.313 40.2C201.427 39.358 201.383 37.952 202.224 37.066C203.065 36.179 204.461 36.135 205.359 36.977C206.245 37.819 206.29 39.225 205.448 40.112C205.015 40.565 204.417 40.798 203.831 40.798C203.288 40.798 202.745 40.599 202.313 40.2ZM40.817 37.586C40.008 36.677 40.086 35.27 41.005 34.462C41.924 33.653 43.32 33.731 44.129 34.651C44.948 35.559 44.86 36.965 43.951 37.775C43.53 38.151 42.998 38.329 42.478 38.329C41.87 38.328 41.26 38.085 40.817 37.586ZM194.081 33.111C193.118 32.347 192.951 30.962 193.704 29.998C194.458 29.034 195.843 28.868 196.806 29.621C196.806 29.621 196.806 29.621 196.818 29.621C197.782 30.374 197.947 31.77 197.194 32.734C196.75 33.288 196.097 33.576 195.443 33.576C194.968 33.576 194.481 33.421 194.081 33.111ZM49.303 30.463C48.572 29.477 48.782 28.092 49.768 27.361C50.754 26.641 52.139 26.852 52.87 27.837C53.59 28.823 53.379 30.208 52.394 30.939C52.006 31.227 51.541 31.371 51.087 31.371C50.399 31.371 49.735 31.05 49.303 30.463ZM185.231 26.808C184.2 26.143 183.901 24.769 184.566 23.739C185.231 22.708 186.593 22.421 187.623 23.074C188.654 23.739 188.953 25.112 188.288 26.143C187.867 26.796 187.147 27.162 186.427 27.162C186.017 27.162 185.596 27.04 185.231 26.808ZM58.398 24.148C57.766 23.107 58.099 21.744 59.151 21.113C60.204 20.482 61.555 20.814 62.187 21.867C62.818 22.908 62.486 24.282 61.433 24.914C61.079 25.124 60.68 25.224 60.292 25.224C59.55 25.223 58.808 24.847 58.398 24.148ZM175.826 21.346C174.74 20.781 174.319 19.44 174.884 18.355C175.45 17.269 176.79 16.849 177.875 17.414C178.961 17.979 179.382 19.319 178.817 20.405C178.418 21.158 177.642 21.601 176.845 21.601C176.502 21.601 176.157 21.512 175.826 21.346ZM68.036 18.709C67.504 17.601 67.97 16.283 69.078 15.751C69.078 15.751 69.078 15.751 69.067 15.751C70.175 15.219 71.504 15.685 72.036 16.781C72.557 17.889 72.103 19.207 70.995 19.739C70.684 19.894 70.363 19.961 70.031 19.961C69.21 19.961 68.424 19.496 68.036 18.709ZM165.966 16.782C164.826 16.328 164.283 15.031 164.748 13.902C165.202 12.772 166.499 12.219 167.64 12.684C168.77 13.149 169.313 14.434 168.847 15.575C168.503 16.428 167.672 16.949 166.797 16.949C166.519 16.948 166.242 16.892 165.966 16.782ZM78.139 14.178C77.718 13.037 78.305 11.763 79.446 11.331C80.598 10.91 81.871 11.497 82.293 12.638C82.724 13.79 82.137 15.064 80.986 15.485C80.731 15.584 80.476 15.629 80.221 15.629C79.325 15.629 78.472 15.075 78.139 14.178ZM155.718 13.17C154.544 12.815 153.879 11.575 154.234 10.401C154.589 9.237 155.83 8.573 156.993 8.927C156.993 8.927 156.993 8.927 157.004 8.927C158.167 9.271 158.832 10.511 158.477 11.685C158.189 12.649 157.314 13.258 156.361 13.258C156.151 13.259 155.929 13.237 155.718 13.17ZM88.619 10.622C88.309 9.437 89.006 8.218 90.192 7.908C91.377 7.587 92.585 8.284 92.905 9.469C93.215 10.655 92.518 11.874 91.344 12.183H91.332C91.144 12.238 90.955 12.26 90.756 12.26C89.782 12.262 88.884 11.608 88.619 10.622ZM145.183 10.522C143.986 10.279 143.211 9.104 143.443 7.908C143.688 6.711 144.861 5.936 146.058 6.18C147.255 6.423 148.03 7.587 147.786 8.783C147.576 9.835 146.657 10.567 145.627 10.567C145.471 10.567 145.327 10.545 145.183 10.522ZM99.398 8.052C99.188 6.844 99.996 5.703 101.204 5.493C102.411 5.294 103.564 6.103 103.764 7.31C103.974 8.517 103.154 9.659 101.947 9.858C101.826 9.88 101.704 9.892 101.581 9.892C100.516 9.891 99.575 9.127 99.398 8.052ZM134.448 8.861C133.23 8.728 132.344 7.642 132.477 6.424C132.61 5.206 133.695 4.331 134.914 4.452C136.132 4.585 137.018 5.682 136.885 6.89C136.764 8.031 135.8 8.873 134.681 8.873C134.604 8.872 134.526 8.872 134.448 8.861ZM110.354 6.49C110.266 5.272 111.174 4.208 112.393 4.12C113.611 4.02 114.685 4.939 114.774 6.158C114.863 7.377 113.954 8.44 112.736 8.54C112.681 8.54 112.614 8.54 112.559 8.54C111.418 8.54 110.442 7.653 110.354 6.49ZM123.592 8.196H123.604C122.374 8.185 121.399 7.177 121.421 5.958C121.432 4.729 122.44 3.754 123.659 3.776C123.659 3.776 123.659 3.776 123.67 3.776C124.888 3.787 125.863 4.795 125.852 6.025C125.83 7.233 124.844 8.208 123.636 8.208C123.626 8.207 123.615 8.207 123.592 8.196Z" fill="#60424C"/>
<path d="M340.5 397.487C339.657 397.48 338.98 396.795 338.987 395.951C338.995 395.115 339.679 394.439 340.515 394.446C341.358 394.446 342.035 395.13 342.027 395.974C342.02 396.81 341.343 397.487 340.507 397.487C340.5 397.487 340.5 397.487 340.5 397.487ZM346.581 395.784C346.513 394.948 347.128 394.211 347.965 394.142C348.801 394.066 349.539 394.69 349.614 395.526C349.682 396.362 349.067 397.1 348.231 397.168C348.186 397.175 348.14 397.175 348.094 397.175C347.318 397.175 346.649 396.582 346.581 395.784ZM332.778 397.091C331.942 397.015 331.327 396.271 331.41 395.434C331.494 394.598 332.231 393.982 333.067 394.066C333.904 394.15 334.519 394.887 334.436 395.723C334.359 396.514 333.698 397.099 332.923 397.099C332.876 397.099 332.824 397.099 332.778 397.091ZM354.129 394.918C353.984 394.097 354.531 393.299 355.352 393.154C356.18 393.002 356.971 393.55 357.123 394.378C357.268 395.206 356.72 395.997 355.891 396.149C355.891 396.149 355.891 396.149 355.891 396.141C355.808 396.164 355.717 396.172 355.625 396.172C354.904 396.172 354.265 395.655 354.129 394.918ZM325.116 395.99C325.116 395.99 325.116 395.99 325.124 395.99C324.296 395.83 323.755 395.032 323.916 394.212C324.068 393.383 324.866 392.851 325.695 393.003C326.516 393.162 327.056 393.961 326.903 394.782C326.758 395.512 326.12 396.021 325.406 396.021C325.314 396.02 325.215 396.012 325.116 395.99ZM361.562 393.36C361.334 392.546 361.813 391.711 362.619 391.482C363.432 391.262 364.268 391.733 364.489 392.539C364.717 393.352 364.246 394.188 363.44 394.416C363.303 394.454 363.166 394.47 363.03 394.47C362.359 394.47 361.752 394.029 361.562 393.36ZM317.599 394.181C316.785 393.945 316.322 393.101 316.557 392.296C316.793 391.49 317.636 391.027 318.442 391.262C319.247 391.498 319.711 392.341 319.475 393.147C319.285 393.808 318.677 394.241 318.016 394.241C317.881 394.241 317.736 394.226 317.599 394.181ZM368.82 391.11C368.524 390.327 368.911 389.445 369.694 389.149C370.477 388.845 371.359 389.24 371.662 390.023C371.959 390.806 371.563 391.688 370.78 391.984C370.606 392.052 370.423 392.091 370.24 392.091C369.634 392.091 369.049 391.718 368.82 391.11ZM310.272 391.68C309.497 391.368 309.109 390.487 309.421 389.703C309.732 388.928 310.614 388.54 311.39 388.852C312.173 389.156 312.553 390.038 312.249 390.82C312.013 391.421 311.436 391.786 310.835 391.786C310.645 391.786 310.462 391.748 310.272 391.68ZM375.836 388.199C375.463 387.446 375.768 386.527 376.528 386.162C377.272 385.79 378.185 386.094 378.557 386.846C378.93 387.599 378.625 388.511 377.873 388.883C377.653 388.99 377.425 389.042 377.197 389.042C376.641 389.042 376.102 388.73 375.836 388.199ZM303.219 388.503C302.467 388.123 302.17 387.211 302.55 386.459C302.93 385.714 303.842 385.41 304.594 385.79C305.339 386.17 305.643 387.09 305.263 387.834C304.989 388.366 304.457 388.67 303.902 388.67C303.675 388.67 303.439 388.617 303.219 388.503ZM382.547 384.641C382.106 383.927 382.334 382.992 383.049 382.551C383.763 382.11 384.698 382.331 385.139 383.045C385.58 383.76 385.351 384.694 384.637 385.135C384.394 385.287 384.112 385.363 383.846 385.363C383.338 385.363 382.836 385.105 382.547 384.641ZM296.484 384.687C295.777 384.239 295.564 383.296 296.013 382.589C296.461 381.882 297.396 381.661 298.103 382.11C298.817 382.559 299.03 383.501 298.582 384.208C298.293 384.671 297.799 384.922 297.298 384.922C297.016 384.922 296.735 384.847 296.484 384.687ZM388.902 380.476C388.4 379.807 388.537 378.849 389.206 378.348C389.875 377.846 390.832 377.983 391.334 378.651C391.843 379.32 391.707 380.27 391.038 380.779C390.764 380.985 390.438 381.084 390.118 381.084C389.662 381.084 389.205 380.871 388.902 380.476ZM290.138 380.263C289.469 379.754 289.347 378.796 289.857 378.128C290.366 377.467 291.324 377.337 291.985 377.854C292.654 378.363 292.783 379.321 292.266 379.982C291.97 380.37 291.514 380.575 291.058 380.575C290.738 380.575 290.411 380.476 290.138 380.263ZM394.853 375.749C394.283 375.125 394.336 374.16 394.952 373.598C395.575 373.035 396.541 373.081 397.102 373.704C397.665 374.328 397.619 375.285 396.996 375.848C396.707 376.114 396.342 376.243 395.978 376.243C395.56 376.242 395.149 376.076 394.853 375.749ZM284.225 375.27C283.609 374.7 283.571 373.742 284.141 373.127C284.711 372.511 285.676 372.473 286.292 373.043C286.908 373.613 286.946 374.571 286.375 375.194C286.071 375.513 285.668 375.68 285.258 375.68C284.886 375.68 284.513 375.543 284.225 375.27ZM400.333 370.489C399.718 369.919 399.672 368.961 400.242 368.339C400.804 367.723 401.77 367.678 402.385 368.248C403.008 368.81 403.046 369.776 402.484 370.391C402.181 370.726 401.77 370.885 401.36 370.885C400.994 370.884 400.622 370.755 400.333 370.489ZM278.798 369.759C278.235 369.136 278.289 368.171 278.912 367.616C279.535 367.053 280.493 367.107 281.055 367.73C281.618 368.353 281.565 369.311 280.941 369.873C280.652 370.139 280.287 370.269 279.923 370.269C279.512 370.269 279.094 370.094 278.798 369.759ZM405.312 364.75C404.643 364.241 404.513 363.283 405.023 362.614C405.524 361.945 406.482 361.816 407.151 362.325C407.82 362.834 407.949 363.784 407.44 364.453C407.144 364.848 406.687 365.053 406.231 365.053C405.912 365.055 405.585 364.956 405.312 364.75ZM273.895 363.77C273.394 363.101 273.538 362.144 274.207 361.642C274.884 361.14 275.834 361.285 276.335 361.961V361.954C276.837 362.63 276.7 363.58 276.024 364.082C275.75 364.288 275.431 364.386 275.119 364.386C274.655 364.386 274.192 364.173 273.895 363.77ZM409.735 358.571C409.028 358.123 408.808 357.188 409.256 356.481V356.474C409.697 355.759 410.632 355.547 411.346 355.988C412.061 356.436 412.274 357.371 411.833 358.086C411.544 358.549 411.05 358.8 410.541 358.8C410.267 358.799 409.986 358.723 409.735 358.571ZM269.57 357.355C269.137 356.64 269.365 355.706 270.079 355.265C270.793 354.831 271.728 355.059 272.169 355.774C272.603 356.488 272.374 357.431 271.66 357.864C271.417 358.016 271.143 358.084 270.869 358.084C270.361 358.085 269.859 357.827 269.57 357.355ZM413.574 352.012C412.821 351.632 412.517 350.72 412.897 349.975C413.269 349.222 414.189 348.918 414.934 349.291C415.686 349.671 415.99 350.583 415.618 351.336C415.344 351.867 414.813 352.172 414.257 352.172C414.022 352.171 413.794 352.118 413.574 352.012ZM265.861 350.567C265.488 349.815 265.8 348.903 266.56 348.538C267.313 348.166 268.224 348.485 268.589 349.237C268.961 349.99 268.642 350.902 267.89 351.267C267.677 351.373 267.449 351.419 267.229 351.419C266.667 351.419 266.12 351.107 265.861 350.567ZM416.789 345.126C416.006 344.822 415.618 343.94 415.923 343.157C416.227 342.375 417.109 341.986 417.892 342.291C418.675 342.595 419.063 343.477 418.758 344.26C418.523 344.861 417.945 345.226 417.337 345.226C417.154 345.224 416.971 345.194 416.789 345.126ZM262.79 343.468C262.79 343.468 262.79 343.468 262.798 343.468C262.494 342.678 262.897 341.804 263.68 341.507C264.463 341.211 265.344 341.606 265.641 342.389C265.938 343.179 265.535 344.054 264.752 344.35C264.577 344.418 264.395 344.449 264.22 344.449C263.604 344.449 263.026 344.076 262.79 343.468ZM419.343 337.966C418.537 337.737 418.066 336.902 418.294 336.088C418.522 335.283 419.365 334.819 420.171 335.047C420.976 335.276 421.448 336.119 421.22 336.925C421.03 337.594 420.422 338.027 419.761 338.027C419.624 338.026 419.479 338.011 419.343 337.966ZM260.404 336.104C260.184 335.298 260.655 334.462 261.468 334.242C262.282 334.022 263.118 334.493 263.338 335.306C263.559 336.111 263.08 336.947 262.274 337.168C262.137 337.207 262.001 337.229 261.871 337.229C261.202 337.228 260.586 336.78 260.404 336.104ZM421.22 330.608C420.392 330.456 419.845 329.658 420.004 328.837C420.155 328.009 420.946 327.469 421.775 327.621C422.595 327.773 423.143 328.571 422.991 329.392C422.854 330.122 422.215 330.631 421.494 330.631C421.402 330.631 421.311 330.624 421.22 330.608ZM258.709 328.556C258.565 327.728 259.119 326.945 259.948 326.801C260.769 326.649 261.559 327.204 261.704 328.032C261.849 328.86 261.301 329.644 260.473 329.788C260.382 329.811 260.29 329.818 260.207 329.818C259.477 329.817 258.838 329.293 258.709 328.556ZM422.398 323.106C421.562 323.03 420.946 322.285 421.023 321.449V321.456C421.106 320.613 421.844 320.004 422.68 320.081C423.516 320.157 424.132 320.894 424.056 321.73C423.98 322.52 423.318 323.114 422.543 323.114C422.496 323.114 422.451 323.114 422.398 323.106ZM257.728 320.887C257.728 320.887 257.728 320.887 257.721 320.887C257.652 320.051 258.276 319.314 259.119 319.245C259.955 319.177 260.685 319.8 260.753 320.636C260.822 321.472 260.198 322.21 259.362 322.278C259.324 322.278 259.278 322.285 259.241 322.285C258.458 322.285 257.789 321.677 257.728 320.887ZM421.365 314.008C421.365 313.164 422.049 312.488 422.885 312.488C423.728 312.488 424.405 313.164 424.405 314.008C424.405 314.844 423.728 315.521 422.885 315.521C422.048 315.521 421.365 314.844 421.365 314.008ZM258.952 314.693C258.116 314.685 257.439 313.994 257.447 313.157C257.462 312.314 258.147 311.644 258.982 311.652C259.826 311.659 260.495 312.343 260.487 313.187C260.48 314.015 259.803 314.692 258.967 314.692C258.967 314.692 258.96 314.693 258.952 314.693ZM421.159 308.186C421.098 307.35 421.729 306.621 422.565 306.567C423.401 306.506 424.131 307.137 424.192 307.973C424.253 308.809 423.622 309.539 422.786 309.592C422.748 309.6 422.71 309.6 422.672 309.6C421.881 309.6 421.22 308.992 421.159 308.186ZM259.241 307.099C258.405 307.015 257.797 306.271 257.88 305.434C257.964 304.598 258.708 303.99 259.545 304.073C260.381 304.157 260.989 304.902 260.905 305.738C260.822 306.521 260.168 307.106 259.392 307.106C259.347 307.107 259.294 307.107 259.241 307.099ZM420.284 300.783C420.148 299.955 420.71 299.172 421.539 299.035C422.367 298.898 423.15 299.461 423.287 300.289C423.424 301.117 422.862 301.9 422.033 302.037C421.949 302.053 421.865 302.06 421.782 302.06C421.053 302.06 420.406 301.528 420.284 300.783ZM260.222 299.567C259.393 299.407 258.861 298.602 259.021 297.781C259.188 296.96 259.986 296.42 260.807 296.588C261.628 296.748 262.168 297.545 262.008 298.366C261.864 299.096 261.225 299.598 260.518 299.598C260.419 299.597 260.32 299.582 260.222 299.567ZM418.727 293.493C418.515 292.688 419.001 291.851 419.814 291.639C420.627 291.426 421.455 291.912 421.668 292.726C421.881 293.54 421.395 294.368 420.581 294.581C420.452 294.611 420.323 294.634 420.193 294.634C419.524 294.634 418.909 294.178 418.727 293.493ZM261.893 292.156C261.087 291.921 260.632 291.077 260.867 290.271C261.11 289.465 261.954 289.001 262.76 289.244C263.566 289.48 264.022 290.323 263.786 291.129C263.588 291.79 262.98 292.216 262.327 292.216C262.183 292.217 262.038 292.201 261.893 292.156ZM416.5 286.387C416.211 285.596 416.614 284.722 417.405 284.433C418.195 284.144 419.069 284.547 419.358 285.338C419.358 285.338 419.358 285.338 419.351 285.338C419.64 286.128 419.237 287.002 418.446 287.291C418.279 287.352 418.105 287.382 417.929 287.382C417.305 287.383 416.728 287.002 416.5 286.387ZM264.258 284.935C263.475 284.623 263.095 283.734 263.407 282.959C263.718 282.183 264.608 281.803 265.383 282.115C266.166 282.427 266.546 283.308 266.234 284.091C265.991 284.684 265.421 285.041 264.82 285.041C264.63 285.041 264.44 285.011 264.258 284.935ZM413.619 279.509C413.254 278.749 413.581 277.844 414.334 277.487C415.094 277.13 415.998 277.449 416.363 278.209C416.72 278.961 416.401 279.873 415.641 280.23C415.428 280.329 415.208 280.382 414.987 280.382C414.424 280.382 413.877 280.056 413.619 279.509ZM410.107 272.934C409.674 272.212 409.91 271.285 410.639 270.851C411.353 270.426 412.288 270.661 412.722 271.383C413.147 272.105 412.912 273.032 412.19 273.466C411.947 273.61 411.681 273.679 411.414 273.679C410.898 273.679 410.389 273.413 410.107 272.934ZM406.003 266.709C405.509 266.032 405.653 265.082 406.337 264.588C407.013 264.094 407.963 264.238 408.458 264.922C408.952 265.598 408.8 266.548 408.123 267.043C407.857 267.24 407.538 267.339 407.234 267.339C406.763 267.339 406.3 267.119 406.003 266.709ZM401.344 260.894C400.789 260.263 400.843 259.298 401.481 258.75C402.104 258.195 403.069 258.256 403.624 258.887C404.179 259.51 404.118 260.476 403.487 261.03C403.198 261.281 402.841 261.41 402.483 261.41C402.059 261.411 401.641 261.237 401.344 260.894ZM396.16 255.528C395.552 254.95 395.522 253.986 396.099 253.378C396.676 252.77 397.634 252.739 398.25 253.317C398.858 253.895 398.888 254.86 398.311 255.468C398.014 255.779 397.604 255.939 397.201 255.939C396.829 255.938 396.457 255.802 396.16 255.528ZM390.513 250.664C389.852 250.14 389.738 249.189 390.255 248.528C390.772 247.867 391.722 247.753 392.383 248.27C392.383 248.27 392.383 248.27 392.391 248.27C393.052 248.787 393.166 249.745 392.649 250.405C392.345 250.785 391.896 250.983 391.448 250.983C391.121 250.983 390.786 250.876 390.513 250.664ZM291.179 248.847C290.677 248.17 290.822 247.22 291.498 246.719C292.174 246.225 293.125 246.369 293.626 247.046C294.12 247.723 293.975 248.673 293.299 249.174C293.033 249.371 292.714 249.47 292.402 249.47C291.931 249.47 291.475 249.25 291.179 248.847ZM384.44 246.339C383.733 245.883 383.528 244.94 383.984 244.234C384.44 243.527 385.375 243.33 386.082 243.778C386.789 244.234 386.994 245.176 386.538 245.883C386.249 246.331 385.755 246.582 385.261 246.582C384.98 246.582 384.691 246.499 384.44 246.339ZM297.419 244.515C296.985 243.801 297.214 242.866 297.936 242.433C298.658 242 299.586 242.228 300.019 242.95C300.452 243.665 300.224 244.607 299.502 245.04C299.259 245.184 298.985 245.253 298.719 245.253C298.21 245.252 297.701 244.994 297.419 244.515ZM377.987 242.592C377.242 242.205 376.953 241.284 377.34 240.54C377.728 239.795 378.648 239.506 379.392 239.894C380.137 240.281 380.426 241.201 380.039 241.946C379.765 242.463 379.233 242.767 378.686 242.767C378.451 242.767 378.215 242.706 377.987 242.592ZM304.032 240.783C303.667 240.023 303.987 239.119 304.747 238.753C304.747 238.753 304.747 238.753 304.739 238.753C305.499 238.388 306.411 238.707 306.776 239.46C307.133 240.22 306.822 241.124 306.062 241.489C305.849 241.596 305.629 241.641 305.401 241.641C304.838 241.642 304.298 241.323 304.032 240.783ZM371.222 239.46C370.44 239.149 370.067 238.259 370.386 237.484C370.698 236.709 371.587 236.329 372.37 236.648C373.145 236.967 373.518 237.849 373.198 238.632C372.962 239.217 372.392 239.574 371.791 239.574C371.602 239.574 371.412 239.536 371.222 239.46ZM310.964 237.674C310.675 236.891 311.078 236.017 311.861 235.721C312.651 235.432 313.525 235.835 313.815 236.618C314.111 237.408 313.708 238.283 312.918 238.571C312.743 238.639 312.568 238.67 312.393 238.67C311.777 238.67 311.192 238.29 310.964 237.674ZM364.191 236.983C363.386 236.74 362.929 235.888 363.173 235.083C363.416 234.285 364.268 233.829 365.066 234.072C365.066 234.072 365.066 234.072 365.073 234.072C365.871 234.308 366.327 235.159 366.084 235.964C365.887 236.625 365.286 237.044 364.632 237.044C364.488 237.043 364.336 237.028 364.191 236.983ZM318.154 235.234C317.941 234.421 318.42 233.585 319.233 233.372C320.046 233.152 320.875 233.63 321.095 234.443C321.308 235.257 320.829 236.093 320.024 236.305H320.016C319.887 236.343 319.758 236.358 319.621 236.358C318.952 236.359 318.336 235.911 318.154 235.234ZM356.963 235.166C356.142 234.999 355.61 234.193 355.769 233.372C355.937 232.551 356.742 232.019 357.563 232.186C358.384 232.353 358.916 233.151 358.748 233.972C358.604 234.694 357.973 235.196 357.267 235.196C357.161 235.196 357.062 235.181 356.963 235.166ZM325.549 233.471C325.405 232.642 325.96 231.859 326.788 231.715C327.616 231.578 328.407 232.133 328.544 232.962C328.688 233.79 328.125 234.574 327.297 234.71C327.214 234.725 327.13 234.733 327.046 234.733C326.317 234.733 325.671 234.208 325.549 233.471ZM349.598 234.026C348.762 233.935 348.154 233.19 348.246 232.354C348.337 231.518 349.082 230.918 349.918 231.001C350.754 231.092 351.362 231.845 351.271 232.673C351.188 233.456 350.526 234.034 349.759 234.034C349.705 234.034 349.651 234.034 349.598 234.026ZM333.066 232.399C333.006 231.563 333.629 230.833 334.465 230.773C335.301 230.704 336.038 231.335 336.099 232.171C336.16 233.007 335.536 233.737 334.701 233.805C334.663 233.805 334.617 233.805 334.579 233.805C333.797 233.805 333.127 233.197 333.066 232.399ZM342.149 233.569H342.157C341.313 233.562 340.644 232.87 340.659 232.034C340.666 231.19 341.358 230.522 342.195 230.537C342.195 230.537 342.195 230.537 342.203 230.537C343.039 230.544 343.707 231.236 343.7 232.08C343.685 232.909 343.008 233.577 342.18 233.577C342.172 233.577 342.165 233.577 342.149 233.569Z" fill="#60424C"/>
<path d="M218.839 126.437C215.191 129.127 213.48 133.854 210.587 138.151C207.692 142.45 208.906 141.685 206.501 142.419C204.097 143.155 203.374 140.351 200.299 136.299C197.221 132.242 198.8 132.681 197.304 129.011C195.808 125.34 192.552 124.171 192.216 121.778C191.881 119.386 190.173 120.133 187.442 118.077C184.71 116.021 184.038 119.183 180.41 121.076C176.785 122.974 177.202 122.188 176.101 118.58C175.003 114.975 170.685 112.08 169.036 114.425C167.386 116.768 168.787 124.755 166.659 130.268C164.531 135.779 163.82 140.134 163.686 145.299C163.555 150.464 161.697 153.201 158.02 157.08C154.341 160.961 153.914 162.135 149.881 164.419C145.847 166.701 141.707 165.512 139.366 163.785C137.022 162.057 136.891 151.766 137.043 145.807C137.197 139.85 138.095 143.448 137.775 140.259C137.461 137.074 135.302 128.27 133.337 127.372C131.373 126.471 127.039 124.877 125.942 121.208C124.842 117.54 121.285 116.779 116.892 117.459C112.501 118.141 109.643 116.479 108.35 112.47C107.06 108.46 107.257 105.683 113.112 105.039C118.97 104.392 119.277 102.015 122.903 100.121C126.53 98.226 127.755 97.065 128.262 92.704C128.771 88.344 126.734 90.28 123.208 88.201C119.683 86.123 117.698 86.073 113.703 81.995C109.709 77.917 113.133 78.006 111.617 75.183C110.098 72.36 107.262 70.592 106.528 68.188C105.796 65.784 106.294 65.601 109.592 64.096C112.889 62.592 116.322 62.184 120.33 60.964C124.337 59.74 125.991 57.264 133.481 59.798C140.971 62.331 147.741 61.8 148.974 60.194C150.207 58.592 156.157 59.23 160.109 60.127C164.061 61.023 170.04 60.38 170.04 60.38C170.04 60.38 172.456 59.25 175.665 58.139C178.875 57.031 178.506 55.827 180.606 51.507C182.707 47.187 183.487 47.712 183.487 47.712C183.487 47.712 185.817 47.405 188.63 47.086C182.22 41.613 175.127 36.912 167.491 33.127C165.375 33.202 160.69 35.191 157.353 35.329C153.737 35.474 150.146 35.021 146.607 33.368C143.066 31.713 137.361 31.469 134.388 32.847C131.412 34.227 125.182 34.862 123.007 36.536C120.829 38.204 114.482 38.923 109.761 36.709C105.04 34.493 100.717 37.134 96.135 38.744C91.555 40.357 88.502 41.428 83.447 40.011C79.675 38.954 76.736 35.626 76.61 32.898C67.447 37.382 59.038 43.192 51.641 50.083C53.087 52.161 55.203 54.101 57.715 53.127C62.535 51.263 66.534 50.362 66.848 53.655C67.161 56.946 65.521 58.893 69.443 60.982C73.366 63.072 74.088 65.871 77.959 69.947C81.831 74.023 85.03 73.31 85.356 76.1C85.682 78.892 86.038 80.491 81.974 83.965C77.907 87.44 77.134 86.624 73.14 87.318C69.146 88.01 65.55 88.711 63.104 91.037C60.661 93.358 60.212 95.337 57.38 97.251C54.547 99.166 53.05 95.551 51.726 100.684C50.401 105.82 53.946 107.1 47.947 108.54C41.946 109.976 39.591 108.72 39.479 113.091C39.369 117.463 40.142 118.278 44.91 118.4C49.678 118.522 50.503 117.35 51.206 120.947C51.909 124.541 53.048 126.561 57.816 126.682C62.586 126.805 62.229 125.206 67.751 126.938C73.272 128.67 76.123 125.962 79.272 127.234C82.419 128.507 83.648 127.161 88.795 127.981C92.323 128.544 98.562 132.587 100.258 133.491C99.129 132.244 98.403 131.587 99.026 132.113C100.863 133.662 101.04 133.906 100.258 133.491C102.507 135.979 106.356 140.818 104.303 143.38C96.5 153.121 92.874 155.013 91.926 160.953C90.977 166.895 92.507 169.318 92.007 173.28C91.508 177.243 88.634 180.746 86.557 184.274C84.478 187.799 84.061 188.581 84.376 191.771C84.693 194.958 87.443 196.222 81.799 199.26C76.155 202.294 74.892 205.045 74.831 207.425C74.77 209.809 67.354 204.453 69.494 198.544C71.633 192.634 74.108 189.119 69.809 186.228C65.51 183.334 65.611 179.364 60.078 178.027C54.547 176.69 52.124 178.22 52.224 174.248C52.326 170.276 50.001 168.014 50.916 163.266C51.834 158.52 55.924 154.065 54.04 150.042C52.154 146.019 48.527 147.914 48.679 141.951C48.832 135.994 48.895 133.609 45.319 133.518C41.743 133.425 41.284 135.8 36.525 135.281C31.767 134.761 32.113 136.758 30.219 133.13C28.326 129.504 29.15 128.39 26.052 125.101C22.956 121.812 25.055 117.493 26.339 113.948C27.62 110.402 28.263 106.442 24.927 101.983C23.952 100.681 23.097 99.694 22.305 98.866C20.266 106.522 19.08 114.535 18.866 122.801C17.787 164.901 42.133 201.736 77.921 218.619C78.541 217.77 79.264 217.146 79.968 217.253C81.766 217.522 86.939 215.099 90.553 214.893C94.167 214.682 97.763 215.077 101.329 216.67C104.898 218.266 110.607 218.411 113.558 216.983C116.509 215.557 122.726 214.816 124.876 213.109C127.023 211.401 133.358 210.578 138.115 212.713C142.871 214.846 147.151 212.134 151.704 210.446C156.256 208.757 159.292 207.635 164.369 208.969C168.069 209.937 171 213.08 171.299 215.765C202.362 198.71 223.784 166.063 224.76 128.082C224.812 126.031 224.795 123.999 224.732 121.974C222.995 123.724 221.076 124.787 218.839 126.437ZM100.501 58.977C96.466 61.243 98.913 58.953 90.568 58.739C82.225 58.525 87.002 58.251 83.742 61.348C80.482 64.445 79.183 60.794 77.061 58.394C73.381 54.233 78.457 50.478 81.643 50.162C84.833 49.846 85.27 48.266 89.696 46.228C94.123 44.19 96.05 46.556 99.63 46.483C103.209 46.411 102.313 50.294 106.277 50.795C110.24 51.295 111.881 49.429 113.734 54.645C115.59 59.861 112.879 56.928 109.777 56.848C106.675 56.768 104.534 56.712 100.501 58.977Z" fill="#EF9262"/>
<path d="M24.924 101.981C28.26 106.44 27.618 110.399 26.336 113.946C25.053 117.49 22.954 121.81 26.049 125.099C29.146 128.388 28.323 129.502 30.216 133.128C32.11 136.756 31.764 134.759 36.522 135.279C41.281 135.798 41.739 133.423 45.316 133.516C48.892 133.607 48.829 135.992 48.676 141.949C48.523 147.912 52.151 146.017 54.037 150.04C55.921 154.063 51.831 158.518 50.913 163.264C49.998 168.011 52.323 170.274 52.221 174.246C52.12 178.219 54.544 176.688 60.075 178.025C65.608 179.363 65.507 183.333 69.806 186.226C74.105 189.117 71.629 192.632 69.491 198.542C67.352 204.451 74.767 209.807 74.828 207.423C74.89 205.043 76.152 202.292 81.796 199.258C87.439 196.22 84.69 194.956 84.373 191.769C84.058 188.579 84.476 187.797 86.554 184.272C88.631 180.744 91.505 177.241 92.004 173.278C92.505 169.315 90.974 166.892 91.923 160.951C92.871 155.011 96.497 153.119 104.3 143.378C106.354 140.816 102.505 135.977 100.255 133.489C98.559 132.585 92.32 128.542 88.792 127.979C83.645 127.159 82.416 128.505 79.269 127.232C76.12 125.96 73.269 128.668 67.748 126.936C62.227 125.204 62.583 126.803 57.813 126.68C53.045 126.559 51.905 124.539 51.203 120.945C50.5 117.347 49.674 118.52 44.907 118.398C40.139 118.276 39.366 117.461 39.476 113.089C39.588 108.718 41.943 109.974 47.944 108.538C53.943 107.098 50.398 105.818 51.723 100.682C53.048 95.549 54.544 99.164 57.377 97.249C60.209 95.335 60.658 93.356 63.101 91.035C65.547 88.71 69.143 88.008 73.137 87.316C77.131 86.623 77.904 87.439 81.971 83.963C86.035 80.49 85.679 78.89 85.353 76.098C85.027 73.308 81.827 74.021 77.956 69.945C74.085 65.869 73.363 63.07 69.44 60.98C65.518 58.891 67.158 56.945 66.845 53.653C66.531 50.36 62.532 51.261 57.712 53.125C55.2 54.099 53.084 52.159 51.638 50.081C37.709 63.052 27.364 79.852 22.302 98.865C23.094 99.692 23.949 100.68 24.924 101.981Z" fill="#EB655F"/>
<path d="M113.734 54.644C111.881 49.428 110.24 51.294 106.277 50.794C102.313 50.293 103.209 46.41 99.63 46.482C96.05 46.555 94.122 44.189 89.696 46.227C85.27 48.266 84.833 49.845 81.643 50.161C78.457 50.477 73.381 54.231 77.061 58.393C79.184 60.793 80.483 64.444 83.742 61.347C87.003 58.25 82.225 58.524 90.568 58.738C98.913 58.953 96.466 61.242 100.501 58.976C104.534 56.711 106.675 56.766 109.777 56.846C112.879 56.927 115.59 59.86 113.734 54.644Z" fill="#EB655F"/>
<path d="M188.628 47.085C185.816 47.404 183.485 47.711 183.485 47.711C183.485 47.711 182.706 47.186 180.604 51.506C178.505 55.825 178.873 57.029 175.663 58.138C172.454 59.249 170.038 60.379 170.038 60.379C170.038 60.379 164.059 61.022 160.107 60.126C156.155 59.229 150.205 58.591 148.972 60.193C147.739 61.799 140.969 62.331 133.479 59.797C125.989 57.263 124.335 59.739 120.328 60.963C116.32 62.184 112.887 62.592 109.59 64.095C106.293 65.6 105.794 65.783 106.526 68.187C107.26 70.591 110.097 72.36 111.615 75.182C113.131 78.005 109.706 77.916 113.701 81.994C117.696 86.072 119.68 86.122 123.206 88.2C126.732 90.279 128.77 88.343 128.26 92.703C127.752 97.064 126.527 98.226 122.901 100.12C119.275 102.014 118.968 104.391 113.11 105.038C107.255 105.682 107.058 108.459 108.348 112.469C109.641 116.478 112.5 118.14 116.89 117.458C121.283 116.778 124.84 117.538 125.94 121.207C127.038 124.876 131.371 126.469 133.335 127.371C135.299 128.269 137.459 137.073 137.773 140.258C138.093 143.447 137.194 139.849 137.041 145.806C136.89 151.765 137.021 162.055 139.364 163.784C141.705 165.511 145.845 166.7 149.879 164.418C153.912 162.134 154.339 160.96 158.018 157.079C161.695 153.199 163.553 150.462 163.684 145.298C163.818 140.133 164.529 135.778 166.657 130.267C168.785 124.754 167.384 116.767 169.034 114.424C170.684 112.079 175.002 114.973 176.099 118.579C177.2 122.187 176.783 122.973 180.408 121.075C184.036 119.181 184.708 116.019 187.44 118.076C190.17 120.132 191.879 119.385 192.214 121.777C192.549 124.17 195.806 125.339 197.302 129.01C198.798 132.68 197.219 132.241 200.297 136.298C203.373 140.351 204.096 143.154 206.499 142.418C208.904 141.684 207.69 142.449 210.585 138.15C213.478 133.852 215.188 129.126 218.837 126.436C221.074 124.786 222.993 123.723 224.727 121.972C223.75 92.102 209.988 65.32 188.628 47.085Z" fill="#EB655F"/>
<path d="M164.367 208.969C159.29 207.635 156.254 208.757 151.702 210.446C147.149 212.134 142.869 214.846 138.113 212.713C133.356 210.578 127.021 211.401 124.874 213.109C122.724 214.816 116.506 215.557 113.556 216.983C110.605 218.411 104.896 218.266 101.327 216.67C97.761 215.077 94.164 214.682 90.551 214.893C86.937 215.099 81.764 217.522 79.966 217.253C79.262 217.145 78.539 217.77 77.919 218.619C90.465 224.538 104.413 228.009 119.172 228.387C138.046 228.87 155.862 224.244 171.298 215.766C170.999 213.08 168.068 209.937 164.367 208.969Z" fill="#EB655F"/>
<path d="M83.444 40.009C88.499 41.426 91.552 40.354 96.132 38.742C100.714 37.132 105.038 34.491 109.758 36.707C114.478 38.92 120.826 38.202 123.004 36.534C125.18 34.86 131.409 34.225 134.385 32.845C137.358 31.467 143.063 31.711 146.604 33.366C150.144 35.019 153.735 35.473 157.35 35.327C160.687 35.189 165.372 33.2 167.488 33.125C154.486 26.681 139.912 22.891 124.451 22.495C107.298 22.056 91.021 25.84 76.606 32.896C76.733 35.624 79.673 38.952 83.444 40.009Z" fill="#EB655F"/>
<path d="M224.73 121.973C223.75 92.102 209.988 65.32 188.628 47.084C182.218 41.611 175.125 36.91 167.489 33.125C154.488 26.681 139.913 22.891 124.452 22.494C107.299 22.055 91.022 25.839 76.607 32.895C67.444 37.379 59.035 43.189 51.638 50.08C37.709 63.051 27.364 79.851 22.302 98.864C20.264 106.52 19.077 114.533 18.863 122.799C17.784 164.899 42.13 201.734 77.918 218.617C90.464 224.536 104.412 228.007 119.171 228.385C138.045 228.868 155.861 224.242 171.297 215.764C202.36 198.709 223.782 166.062 224.758 128.081C224.81 126.031 224.793 123.998 224.73 121.973Z" fill="url(#paint0_linear_2_5)"/>
<path d="M312.346 277.866C312.344 277.862 312.343 277.859 312.341 277.855C312.255 277.67 312.189 277.463 312.142 277.236C312.139 277.222 312.136 277.207 312.133 277.193C312.088 276.961 312.062 276.71 312.061 276.437C312.061 276.253 312.087 276.061 312.107 275.872C312.12 275.754 312.124 275.637 312.144 275.517C312.174 275.341 312.222 275.163 312.267 274.985C312.296 274.872 312.315 274.759 312.35 274.646C312.437 274.363 312.54 274.08 312.661 273.802C312.663 273.797 312.666 273.791 312.668 273.786C312.793 273.501 312.935 273.22 313.092 272.948C313.096 272.941 313.1 272.935 313.103 272.928C313.262 272.654 313.435 272.388 313.622 272.135L313.625 272.132C313.813 271.877 314.014 271.634 314.226 271.409C314.228 271.407 314.23 271.405 314.232 271.403C314.438 271.184 314.654 270.983 314.877 270.8C314.891 270.789 314.904 270.778 314.918 270.767C315.143 270.585 315.376 270.422 315.614 270.284L353.495 248.413L329.513 219.018C329.382 218.857 329.276 218.672 329.192 218.47C329.19 218.466 329.188 218.461 329.186 218.457C329.103 218.253 329.042 218.031 329.003 217.794C329.003 217.791 329.003 217.788 329.002 217.786C328.965 217.553 328.95 217.305 328.955 217.047C328.955 217.039 328.954 217.031 328.954 217.024C328.957 216.884 328.982 216.734 328.997 216.588C329.011 216.456 329.014 216.329 329.037 216.194C329.063 216.044 329.11 215.889 329.148 215.736C329.182 215.599 329.205 215.464 329.248 215.325C329.337 215.037 329.447 214.746 329.575 214.457C329.578 214.45 329.581 214.443 329.584 214.436C329.714 214.145 329.862 213.855 330.03 213.571L330.031 213.57C330.201 213.283 330.39 213.001 330.597 212.729C330.741 212.541 330.889 212.365 331.039 212.2C331.047 212.191 331.055 212.182 331.063 212.174C331.21 212.014 331.359 211.866 331.51 211.728C331.523 211.716 331.537 211.704 331.55 211.692C331.692 211.565 331.835 211.448 331.979 211.34C332.009 211.318 332.039 211.297 332.069 211.276C332.213 211.172 332.358 211.075 332.502 210.992C332.659 210.901 332.814 210.841 332.969 210.775C333.107 210.716 333.244 210.666 333.379 210.627C333.478 210.599 333.576 210.577 333.673 210.559C333.826 210.532 333.973 210.522 334.118 210.523C334.22 210.523 334.323 210.519 334.421 210.533C334.465 210.54 334.508 210.548 334.551 210.558C334.724 210.597 334.892 210.652 335.044 210.74L261.092 167.764C260.94 167.675 260.772 167.621 260.599 167.582C260.556 167.572 260.513 167.564 260.469 167.557C260.425 167.55 260.384 167.536 260.34 167.532C260.285 167.527 260.223 167.547 260.167 167.546C260.022 167.545 259.875 167.555 259.722 167.582C259.675 167.59 259.632 167.582 259.584 167.593C259.533 167.605 259.479 167.635 259.428 167.649C259.293 167.688 259.157 167.738 259.018 167.797C258.956 167.823 258.896 167.833 258.833 167.864C258.739 167.91 258.645 167.96 258.551 168.014C258.462 168.066 258.373 168.121 258.283 168.18C258.228 168.217 258.173 168.259 258.118 168.298C258.088 168.319 258.058 168.34 258.028 168.362C258.008 168.377 257.988 168.389 257.968 168.405C257.886 168.468 257.804 168.534 257.723 168.604C257.682 168.639 257.64 168.677 257.599 168.714C257.585 168.726 257.572 168.738 257.559 168.75C257.544 168.764 257.529 168.776 257.513 168.791C257.45 168.849 257.388 168.91 257.325 168.972C257.267 169.03 257.21 169.089 257.153 169.15C257.139 169.165 257.125 169.181 257.111 169.197C257.103 169.206 257.095 169.215 257.087 169.224C257.056 169.258 257.024 169.292 256.993 169.328C256.942 169.386 256.891 169.445 256.841 169.506C256.793 169.563 256.746 169.622 256.7 169.682C256.682 169.706 256.663 169.729 256.645 169.753C256.619 169.788 256.593 169.822 256.567 169.857C256.522 169.918 256.478 169.979 256.435 170.041C256.392 170.102 256.351 170.163 256.31 170.225C256.269 170.286 256.23 170.348 256.191 170.411C256.153 170.472 256.116 170.533 256.08 170.594L256.079 170.595L256.078 170.596C256.041 170.659 256.005 170.721 255.97 170.784C255.935 170.846 255.901 170.909 255.868 170.972C255.835 171.035 255.803 171.098 255.771 171.162C255.739 171.227 255.708 171.291 255.678 171.356C255.662 171.391 255.647 171.426 255.631 171.461C255.628 171.468 255.625 171.475 255.621 171.482C255.61 171.507 255.598 171.533 255.587 171.558C255.556 171.629 255.527 171.701 255.498 171.772C255.465 171.856 255.433 171.94 255.402 172.025C255.364 172.131 255.328 172.238 255.295 172.343C255.294 172.345 255.294 172.348 255.293 172.35C255.25 172.489 255.227 172.624 255.193 172.761C255.155 172.914 255.108 173.069 255.082 173.219C255.059 173.354 255.056 173.481 255.042 173.613C255.027 173.756 255.002 173.903 254.998 174.04C254.998 174.043 254.998 174.046 254.998 174.049C254.998 174.057 254.999 174.064 254.999 174.072C254.996 174.219 254.999 174.364 255.01 174.504C255.018 174.609 255.031 174.711 255.047 174.811C255.047 174.814 255.047 174.816 255.048 174.819C255.048 174.821 255.048 174.823 255.049 174.825C255.063 174.91 255.08 174.992 255.099 175.073C255.116 175.143 255.135 175.211 255.156 175.278C255.176 175.339 255.197 175.399 255.22 175.457C255.223 175.465 255.228 175.473 255.231 175.482C255.233 175.487 255.235 175.491 255.237 175.495C255.254 175.536 255.271 175.578 255.29 175.617C255.313 175.665 255.337 175.712 255.363 175.757C255.388 175.801 255.415 175.845 255.443 175.887C255.47 175.928 255.498 175.967 255.528 176.005C255.538 176.018 255.548 176.03 255.558 176.043L279.54 205.438L241.66 227.308C241.57 227.36 241.48 227.416 241.392 227.474C241.285 227.545 241.179 227.621 241.074 227.701C241.037 227.73 241 227.761 240.963 227.791C240.949 227.802 240.936 227.813 240.922 227.824C240.891 227.849 240.86 227.873 240.829 227.899C240.759 227.959 240.69 228.02 240.621 228.084C240.558 228.143 240.495 228.203 240.433 228.265C240.38 228.318 240.328 228.372 240.277 228.427C240.275 228.43 240.272 228.432 240.27 228.434C240.267 228.438 240.263 228.441 240.26 228.444C240.207 228.501 240.154 228.559 240.102 228.618C240.051 228.676 240.001 228.735 239.952 228.794C239.904 228.852 239.856 228.912 239.809 228.972C239.763 229.031 239.718 229.09 239.673 229.151C239.672 229.153 239.67 229.155 239.669 229.157L239.668 229.159C239.626 229.216 239.584 229.274 239.543 229.333C239.501 229.393 239.459 229.455 239.419 229.516C239.378 229.577 239.338 229.64 239.299 229.702C239.26 229.764 239.222 229.827 239.185 229.89C239.172 229.911 239.161 229.933 239.148 229.954C239.144 229.961 239.14 229.967 239.137 229.974C239.117 230.009 239.096 230.044 239.077 230.079C239.042 230.142 239.008 230.205 238.974 230.269C238.941 230.333 238.908 230.397 238.876 230.461C238.844 230.526 238.813 230.59 238.783 230.656C238.759 230.708 238.736 230.761 238.713 230.813C238.711 230.818 238.709 230.822 238.707 230.827C238.702 230.838 238.697 230.85 238.692 230.861C238.661 230.933 238.631 231.006 238.602 231.079C238.57 231.159 238.54 231.239 238.511 231.319C238.473 231.425 238.437 231.531 238.404 231.637C238.4 231.649 238.399 231.66 238.395 231.672C238.36 231.785 238.341 231.898 238.312 232.011C238.267 232.189 238.219 232.366 238.189 232.543C238.169 232.663 238.165 232.779 238.152 232.898C238.137 233.041 238.111 233.186 238.108 233.326C238.107 233.372 238.106 233.418 238.106 233.464C238.106 233.58 238.111 233.692 238.119 233.8C238.128 233.911 238.141 234.017 238.157 234.12C238.163 234.154 238.171 234.186 238.177 234.22C238.18 234.235 238.183 234.249 238.186 234.263C238.193 234.298 238.199 234.335 238.207 234.37C238.224 234.44 238.243 234.509 238.264 234.575C238.284 234.636 238.305 234.696 238.328 234.754C238.346 234.798 238.365 234.841 238.384 234.883C238.386 234.887 238.387 234.89 238.389 234.894C238.392 234.9 238.395 234.907 238.398 234.914C238.421 234.962 238.445 235.009 238.471 235.054C238.496 235.098 238.522 235.141 238.55 235.182C238.577 235.222 238.605 235.261 238.634 235.299C238.659 235.332 238.686 235.364 238.713 235.394L238.716 235.397C238.718 235.399 238.72 235.402 238.722 235.404C238.752 235.437 238.783 235.47 238.815 235.5C238.846 235.53 238.878 235.559 238.911 235.586C238.944 235.613 238.977 235.639 239.012 235.664C239.047 235.689 239.081 235.712 239.117 235.734C239.127 235.74 239.137 235.746 239.148 235.752L313.1 278.728C312.94 278.635 312.796 278.516 312.669 278.373L312.666 278.37C312.543 278.222 312.435 278.055 312.346 277.866Z" fill="url(#paint1_linear_2_5)"/>
<path d="M332.503 210.987C331.85 211.364 331.19 211.952 330.598 212.725C328.939 214.902 328.455 217.714 329.513 219.017L353.495 248.412L315.614 270.282C313.646 271.418 312.054 274.175 312.061 276.437C312.067 278.698 313.67 279.611 315.638 278.475L353.931 256.366C356.449 254.912 358.76 252.002 359.967 248.765C361.174 245.528 361.082 242.483 359.723 240.817L335.524 211.148C334.839 210.311 333.683 210.306 332.503 210.987Z" fill="#8C4E5A"/>
<path d="M203.352 9.84C203.356 8.578 203.803 7.691 204.524 7.276C204.521 7.278 204.518 7.27899 204.515 7.27999L216.4 0.372997C216.411 0.366997 216.422 0.359996 216.433 0.353996C216.487 0.323996 216.543 0.296996 216.6 0.271996C216.62 0.262996 216.641 0.256997 216.662 0.248997C216.678 0.242997 216.693 0.236995 216.709 0.230995C216.728 0.223995 216.747 0.215996 216.767 0.208996C216.822 0.190996 216.879 0.174995 216.936 0.160995C216.949 0.157995 216.963 0.155996 216.977 0.152996C216.991 0.149996 217.005 0.147997 217.019 0.144997C217.048 0.138997 217.078 0.132995 217.108 0.127995C217.165 0.119995 217.223 0.112997 217.283 0.108997C217.293 0.107997 217.303 0.108998 217.312 0.107998C217.324 0.106998 217.337 0.106995 217.349 0.106995C217.387 0.104995 217.424 0.102997 217.462 0.102997C217.523 0.102997 217.585 0.105996 217.648 0.110996C217.654 0.110996 217.66 0.111995 217.666 0.112995C217.676 0.113995 217.686 0.114997 217.696 0.115997C217.745 0.120997 217.793 0.124996 217.843 0.132996C217.908 0.142996 217.975 0.154994 218.042 0.169994L218.045 0.170998H218.047C218.118 0.185998 218.189 0.204995 218.262 0.224995C218.306 0.237995 218.35 0.252998 218.395 0.267998C218.413 0.273998 218.431 0.278995 218.45 0.285995C218.464 0.290995 218.477 0.293996 218.49 0.298996C218.566 0.325996 218.642 0.355996 218.719 0.388996C218.745 0.399996 218.772 0.413995 218.798 0.424995C218.818 0.433995 218.839 0.443995 218.86 0.452995C218.888 0.465995 218.916 0.477997 218.944 0.491997C219.01 0.523997 219.076 0.558997 219.142 0.595997C219.174 0.613997 219.207 0.631997 219.24 0.650997L421.892 117.652C421.917 117.667 421.943 117.682 421.968 117.697C422.017 117.727 422.067 117.757 422.116 117.789C422.161 117.818 422.206 117.848 422.251 117.878C422.287 117.902 422.322 117.927 422.357 117.952C422.392 117.977 422.427 118.003 422.462 118.029C422.495 118.054 422.528 118.078 422.561 118.104C422.589 118.125 422.616 118.147 422.643 118.169C422.66 118.182 422.676 118.196 422.693 118.209L422.697 118.212C422.706 118.22 422.716 118.227 422.725 118.235C422.752 118.257 422.779 118.28 422.806 118.303C422.832 118.325 422.858 118.348 422.884 118.37C422.909 118.392 422.934 118.414 422.959 118.436C422.984 118.458 423.008 118.481 423.033 118.504C423.058 118.527 423.082 118.55 423.107 118.573C423.134 118.599 423.161 118.624 423.188 118.65C423.219 118.68 423.249 118.71 423.28 118.741C423.31 118.772 423.34 118.802 423.37 118.833C423.393 118.857 423.416 118.881 423.439 118.906C423.442 118.909 423.444 118.912 423.447 118.914C423.458 118.926 423.47 118.938 423.481 118.95C423.549 119.023 423.616 119.098 423.681 119.174C423.713 119.211 423.744 119.248 423.775 119.285C423.851 119.377 423.926 119.47 424 119.565C424.026 119.599 424.053 119.634 424.079 119.669C424.092 119.686 424.104 119.702 424.116 119.719C424.118 119.721 424.119 119.723 424.121 119.726C424.133 119.742 424.145 119.758 424.157 119.775C424.183 119.81 424.208 119.846 424.233 119.881C424.252 119.908 424.271 119.935 424.289 119.962C424.307 119.987 424.324 120.013 424.341 120.039C424.358 120.065 424.376 120.09 424.393 120.116C424.41 120.142 424.427 120.168 424.444 120.194C424.461 120.22 424.477 120.245 424.494 120.271C424.51 120.296 424.525 120.321 424.541 120.346C424.557 120.371 424.572 120.396 424.587 120.421C424.602 120.446 424.617 120.471 424.633 120.497C424.648 120.522 424.663 120.547 424.678 120.573C424.687 120.589 424.697 120.606 424.706 120.622C424.706 120.622 424.707 120.624 424.708 120.626C424.713 120.635 424.718 120.644 424.724 120.653C424.74 120.682 424.757 120.71 424.773 120.739C424.789 120.768 424.805 120.797 424.821 120.825C424.837 120.854 424.852 120.883 424.868 120.912C424.883 120.941 424.899 120.97 424.914 120.999C424.933 121.036 424.952 121.072 424.97 121.109C424.989 121.146 425.007 121.183 425.025 121.22C425.043 121.257 425.061 121.295 425.079 121.332C425.1 121.375 425.12 121.419 425.139 121.462C425.157 121.501 425.174 121.539 425.19 121.578C425.191 121.58 425.192 121.583 425.193 121.585C425.197 121.593 425.201 121.602 425.204 121.61C425.225 121.66 425.246 121.709 425.267 121.759C425.293 121.822 425.318 121.884 425.342 121.947C425.367 122.012 425.391 122.076 425.414 122.141C425.441 122.217 425.467 122.293 425.492 122.369C425.513 122.434 425.533 122.498 425.553 122.563C425.554 122.568 425.556 122.573 425.558 122.578C425.561 122.588 425.565 122.599 425.568 122.609C425.594 122.698 425.619 122.786 425.642 122.875C425.666 122.969 425.689 123.062 425.709 123.156C425.731 123.255 425.75 123.354 425.767 123.452C425.772 123.483 425.776 123.514 425.781 123.544C425.783 123.56 425.786 123.575 425.788 123.59C425.797 123.649 425.807 123.708 425.815 123.766C425.83 123.884 425.842 124.001 425.85 124.117C425.86 124.252 425.865 124.386 425.865 124.519C425.865 124.525 425.865 124.53 425.865 124.536L425.416 283.038C425.416 283.219 425.406 283.391 425.388 283.556C425.381 283.616 425.36 283.663 425.352 283.721C425.329 283.872 425.296 284.011 425.258 284.146C425.225 284.265 425.192 284.382 425.148 284.49C425.098 284.613 425.038 284.722 424.975 284.829C424.94 284.889 424.917 284.965 424.877 285.02C424.848 285.061 424.811 285.093 424.779 285.131C424.748 285.169 424.717 285.205 424.684 285.24C424.554 285.377 424.414 285.501 424.256 285.593L412.371 292.5C412.374 292.498 412.376 292.495 412.38 292.493C411.655 292.92 410.649 292.864 409.536 292.222L206.879 175.223C204.672 173.949 202.895 170.871 202.902 168.342L203.352 9.84Z" fill="#8C4E5A"/>
<path d="M208.347 12.351C207.611 11.926 207.011 12.261 207.009 13.107L207.007 13.684C207.01 12.523 207.838 12.057 208.849 12.641L208.347 12.351Z" fill="#F9F9F9"/>
<path d="M300.078 215.502C299.534 215.188 299.084 215.444 299.082 216.076L299.079 216.942C299.077 217.574 299.524 218.349 300.069 218.663L316.392 228.087C316.942 228.405 317.392 228.148 317.394 227.516L317.396 226.65C317.398 226.018 316.951 225.243 316.4 224.925L300.078 215.502Z" fill="#EB655F"/>
<path d="M214.482 22.915C213.381 22.28 212.487 22.789 212.484 24.061L212.479 25.786C212.475 27.058 213.364 28.596 214.464 29.232L229.406 37.859C230.507 38.494 231.401 37.985 231.404 36.713L231.409 34.988C231.413 33.717 230.524 32.178 229.424 31.542L214.482 22.915Z" fill="#EF9262"/>
<path d="M408.486 127.902C409.497 128.486 410.314 129.9 410.31 131.062L410.258 149.296L206.955 31.919L207.007 13.684C207.01 12.523 207.838 12.057 208.849 12.641L408.486 127.902ZM237.206 40.062C237.202 41.333 238.091 42.872 239.191 43.508L402.79 137.962C403.89 138.597 404.785 138.088 404.788 136.816L404.793 135.091C404.797 133.82 403.908 132.281 402.808 131.645L239.209 37.191C238.108 36.556 237.214 37.065 237.211 38.337L237.206 40.062ZM212.478 25.786C212.474 27.058 213.363 28.596 214.463 29.232L229.405 37.859C230.506 38.494 231.4 37.985 231.403 36.713L231.408 34.988C231.412 33.717 230.523 32.178 229.423 31.542L214.481 22.915C213.38 22.28 212.486 22.789 212.483 24.061L212.478 25.786Z" fill="#FFD0BB"/>
<path d="M202.902 168.34C202.895 170.869 204.671 173.947 206.878 175.221L409.53 292.222C411.731 293.493 413.52 292.474 413.527 289.945L413.976 131.443C413.983 128.914 412.207 125.83 410.005 124.559L207.354 7.55701C205.147 6.28301 203.358 7.30901 203.351 9.83801L202.902 168.34ZM300.069 218.664C299.525 218.35 299.078 217.575 299.08 216.943L299.082 216.077C299.084 215.444 299.534 215.188 300.078 215.502L316.401 224.926C316.951 225.244 317.399 226.018 317.397 226.651L317.395 227.517C317.393 228.149 316.943 228.406 316.393 228.088L300.069 218.664ZM207.955 150.55C207.219 150.125 206.623 149.092 206.626 148.254L206.956 31.919L207.008 13.685C207.012 12.263 207.612 11.927 208.348 12.352L408.488 127.903C409.72 128.614 410.317 129.64 410.314 130.486L409.931 265.633C409.929 266.471 409.329 266.814 408.599 266.392L207.955 150.55Z" fill="#60424C"/>
<path d="M239.209 37.191C238.108 36.556 237.214 37.065 237.211 38.337L237.206 40.062C237.202 41.333 238.091 42.872 239.191 43.508L402.79 137.962C403.891 138.597 404.785 138.088 404.788 136.816L404.793 135.091C404.797 133.82 403.908 132.281 402.808 131.645L239.209 37.191Z" fill="#F9F9F9"/>
<path d="M206.955 31.919L410.259 149.297L409.929 265.632C409.926 266.47 409.326 266.812 408.596 266.391L207.955 150.55C207.219 150.125 206.623 149.092 206.625 148.254L206.955 31.919Z" fill="#EB655F"/>
<path d="M218.247 135.296L230.125 128.221L230.116 127.028L218.237 134.104L218.247 135.296Z" fill="#CD784F"/>
<path d="M218.217 131.551L230.095 124.475L230.086 123.283L218.207 130.359L218.217 131.551Z" fill="#CD784F"/>
<path d="M263.652 160.861L275.53 153.785L230.125 128.221L218.247 135.296L263.652 160.861Z" fill="#B8664D"/>
<path d="M263.677 164.072L275.556 156.996L275.53 153.785L263.652 160.861L263.677 164.072Z" fill="#CD784F"/>
<path d="M263.652 160.861L275.53 153.785L275.521 152.593L263.642 159.669L263.652 160.861Z" fill="#9F5045"/>
<path d="M263.642 159.669L275.521 152.593L230.116 127.028L218.237 134.104L263.642 159.669Z" fill="#10284B"/>
<path d="M263.652 160.861L263.642 159.669L218.237 134.104L218.247 135.296L263.652 160.861Z" fill="#B8664D"/>
<path d="M263.622 157.116L275.5 150.04L230.095 124.475L218.217 131.551L263.622 157.116Z" fill="#B8664D"/>
<path d="M263.642 159.669L275.521 152.593L275.5 150.04L263.622 157.116L263.642 159.669Z" fill="#CD784F"/>
<path d="M263.612 155.923L275.491 148.848L230.086 123.283L218.207 130.359L263.612 155.923Z" fill="#10284B"/>
<path d="M263.622 157.116L263.612 155.923L218.207 130.359L218.217 131.551L263.622 157.116Z" fill="#B8664D"/>
<path d="M263.622 157.116L275.5 150.04L275.491 148.848L263.612 155.923L263.622 157.116Z" fill="#9F5045"/>
<path d="M217.769 75.412L229.648 68.337L229.62 64.889L217.742 71.965L217.769 75.412Z" fill="#CD784F"/>
<path d="M263.174 100.977L275.053 93.901L229.648 68.337L217.769 75.412L263.174 100.977Z" fill="#B8664D"/>
<path d="M263.612 155.923L275.491 148.848L275.053 93.901L263.174 100.977L263.612 155.923Z" fill="#CD784F"/>
<path d="M263.174 100.977L275.053 93.901L275.025 90.453L263.147 97.529L263.174 100.977Z" fill="#9F5045"/>
<path d="M263.147 97.529L275.025 90.453L229.62 64.889L217.742 71.965L263.147 97.529Z" fill="#10284B"/>
<path d="M263.174 100.977L263.147 97.529L217.742 71.965L217.769 75.412L263.174 100.977Z" fill="#B8664D"/>
<path d="M263.147 97.529L275.025 90.453L274.974 84.075L263.096 91.151L263.147 97.529Z" fill="#CD784F"/>
<path d="M263.096 91.151L274.974 84.075L229.569 58.511L217.691 65.586L263.096 91.151Z" fill="#B8664D"/>
<path d="M219.397 64.57L227.902 59.504L267.139 81.552C264.345 83.246 261.668 85.136 258.918 86.906L219.397 64.57Z" fill="white"/>
<path d="M263.073 89.254L258.917 86.905C261.666 85.136 264.344 83.245 267.138 81.551L271.7 84.114L263.073 89.254Z" fill="#FFD0BB"/>
<path d="M263.677 164.072L263.652 160.861L218.247 135.296L218.237 134.104L263.642 159.669L263.622 157.116L218.217 131.551L218.207 130.359L263.612 155.923L263.174 100.977L217.769 75.412L217.742 71.965L263.147 97.529L263.096 91.151L217.691 65.586L218.272 138.508L263.677 164.072Z" fill="#EF9262"/>
<path d="M268.996 164.604L278.207 159.117L278.2 158.193L268.988 163.68L268.996 164.604Z" fill="#CD784F"/>
<path d="M268.973 161.7L278.184 156.213L278.177 155.288L268.965 160.776L268.973 161.7Z" fill="#CD784F"/>
<path d="M304.207 184.429L313.418 178.942L278.207 159.117L268.996 164.604L304.207 184.429Z" fill="#B8664D"/>
<path d="M304.226 186.919L313.438 181.432L313.418 178.942L304.207 184.429L304.226 186.919Z" fill="#CD784F"/>
<path d="M304.207 184.429L313.418 178.942L313.411 178.017L304.199 183.505L304.207 184.429Z" fill="#9F5045"/>
<path d="M304.199 183.505L313.411 178.017L278.2 158.193L268.988 163.68L304.199 183.505Z" fill="#10284B"/>
<path d="M304.207 184.429L304.199 183.505L268.988 163.68L268.996 164.604L304.207 184.429Z" fill="#B8664D"/>
<path d="M304.183 181.525L313.395 176.038L278.184 156.213L268.973 161.7L304.183 181.525Z" fill="#B8664D"/>
<path d="M304.199 183.505L313.411 178.017L313.395 176.038L304.183 181.525L304.199 183.505Z" fill="#CD784F"/>
<path d="M304.176 180.6L313.387 175.113L278.177 155.288L268.965 160.776L304.176 180.6Z" fill="#10284B"/>
<path d="M304.183 181.525L304.176 180.6L268.965 160.776L268.973 161.7L304.183 181.525Z" fill="#B8664D"/>
<path d="M304.183 181.525L313.395 176.038L313.387 175.113L304.176 180.6L304.183 181.525Z" fill="#9F5045"/>
<path d="M268.626 118.166L277.837 112.678L277.816 110.005L268.604 115.492L268.626 118.166Z" fill="#CD784F"/>
<path d="M303.836 137.99L313.048 132.503L277.837 112.678L268.626 118.166L303.836 137.99Z" fill="#B8664D"/>
<path d="M304.176 180.6L313.387 175.113L313.048 132.503L303.836 137.99L304.176 180.6Z" fill="#CD784F"/>
<path d="M303.836 137.99L313.048 132.503L313.026 129.829L303.815 135.316L303.836 137.99Z" fill="#9F5045"/>
<path d="M303.815 135.316L313.026 129.829L277.816 110.005L268.604 115.492L303.815 135.316Z" fill="#10284B"/>
<path d="M303.836 137.99L303.815 135.316L268.604 115.492L268.626 118.166L303.836 137.99Z" fill="#B8664D"/>
<path d="M303.815 135.316L313.026 129.829L312.987 124.883L303.776 130.37L303.815 135.316Z" fill="#CD784F"/>
<path d="M303.776 130.37L312.987 124.883L277.776 105.059L268.565 110.546L303.776 130.37Z" fill="#B8664D"/>
<path d="M269.888 109.758L276.483 105.829L306.91 122.926C304.743 124.239 302.667 125.706 300.535 127.077L269.888 109.758Z" fill="white"/>
<path d="M303.758 128.899L300.535 127.078C302.667 125.706 304.743 124.24 306.91 122.927L310.448 124.915L303.758 128.899Z" fill="#FFD0BB"/>
<path d="M304.226 186.919L304.207 184.429L268.996 164.604L268.988 163.68L304.199 183.505L304.183 181.525L268.973 161.7L268.965 160.776L304.176 180.6L303.836 137.99L268.626 118.166L268.604 115.492L303.815 135.316L303.776 130.37L268.565 110.546L269.016 167.094L304.226 186.919Z" fill="#EF9262"/>
<path d="M221.944 67.981V112.678L226.094 110.546L230.095 115.593V72.209L221.944 67.981Z" fill="#B8664D"/>
<path d="M87.53 317.178C87.419 317.183 87.305 317.166 87.194 317.128C87.061 317.08 73.749 312.262 61.547 300.499C50.264 289.622 37.619 270.421 41.457 240.713C41.52 240.224 41.963 239.879 42.457 239.942C42.946 240.005 43.291 240.453 43.228 240.942C39.486 269.913 51.799 288.62 62.787 299.213C74.715 310.712 87.664 315.4 87.793 315.445C88.258 315.61 88.501 316.121 88.335 316.586C88.208 316.939 87.883 317.164 87.53 317.178Z" fill="#60424C"/>
<path d="M37.917 238.065C32.764 230.344 25.254 217.082 31.414 213.124C34.274 211.286 37.593 214.173 39.793 219.474C40.486 214.197 42.271 210.06 46.102 209.695C49.845 209.338 51.568 214.046 50.864 220.507C53.196 217.407 55.848 215.581 58.702 216.559C60.678 217.236 61.351 219.163 60.939 221.706C51.047 221.967 42.14 228.789 37.917 238.065Z" fill="#C25955"/>
<path d="M29.44 220.866C35.321 221.376 41.161 223.973 45.206 228.207C42.164 230.899 39.644 234.27 37.917 238.064C34.725 233.281 30.631 226.373 29.44 220.866Z" fill="#EB655F"/>
<path d="M37.917 238.065C42.14 228.789 51.047 221.968 60.939 221.706C60.451 224.721 58.433 228.604 55.178 232.34C51.906 236.095 48.058 239.184 45.234 241.218C44.408 241.813 43.395 242.084 42.382 241.981C41.177 241.859 40.087 241.218 39.393 240.226C38.936 239.571 38.438 238.846 37.917 238.065Z" fill="#8C4E5A"/>
<path d="M86.89 317.213C84.101 317.331 73.171 317.439 60.706 312.885C47.609 308.099 30.405 297.03 22.829 271.479C22.689 271.007 22.958 270.51 23.431 270.37C23.901 270.231 24.401 270.499 24.541 270.973C30.447 290.889 42.8 304.42 61.256 311.185C75.065 316.247 87.309 315.405 87.427 315.397C87.936 315.319 88.347 315.729 88.384 316.221C88.42 316.713 88.052 317.141 87.56 317.177C87.499 317.181 87.269 317.197 86.89 317.213Z" fill="#60424C"/>
<path d="M19.098 270.573C12.136 266.154 1.26801 258.082 4.84801 252.652C6.51101 250.131 10.244 251.282 13.938 254.797C12.603 250.261 12.566 246.259 15.547 244.586C18.459 242.951 21.552 246.155 23.303 251.656C24.082 248.299 25.58 245.863 28.25 245.631C30.099 245.47 31.338 246.794 31.918 249.007C23.975 252.776 19.192 261.52 19.098 270.573Z" fill="#C25955"/>
<path d="M6.02802 259.65C10.988 257.95 16.666 257.959 21.474 259.945C19.971 263.225 19.136 266.87 19.098 270.573C14.785 267.835 8.97502 263.695 6.02802 259.65Z" fill="#EB655F"/>
<path d="M19.098 270.573C19.193 261.52 23.975 252.777 31.917 249.007C32.604 251.632 32.361 255.512 31.061 259.716C29.753 263.942 27.738 267.835 26.175 270.503C25.718 271.283 24.992 271.868 24.133 272.148C23.11 272.482 21.995 272.353 21.074 271.797C20.467 271.43 19.802 271.02 19.098 270.573Z" fill="#8C4E5A"/>
<path d="M87.529 317.178C87.334 317.186 87.135 317.131 86.965 317.007C86.659 316.783 56.522 294.228 72.152 259.018C72.352 258.569 72.88 258.366 73.33 258.564C73.781 258.764 73.984 259.292 73.784 259.743C58.748 293.616 87.725 315.349 88.019 315.565C88.417 315.856 88.503 316.415 88.212 316.813C88.046 317.041 87.792 317.167 87.529 317.178Z" fill="#60424C"/>
<path d="M70.663 256.77C68.836 250.846 66.556 240.926 71.253 239.566C73.434 238.934 75.009 241.415 75.407 245.227C76.856 241.981 78.787 239.673 81.309 240.17C83.773 240.655 83.979 243.997 82.297 247.998C84.38 246.458 86.426 245.794 88.066 246.964C89.202 247.774 89.266 249.135 88.517 250.685C82.135 248.968 75.133 251.637 70.663 256.77Z" fill="#C25955"/>
<path d="M68.514 244.146C72.181 245.593 75.424 248.368 77.207 251.849C74.747 252.993 72.492 254.67 70.663 256.77C69.531 253.1 68.227 247.898 68.514 244.146Z" fill="#EB655F"/>
<path d="M70.663 256.77C75.133 251.637 82.135 248.968 88.517 250.685C87.63 252.522 85.598 254.623 82.803 256.394C79.993 258.174 76.941 259.418 74.746 260.182C74.104 260.405 73.404 260.386 72.775 260.127C72.027 259.819 71.452 259.201 71.196 258.434C71.028 257.929 70.848 257.369 70.663 256.77Z" fill="#8C4E5A"/>
<path d="M86.885 316.899C86.885 316.899 69.698 297.913 75.683 290.455C81.667 282.998 93.1 310.95 88.478 317.797C83.855 324.643 59.334 334.237 58.291 324.861C57.248 315.486 86.885 316.899 86.885 316.899Z" fill="url(#paint2_linear_2_5)"/>
<path d="M174.379 249.023L174.452 274.995L176.389 276.12L176.315 250.148L174.379 249.023Z" fill="#CD784F"/>
<path d="M180.461 252.558L180.535 278.53L182.471 279.655L182.398 253.683L180.461 252.558Z" fill="#CD784F"/>
<path d="M89.611 297.964L89.685 323.936L174.452 274.995L174.379 249.023L89.611 297.964Z" fill="#B8664D"/>
<path d="M84.395 294.933L84.469 320.905L89.685 323.936L89.611 297.964L84.395 294.933Z" fill="#CD784F"/>
<path d="M89.611 297.964L89.685 323.936L91.621 325.061L91.547 299.089L89.611 297.964Z" fill="#9F5045"/>
<path d="M91.547 299.089L91.621 325.061L176.389 276.12L176.315 250.148L91.547 299.089Z" fill="#10284B"/>
<path d="M89.611 297.964L91.547 299.089L176.315 250.148L174.379 249.023L89.611 297.964Z" fill="#B8664D"/>
<path d="M95.693 301.499L95.767 327.471L180.535 278.53L180.461 252.558L95.693 301.499Z" fill="#B8664D"/>
<path d="M91.547 299.089L91.621 325.061L95.767 327.471L95.693 301.499L91.547 299.089Z" fill="#CD784F"/>
<path d="M97.63 302.624L97.703 328.596L182.471 279.655L182.398 253.683L97.63 302.624Z" fill="#10284B"/>
<path d="M95.693 301.499L97.63 302.624L182.398 253.683L180.461 252.558L95.693 301.499Z" fill="#B8664D"/>
<path d="M95.693 301.499L95.767 327.471L97.703 328.596L97.63 302.624L95.693 301.499Z" fill="#9F5045"/>
<path d="M271.641 305.546L271.715 331.518L277.315 334.772L277.241 308.8L271.641 305.546Z" fill="#CD784F"/>
<path d="M186.873 354.487L186.947 380.458L271.715 331.518L271.641 305.546L186.873 354.487Z" fill="#B8664D"/>
<path d="M97.63 302.624L97.703 328.596L186.947 380.458L186.873 354.487L97.63 302.624Z" fill="#CD784F"/>
<path d="M186.873 354.487L186.947 380.458L192.547 383.713L192.473 357.741L186.873 354.487Z" fill="#9F5045"/>
<path d="M192.473 357.741L192.547 383.713L277.315 334.772L277.241 308.8L192.473 357.741Z" fill="#10284B"/>
<path d="M186.873 354.487L192.473 357.741L277.241 308.8L271.641 305.546L186.873 354.487Z" fill="#B8664D"/>
<path d="M192.473 357.741L192.547 383.713L202.906 389.733L202.832 363.761L192.473 357.741Z" fill="#CD784F"/>
<path d="M202.832 363.761L202.906 389.733L287.674 340.792L287.6 314.82L202.832 363.761Z" fill="#B8664D"/>
<path d="M287.611 318.55L287.664 337.145L214.483 379.479C214.418 373.342 213.923 367.205 213.694 361.068L287.611 318.55Z" fill="#E4F3F3"/>
<path d="M205.921 365.539L213.694 361.068C213.923 367.205 214.418 373.342 214.483 379.479L205.974 384.401L205.921 365.539Z" fill="#FFD0BB"/>
<path d="M84.395 294.933L89.611 297.964L174.379 249.023L176.315 250.148L91.547 299.089L95.693 301.499L180.461 252.558L182.398 253.683L97.63 302.624L186.873 354.487L271.641 305.546L277.241 308.8L192.473 357.741L202.832 363.761L287.6 314.82L169.163 245.992L84.395 294.933Z" fill="#EF9262"/>
<path d="M175.214 215.053L175.288 241.025L177.224 242.15L177.15 216.178L175.214 215.053Z" fill="#C25955"/>
<path d="M181.296 218.588L181.37 244.56L183.306 245.685L183.233 219.713L181.296 218.588Z" fill="#C25955"/>
<path d="M90.446 263.994L90.52 289.966L175.288 241.025L175.214 215.053L90.446 263.994Z" fill="#8C4E5A"/>
<path d="M85.231 260.963L85.304 286.935L90.52 289.966L90.446 263.994L85.231 260.963Z" fill="#C25955"/>
<path d="M90.446 263.994L90.52 289.966L92.456 291.091L92.382 265.119L90.446 263.994Z" fill="#8C4E5A"/>
<path d="M92.382 265.119L92.456 291.091L177.224 242.15L177.15 216.178L92.382 265.119Z" fill="#1C5D5D"/>
<path d="M90.446 263.994L92.382 265.119L177.15 216.178L175.214 215.053L90.446 263.994Z" fill="#C25955"/>
<path d="M96.529 267.529L96.602 293.5L181.37 244.56L181.296 218.588L96.529 267.529Z" fill="#8C4E5A"/>
<path d="M92.382 265.119L92.456 291.091L96.602 293.5L96.529 267.529L92.382 265.119Z" fill="#C25955"/>
<path d="M98.465 268.654L98.538 294.626L183.306 245.685L183.233 219.713L98.465 268.654Z" fill="#1C5D5D"/>
<path d="M96.529 267.529L98.465 268.654L183.233 219.713L181.296 218.588L96.529 267.529Z" fill="#C25955"/>
<path d="M96.529 267.529L96.602 293.5L98.538 294.626L98.465 268.654L96.529 267.529Z" fill="#8C4E5A"/>
<path d="M272.476 271.576L272.55 297.547L278.156 300.806L278.083 274.834L272.476 271.576Z" fill="#C25955"/>
<path d="M187.708 320.516L187.782 346.488L272.55 297.547L272.476 271.576L187.708 320.516Z" fill="#8C4E5A"/>
<path d="M98.465 268.654L98.538 294.626L187.782 346.488L187.708 320.516L98.465 268.654Z" fill="#C25955"/>
<path d="M187.708 320.516L187.782 346.488L193.388 349.746L193.315 323.775L187.708 320.516Z" fill="#8C4E5A"/>
<path d="M193.315 323.775L193.388 349.746L278.156 300.806L278.083 274.834L193.315 323.775Z" fill="#1C5D5D"/>
<path d="M187.708 320.516L193.315 323.775L278.083 274.834L272.476 271.576L187.708 320.516Z" fill="#C25955"/>
<path d="M193.315 323.775L193.388 349.746L203.748 355.767L203.674 329.795L193.315 323.775Z" fill="#C25955"/>
<path d="M203.674 329.795L203.748 355.767L288.516 306.826L288.442 280.854L203.674 329.795Z" fill="#8C4E5A"/>
<path d="M85.231 260.963L90.446 263.994L175.214 215.053L177.15 216.178L92.382 265.119L96.529 267.529L181.296 218.588L183.233 219.713L98.465 268.654L187.708 320.516L272.476 271.576L278.083 274.834L193.315 323.775L203.674 329.795L288.442 280.854L169.998 212.022L85.231 260.963Z" fill="#EB655F"/>
<path d="M288.453 284.584L288.506 303.179L215.325 345.513C215.26 339.376 214.765 333.239 214.536 327.102L288.453 284.584Z" fill="#E4F3F3"/>
<path d="M206.763 331.573L214.536 327.102C214.765 333.239 215.26 339.376 215.325 345.513L206.817 350.435L206.763 331.573Z" fill="#FFD0BB"/>
<path d="M176.423 198.486L176.476 217.335L177.881 218.151L177.828 199.303L176.423 198.486Z" fill="#CD784F"/>
<path d="M180.837 201.051L180.89 219.9L182.295 220.717L182.242 201.868L180.837 201.051Z" fill="#CD784F"/>
<path d="M114.904 234.004L114.957 252.853L176.476 217.335L176.423 198.486L114.904 234.004Z" fill="#B8664D"/>
<path d="M111.119 231.805L111.172 250.653L114.957 252.853L114.904 234.004L111.119 231.805Z" fill="#CD784F"/>
<path d="M114.904 234.004L114.957 252.853L116.362 253.669L116.309 234.821L114.904 234.004Z" fill="#9F5045"/>
<path d="M116.309 234.821L116.362 253.669L177.881 218.151L177.828 199.303L116.309 234.821Z" fill="#10284B"/>
<path d="M114.904 234.004L116.309 234.821L177.828 199.303L176.423 198.486L114.904 234.004Z" fill="#B8664D"/>
<path d="M119.318 236.569L119.372 255.418L180.89 219.9L180.837 201.051L119.318 236.569Z" fill="#B8664D"/>
<path d="M116.309 234.821L116.362 253.669L119.372 255.418L119.318 236.569L116.309 234.821Z" fill="#CD784F"/>
<path d="M120.723 237.386L120.777 256.235L182.295 220.717L182.242 201.868L120.723 237.386Z" fill="#10284B"/>
<path d="M119.318 236.569L120.723 237.386L182.242 201.868L180.837 201.051L119.318 236.569Z" fill="#B8664D"/>
<path d="M119.318 236.569L119.372 255.418L120.777 256.235L120.723 237.386L119.318 236.569Z" fill="#9F5045"/>
<path d="M247.009 239.507L247.062 258.355L251.126 260.717L251.073 241.868L247.009 239.507Z" fill="#CD784F"/>
<path d="M185.49 275.024L185.543 293.873L247.062 258.355L247.009 239.507L185.49 275.024Z" fill="#B8664D"/>
<path d="M120.723 237.386L120.777 256.235L185.543 293.873L185.49 275.024L120.723 237.386Z" fill="#CD784F"/>
<path d="M185.49 275.024L185.543 293.873L189.608 296.235L189.554 277.386L185.49 275.024Z" fill="#9F5045"/>
<path d="M189.554 277.386L189.608 296.235L251.126 260.717L251.073 241.868L189.554 277.386Z" fill="#10284B"/>
<path d="M185.49 275.024L189.554 277.386L251.073 241.868L247.009 239.507L185.49 275.024Z" fill="#B8664D"/>
<path d="M189.554 277.386L189.608 296.235L197.126 300.604L197.072 281.755L189.554 277.386Z" fill="#CD784F"/>
<path d="M197.072 281.755L197.126 300.604L258.645 265.086L258.591 246.237L197.072 281.755Z" fill="#B8664D"/>
<path d="M258.599 248.944L258.637 262.439L205.527 293.162C205.48 288.708 205.121 284.254 204.954 279.8L258.599 248.944Z" fill="#E4F3F3"/>
<path d="M199.314 283.046L204.955 279.801C205.121 284.255 205.481 288.709 205.528 293.163L199.353 296.735L199.314 283.046Z" fill="#FFD0BB"/>
<path d="M111.119 231.805L114.904 234.004L176.423 198.486L177.828 199.303L116.309 234.821L119.318 236.569L180.837 201.051L182.242 201.868L120.723 237.386L185.49 275.024L247.009 239.507L251.073 241.868L189.554 277.386L197.072 281.755L258.591 246.237L172.638 196.287L111.119 231.805Z" fill="#EF9262"/>
<path d="M177.029 173.833L177.082 192.682L178.487 193.498L178.434 174.65L177.029 173.833Z" fill="#C25955"/>
<path d="M181.443 176.398L181.496 195.247L182.902 196.064L182.848 177.215L181.443 176.398Z" fill="#C25955"/>
<path d="M115.51 209.351L115.563 228.199L177.082 192.682L177.029 173.833L115.51 209.351Z" fill="#8C4E5A"/>
<path d="M111.725 207.151L111.778 226L115.563 228.199L115.51 209.351L111.725 207.151Z" fill="#C25955"/>
<path d="M115.51 209.351L115.563 228.199L116.969 229.016L116.915 210.168L115.51 209.351Z" fill="#8C4E5A"/>
<path d="M116.915 210.168L116.969 229.016L178.487 193.498L178.434 174.65L116.915 210.168Z" fill="#1C5D5D"/>
<path d="M115.51 209.351L116.915 210.168L178.434 174.65L177.029 173.833L115.51 209.351Z" fill="#C25955"/>
<path d="M119.924 211.916L119.978 230.765L181.496 195.247L181.443 176.398L119.924 211.916Z" fill="#8C4E5A"/>
<path d="M116.915 210.168L116.969 229.016L119.978 230.765L119.924 211.916L116.915 210.168Z" fill="#C25955"/>
<path d="M121.329 212.733L121.383 231.581L182.902 196.064L182.848 177.215L121.329 212.733Z" fill="#1C5D5D"/>
<path d="M119.924 211.916L121.329 212.733L182.848 177.215L181.443 176.398L119.924 211.916Z" fill="#C25955"/>
<path d="M119.924 211.916L119.978 230.765L121.383 231.581L121.329 212.733L119.924 211.916Z" fill="#8C4E5A"/>
<path d="M247.615 214.853L247.668 233.702L251.737 236.066L251.684 217.218L247.615 214.853Z" fill="#C25955"/>
<path d="M186.096 250.371L186.15 269.22L247.668 233.702L247.615 214.853L186.096 250.371Z" fill="#8C4E5A"/>
<path d="M121.329 212.733L121.383 231.581L186.15 269.22L186.096 250.371L121.329 212.733Z" fill="#C25955"/>
<path d="M186.096 250.371L186.15 269.22L190.218 271.584L190.165 252.736L186.096 250.371Z" fill="#8C4E5A"/>
<path d="M190.165 252.736L190.218 271.584L251.737 236.066L251.684 217.218L190.165 252.736Z" fill="#1C5D5D"/>
<path d="M186.096 250.371L190.165 252.736L251.684 217.218L247.615 214.853L186.096 250.371Z" fill="#C25955"/>
<path d="M190.165 252.736L190.218 271.584L197.737 275.953L197.683 257.105L190.165 252.736Z" fill="#C25955"/>
<path d="M197.683 257.105L197.737 275.953L259.255 240.435L259.202 221.587L197.683 257.105Z" fill="#8C4E5A"/>
<path d="M111.725 207.151L115.51 209.351L177.029 173.833L178.434 174.65L116.915 210.168L119.924 211.916L181.443 176.398L182.848 177.215L121.329 212.733L186.096 250.371L247.615 214.853L251.684 217.218L190.165 252.736L197.683 257.105L259.202 221.587L173.244 171.633L111.725 207.151Z" fill="#EB655F"/>
<path d="M259.21 224.294L259.248 237.789L206.138 268.512C206.091 264.058 205.732 259.604 205.565 255.15L259.21 224.294Z" fill="#E4F3F3"/>
<path d="M199.924 258.395L205.565 255.15C205.731 259.604 206.091 264.058 206.138 268.512L199.963 272.084L199.924 258.395Z" fill="#FFD0BB"/>
<path opacity="0.35" d="M340.926 378.483C376.532 378.483 405.397 349.618 405.397 314.012C405.397 278.406 376.532 249.541 340.926 249.541C305.32 249.541 276.455 278.406 276.455 314.012C276.455 349.618 305.32 378.483 340.926 378.483Z" fill="#FFFFB1"/>
<path d="M359.16 291.857C346.936 281.253 320.901 281.521 315.766 305.081C313.475 315.592 319.063 324.43 327.406 329.253C328.074 332.724 329.581 338.871 331.928 339.238C334.592 339.655 347.262 339.655 349.926 339.238C352.099 338.898 353.552 333.599 354.285 330.06C356.899 328.614 359.34 326.649 361.473 324.081C365.426 319.327 371.743 302.769 359.16 291.857Z" fill="url(#paint3_linear_2_5)"/>
<path d="M346.49 318.628C346.102 317.045 343.664 317.715 344.05 319.299C344.576 321.444 344.152 324.211 341.47 324.388C338.746 324.565 337.808 321.752 337.908 319.526C337.98 317.895 335.451 317.901 335.379 319.526C335.228 322.932 337.068 326.385 340.496 326.851C340.465 326.962 340.444 327.081 340.444 327.216V340.345C340.444 341.976 342.972 341.976 342.972 340.345V327.216C342.972 327.02 342.935 326.847 342.87 326.698C346.248 325.771 347.292 321.909 346.49 318.628Z" fill="#FFD0BB"/>
<path d="M352.485 341.028C352.485 342.234 351.507 343.21 350.302 343.21H331.815C330.609 343.21 329.632 342.234 329.632 341.028C329.632 339.823 330.609 338.846 331.815 338.846H350.302C351.507 338.846 352.485 339.823 352.485 341.028Z" fill="#EB655F"/>
<path d="M352.485 344.496C352.485 345.702 351.507 346.678 350.302 346.678H331.815C330.609 346.678 329.632 345.701 329.632 344.496C329.632 343.289 330.609 342.313 331.815 342.313H350.302C351.507 342.313 352.485 343.289 352.485 344.496Z" fill="#EB655F"/>
<path d="M352.485 347.961C352.485 349.168 351.507 350.144 350.302 350.144H331.815C330.609 350.144 329.632 349.168 329.632 347.961C329.632 346.757 330.609 345.779 331.815 345.779H350.302C351.507 345.779 352.485 346.757 352.485 347.961Z" fill="#EB655F"/>
<path d="M352.485 351.428C352.485 352.634 351.507 353.612 350.302 353.612H331.815C330.609 353.612 329.632 352.634 329.632 351.428C329.632 350.224 330.609 349.245 331.815 349.245H350.302C351.507 349.245 352.485 350.224 352.485 351.428Z" fill="#EB655F"/>
<path d="M348.762 350.786C348.762 355.041 345.314 358.491 341.06 358.491C336.804 358.491 333.355 355.041 333.355 350.786C333.355 346.531 336.803 343.084 341.06 343.084C345.313 343.083 348.762 346.531 348.762 350.786Z" fill="#EB655F"/>
<path d="M331.439 281.597L329.153 275.824C328.417 273.962 325.532 275.105 326.268 276.966L328.556 282.736C329.292 284.596 332.178 283.454 331.439 281.597Z" fill="#EF9262"/>
<path d="M366.172 335.278L362.003 330.679C360.659 329.198 358.361 331.283 359.705 332.763L363.875 337.364C365.219 338.843 367.518 336.761 366.172 335.278Z" fill="#EF9262"/>
<path d="M322.146 286.728L317.978 282.129C316.632 280.649 314.335 282.734 315.68 284.214L319.85 288.813C321.191 290.297 323.488 288.21 322.146 286.728Z" fill="#EF9262"/>
<path d="M374.135 323.404L368.501 320.796C366.686 319.956 365.383 322.773 367.199 323.611L372.829 326.217C374.648 327.056 375.949 324.244 374.135 323.404Z" fill="#EF9262"/>
<path d="M314.656 295.879L309.022 293.273C307.206 292.432 305.903 295.251 307.719 296.089L313.353 298.698C315.167 299.539 316.47 296.72 314.656 295.879Z" fill="#EF9262"/>
<path d="M376.831 309.365L370.627 309.161C368.63 309.094 368.527 312.2 370.526 312.261L376.732 312.463C378.727 312.53 378.831 309.429 376.831 309.365Z" fill="#EF9262"/>
<path d="M311.327 307.231L305.123 307.029C303.121 306.963 303.023 310.066 305.022 310.129L311.228 310.33C313.226 310.394 313.325 307.295 311.327 307.231Z" fill="#EF9262"/>
<path d="M373.834 295.385L368.043 297.619C366.176 298.338 367.293 301.235 369.161 300.515L374.95 298.279C376.818 297.558 375.701 294.663 373.834 295.385Z" fill="#EF9262"/>
<path d="M312.691 318.979L306.901 321.214C305.034 321.935 306.148 324.829 308.016 324.109L313.807 321.874C315.676 321.154 314.557 318.259 312.691 318.979Z" fill="#EF9262"/>
<path d="M365.622 283.68L361.161 287.998C359.723 289.389 361.882 291.618 363.32 290.228L367.779 285.912C369.218 284.518 367.06 282.288 365.622 283.68Z" fill="#EF9262"/>
<path d="M318.53 329.265L314.072 333.582C312.633 334.975 314.792 337.203 316.228 335.81L320.688 331.495C322.127 330.102 319.968 327.872 318.53 329.265Z" fill="#EF9262"/>
<path d="M340.231 273.847L340.081 280.05C340.033 282.052 343.136 282.124 343.184 280.126L343.332 273.92C343.38 271.921 340.277 271.846 340.231 273.847Z" fill="#EF9262"/>
<path d="M353.494 276.111L351.074 281.825C350.292 283.667 353.15 284.88 353.93 283.038L356.353 277.323C357.133 275.478 354.275 274.27 353.494 276.111Z" fill="#EF9262"/>
<path d="M342.986 182.974L342.974 187.38L397.367 218.509L397.379 214.103L342.986 182.974Z" fill="#C25955"/>
<path d="M327.916 166.132L327.904 170.538L397.39 210.382L397.402 205.975L327.916 166.132Z" fill="#C25955"/>
<path d="M317.708 152.098L317.696 156.498L397.413 202.249L397.425 197.848L317.708 152.098Z" fill="#C25955"/>
<path d="M337.474 146.493L337.455 153.296L397.477 187.675L397.496 180.872L337.474 146.493Z" fill="#C25955"/>
<path d="M327.87 182.387L327.857 186.793L397.343 226.637L397.356 222.23L327.87 182.387Z" fill="#C25955"/>
<defs>
<linearGradient id="paint0_linear_2_5" x1="125.553" y1="129.827" x2="239.065" y2="262.861" gradientUnits="userSpaceOnUse">
<stop stop-color="#60424C" stop-opacity="0"/>
<stop offset="1" stop-color="#60424C"/>
</linearGradient>
<linearGradient id="paint1_linear_2_5" x1="272.807" y1="248.735" x2="299.873" y2="215.467" gradientUnits="userSpaceOnUse">
<stop stop-color="#8C4E5A"/>
<stop offset="1" stop-color="#60424C"/>
</linearGradient>
<linearGradient id="paint2_linear_2_5" x1="57.6358" y1="309.557" x2="89.3639" y2="308.22" gradientUnits="userSpaceOnUse">
<stop stop-color="#8C4E5A"/>
<stop offset="1" stop-color="#60424C"/>
</linearGradient>
<linearGradient id="paint3_linear_2_5" x1="340.666" y1="304.51" x2="343.486" y2="352.44" gradientUnits="userSpaceOnUse">
<stop stop-color="#EF9262"/>
<stop offset="1" stop-color="#8C4E5A"/>
</linearGradient>
</defs>
</svg>
