<svg version="1.1" id="Layer_1" xmlns="http://www.w3.org/2000/svg" x="0" y="0" viewBox="0 0 45 45" style="enable-background:new 0 0 45 45" xml:space="preserve"><style>.st0{fill:#24a7d0}</style><path style="fill:none;stroke:#48639e;stroke-miterlimit:10" d="M4.77 38.67h35.46"/><path class="st0" d="M20.09 20.36c.26 0 .46-.21.46-.46v-1.52c0-.26-.21-.46-.46-.46s-.46.21-.46.46v1.52c0 .25.21.46.46.46zM11.83 26.14c-.25 0-.46.21-.46.46v1.52c0 .26.21.46.46.46.26 0 .46-.21.46-.46V26.6c.01-.25-.2-.46-.46-.46zM15.54 26.14c-.26 0-.46.21-.46.46v1.52c0 .26.21.46.46.46s.46-.21.46-.46V26.6c0-.25-.2-.46-.46-.46zM29.62 28.59c.25 0 .46-.21.46-.46v-1.52c0-.26-.21-.46-.46-.46-.26 0-.46.21-.46.46v1.52c0 .25.21.46.46.46zM33.33 28.59c.25 0 .46-.21.46-.46v-1.52c0-.26-.21-.46-.46-.46-.26 0-.46.21-.46.46v1.52c-.01.25.2.46.46.46zM13.54 20.85c-.26 0-.46.21-.46.46v.84c0 .26.21.46.46.46s.46-.21.46-.46v-.84c0-.25-.21-.46-.46-.46zM22.5 20.36c.26 0 .46-.21.46-.46v-1.52c0-.26-.21-.46-.46-.46s-.46.21-.46.46v1.52c0 .25.21.46.46.46zM24.91 20.36c.26 0 .46-.21.46-.46v-1.52c0-.26-.21-.46-.46-.46s-.46.21-.46.46v1.52c0 .25.2.46.46.46zM31.48 20.85c-.26 0-.46.21-.46.46v.84c0 .26.21.46.46.46s.46-.21.46-.46v-.84c0-.25-.21-.46-.46-.46z"/><path d="M36.32 31.19v7.03h-2.95v-7.03h2.95zm-10.09 0v7.03h-1.87v-7.03h1.87zm-2.8 0v7.03h-1.87v-7.03h1.87zm-2.79 0v7.03h-1.87v-7.03h1.87zm-9.27 0v7.03H8.43v-7.03h2.94zm1.47-11.89.69-.56.69.56h-1.38zm-.85 4.01v-3.08h3.08v3.08h-3.08zm7.82-7.08v-3.69c.37-.25.76-.45 1.18-.59v4.28h-1.18zm2.1-4.49c.43-.06.73-.06 1.18 0v4.48h-1.17l-.01-4.48zm2.11 4.48v-4.28c.41.14.81.34 1.18.59v3.69h-1.18zm2.78.93v4.12h-8.6v-4.12h8.6zm-9.07-.92a4.75 4.75 0 0 1 1.16-2.86v2.86h-1.16zm8.39 0v-2.86c.69.8 1.1 1.81 1.16 2.86h-1.16zM16 23.51V22.2h13v1.31H16zm14.78-4.21.69-.56.69.56h-1.38zm-.85 4.01v-3.08h3.08v3.08h-3.08zm2.51 7.88v7.03h-5.29v-7.03h5.29zm-10.17-4.22-5.7 3.3H8.42v-5.83h27.89v5.83h-7.88l-5.7-3.3a.426.426 0 0 0-.46 0zm4.32 3.3h-8.17l4.09-2.37 4.08 2.37zm-8.74.92v7.03H12.3v-7.03h5.55zm19.79 7.03h-.39v-7.03h.39c.26 0 .47-.2.47-.46s-.21-.46-.47-.46h-.39v-6.3c0-.26-.21-.46-.46-.46h-2.84v-3.74c0-.02 0-.03-.01-.03 0-.03-.01-.06-.01-.09l-.01-.02c0-.02-.01-.04-.02-.06-.01-.03-.03-.05-.05-.07-.01-.03-.03-.05-.05-.07l-2.03-1.64a.453.453 0 0 0-.58 0l-2.01 1.62c-.01 0-.01.01-.01.01-.02.02-.04.04-.06.07l-.02.02c-.01.02-.02.03-.03.06-.01.02-.02.04-.02.07l.07.02h-.08c-.01.03-.01.05-.01.08l-.01 1.53h-1.28v-4.12h.02c.25 0 .46-.21.46-.46v-.21c0-2.96-2.3-5.44-5.24-5.68v-.02h-.93v.02a5.713 5.713 0 0 0-5.24 5.68v.21c0 .25.21.46.46.46h.02v4.12h-1.27v-1.5c0-.02 0-.03-.01-.03 0-.03 0-.06-.01-.08l-.07.02.06-.04c0-.03-.01-.05-.02-.07-.01-.03-.02-.04-.03-.06l-.02-.02c-.02-.02-.03-.05-.05-.06l-2.03-1.64a.453.453 0 0 0-.58 0l-2.01 1.62c-.01 0-.01.01-.01.01-.02.02-.04.04-.06.07l-.02.02c-.01.02-.02.03-.03.06-.01.02-.02.03-.02.05l-.01.04c-.01.02-.01.05-.01.07l-.01 3.78h-3.1c-.26 0-.47.2-.47.46v6.3h-.13c-.26 0-.47.21-.47.46 0 .26.21.46.47.46h.13v7.03h-.13a.47.47 0 0 0-.47.47c0 .25.21.46.47.46h30.27c.26 0 .47-.21.47-.46a.47.47 0 0 0-.47-.47z" style="fill:#48639e"/></svg>