<svg version="1.1" id="Layer_1" xmlns="http://www.w3.org/2000/svg" x="0" y="0" viewBox="0 0 45 45" style="enable-background:new 0 0 45 45" xml:space="preserve"><style>.st0{fill:#24a7d0}</style><path style="fill:none;stroke:#48639e;stroke-miterlimit:10" d="M4.77 38.67h35.46"/><path d="m37.84 17.43-.99-4.65c0-.25-.2-.45-.45-.45s-.46.21-.45.43l-1 4.68v2.07l-4-1.92v-1.44c.01-.04.01-.08 0-.12l-.99-4.66a.458.458 0 0 0-.44-.36h-.02c-.22 0-.4.15-.45.36l-.26 1.27-.85-3.89a.45.45 0 0 0-.44-.36h-.02c-.21 0-.4.15-.44.36l-.85 3.97-3.32-4.53a.483.483 0 0 0-.74 0l-3.33 4.53-.85-3.97a.458.458 0 0 0-.44-.36h-.03c-.21 0-.4.15-.44.36l-.83 3.89-.27-1.27a.458.458 0 0 0-.44-.36h-.02c-.22 0-.4.15-.45.36l-.99 4.67c-.01.03-.01.07 0 .09v1.46l-3.99 1.92v-2.08l-.99-4.64c0-.25-.21-.46-.46-.46s-.45.21-.45.43l-1 4.68v21.3c0 .12.05.24.14.32.08.09.2.14.32.14h29.78c.12 0 .24-.05.32-.14.09-.08.14-.2.14-.32V17.53c0-.03 0-.06-.01-.1zM9.14 38.27H8.06v-20.7l.54-2.54.54 2.52v20.72zm.91 0V20.53l3.98-1.92.02 19.66h-4zm4.91 0-.01-22.08.54-2.54.54 2.51.02 22.11h-1.09zm3.07 0h-1.07v-24.7l.54-2.54.53 2.52v24.72zm5.96 0h-2.88v-5.93c-.02-.4.13-.79.4-1.08a1.423 1.423 0 0 1 2.08 0c.27.29.42.68.4 1.09v5.92zm2.05 0H24.9v-5.92a2.47 2.47 0 0 0-.66-1.75c-.44-.46-1.05-.73-1.69-.73s-1.26.27-1.7.73c-.44.47-.68 1.11-.65 1.75v5.92h-1.24V14.05l3.54-4.81 3.54 4.81v24.22zm1.99 0h-1.08v-24.7l.54-2.54.54 2.52v24.72zm1.98 0h-1.07V16.19l.54-2.54.53 2.51v22.11zm4.94 0h-4V18.61l4 1.92v17.74zm1.99 0h-1.08v-20.7l.54-2.54.54 2.52v20.72z" style="fill:#48639e"/><path class="st0" d="M24.63 14.14a2.899 2.899 0 0 0-4.16 0c-.56.56-.86 1.31-.86 2.11 0 .79.31 1.56.86 2.11.55.57 1.29.88 2.08.88.78 0 1.52-.31 2.08-.88.54-.55.86-1.32.86-2.11 0-.8-.31-1.55-.86-2.11zm-2.54 4.12a2.063 2.063 0 0 1-1.52-1.55h1.52v1.55zm0-2.47h-1.52a2.063 2.063 0 0 1 1.52-1.55v1.55zm1.89 1.92c-.27.27-.61.46-.98.55v-1.55h1.52c-.08.38-.27.72-.54 1zM23 15.79v-1.55c.37.09.71.28.98.55.27.28.46.62.54 1H23zM24.01 22.57c-.39-.39-.91-.61-1.46-.61s-1.08.22-1.46.61c-.39.4-.6.92-.6 1.48v2.84c0 .12.04.24.13.32.08.09.2.14.32.14h3.21a.463.463 0 0 0 .46-.46v-2.84c0-.57-.21-1.09-.6-1.48zm-.31 3.85h-2.3v-2.38c-.02-.32.1-.64.31-.87.22-.23.52-.37.84-.37.31 0 .62.14.83.37.22.23.34.55.32.87v2.38zM13.15 23.89c-.28-.3-.68-.48-1.1-.48-.41 0-.81.18-1.09.48s-.43.71-.42 1.13v1.85c0 .13.05.25.14.33.08.09.2.14.32.14h2.11c.12 0 .24-.05.32-.14.09-.08.13-.2.13-.32v-1.86c.02-.41-.13-.83-.41-1.13zm-.5 2.53h-1.19v-1.41c-.01-.17.04-.34.16-.46.22-.24.65-.24.87 0 .12.12.17.29.16.47v1.4zM34.04 23.89c-.28-.3-.68-.48-1.09-.48-.42 0-.82.18-1.1.48-.28.3-.43.72-.41 1.13v1.85c-.01.13.04.25.13.33.08.09.2.14.32.14H34c.12 0 .24-.05.32-.14.09-.08.14-.2.14-.32v-1.86c.02-.42-.14-.83-.42-1.13zm-.5 2.53h-1.19v-1.41c-.01-.17.04-.34.16-.46.22-.24.65-.24.87 0 .12.12.18.29.16.47v1.4z"/></svg>