<svg version="1.1" id="Layer_1" xmlns="http://www.w3.org/2000/svg" x="0" y="0" viewBox="0 0 45 45" style="enable-background:new 0 0 45 45" xml:space="preserve"><style>.st0{fill:#24a7d0}</style><path style="fill:none;stroke:#48639e;stroke-miterlimit:10" d="M4.78 38.67H40.23"/><path d="m38.34 25.89-12.41-2.43v-.94c0-.18-.12-.35-.29-.41l-2.99-1.05a.478.478 0 0 0-.29 0l-2.98 1.05c-.17.06-.29.23-.29.41v.94L6.67 25.89c-.2.04-.35.22-.35.42v12.36h.87v-3.84l12.38-2.54h5.88l12.38 2.54v3.84h.86V26.31c0-.2-.14-.38-.35-.42zM19.09 31.5l-11.9 2.45v-.72l11.9-2.33v.6zm-9.01.28-1.52.3v-2.77c0-.42.34-.77.76-.77s.76.35.76.77v2.47zm3.81-.74-1.53.3v-2.8c0-.42.34-.76.76-.76s.77.34.77.76v2.5zm3.8-.75-1.53.3v-2.82c0-.42.35-.76.77-.76.42 0 .76.34.76.76v2.52zm1.4-.27-.53.1v-2.35c0-.9-.74-1.63-1.63-1.63-.9 0-1.63.73-1.63 1.63v2.99l-.55.11v-2.33c0-.9-.73-1.63-1.63-1.63-.89 0-1.63.73-1.63 1.63v2.97l-.54.1v-2.3a1.63 1.63 0 0 0-3.26 0v2.94l-.5.1v-5.68l11.9-2.33v5.68zm5.97 1.4h-5.1v-8.59l2.55-.9 2.55.9v8.59zm12.77 2.53-11.9-2.45v-.6l11.9 2.33v.72zm-8.98-3.36-1.52-.3v-2.52a.76.76 0 1 1 1.52 0v2.82zm3.81.75-1.53-.3v-2.5c0-.42.34-.76.76-.76.43 0 .77.34.77.76v2.8zm3.8.74-1.52-.3v-2.47a.76.76 0 1 1 1.52 0v2.77zm1.37.27-.5-.1v-2.94a1.63 1.63 0 0 0-3.26 0v2.3l-.55-.1v-2.97c0-.9-.73-1.63-1.63-1.63-.89 0-1.62.73-1.62 1.63v2.33l-.55-.11v-2.99a1.63 1.63 0 0 0-3.26 0v2.36l-.53-.11v-5.68l11.9 2.33v5.68z" style="fill:#48639e"/><path class="st0" d="M24.14 27.77v3.65h-.87v-3.65a.76.76 0 1 0-1.52 0v3.65h-.87v-3.65a1.63 1.63 0 0 1 3.26 0zM10.95 29.31v2.3l-.87.17v-2.47c0-.42-.34-.77-.76-.77s-.76.35-.76.77v2.77l-.87.17v-2.94a1.63 1.63 0 0 1 3.26 0zM14.75 28.54v2.33l-.86.17v-2.5c0-.42-.35-.76-.77-.76a.76.76 0 0 0-.76.76v2.8l-.87.17v-2.97c0-.9.74-1.63 1.63-1.63.9 0 1.63.73 1.63 1.63zM18.56 27.77v2.35l-.87.17v-2.52a.76.76 0 0 0-.76-.76c-.42 0-.77.34-.77.76v2.82l-.86.17v-2.99c0-.9.73-1.63 1.63-1.63.89 0 1.63.73 1.63 1.63zM29.72 27.77v2.99l-.87-.17v-2.82a.76.76 0 1 0-1.52 0v2.52l-.87-.17v-2.35a1.63 1.63 0 0 1 3.26 0zM33.52 28.54v2.97l-.86-.17v-2.8c0-.42-.34-.76-.77-.76a.76.76 0 0 0-.76.76v2.5l-.86-.17v-2.33c0-.9.73-1.63 1.62-1.63.9 0 1.63.73 1.63 1.63zM37.33 29.31v2.94l-.87-.17v-2.77a.76.76 0 1 0-1.52 0v2.47l-.87-.17v-2.3a1.63 1.63 0 0 1 3.26 0z"/></svg>