<svg version="1.1" id="Layer_1" xmlns="http://www.w3.org/2000/svg" x="0" y="0" viewBox="0 0 45 45" style="enable-background:new 0 0 45 45" xml:space="preserve"><style>.st0{fill:#24a7d0}.st1{fill:#48639e}</style><path class="st0" d="M23.27 17.96c-.14 0-.27-.05-.36-.14a.448.448 0 0 1-.15-.34c0-.13-.12-.24-.26-.24s-.26.11-.26.24c0 .27-.23.48-.52.48s-.52-.22-.52-.48c0-.43.25-.83.64-1.04.4-.22.89-.22 1.29 0s.64.61.64 1.04c0 .13-.05.25-.15.34-.08.09-.21.14-.35.14z"/><path class="st0" d="M23.27 19.41c-.14 0-.27-.05-.36-.14a.448.448 0 0 1-.15-.34v-1.45c0-.27.23-.48.52-.48.28 0 .52.22.52.48v1.45c0 .13-.05.25-.15.34-.11.09-.24.14-.38.14zM21.73 19.41c-.14 0-.27-.05-.36-.14a.448.448 0 0 1-.15-.34v-1.45c0-.27.23-.48.52-.48s.52.22.52.48v1.45c0 .13-.05.25-.15.34-.12.09-.25.14-.38.14z"/><path class="st1" d="M12.71 31.94h-1.55c-.28 0-.52-.22-.52-.48 0-.27.23-.48.52-.48h1.55c.28 0 .52.22.52.48-.01.27-.24.48-.52.48zM12.71 35.32h-1.55c-.28 0-.52-.22-.52-.48s.23-.48.52-.48h1.55c.28 0 .52.22.52.48s-.24.48-.52.48zM33.84 31.94h-1.55c-.28 0-.52-.22-.52-.48 0-.27.23-.48.52-.48h1.55c.28 0 .52.22.52.48 0 .27-.23.48-.52.48zM33.84 35.32h-1.55c-.28 0-.52-.22-.52-.48s.23-.48.52-.48h1.55c.28 0 .52.22.52.48s-.23.48-.52.48z"/><path class="st1" d="M11.16 39.18c-.14 0-.27-.05-.36-.14a.448.448 0 0 1-.15-.34V25.2c0-.27.23-.48.52-.48.28 0 .52.22.52.48v13.5c0 .13-.05.25-.15.34-.11.08-.24.14-.38.14zM12.71 39.18c-.14 0-.27-.05-.36-.14a.448.448 0 0 1-.15-.34V25.2c0-.27.23-.48.52-.48.28 0 .52.22.52.48v13.5c0 .13-.05.25-.15.34a.71.71 0 0 1-.38.14z"/><path class="st1" d="M13.22 25.68h-2.58c-.28 0-.52-.22-.52-.48s.23-.48.52-.48h2.58c.28 0 .52.22.52.48s-.23.48-.52.48zM18.89 39.18c-.14 0-.27-.05-.36-.14a.448.448 0 0 1-.15-.34V18.93c0-.27.23-.48.52-.48.28 0 .52.22.52.48V38.7c0 .13-.05.25-.15.34-.11.08-.24.14-.38.14zM26.11 39.18c-.14 0-.27-.05-.36-.14a.448.448 0 0 1-.15-.34V18.93c0-.27.23-.48.52-.48s.52.22.52.48V38.7c0 .13-.05.25-.15.34-.11.08-.24.14-.38.14z"/><path class="st1" d="M12.68 30.98c-.22 0-.41-.13-.49-.32a.456.456 0 0 1 .16-.53l6.21-4.82c.22-.17.54-.14.73.06s.15.51-.07.68l-6.21 4.82c-.09.07-.21.11-.33.11zM33.84 39.18c-.14 0-.27-.05-.36-.14a.448.448 0 0 1-.15-.34V25.2c0-.27.23-.48.52-.48.28 0 .52.22.52.48v13.5c0 .13-.05.25-.15.34-.11.08-.24.14-.38.14zM32.29 39.18c-.14 0-.27-.05-.36-.14a.448.448 0 0 1-.15-.34V25.2c0-.27.23-.48.52-.48s.52.22.52.48v13.5c0 .13-.05.25-.15.34-.11.08-.24.14-.38.14z"/><path class="st1" d="M34.36 25.68h-2.58c-.28 0-.52-.22-.52-.48s.23-.48.52-.48h2.58c.28 0 .52.22.52.48s-.24.48-.52.48zM32.32 30.98c-.12 0-.24-.04-.33-.11l-6.21-4.82a.463.463 0 0 1-.07-.68c.18-.2.51-.23.73-.06l6.21 4.82c.17.13.23.34.16.53-.08.19-.27.32-.49.32zM26.11 19.41h-7.22c-.28 0-.52-.22-.52-.48s.23-.48.52-.48h7.22c.28 0 .52.22.52.48s-.24.48-.52.48z"/><path class="st1" d="M18.89 19.41c-.17 0-.33-.08-.43-.21-.1-.13-.11-.3-.05-.45l3.61-8.2a.48.48 0 0 1 .28-.26c.13-.05.27-.05.39 0 .26.1.39.38.28.63l-3.61 8.2c-.07.17-.26.29-.47.29z"/><path class="st1" d="M26.11 19.41c-.21 0-.4-.12-.48-.3l-3.61-8.2c-.11-.25.02-.53.28-.63.26-.1.56.02.67.26l3.61 8.2c.07.15.05.32-.05.45s-.25.22-.42.22z"/><path class="st1" d="M24.2 15.07h-3.42c-.28 0-.52-.22-.52-.48 0-.27.23-.48.52-.48h3.42c.28 0 .52.22.52.48-.01.26-.24.48-.52.48z"/><path class="st0" d="M24.56 35.32c-.14 0-.27-.05-.36-.14a.448.448 0 0 1-.15-.34c0-.52-.29-.99-.77-1.25-.48-.26-1.07-.26-1.55 0s-.77.74-.77 1.25c0 .27-.23.48-.52.48s-.52-.22-.52-.48c0-.86.49-1.66 1.29-2.09.8-.43 1.78-.43 2.58 0s1.29 1.23 1.29 2.09c0 .13-.05.25-.15.34-.1.09-.23.14-.37.14z"/><path class="st0" d="M20.44 39.18c-.14 0-.27-.05-.36-.14a.448.448 0 0 1-.15-.34v-3.86c0-.27.23-.48.52-.48s.52.22.52.48v3.86c0 .13-.05.25-.15.34-.11.08-.25.14-.38.14zM24.56 39.18c-.14 0-.27-.05-.36-.14a.448.448 0 0 1-.15-.34v-3.86c0-.27.23-.48.52-.48s.52.22.52.48v3.86c0 .13-.05.25-.15.34-.11.08-.24.14-.38.14zM22.5 39.18c-.14 0-.27-.05-.36-.14a.448.448 0 0 1-.15-.34v-5.79c0-.27.23-.48.52-.48s.52.22.52.48v5.79c0 .13-.05.25-.15.34-.11.08-.24.14-.38.14z"/><path class="st1" d="M26.05 26.16h-7.16c-.28 0-.52-.22-.52-.48s.23-.48.52-.48h7.16c.28 0 .52.22.52.48s-.24.48-.52.48z"/><path class="st0" d="M30.23 32.91c-.14 0-.27-.05-.36-.14a.448.448 0 0 1-.15-.34c0-.27-.23-.48-.52-.48s-.52.22-.52.48-.23.48-.52.48-.52-.22-.52-.48c0-.52.29-.99.77-1.25.48-.26 1.07-.26 1.55 0s.77.74.77 1.25c0 .13-.05.25-.15.34-.08.09-.21.14-.35.14z"/><path class="st0" d="M28.17 36.76c-.14 0-.27-.05-.36-.14a.448.448 0 0 1-.15-.34v-3.86c0-.27.23-.48.52-.48s.52.22.52.48v3.86c0 .13-.05.25-.15.34-.11.09-.24.14-.38.14zM30.23 36.76c-.14 0-.27-.05-.36-.14a.448.448 0 0 1-.15-.34v-3.86c0-.27.23-.48.52-.48s.52.22.52.48v3.86c0 .13-.05.25-.15.34-.11.09-.24.14-.38.14z"/><path class="st0" d="M30.23 36.76h-2.06c-.28 0-.52-.22-.52-.48 0-.27.23-.48.52-.48h2.06c.28 0 .52.22.52.48 0 .27-.23.48-.52.48zM16.82 32.91c-.14 0-.27-.05-.36-.14a.448.448 0 0 1-.15-.34c0-.27-.23-.48-.52-.48s-.52.22-.52.48-.23.48-.52.48c-.28 0-.52-.22-.52-.48 0-.52.29-.99.77-1.25.48-.26 1.07-.26 1.55 0s.77.74.77 1.25c0 .13-.05.25-.15.34a.5.5 0 0 1-.35.14z"/><path class="st0" d="M14.75 36.76c-.14 0-.27-.05-.36-.14a.448.448 0 0 1-.15-.34v-3.86c0-.27.23-.48.52-.48.28 0 .52.22.52.48v3.86c0 .13-.05.25-.15.34-.11.09-.24.14-.38.14zM16.82 36.76c-.14 0-.27-.05-.36-.14a.448.448 0 0 1-.15-.34v-3.86c0-.27.23-.48.52-.48s.52.22.52.48v3.86c0 .13-.05.25-.15.34-.12.09-.25.14-.38.14z"/><path class="st0" d="M16.82 36.76h-2.06c-.28 0-.52-.22-.52-.48 0-.27.23-.48.52-.48h2.06c.28 0 .52.22.52.48-.01.27-.24.48-.52.48z"/><path class="st1" d="M23.53 23.75h-2.06c-.14 0-.27-.05-.36-.14a.448.448 0 0 1-.15-.34v-1.93c0-.13.05-.25.15-.34.1-.09.23-.14.36-.14h2.06c.14 0 .27.05.36.14.1.09.15.21.15.34v1.93c0 .13-.05.25-.15.34-.09.09-.22.14-.36.14zm-1.55-.97h1.03v-.96h-1.03v.96zM22.5 31.46c-.55 0-1.07-.2-1.46-.56-.39-.36-.6-.85-.6-1.36s.22-1 .6-1.36c.39-.36.91-.56 1.46-.56s1.07.2 1.46.56c.39.36.6.85.6 1.36 0 .51-.22 1-.6 1.36s-.91.56-1.46.56zm0-2.89c-.27 0-.54.1-.73.28-.19.18-.3.43-.3.68s.11.5.3.68c.19.18.46.28.73.28s.54-.1.73-.28c.19-.18.3-.43.3-.68 0-.26-.11-.5-.3-.68-.19-.18-.46-.28-.73-.28z"/><path style="fill:none;stroke:#48639e;stroke-miterlimit:10" d="M4.77 38.67h35.46"/></svg>