<svg version="1.1" id="Layer_1" xmlns="http://www.w3.org/2000/svg" x="0" y="0" viewBox="0 0 45 45" style="enable-background:new 0 0 45 45" xml:space="preserve"><style>.st3{fill:#48639e;stroke:#48639e;stroke-width:.25;stroke-miterlimit:10}</style><path d="M22.41 22.36a1.917 1.917 0 0 0-3.45.83l-.62 3.96 3.79.6.62-3.96c.08-.51-.04-1.02-.34-1.43zm-.67 1.27-.46 2.95-1.77-.28.46-2.95a.9.9 0 0 1 .88-.76c.05 0 .09 0 .14.01.49.08.83.54.75 1.03zm7.36-10.95a1.917 1.917 0 0 0-3.45.83l-.62 3.96 3.79.6.62-3.96c.09-.5-.04-1.01-.34-1.43zm-.66 1.27-.46 2.95-1.77-.28.46-2.95a.91.91 0 0 1 1.03-.75c.23.04.45.17.59.36.13.2.18.44.15.67zm-.98 9.2a1.917 1.917 0 0 0-3.45.83l-.62 3.96 3.79.6.62-3.96c.08-.5-.05-1.01-.34-1.43zm-.67 1.27-.46 2.95-1.77-.28.46-2.95c.04-.24.17-.45.36-.59.19-.14.43-.2.67-.16.23.04.45.17.59.36.13.2.19.44.15.67zm-5.64-2.83a1.917 1.917 0 0 0-2.2 1.6l-.62 3.96 3.79.6.62-3.96c.08-.5-.05-1.02-.35-1.43-.28-.41-.73-.69-1.24-.77zm.59 2.04-.46 2.95-1.77-.28.46-2.95a.9.9 0 0 1 .88-.76c.05 0 .09 0 .14.01.49.08.83.54.75 1.03zm7.36-10.95a1.917 1.917 0 0 0-3.45.83l-.62 3.96 3.79.6.62-3.96c.09-.5-.04-1.01-.34-1.43zm-.66 1.27-.46 2.95-1.77-.28.46-2.95a.91.91 0 0 1 1.03-.75c.23.04.45.17.59.36.13.2.18.44.15.67zm-5.64-2.83a1.917 1.917 0 0 0-2.2 1.6l-.62 3.96 3.79.6.62-3.96c.08-.5-.05-1.02-.35-1.43s-.74-.69-1.24-.77zm.59 2.04-.46 2.95-1.77-.28.46-2.95c.02-.12.06-.23.12-.33s.14-.19.24-.26c.19-.14.43-.2.67-.16.24.04.45.17.59.36.13.19.19.43.15.67zm4.46-1.24a1.917 1.917 0 0 0-2.2 1.6l-.62 3.96 3.79.6.62-3.96c.08-.5-.05-1.02-.35-1.43-.29-.42-.74-.69-1.24-.77zm.59 2.03-.46 2.95-1.77-.28.46-2.95a.91.91 0 0 1 1.03-.75c.23.04.45.17.59.36.13.2.18.44.15.67zm-2.24 8.44a1.917 1.917 0 0 0-2.2 1.6l-.62 3.96 3.79.6.62-3.96c.08-.5-.05-1.02-.35-1.43-.28-.42-.73-.69-1.24-.77zm.59 2.03-.46 2.95-1.77-.28.46-2.95c.04-.24.17-.45.36-.59.19-.14.43-.2.67-.16.23.04.45.17.59.36.13.2.19.44.15.67zm-2.24 8.44c-.5-.08-1.02.05-1.43.35-.41.3-.69.75-.76 1.26l-.57 3.85h1.03l.55-3.69c.04-.23.17-.45.36-.59.19-.14.43-.2.67-.16.49.08.82.54.75 1.03l-.53 3.41h1.04l.51-3.25c.08-.5-.04-1.02-.34-1.43a1.92 1.92 0 0 0-1.28-.78zM22.8 11.12a1.917 1.917 0 0 0-2.2 1.6l-.62 3.96 3.79.6.62-3.96c.08-.5-.05-1.02-.35-1.43s-.74-.69-1.24-.77zm.59 2.04-.46 2.95-1.77-.28.46-2.95c.02-.12.06-.23.12-.33s.14-.19.24-.26c.19-.14.43-.2.67-.16.24.04.45.17.59.36.13.19.19.43.15.67zm-2.24 8.43a1.917 1.917 0 0 0-2.2 1.6l-.62 3.96 3.79.6.62-3.96c.08-.5-.05-1.02-.35-1.43-.28-.41-.73-.69-1.24-.77zm.59 2.04-.46 2.95-1.77-.28.46-2.95a.9.9 0 0 1 .88-.76c.05 0 .09 0 .14.01.49.08.83.54.75 1.03zm-1.32 8.84c-.53-.43-1.25-.55-1.89-.3-.64.24-1.1.81-1.21 1.49l-.8 4.65h1.04l.77-4.49c.08-.49.54-.82 1.02-.75.49.08.82.54.75 1.02l-.67 4.21h1.04l.64-4.05c.02-.1.02-.2.02-.3 0-.57-.26-1.11-.71-1.48zm3.64-20.58a1.917 1.917 0 0 0-3.45.83l-.62 3.96 3.79.6.62-3.96c.08-.51-.05-1.02-.34-1.43zm-.67 1.27-.46 2.95-1.77-.28.46-2.95c.02-.12.06-.23.12-.33s.14-.19.24-.26c.19-.14.43-.2.67-.16.24.04.45.17.59.36.13.19.19.43.15.67zm4.07 9.99a1.917 1.917 0 0 0-3.45.83l-.62 3.96 3.79.6.62-3.96c.08-.5-.05-1.01-.34-1.43zm-.67 1.27-.46 2.95-1.77-.28.46-2.95c.04-.24.17-.45.36-.59.19-.14.43-.2.67-.16.23.04.45.17.59.36.13.2.19.44.15.67z" style="fill:#24a7d0"/><path style="fill:none;stroke:#48639e;stroke-miterlimit:10" d="M4.77 38.67h35.46"/><path d="m19.07 6.35-5.29 31.96h1.03l1.25-7.56 11.99 1.89-.89 5.67h1.04l4.68-29.79-13.81-2.17zm9.14 25.27-11.98-1.88 1.56-9.45 11.91 1.87-1.49 9.46zm1.65-10.47-11.9-1.87 1.57-9.45 11.82 1.86-1.49 9.46zM19.69 8.82l.22-1.3 11.8 1.85-.2 1.31-11.82-1.86z" style="fill:#48639e"/></svg>