<svg version="1.1" id="Layer_1" xmlns="http://www.w3.org/2000/svg" x="0" y="0" viewBox="0 0 45 45" style="enable-background:new 0 0 45 45" xml:space="preserve"><style>.st3{fill:#48639e;stroke:#48639e;stroke-width:.25;stroke-miterlimit:10}</style><path style="fill:none;stroke:#48639e;stroke-miterlimit:10" d="M4.77 38.67h35.46"/><path d="M23.71 18.78c-.31-.32-.74-.5-1.19-.5-.45 0-.87.18-1.19.5-.32.33-.49.77-.49 1.22v3.6h3.37V20c0-.45-.18-.89-.5-1.22zm-.41 3.89h-1.56V20c0-.44.35-.79.78-.79s.78.35.78.79v2.67zm6.12 3.65c-.31-.32-.74-.5-1.19-.5s-.88.18-1.19.5c-.32.33-.5.77-.5 1.22v3.6h3.38v-3.6c0-.45-.18-.89-.5-1.22zm-.41 3.89h-1.56v-2.67c0-.44.35-.79.78-.79s.78.35.78.79v2.67zm-11-3.89c-.32-.32-.75-.5-1.19-.5-.45 0-.88.18-1.2.5-.31.33-.49.77-.49 1.22v3.6h3.37v-3.6c0-.45-.18-.89-.49-1.22zm-.41 3.89h-1.56v-2.67c0-.44.34-.79.78-.79.43 0 .78.35.78.79v2.67zm6.11-3.89c-.31-.32-.74-.5-1.19-.5-.45 0-.87.18-1.19.5-.32.33-.49.77-.49 1.22v3.6h3.37v-3.6c0-.45-.18-.89-.5-1.22zm-.41 3.89h-1.56v-2.67c0-.44.35-.79.78-.79s.78.35.78.79v2.67zm-5.29-11.43c-.32-.32-.75-.5-1.19-.5-.45 0-.88.18-1.2.5-.31.33-.49.77-.49 1.22v3.6h3.37V20c0-.45-.18-.89-.49-1.22zm-.41 3.89h-1.56V20c0-.44.34-.79.78-.79.43 0 .78.35.78.79v2.67zm11.82 3.65c-.31-.32-.74-.5-1.19-.5s-.88.18-1.19.5c-.32.33-.5.77-.5 1.22v3.6h3.38v-3.6c0-.45-.18-.89-.5-1.22zm-.41 3.89h-1.56v-2.67c0-.44.35-.79.78-.79s.78.35.78.79v2.67zm-6.49-4.39c-.45 0-.87.18-1.19.5-.32.33-.49.77-.49 1.22v3.6h3.37v-3.6c0-.45-.18-.89-.5-1.22-.31-.32-.74-.5-1.19-.5zm.78 4.39h-1.56v-2.67c0-.44.35-.79.78-.79s.78.35.78.79v2.67zm-.78-11.93c-.45 0-.87.18-1.19.5-.32.33-.49.77-.49 1.22v3.6h3.37V20c0-.45-.18-.89-.5-1.22-.31-.32-.74-.5-1.19-.5zm.78 4.39h-1.56V20c0-.44.35-.79.78-.79s.78.35.78.79v2.67zm-6.48 3.15c-.45 0-.88.18-1.2.5-.31.33-.49.77-.49 1.22v3.6h3.37v-3.6c0-.45-.18-.89-.49-1.22-.32-.32-.75-.5-1.19-.5zm.78 4.39h-1.56v-2.67c0-.44.34-.79.78-.79.43 0 .78.35.78.79v2.67zm-.78-11.93c-.45 0-.88.18-1.2.5-.31.33-.49.77-.49 1.22v3.6h3.37V20c0-.45-.18-.89-.49-1.22-.32-.32-.75-.5-1.19-.5zm.78 4.39h-1.56V20c0-.44.34-.79.78-.79.43 0 .78.35.78.79v2.67zm11.82 3.65c-.31-.32-.74-.5-1.19-.5s-.88.18-1.19.5c-.32.33-.5.77-.5 1.22v3.6h3.38v-3.6c0-.45-.18-.89-.5-1.22zm-.41 3.89h-1.56v-2.67c0-.44.35-.79.78-.79s.78.35.78.79v2.67zm-6.49-4.39c-.45 0-.87.18-1.19.5-.32.33-.49.77-.49 1.22v3.6h3.37v-3.6c0-.45-.18-.89-.5-1.22-.31-.32-.74-.5-1.19-.5zm.78 4.39h-1.56v-2.67c0-.44.35-.79.78-.79s.78.35.78.79v2.67zm-.78-11.93c-.45 0-.87.18-1.19.5-.32.33-.49.77-.49 1.22v3.6h3.37V20c0-.45-.18-.89-.5-1.22-.31-.32-.74-.5-1.19-.5zm.78 4.39h-1.56V20c0-.44.35-.79.78-.79s.78.35.78.79v2.67zm-6.48 3.15c-.45 0-.88.18-1.2.5-.31.33-.49.77-.49 1.22v3.6h3.37v-3.6c0-.45-.18-.89-.49-1.22-.32-.32-.75-.5-1.19-.5zm.78 4.39h-1.56v-2.67c0-.44.34-.79.78-.79.43 0 .78.35.78.79v2.67zm-.78-11.93c-.45 0-.88.18-1.2.5-.31.33-.49.77-.49 1.22v3.6h3.37V20c0-.45-.18-.89-.49-1.22-.32-.32-.75-.5-1.19-.5zm.78 4.39h-1.56V20c0-.44.34-.79.78-.79.43 0 .78.35.78.79v2.67z" style="fill:#24a7d0"/><path d="m33.85 22.1-3.56-1.9-.28 4.02h-2.63l-2.16-9.75H11.9L9.73 38.23h-.05v.93h25.58v-.93h.06L33.85 22.1zm-21.13-6.7H24.5l.26 1.17H12.61l.11-1.17zm-.89 9.75h12.31v-.93H11.92l.61-6.72h12.43l1.7 7.65h4.19l.25-3.47 1.89 1.01.87 9.54H11.19l.64-7.08zm2.91 13.08h-1.56v-2.67c0-.44.35-.8.78-.8.43 0 .78.36.78.8v2.67zm5.71 0h-1.56v-2.67c0-.21.08-.41.23-.56.14-.15.34-.24.55-.24.21 0 .4.09.55.24.15.15.23.35.23.56v2.67zm5.71 0H24.6v-2.67c0-.44.35-.8.78-.8s.77.36.78.8v2.67zm5.7 0H30.3v-2.67c0-.44.35-.8.78-.8s.78.36.78.8v2.67zm.91 0v-2.67c0-.61-.32-1.18-.84-1.49-.53-.31-1.17-.31-1.69 0s-.84.88-.84 1.49v2.67h-2.34v-2.67c0-.62-.32-1.19-.84-1.49-.52-.31-1.17-.31-1.69 0-.52.3-.84.87-.84 1.49v2.67h-2.33v-2.67c0-.46-.18-.9-.5-1.22-.31-.32-.74-.51-1.19-.51s-.88.19-1.19.51c-.32.32-.5.76-.5 1.22v2.67h-2.33v-2.67c0-.62-.32-1.19-.84-1.49-.53-.31-1.17-.31-1.69 0-.52.3-.85.87-.85 1.49v2.67h-1.63l.46-5.07h22.84l.46 5.07h-1.63z" style="fill:#48639e"/></svg>