<svg version="1.1" id="Layer_1" xmlns="http://www.w3.org/2000/svg" x="0" y="0" viewBox="0 0 45 45" style="enable-background:new 0 0 45 45" xml:space="preserve"><style>.st0{fill:#24a7d0}</style><path style="fill:none;stroke:#48639e;stroke-miterlimit:10" d="M4.77 38.67h35.46"/><path class="st0" d="M14.33 31.28c-.86 0-1.55.7-1.55 1.55v6.03h.86v-6.03c0-.38.31-.69.69-.69.38 0 .7.31.7.69v6.03h.86v-6.03c0-.85-.7-1.55-1.56-1.55zM30.76 31.28c-.86 0-1.55.7-1.55 1.55v6.03h.86v-6.03c0-.38.31-.69.69-.69.38 0 .7.31.7.69v6.03h.86v-6.03c0-.85-.7-1.55-1.56-1.55zM22.53 20.78a1.9 1.9 0 1 0 0 3.8 1.9 1.9 0 1 0 0-3.8zm0 2.93a1.04 1.04 0 1 1-.002-2.078 1.04 1.04 0 0 1 .002 2.078z"/><path d="M35.76 38.39V24l-1.02-2.35L33.73 24v2.06l-1.77-2.94v-.55h.45v-.61h-.45v-.49h-.61v.49h-.46v.61h.46v.55l-1.84 3.06v-9.34l-.92-2.45-.93 2.45v2.93h-.2l-4.48-4.81h-.28v-1.01h.45v-.61h-.45v-.45h-.61v.45h-.44v.61h.44v1.01h-.29l-4.39 4.71v-2.84l-.93-2.45-.92 2.45v9.34l-1.84-3.06v-.55h.49v-.61h-.49v-.49h-.62v.49h-.42v.61h.42v.55l-1.83 3.04V24l-1.02-2.35L9.24 24v14.39H8.17V39h28.65v-.61h-1.06zM31.65 23.8l1.52 2.54h-3.05l1.53-2.54zm-3.38-6.85.32-.84.32.84v9.38h-.63v-9.38zm-.61 3.43v4.48h-2.19v-4.48h2.19zm-5.6-4.81h.66l3.91 4.2h-8.48l3.91-4.2zm2.8 4.81v4.48H20.2v-4.48h4.66zm-7.46 0h2.19v4.48H17.4v-4.48zm0 5.09h10.25v.86H17.4v-.86zm-1.24-8.52.32-.84.32.84v3.38l-.05.05h.05v5.95h-.63v-9.38zm-2.75 6.85 1.52 2.54h-3.05l1.53-2.54zm-2.74 14.59h-.82V24.13l.41-.94.41.94v14.26zm6.89 0h-6.29v-9.07h6.29v9.07zm1.58 0h-.97v-9.07h3.02l-2.05 2v7.07zm3.28-9.41 2.22 2.16H20.2l2.22-2.16zm1.5 9.41h-3.01v-3.68c0-.83.68-1.5 1.5-1.5.83 0 1.5.68 1.5 1.5v3.68zm1.16 0h-.55v-3.68a2.11 2.11 0 0 0-4.22 0v3.68h-.55v-6.64h5.33v6.64zm1.75 0h-1.14v-7.07l-2.05-2h3.19v9.07zm6.9 0h-6.29v-9.07h6.29v9.07zm0-9.68H23.01l-.6-.58-.6.58H11.27v-1.76h22.45v1.76zm1.42 9.68h-.82V24.13l.41-.94.41.94v14.26z" style="fill:#48639e;stroke:#48639e;stroke-width:.25;stroke-miterlimit:10"/></svg>