<svg version="1.1" id="Layer_1" xmlns="http://www.w3.org/2000/svg" x="0" y="0" viewBox="0 0 45 45" style="enable-background:new 0 0 45 45" xml:space="preserve"><style>.st0{fill:#24a7d0}</style><path style="fill:none;stroke:#48639e;stroke-miterlimit:10" d="M4.77 38.67h35.46"/><path d="M37.24 39.14H7.85a.48.48 0 0 1 0-.96h.42V37c0-.27.22-.48.48-.48h.6V17.9c0-.27.22-.48.48-.48h2.13c.27 0 .48.22.48.48v1.38h.77V17.9c0-.27.22-.48.48-.48h2.13c.27 0 .48.22.48.48v1.38h.77V17.9c0-.27.22-.48.48-.48h2.13c.27 0 .48.22.48.48v1.38h.77V17.9c0-.27.22-.48.48-.48h2.13c.27 0 .48.22.48.48v1.38h.77V17.9c0-.27.22-.48.48-.48h2.13c.27 0 .48.22.48.48v1.38h.77V17.9c0-.27.22-.48.48-.48h2.13c.27 0 .48.22.48.48v1.38h.77V17.9c0-.27.22-.48.48-.48h2.13c.27 0 .48.22.48.48v18.61h.6c.27 0 .48.22.48.48v1.18h.42c.27 0 .48.22.48.48.05.25-.12.44-.34.49zm-.09-.5zm-27.91-.46h26.53v-.69H9.24v.69zm22.49-1.2h.21v-.2h-.21v.2zm.72-.46h2.23V18.39h-1.17v1.38c0 .27-.22.48-.48.48H31.3a.48.48 0 0 1-.48-.48v-1.38h-1.17v1.38c0 .27-.22.48-.48.48h-1.74a.48.48 0 0 1-.48-.48v-1.38h-1.17v1.38c0 .27-.22.48-.48.48h-1.74a.48.48 0 0 1-.48-.48v-1.38h-1.17v1.38c0 .27-.22.48-.48.48H19.7a.48.48 0 0 1-.48-.48v-1.38h-1.17v1.38c0 .27-.22.48-.48.48h-1.73a.48.48 0 0 1-.48-.48v-1.38h-1.17v1.38c0 .27-.22.48-.48.48h-1.73a.48.48 0 0 1-.48-.48v-1.38h-1.17v18.13h2.23v-.43h-1.32a.48.48 0 0 1-.48-.48V21.16c0-.27.22-.48.48-.48h22.53c.27 0 .48.22.48.48V35.6c0 .27-.22.48-.48.48h-1.32v.44zm-4.41 0h3.45v-3.6c0-.58-.87-1.56-1.72-2.28-.86.72-1.72 1.7-1.72 2.28v3.6zm-2.85 0h1.88v-.43h-1.88v.43zm-4.41 0h3.45v-3.59c0-.58-.87-1.56-1.72-2.28-.75.63-1.72 1.67-1.72 2.28v3.59zm-2.85 0h1.88v-.43h-1.88v.43zm-4.42 0h3.45v-3.59c0-.57-.84-1.53-1.73-2.28-.86.72-1.72 1.71-1.72 2.28v3.59zm18.94-1.4h.83V21.65H11.72v13.48h.83v-2.2c0-1.14 1.33-2.42 2.13-3.07.15-.12.25-.2.26-.21.07-.05.15-.09.24-.09h.06c.07 0 .15.02.22.06l.07.04c.4.31 2.39 1.9 2.4 3.28v2.21h1.88v-2.2c0-1.39 2-2.98 2.4-3.29.13-.1.31-.12.48-.05l.06.01.07.06c.22.16 2.36 1.84 2.37 3.26v2.2h1.88v-2.2c0-1.42 2.15-3.1 2.4-3.29l.04-.03c.22-.14.4-.05.47-.02l.1.06c.74.53 2.35 2.06 2.37 3.25v2.21z" style="fill:#48639e"/><path class="st0" d="M17.45 27.43h-4.41a.48.48 0 0 1-.48-.48v-1.61c0-1.39 2.02-2.8 2.42-3.07.16-.11.37-.11.53 0 .25.16 2.42 1.64 2.42 3.08v1.61c0 .25-.22.47-.48.47zm-3.93-.97h3.45v-1.13c0-.57-.87-1.46-1.72-2.08-.86.63-1.72 1.51-1.72 2.08v1.13zM24.71 27.43H20.3a.48.48 0 0 1-.48-.48v-1.61c0-1.39 2.02-2.8 2.42-3.07.16-.11.37-.11.53 0 .4.27 2.42 1.68 2.42 3.07v1.61c0 .26-.22.48-.48.48zm-3.94-.97h3.45v-1.13c0-.57-.87-1.46-1.72-2.08-.86.63-1.72 1.51-1.72 2.08v1.13zM31.97 27.43h-4.41a.48.48 0 0 1-.48-.48v-1.62c0-1.39 2.02-2.8 2.42-3.07.16-.11.37-.11.53 0 .41.27 2.42 1.69 2.42 3.08v1.62c0 .25-.22.47-.48.47zm-3.93-.97h3.45v-1.13c0-.57-.87-1.46-1.72-2.08-.86.63-1.72 1.51-1.72 2.08v1.13z"/></svg>